<svg width="25" height="24" viewBox="0 0 25 24" fill="none" xmlns="http://www.w3.org/2000/svg">
<path fill-rule="evenodd" clip-rule="evenodd" d="M12.4999 2C12.5424 2 12.5837 2.0053 12.6231 2.01529C12.6468 2.00544 12.6727 2 12.6999 2H15.2999C15.4104 2 15.4999 2.08954 15.4999 2.2V3.8C15.4999 3.91046 15.4104 4 15.2999 4H12.9999V5.51787C14.6737 5.63767 16.2553 6.35586 17.4496 7.55025C18.1523 8.25287 18.6901 9.08947 19.0382 10H20C20.2761 10 20.5 10.2239 20.5 10.5V12.5C20.5 12.7761 20.2761 13 20 13H19.5V18H20C20.2761 18 20.5 18.2239 20.5 18.5V20H21C21.2761 20 21.5 20.2239 21.5 20.5V22.5C21.5 22.7761 21.2761 23 21 23H4C3.72386 23 3.5 22.7761 3.5 22.5V20.5C3.5 20.2239 3.72386 20 4 20H4.5V18.5C4.5 18.2239 4.72386 18 5 18H5.5V13H5C4.72386 13 4.5 12.7761 4.5 12.5V10.5C4.5 10.2239 4.72386 10 5 10H5.96155C6.30971 9.08947 6.84753 8.25287 7.55015 7.55025C8.74456 6.35584 10.3262 5.63765 11.9999 5.51786V2.5C11.9999 2.22386 12.2238 2 12.4999 2ZM8.25726 8.25736C7.7481 8.76652 7.33989 9.35777 7.04554 10H17.9543C17.6599 9.35777 17.2517 8.76652 16.7425 8.25736C15.6173 7.13214 14.0912 6.5 12.4999 6.5C10.9086 6.5 9.38247 7.13214 8.25726 8.25736ZM17.5 13H18.5V18H17.5V13ZM5.5 12V11H19.5V12H5.5ZM16.5 13H14.5V18H16.5V13ZM11.5 13H13.5V18H11.5V13ZM8.5 13H10.5V18H8.5V13ZM6.5 13H7.5V18H6.5V13ZM19.5 20V19H5.5V20H19.5ZM4.5 21V22H20.5V21H4.5Z" fill="black"/>
</svg>
