<svg width="25" height="24" viewBox="0 0 25 24" fill="none" xmlns="http://www.w3.org/2000/svg">
<path fill-rule="evenodd" clip-rule="evenodd" d="M12.5002 5C9.73882 5 7.50024 7.23858 7.50024 10C7.50024 12.7614 9.73882 15 12.5002 15C15.2617 15 17.5002 12.7614 17.5002 10C17.5002 7.23858 15.2617 5 12.5002 5ZM8.50024 10C8.50024 7.79086 10.2911 6 12.5002 6C14.7094 6 16.5002 7.79086 16.5002 10C16.5002 12.2091 14.7094 14 12.5002 14C10.2911 14 8.50024 12.2091 8.50024 10Z" fill="black"/>
<path fill-rule="evenodd" clip-rule="evenodd" d="M12.5002 1.97925C11.4578 1.97925 10.4268 2.19656 9.47304 2.61731C8.52083 3.03738 7.6665 3.65103 6.96436 4.41919L6.77771 4.61563L6.77478 4.61877C5.30487 6.19289 4.4873 8.26631 4.4873 10.42C4.4873 12.5737 5.30486 14.6472 6.77477 16.2213L12.0735 21.8205L12.0802 21.8271C12.1924 21.937 12.3431 21.9986 12.5002 21.9986C12.6573 21.9986 12.8081 21.937 12.9202 21.8271L12.9269 21.8205L18.2234 16.2237L18.2257 16.2213C19.6956 14.6472 20.5131 12.5737 20.5131 10.42C20.5131 8.26631 19.6956 6.19288 18.2257 4.61876L18.0361 4.41919C17.3339 3.65103 16.4796 3.03738 15.5274 2.61731C14.5737 2.19656 13.5427 1.97925 12.5002 1.97925ZM9.87666 3.53224C10.7032 3.16758 11.5968 2.97925 12.5002 2.97925C13.4037 2.97925 14.2972 3.16758 15.1238 3.53224C15.9504 3.89689 16.6918 4.42992 17.3009 5.09718L17.4962 5.3028C18.7923 6.69154 19.5131 8.52038 19.5131 10.42C19.5131 12.3199 18.7921 14.1489 17.4958 15.5377L17.4948 15.5388L12.5002 20.8166L7.50566 15.5388L7.5046 15.5376C6.20829 14.1488 5.4873 12.3198 5.4873 10.42C5.4873 8.52039 6.20815 6.69156 7.50421 5.30282L7.69279 5.10447L7.69951 5.09711C8.30859 4.42985 9.05008 3.89689 9.87666 3.53224Z" fill="black"/>
</svg>
