<svg width="25" height="24" viewBox="0 0 25 24" fill="none" xmlns="http://www.w3.org/2000/svg">
<path fill-rule="evenodd" clip-rule="evenodd" d="M13.5 14.5C13.5 13.6716 14.1716 13 15 13H17C17.8284 13 18.5 13.6716 18.5 14.5V16.5C18.5 17.3285 17.8284 18 17 18H15C14.1716 18 13.5 17.3285 13.5 16.5V14.5ZM15 14C14.7239 14 14.5 14.2239 14.5 14.5V16.5C14.5 16.7762 14.7239 17 15 17H17C17.2761 17 17.5 16.7762 17.5 16.5V14.5C17.5 14.2239 17.2761 14 17 14H15Z" fill="black"/>
<path fill-rule="evenodd" clip-rule="evenodd" d="M5.49999 3C5.34261 3 5.19442 3.0741 5.09999 3.2L2.10093 7.19875C2.03758 7.28253 2 7.38689 2 7.50003V8.00003C2 9.11046 2.6033 10.08 3.5 10.5987V19.5C3.5 20.3285 4.17157 21 5 21H20C20.8284 21 21.5 20.3285 21.5 19.5V10.5987C22.3967 10.08 23 9.11046 23 8.00003V7.50003C23 7.38614 22.9619 7.28114 22.8978 7.19707L19.9 3.2C19.8056 3.0741 19.6574 3 19.5 3H5.49999ZM21.5 7.00003L19.25 4L5.74999 4L3.49997 7.00003H21.5ZM10 11C8.95651 11 8.03746 10.4673 7.5 9.65893C6.96254 10.4673 6.04349 11 5 11C4.82964 11 4.6626 10.9858 4.5 10.9586V19.5C4.5 19.7762 4.72386 20 5 20H6.5V14.5C6.5 14.1539 6.59035 13.7989 6.77924 13.5156C6.96831 13.232 7.27685 13 7.66667 13H10.3333C10.7232 13 11.0317 13.232 11.2208 13.5156C11.4097 13.7989 11.5 14.1539 11.5 14.5V20H20C20.2761 20 20.5 19.7762 20.5 19.5V10.9586C20.3374 10.9858 20.1704 11 20 11C18.9565 11 18.0375 10.4673 17.5 9.65893C16.9625 10.4673 16.0435 11 15 11C13.9565 11 13.0375 10.4673 12.5 9.65893C11.9625 10.4673 11.0435 11 10 11ZM5 10C3.89543 10 3 9.1046 3 8.00003H7C7 9.1046 6.10457 10 5 10ZM10 10C11.1046 10 12 9.1046 12 8.00003H8C8 9.1046 8.89543 10 10 10ZM13 8.00003C13 9.1046 13.8954 10 15 10C16.1046 10 17 9.1046 17 8.00003H13ZM20 10C18.8954 10 18 9.1046 18 8.00003H22C22 9.1046 21.1046 10 20 10ZM7.61129 14.0703C7.55013 14.162 7.5 14.3157 7.5 14.5V20H10.5V14.5C10.5 14.3157 10.4499 14.162 10.3887 14.0703C10.3595 14.0264 10.335 14.0074 10.3246 14.0009L10.3232 14H7.67677L7.67542 14.0009C7.66496 14.0074 7.64052 14.0264 7.61129 14.0703Z" fill="black"/>
</svg>
