<svg width="25" height="24" viewBox="0 0 25 24" fill="none" xmlns="http://www.w3.org/2000/svg">
<path fill-rule="evenodd" clip-rule="evenodd" d="M7.82645 7.32651C7.9951 7.15786 8.25939 7.13181 8.45772 7.26428L11.2898 9.156C11.6615 8.99766 12.0705 8.91003 12.5 8.91003C14.2066 8.91003 15.59 10.2935 15.59 12C15.59 12.4295 15.5024 12.8385 15.3441 13.2101L17.2358 16.0422C17.3683 16.2405 17.3422 16.5048 17.1736 16.6735C17.0049 16.8421 16.7406 16.8682 16.5423 16.7357L13.7103 14.844C13.3386 15.0024 12.9295 15.09 12.5 15.09C10.7934 15.09 9.41 13.7066 9.41 12C9.41 11.5706 9.49762 11.1616 9.65595 10.7899L7.76422 7.95778C7.63175 7.75945 7.6578 7.49516 7.82645 7.32651ZM10.41 12C10.41 10.8458 11.3457 9.91003 12.5 9.91003C13.6543 9.91003 14.59 10.8458 14.59 12C14.59 13.1543 13.6543 14.09 12.5 14.09C11.3457 14.09 10.41 13.1543 10.41 12Z" fill="black"/>
<path fill-rule="evenodd" clip-rule="evenodd" d="M12.5 2C6.97715 2 2.5 6.47715 2.5 12C2.5 17.5228 6.97715 22 12.5 22C18.0228 22 22.5 17.5228 22.5 12C22.5 6.47715 18.0228 2 12.5 2ZM12 3.01365C7.42752 3.26403 3.76403 6.92752 3.51365 11.5H4.5C4.77614 11.5 5 11.7239 5 12C5 12.2761 4.77614 12.5 4.5 12.5H3.51365C3.76403 17.0725 7.42752 20.736 12 20.9863V20C12 19.7239 12.2239 19.5 12.5 19.5C12.7761 19.5 13 19.7239 13 20V20.9863C17.5725 20.736 21.236 17.0725 21.4863 12.5H20.5C20.2239 12.5 20 12.2761 20 12C20 11.7239 20.2239 11.5 20.5 11.5H21.4863C21.236 6.92752 17.5725 3.26403 13 3.01365V3.99997C13 4.27611 12.7761 4.49997 12.5 4.49997C12.2239 4.49997 12 4.27611 12 3.99997V3.01365Z" fill="black"/>
</svg>
