<svg width="25" height="24" viewBox="0 0 25 24" fill="none" xmlns="http://www.w3.org/2000/svg">
<path fill-rule="evenodd" clip-rule="evenodd" d="M11 2.99902C11.4059 2.99902 11.8075 3.08262 12.1798 3.2446C12.5519 3.40653 12.8869 3.6436 13.1635 3.94053L18.7071 9.87893C19.2169 10.4264 19.5003 11.147 19.5 11.8951V12.8521C19.5 13.1283 19.2761 13.3521 19 13.3521C18.7239 13.3521 18.5 13.1283 18.5 12.8521V11.8946C18.5002 11.3997 18.3126 10.9228 17.9753 10.5605L12.4318 4.62208C12.2487 4.4255 12.0271 4.26873 11.7807 4.16154C11.5344 4.05434 11.2686 3.99902 11 3.99902C10.7314 3.99902 10.4656 4.05434 10.2193 4.16154C9.97293 4.26873 9.75093 4.42592 9.56785 4.6225L7.67949 6.64537C7.63695 6.72826 7.57193 6.79772 7.49248 6.84569L4.02445 10.5607C3.68717 10.923 3.49977 11.3999 3.5 11.8949V18.2662C3.5 18.4605 3.57721 18.6469 3.71466 18.7844C3.85211 18.9218 4.03854 18.999 4.23294 18.999H8.14763V13.8521C8.14763 13.4964 8.26461 13.1409 8.49325 12.8666C8.72411 12.5896 9.05886 12.411 9.43195 12.411H12.5692C12.9423 12.411 13.277 12.5896 13.5079 12.8666C13.7365 13.1409 13.8535 13.4964 13.8535 13.8521V18.999H14.5C14.7761 18.999 15 19.2229 15 19.499C15 19.7752 14.7761 19.999 14.5 19.999H4.23294C3.77335 19.999 3.33257 19.8165 3.00758 19.4915C2.68259 19.1665 2.5 18.7258 2.5 18.2662V11.8949C2.4997 11.1468 2.78345 10.426 3.29333 9.87851L3.91514 9.21241C3.91231 9.19087 3.91085 9.1689 3.91085 9.14659V4.64272C3.91085 4.37862 3.98305 4.10352 4.13907 3.88064C4.29629 3.65606 4.55483 3.4705 4.88143 3.4705H6.76379C7.09039 3.4705 7.34893 3.65606 7.50615 3.88064C7.66218 4.10352 7.73438 4.37862 7.73438 4.64272V5.12113L8.83671 3.94027C9.11333 3.64334 9.44812 3.40653 9.82023 3.2446C10.1925 3.08262 10.5941 2.99902 11 2.99902ZM6.69685 4.4705C6.71516 4.50484 6.73438 4.56466 6.73438 4.64272V6.19236L4.91085 8.14577V4.64272C4.91085 4.56466 4.93006 4.50484 4.94837 4.4705H6.69685ZM12.7397 13.5068C12.6764 13.4308 12.6121 13.411 12.5692 13.411H9.43195C9.38901 13.411 9.32477 13.4308 9.26145 13.5068C9.19592 13.5854 9.14763 13.7087 9.14763 13.8521V18.9988H12.8535V13.8521C12.8535 13.7087 12.8052 13.5854 12.7397 13.5068Z" fill="black"/>
<path fill-rule="evenodd" clip-rule="evenodd" d="M15.5181 16.6996C15.5063 16.7422 15.5 16.787 15.5 16.8333V19.9448C15.5 20.6563 16.046 21.1762 16.6485 21.4886C17.276 21.814 18.1082 22.0004 19 22.0004C19.8918 22.0004 20.724 21.814 21.3515 21.4886C21.954 21.1762 22.5 20.6563 22.5 19.9448V16.833C22.5 16.7867 22.4937 16.7419 22.482 16.6994C22.4938 16.6163 22.5 16.5313 22.5 16.4444C22.5 15.6817 22.0235 15.0584 21.3933 14.6499C20.7581 14.2383 19.9106 14 19 14C18.0894 14 17.2419 14.2383 16.6067 14.6499C15.9765 15.0584 15.5 15.6817 15.5 16.4444C15.5 16.5314 15.5062 16.6164 15.5181 16.6996ZM21.5 18.1667C21.465 18.1914 21.4294 18.2156 21.3933 18.239C20.7581 18.6506 19.9106 18.8889 19 18.8889C18.0894 18.8889 17.2419 18.6506 16.6067 18.239C16.5706 18.2156 16.535 18.1914 16.5 18.1667V18.3885C16.5 18.5362 16.6256 18.794 17.1088 19.0446C17.5671 19.2822 18.2349 19.4441 19 19.4441C19.7651 19.4441 20.4329 19.2822 20.8912 19.0446C21.3744 18.794 21.5 18.5362 21.5 18.3885V18.1667ZM21.5 19.8503C21.4511 19.8791 21.4015 19.9064 21.3515 19.9323C20.724 20.2577 19.8918 20.4441 19 20.4441C18.1082 20.4441 17.276 20.2577 16.6485 19.9323C16.5985 19.9064 16.5489 19.8791 16.5 19.8503V19.9448C16.5 20.0925 16.6256 20.3503 17.1088 20.6009C17.5671 20.8385 18.2349 21.0004 19 21.0004C19.7651 21.0004 20.4329 20.8385 20.8912 20.6009C21.3744 20.3503 21.5 20.0925 21.5 19.9448V19.8503ZM16.5 16.4444C16.5 16.1333 16.6951 15.7844 17.1506 15.4891C17.6013 15.197 18.2537 15 19 15C19.7463 15 20.3987 15.197 20.8494 15.4891C21.3049 15.7844 21.5 16.1333 21.5 16.4444C21.5 16.7555 21.3049 17.1045 20.8494 17.3998C20.3987 17.6919 19.7463 17.8889 19 17.8889C18.2537 17.8889 17.6013 17.6919 17.1506 17.3998C16.6951 17.1045 16.5 16.7555 16.5 16.4444Z" fill="black"/>
</svg>
