<svg width="25" height="24" viewBox="0 0 25 24" fill="none" xmlns="http://www.w3.org/2000/svg">
<path fill-rule="evenodd" clip-rule="evenodd" d="M7.64646 6.14645C7.74023 6.05267 7.8674 6 8 6H21C21.1326 6 21.2598 6.05267 21.3535 6.14645C21.4473 6.24023 21.5 6.36741 21.5 6.5V15.5C21.5 15.6326 21.4473 15.7598 21.3535 15.8536C21.2598 15.9473 21.1326 16 21 16H11C10.7239 16 10.5 16.2239 10.5 16.5C10.5 16.7761 10.7239 17 11 17H12.49V18H10.98C10.7038 18 10.48 18.2239 10.48 18.5C10.48 18.7761 10.7038 19 10.98 19H17.98C18.2561 19 18.48 18.7761 18.48 18.5C18.48 18.2239 18.2561 18 17.98 18H16.5V17H21C21.3978 17 21.7793 16.842 22.0606 16.5607C22.3419 16.2794 22.5 15.8978 22.5 15.5V6.5C22.5 6.10216 22.3419 5.72063 22.0606 5.43934C21.7793 5.15804 21.3978 5 21 5H8C7.60217 5 7.22065 5.15804 6.93935 5.43934C6.65806 5.72063 6.5 6.10216 6.5 6.5V7.5C6.5 7.77614 6.72386 8 7 8C7.27614 8 7.5 7.77614 7.5 7.5V6.5C7.5 6.36741 7.55268 6.24023 7.64646 6.14645ZM15.5 17H13.49V18H15.5V17Z" fill="black"/>
<path d="M6.5 18.5C6.5 18.7761 6.27614 19 6 19C5.72386 19 5.5 18.7761 5.5 18.5C5.5 18.2239 5.72386 18 6 18C6.27614 18 6.5 18.2239 6.5 18.5Z" fill="black"/>
<path fill-rule="evenodd" clip-rule="evenodd" d="M2.5 10.5C2.5 9.67157 3.17157 9 4 9H8C8.82843 9 9.5 9.67157 9.5 10.5V19.5C9.5 20.3284 8.82843 21 8 21H4C3.17157 21 2.5 20.3284 2.5 19.5V10.5ZM4 10C3.72386 10 3.5 10.2239 3.5 10.5V19.5C3.5 19.7761 3.72386 20 4 20H8C8.27614 20 8.5 19.7761 8.5 19.5V10.5C8.5 10.2239 8.27614 10 8 10H4Z" fill="black"/>
</svg>
