<svg width="25" height="24" viewBox="0 0 25 24" fill="none" xmlns="http://www.w3.org/2000/svg">
<path d="M5.49999 8.59999C5.83136 8.59999 6.09999 8.33136 6.09999 7.99999C6.09999 7.66862 5.83136 7.39999 5.49999 7.39999C5.16862 7.39999 4.89999 7.66862 4.89999 7.99999C4.89999 8.33136 5.16862 8.59999 5.49999 8.59999Z" fill="black"/>
<path d="M8.59999 7.99999C8.59999 8.33136 8.33136 8.59999 7.99999 8.59999C7.66862 8.59999 7.39999 8.33136 7.39999 7.99999C7.39999 7.66862 7.66862 7.39999 7.99999 7.39999C8.33136 7.39999 8.59999 7.66862 8.59999 7.99999Z" fill="black"/>
<path d="M10.5 8.5H19.5V7.5H10.5V8.5Z" fill="black"/>
<path d="M5.49999 15.6C5.83136 15.6 6.09999 15.3314 6.09999 15C6.09999 14.6686 5.83136 14.4 5.49999 14.4C5.16862 14.4 4.89999 14.6686 4.89999 15C4.89999 15.3314 5.16862 15.6 5.49999 15.6Z" fill="black"/>
<path d="M8.59999 15C8.59999 15.3314 8.33136 15.6 7.99999 15.6C7.66862 15.6 7.39999 15.3314 7.39999 15C7.39999 14.6686 7.66862 14.4 7.99999 14.4C8.33136 14.4 8.59999 14.6686 8.59999 15Z" fill="black"/>
<path d="M10.5 15.5H19.5V14.5H10.5V15.5Z" fill="black"/>
<path fill-rule="evenodd" clip-rule="evenodd" d="M4 5C3.17157 5 2.5 5.67157 2.5 6.5V9.5C2.5 10.3284 3.17157 11 4 11H5.5V12H4C3.17157 12 2.5 12.6716 2.5 13.5V16.5C2.5 17.3284 3.17157 18 4 18H5.5V19H6.5V18H18.5V19H19.5V18H21C21.8284 18 22.5 17.3284 22.5 16.5V13.5C22.5 12.6716 21.8284 12 21 12H19.5V11H21C21.8284 11 22.5 10.3284 22.5 9.5V6.5C22.5 5.67157 21.8284 5 21 5H4ZM3.5 6.5C3.5 6.22386 3.72386 6 4 6H21C21.2761 6 21.5 6.22386 21.5 6.5V9.5C21.5 9.77614 21.2761 10 21 10H4C3.72386 10 3.5 9.77614 3.5 9.5V6.5ZM4 13C3.72386 13 3.5 13.2239 3.5 13.5V16.5C3.5 16.7761 3.72386 17 4 17H21C21.2761 17 21.5 16.7761 21.5 16.5V13.5C21.5 13.2239 21.2761 13 21 13H4ZM18.5 12H6.5V11H18.5V12Z" fill="black"/>
</svg>
