<svg width="25" height="24" viewBox="0 0 25 24" fill="none" xmlns="http://www.w3.org/2000/svg">
<path d="M5.48001 12C6.0323 12 6.48001 11.5523 6.48001 11C6.48001 10.4477 6.0323 10 5.48001 10C4.92773 10 4.48001 10.4477 4.48001 11C4.48001 11.5523 4.92773 12 5.48001 12Z" fill="black"/>
<path d="M19.8536 13.8536C20.0488 13.6583 20.0488 13.3417 19.8536 13.1464C19.6583 12.9512 19.3417 12.9512 19.1464 13.1464L17.5 14.7929L16.8536 14.1464C16.6583 13.9512 16.3417 13.9512 16.1464 14.1464C15.9512 14.3417 15.9512 14.6583 16.1464 14.8536L17.1464 15.8536C17.3417 16.0488 17.6583 16.0488 17.8536 15.8536L19.8536 13.8536Z" fill="black"/>
<path fill-rule="evenodd" clip-rule="evenodd" d="M13.5 5C16.5561 5 19.0785 7.28485 19.4523 10.2395C21.2249 10.8436 22.5 12.5229 22.5 14.5C22.5 16.9853 20.4853 19 18 19C16.421 19 15.0319 18.1867 14.2288 16.9562C13.9899 16.9851 13.7467 17 13.5 17H8.5C5.18629 17 2.5 14.3137 2.5 11C2.5 7.68629 5.18629 5 8.5 5H13.5ZM3.5 11C3.5 8.23858 5.73858 6 8.5 6H13.5C15.9253 6 17.9472 7.72672 18.4036 10.0179C18.2706 10.006 18.136 10 18 10C17.474 10 16.9692 10.0902 16.5 10.2561V9.8C16.5 9.35817 16.1418 9 15.7 9H8.3C7.85817 9 7.5 9.35817 7.5 9.8V12.2C7.5 12.6418 7.85817 13 8.3 13H13.7561C13.5902 13.4692 13.5 13.974 13.5 14.5C13.5 15.0236 13.5894 15.5263 13.7538 15.9937C13.6698 15.9979 13.5851 16 13.5 16H8.5C5.73858 16 3.5 13.7614 3.5 11ZM15.5 10.7578C15.0091 11.0864 14.5864 11.5091 14.2578 12H8.5V10H15.5V10.7578ZM18 11C16.067 11 14.5 12.567 14.5 14.5C14.5 16.433 16.067 18 18 18C19.933 18 21.5 16.433 21.5 14.5C21.5 12.567 19.933 11 18 11Z" fill="black"/>
</svg>
