<svg width="25" height="24" viewBox="0 0 25 24" fill="none" xmlns="http://www.w3.org/2000/svg">
<path d="M5.58763 4.74216C5.72133 4.50054 5.63383 4.19629 5.39221 4.0626C5.15059 3.92891 4.84634 4.0164 4.71264 4.25802C3.90975 5.70908 3.49227 7.34175 3.50011 9.00009C3.49227 10.6584 3.90975 12.2911 4.71264 13.7422C4.84634 13.9838 5.15059 14.0713 5.39221 13.9376C5.63383 13.8039 5.72133 13.4996 5.58763 13.258C4.86714 11.9559 4.49271 10.4907 4.50013 9.00258L4.50011 8.9976C4.49269 7.50946 4.86714 6.04429 5.58763 4.74216Z" fill="black"/>
<path d="M19.608 4.0626C19.8496 3.92891 20.1539 4.0164 20.2876 4.25802C21.0905 5.70908 21.508 7.34175 21.5001 9.00009C21.508 10.6584 21.0905 12.2911 20.2876 13.7422C20.1539 13.9838 19.8496 14.0713 19.608 13.9376C19.3664 13.8039 19.2789 13.4996 19.4126 13.258C20.1331 11.9559 20.5075 10.4907 20.5001 9.00258L20.5001 8.9976C20.5075 7.50946 20.1331 6.04429 19.4126 4.74216C19.2789 4.50054 19.3664 4.19629 19.608 4.0626Z" fill="black"/>
<path d="M7.13062 5.06173C7.37272 5.19455 7.46131 5.49849 7.32849 5.74059C6.78087 6.73876 6.49582 7.8597 6.50011 8.99821V9.00198C6.49582 10.1405 6.78087 11.2614 7.32849 12.2596C7.46131 12.5017 7.37272 12.8056 7.13062 12.9385C6.88852 13.0713 6.58459 12.9827 6.45176 12.7406C5.82296 11.5944 5.4955 10.3074 5.50011 9.00009C5.4955 7.6928 5.82296 6.40575 6.45176 5.2596C6.58459 5.01749 6.88852 4.92891 7.13062 5.06173Z" fill="black"/>
<path d="M8.87108 6.062C9.11304 6.19509 9.20128 6.49913 9.06819 6.74108C8.68849 7.43135 8.49284 8.20773 8.50007 8.9955L8.50016 9.00469C8.49292 9.79246 8.68849 10.5688 9.06819 11.2591C9.20128 11.5011 9.11304 11.8051 8.87108 11.9382C8.62913 12.0713 8.3251 11.983 8.192 11.7411C7.73032 10.9018 7.49206 9.95792 7.50007 9.00009C7.49206 8.04226 7.73032 7.09841 8.192 6.2591C8.3251 6.01715 8.62913 5.92891 8.87108 6.062Z" fill="black"/>
<path fill-rule="evenodd" clip-rule="evenodd" d="M10.5001 9.00009C10.5001 7.89552 11.3956 7.00009 12.5001 7.00009C13.6047 7.00009 14.5001 7.89552 14.5001 9.00009C14.5001 9.696 14.1447 10.3089 13.6055 10.6672L14.9386 14.0001H15.0001V14.1538L17.4644 20.3144C17.5669 20.5708 17.4422 20.8618 17.1858 20.9643C16.9294 21.0669 16.6384 20.9422 16.5359 20.6858L15.4616 18.0001H9.53864L8.46436 20.6858C8.3618 20.9422 8.07082 21.0669 7.81443 20.9643C7.55803 20.8618 7.43333 20.5708 7.53588 20.3144L10.0001 14.1538V14.0001H10.0616L11.3948 10.6672C10.8556 10.3089 10.5001 9.696 10.5001 9.00009ZM12.5001 8.00009C11.9478 8.00009 11.5001 8.44781 11.5001 9.00009C11.5001 9.55238 11.9478 10.0001 12.5001 10.0001C13.0524 10.0001 13.5001 9.55238 13.5001 9.00009C13.5001 8.44781 13.0524 8.00009 12.5001 8.00009ZM15.0616 17.0001L14.2616 15.0001H10.7386L9.93864 17.0001H15.0616ZM12.6591 10.9939L13.8616 14.0001H11.1386L12.3411 10.9939C12.3936 10.998 12.4466 11.0001 12.5001 11.0001C12.5536 11.0001 12.6067 10.998 12.6591 10.9939Z" fill="black"/>
<path d="M16.8082 6.2591C16.6751 6.01715 16.3711 5.92891 16.1291 6.062C15.8872 6.19509 15.7989 6.49913 15.932 6.74108C16.3117 7.43135 16.5073 8.20772 16.5001 8.9955L16.5001 9.00468C16.5074 9.79246 16.3117 10.5688 15.932 11.2591C15.7989 11.5011 15.8872 11.8051 16.1291 11.9382C16.3711 12.0713 16.6751 11.983 16.8082 11.7411C17.2699 10.9018 17.5082 9.95792 17.5001 9.00009C17.5082 8.04226 17.2699 7.09841 16.8082 6.2591Z" fill="black"/>
<path d="M18.5485 5.2596C18.4156 5.01749 18.1117 4.92891 17.8696 5.06173C17.6275 5.19455 17.5389 5.49849 17.6717 5.74059C18.2194 6.73876 18.5044 7.8597 18.5001 8.99821V9.00198C18.5044 10.1405 18.2194 11.2614 17.6717 12.2596C17.5389 12.5017 17.6275 12.8056 17.8696 12.9385C18.1117 13.0713 18.4156 12.9827 18.5485 12.7406C19.1773 11.5944 19.5047 10.3074 19.5001 9.00009C19.5047 7.6928 19.1773 6.40575 18.5485 5.2596Z" fill="black"/>
</svg>
