<svg width="25" height="24" viewBox="0 0 25 24" fill="none" xmlns="http://www.w3.org/2000/svg">
<path d="M20.1464 3.64645C20.3417 3.45118 20.6583 3.45118 20.8536 3.64645C21.0488 3.84171 21.0488 4.15829 20.8536 4.35355L3.85355 21.3536C3.65829 21.5488 3.34171 21.5488 3.14645 21.3536C2.95118 21.1583 2.95118 20.8417 3.14645 20.6464L20.1464 3.64645Z" fill="black"/>
<path d="M15.0822 5.6263L15.9664 6.41227L15.2581 7.1206L14.5599 6.5H10.6754L8.31235 8.39043C8.22369 8.46136 8.11354 8.5 8 8.5H5C4.72386 8.5 4.5 8.72386 4.5 9V17C4.5 17.2386 4.66711 17.4381 4.89067 17.488L4.14562 18.2331C3.75546 17.9622 3.5 17.5109 3.5 17V9C3.5 8.17157 4.17157 7.5 5 7.5H7.82461L10.1877 5.60957C10.2763 5.53864 10.3865 5.5 10.5 5.5H14.75C14.8725 5.5 14.9907 5.54494 15.0822 5.6263Z" fill="black"/>
<path d="M19.1213 7.5L18.1213 8.5H20C20.2761 8.5 20.5 8.72386 20.5 9V17C20.5 17.2761 20.2761 17.5 20 17.5H16.7428C17.5282 16.5491 18 15.3296 18 14C18 12.5121 17.4092 11.1621 16.4493 10.172L15.7421 10.8793C16.521 11.6883 17 12.7882 17 14C17 16.4853 14.9853 18.5 12.5 18.5C11.2882 18.5 10.1883 18.021 9.37925 17.2421L8.12132 18.5H9C9.08968 18.5 9.17385 18.4764 9.24663 18.435C10.1577 19.1045 11.2827 19.5 12.5 19.5C13.7173 19.5 14.8423 19.1045 15.7534 18.435C15.8261 18.4764 15.9103 18.5 16 18.5H20C20.8284 18.5 21.5 17.8284 21.5 17V9C21.5 8.17157 20.8284 7.5 20 7.5H19.1213Z" fill="black"/>
<path d="M13.7386 8.64004C13.3405 8.54841 12.9259 8.5 12.5 8.5C9.46243 8.5 7 10.9624 7 14C7 14.4259 7.04841 14.8405 7.14004 15.2386L8.01452 14.3642C8.0049 14.244 8 14.1226 8 14C8 11.5147 10.0147 9.5 12.5 9.5C12.6226 9.5 12.744 9.5049 12.8642 9.51452L13.7386 8.64004Z" fill="black"/>
<path d="M11.8109 10.5678C10.4307 10.8434 9.34342 11.9307 9.06783 13.3109L11.8109 10.5678Z" fill="black"/>
<path d="M10.0865 16.5348C10.7145 17.1329 11.5644 17.5 12.5 17.5C14.433 17.5 16 15.933 16 14C16 13.0644 15.6329 12.2145 15.0348 11.5865L14.3274 12.2939C14.7446 12.7407 15 13.3405 15 14C15 15.3807 13.8807 16.5 12.5 16.5C11.8405 16.5 11.2407 16.2446 10.7939 15.8274L10.0865 16.5348Z" fill="black"/>
</svg>
