<svg width="25" height="24" viewBox="0 0 25 24" fill="none" xmlns="http://www.w3.org/2000/svg">
<path d="M16.5 2.5C16.5 2.22386 16.7239 2 17 2H20C20.663 2 21.2989 2.26339 21.7678 2.73223C22.2366 3.20107 22.5 3.83696 22.5 4.5V7.5C22.5 7.77614 22.2761 8 22 8C21.7239 8 21.5 7.77614 21.5 7.5V4.5C21.5 4.10217 21.342 3.72064 21.0607 3.43934C20.7794 3.15804 20.3978 3 20 3H17C16.7239 3 16.5 2.77614 16.5 2.5Z" fill="black"/>
<path d="M3.5 16.5C3.5 16.2239 3.27614 16 3 16C2.72386 16 2.5 16.2239 2.5 16.5V19.5C2.5 20.163 2.76339 20.7989 3.23223 21.2678C3.70107 21.7366 4.33696 22 5 22H8C8.27614 22 8.5 21.7761 8.5 21.5C8.5 21.2239 8.27614 21 8 21H5C4.60218 21 4.22064 20.842 3.93934 20.5607C3.65803 20.2794 3.5 19.8978 3.5 19.5V16.5Z" fill="black"/>
<path d="M22.5 16.5C22.5 16.2239 22.2761 16 22 16C21.7239 16 21.5 16.2239 21.5 16.5V19.5C21.5 19.8978 21.342 20.2794 21.0607 20.5607C20.7794 20.842 20.3978 21 20 21H17C16.7239 21 16.5 21.2239 16.5 21.5C16.5 21.7761 16.7239 22 17 22H20C20.663 22 21.2989 21.7366 21.7678 21.2678C22.2366 20.7989 22.5 20.163 22.5 19.5V16.5Z" fill="black"/>
<path d="M3.93934 3.43934C4.22064 3.15804 4.60217 3 5 3H8C8.27614 3 8.5 2.77614 8.5 2.5C8.5 2.22386 8.27614 2 8 2H5C4.33696 2 3.70107 2.26339 3.23223 2.73223C2.76339 3.20107 2.5 3.83696 2.5 4.5V7.5C2.5 7.77614 2.72386 8 3 8C3.27614 8 3.5 7.77614 3.5 7.5V4.5C3.5 4.10217 3.65803 3.72064 3.93934 3.43934Z" fill="black"/>
<path fill-rule="evenodd" clip-rule="evenodd" d="M14.3571 11.3562C15.0532 10.8069 15.5 9.95561 15.5 9C15.5 7.34315 14.1569 6 12.5 6C10.8431 6 9.5 7.34315 9.5 9C9.5 9.95561 9.9468 10.8069 10.6429 11.3562C8.80103 12.0935 7.5 13.8948 7.5 16V16.5C7.5 17.3284 8.17157 18 9 18H16C16.8284 18 17.5 17.3284 17.5 16.5V16C17.5 13.8948 16.199 12.0935 14.3571 11.3562ZM12.5 7C11.3954 7 10.5 7.89543 10.5 9C10.5 10.1046 11.3954 11 12.5 11C13.6046 11 14.5 10.1046 14.5 9C14.5 7.89543 13.6046 7 12.5 7ZM12.5 12C10.2909 12 8.5 13.7909 8.5 16V16.5C8.5 16.7761 8.72386 17 9 17H16C16.2761 17 16.5 16.7761 16.5 16.5V16C16.5 13.7909 14.7091 12 12.5 12Z" fill="black"/>
</svg>
