<svg width="25" height="24" viewBox="0 0 25 24" fill="none" xmlns="http://www.w3.org/2000/svg">
<path d="M20.1464 3.64645C20.3417 3.45118 20.6583 3.45118 20.8536 3.64645C21.0488 3.84171 21.0488 4.15829 20.8536 4.35355L3.85355 21.3536C3.65829 21.5488 3.34171 21.5488 3.14645 21.3536C2.95119 21.1583 2.95119 20.8417 3.14645 20.6464L20.1464 3.64645Z" fill="black"/>
<path d="M16.0883 6.2904C15.6537 5.52897 14.9067 5 14 5H5C3.54425 5 2.5 6.36365 2.5 7.86364V16.1364C2.5 17.1584 2.98482 18.1172 3.75429 18.6244L4.49237 17.8863C3.94382 17.6364 3.5 16.9928 3.5 16.1364V7.86364C3.5 6.75283 4.24661 6 5 6H14C14.5454 6 15.0873 6.39454 15.3449 7.03382L16.0883 6.2904Z" fill="black"/>
<path fill-rule="evenodd" clip-rule="evenodd" d="M15.5 11.1213L17.7759 8.84544L20.7434 7.07088C20.8979 6.97849 21.0901 6.97628 21.2467 7.06508C21.4032 7.15388 21.5 7.32 21.5 7.5V16.5C21.5 16.68 21.4032 16.8461 21.2467 16.9349C21.0901 17.0237 20.8979 17.0215 20.7434 16.9291L16.5 14.3916V16.1364C16.5 17.6364 15.4558 19 14 19H7.62132L8.62132 18H14C14.7534 18 15.5 17.2472 15.5 16.1364V11.1213ZM16.5 10.7736L20.5 8.38158V15.6184L16.5 13.2264V10.7736Z" fill="black"/>
</svg>
