<svg width="25" height="24" viewBox="0 0 25 24" fill="none" xmlns="http://www.w3.org/2000/svg">
<path fill-rule="evenodd" clip-rule="evenodd" d="M6 5C5.17157 5 4.5 5.67157 4.5 6.5V15.5C4.5 16.3284 5.17157 17 6 17H10.49V18H8.97998C8.70384 18 8.47998 18.2239 8.47998 18.5C8.47998 18.7761 8.70384 19 8.97998 19H15.98C16.2561 19 16.48 18.7761 16.48 18.5C16.48 18.2239 16.2561 18 15.98 18H14.5V17H19C19.8284 17 20.5 16.3284 20.5 15.5V6.5C20.5 5.67157 19.8284 5 19 5H6ZM5.5 15.5C5.5 15.7761 5.72386 16 6 16H19C19.2761 16 19.5 15.7761 19.5 15.5V6.5C19.5 6.22386 19.2761 6 19 6H6C5.72386 6 5.5 6.22386 5.5 6.5V15.5ZM11.49 17H13.5V18H11.49V17Z" fill="black"/>
</svg>
