<svg width="25" height="24" viewBox="0 0 25 24" fill="none" xmlns="http://www.w3.org/2000/svg">
<path d="M12.5003 2.97003C10.9911 2.97003 9.56844 3.34024 8.31808 3.99481L9.40055 5.75366C9.5366 5.97472 9.46768 6.26422 9.24662 6.40027C9.02556 6.53632 8.73606 6.46741 8.60001 6.24634L7.50904 4.47367C5.19691 6.01007 3.63338 8.58347 3.48229 11.53H5.50027C5.75985 11.53 5.97027 11.7405 5.97027 12C5.97027 12.2596 5.75985 12.47 5.50027 12.47H3.48229C3.63495 15.4477 5.22984 18.0447 7.5838 19.5756L12.0932 11.765C12.223 11.5402 12.5105 11.4632 12.7353 11.593C12.9601 11.7228 13.0371 12.0102 12.9073 12.235L8.15731 20.4623C8.02752 20.6871 7.74008 20.7641 7.51528 20.6343L7.50413 20.6277C7.49162 20.6217 7.47926 20.6152 7.4671 20.6081C4.51468 18.8782 2.53027 15.6711 2.53027 12C2.53027 6.49375 6.99399 2.03003 12.5003 2.03003C18.0066 2.03003 22.4703 6.49375 22.4703 12C22.4703 15.6711 20.4859 18.8782 17.5334 20.6081C17.3095 20.7393 17.0216 20.6641 16.8903 20.4402C16.8534 20.3771 16.8328 20.3089 16.8273 20.2405L15.6 18.2464C15.464 18.0253 15.5329 17.7358 15.7539 17.5998C15.975 17.4637 16.2645 17.5326 16.4005 17.7537L17.4915 19.5264C19.8045 17.9894 21.3672 15.416 21.5183 12.47H19.5003C19.2407 12.47 19.0303 12.2596 19.0303 12C19.0303 11.7405 19.2407 11.53 19.5003 11.53H21.5183C21.3672 8.58347 19.8036 6.01007 17.4915 4.47367L16.4005 6.24636C16.2645 6.46743 15.975 6.53635 15.7539 6.4003C15.5329 6.26425 15.4639 5.97475 15.6 5.75368L16.6825 3.99481C15.4321 3.34025 14.0094 2.97003 12.5003 2.97003Z" fill="black"/>
</svg>
