<svg width="25" height="24" viewBox="0 0 25 24" fill="none" xmlns="http://www.w3.org/2000/svg">
<path fill-rule="evenodd" clip-rule="evenodd" d="M18.9933 10.7022L19.2379 11.4045C19.2819 11.5306 19.3743 11.6339 19.4948 11.6914C19.6153 11.7488 19.7537 11.7558 19.8793 11.7106L21.0158 11.3018L21.0177 11.3012C21.2355 11.2244 21.436 11.1055 21.6079 10.9513C21.7803 10.7967 21.9204 10.6096 22.0204 10.4006C22.1203 10.1917 22.178 9.96513 22.1902 9.73387C22.2 9.54759 22.1801 9.36122 22.1315 9.1817C22.5883 8.07251 22.6222 6.83151 22.2224 5.69584C21.8324 4.56049 21.0335 3.61367 19.9851 3.03763C19.8173 2.65883 19.5183 2.35145 19.1411 2.17366C18.7272 1.9786 18.253 1.95541 17.8221 2.10917L16.6686 2.53043C16.412 2.62416 16.2781 2.90653 16.3679 3.16455L16.613 3.86822L7.84058 7.02964L7.83194 7.03294C7.09099 7.31556 6.4887 7.8748 6.152 8.5928C6.08421 8.73735 6.02826 8.88606 5.98421 9.03753C5.95605 9.04244 5.92818 9.04979 5.90092 9.05959L4.76254 9.46901C4.54478 9.54577 4.34424 9.66464 4.17236 9.81883C3.99998 9.97348 3.85982 10.1606 3.7599 10.3695C3.65998 10.5785 3.60228 10.805 3.59009 11.0363C3.58696 11.0958 3.58687 11.1554 3.5898 11.2148L2.82991 11.49C2.57264 11.5831 2.43803 11.8658 2.52783 12.1242L2.93783 13.3042C2.98172 13.4305 3.07439 13.534 3.19513 13.5915C3.31586 13.649 3.45461 13.6558 3.58035 13.6102L4.34238 13.3343C4.37309 13.3754 4.40563 13.4153 4.43991 13.4537C4.59591 13.6284 4.78505 13.7705 4.99637 13.8716C5.20768 13.9727 5.43697 14.0309 5.67093 14.0427C5.90489 14.0546 6.13889 14.0199 6.35933 13.9406L7.47338 13.5291C7.50524 13.5173 7.53519 13.5027 7.56305 13.4855C7.69242 13.5741 7.82877 13.6527 7.97096 13.7205C8.33018 13.8918 8.71961 13.9906 9.11703 14.0113C9.3925 14.0257 9.66805 14.0024 9.93614 13.9424C10.4243 14.1878 10.9554 14.3379 11.501 14.3841C11.8791 14.4161 12.2588 14.3977 12.6301 14.3302V17.4503L7.76988 21.1003C7.54908 21.2661 7.5045 21.5795 7.67033 21.8004C7.83615 22.0212 8.14958 22.0657 8.37039 21.8999L12.6301 18.7009V21.5001C12.6301 21.7762 12.854 22.0001 13.1301 22.0001C13.4063 22.0001 13.6301 21.7762 13.6301 21.5001V18.6997L17.9003 21.9002C18.1212 22.0658 18.4346 22.0209 18.6002 21.8C18.7658 21.579 18.721 21.2656 18.5 21.1L13.6301 17.45V14.0185C14.0861 13.8123 14.5033 13.5276 14.8623 13.1766C15.2482 12.7991 15.5589 12.3528 15.7788 11.8613L18.9933 10.7022ZM18.1597 3.05046L17.4743 3.30077L17.7042 3.96068C17.7109 3.97534 17.717 3.99038 17.7223 4.00575L19.7723 9.89575C19.7757 9.90551 19.7788 9.91531 19.7816 9.92513L20.0162 10.5987L20.6844 10.3583C20.7788 10.3252 20.8657 10.2738 20.9401 10.207C21.0146 10.1402 21.0751 10.0594 21.1182 9.96918C21.1614 9.87897 21.1863 9.78112 21.1916 9.68126C21.1968 9.58139 21.1823 9.48147 21.1489 9.38723L21.1481 9.38491L19.0891 3.4879C19.0231 3.30741 18.8886 3.16018 18.7147 3.07822C18.5406 2.99614 18.3411 2.98618 18.1597 3.05046ZM9.85713 12.9302L12.3451 12.0364L18.6644 9.75782L16.942 4.81264L8.18424 7.96884C7.6873 8.1596 7.28344 8.53534 7.05739 9.01738C6.83101 9.50012 6.80063 10.0518 6.9726 10.5565L7.36144 11.6632C7.45046 11.9143 7.58823 12.146 7.76653 12.3439C7.94495 12.5421 8.16066 12.7031 8.40132 12.8178C8.64199 12.9326 8.9029 12.9988 9.16916 13.0127C9.40176 13.0248 9.63447 12.9968 9.85713 12.9302ZM4.63243 11.376L4.98781 12.3988L5.03268 12.5267C5.06599 12.623 5.11808 12.7117 5.18594 12.7878C5.25381 12.8638 5.33609 12.9256 5.42802 12.9696C5.51994 13.0136 5.61969 13.0389 5.72147 13.044C5.82263 13.0491 5.9238 13.0343 6.01918 13.0002L6.66648 12.7611L5.76414 10.1715L5.09582 10.4119C5.00147 10.445 4.91458 10.4964 4.84014 10.5632C4.7657 10.63 4.70518 10.7108 4.66203 10.801C4.61889 10.8912 4.59397 10.9891 4.58871 11.0889C4.58433 11.172 4.59363 11.2552 4.61614 11.335C4.62215 11.3484 4.62759 11.3621 4.63243 11.376ZM21.7501 5.86009L21.2772 6.02233C21.132 5.59901 20.9151 5.20874 20.6396 4.86653L21.4999 7.3398C21.5021 6.89651 21.4287 6.4521 21.2786 6.02633L21.7501 5.86009Z" fill="black"/>
</svg>
