<svg width="25" height="24" viewBox="0 0 25 24" fill="none" xmlns="http://www.w3.org/2000/svg">
<path fill-rule="evenodd" clip-rule="evenodd" d="M12 3C10.067 3 8.5 4.567 8.5 6.5V13.5C8.5 15.433 10.067 17 12 17C13.933 17 15.5 15.433 15.5 13.5V6.5C15.5 4.567 13.933 3 12 3ZM9.5 6.5C9.5 5.11929 10.6193 4 12 4C13.3807 4 14.5 5.11929 14.5 6.5V13.5C14.5 14.8807 13.3807 16 12 16C10.6193 16 9.5 14.8807 9.5 13.5V6.5Z" fill="black"/>
<path d="M7.5 13C7.5 12.7239 7.27614 12.5 7 12.5C6.72386 12.5 6.5 12.7239 6.5 13V13.5C6.5 16.369 8.69675 18.725 11.5 18.9776V20H11C10.7239 20 10.5 20.2239 10.5 20.5C10.5 20.7761 10.7239 21 11 21H13C13.2761 21 13.5 20.7761 13.5 20.5C13.5 20.2239 13.2761 20 13 20H12.5V18.9776C15.3033 18.725 17.5 16.369 17.5 13.5V13C17.5 12.7239 17.2761 12.5 17 12.5C16.7239 12.5 16.5 12.7239 16.5 13V13.5C16.5 15.9853 14.4853 18 12 18C9.51472 18 7.5 15.9853 7.5 13.5V13Z" fill="black"/>
</svg>
