<svg width="25" height="24" viewBox="0 0 25 24" fill="none" xmlns="http://www.w3.org/2000/svg">
<path d="M12 14C11.7239 14 11.5 14.2239 11.5 14.5C11.5 14.7761 11.7239 15 12 15H13C13.2761 15 13.5 14.7761 13.5 14.5C13.5 14.2239 13.2761 14 13 14H12Z" fill="black"/>
<path d="M11.5 16.5C11.5 16.2239 11.7239 16 12 16H13C13.2761 16 13.5 16.2239 13.5 16.5C13.5 16.7761 13.2761 17 13 17H12C11.7239 17 11.5 16.7761 11.5 16.5Z" fill="black"/>
<path d="M7 14C6.72386 14 6.5 14.2239 6.5 14.5C6.5 14.7761 6.72386 15 7 15H8C8.27614 15 8.5 14.7761 8.5 14.5C8.5 14.2239 8.27614 14 8 14H7Z" fill="black"/>
<path d="M6.5 16.5C6.5 16.2239 6.72386 16 7 16H8C8.27614 16 8.5 16.2239 8.5 16.5C8.5 16.7761 8.27614 17 8 17H7C6.72386 17 6.5 16.7761 6.5 16.5Z" fill="black"/>
<path fill-rule="evenodd" clip-rule="evenodd" d="M18 4.5C18 4.22386 17.7761 4 17.5 4C17.2239 4 17 4.22386 17 4.5V6H15C14.7239 6 14.5 6.22386 14.5 6.5V12.4597L10.3123 9.10957C10.1623 8.9895 9.95664 8.96609 9.78341 9.04935C9.61017 9.13261 9.5 9.3078 9.5 9.5V12.4597L5.31235 9.10957C5.16226 8.9895 4.95664 8.96609 4.78341 9.04935C4.61017 9.13261 4.5 9.3078 4.5 9.5V20.5C4.5 20.7761 4.72386 21 5 21L20 21C20.2761 21 20.5 20.7761 20.5 20.5V6.5C20.5 6.22386 20.2761 6 20 6H18V4.5ZM10.5 10.5403L14.5 13.7403V20H10.5V10.5403ZM9.5 13.7403L5.5 10.5403V20H9.5V13.7403ZM15.5 7V20H19.5V7H15.5Z" fill="black"/>
</svg>
