<svg width="25" height="24" viewBox="0 0 25 24" fill="none" xmlns="http://www.w3.org/2000/svg">
<path fill-rule="evenodd" clip-rule="evenodd" d="M12.5 22C7.14481 22 2.7728 17.7906 2.51228 12.5H2.5V11.5H2.51228C2.7728 6.20944 7.14481 2 12.5 2C17.8552 2 22.2272 6.20944 22.4877 11.5H22.5V12.5H22.4877C22.2272 17.7906 17.8552 22 12.5 22ZM9.23256 20.3885C6.02483 19.1382 3.71083 16.101 3.51365 12.5H6.50737C6.60505 15.8062 7.66615 18.6902 9.23256 20.3885ZM9.23255 3.61148C7.66614 5.30978 6.60505 8.19379 6.50737 11.5H3.51365C3.71083 7.89905 6.02482 4.86185 9.23255 3.61148ZM9.11485 18.5566C8.20001 17.0318 7.58335 14.9063 7.50783 12.5H10.5025C10.538 16.113 10.9571 19.2218 11.5604 20.8301C10.6956 20.5167 9.84108 19.767 9.11485 18.5566ZM9.11485 5.44343C8.20001 6.96816 7.58335 9.09367 7.50783 11.5H10.5025C10.538 7.88698 10.9571 4.77817 11.5604 3.16993C10.6956 3.4833 9.84108 4.23305 9.11485 5.44343ZM12.0664 18.875C11.7422 17.254 11.5278 15.0138 11.5025 12.5H13.4975C13.4722 15.0138 13.2578 17.254 12.9336 18.875C12.7977 19.5547 12.6485 20.094 12.5 20.4877C12.3515 20.094 12.2023 19.5547 12.0664 18.875ZM12.0664 5.12505C11.7422 6.74596 11.5278 8.98619 11.5025 11.5H13.4975C13.4722 8.98619 13.2578 6.74596 12.9336 5.12505C12.7977 4.44529 12.6485 3.90599 12.5 3.51233C12.3515 3.90599 12.2023 4.44529 12.0664 5.12505ZM13.4396 20.8301C14.0429 19.2218 14.462 16.113 14.4975 12.5H17.4922C17.4166 14.9063 16.8 17.0318 15.8851 18.5566C15.1589 19.767 14.3044 20.5167 13.4396 20.8301ZM13.4396 3.16993C14.0429 4.77817 14.462 7.88698 14.4975 11.5H17.4922C17.4166 9.09367 16.8 6.96816 15.8851 5.44343C15.1589 4.23305 14.3044 3.4833 13.4396 3.16993ZM15.7674 20.3885C17.3339 18.6902 18.3949 15.8062 18.4926 12.5H21.4863C21.2892 16.101 18.9752 19.1382 15.7674 20.3885ZM15.7674 3.61148C17.3339 5.30978 18.3949 8.19379 18.4926 11.5H21.4863C21.2892 7.89905 18.9752 4.86185 15.7674 3.61148Z" fill="black"/>
</svg>
