<svg width="25" height="24" viewBox="0 0 25 24" fill="none" xmlns="http://www.w3.org/2000/svg">
<path fill-rule="evenodd" clip-rule="evenodd" d="M11.4976 2.21557C11.8132 2.07295 12.1545 1.99902 12.5 1.99902C12.8455 1.99902 13.1868 2.07295 13.5024 2.21557C13.8177 2.35809 14.1001 2.56586 14.3325 2.82487L15.5 4.12379V4.06723C15.5 3.8348 15.561 3.58909 15.6974 3.38666C15.8343 3.18359 16.0705 3 16.3824 3H17.9118C18.2236 3 18.4599 3.18359 18.5968 3.38666C18.7332 3.58909 18.7941 3.8348 18.7941 4.06723V7.78854L18.8366 7.83576C19.2647 8.31309 19.5003 8.93814 19.5 9.58353V10.5C19.5 10.7761 19.2762 11 19 11C18.7239 11 18.5 10.7761 18.5 10.5V9.58353C18.5002 9.18008 18.353 8.79445 18.0928 8.50415L13.5888 3.49337C13.4477 3.33605 13.2776 3.21136 13.0906 3.12683C12.9036 3.04232 12.7026 2.99902 12.5 2.99902C12.2974 2.99902 12.0965 3.04232 11.9095 3.12683C11.7224 3.21136 11.5528 3.33562 11.4117 3.49295L6.90756 8.50383C6.6473 8.79414 6.49984 9.1798 6.50002 9.58331V13.5C6.50002 13.7761 6.27617 14 6.00002 14C5.72388 14 5.50002 13.7761 5.50002 13.5V9.58376C5.49978 8.93836 5.73501 8.31352 6.16308 7.83618L10.6672 2.8253C10.8996 2.56629 11.1823 2.35809 11.4976 2.21557ZM16.5 5.2363L17.7941 6.67603V4.06723C17.7941 4.0409 17.7912 4.01836 17.7873 4H16.5069C16.5029 4.01836 16.5 4.0409 16.5 4.06723V5.2363Z" fill="black"/>
<path d="M11.1137 10.0722C11.1437 10.0264 11.1687 10.0066 11.179 10H13.821C13.8314 10.0066 13.8564 10.0264 13.8864 10.0722C13.949 10.1679 14 10.3278 14 10.5189V11.5C14 11.7761 14.2239 12 14.5 12C14.7762 12 15 11.7761 15 11.5V10.5189C15 10.1695 14.9106 9.81107 14.7232 9.52466C14.536 9.23869 14.2276 9 13.8334 9H11.1667C10.7725 9 10.464 9.23869 10.2769 9.52466C10.0895 9.81107 10 10.1695 10 10.5189V11.5C10 11.7761 10.2239 12 10.5 12C10.7762 12 11 11.7761 11 11.5V10.5189C11 10.3278 11.051 10.1679 11.1137 10.0722Z" fill="black"/>
<path d="M6.3451 19.4484C6.94813 18.8453 7.75059 18.4832 8.60176 18.43L14.2091 18.0796C14.9279 18.0347 15.6153 17.7692 16.1776 17.3192L21.4622 13.0906C21.828 12.7979 21.8193 12.2386 21.4444 11.9574C21.1858 11.7635 20.8294 11.7666 20.5742 11.965L16.8078 14.8944C16.7277 14.9568 16.6345 14.9909 16.5403 14.9983C16.3349 15.5818 15.7788 16 15.125 16H11.5C11.2239 16 11 15.7761 11 15.5C11 15.2239 11.2239 15 11.5 15H15.125C15.4012 15 15.625 14.7761 15.625 14.5C15.625 14.2239 15.4012 14 15.125 14H9.18624C8.85267 14 8.52863 14.1112 8.26533 14.316L4.30699 17.3947C4.08902 17.5642 3.77488 17.5249 3.60535 17.307C3.43581 17.089 3.47508 16.7749 3.69305 16.6053L7.65139 13.5266C8.09022 13.1853 8.6303 13 9.18624 13H15.125C15.7306 13 16.2523 13.3588 16.4892 13.8754L19.9603 11.1757C20.5714 10.7004 21.425 10.6929 22.0444 11.1574C22.9422 11.8308 22.9632 13.1703 22.087 13.8714L16.8024 18.1C16.0794 18.6785 15.1956 19.0199 14.2715 19.0777L8.66412 19.4281C8.05614 19.466 7.48296 19.7247 7.05222 20.1555L5.35443 21.8533C5.15917 22.0486 4.84259 22.0486 4.64732 21.8533C4.45205 21.6581 4.45205 21.3415 4.64731 21.1462L6.3451 19.4484Z" fill="black"/>
</svg>
