<svg width="25" height="24" viewBox="0 0 25 24" fill="none" xmlns="http://www.w3.org/2000/svg">
<path d="M10 9C10.2761 9 10.5 9.22386 10.5 9.5V18.5C10.5 18.7761 10.2761 19 10 19C9.72386 19 9.5 18.7761 9.5 18.5V9.5C9.5 9.22386 9.72386 9 10 9Z" fill="black"/>
<path d="M13 9C13.2761 9 13.5 9.22386 13.5 9.5V18.5C13.5 18.7761 13.2761 19 13 19C12.7239 19 12.5 18.7761 12.5 18.5V9.5C12.5 9.22386 12.7239 9 13 9Z" fill="black"/>
<path d="M16.5 9.5C16.5 9.22386 16.2761 9 16 9C15.7239 9 15.5 9.22386 15.5 9.5V18.5C15.5 18.7761 15.7239 19 16 19C16.2761 19 16.5 18.7761 16.5 18.5V9.5Z" fill="black"/>
<path fill-rule="evenodd" clip-rule="evenodd" d="M12 1C11.1716 1 10.5 1.67157 10.5 2.5V6H8C7.17157 6 6.5 6.67157 6.5 7.5V20.5C6.5 21.3284 7.17157 22 8 22H8.58535C8.79127 22.5826 9.34689 23 10 23C10.6531 23 11.2087 22.5826 11.4146 22H14.5854C14.7913 22.5826 15.3469 23 16 23C16.6531 23 17.2087 22.5826 17.4146 22H18C18.8284 22 19.5 21.3284 19.5 20.5V7.5C19.5 6.67157 18.8284 6 18 6H15.5V2.5C15.5 1.67157 14.8284 1 14 1H12ZM12 2C11.7239 2 11.5 2.22386 11.5 2.5V6H14.5V2.5C14.5 2.22386 14.2761 2 14 2H12ZM8 7C7.72386 7 7.5 7.22386 7.5 7.5V20.5C7.5 20.7761 7.72386 21 8 21H18C18.2761 21 18.5 20.7761 18.5 20.5V7.5C18.5 7.22386 18.2761 7 18 7H8Z" fill="black"/>
</svg>
