<svg width="25" height="24" viewBox="0 0 25 24" fill="none" xmlns="http://www.w3.org/2000/svg">
<path fill-rule="evenodd" clip-rule="evenodd" d="M12.5002 1.97925C11.4578 1.97925 10.4268 2.19656 9.47304 2.61731C8.52083 3.03738 7.6665 3.65103 6.96436 4.41919L6.77771 4.61563L6.77478 4.61877C5.30487 6.19289 4.4873 8.26631 4.4873 10.42C4.4873 12.5737 5.30486 14.6472 6.77477 16.2213L12.0735 21.8205L12.0802 21.8271C12.1924 21.937 12.3431 21.9986 12.5002 21.9986C12.6573 21.9986 12.8081 21.937 12.9202 21.8271L12.9269 21.8205L18.2234 16.2237L18.2257 16.2213C19.6956 14.6472 20.5131 12.5737 20.5131 10.42C20.5131 8.26631 19.6956 6.19288 18.2257 4.61876L18.0361 4.41919C17.3339 3.65103 16.4796 3.03738 15.5274 2.61731C14.5737 2.19656 13.5427 1.97925 12.5002 1.97925ZM12.5002 14.5C14.9855 14.5 17.0002 12.4853 17.0002 10C17.0002 7.51472 14.9855 5.5 12.5002 5.5C10.015 5.5 8.00024 7.51472 8.00024 10C8.00024 12.4853 10.015 14.5 12.5002 14.5Z" fill="black"/>
</svg>
