<svg width="25" height="24" viewBox="0 0 25 24" fill="none" xmlns="http://www.w3.org/2000/svg">
<path fill-rule="evenodd" clip-rule="evenodd" d="M11.259 3.25713C11.6505 3.08672 12.073 2.99878 12.5 2.99878C12.927 2.99878 13.3495 3.08672 13.741 3.25713C14.1325 3.42749 14.4847 3.67663 14.7757 3.98902L16 5.30064V4.7143C16 4.43905 16.0753 4.15326 16.2368 3.92249C16.3996 3.69003 16.6656 3.50002 17 3.50002H19C19.3344 3.50002 19.6004 3.69003 19.7632 3.92249C19.9247 4.15326 20 4.43905 20 4.7143V9.50002C20 9.52696 19.9979 9.5534 19.9938 9.57919L20.6655 10.2988C21.2019 10.8748 21.5003 11.633 21.5 12.42V19.19C21.5 19.6701 21.3093 20.1304 20.9699 20.4699C20.6304 20.8093 20.17 21 19.69 21H5.31C4.82996 21 4.36958 20.8093 4.03014 20.4699C3.6907 20.1304 3.5 19.6701 3.5 19.19V12.4203C3.49969 11.6333 3.79775 10.8752 4.3341 10.2993L10.2241 3.98926C10.5151 3.67687 10.8675 3.42749 11.259 3.25713ZM17 6.37195L19 8.51456V4.7143C19 4.61431 18.972 4.53858 18.9467 4.50002H17.0533C17.028 4.53858 17 4.61431 17 4.7143V6.37195ZM16.0515 6.82136C16.0951 6.90941 16.1638 6.9828 16.2483 7.03212L19.9343 10.981C20.2981 11.3718 20.5003 11.8861 20.5 12.42V19.19C20.5 19.4048 20.4147 19.6109 20.2628 19.7628C20.1109 19.9147 19.9048 20 19.69 20H15.5V14.5C15.5 14.1287 15.3779 13.7582 15.14 13.4728C14.9 13.1848 14.5528 13 14.1667 13H10.8333C10.4472 13 10.1 13.1848 9.85997 13.4728C9.62214 13.7582 9.5 14.1287 9.5 14.5V20H5.31C5.09517 20 4.88915 19.9147 4.73724 19.7628C4.58534 19.6109 4.5 19.4048 4.5 19.19L4.5 12.4198C4.49975 11.8859 4.70213 11.3715 5.0659 10.9808L10.9559 4.67077C11.1534 4.45876 11.3924 4.28967 11.658 4.17406C11.9237 4.05844 12.2103 3.99878 12.5 3.99878C12.7897 3.99878 13.0763 4.05844 13.342 4.17406C13.6076 4.28967 13.847 4.45918 14.0445 4.6712L16.0515 6.82136ZM14.3718 14.113C14.4465 14.2027 14.5 14.3409 14.5 14.5V20H10.5V14.5C10.5 14.3409 10.5535 14.2027 10.6282 14.113C10.7007 14.026 10.7774 14 10.8333 14H14.1667C14.2226 14 14.2993 14.026 14.3718 14.113Z" fill="black"/>
</svg>
