<svg width="25" height="24" viewBox="0 0 25 24" fill="none" xmlns="http://www.w3.org/2000/svg">
<path d="M13.5 5C13.5 5.55228 13.0523 6 12.5 6C11.9477 6 11.5 5.55228 11.5 5C11.5 4.44772 11.9477 4 12.5 4C13.0523 4 13.5 4.44772 13.5 5Z" fill="black"/>
<path fill-rule="evenodd" clip-rule="evenodd" d="M12.2465 2.06903C12.403 1.97699 12.597 1.97699 12.7535 2.06903L21.2535 7.06903C21.4479 7.18339 21.5417 7.41375 21.4824 7.63137C21.4232 7.84899 21.2255 8 21 8H20.5V9.5C20.5 9.77614 20.2761 10 20 10H19.5V17H20C20.2761 17 20.5 17.2239 20.5 17.5V19H21C21.2761 19 21.5 19.2239 21.5 19.5V21H22C22.2761 21 22.5 21.2239 22.5 21.5C22.5 21.7761 22.2761 22 22 22H3C2.72386 22 2.5 21.7761 2.5 21.5C2.5 21.2239 2.72386 21 3 21H3.5V19.5C3.5 19.2239 3.72386 19 4 19H4.5V17.5C4.5 17.2239 4.72386 17 5 17H5.5V10H5C4.72386 10 4.5 9.77614 4.5 9.5V8H4C3.77445 8 3.57683 7.84899 3.51757 7.63137C3.45831 7.41375 3.55208 7.18339 3.74649 7.06903L12.2465 2.06903ZM12.5 3.08009L19.1638 7H5.83615L12.5 3.08009ZM5.5 9V8H19.5V9H5.5ZM14 10H16.5V17H14V10ZM12 17V10H13V17H12ZM8.5 10H11V17H8.5V10ZM6.5 10H7.5V17H6.5V10ZM17.5 10H18.5V17H17.5V10ZM4.5 20V21H20.5V20H4.5ZM19.5 19V18H5.5V19H19.5Z" fill="black"/>
</svg>
