<svg width="25" height="25" viewBox="0 0 25 25" fill="none" xmlns="http://www.w3.org/2000/svg">
<path fill-rule="evenodd" clip-rule="evenodd" d="M17.5 3.09253C16.505 3.09253 15.6797 3.8191 15.5258 4.77063L13.3034 5.88181L10.6474 6.83037C10.1617 7.00385 9.64973 7.09253 9.13393 7.09253H7.5C5.29086 7.09253 3.5 8.88339 3.5 11.0925C3.5 12.9564 4.77477 14.5225 6.5 14.9665V18.5925C6.5 19.6971 7.39543 20.5925 8.5 20.5925C9.60457 20.5925 10.5 19.6971 10.5 18.5925V15.4845C10.6195 15.54 10.7366 15.6011 10.851 15.6678L15.5224 18.3928C15.6672 19.3549 16.4975 20.0925 17.5 20.0925C18.6046 20.0925 19.5 19.1971 19.5 18.0925V14.0425C20.6411 13.8109 21.5 12.802 21.5 11.5925C21.5 10.383 20.6411 9.37417 19.5 9.14254V5.09253C19.5 3.98796 18.6046 3.09253 17.5 3.09253ZM19.5 13.0072C20.0826 12.8013 20.5 12.2456 20.5 11.5925C20.5 10.9394 20.0826 10.3838 19.5 10.1779V13.0072ZM17.5 19.0925C16.9477 19.0925 16.5 18.6448 16.5 18.0925V5.09253C16.5 4.54024 16.9477 4.09253 17.5 4.09253C18.0523 4.09253 18.5 4.54024 18.5 5.09253V18.0925C18.5 18.6448 18.0523 19.0925 17.5 19.0925ZM13.7236 6.78974L15.5 5.90155V17.222L11.3549 14.804C10.5561 14.3381 9.64789 14.0925 8.72311 14.0925H7.5C5.84315 14.0925 4.5 12.7494 4.5 11.0925C4.5 9.43568 5.84315 8.09253 7.5 8.09253H9.13393C9.76435 8.09253 10.3901 7.98414 10.9838 7.77211L13.6682 6.8134C13.6871 6.80664 13.7056 6.79874 13.7236 6.78974ZM8.5 19.5925C7.94772 19.5925 7.5 19.1448 7.5 18.5925V15.0925H8.72311C8.98479 15.0925 9.24482 15.1168 9.5 15.1646V18.5925C9.5 19.1448 9.05228 19.5925 8.5 19.5925Z" fill="black"/>
</svg>
