<svg width="25" height="25" viewBox="0 0 25 25" fill="none" xmlns="http://www.w3.org/2000/svg">
<path d="M2.5 4.59253C2.5 3.21182 3.61929 2.09253 5 2.09253H12C13.3807 2.09253 14.5 3.21182 14.5 4.59253V11.0925C14.5 11.3687 14.2761 11.5925 14 11.5925C13.7239 11.5925 13.5 11.3687 13.5 11.0925V4.59253C13.5 3.7641 12.8284 3.09253 12 3.09253H5C4.17157 3.09253 3.5 3.7641 3.5 4.59253V19.5925C3.5 20.4215 4.17044 21.0925 4.99832 21.0925H11C11.2761 21.0925 11.5 21.3164 11.5 21.5925C11.5 21.8687 11.2761 22.0925 11 22.0925H4.99832C3.61707 22.0925 2.5 20.9727 2.5 19.5925V4.59253Z" fill="black"/>
<path d="M8.5 20.0925C9.05228 20.0925 9.5 19.6448 9.5 19.0925C9.5 18.5402 9.05228 18.0925 8.5 18.0925C7.94772 18.0925 7.5 18.5402 7.5 19.0925C7.5 19.6448 7.94772 20.0925 8.5 20.0925Z" fill="black"/>
<path fill-rule="evenodd" clip-rule="evenodd" d="M11.5 15.5925C11.5 15.5339 11.5101 15.4777 11.5286 15.4254C11.5098 15.3173 11.5 15.2063 11.5 15.0925C11.5 14.1381 12.1904 13.3792 13.0752 12.8877C13.9769 12.3867 15.1887 12.0925 16.5 12.0925C17.8113 12.0925 19.0231 12.3867 19.9248 12.8877C20.8096 13.3792 21.5 14.1381 21.5 15.0925C21.5 15.2063 21.4902 15.3173 21.4714 15.4254C21.4899 15.4777 21.5 15.5339 21.5 15.5925V19.5925C21.5 20.0314 21.2978 20.4118 21.0086 20.7157C20.7218 21.0171 20.3304 21.2657 19.885 21.4636C18.9931 21.8601 17.7959 22.0925 16.5 22.0925C15.2041 22.0925 14.0069 21.8601 13.115 21.4636C12.6696 21.2657 12.2782 21.0171 11.9914 20.7157C11.7022 20.4118 11.5 20.0314 11.5 19.5925V15.5925ZM19.9248 17.2974C20.1289 17.184 20.3227 17.0564 20.5 16.9154V17.5925C20.5 17.706 20.4504 17.8517 20.2842 18.0263C20.1155 18.2035 19.8479 18.3858 19.4789 18.5498C18.7422 18.8773 17.6894 19.0925 16.5 19.0925C15.3106 19.0925 14.2578 18.8773 13.5211 18.5498C13.1521 18.3858 12.8845 18.2035 12.7158 18.0263C12.5496 17.8517 12.5 17.706 12.5 17.5925V16.9154C12.6773 17.0564 12.8711 17.184 13.0752 17.2974C13.9769 17.7983 15.1887 18.0925 16.5 18.0925C17.8113 18.0925 19.0231 17.7983 19.9248 17.2974ZM19.885 19.4636C20.1053 19.3658 20.3123 19.2555 20.5 19.1326V19.5925C20.5 19.706 20.4504 19.8517 20.2842 20.0263C20.1155 20.2035 19.8479 20.3858 19.4789 20.5498C18.7422 20.8773 17.6894 21.0925 16.5 21.0925C15.3106 21.0925 14.2578 20.8773 13.5211 20.5498C13.1521 20.3858 12.8845 20.2035 12.7158 20.0263C12.5496 19.8517 12.5 19.706 12.5 19.5925V19.1326C12.6877 19.2555 12.8947 19.3658 13.115 19.4636C14.0069 19.8601 15.2041 20.0925 16.5 20.0925C17.7959 20.0925 18.9931 19.8601 19.885 19.4636ZM13.5608 13.7618C12.8169 14.1751 12.5 14.6662 12.5 15.0925C12.5 15.5188 12.8169 16.0099 13.5608 16.4232C14.2878 16.8271 15.326 17.0925 16.5 17.0925C17.674 17.0925 18.7122 16.8271 19.4392 16.4232C20.1831 16.0099 20.5 15.5188 20.5 15.0925C20.5 14.6662 20.1831 14.1751 19.4392 13.7618C18.7122 13.358 17.674 13.0925 16.5 13.0925C15.326 13.0925 14.2878 13.358 13.5608 13.7618Z" fill="black"/>
</svg>
