<svg width="25" height="25" viewBox="0 0 25 25" fill="none" xmlns="http://www.w3.org/2000/svg">
<path fill-rule="evenodd" clip-rule="evenodd" d="M22.4914 3.68468C22.5254 3.5038 22.4572 3.31892 22.3139 3.20338C22.1707 3.08783 21.9756 3.0603 21.806 3.13172L2.80597 11.1317C2.61723 11.2112 2.49603 11.3977 2.5001 11.6025C2.50417 11.8072 2.63269 11.9888 2.82444 12.0607L10.5542 14.9594L11.5068 20.6747C11.5424 20.8884 11.7115 21.0548 11.9257 21.087C12.1398 21.1192 12.3504 21.0099 12.4472 20.8162L14.2489 17.2127L18.735 20.0165C18.8751 20.1041 19.0495 20.1168 19.2009 20.0504C19.3522 19.984 19.461 19.8471 19.4914 19.6847L22.4914 3.68468ZM13.3971 16.6803L11.6755 15.6044L12.2404 18.9937L13.3971 16.6803ZM11.8087 14.5084L18.6436 18.7802L21.1248 5.54726L11.8087 14.5084ZM20.489 4.77125L4.35232 11.5657L10.8805 14.0137L20.489 4.77125Z" fill="black"/>
</svg>
