<svg width="25" height="25" viewBox="0 0 25 25" fill="none" xmlns="http://www.w3.org/2000/svg">
<path fill-rule="evenodd" clip-rule="evenodd" d="M17.7499 2.09253C15.1266 2.09253 12.9999 4.21918 12.9999 6.84253C12.9999 9.46588 15.1266 11.5925 17.7499 11.5925C20.3733 11.5925 22.4999 9.46588 22.4999 6.84253C22.4999 4.21918 20.3733 2.09253 17.7499 2.09253ZM14.5739 5.27983C14.4768 5.31511 14.3822 5.35261 14.2906 5.39238C14.6704 4.48746 15.3949 3.76297 16.2999 3.38319C16.2601 3.47478 16.2226 3.56942 16.1873 3.66645C16.0505 4.04254 15.9392 4.47642 15.858 4.95058C15.3839 5.03172 14.95 5.14306 14.5739 5.27983ZM15.7342 5.99179C15.4307 6.05535 15.1556 6.13237 14.9156 6.21962C14.5629 6.34789 14.3126 6.4888 14.1599 6.62011C14.0055 6.75282 13.9999 6.8297 13.9999 6.84253C13.9999 6.85536 14.0055 6.93224 14.1599 7.06495C14.3126 7.19626 14.5629 7.33717 14.9156 7.46543C15.1556 7.55269 15.4307 7.6297 15.7342 7.69327C15.7147 7.41672 15.7045 7.13227 15.7045 6.84253C15.7045 6.55279 15.7147 6.26834 15.7342 5.99179ZM16.7496 7.84292C16.7203 7.52493 16.7045 7.18981 16.7045 6.84253C16.7045 6.49525 16.7203 6.16013 16.7496 5.84214C17.0676 5.81287 17.4027 5.79707 17.7499 5.79707C18.0972 5.79707 18.4324 5.81287 18.7504 5.84215C18.7796 6.16013 18.7954 6.49525 18.7954 6.84253C18.7954 7.18981 18.7796 7.52492 18.7504 7.84291C18.4324 7.87219 18.0972 7.88798 17.7499 7.88798C17.4027 7.88798 17.0676 7.87219 16.7496 7.84292ZM15.858 8.73448C15.3839 8.65333 14.95 8.54199 14.5739 8.40523C14.4768 8.36994 14.3822 8.33245 14.2906 8.29267C14.6704 9.19759 15.3949 9.92209 16.2999 10.3019C16.2601 10.2103 16.2226 10.1156 16.1873 10.0186C16.0505 9.64251 15.9392 9.20864 15.858 8.73448ZM17.7499 10.5925C17.7371 10.5925 17.6603 10.5869 17.5276 10.4326C17.3963 10.2798 17.2553 10.0296 17.1271 9.67686C17.0398 9.43692 16.9628 9.16178 16.8993 8.85832C17.1758 8.87786 17.4602 8.88798 17.7499 8.88798C18.0397 8.88798 18.3242 8.87785 18.6007 8.85831C18.5371 9.16177 18.4601 9.43691 18.3729 9.67686C18.2446 10.0296 18.1037 10.2798 17.9724 10.4326C17.8397 10.5869 17.7628 10.5925 17.7499 10.5925ZM19.2001 10.3018C19.2399 10.2102 19.2774 10.1156 19.3127 10.0186C19.4494 9.64251 19.5608 9.20863 19.6419 8.73446C20.1161 8.65332 20.5499 8.54198 20.926 8.40523C21.023 8.36994 21.1177 8.33245 21.2093 8.29267C20.8295 9.19756 20.105 9.92203 19.2001 10.3018ZM19.7658 7.69325C20.0692 7.62969 20.3443 7.55268 20.5843 7.46543C20.937 7.33717 21.1873 7.19626 21.34 7.06495C21.4943 6.93224 21.4999 6.85536 21.4999 6.84253C21.4999 6.8297 21.4943 6.75282 21.34 6.62011C21.1873 6.4888 20.937 6.34789 20.5843 6.21962C20.3443 6.13237 20.0692 6.05537 19.7658 5.99181C19.7853 6.26835 19.7954 6.55279 19.7954 6.84253C19.7954 7.13226 19.7853 7.41671 19.7658 7.69325ZM19.6419 4.95059C20.1161 5.03174 20.5499 5.14307 20.926 5.27983C21.023 5.31511 21.1177 5.35261 21.2093 5.39238C20.8295 4.4875 20.105 3.76302 19.2001 3.38323C19.2399 3.47481 19.2774 3.56943 19.3127 3.66645C19.4494 4.04255 19.5608 4.47643 19.6419 4.95059ZM18.6007 4.82675C18.3242 4.8072 18.0397 4.79707 17.7499 4.79707C17.4602 4.79707 17.1758 4.8072 16.8993 4.82674C16.9628 4.52328 17.0398 4.24814 17.1271 4.0082C17.2553 3.65547 17.3963 3.40521 17.5276 3.25248C17.6603 3.09812 17.7371 3.09253 17.7499 3.09253C17.7628 3.09253 17.8397 3.09812 17.9724 3.25248C18.1037 3.40521 18.2446 3.65547 18.3729 4.0082C18.4601 4.24814 18.5371 4.52329 18.6007 4.82675Z" fill="black"/>
<path fill-rule="evenodd" clip-rule="evenodd" d="M7.78184 3.51647C7.48007 3.43887 7.16529 3.4252 6.85777 3.47659C6.56136 3.52613 6.27769 3.63477 6.02395 3.79682L4.64671 4.48194C4.62753 4.49148 4.60899 4.50224 4.59119 4.51416C4.1851 4.7861 3.85762 5.16001 3.64145 5.59819C3.42603 6.03486 3.32862 6.5202 3.35892 7.00616C3.39038 7.71098 3.48382 8.41149 3.63816 9.09991C3.64106 9.11285 3.64448 9.12567 3.6484 9.13834C4.50984 11.9221 6.03856 14.4534 8.10151 16.5114C10.1645 18.5695 12.6991 20.0919 15.4849 20.9467C15.4974 20.9506 15.5102 20.9539 15.523 20.9568C16.2107 21.1097 16.9104 21.2033 17.6142 21.2361L17.6233 21.2365L17.6375 21.2367H17.7851L17.7865 21.2367C18.2468 21.2354 18.7001 21.1201 19.1052 20.9001C19.5102 20.6801 19.854 20.3629 20.1058 19.9772C20.1179 19.9587 20.1287 19.9394 20.1383 19.9195L20.8079 18.5189C20.961 18.2675 21.063 17.9882 21.1077 17.6968C21.154 17.3954 21.138 17.0879 21.0608 16.7929C20.9837 16.4982 20.8469 16.2217 20.6588 15.9814C20.4707 15.7412 20.2355 15.5424 19.9678 15.3968C19.9179 15.3696 19.8645 15.3515 19.81 15.3426L16.6236 13.7026L16.6212 13.7013C16.1597 13.467 15.631 13.3993 15.1251 13.511C14.6192 13.6228 14.1675 13.9075 13.8477 14.3143L13.2262 15.1074C12.4798 14.649 11.794 14.0975 11.1851 13.4663L11.1755 13.4568C10.5351 12.8278 9.97672 12.1214 9.51295 11.3543L10.3082 10.7312L10.3127 10.7275C10.7145 10.4051 10.9939 9.95485 11.1049 9.45209C11.216 8.94918 11.152 8.42347 10.9234 7.96195L9.20298 4.64178L9.20148 4.63893C9.05643 4.36337 8.8552 4.12063 8.61047 3.92715C8.36576 3.73367 8.08344 3.59402 7.78184 3.51647ZM19.5001 16.3078C19.5348 16.3257 19.5711 16.3392 19.6082 16.3484C19.7076 16.4181 19.7964 16.5021 19.8714 16.5979C19.9751 16.7303 20.0507 16.883 20.0934 17.0461C20.136 17.209 20.1448 17.3787 20.1193 17.5451C20.0938 17.7114 20.0345 17.8705 19.9449 18.0132C19.9348 18.0294 19.9255 18.0461 19.9173 18.0634L19.2513 19.4564C19.0917 19.6917 18.8779 19.8856 18.6279 20.0213C18.3692 20.1618 18.0787 20.2357 17.7837 20.2367L17.6493 20.2367C17.0134 20.2063 16.3811 20.122 15.7593 19.9849C13.1367 19.1768 10.7507 17.7417 8.80778 15.8035C6.86493 13.8652 5.42397 11.4824 4.60962 8.86179C4.47037 8.23542 4.38619 7.59823 4.35783 6.95718L4.3572 6.94724C4.3371 6.63438 4.39953 6.32181 4.53826 6.04061C4.67254 5.76841 4.87372 5.53493 5.12267 5.36207L6.49479 4.6795C6.51289 4.6705 6.53043 4.6604 6.54731 4.64927C6.69063 4.55478 6.85247 4.49135 7.02262 4.46291C7.19225 4.43456 7.36604 4.44208 7.53279 4.48496C7.69972 4.52788 7.85551 4.60505 7.99029 4.7116C8.12467 4.81784 8.23565 4.95141 8.31589 5.10339L10.0291 8.4095C10.155 8.66591 10.19 8.95747 10.1284 9.23647C10.0667 9.5161 9.91157 9.76648 9.68888 9.946L8.55449 10.8349C8.3614 10.9862 8.3066 11.2552 8.4251 11.47C8.97283 12.4628 9.66162 13.3705 10.4699 14.1655C11.2446 14.9676 12.1328 15.652 13.1063 16.1961C13.3214 16.3163 13.5919 16.262 13.7439 16.0681L14.6347 14.9313C14.8119 14.7061 15.0615 14.5492 15.3407 14.4875C15.6197 14.4259 15.9118 14.463 16.1672 14.5923L16.1683 14.5929L19.5001 16.3078Z" fill="black"/>
</svg>
