<svg width="25" height="25" viewBox="0 0 25 25" fill="none" xmlns="http://www.w3.org/2000/svg">
<path d="M10.4999 19.5925C10.4999 19.3164 10.7237 19.0925 10.9999 19.0925H13.9999C14.276 19.0925 14.4999 19.3164 14.4999 19.5925C14.4999 19.8687 14.276 20.0925 13.9999 20.0925H10.9999C10.7237 20.0925 10.4999 19.8687 10.4999 19.5925Z" fill="black"/>
<path fill-rule="evenodd" clip-rule="evenodd" d="M8.99988 2.09253C7.61917 2.09253 6.49988 3.21182 6.49988 4.59253V4.77961C6.49744 4.84697 6.49743 4.9145 6.49988 4.98205V19.203C6.49743 19.2706 6.49744 19.3381 6.49988 19.4055L6.49988 19.5925C6.49988 20.9732 7.61917 22.0925 8.99988 22.0925H15.9999C17.3806 22.0925 18.4999 20.9732 18.4999 19.5925V19.4055C18.5023 19.3381 18.5023 19.2706 18.4999 19.203V4.98206C18.5023 4.9145 18.5023 4.84697 18.4999 4.7796V4.59253C18.4999 3.21182 17.3806 2.09253 15.9999 2.09253H8.99988ZM9.2101 3.09253C8.9781 3.10264 8.75024 3.1578 8.53926 3.25497C8.32553 3.3534 8.13331 3.49301 7.9736 3.66579C7.81388 3.83858 7.68979 4.04116 7.60844 4.26195C7.54473 4.43486 7.5082 4.61628 7.49988 4.79976V19.3853C7.5082 19.5688 7.54473 19.7502 7.60844 19.9231C7.68979 20.1439 7.81388 20.3465 7.9736 20.5193C8.13331 20.6921 8.32553 20.8317 8.53926 20.9301C8.75025 21.0273 8.97811 21.0824 9.21012 21.0925H15.7896C16.0217 21.0824 16.2495 21.0273 16.4605 20.9301C16.6742 20.8317 16.8665 20.6921 17.0262 20.5193C17.1859 20.3465 17.31 20.1439 17.3913 19.9231C17.455 19.7502 17.4916 19.5688 17.4999 19.3853V4.79977C17.4916 4.61629 17.455 4.43486 17.3913 4.26195C17.31 4.04116 17.1859 3.83858 17.0262 3.66579C16.8665 3.49301 16.6742 3.3534 16.4605 3.25497C16.2495 3.1578 16.0217 3.10264 15.7897 3.09253H9.2101Z" fill="black"/>
</svg>
