<svg width="25" height="25" viewBox="0 0 25 25" fill="none" xmlns="http://www.w3.org/2000/svg">
<path d="M17.9999 7.09253C18.2761 7.09253 18.4999 6.86867 18.4999 6.59253V4.59253C18.4999 4.31639 18.2761 4.09253 17.9999 4.09253C17.7238 4.09253 17.4999 4.31639 17.4999 4.59253V6.59253C17.4999 6.86867 17.7238 7.09253 17.9999 7.09253Z" fill="black"/>
<path d="M18.4999 8.59253C18.4999 8.86867 18.2761 9.09253 17.9999 9.09253C17.7238 9.09253 17.4999 8.86867 17.4999 8.59253C17.4999 8.31639 17.7238 8.09253 17.9999 8.09253C18.2761 8.09253 18.4999 8.31639 18.4999 8.59253Z" fill="black"/>
<path fill-rule="evenodd" clip-rule="evenodd" d="M21.6813 2.44223C19.2062 1.97596 16.6687 1.97596 14.1935 2.44223C13.9748 2.48343 13.8096 2.66425 13.7884 2.8858L13.5344 5.53138C13.3845 6.95575 13.7265 8.38991 14.5028 9.58459C15.2796 10.7802 16.4429 11.6612 17.7921 12.071C17.8869 12.0997 17.988 12.0997 18.0827 12.071C19.4319 11.6612 20.5953 10.7802 21.3721 9.58459C22.1483 8.38993 22.4903 6.95579 22.3405 5.53144L22.0865 2.8858C22.0652 2.66425 21.9001 2.48343 21.6813 2.44223ZM14.5296 5.62926L14.7475 3.35916C16.86 3.00365 19.0149 3.00365 21.1273 3.35916L21.3453 5.62926L21.3458 5.63399C21.4724 6.83285 21.1843 8.03823 20.5336 9.03976C19.9113 9.99747 18.996 10.7097 17.9374 11.0675C16.8789 10.7097 15.9636 9.99747 15.3413 9.03976C14.6906 8.03823 14.4025 6.83285 14.5291 5.63399L14.5296 5.62926Z" fill="black"/>
<path fill-rule="evenodd" clip-rule="evenodd" d="M7.78184 3.51647C7.48007 3.43887 7.16529 3.4252 6.85777 3.47659C6.56136 3.52613 6.27769 3.63477 6.02395 3.79682L4.64671 4.48194C4.62753 4.49148 4.60899 4.50224 4.59119 4.51416C4.1851 4.7861 3.85762 5.16001 3.64145 5.59819C3.42603 6.03486 3.32862 6.5202 3.35892 7.00616C3.39038 7.71098 3.48382 8.41149 3.63816 9.09991C3.64106 9.11285 3.64448 9.12567 3.6484 9.13834C4.50984 11.9221 6.03856 14.4534 8.10151 16.5114C10.1645 18.5695 12.6991 20.0919 15.4849 20.9467C15.4974 20.9506 15.5102 20.9539 15.523 20.9568C16.2107 21.1097 16.9104 21.2033 17.6142 21.2361L17.6233 21.2365L17.6375 21.2367H17.7851L17.7865 21.2367C18.2468 21.2354 18.7001 21.1201 19.1052 20.9001C19.5102 20.6801 19.854 20.3629 20.1058 19.9772C20.1179 19.9587 20.1287 19.9394 20.1383 19.9195L20.8079 18.5189C20.961 18.2675 21.063 17.9882 21.1077 17.6968C21.154 17.3954 21.138 17.0879 21.0608 16.7929C20.9837 16.4982 20.8469 16.2217 20.6588 15.9814C20.4707 15.7412 20.2355 15.5424 19.9678 15.3968C19.9179 15.3696 19.8645 15.3515 19.81 15.3426L16.6236 13.7026L16.6212 13.7013C16.1597 13.467 15.631 13.3993 15.1251 13.511C14.6192 13.6228 14.1675 13.9075 13.8477 14.3143L13.2262 15.1074C12.4798 14.649 11.794 14.0975 11.1851 13.4663L11.1755 13.4568C10.5351 12.8278 9.97672 12.1214 9.51295 11.3543L10.3082 10.7312L10.3127 10.7275C10.7145 10.4051 10.9939 9.95485 11.1049 9.45209C11.216 8.94918 11.152 8.42347 10.9234 7.96195L9.20298 4.64178L9.20148 4.63893C9.05643 4.36337 8.8552 4.12063 8.61047 3.92715C8.36576 3.73367 8.08344 3.59402 7.78184 3.51647ZM19.5001 16.3078C19.5348 16.3257 19.5711 16.3392 19.6082 16.3484C19.7076 16.4181 19.7964 16.5021 19.8714 16.5979C19.9751 16.7303 20.0507 16.883 20.0934 17.0461C20.136 17.209 20.1448 17.3787 20.1193 17.5451C20.0938 17.7114 20.0345 17.8705 19.9449 18.0132C19.9348 18.0294 19.9255 18.0461 19.9173 18.0634L19.2513 19.4564C19.0917 19.6917 18.8779 19.8856 18.6279 20.0213C18.3692 20.1618 18.0787 20.2357 17.7837 20.2367L17.6493 20.2367C17.0134 20.2063 16.3811 20.122 15.7593 19.9849C13.1367 19.1768 10.7507 17.7417 8.80778 15.8035C6.86493 13.8652 5.42397 11.4824 4.60962 8.86179C4.47037 8.23542 4.38619 7.59823 4.35783 6.95718L4.3572 6.94724C4.3371 6.63438 4.39953 6.32181 4.53826 6.04061C4.67254 5.76841 4.87372 5.53493 5.12267 5.36207L6.49479 4.6795C6.51289 4.6705 6.53043 4.6604 6.54731 4.64927C6.69063 4.55478 6.85247 4.49135 7.02262 4.46291C7.19225 4.43456 7.36604 4.44208 7.53279 4.48496C7.69972 4.52788 7.85551 4.60505 7.99029 4.7116C8.12467 4.81784 8.23565 4.95141 8.31589 5.10339L10.0291 8.4095C10.155 8.66591 10.19 8.95747 10.1284 9.23647C10.0667 9.5161 9.91157 9.76648 9.68888 9.946L8.55449 10.8349C8.3614 10.9862 8.3066 11.2552 8.4251 11.47C8.97283 12.4628 9.66162 13.3705 10.4699 14.1655C11.2446 14.9676 12.1328 15.652 13.1063 16.1961C13.3214 16.3163 13.5919 16.262 13.7439 16.0681L14.6347 14.9313C14.8119 14.7061 15.0615 14.5492 15.3407 14.4875C15.6197 14.4259 15.9118 14.463 16.1672 14.5923L16.1683 14.5929L19.5001 16.3078Z" fill="black"/>
</svg>
