<svg width="25" height="24" viewBox="0 0 25 24" fill="none" xmlns="http://www.w3.org/2000/svg">
<path d="M9.5 16.7354C9.5 16.4703 9.72386 16.2554 10 16.2554H17C17.2761 16.2554 17.5 16.4703 17.5 16.7354C17.5 17.0005 17.2761 17.2154 17 17.2154H10C9.72386 17.2154 9.5 17.0005 9.5 16.7354Z" fill="black"/>
<path fill-rule="evenodd" clip-rule="evenodd" d="M15.2063 8.95403C15.6649 9.1631 16.0825 9.47101 16.4325 9.86104C17.1224 10.6298 17.5 11.659 17.5 12.7199V12.8999C17.5 13.2766 17.3664 13.6496 17.1107 13.9345C16.853 14.2216 16.4861 14.3999 16.0846 14.3999H10.9154C10.5139 14.3999 10.147 14.2216 9.88931 13.9345C9.63361 13.6496 9.5 13.2766 9.5 12.8999V12.7199C9.5 11.659 9.87755 10.6298 10.5675 9.86104C10.9175 9.47101 11.3351 9.1631 11.7937 8.95403C11.3053 8.516 11 7.89219 11 7.19992C11 5.87444 12.1193 4.79992 13.5 4.79992C14.8807 4.79992 16 5.87444 16 7.19992C16 7.89219 15.6947 8.516 15.2063 8.95403ZM13.2308 9.59992C12.5326 9.59992 11.8449 9.90837 11.3251 10.4876C10.8032 11.0691 10.5 11.8713 10.5 12.7199V12.8999C10.5 13.0643 10.5593 13.2102 10.6469 13.3079C10.7326 13.4033 10.8313 13.4399 10.9154 13.4399H16.0846C16.1687 13.4399 16.2674 13.4033 16.3531 13.3079C16.4407 13.2102 16.5 13.0643 16.5 12.8999V12.7199C16.5 11.8713 16.1968 11.0691 15.6749 10.4876C15.1551 9.90837 14.4674 9.59992 13.7692 9.59992H13.2308ZM13.5 8.63992C12.6716 8.63992 12 7.99521 12 7.19992C12 6.40463 12.6716 5.75992 13.5 5.75992C14.3284 5.75992 15 6.40463 15 7.19992C15 7.99521 14.3284 8.63992 13.5 8.63992Z" fill="black"/>
<path fill-rule="evenodd" clip-rule="evenodd" d="M5 1.91992C4.72386 1.91992 4.5 2.13483 4.5 2.39992V20.6399C4.5 20.905 4.72386 21.1199 5 21.1199H18C19.3807 21.1199 20.5 20.0454 20.5 18.7199V4.31992C20.5 2.99444 19.3807 1.91992 18 1.91992H5ZM19.5 4.31992C19.5 3.52463 18.8284 2.87992 18 2.87992H8V20.1599H18C18.8284 20.1599 19.5 19.5152 19.5 18.7199V4.31992ZM5.5 20.1599V2.87992H7V20.1599H5.5Z" fill="black"/>
</svg>
