<svg width="25" height="25" viewBox="0 0 25 25" fill="none" xmlns="http://www.w3.org/2000/svg">
<path d="M23 5.59253C23 6.6971 22.1046 7.59253 21 7.59253C19.8954 7.59253 19 6.6971 19 5.59253C19 4.48796 19.8954 3.59253 21 3.59253C22.1046 3.59253 23 4.48796 23 5.59253Z" fill="black"/>
<path fill-rule="evenodd" clip-rule="evenodd" d="M6 6.09253C5.17157 6.09253 4.5 6.7641 4.5 7.59253C4.5 8.05714 4.72574 8.49279 5.10532 8.76073L12.236 13.7942C12.4029 13.9119 12.6245 13.9164 12.796 13.8055L20.7221 8.67683C20.8015 8.62358 20.8971 8.59253 21 8.59253C21.2761 8.59253 21.5 8.81639 21.5 9.09253V16.5925C21.5 17.9732 20.3807 19.0925 19 19.0925H6C4.61929 19.0925 3.5 17.9732 3.5 16.5925V7.59253C3.5 6.21182 4.61929 5.09253 6 5.09253H17.5C17.7761 5.09253 18 5.31639 18 5.59253C18 5.86867 17.7761 6.09253 17.5 6.09253H6ZM6 18.0925C5.17157 18.0925 4.5 17.421 4.5 16.5925V9.55726L4.52863 9.5777L11.6593 14.6111C12.1598 14.9644 12.8249 14.9779 13.3392 14.645L20.5 10.0116V16.5925C20.5 17.421 19.8284 18.0925 19 18.0925H6Z" fill="black"/>
</svg>
