<svg width="25" height="25" viewBox="0 0 25 25" fill="none" xmlns="http://www.w3.org/2000/svg">
<path d="M9.5 11.0925C9.5 11.6448 9.05228 12.0925 8.5 12.0925C7.94772 12.0925 7.5 11.6448 7.5 11.0925C7.5 10.5402 7.94772 10.0925 8.5 10.0925C9.05228 10.0925 9.5 10.5402 9.5 11.0925Z" fill="black"/>
<path d="M12.5 12.0925C13.0523 12.0925 13.5 11.6448 13.5 11.0925C13.5 10.5402 13.0523 10.0925 12.5 10.0925C11.9477 10.0925 11.5 10.5402 11.5 11.0925C11.5 11.6448 11.9477 12.0925 12.5 12.0925Z" fill="black"/>
<path d="M16.5 12.0925C17.0523 12.0925 17.5 11.6448 17.5 11.0925C17.5 10.5402 17.0523 10.0925 16.5 10.0925C15.9477 10.0925 15.5 10.5402 15.5 11.0925C15.5 11.6448 15.9477 12.0925 16.5 12.0925Z" fill="black"/>
<path fill-rule="evenodd" clip-rule="evenodd" d="M8.1857 19.0568L13.0963 17.0925H16.5C19.8137 17.0925 22.5 14.4062 22.5 11.0925C22.5 7.77882 19.8137 5.09253 16.5 5.09253H8.5C5.18629 5.09253 2.5 7.77882 2.5 11.0925C2.5 14.0656 4.66208 16.5332 7.5 17.0095V18.5925C7.5 18.7584 7.5823 18.9135 7.71969 19.0066C7.85707 19.0996 8.03165 19.1184 8.1857 19.0568ZM8.5 6.09253C5.73858 6.09253 3.5 8.33111 3.5 11.0925C3.5 13.7005 5.497 15.8425 8.04488 16.0721C8.30875 16.0959 8.50619 16.3206 8.49988 16.5817L8.5 16.5925V17.854L12.8038 16.1325C12.8361 16.1187 12.8701 16.1082 12.9054 16.1015C12.9408 16.0946 12.9762 16.0917 13.0113 16.0925H16.5C19.2614 16.0925 21.5 13.854 21.5 11.0925C21.5 8.33111 19.2614 6.09253 16.5 6.09253H8.5Z" fill="black"/>
</svg>
