<svg width="25" height="25" viewBox="0 0 25 25" fill="none" xmlns="http://www.w3.org/2000/svg">
<path d="M8 2.09253C6.61929 2.09253 5.5 3.21182 5.5 4.59253V19.5925C5.5 20.9732 6.61929 22.0925 8 22.0925H15C16.3807 22.0925 17.5 20.9732 17.5 19.5925V15.5925C17.5 15.3164 17.2761 15.0925 17 15.0925C16.7239 15.0925 16.5 15.3164 16.5 15.5925V19.5925C16.5 20.421 15.8284 21.0925 15 21.0925H8C7.17157 21.0925 6.5 20.421 6.5 19.5925V4.59253C6.5 3.7641 7.17157 3.09253 8 3.09253H15C15.8284 3.09253 16.5 3.7641 16.5 4.59253V7.59253C16.5 7.86867 16.7239 8.09253 17 8.09253C17.2761 8.09253 17.5 7.86867 17.5 7.59253V4.59253C17.5 3.21182 16.3807 2.09253 15 2.09253H8Z" fill="black"/>
<path d="M12.5 18.5925C12.5 19.1448 12.0523 19.5925 11.5 19.5925C10.9477 19.5925 10.5 19.1448 10.5 18.5925C10.5 18.0402 10.9477 17.5925 11.5 17.5925C12.0523 17.5925 12.5 18.0402 12.5 18.5925Z" fill="black"/>
<path d="M14.1464 8.73898C14.3417 8.54371 14.6583 8.54371 14.8536 8.73898L17 10.8854L19.1464 8.73898C19.3417 8.54371 19.6583 8.54371 19.8536 8.73898C20.0488 8.93424 20.0488 9.25082 19.8536 9.44608L17.7071 11.5925L19.8536 13.739C20.0488 13.9342 20.0488 14.2508 19.8536 14.4461C19.6583 14.6413 19.3417 14.6413 19.1464 14.4461L17 12.2996L14.8536 14.4461C14.6583 14.6413 14.3417 14.6413 14.1464 14.4461C13.9512 14.2508 13.9512 13.9342 14.1464 13.739L16.2929 11.5925L14.1464 9.44608C13.9512 9.25082 13.9512 8.93424 14.1464 8.73898Z" fill="black"/>
</svg>
