<svg width="25" height="25" viewBox="0 0 25 25" fill="none" xmlns="http://www.w3.org/2000/svg">
<path fill-rule="evenodd" clip-rule="evenodd" d="M7.78184 3.56673C7.48007 3.48913 7.16529 3.47546 6.85777 3.52686C6.56136 3.5764 6.27769 3.68503 6.02395 3.84709L4.64671 4.5322C4.62753 4.54174 4.60899 4.5525 4.59119 4.56442C4.1851 4.83636 3.85762 5.21027 3.64145 5.64845C3.42603 6.08513 3.32862 6.57046 3.35892 7.05642C3.39038 7.76125 3.48382 8.46175 3.63816 9.15017C3.64106 9.16311 3.64448 9.17593 3.6484 9.1886C4.50984 11.9723 6.03856 14.5036 8.10151 16.5617C10.1645 18.6197 12.6991 20.1421 15.4849 20.997C15.4974 21.0008 15.5102 21.0042 15.523 21.007C16.2107 21.16 16.9104 21.2536 17.6142 21.2864C17.622 21.2867 17.6297 21.2869 17.6375 21.2869H17.7851L17.7865 21.2869C18.2468 21.2856 18.7001 21.1704 19.1052 20.9503C19.5102 20.7304 19.854 20.4131 20.1058 20.0275C20.1179 20.009 20.1287 19.9897 20.1383 19.9698L20.8079 18.5692C20.961 18.3177 21.063 18.0384 21.1077 17.747C21.154 17.4456 21.138 17.1382 21.0608 16.8432C20.9837 16.5485 20.8469 16.272 20.6588 16.0317C20.4707 15.7915 20.2355 15.5927 19.9678 15.447C19.9179 15.4198 19.8645 15.4018 19.81 15.3929L16.6236 13.7528L16.6212 13.7516C16.1597 13.5172 15.631 13.4496 15.1251 13.5613C14.6192 13.673 14.1675 13.9577 13.8477 14.3646L13.2262 15.1577C12.4798 14.6993 11.794 14.1478 11.1851 13.5165L11.1755 13.5071C10.5351 12.878 9.97672 12.1717 9.51295 11.4046L10.3082 10.7815L10.3127 10.7778C10.7145 10.4553 10.9939 10.0051 11.1049 9.50235C11.216 8.99945 11.152 8.47373 10.9234 8.01221L9.20298 4.69204L9.20148 4.68919C9.05643 4.41364 8.8552 4.17089 8.61047 3.97741C8.36576 3.78394 8.08344 3.64428 7.78184 3.56673ZM19.5001 16.358C19.5348 16.3759 19.5711 16.3895 19.6082 16.3987C19.7076 16.4683 19.7964 16.5523 19.8714 16.6482C19.9751 16.7805 20.0507 16.9333 20.0934 17.0964C20.136 17.2593 20.1448 17.4289 20.1193 17.5953C20.0938 17.7616 20.0345 17.9208 19.9449 18.0635C19.9348 18.0797 19.9255 18.0964 19.9173 18.1136L19.2513 19.5066C19.0917 19.742 18.8779 19.9358 18.6279 20.0716C18.3692 20.2121 18.0787 20.286 17.7837 20.2869L17.6493 20.2869C17.0134 20.2566 16.3811 20.1723 15.7593 20.0351C13.1367 19.227 10.7507 17.792 8.80778 15.8537C6.86493 13.9155 5.42397 11.5326 4.60962 8.91206C4.47037 8.28568 4.38619 7.64849 4.35783 7.00745L4.3572 6.9975C4.3371 6.68464 4.39953 6.37207 4.53826 6.09088C4.67254 5.81868 4.87372 5.58519 5.12267 5.41233L6.49479 4.72977C6.51289 4.72076 6.53043 4.71067 6.54731 4.69954C6.69063 4.60505 6.85247 4.54161 7.02262 4.51318C7.19225 4.48483 7.36604 4.49234 7.53279 4.53522C7.69972 4.57815 7.85551 4.65531 7.99029 4.76186C8.12467 4.8681 8.23565 5.00168 8.31589 5.15366L10.0291 8.45977C10.155 8.71617 10.19 9.00773 10.1284 9.28673C10.0667 9.56636 9.91157 9.81674 9.68888 9.99627L8.55449 10.8852C8.3614 11.0365 8.3066 11.3055 8.4251 11.5203C8.97283 12.5131 9.66162 13.4208 10.4699 14.2158C11.2446 15.0178 12.1328 15.7022 13.1063 16.2464C13.3214 16.3666 13.5919 16.3122 13.7439 16.1183L14.6347 14.9815C14.8119 14.7563 15.0615 14.5994 15.3407 14.5378C15.6197 14.4762 15.9118 14.5132 16.1672 14.6426L16.1683 14.6432L19.5001 16.358Z" fill="black"/>
</svg>
