<svg width="25" height="25" viewBox="0 0 25 25" fill="none" xmlns="http://www.w3.org/2000/svg">
<path d="M9.5 11.0925C9.5 11.6448 9.05228 12.0925 8.5 12.0925C7.94772 12.0925 7.5 11.6448 7.5 11.0925C7.5 10.5402 7.94772 10.0925 8.5 10.0925C9.05228 10.0925 9.5 10.5402 9.5 11.0925Z" fill="black"/>
<path d="M12.5 12.0925C13.0523 12.0925 13.5 11.6448 13.5 11.0925C13.5 10.5402 13.0523 10.0925 12.5 10.0925C11.9477 10.0925 11.5 10.5402 11.5 11.0925C11.5 11.6448 11.9477 12.0925 12.5 12.0925Z" fill="black"/>
<path d="M16.5 12.0925C17.0523 12.0925 17.5 11.6448 17.5 11.0925C17.5 10.5402 17.0523 10.0925 16.5 10.0925C15.9477 10.0925 15.5 10.5402 15.5 11.0925C15.5 11.6448 15.9477 12.0925 16.5 12.0925Z" fill="black"/>
<path fill-rule="evenodd" clip-rule="evenodd" d="M11.1581 18.0669C11.1799 18.0596 11.2011 18.0521 11.2216 18.0442C11.7718 18.6859 12.5884 19.0925 13.5 19.0925H16.2246L18.5876 20.983C18.7377 21.103 18.9434 21.1264 19.1166 21.0432C19.2898 20.9599 19.4 20.7847 19.4 20.5925V19.0925H19.5C21.1569 19.0925 22.5 17.7494 22.5 16.0925C22.5 15.3114 22.2015 14.6001 21.7123 14.0663C22.2136 13.1894 22.5 12.1738 22.5 11.0925C22.5 7.77882 19.8137 5.09253 16.5 5.09253H8.5C5.18629 5.09253 2.5 7.77882 2.5 11.0925C2.5 14.0656 4.66208 16.5332 7.5 17.0095V18.5925C7.5 18.7533 7.57726 18.9042 7.70764 18.9981C7.83803 19.0921 8.00564 19.1177 8.15811 19.0669L11.1581 18.0669ZM8.5 6.09253C5.73858 6.09253 3.5 8.33111 3.5 11.0925C3.5 13.7005 5.497 15.8425 8.04488 16.0721C8.30879 16.0959 8.50625 16.3207 8.49988 16.5818L8.5 16.5925V17.8988L10.6978 17.1662C10.57 16.8328 10.5 16.4709 10.5 16.0925C10.5 14.4357 11.8431 13.0925 13.5 13.0925H19.5C20.0109 13.0925 20.4919 13.2202 20.913 13.4455C21.2876 12.7445 21.5 11.9439 21.5 11.0925C21.5 8.33111 19.2614 6.09253 16.5 6.09253H8.5ZM18.953 18.0953C18.9665 18.0935 18.9821 18.0925 19 18.0925H19.5C20.6046 18.0925 21.5 17.1971 21.5 16.0925C21.5 14.988 20.6046 14.0925 19.5 14.0925H13.5C12.3954 14.0925 11.5 14.988 11.5 16.0925C11.5 17.1971 12.3954 18.0925 13.5 18.0925H16.4C16.5197 18.0925 16.6296 18.1346 16.7157 18.2048L18.4 19.5522V18.5925C18.4 18.3164 18.6239 18.0925 18.9 18.0925C18.9179 18.0925 18.9356 18.0935 18.953 18.0953Z" fill="black"/>
</svg>
