<svg width="25" height="25" viewBox="0 0 25 25" fill="none" xmlns="http://www.w3.org/2000/svg">
<path fill-rule="evenodd" clip-rule="evenodd" d="M7.78184 3.51644C7.48007 3.43884 7.16529 3.42517 6.85777 3.47656C6.56136 3.5261 6.27769 3.63473 6.02395 3.79679L4.64671 4.48191C4.62753 4.49145 4.60899 4.50221 4.59119 4.51413C4.1851 4.78607 3.85762 5.15998 3.64145 5.59816C3.42603 6.03483 3.32862 6.52017 3.35892 7.00613C3.39038 7.71095 3.48382 8.41146 3.63816 9.09988C3.64106 9.11282 3.64448 9.12564 3.6484 9.13831C4.50984 11.922 6.03856 14.4533 8.10151 16.5114C10.1645 18.5695 12.6991 20.0919 15.4849 20.9467C15.4974 20.9505 15.5102 20.9539 15.523 20.9567C16.2107 21.1097 16.9104 21.2033 17.6142 21.2361C17.622 21.2364 17.6297 21.2366 17.6375 21.2366H17.7851L17.7865 21.2366C18.2468 21.2354 18.7001 21.1201 19.1052 20.9C19.5102 20.6801 19.854 20.3628 20.1058 19.9772C20.1179 19.9587 20.1287 19.9394 20.1383 19.9195L20.8079 18.5189C20.961 18.2674 21.063 17.9882 21.1077 17.6967C21.154 17.3953 21.138 17.0879 21.0608 16.7929C20.9837 16.4982 20.8469 16.2217 20.6588 15.9814C20.4707 15.7412 20.2355 15.5424 19.9678 15.3967C19.9179 15.3696 19.8645 15.3515 19.81 15.3426L16.6236 13.7025L16.6212 13.7013C16.1597 13.4669 15.631 13.3993 15.1251 13.511C14.6192 13.6227 14.1675 13.9074 13.8477 14.3143L13.2262 15.1074C12.4798 14.649 11.794 14.0975 11.1851 13.4662L11.1755 13.4568C10.5351 12.8277 9.97672 12.1214 9.51295 11.3543L10.3082 10.7312L10.3127 10.7275C10.7145 10.4051 10.9939 9.95482 11.1049 9.45206C11.216 8.94915 11.152 8.42344 10.9234 7.96192L9.20298 4.64175L9.20148 4.6389C9.05643 4.36334 8.8552 4.1206 8.61047 3.92711C8.36576 3.73364 8.08344 3.59399 7.78184 3.51644ZM19.5001 16.3077C19.5348 16.3256 19.5711 16.3392 19.6082 16.3484C19.7076 16.418 19.7964 16.502 19.8714 16.5979C19.9751 16.7302 20.0507 16.883 20.0934 17.0461C20.136 17.209 20.1448 17.3786 20.1193 17.545C20.0938 17.7113 20.0345 17.8705 19.9449 18.0132C19.9348 18.0294 19.9255 18.0461 19.9173 18.0633L19.2513 19.4563C19.0917 19.6917 18.8779 19.8855 18.6279 20.0213C18.3692 20.1618 18.0787 20.2357 17.7837 20.2366L17.6493 20.2366C17.0134 20.2063 16.3811 20.122 15.7593 19.9848C13.1367 19.1767 10.7507 17.7417 8.80778 15.8034C6.86493 13.8652 5.42397 11.4823 4.60962 8.86176C4.47037 8.23539 4.38619 7.5982 4.35783 6.95715L4.3572 6.94721C4.3371 6.63435 4.39953 6.32178 4.53826 6.04058C4.67254 5.76838 4.87372 5.5349 5.12267 5.36204L6.49479 4.67947C6.51289 4.67047 6.53043 4.66037 6.54731 4.64924C6.69063 4.55475 6.85247 4.49132 7.02262 4.46288C7.19225 4.43453 7.36604 4.44205 7.53279 4.48493C7.69972 4.52785 7.85551 4.60502 7.99029 4.71157C8.12467 4.81781 8.23565 4.95138 8.31589 5.10336L10.0291 8.40947C10.155 8.66588 10.19 8.95744 10.1284 9.23644C10.0667 9.51607 9.91157 9.76645 9.68888 9.94597L8.55449 10.8349C8.3614 10.9862 8.3066 11.2552 8.4251 11.47C8.97283 12.4628 9.66162 13.3705 10.4699 14.1655C11.2446 14.9676 12.1328 15.6519 13.1063 16.1961C13.3214 16.3163 13.5919 16.2619 13.7439 16.068L14.6347 14.9312C14.8119 14.7061 15.0615 14.5492 15.3407 14.4875C15.6197 14.4259 15.9118 14.4629 16.1672 14.5923L16.1683 14.5929L19.5001 16.3077Z" fill="black"/>
<path d="M19.4 9.6225C19.1238 9.6225 18.9 9.39864 18.9 9.1225L18.9 6.39958L14.3535 10.9461C14.1582 11.1413 13.8416 11.1413 13.6464 10.9461C13.4511 10.7508 13.4511 10.4342 13.6464 10.2389L18.2628 5.6225L15.4 5.6225C15.1238 5.6225 14.9 5.39864 14.9 5.1225C14.9 4.84635 15.1238 4.6225 15.4 4.6225L19.4 4.6225C19.6761 4.6225 19.9 4.84635 19.9 5.1225V9.1225C19.9 9.39864 19.6761 9.6225 19.4 9.6225Z" fill="black"/>
</svg>
