<svg width="25" height="24" viewBox="0 0 25 24" fill="none" xmlns="http://www.w3.org/2000/svg">
<path d="M13.0004 9C13.0004 8.72386 12.7765 8.5 12.5004 8.5C12.2243 8.5 12.0004 8.72386 12.0004 9V11.5H9.5004C9.22425 11.5 9.0004 11.7239 9.0004 12C9.0004 12.2761 9.22425 12.5 9.5004 12.5H12.0004V15C12.0004 15.2761 12.2243 15.5 12.5004 15.5C12.7765 15.5 13.0004 15.2761 13.0004 15V12.5H15.5004C15.7765 12.5 16.0004 12.2761 16.0004 12C16.0004 11.7239 15.7765 11.5 15.5004 11.5H13.0004V9Z" fill="black"/>
<path fill-rule="evenodd" clip-rule="evenodd" d="M12.5002 2.98992C12.4424 2.96927 12.3799 2.95899 12.3148 2.96124C10.7313 3.0161 9.34739 3.69269 8.2807 4.80599C7.36725 5.74699 6.81004 7.07969 6.59907 8.33447C6.59682 8.34786 6.59512 8.36133 6.59396 8.37486L6.50175 9.45529L6.50068 9.4705L6.49738 9.5309C6.49438 9.58296 6.48955 9.66026 6.48257 9.75571C6.46849 9.94806 6.4457 10.214 6.41097 10.5082C6.33748 11.1307 6.22334 11.7593 6.07508 12.1211C5.94352 12.4421 5.71205 12.8214 5.38715 13.3497C5.31394 13.4688 5.23679 13.5942 5.15692 13.7256C4.74724 14.3997 4.27722 15.2164 3.94895 16.1428C3.92424 16.2126 3.89823 16.2829 3.87083 16.3567C3.87083 16.3567 3.87083 16.3567 3.87083 16.3567C3.86692 16.3672 3.86297 16.3778 3.859 16.3885L3.84991 16.4129C3.69003 16.8424 3.4914 17.376 3.50029 18.0145C3.5079 18.5613 3.95333 19.0006 4.50019 19.0006H9.14567C9.57624 20.4459 10.9147 21.5 12.5004 21.5C14.0861 21.5 15.4246 20.4459 15.8551 19.0006H20.5002C21.0471 19.0006 21.4925 18.5613 21.5001 18.0145C21.509 17.3757 21.3102 16.8419 21.1502 16.412L21.1411 16.3876C21.1094 16.3024 21.0796 16.2222 21.0514 16.1426C20.7307 15.2383 20.2908 14.4297 19.8869 13.7448C19.7482 13.5095 19.6156 13.2916 19.4931 13.0902L19.4925 13.0891C19.2438 12.6804 19.0436 12.3506 18.8948 12.0531C18.7467 11.7569 18.6563 11.1943 18.6266 10.5774C18.6232 10.5057 18.6048 10.4383 18.5747 10.378C18.5481 10.136 18.5299 9.91924 18.5179 9.75571C18.5109 9.66035 18.5061 9.58296 18.5031 9.5309L18.4998 9.4705L18.4987 9.45529L18.4065 8.37486C18.4056 8.36471 18.4045 8.3546 18.403 8.34453C18.4027 8.34285 18.4025 8.34117 18.4022 8.3395C18.4019 8.33782 18.4017 8.33614 18.4014 8.33447C18.1904 7.07972 17.6332 5.74706 16.7198 4.80606C15.6531 3.69273 14.2692 3.0161 12.6857 2.96124C12.6206 2.95899 12.558 2.96927 12.5002 2.98992ZM10.2085 19.0006C10.5945 19.8834 11.4759 20.5 12.5004 20.5C13.5249 20.5 14.4063 19.8834 14.7923 19.0006H10.2085ZM17.6358 10.7696C17.616 10.7249 17.6024 10.6765 17.5964 10.6254C17.5595 10.313 17.5354 10.0318 17.5206 9.82869C17.5131 9.72714 17.508 9.64512 17.5047 9.58849L17.5047 9.587L17.5017 9.53272L17.4119 8.48057C17.223 7.37789 16.7358 6.2577 16.0013 5.50153L15.9988 5.49897C15.0972 4.55752 13.9537 4.00577 12.651 3.96064C12.5982 3.95881 12.5475 3.94884 12.5002 3.93197C12.4529 3.94884 12.4023 3.95881 12.3494 3.96064C11.0467 4.00577 9.90322 4.55752 9.00167 5.49897L8.99918 5.50153C8.26464 6.2577 7.77749 7.37789 7.58857 8.48057L7.49878 9.53272L7.49581 9.587L7.49572 9.58849C7.49246 9.64512 7.48733 9.72714 7.4799 9.82869C7.46504 10.0318 7.44096 10.313 7.40407 10.6254C7.33033 11.2501 7.20534 12.0002 7.0004 12.5003C6.83435 12.9055 6.55904 13.3531 6.25737 13.8436L6.23898 13.8735C6.16559 13.9929 6.08977 14.1162 6.01147 14.245C5.60856 14.9079 5.18377 15.6521 4.89153 16.4768C4.86054 16.5643 4.82797 16.6518 4.79695 16.7352L4.79624 16.7371C4.62891 17.1869 4.49409 17.5625 4.50019 18.0006L20.5002 18.0006C20.5063 17.5622 20.3714 17.1865 20.2039 16.7363L20.2032 16.7344L20.2028 16.7334C20.172 16.6506 20.1396 16.5636 20.1089 16.4768C19.8201 15.6624 19.4179 14.9182 19.0255 14.2527C18.8906 14.0238 18.7612 13.8111 18.6381 13.6089L18.6301 13.5957C18.3911 13.2027 18.1697 12.8388 18.0004 12.5003C17.7693 12.038 17.6728 11.3622 17.6358 10.7696Z" fill="black"/>
</svg>
