<svg width="25" height="24" viewBox="0 0 25 24" fill="none" xmlns="http://www.w3.org/2000/svg">
<path d="M12.5 14.5C13.0523 14.5 13.5 14.0523 13.5 13.5V10C13.5 9.44772 13.0523 9 12.5 9C11.9477 9 11.5 9.44772 11.5 10V13.5C11.5 14.0523 11.9477 14.5 12.5 14.5Z" fill="black"/>
<path d="M12.5 18C13.0523 18 13.5 17.5523 13.5 17C13.5 16.4477 13.0523 16 12.5 16C11.9477 16 11.5 16.4477 11.5 17C11.5 17.5523 11.9477 18 12.5 18Z" fill="black"/>
<path fill-rule="evenodd" clip-rule="evenodd" d="M11.854 3.17193C12.0507 3.05928 12.2734 3 12.5 3C12.7266 3 12.9493 3.05927 13.146 3.17193C13.3427 3.2846 13.5064 3.44673 13.6211 3.64219L13.6252 3.64928L22.3319 19.0684C22.4427 19.2637 22.5007 19.4848 22.5 19.7093C22.4993 19.9339 22.4399 20.1545 22.3278 20.3492C22.2156 20.5439 22.0546 20.7059 21.8606 20.8192C21.6666 20.9325 21.4463 20.9931 21.2217 20.9951L21.2173 20.9952H3.77831C3.55365 20.9932 3.33342 20.9325 3.13942 20.8192C2.9454 20.7059 2.78438 20.5439 2.67225 20.3492C2.56012 20.1546 2.50073 19.934 2.50001 19.7093C2.49928 19.4848 2.55716 19.2641 2.66787 19.0688L11.3748 3.64931L11.8102 3.89516L11.3789 3.64219C11.4936 3.44668 11.6574 3.28457 11.854 3.17193ZM12.2431 4.14545L3.53835 19.561L3.53782 19.562C3.51287 19.6059 3.49984 19.6556 3.5 19.7061C3.50016 19.7566 3.51352 19.8062 3.53875 19.85C3.56398 19.8938 3.60017 19.9302 3.64373 19.9557C3.68683 19.9808 3.73568 19.9944 3.78555 19.9952H21.2145C21.2643 19.9944 21.3132 19.9808 21.3563 19.9557C21.3999 19.9302 21.4361 19.8938 21.4613 19.85C21.4865 19.8063 21.4998 19.7567 21.5 19.7061C21.5002 19.6556 21.4871 19.6059 21.4622 19.562L21.4616 19.561L12.7569 4.14545C12.7305 4.10151 12.6933 4.06508 12.6489 4.03963C12.6036 4.01366 12.5522 4 12.5 4C12.4478 4 12.3965 4.01365 12.3511 4.03963C12.3066 4.06511 12.2695 4.10155 12.2431 4.14545Z" fill="black"/>
</svg>
