<svg width="25" height="24" viewBox="0 0 25 24" fill="none" xmlns="http://www.w3.org/2000/svg">
<path fill-rule="evenodd" clip-rule="evenodd" d="M11.854 3.17193C12.0507 3.05928 12.2734 3 12.5 3C12.7266 3 12.9493 3.05927 13.146 3.17193C13.3427 3.2846 13.5064 3.44673 13.6211 3.64219L13.6252 3.64928L22.3319 19.0684C22.4427 19.2637 22.5007 19.4848 22.5 19.7093C22.4993 19.9339 22.4399 20.1545 22.3278 20.3492C22.2156 20.5439 22.0546 20.7059 21.8606 20.8192C21.6666 20.9325 21.4463 20.9931 21.2217 20.9951L21.2173 20.9952H3.77831C3.55365 20.9932 3.33342 20.9325 3.13942 20.8192C2.9454 20.7059 2.78438 20.5439 2.67225 20.3492C2.56012 20.1546 2.50073 19.934 2.50001 19.7093C2.49928 19.4848 2.55716 19.2641 2.66787 19.0688L11.3748 3.64931L11.3789 3.64219C11.4936 3.44668 11.6574 3.28457 11.854 3.17193ZM12.5 9C13.0523 9 13.5 9.44772 13.5 10V13.5C13.5 14.0523 13.0523 14.5 12.5 14.5C11.9477 14.5 11.5 14.0523 11.5 13.5V10C11.5 9.44772 11.9477 9 12.5 9ZM13.5 17C13.5 17.5523 13.0523 18 12.5 18C11.9477 18 11.5 17.5523 11.5 17C11.5 16.4477 11.9477 16 12.5 16C13.0523 16 13.5 16.4477 13.5 17Z" fill="black"/>
</svg>
