<svg width="25" height="24" viewBox="0 0 25 24" fill="none" xmlns="http://www.w3.org/2000/svg">
<path d="M12.3687 4.45999C13.6279 4.41223 14.79 4.94968 15.657 5.84764C15.8488 6.0463 16.1653 6.05186 16.364 5.86006C16.5627 5.66825 16.5682 5.35172 16.3764 5.15306C15.3391 4.07867 13.9115 3.40102 12.3317 3.46067C10.8987 3.51032 9.54168 4.11765 8.54992 5.15322C7.4943 6.23969 6.90562 7.69606 6.90979 9.21093L6.90978 9.21551L6.9097 9.23337L6.90903 9.30449C6.90825 9.36678 6.9067 9.45755 6.90358 9.56984C6.89733 9.79475 6.88482 10.1043 6.85991 10.4436C6.8083 11.1462 6.70824 11.8934 6.53734 12.3104C6.39322 12.6621 6.14379 13.0736 5.82968 13.584L5.79955 13.633C5.50099 14.118 5.15985 14.6722 4.86 15.2783C4.77574 15.4486 4.69434 15.6238 4.61756 15.8038C4.5092 16.0578 4.62726 16.3515 4.88126 16.4599C5.13525 16.5683 5.429 16.4502 5.53735 16.1962C5.60596 16.0354 5.67938 15.8773 5.75633 15.7217C6.03531 15.1577 6.35523 14.638 6.65845 14.1453L6.68133 14.1081C6.98275 13.6184 7.28125 13.1323 7.46266 12.6896C7.70155 12.1066 7.80638 11.209 7.85722 10.5168C7.88353 10.1586 7.89664 9.83327 7.90319 9.59763C7.90647 9.47964 7.90812 9.38371 7.90895 9.31688C7.90903 9.31062 7.9091 9.3046 7.90916 9.29885C7.90944 9.27393 7.90959 9.25391 7.90968 9.23925L7.90977 9.21838L7.90979 9.21112L7.90979 9.2089C7.90614 7.95441 8.39377 6.74834 9.26828 5.8489L9.27103 5.84606C10.0827 4.9979 11.1937 4.50051 12.367 4.46005L12.3687 4.45999Z" fill="black"/>
<path fill-rule="evenodd" clip-rule="evenodd" d="M17.6183 9.50002C17.3422 9.49814 17.1168 9.72047 17.1149 9.99661C17.1126 10.3376 17.1234 10.8137 17.1807 11.2986C17.2368 11.7736 17.3423 12.3027 17.5528 12.7236C17.7314 13.0809 17.9797 13.4893 18.239 13.9159C18.3571 14.11 18.4774 14.3079 18.5944 14.5064C18.9812 15.1623 19.3644 15.8742 19.6372 16.6437C19.6776 16.7576 19.7154 16.8607 19.7501 16.9554C19.8283 17.1689 19.8912 17.3404 19.9343 17.5003H15.5188C15.5126 17.5001 15.5063 17.5 15.5 17.5C15.4937 17.5 15.4874 17.5001 15.4812 17.5003H10.5188C10.5188 17.5003 9.5 17.4931 9.50692 17.5L9.5 17.5C9.22387 17.5 9 17.7239 9 18L9 18.0023C9.00122 19.9342 10.5678 21.5 12.5 21.5C14.2631 21.5 15.7217 20.1963 15.9645 18.5003H20.4998C20.7732 18.5003 20.9959 18.2807 20.9997 18.0073C21.0073 17.4626 20.8366 17.0038 20.6721 16.5617C20.6406 16.4772 20.6094 16.3932 20.5797 16.3095C20.275 15.4501 19.8539 14.6737 19.4558 13.9985C19.3189 13.7662 19.1877 13.5506 19.0649 13.3487C18.8195 12.9454 18.6072 12.5963 18.4472 12.2764C18.3149 12.0117 18.2256 11.6201 18.1738 11.1813C18.1231 10.7523 18.1127 10.3212 18.1149 10.0034C18.1168 9.72728 17.8944 9.5019 17.6183 9.50002ZM12.5 20.5C13.7094 20.5 14.7182 19.6413 14.9499 18.5003H10.0501C10.2818 19.6413 11.2906 20.5 12.5 20.5Z" fill="black"/>
<path d="M20.8536 3.64645C20.6583 3.45118 20.3417 3.45118 20.1464 3.64645L4.14645 19.6464C3.95118 19.8417 3.95118 20.1583 4.14645 20.3536C4.34171 20.5488 4.65829 20.5488 4.85355 20.3536L20.8536 4.35355C21.0488 4.15829 21.0488 3.84171 20.8536 3.64645Z" fill="black"/>
</svg>
