<svg width="25" height="24" viewBox="0 0 25 24" fill="none" xmlns="http://www.w3.org/2000/svg">
<path d="M4.39561 14.6567C4.51319 14.4069 4.81106 14.2996 5.06092 14.4172L6.79974 15.2355C7.0496 15.3531 7.15683 15.6509 7.03925 15.9008C6.92167 16.1506 6.6238 16.2579 6.37394 16.1403L4.63512 15.322C4.38526 15.2045 4.27803 14.9066 4.39561 14.6567Z" fill="black"/>
<path fill-rule="evenodd" clip-rule="evenodd" d="M11.7129 3.04759C11.5781 2.98414 11.4219 2.98414 11.2871 3.04759L2.79722 7.04283C2.75771 7.06038 2.7209 7.0829 2.68758 7.1096C2.57323 7.20123 2.5 7.34206 2.5 7.5V17.5C2.5 17.6937 2.61186 17.8699 2.7871 17.9524L11.2871 21.9524C11.4219 22.0159 11.5781 22.0159 11.7129 21.9524L14.0467 20.8541C14.2966 20.7365 14.4038 20.4387 14.2863 20.1888C14.1687 19.939 13.8708 19.8317 13.6209 19.9493L12 20.7121V11.8173L15.5001 10.1702V11.5C15.5001 11.7761 15.724 12 16.0001 12C16.2763 12 16.5001 11.7761 16.5001 11.5V9.6996L19.5 8.28789V12.5C19.5 12.7761 19.7239 13 20 13C20.2761 13 20.5 12.7761 20.5 12.5V7.5C20.5 7.37895 20.4563 7.2647 20.3808 7.17591C20.3561 7.14696 20.3281 7.12072 20.2971 7.09783C20.2679 7.07624 20.2363 7.05773 20.2028 7.04283L11.7129 3.04759ZM15.8855 8.88365L18.8257 7.5L11.5 4.0526L8.78173 5.33178L15.8855 8.88365ZM7.65503 5.862L4.17427 7.5L11.5 10.9474L14.7336 9.42573L7.7765 5.9472C7.73083 5.92436 7.69017 5.89548 7.65503 5.862ZM11 11.8173L3.5 8.28789V17.1827L11 20.7121V11.8173Z" fill="black"/>
<path fill-rule="evenodd" clip-rule="evenodd" d="M13.5 17.5C13.5 17.2239 13.7239 17 14 17H14.5354C14.7547 15.4672 15.9672 14.2547 17.5 14.0354V13.5C17.5 13.2239 17.7239 13 18 13C18.2761 13 18.5 13.2239 18.5 13.5V14.0354C20.0328 14.2547 21.2453 15.4672 21.4646 17H22.25C22.5261 17 22.75 17.2239 22.75 17.5C22.75 17.7761 22.5261 18 22.25 18H21.4646C21.2453 19.5328 20.0328 20.7453 18.5 20.9646V21.75C18.5 22.0261 18.2761 22.25 18 22.25C17.7239 22.25 17.5 22.0261 17.5 21.75V20.9646C15.9672 20.7453 14.7547 19.5328 14.5354 18H14C13.7239 18 13.5 17.7761 13.5 17.5ZM18.5 19.95C19.4796 19.7512 20.2512 18.9796 20.45 18H18.5V19.95ZM17.5 19.95C16.5204 19.7512 15.7488 18.9796 15.55 18H17.5V19.95ZM20.45 17C20.2512 16.0204 19.4796 15.2488 18.5 15.05V17H20.45ZM15.55 17C15.7488 16.0204 16.5204 15.2488 17.5 15.05V17H15.55Z" fill="black"/>
</svg>
