<svg width="25" height="24" viewBox="0 0 25 24" fill="none" xmlns="http://www.w3.org/2000/svg">
<path fill-rule="evenodd" clip-rule="evenodd" d="M12.5 3.99121C12.3515 3.99121 12.207 4.03909 12.0879 4.12774C11.9688 4.21639 11.8815 4.34108 11.8389 4.4833L11.8371 4.48933L10.6486 8.2844C10.5473 8.63098 10.3375 8.93604 10.0501 9.15479C9.76104 9.37478 9.40879 9.49578 9.04556 9.49986L9.03995 9.49992L5.20562 9.49989C5.04706 9.504 4.89372 9.55763 4.76712 9.6533C4.63935 9.74986 4.54535 9.88431 4.49853 10.0375C4.45171 10.1906 4.45448 10.3547 4.50642 10.5062C4.55837 10.6576 4.65685 10.7889 4.7878 10.8811L4.79924 10.8891L7.87755 13.1881C7.87786 13.1883 7.87817 13.1886 7.87848 13.1888C8.175 13.4087 8.39582 13.7154 8.51032 14.0664C8.62487 14.4175 8.62737 14.7956 8.51747 15.1481C8.51739 15.1484 8.51755 15.1479 8.51747 15.1481L7.32776 19.0072L7.3225 19.0233C7.27284 19.1669 7.26989 19.3225 7.31408 19.4679C7.35826 19.6133 7.44732 19.741 7.56849 19.8327C7.68966 19.9244 7.83674 19.9754 7.98867 19.9784C8.13692 19.9814 8.28236 19.9385 8.40519 19.8558L11.4961 17.4628C11.7857 17.2412 12.1402 17.1211 12.505 17.1211C12.8693 17.1211 13.2235 17.2409 13.5129 17.4621C13.5132 17.4624 13.5135 17.4626 13.5138 17.4628L16.6057 19.8066C16.7281 19.8926 16.8745 19.9377 17.0242 19.9354C17.1758 19.9332 17.3228 19.8824 17.4435 19.7905C17.5642 19.6987 17.6523 19.5706 17.695 19.425C17.7376 19.2795 17.7325 19.1241 17.6804 18.9816C17.6775 18.9738 17.6748 18.9658 17.6723 18.9578L16.4923 15.1478C16.3847 14.7996 16.3871 14.4264 16.4994 14.0797C16.6114 13.7335 16.8274 13.4304 17.118 13.2114C17.1185 13.211 17.1189 13.2107 17.1194 13.2103L20.1966 10.8624C20.3204 10.768 20.4121 10.6378 20.4595 10.4896C20.5069 10.3413 20.5076 10.1821 20.4615 10.0334C20.4155 9.8847 20.3249 9.75374 20.202 9.65821C20.082 9.56497 19.937 9.50987 19.7856 9.49989H15.9567C15.5943 9.49752 15.2421 9.3794 14.9516 9.16278C14.6614 8.94639 14.4479 8.64302 14.342 8.29685C14.3419 8.29647 14.3418 8.29609 14.3417 8.29571L13.1609 4.48331C13.1184 4.34109 13.0311 4.21639 12.912 4.12774C12.7929 4.03909 12.6484 3.99121 12.5 3.99121ZM11.4908 3.32561C11.7824 3.10848 12.1363 2.99121 12.5 2.99121C12.8636 2.99121 13.2175 3.10848 13.5091 3.32561C13.8001 3.54224 14.0137 3.84673 14.1182 4.19406L15.2982 8.00407C15.3417 8.1468 15.4297 8.2719 15.5494 8.36109C15.6686 8.45002 15.8131 8.49862 15.9618 8.49989H19.8C19.8085 8.49989 19.817 8.50011 19.8255 8.50054C20.1855 8.51897 20.5311 8.64748 20.8157 8.8687C21.1003 9.08993 21.3101 9.3932 21.4168 9.73752C21.5234 10.0818 21.5218 10.4506 21.412 10.794C21.3023 11.1373 21.0898 11.4387 20.8033 11.6574L17.7205 14.0095C17.5938 14.1048 17.4996 14.2369 17.4508 14.3877C17.4019 14.5385 17.4008 14.7008 17.4477 14.8522L18.6242 18.651C18.7453 18.9905 18.756 19.3599 18.6547 19.7061C18.552 20.0567 18.3397 20.3652 18.049 20.5864C17.7583 20.8076 17.4044 20.9299 17.0391 20.9353C16.6738 20.9408 16.3164 20.8291 16.0192 20.6167L16.0078 20.6085L12.9079 18.2583L12.9061 18.257C12.7909 18.1688 12.65 18.1211 12.505 18.1211C12.3603 18.1211 12.2197 18.1686 12.1047 18.2563C12.1044 18.2565 12.1041 18.2567 12.1038 18.257L9.00604 20.6553C8.99936 20.6604 8.99254 20.6654 8.9856 20.6703C8.68766 20.8776 8.33175 20.9855 7.96881 20.9782C7.60587 20.971 7.25451 20.8492 6.96505 20.6301C6.67558 20.4111 6.46284 20.106 6.35729 19.7587C6.25262 19.4143 6.25866 19.0458 6.37443 18.7052L7.56214 14.8526L7.56267 14.8509C7.61093 14.6963 7.60987 14.5305 7.55964 14.3766C7.50941 14.2226 7.4125 14.0881 7.28236 13.9917L7.28079 13.9905L4.20593 11.6944C3.90575 11.4811 3.67998 11.179 3.56049 10.8305C3.44019 10.4797 3.43379 10.0998 3.54221 9.74514C3.65063 9.39046 3.86832 9.0791 4.16421 8.85549C4.46011 8.63188 4.81908 8.50746 5.18988 8.49999L5.19995 8.49979L9.03677 8.49989C9.18421 8.49772 9.32711 8.44837 9.44448 8.35904C9.5625 8.26922 9.64844 8.14376 9.68955 8.00127L9.69268 7.99043L10.8819 4.19321C10.9866 3.84623 11.2 3.54206 11.4908 3.32561Z" fill="black"/>
</svg>
