<svg width="25" height="24" viewBox="0 0 25 24" fill="none" xmlns="http://www.w3.org/2000/svg">
<path fill-rule="evenodd" clip-rule="evenodd" d="M2.5 7.5C2.5 6.11929 3.61929 5 5 5H20C21.3807 5 22.5 6.11929 22.5 7.5V16.5C22.5 17.8807 21.3807 19 20 19H5C3.61929 19 2.5 17.8807 2.5 16.5V7.5ZM5 6C4.17157 6 3.5 6.67157 3.5 7.5V11H8.05001C8.01722 10.8384 8 10.6712 8 10.5C8 9.11929 9.11929 8 10.5 8C11.0628 8 11.5822 8.18597 12 8.49982V6H5ZM5 18C4.17157 18 3.5 17.3284 3.5 16.5V12H8.49982C8.95592 12.6072 9.68209 13 10.5 13C10.7551 13 11.0012 12.9618 11.233 12.8908C10.6677 13.7751 10.0907 14.2831 9.62343 14.5764C9.27325 14.7963 8.97508 14.9018 8.77369 14.9526C8.67273 14.978 8.59562 14.9899 8.54803 14.9953C8.52424 14.9981 8.50785 14.9992 8.49959 14.9997L8.49417 14.9999C8.22071 15.003 8 15.2257 8 15.4999C8 15.776 8.22386 15.9999 8.5 15.9999V15.4999C8.5 15.9999 8.50133 15.9999 8.50176 15.9999L8.50374 15.9999L8.50838 15.9998L8.5203 15.9996C8.52941 15.9993 8.54083 15.9989 8.55447 15.9982C8.58174 15.9967 8.6179 15.9939 8.66213 15.9888C8.75058 15.9787 8.87147 15.9592 9.01828 15.9222C9.31242 15.848 9.70889 15.7035 10.1551 15.4234C10.7355 15.059 11.3846 14.4751 12 13.5455V18H5ZM21.5 16.5C21.5 17.3284 20.8284 18 20 18H13V13.5455C13.6154 14.4751 14.2645 15.059 14.8449 15.4234C15.2911 15.7035 15.6876 15.848 15.9817 15.9222C16.1285 15.9592 16.2494 15.9787 16.3379 15.9888C16.3821 15.9939 16.4183 15.9967 16.4455 15.9982C16.4592 15.9989 16.4706 15.9993 16.4797 15.9996L16.4916 15.9998L16.4963 15.9999L16.4983 15.9999L16.5 15.9999C16.5004 15.9998 16.5 15.9943 16.5 15.4999V15.9999C16.7762 15.9999 17 15.776 17 15.4999C17 15.2257 16.7793 15.003 16.5058 14.9999L16.5004 14.9997C16.4922 14.9992 16.4758 14.9981 16.452 14.9953C16.4044 14.9899 16.3273 14.978 16.2263 14.9526C16.0249 14.9018 15.7268 14.7963 15.3766 14.5764C14.9093 14.2831 14.3323 13.7751 13.767 12.8908C13.9988 12.9618 14.2449 13 14.5 13C15.3179 13 16.0441 12.6072 16.5002 12H21.5V16.5ZM20 6C20.8284 6 21.5 6.67157 21.5 7.5V11H16.95C16.9828 10.8384 17 10.6712 17 10.5C17 9.11929 15.8807 8 14.5 8C13.9372 8 13.4178 8.18597 13 8.49982V6H20ZM12 10.5C12 9.67157 11.3284 9 10.5 9C9.67157 9 9 9.67157 9 10.5C9 11.3284 9.67157 12 10.5 12C11.3284 12 12 11.3284 12 10.5ZM13 10.5C13 11.3284 13.6716 12 14.5 12C15.3284 12 16 11.3284 16 10.5C16 9.67157 15.3284 9 14.5 9C13.6716 9 13 9.67157 13 10.5Z" fill="black"/>
</svg>
