<svg width="25" height="24" viewBox="0 0 25 24" fill="none" xmlns="http://www.w3.org/2000/svg">
<path d="M9.5 9.5H10.5V11.5H9.5V9.5Z" fill="black"/>
<path d="M10.5 12.5H9.5V14.5H10.5V12.5Z" fill="black"/>
<path fill-rule="evenodd" clip-rule="evenodd" d="M2.5 6C2.5 5.72386 2.72386 5.5 3 5.5H22C22.2761 5.5 22.5 5.72386 22.5 6V9C22.5 9.27614 22.2761 9.5 22 9.5C21.337 9.5 20.7011 9.76339 20.2322 10.2322C19.7634 10.7011 19.5 11.337 19.5 12C19.5 12.663 19.7634 13.2989 20.2322 13.7678C20.7011 14.2366 21.337 14.5 22 14.5C22.2761 14.5 22.5 14.7239 22.5 15V18C22.5 18.2761 22.2761 18.5 22 18.5H3C2.72386 18.5 2.5 18.2761 2.5 18V15C2.5 14.7239 2.72386 14.5 3 14.5C3.66304 14.5 4.29893 14.2366 4.76777 13.7678C5.23661 13.2989 5.5 12.663 5.5 12C5.5 11.337 5.23661 10.7011 4.76777 10.2322C4.29893 9.76339 3.66304 9.5 3 9.5C2.72386 9.5 2.5 9.27614 2.5 9V6ZM19.5251 9.52513C20.0625 8.98776 20.7566 8.64317 21.5 8.53588V6.5H10.5V8.5H9.5V6.5H3.5V8.53588C4.24339 8.64317 4.93751 8.98776 5.47487 9.52513C6.13125 10.1815 6.5 11.0717 6.5 12C6.5 12.9283 6.13125 13.8185 5.47487 14.4749C4.93751 15.0122 4.24339 15.3568 3.5 15.4641V17.5H9.5V15.5H10.5V17.5H21.5V15.4641C20.7566 15.3568 20.0625 15.0122 19.5251 14.4749C18.8687 13.8185 18.5 12.9283 18.5 12C18.5 11.0717 18.8687 10.1815 19.5251 9.52513Z" fill="black"/>
</svg>
