<svg width="25" height="24" viewBox="0 0 25 24" fill="none" xmlns="http://www.w3.org/2000/svg">
<path fill-rule="evenodd" clip-rule="evenodd" d="M20.4381 1.27819C20.3666 1.13384 20.23 1.03274 20.0711 1.00662C19.9121 0.980504 19.7503 1.03256 19.6364 1.14645L17.6364 3.14645C17.5427 3.24022 17.49 3.3674 17.49 3.50001V6.29289L13.2324 10.5505C12.7431 10.2038 12.1453 10 11.5 10C9.84315 10 8.5 11.3431 8.5 13C8.5 14.6569 9.84315 16 11.5 16C13.1569 16 14.5 14.6569 14.5 13C14.5 12.3495 14.293 11.7474 13.9412 11.2559L15.0115 10.1856C15.6303 10.9565 16 11.9347 16 13C16 15.4853 13.9853 17.5 11.5 17.5C9.01472 17.5 7 15.4853 7 13C7 10.5147 9.01472 8.5 11.5 8.5C11.9712 8.5 12.4246 8.57225 12.8502 8.70593C13.1136 8.78867 13.3943 8.64218 13.477 8.37873C13.5598 8.11527 13.4133 7.83462 13.1498 7.75188C12.6284 7.5881 12.074 7.5 11.5 7.5C8.46243 7.5 6 9.96243 6 13C6 16.0376 8.46243 18.5 11.5 18.5C14.5376 18.5 17 16.0376 17 13C17 11.6589 16.5195 10.4293 15.7221 9.47503L16.7869 8.41023C16.7881 8.41183 16.7893 8.41342 16.7905 8.41501C16.7959 8.42188 16.8014 8.42866 16.8071 8.43533C17.8625 9.66117 18.5 11.2555 18.5 13C18.5 16.866 15.366 20 11.5 20C7.63401 20 4.5 16.866 4.5 13C4.5 9.13401 7.63401 6 11.5 6C12.4965 6 13.4431 6.20791 14.2998 6.58224C14.5529 6.6928 14.8476 6.5773 14.9582 6.32425C15.0687 6.07121 14.9532 5.77645 14.7002 5.66589C13.7196 5.23743 12.6368 5 11.5 5C7.08172 5 3.5 8.58172 3.5 13C3.5 17.4183 7.08172 21 11.5 21C15.9183 21 19.5 17.4183 19.5 13C19.5 11.0071 18.7706 9.18331 17.565 7.78288C17.5412 7.7553 17.5151 7.73095 17.4872 7.70987L18.2326 6.96445L20.9617 7.00993C21.0945 7.01215 21.2228 6.96137 21.3182 6.86882L23.3482 4.89882C23.4632 4.78718 23.5178 4.62716 23.4948 4.46851C23.4719 4.30986 23.3743 4.17182 23.2324 4.0973L21.3424 3.10505L20.4381 1.27819ZM12.5097 11.2732L11.1364 12.6464C10.9412 12.8417 10.9412 13.1583 11.1364 13.3536C11.3317 13.5488 11.6483 13.5488 11.8435 13.3536L13.2194 11.9777C13.3976 12.2769 13.5 12.6265 13.5 13C13.5 14.1046 12.6046 15 11.5 15C10.3954 15 9.5 14.1046 9.5 13C9.5 11.8954 10.3954 11 11.5 11C11.8683 11 12.2133 11.0995 12.5097 11.2732ZM18.49 5.25015L20.2133 3.56098L20.373 3.40077L19.8509 2.34617L18.49 3.70711V5.25015ZM20.7708 6.00661L19.2164 5.98071L21.0934 4.10374L22.1565 4.66187L20.7708 6.00661Z" fill="black"/>
</svg>
