<svg width="25" height="24" viewBox="0 0 25 24" fill="none" xmlns="http://www.w3.org/2000/svg">
<path d="M15.8841 13.3201C16.0609 13.108 16.0322 12.7927 15.8201 12.6159C15.608 12.4391 15.2927 12.4678 15.1159 12.6799L10.1159 18.6799C9.93911 18.892 9.96777 19.2073 10.1799 19.3841C10.392 19.5609 10.7073 19.5322 10.8841 19.3201L15.8841 13.3201Z" fill="black"/>
<path fill-rule="evenodd" clip-rule="evenodd" d="M13 18C13 17.1716 13.6716 16.5 14.5 16.5C15.3284 16.5 16 17.1716 16 18C16 18.8284 15.3284 19.5 14.5 19.5C13.6716 19.5 13 18.8284 13 18ZM14.5 17.5C14.2239 17.5 14 17.7239 14 18C14 18.2761 14.2239 18.5 14.5 18.5C14.7761 18.5 15 18.2761 15 18C15 17.7239 14.7761 17.5 14.5 17.5Z" fill="black"/>
<path fill-rule="evenodd" clip-rule="evenodd" d="M11.5 12.5C10.6716 12.5 10 13.1716 10 14C10 14.8284 10.6716 15.5 11.5 15.5C12.3284 15.5 13 14.8284 13 14C13 13.1716 12.3284 12.5 11.5 12.5ZM11 14C11 13.7239 11.2239 13.5 11.5 13.5C11.7761 13.5 12 13.7239 12 14C12 14.2761 11.7761 14.5 11.5 14.5C11.2239 14.5 11 14.2761 11 14Z" fill="black"/>
<path fill-rule="evenodd" clip-rule="evenodd" d="M9.64645 2.14645C9.84171 1.95118 10.1583 1.95118 10.3536 2.14645C10.8862 2.67913 11.2025 3.166 11.3275 3.644C11.4573 4.14049 11.3643 4.56312 11.2084 4.92098C11.1331 5.09375 11.042 5.25417 10.9576 5.39679C10.9308 5.44206 10.9053 5.48464 10.8806 5.52565C10.8231 5.62147 10.7707 5.70877 10.7196 5.80188C10.5793 6.05776 10.5 6.27098 10.5 6.49998L12.1 5.29999C12.6333 4.9 13.3667 4.9 13.9 5.29999L17.5 7.99995C18.1295 8.47208 18.5 9.21306 18.5 9.99996V20.4999C18.5 21.3283 17.8284 21.9999 17 21.9999H9C8.17157 21.9999 7.5 21.3283 7.5 20.4999V9.99996C7.5 9.21306 7.87049 8.47209 8.50001 7.99995L9.54437 7.21669C9.51425 6.98713 9.5 6.74735 9.5 6.5C9.5 6.02401 9.67074 5.63473 9.84287 5.32094C9.90391 5.20966 9.97189 5.09642 10.0332 4.99422C10.0556 4.95701 10.0772 4.92104 10.0971 4.88739C10.1767 4.75286 10.2419 4.63563 10.2916 4.52152C10.3857 4.30563 10.4177 4.11764 10.36 3.89694C10.2975 3.65775 10.1138 3.32087 9.64645 2.85355C9.45118 2.65829 9.45118 2.34171 9.64645 2.14645ZM9.10001 8.79995L9.82828 8.25376C9.97218 8.56791 10.1672 8.84194 10.4207 9.06379C10.6099 9.22928 10.8207 9.35652 11.0503 9.44784C11.2537 10.3368 12.0494 11 13 11C14.1046 11 15 10.1046 15 9C15 7.89543 14.1046 7 13 7C12.1272 7 11.3849 7.55911 11.1119 8.3387C11.1008 8.3297 11.0899 8.32053 11.0793 8.31121C10.9054 8.15905 10.7591 7.93637 10.657 7.63223L12.7 6.09999C12.8778 5.96666 13.1222 5.96666 13.3 6.09999L16.9 8.79995C17.2777 9.08323 17.5 9.52782 17.5 9.99996V20.4999C17.5 20.776 17.2761 20.9999 17 20.9999H9C8.72386 20.9999 8.5 20.776 8.5 20.4999V9.99996C8.5 9.52782 8.72229 9.08323 9.10001 8.79995ZM13 10C12.6835 10 12.4013 9.85294 12.2181 9.62342C12.5051 9.61052 12.8073 9.56357 13.1213 9.48507C13.3892 9.4181 13.552 9.14663 13.4851 8.87873C13.4181 8.61083 13.1466 8.44795 12.8787 8.51493C12.5707 8.59194 12.3033 8.62662 12.0716 8.62775C12.2192 8.25981 12.5793 8 13 8C13.5523 8 14 8.44772 14 9C14 9.55228 13.5523 10 13 10Z" fill="black"/>
</svg>
