<svg width="25" height="24" viewBox="0 0 25 24" fill="none" xmlns="http://www.w3.org/2000/svg">
<path fill-rule="evenodd" clip-rule="evenodd" d="M2.5 2.5C2.5 2.22386 2.72386 2 3 2H4.06292C4.7421 2.00396 5.40012 2.23676 5.9307 2.66079C6.45754 3.08183 6.82817 3.667 6.98376 4.32293L7.14501 4.87724L7.17153 5H22C22.2761 5 22.5 5.22386 22.5 5.5V10.5C22.5 10.5093 22.4997 10.5186 22.4992 10.5279C22.4601 11.2289 22.16 11.8898 21.6579 12.3806C21.164 12.8635 20.5098 13.1472 19.8206 13.1784L8.93034 14.9688L8.65137 15.7208L8.625 15.7634C8.54935 15.8855 8.50751 16.0255 8.50378 16.169C8.50005 16.3126 8.53456 16.4546 8.60378 16.5804C8.67299 16.7063 8.77442 16.8114 8.89766 16.8852C9.02026 16.9585 9.16006 16.9981 9.30288 17H21C21.2761 17 21.5 17.2239 21.5 17.5C21.5 17.7761 21.2761 18 21 18H9.29484C8.97393 17.9967 8.65967 17.9081 8.38427 17.7433C8.10887 17.5786 7.88222 17.3435 7.72756 17.0623C7.5729 16.7811 7.49578 16.4639 7.50412 16.1431C7.51199 15.8403 7.5957 15.5446 7.74721 15.283L8.1341 14.2401L7.69813 12.1749L6.17499 5.12276L6.01606 4.57647L6.01296 4.56309C5.91021 4.12056 5.66128 3.72559 5.3064 3.44197C4.95187 3.15864 4.51226 3.00296 4.05846 3H3C2.72386 3 2.5 2.77614 2.5 2.5ZM8.67607 11.966L9.09973 13.9276L19.6889 12.1866C19.7103 12.1831 19.7318 12.181 19.7535 12.1803C20.2055 12.1653 20.6355 11.9817 20.9589 11.6656C21.2791 11.3525 21.4718 10.9319 21.5 10.4852V6H7.41658L7.8388 8H19C19.2761 8 19.5 8.22386 19.5 8.5C19.5 8.77614 19.2761 9 19 9H8.04991L8.67607 11.966Z" fill="black"/>
<path d="M9 22C9.82843 22 10.5 21.3284 10.5 20.5C10.5 19.6716 9.82843 19 9 19C8.17157 19 7.5 19.6716 7.5 20.5C7.5 21.3284 8.17157 22 9 22Z" fill="black"/>
<path d="M20 22C20.8284 22 21.5 21.3284 21.5 20.5C21.5 19.6716 20.8284 19 20 19C19.1716 19 18.5 19.6716 18.5 20.5C18.5 21.3284 19.1716 22 20 22Z" fill="black"/>
</svg>
