<svg width="25" height="24" viewBox="0 0 25 24" fill="none" xmlns="http://www.w3.org/2000/svg">
<path fill-rule="evenodd" clip-rule="evenodd" d="M16.0001 7C15.724 7 15.5001 7.22386 15.5001 7.5V10.8086L7.76512 11.7755L7.49041 10.4019C7.46359 10.2679 7.38304 10.1506 7.26749 10.0775C7.15195 10.0044 7.0115 9.98177 6.87885 10.0149L2.87885 11.0149C2.61095 11.0819 2.44807 11.3534 2.51505 11.6213L3.51505 15.6213C3.57069 15.8439 3.77068 16 4.00012 16H6.19022L6.50983 17.5981C6.55658 17.8318 6.76178 18 7.00012 18H14.5707C15.4407 18.0321 16.3082 17.8892 17.1219 17.5796C19.2639 16.8273 20.5783 15.1996 21.3636 13.7293C22.1501 12.2569 22.4319 10.8962 22.4907 10.5964C22.5217 10.439 22.4752 10.2763 22.3658 10.159C22.2563 10.0417 22.0973 9.98397 21.9381 10.0039L19.464 10.3131C19.4515 10.282 19.4355 10.2517 19.4162 10.2227L17.4162 7.2227C17.3199 7.0783 17.1616 7.00013 17.0001 7H16.0001ZM18.3661 10.4504L16.7325 8H16.5001V10.6836L18.3661 10.4504ZM5.50983 12.5981L5.99022 15H4.39051L3.60646 11.8638L6.61267 11.1123L6.77019 11.8999L5.93811 12.0039C5.80023 12.0211 5.67575 12.0949 5.5945 12.2076C5.51326 12.3204 5.48258 12.4618 5.50983 12.5981ZM7.01074 15.0036L7.41003 17H14.5801C14.5865 17 14.5929 17.0001 14.5993 17.0004C15.3402 17.0289 16.0792 16.9073 16.7718 16.6429L16.7848 16.6379C18.6089 15.9992 19.7627 14.6039 20.4816 13.2582C20.5162 13.1935 20.5497 13.129 20.5821 13.0648L7.01074 15.0036ZM6.81432 14.0215L21.0526 11.9874C21.1794 11.6476 21.2752 11.3399 21.3459 11.0857L6.59591 12.9294L6.81432 14.0215Z" fill="black"/>
</svg>
