<svg width="25" height="24" viewBox="0 0 25 24" fill="none" xmlns="http://www.w3.org/2000/svg">
<path fill-rule="evenodd" clip-rule="evenodd" d="M9.2353 5.05884C9.04112 4.95528 8.80206 4.99085 8.64645 5.14646L7.64645 6.14646C7.48603 6.30688 7.45372 6.5552 7.56775 6.75132L9.8438 10.6661C8.89079 11.1073 7.94499 11.546 7.08695 11.946L4.24042 10.5512C4.05015 10.458 3.82178 10.4948 3.67045 10.6431L2.65004 11.6431C2.46259 11.8268 2.44908 12.1242 2.6191 12.3241L5.17012 15.3241C5.17995 15.3357 5.1903 15.3468 5.20114 15.3574C5.25034 15.4056 5.29915 15.4586 5.3602 15.5248L5.37311 15.5388C5.43688 15.608 5.51222 15.6892 5.59618 15.7694C5.76757 15.9332 5.9866 16.1047 6.28388 16.2203C6.88594 16.4543 7.66716 16.4075 8.79473 15.9655C10.0627 15.4685 10.9918 15.1374 11.6464 14.9098C11.7874 14.8607 11.9177 14.8158 12.0365 14.7749L12.1939 14.7205V21.0002C12.1939 21.1728 12.2829 21.3332 12.4293 21.4245C12.5757 21.5158 12.7589 21.5252 12.9139 21.4492L14.9547 20.4492C15.0771 20.3893 15.1697 20.282 15.2111 20.1521L17.7108 12.3128L21.144 9.90974L21.1533 9.90285C21.6939 9.50541 22.0758 9.1104 22.2919 8.71715C22.514 8.31274 22.5722 7.88193 22.3994 7.48698C22.2346 7.11021 21.9022 6.86526 21.5529 6.71863C21.199 6.57003 20.7795 6.50001 20.3469 6.50001C19.8188 6.50001 19.1275 6.64054 18.4622 6.8323C17.7885 7.02648 17.0964 7.28643 16.5555 7.55147C16.3471 7.65356 15.843 7.88959 15.1481 8.21234L9.2353 5.05884ZM8.6257 6.58142L9.09159 6.11553L13.8816 8.67018L10.7026 10.1537L8.6257 6.58142ZM16.9955 8.44946C17.475 8.21449 18.1111 7.97422 18.7392 7.79318C19.3757 7.60971 19.9599 7.50001 20.3469 7.50001C20.6797 7.50001 20.9617 7.55494 21.1658 7.64065C21.3746 7.72832 21.4567 7.82704 21.4832 7.88771C21.5018 7.9302 21.5281 8.03062 21.4154 8.23563C21.297 8.45111 21.0424 8.74254 20.5655 9.09381L16.999 11.5904C16.9093 11.6532 16.8426 11.7438 16.8093 11.8481L14.3231 19.6451L13.1939 20.1984V14C13.1939 13.8274 13.1049 13.6671 12.9585 13.5757C12.812 13.4844 12.6288 13.4751 12.4739 13.551C12.4195 13.5777 12.3092 13.6205 12.105 13.6926C12.0079 13.7268 11.8977 13.7649 11.7714 13.8085C11.7714 13.8085 11.7714 13.8085 11.7714 13.8085C11.7533 13.8147 11.7349 13.821 11.7162 13.8275C11.5978 13.8683 11.4659 13.9138 11.3179 13.9653C10.6545 14.196 9.7128 14.5316 8.42977 15.0345C7.40292 15.437 6.90862 15.3902 6.64623 15.2882C6.51128 15.2358 6.40085 15.1552 6.28705 15.0464C6.22842 14.9904 6.17224 14.9303 6.10825 14.8609L6.09219 14.8435C6.03989 14.7867 5.98018 14.7219 5.91788 14.6598L3.68271 12.0313L4.11787 11.6048L6.86163 12.9492C6.99743 13.0158 7.15604 13.0173 7.29308 12.9533C8.91576 12.1961 10.9038 11.2773 12.6649 10.4634C14.7684 9.49118 16.5483 8.66858 16.9955 8.44946Z" fill="black"/>
</svg>
