<svg width="25" height="24" viewBox="0 0 25 24" fill="none" xmlns="http://www.w3.org/2000/svg">
<path d="M7.12139 4.01505C7.38928 4.08202 7.55216 4.35349 7.48519 4.62139L7.11783 6.09082C7.86543 5.184 8.77979 4.46236 9.80957 4.03787C10.0649 3.93263 10.3571 4.05428 10.4624 4.30958C10.5676 4.56488 10.446 4.85716 10.1907 4.9624C7.79599 5.94952 6.00012 8.96809 6.00012 12.0001C6.00012 15.0262 7.78892 18.0389 10.1765 19.032C10.3656 19.1033 10.5001 19.286 10.5001 19.5C10.5001 19.7761 10.2763 20 10.0001 20H4.00012C3.72398 20 3.50012 19.7761 3.50012 19.5C3.50012 19.2239 3.72398 19 4.00012 19H7.56415L2.80317 16.9596C2.54935 16.8508 2.43178 16.5569 2.54056 16.303C2.64933 16.0492 2.94327 15.9317 3.19709 16.0404L6.23292 17.3415L2.60971 12.8125C2.4372 12.5969 2.47216 12.2822 2.68779 12.1097C2.90342 11.9372 3.21807 11.9722 3.39057 12.1878L5.42034 14.725C5.32734 14.4239 5.2489 14.118 5.18591 13.8092C5.18239 13.8015 5.17906 13.7937 5.17589 13.7858L3.53589 9.68583C3.43334 9.42944 3.55805 9.13845 3.81444 9.03589C4.07083 8.93334 4.36181 9.05805 4.46437 9.31444L4.884 10.3635L4.50264 6.54991C4.47516 6.27514 4.67564 6.03012 4.95041 6.00264C5.22518 5.97516 5.4702 6.17564 5.49768 6.45041L5.64039 7.87749L6.51505 4.37885C6.58202 4.11095 6.85349 3.94807 7.12139 4.01505Z" fill="black"/>
<path d="M12.5 6.51416C12.347 6.51416 12.2 6.57374 12.09 6.68005C11.8634 6.96126 11.6946 7.28449 11.5933 7.63115C11.4921 7.97782 11.4604 8.34108 11.5 8.70005V9.50001L7.5 12V13L11.5 12.5V14.3333L9.5 16V17L12 16.5833V17.5C12 17.7762 12.2239 18 12.5 18C12.7761 18 13 17.7762 13 17.5V16.5833L15.5 17V16L13.5 14.3333V12.5L17.5 13V12L13.5 9.5L13.5 8.68005C13.5746 7.96168 13.3626 7.24291 12.91 6.68005C12.8 6.57374 12.653 6.51416 12.5 6.51416Z" fill="black"/>
<path d="M17.5151 4.62139C17.4481 4.35349 17.611 4.08202 17.8789 4.01505C18.1468 3.94807 18.4182 4.11095 18.4852 4.37885L19.3599 7.87749L19.5026 6.45041C19.53 6.17564 19.7751 5.97516 20.0498 6.00264C20.3246 6.03012 20.5251 6.27514 20.4976 6.54991L20.1162 10.3635L20.5359 9.31444C20.6384 9.05805 20.9294 8.93334 21.1858 9.03589C21.4422 9.13845 21.5669 9.42944 21.4643 9.68583L19.8244 13.7858C19.8234 13.7883 19.8224 13.7908 19.8213 13.7932C19.8191 13.7986 19.8168 13.8039 19.8143 13.8092C19.7513 14.118 19.6729 14.4239 19.5799 14.725L21.6097 12.1878C21.7822 11.9722 22.0968 11.9372 22.3125 12.1097C22.5281 12.2822 22.563 12.5969 22.3905 12.8125L18.7673 17.3415L21.8032 16.0404C22.057 15.9317 22.3509 16.0492 22.4597 16.303C22.5685 16.5569 22.4509 16.8508 22.1971 16.9596L17.4361 19H21.0001C21.2763 19 21.5001 19.2239 21.5001 19.5C21.5001 19.7761 21.2763 20 21.0001 20H15.0001C14.724 20 14.5001 19.7761 14.5001 19.5C14.5001 19.286 14.6346 19.1033 14.8237 19.032C17.2113 18.0389 19.0001 15.0262 19.0001 12.0001C19.0001 8.96809 17.2043 5.94952 14.8096 4.9624C14.5543 4.85716 14.4326 4.56488 14.5379 4.30958C14.6431 4.05428 14.9354 3.93263 15.1907 4.03787C16.2205 4.46236 17.1348 5.184 17.8824 6.09082L17.5151 4.62139Z" fill="black"/>
</svg>
