<svg width="25" height="24" viewBox="0 0 25 24" fill="none" xmlns="http://www.w3.org/2000/svg">
<path fill-rule="evenodd" clip-rule="evenodd" d="M4 3.97998C4.12227 3.97998 4.2343 4.02387 4.32117 4.09676L14.5 8.7235V7.5C14.5 7.22386 14.7239 7 15 7H16C17.0829 7 17.9514 7.60139 18.5156 8.13752C18.8035 8.41102 19.0288 8.68301 19.1822 8.88644C19.2592 8.98855 19.3189 9.07445 19.3601 9.13606C19.3807 9.16689 19.3968 9.19173 19.4081 9.20956L19.4209 9.23004L21.416 12.2227C21.4439 12.2645 21.4647 12.3091 21.4786 12.3549C21.6879 12.4621 21.8635 12.5947 22.0082 12.7477C22.4068 13.169 22.5 13.6704 22.5 14V15.5C22.5 16.1667 22.0652 16.7317 21.4637 16.927C21.2611 18.1043 20.2351 19 19 19C17.7905 19 16.7817 18.1411 16.55 17H8.44998C8.21833 18.1411 7.20946 19 6 19C4.76487 19 3.73894 18.1043 3.53632 16.927C2.93483 16.7317 2.5 16.1667 2.5 15.5V12.55C2.5 12.2739 2.72386 12.05 3 12.05H10.5667L4.5 7.50001V8.47998C4.5 8.8778 4.34197 9.25934 4.06066 9.54064C3.77936 9.82195 3.39782 9.97998 3 9.97998C2.60218 9.97998 2.22064 9.82195 1.93934 9.54064C1.65803 9.25934 1.5 8.8778 1.5 8.47998C1.5 8.20384 1.72386 7.97998 2 7.97998C2.27614 7.97998 2.5 8.20384 2.5 8.47998C2.5 8.61259 2.55268 8.73977 2.64645 8.83353C2.74021 8.9273 2.86739 8.97998 3 8.97998C3.13261 8.97998 3.25979 8.9273 3.35355 8.83353C3.44732 8.73977 3.5 8.61259 3.5 8.47998V4.51072C3.49984 4.50339 3.49984 4.49604 3.5 4.48868V4.47998C3.5 4.20384 3.72386 3.97998 4 3.97998ZM6 14C7.2095 14 8.21838 14.8589 8.45 16H16.55C16.7816 14.8589 17.7905 14 19 14C20.1375 14 21.0976 14.7597 21.4005 15.7994C21.463 15.716 21.5 15.6123 21.5 15.5V14C21.5 13.8397 21.4532 13.6161 21.2818 13.4349C21.1179 13.2617 20.7669 13.05 20 13.05H3.5V15.5C3.5 15.6123 3.53701 15.716 3.59949 15.7994C3.90242 14.7597 4.86249 14 6 14ZM18.584 9.77735L20.0998 12.051C20.0669 12.0504 20.0336 12.05 20 12.05H15.5V9.51132C15.5002 9.50396 15.5002 9.49661 15.5 9.48928V8H16C16.7071 8 17.3386 8.39861 17.8269 8.86248C18.0652 9.08898 18.2544 9.31699 18.3838 9.48856C18.4482 9.57395 18.497 9.6443 18.5289 9.69206C18.5449 9.71592 18.5566 9.73405 18.5639 9.74552L18.5714 9.75756L18.5725 9.75928C18.5762 9.76539 18.58 9.77141 18.584 9.77735ZM4.5 5.2765L14.5 9.82196V12.05H12.2334L4.5 6.25001V5.2765ZM6 15C5.17157 15 4.5 15.6716 4.5 16.5C4.5 17.3284 5.17157 18 6 18C6.82843 18 7.5 17.3284 7.5 16.5C7.5 15.6716 6.82843 15 6 15ZM19 15C18.1716 15 17.5 15.6716 17.5 16.5C17.5 17.3284 18.1716 18 19 18C19.8284 18 20.5 17.3284 20.5 16.5C20.5 15.6716 19.8284 15 19 15Z" fill="black"/>
</svg>
