<svg width="25" height="24" viewBox="0 0 25 24" fill="none" xmlns="http://www.w3.org/2000/svg">
<path fill-rule="evenodd" clip-rule="evenodd" d="M7.00066 11C6.17223 11 5.50066 11.6716 5.50066 12.5C5.50066 13.3284 6.17223 14 7.00066 14C7.65377 14 8.20939 13.5826 8.41531 13H16.586C16.7919 13.5826 17.3476 14 18.0007 14C18.8291 14 19.5007 13.3284 19.5007 12.5C19.5007 11.6716 18.8291 11 18.0007 11C17.3476 11 16.7919 11.4174 16.586 12H8.41531C8.20939 11.4174 7.65377 11 7.00066 11ZM6.50066 12.5C6.50066 12.2239 6.72452 12 7.00066 12C7.2768 12 7.50066 12.2239 7.50066 12.5C7.50066 12.7761 7.2768 13 7.00066 13C6.72452 13 6.50066 12.7761 6.50066 12.5ZM18.0007 12C17.7245 12 17.5007 12.2239 17.5007 12.5C17.5007 12.7761 17.7245 13 18.0007 13C18.2768 13 18.5007 12.7761 18.5007 12.5C18.5007 12.2239 18.2768 12 18.0007 12Z" fill="black"/>
<path fill-rule="evenodd" clip-rule="evenodd" d="M5.60718 5.7354C5.9651 4.13658 7.38425 3 9.02264 3H15.9787C17.6171 3 19.0362 4.13658 19.3941 5.7354L19.9436 8.18964C20.9786 8.57706 21.7502 9.52122 21.8751 10.678L22.3782 15.339C22.4262 15.7838 22.2754 16.2001 22.0007 16.5048V18.5C22.0007 19.3284 21.3291 20 20.5007 20H18.5007C17.6722 20 17.0007 19.3284 17.0007 18.5V17H8.00066V18.5C8.00066 19.3284 7.32909 20 6.50066 20H4.50066C3.67223 20 3.00066 19.3284 3.00066 18.5V16.5048C2.72588 16.2001 2.57508 15.7838 2.62309 15.339L3.12627 10.678C3.25115 9.52122 4.02274 8.57706 5.05777 8.18964L5.60718 5.7354ZM4.12049 10.7853C4.23013 9.76976 5.08746 9 6.10894 9H18.8924C19.9139 9 20.7712 9.76976 20.8808 10.7853L21.384 15.4463C21.4159 15.742 21.1843 16 20.8869 16H4.11443C3.81704 16 3.5854 15.742 3.61731 15.4463L4.12049 10.7853ZM18.4183 5.95386L18.8764 8H6.12497L6.58303 5.95386C6.83868 4.81184 7.85236 4 9.02264 4H15.9787C17.149 4 18.1626 4.81184 18.4183 5.95386ZM20.5007 19C20.7768 19 21.0007 18.7761 21.0007 18.5V17H18.0007V18.5C18.0007 18.7761 18.2245 19 18.5007 19H20.5007ZM6.50066 19C6.7768 19 7.00066 18.7761 7.00066 18.5V17H4.00066V18.5C4.00066 18.7761 4.22452 19 4.50066 19H6.50066Z" fill="black"/>
</svg>
