<svg width="25" height="24" viewBox="0 0 25 24" fill="none" xmlns="http://www.w3.org/2000/svg">
<path fill-rule="evenodd" clip-rule="evenodd" d="M21.1182 7.88776C21.2696 8.26456 21.3433 8.66809 21.3347 9.0741V15.4525C21.3433 15.8585 21.2696 16.262 21.1182 16.6388C20.9667 17.0156 20.7407 17.3577 20.4535 17.6448C20.1664 17.932 19.8242 18.1583 19.4474 18.3097C19.0706 18.4612 18.6669 18.5345 18.2609 18.5259H6.57448C6.16847 18.5345 5.76481 18.4612 5.38801 18.3097C5.01121 18.1583 4.669 17.932 4.38185 17.6448C4.0947 17.3577 3.86865 17.0156 3.71722 16.6388C3.56579 16.262 3.49209 15.8585 3.50067 15.4525V9.0741C3.49209 8.66809 3.56579 8.26456 3.71722 7.88776C3.86865 7.51095 4.0947 7.16887 4.38185 6.88172C4.669 6.59457 5.01121 6.36827 5.38801 6.21684C5.76481 6.06541 6.16847 5.99209 6.57448 6.00067H18.2609C18.6669 5.99209 19.0706 6.06541 19.4474 6.21684C19.8242 6.36827 20.1664 6.59457 20.4535 6.88172C20.7407 7.16887 20.9667 7.51095 21.1182 7.88776ZM10.0468 15.7352L15.8796 12.3053L10.0468 8.87535V15.7352Z" fill="black"/>
</svg>
