<svg width="25" height="24" viewBox="0 0 25 24" fill="none" xmlns="http://www.w3.org/2000/svg">
<path d="M5.6599 8.34855C5.88512 8.42528 6.1239 8.45375 6.36092 8.43306C6.60074 8.4581 6.84311 8.43318 7.07239 8.35855C7.30168 8.28392 7.51273 8.16195 7.69186 8.00054C7.871 7.83913 8.01419 7.64112 8.11223 7.42082C8.21026 7.20053 8.26102 6.96229 8.26102 6.72117C8.26102 6.48004 8.21026 6.2418 8.11223 6.02151C8.01419 5.80121 7.871 5.60411 7.69186 5.4427C7.51273 5.28129 7.30168 5.15932 7.07239 5.08469C6.84311 5.01006 6.60074 4.98424 6.36092 5.00927C6.1245 4.99142 5.88695 5.02237 5.66297 5.10014C5.43899 5.17791 5.23332 5.30125 5.05883 5.46178C4.88434 5.62231 4.74471 5.81658 4.64858 6.03332C4.55244 6.25006 4.50189 6.48407 4.50001 6.72117C4.49911 6.95909 4.54782 7.1946 4.64301 7.41265C4.7382 7.6307 4.87783 7.82673 5.05292 7.98782C5.22802 8.14891 5.43469 8.27183 5.6599 8.34855Z" fill="black"/>
<path d="M15.07 12.183C16.2796 12.183 16.8192 13.0948 16.8192 14.4347V19.5431H20.3177V14.053C20.3177 10.9918 18.5963 9.57795 16.4005 9.57795C15.7846 9.52088 15.1656 9.64582 14.6198 9.93687C14.0741 10.2279 13.6257 10.6721 13.33 11.2153V9.67064H9.86876V19.5431H13.33V14.2021C13.3045 13.9299 13.3297 13.6553 13.4044 13.3925C13.521 13.0422 13.7443 12.7371 14.043 12.5202C14.3417 12.3032 14.7008 12.1855 15.07 12.183Z" fill="black"/>
<path d="M7.97991 19.5431H4.90004V9.66155H7.97991V19.5431Z" fill="black"/>
</svg>
