<svg width="25" height="24" viewBox="0 0 25 24" fill="none" xmlns="http://www.w3.org/2000/svg">
<path fill-rule="evenodd" clip-rule="evenodd" d="M5.5 4.5C5.22386 4.5 5 4.72386 5 5V11C5 11.2761 5.22386 11.5 5.5 11.5H11.5C11.7761 11.5 12 11.2761 12 11V5C12 4.72386 11.7761 4.5 11.5 4.5H5.5ZM6 10.5V5.5H11V10.5H6Z" fill="black"/>
<path fill-rule="evenodd" clip-rule="evenodd" d="M13.5 4.5C13.2239 4.5 13 4.72386 13 5V11C13 11.2761 13.2239 11.5 13.5 11.5H19.5C19.7761 11.5 20 11.2761 20 11V5C20 4.72386 19.7761 4.5 19.5 4.5H13.5ZM14 10.5V5.5H19V10.5H14Z" fill="black"/>
<path fill-rule="evenodd" clip-rule="evenodd" d="M13 13C13 12.7239 13.2239 12.5 13.5 12.5H19.5C19.7761 12.5 20 12.7239 20 13V19C20 19.2761 19.7761 19.5 19.5 19.5H13.5C13.2239 19.5 13 19.2761 13 19V13ZM14 13.5V18.5H19V13.5H14Z" fill="black"/>
<path fill-rule="evenodd" clip-rule="evenodd" d="M5.5 12.5C5.22386 12.5 5 12.7239 5 13V19C5 19.2761 5.22386 19.5 5.5 19.5H11.5C11.7761 19.5 12 19.2761 12 19V13C12 12.7239 11.7761 12.5 11.5 12.5H5.5ZM6 18.5V13.5H11V18.5H6Z" fill="black"/>
</svg>
