<svg width="25" height="24" viewBox="0 0 25 24" fill="none" xmlns="http://www.w3.org/2000/svg">
<g clip-path="url(#clip0_10438_80600)">
<path d="M7.46265 15.5798C6.78916 15.2862 6.18767 14.8495 5.7 14.3C6.6 16.3 7.6 17.4 8.8 17.7H21C22.8735 17.7 24.045 18.1388 24.4323 18.8519C24.4549 18.9006 24.4775 18.95 24.5 19C24.481 18.9494 24.4585 18.9 24.4323 18.8519C23.5499 16.9506 22.57 16 21.4 16H9.6C8.86549 16.0168 8.13615 15.8734 7.46265 15.5798Z" fill="black"/>
<path d="M2.26265 6.2798C1.58916 5.98622 0.987671 5.54951 0.5 5C1.4 7 2.4 8.1 3.6 8.4H15.8C17.6735 8.4 18.845 8.83876 19.2323 9.55186C19.2549 9.60062 19.2775 9.65 19.3 9.7C19.281 9.6494 19.2585 9.60001 19.2323 9.55186C18.3499 7.65062 17.37 6.7 16.2 6.7H4.4C3.66549 6.71676 2.93615 6.57337 2.26265 6.2798Z" fill="black"/>
<path d="M4.86265 10.9798C4.18916 10.6862 3.58767 10.2495 3.1 9.7C4 11.6 5 12.8 6.2 13.1H18.4C20.2735 13.1 21.445 13.5388 21.8323 14.2519C21.8549 14.3006 21.8775 14.35 21.9 14.4C21.881 14.3494 21.8585 14.3 21.8323 14.2519C20.9499 12.3506 19.97 11.4 18.8 11.4H7C6.26549 11.4168 5.53615 11.2734 4.86265 10.9798Z" fill="black"/>
</g>
<defs>
<clipPath id="clip0_10438_80600">
<rect width="24" height="24" fill="white" transform="translate(0.5)"/>
</clipPath>
</defs>
</svg>
