<svg width="25" height="24" viewBox="0 0 25 24" fill="none" xmlns="http://www.w3.org/2000/svg">
<path fill-rule="evenodd" clip-rule="evenodd" d="M5.48092 11.6615C5.48092 11.6615 12.5573 8.80777 15.0116 7.80292C15.9524 7.40098 19.1429 6.11477 19.1429 6.11477C19.1429 6.11477 20.6154 5.55205 20.4927 6.91865C20.4518 7.48136 20.1246 9.45087 19.7974 11.5812C19.3065 14.5957 18.7748 17.8916 18.7748 17.8916C18.7748 17.8916 18.693 18.8161 17.9976 18.9768C17.3022 19.1376 16.1569 18.4141 15.9524 18.2534C15.7888 18.1328 12.8846 16.324 11.8211 15.4398C11.5347 15.1986 11.2075 14.7163 11.862 14.1536C13.3345 12.8272 15.0934 11.1792 16.1569 10.1342C16.6477 9.65184 17.1386 8.52641 15.0934 9.893C12.1892 11.8625 9.32591 13.7114 9.32591 13.7114C9.32591 13.7114 8.67144 14.1134 7.44432 13.7516C6.21719 13.3899 4.78555 12.9076 4.78555 12.9076C4.78555 12.9076 3.80385 12.3046 5.48092 11.6615Z" fill="black"/>
</svg>
