<svg width="25" height="24" viewBox="0 0 25 24" fill="none" xmlns="http://www.w3.org/2000/svg">
<path fill-rule="evenodd" clip-rule="evenodd" d="M20.4974 10.2829C20.3446 10.2969 20.1912 10.3043 20.0373 10.3053C18.3534 10.3053 16.7835 9.48832 15.8613 8.1321V15.5312C15.8613 18.5519 13.3173 21 10.1806 21C7.04292 21 4.5 18.5519 4.5 15.5312C4.5 12.511 7.04292 10.0629 10.1806 10.0629C10.2988 10.0629 10.4148 10.0729 10.5314 10.0799V12.7749C10.4148 12.7614 10.3003 12.741 10.1806 12.741C8.57914 12.741 7.28126 13.9909 7.28126 15.5317C7.28126 17.0735 8.57914 18.323 10.1806 18.323C11.7821 18.323 13.1961 17.1084 13.1961 15.5666L13.2246 3H15.9027C16.1551 5.31191 18.0913 7.11805 20.5 7.28764V10.2829" fill="black"/>
</svg>
