<svg width="25" height="24" viewBox="0 0 25 24" fill="none" xmlns="http://www.w3.org/2000/svg">
<path fill-rule="evenodd" clip-rule="evenodd" d="M12.4507 1.91138C12.5834 1.91138 12.7106 1.9641 12.8044 2.05794L22.3654 11.6253C22.5083 11.7683 22.5511 11.9834 22.4737 12.1702C22.3962 12.357 22.2139 12.4788 22.0117 12.4788H2.88966C2.68746 12.4788 2.50516 12.357 2.42775 12.1702C2.35035 11.9834 2.39306 11.7683 2.53599 11.6253L12.097 2.05794C12.1908 1.9641 12.318 1.91138 12.4507 1.91138ZM4.0962 11.4788H20.8052L12.4507 3.11872L4.0962 11.4788Z" fill="black"/>
<path d="M2.42775 11.7873C2.50516 11.6005 2.68746 11.4788 2.88966 11.4788H22.0117C22.2139 11.4788 22.3962 11.6005 22.4737 11.7873C22.5511 11.9741 22.5083 12.1892 22.3654 12.3322L12.8044 21.8996C12.7106 21.9934 12.5834 22.0461 12.4507 22.0461C12.318 22.0461 12.1908 21.9934 12.097 21.8996L2.53599 12.3322C2.39306 12.1892 2.35035 11.9741 2.42775 11.7873Z" fill="black"/>
</svg>
