<svg width="25" height="24" viewBox="0 0 25 24" fill="none" xmlns="http://www.w3.org/2000/svg">
<path d="M19.5 4.91C17.63 3.03 15.14 2 12.49 2C7.03 2 2.58 6.45 2.58 11.91C2.58 13.66 3.04 15.36 3.9 16.86L2.5 22L7.75 20.62C9.2 21.41 10.83 21.83 12.49 21.83C17.95 21.83 22.4 17.38 22.4 11.92C22.4 9.27 21.37 6.78 19.5 4.91ZM12.49 20.15C11.01 20.15 9.56 19.75 8.29 19L7.99 18.82L4.87 19.64L5.7 16.6L5.5 16.29C4.68 14.98 4.24 13.46 4.24 11.91C4.24 7.37 7.94 3.67 12.48 3.67C14.68 3.67 16.75 4.53 18.3 6.09C19.86 7.65 20.71 9.72 20.71 11.92C20.73 16.46 17.03 20.15 12.49 20.15ZM17.01 13.99C16.76 13.87 15.54 13.27 15.32 13.18C15.09 13.1 14.93 13.06 14.76 13.3C14.59 13.55 14.12 14.11 13.98 14.27C13.84 14.44 13.69 14.46 13.44 14.33C13.19 14.21 12.39 13.94 11.45 13.1C10.71 12.44 10.22 11.63 10.07 11.38C9.93 11.13 10.05 11 10.18 10.87C10.29 10.76 10.43 10.58 10.55 10.44C10.67 10.3 10.72 10.19 10.8 10.03C10.88 9.86 10.84 9.72 10.78 9.6C10.72 9.48 10.22 8.26 10.02 7.76C9.82 7.28 9.61 7.34 9.46 7.33C9.31 7.33 9.15 7.33 8.98 7.33C8.81 7.33 8.55 7.39 8.32 7.64C8.1 7.89 7.46 8.49 7.46 9.71C7.46 10.93 8.35 12.11 8.47 12.27C8.59 12.44 10.22 14.94 12.7 16.01C13.29 16.27 13.75 16.42 14.11 16.53C14.7 16.72 15.24 16.69 15.67 16.63C16.15 16.56 17.14 16.03 17.34 15.45C17.55 14.87 17.55 14.38 17.48 14.27C17.41 14.16 17.26 14.11 17.01 13.99Z" fill="black"/>
</svg>
