<svg width="25" height="24" viewBox="0 0 25 24" fill="none" xmlns="http://www.w3.org/2000/svg">
<path d="M2.50001 11.79C2.49793 13.4334 2.90336 15.0517 3.68001 16.5L7.07001 13.17C7.43573 12.7837 7.63955 12.272 7.63955 11.7401C7.63955 11.2081 7.43573 10.6963 7.07001 10.31L3.71001 7.01001C2.91402 8.47737 2.49804 10.1207 2.50001 11.79Z" fill="black"/>
<path d="M22.5 11.79C22.4996 10.1469 22.0943 8.52923 21.32 7.08002L18.03 10.31C17.6643 10.6963 17.4605 11.2081 17.4605 11.7401C17.4605 12.272 17.6643 12.7837 18.03 13.17L21.35 16.44C22.1044 15.0061 22.4991 13.4103 22.5 11.79Z" fill="black"/>
<path d="M12.5 21.79C14.1829 21.7987 15.8408 21.3825 17.32 20.58H17.28L13.98 17.22C13.5937 16.8543 13.082 16.6505 12.55 16.6505C12.018 16.6505 11.5063 16.8543 11.12 17.22L7.79001 20.61C9.23695 21.3902 10.8561 21.7959 12.5 21.79Z" fill="black"/>
<path d="M14.1481 2.66199C13.7242 2.23816 13.1494 2 12.55 2C11.9506 2 11.3758 2.23816 10.9519 2.66199C10.5281 3.08582 10.29 3.66062 10.29 4.26001C10.29 4.8594 10.5281 5.43426 10.9519 5.85809C11.3758 6.28192 11.9506 6.52002 12.55 6.52002C13.1494 6.52002 13.7242 6.28192 14.1481 5.85809C14.5719 5.43426 14.81 4.8594 14.81 4.26001C14.81 3.66062 14.5719 3.08582 14.1481 2.66199Z" fill="black"/>
<path d="M20.6607 18.9811C20.5771 19.1827 20.4545 19.3658 20.3 19.52C20.1458 19.6745 19.9627 19.7971 19.761 19.8807C19.5594 19.9644 19.3433 20.0074 19.125 20.0074C18.9067 20.0074 18.6906 19.9644 18.489 19.8807C18.2873 19.7971 18.1042 19.6745 17.95 19.52L12.55 14.12L7.15001 19.52C6.99582 19.6745 6.81267 19.7971 6.61105 19.8807C6.40943 19.9644 6.19329 20.0074 5.97501 20.0074C5.75673 20.0074 5.54059 19.9644 5.33897 19.8807C5.13734 19.7971 4.9542 19.6745 4.80001 19.52C4.6455 19.3658 4.52292 19.1827 4.43929 18.9811C4.35565 18.7795 4.3126 18.5633 4.3126 18.345C4.3126 18.1267 4.35565 17.9106 4.43929 17.709C4.52292 17.5074 4.6455 17.3242 4.80001 17.17L10.2 11.77L4.80001 6.36005C4.64581 6.20671 4.52344 6.0244 4.43994 5.82361C4.35644 5.62282 4.31345 5.40746 4.31345 5.19C4.31345 4.97254 4.35644 4.75725 4.43994 4.55646C4.52344 4.35567 4.64581 4.17335 4.80001 4.02002C4.9542 3.86551 5.13734 3.74294 5.33897 3.6593C5.54059 3.57567 5.75673 3.53259 5.97501 3.53259C6.19329 3.53259 6.40943 3.57567 6.61105 3.6593C6.81267 3.74294 6.99582 3.86551 7.15001 4.02002L12.55 9.42004L17.95 4.02002C18.1042 3.86551 18.2873 3.74294 18.489 3.6593C18.6906 3.57567 18.9067 3.53259 19.125 3.53259C19.3433 3.53259 19.5594 3.57567 19.761 3.6593C19.9627 3.74294 20.1458 3.86551 20.3 4.02002C20.4542 4.17335 20.5766 4.35567 20.6601 4.55646C20.7436 4.75725 20.7866 4.97254 20.7866 5.19C20.7866 5.40746 20.7436 5.62282 20.6601 5.82361C20.5766 6.0244 20.4542 6.20671 20.3 6.36005L14.9 11.77L20.3 17.17C20.4545 17.3242 20.5771 17.5074 20.6607 17.709C20.7444 17.9106 20.7874 18.1267 20.7874 18.345C20.7874 18.5633 20.7444 18.7795 20.6607 18.9811Z" fill="black"/>
</svg>
