<svg width="25" height="24" viewBox="0 0 25 24" fill="none" xmlns="http://www.w3.org/2000/svg">
<path fill-rule="evenodd" clip-rule="evenodd" d="M13.4284 3.50121C13.7039 3.42403 13.992 3.40288 14.2758 3.439C14.5596 3.47513 14.8332 3.5678 15.0806 3.71154L15.1076 3.72723L15.1325 3.74617C15.5808 4.08786 15.8764 4.59265 15.955 5.15093C16.0329 5.70365 15.892 6.26476 15.5626 6.71485L14.4735 8.38979L17.7825 13.4831H19.6099C20.143 13.4831 20.6542 13.6951 21.0311 14.0722C21.4079 14.4493 21.6196 14.9606 21.6196 15.4938C21.6196 16.0269 21.4079 16.5383 21.0311 16.9154C20.8266 17.12 20.5825 17.276 20.3168 17.3759C20.4284 17.5557 20.513 17.7513 20.5674 17.9566C20.6397 18.2292 20.6574 18.5135 20.6196 18.793C20.5818 19.0725 20.4892 19.3419 20.347 19.5855C20.2049 19.8291 20.016 20.0423 19.7912 20.2127L19.76 20.2363L19.7254 20.2549C19.226 20.5227 18.6414 20.5835 18.0976 20.4241C17.5595 20.2665 17.1041 19.9058 16.827 19.4188L15.5837 17.5044H15.1869L15.1816 17.5079H14.5778L14.5756 17.5044H8.54843L7.30557 19.4102C7.02643 19.8954 6.56983 20.2536 6.03165 20.4088C5.48803 20.5656 4.90463 20.5029 4.40679 20.234L4.37267 20.2156L4.3418 20.1921C4.11901 20.0228 3.93177 19.8112 3.79074 19.5695C3.64971 19.3277 3.55765 19.0606 3.51981 18.7833C3.48197 18.506 3.49907 18.2239 3.57016 17.9533C3.6234 17.7505 3.70614 17.5572 3.8154 17.3792C3.54634 17.2795 3.29915 17.1223 3.0924 16.9154C2.71556 16.5383 2.50391 16.0269 2.50391 15.4938C2.50391 14.9606 2.71555 14.4493 3.0924 14.0722C3.46925 13.6951 3.98045 13.4831 4.51354 13.4831H6.35457L9.65341 8.36936L8.57057 6.71416C8.4084 6.49019 8.29111 6.23689 8.22521 5.96824C8.15816 5.69492 8.14562 5.41106 8.18829 5.13289C8.23096 4.85471 8.32802 4.58767 8.47393 4.34704C8.61983 4.1064 8.81173 3.89688 9.03865 3.73048L9.06629 3.71021L9.09643 3.69391C9.59301 3.4253 10.1752 3.3628 10.7175 3.51994C11.2566 3.67618 11.7132 4.03706 11.9899 4.52524L12.0595 4.63949L12.1353 4.5219C12.2712 4.27777 12.4535 4.06252 12.672 3.88834C12.8957 3.71004 13.1529 3.5784 13.4284 3.50121ZM14.4117 10.1302L16.59 13.4831H16.5855L19.1976 17.5044H19.2026L19.3819 17.7804L19.404 17.8118C19.4954 17.9312 19.5622 18.0675 19.6008 18.2129C19.6394 18.3583 19.6488 18.5099 19.6287 18.6589C19.6085 18.808 19.5591 18.9516 19.4833 19.0815C19.4141 19.2001 19.3242 19.3051 19.2179 19.3916C18.9576 19.52 18.6582 19.5463 18.3788 19.4645C18.0868 19.3789 17.8399 19.182 17.6915 18.916L17.6833 18.9013L13.1993 11.9969L14.4117 10.1302ZM19.7399 16.496C19.9597 16.4675 20.1653 16.3671 20.3237 16.2085C20.5131 16.019 20.6196 15.7619 20.6196 15.4938C20.6196 15.2256 20.5131 14.9685 20.3237 14.779C20.1344 14.5895 19.8776 14.4831 19.6099 14.4831H18.4322L19.7399 16.496ZM13.874 7.46696L13.8774 7.47218L14.7409 6.14418L14.7503 6.13154C14.9296 5.89041 15.0067 5.58817 14.9648 5.29043C14.9243 5.00304 14.7761 4.74234 14.551 4.56083C14.4264 4.49298 14.2903 4.44892 14.1495 4.431C13.9984 4.41176 13.8449 4.42302 13.6982 4.46413C13.5515 4.50524 13.4145 4.57536 13.2952 4.67037C13.176 4.76538 13.077 4.88336 13.0041 5.01734L12.9952 5.0337L12.6376 5.58813L12.6522 5.61225L10.2622 9.29992L10.2526 9.28525L6.8995 14.4831H4.51354C4.24588 14.4831 3.98911 14.5895 3.79974 14.779C3.61036 14.9685 3.50391 15.2256 3.50391 15.4938C3.50391 15.7619 3.61036 16.019 3.79974 16.2085C3.98911 16.398 4.24588 16.5044 4.51354 16.5044H5.59325L4.74065 17.7971L4.73062 17.8103C4.64079 17.9286 4.57512 18.0635 4.53737 18.2073C4.49961 18.351 4.49053 18.5008 4.51063 18.6481C4.53072 18.7953 4.57961 18.9372 4.65449 19.0655C4.72284 19.1827 4.81163 19.2865 4.91651 19.372C5.17608 19.5012 5.47507 19.5286 5.75447 19.448C6.04637 19.3638 6.29372 19.1684 6.44331 18.9036L6.45114 18.8897L8.00672 16.5044H13.9255L12.6114 14.4831H9.31858L11.4714 11.1723L11.4652 11.1628L13.874 7.46696ZM12.0674 12.0901L11.1616 13.4831H12.5694L12.575 13.4795H12.9698L12.0674 12.0901ZM10.2467 7.44964L11.4573 5.573L11.1268 5.0307L11.1224 5.02283C10.9746 4.75923 10.7291 4.56445 10.4392 4.48042C10.1602 4.39958 9.86142 4.42743 9.60265 4.55759C9.49362 4.64269 9.40087 4.74701 9.32902 4.8655C9.25124 4.99379 9.19948 5.13618 9.17673 5.28452C9.15397 5.43287 9.16066 5.58424 9.19642 5.73C9.23217 5.87575 9.29628 6.013 9.38507 6.1339L9.39308 6.14481L10.2467 7.44964Z" fill="black"/>
</svg>
