<svg width="25" height="24" viewBox="0 0 25 24" fill="none" xmlns="http://www.w3.org/2000/svg">
<path fill-rule="evenodd" clip-rule="evenodd" d="M15.8799 20.68L11.4299 11.94C11.922 11.6136 12.4995 11.4397 13.0899 11.44C14.3499 11.44 15.2499 12.29 16.5899 12.29C17.6992 12.1464 18.7476 11.7001 19.6199 11V9.9C19.6199 8.79 19.4999 7.56 19.4199 6.45C18.4126 7.07155 17.2426 7.37798 16.0599 7.33C14.1599 7.23 13.0599 6.18 11.4899 6.09C10.5178 6.02598 9.54733 6.23741 8.68993 6.7V5.81C8.69037 5.74109 8.67532 5.67297 8.6459 5.61066C8.61647 5.54835 8.57342 5.49344 8.51993 5.45L6.75993 4.14C6.71736 4.12854 6.67251 4.12854 6.62993 4.14C6.60152 4.13865 6.57314 4.14308 6.54649 4.15302C6.51985 4.16297 6.4955 4.17822 6.47493 4.19786C6.45436 4.21749 6.43799 4.2411 6.42682 4.26726C6.41564 4.29341 6.4099 4.32156 6.40993 4.35V6.5C6.41285 6.56788 6.43046 6.63433 6.46153 6.69475C6.49261 6.75517 6.53641 6.80814 6.58993 6.85L7.29993 7.37L14.4799 21.37C13.9586 21.6094 13.4245 21.8197 12.8799 22C8.65993 20.61 5.07993 17.6 4.55993 12.79C4.48864 9.76469 4.61893 6.73799 4.94993 3.73C4.94428 3.49884 5.01892 3.27286 5.16113 3.09054C5.30335 2.90821 5.50435 2.7808 5.72993 2.73C8.08324 2.25068 10.4783 2.00615 12.8799 2C15.2829 2.01931 17.678 2.27724 20.0299 2.77C20.2555 2.8208 20.4565 2.94821 20.5987 3.13054C20.7409 3.31286 20.8156 3.53884 20.8099 3.77C21.1409 6.77799 21.2712 9.80469 21.1999 12.83C21.0085 14.4694 20.4252 16.0387 19.4992 17.4051C18.5732 18.7714 17.3318 19.8947 15.8799 20.68ZM19.6299 12.54V12.61C19.5096 13.7338 19.1632 14.8216 18.6115 15.8081C18.0599 16.7945 17.3144 17.6591 16.4199 18.35L13.9399 13.6C13.8131 13.3641 13.6436 13.1539 13.4399 12.98C14.4138 13.4521 15.47 13.7305 16.5499 13.8C17.6663 13.7429 18.7276 13.2972 19.5499 12.54H19.6299ZM8.44993 4C9.91622 3.77534 11.3966 3.65504 12.8799 3.64C15.0055 3.65118 17.1251 3.86549 19.2099 4.28L19.2899 5.04C18.3065 5.61653 17.1792 5.90096 16.0399 5.86C14.1399 5.76 13.0999 4.78 11.5199 4.7C10.9659 4.67355 10.4114 4.74118 9.87993 4.9L8.41993 4H8.44993ZM6.23993 8.34L12.0299 19.92L11.6199 19.73C10.1664 19.1289 8.89814 18.1533 7.9443 16.9026C6.99047 15.6519 6.38513 14.1708 6.18993 12.61C6.10934 11.1872 6.12605 9.76053 6.23993 8.34Z" fill="black"/>
</svg>
