<svg width="24" height="25" viewBox="0 0 24 25" fill="none" xmlns="http://www.w3.org/2000/svg">
<path d="M8.73604 15.0002C7.9538 14.1566 7.52265 13.0465 7.53045 11.8961V4.04614H3.00045V11.8961C2.98858 13.0884 3.21217 14.2713 3.65841 15.377C4.10465 16.4827 4.76476 17.4895 5.60089 18.3396C6.43701 19.1896 7.43271 19.8663 8.53089 20.3307C9.62907 20.7952 10.8081 21.0383 12.0005 21.0461C13.1924 21.037 14.3709 20.793 15.4684 20.328C16.566 19.8631 17.5612 19.1864 18.397 18.3366C19.2329 17.4868 19.8931 16.4806 20.3398 15.3755C20.7865 14.2704 21.011 13.0881 21.0005 11.8961V11.0461H16.4605V12.0461C16.4682 13.1965 16.0371 14.1566 15.2549 15.0002C14.4726 15.8437 13.3982 16.3573 12.2505 16.4361H11.7404C10.5927 16.3573 9.51828 15.8437 8.73604 15.0002Z" fill="black"/>
<path d="M16.5204 4.04614H21V8.76614H16.5204V4.04614Z" fill="black"/>
</svg>
