<svg width="25" height="24" viewBox="0 0 25 24" fill="none" xmlns="http://www.w3.org/2000/svg">
<path d="M16.3275 9.3897L16.3293 9.38967V9.41156C16.3287 9.40427 16.3281 9.39698 16.3275 9.3897Z" fill="black"/>
<path fill-rule="evenodd" clip-rule="evenodd" d="M11.9075 11.2264C13.0907 10.0699 14.6732 9.41226 16.3275 9.3897C16.244 8.38161 15.8897 7.41458 15.3017 6.59112C14.4376 5.48732 13.2515 4.68001 11.9078 4.28043C10.5642 3.88086 9.1295 3.90877 7.80264 4.36103C6.82244 4.61922 5.92752 5.13105 5.2079 5.84491C4.48828 6.55877 3.96934 7.44973 3.70329 8.42782C3.0638 10.7016 3.96019 12.9316 6.00986 14.4402C6.13586 14.5226 6.23 14.6451 6.27671 14.7882C6.32341 14.9313 6.3199 15.0861 6.26676 15.227C6.10088 15.7416 5.973 16.2677 5.88415 16.8011C6.00247 16.7234 6.11735 16.6477 6.22938 16.5738C6.77974 16.2108 7.26113 15.8934 7.74252 15.6209C7.93805 15.515 8.16057 15.4692 8.38202 15.4896C8.70177 15.5224 9.02151 15.5715 9.34126 15.6206C9.66101 15.6698 9.98076 15.7189 10.3005 15.7517C10.1951 14.9242 10.2855 14.0835 10.5647 13.2974C10.8438 12.5113 11.3038 11.8021 11.9075 11.2264ZM11.9904 8.11183C12.138 7.96422 12.3382 7.88124 12.547 7.88124C12.6518 7.87266 12.7572 7.88718 12.8557 7.92394C12.9542 7.9607 13.0434 8.01855 13.117 8.09368C13.1906 8.16882 13.2467 8.25916 13.2814 8.35843C13.316 8.4577 13.3284 8.56342 13.3176 8.66802C13.323 8.77139 13.3068 8.87492 13.2702 8.97173C13.2336 9.06855 13.1773 9.15665 13.1048 9.23061C13.0324 9.30457 12.9455 9.36276 12.8494 9.40142C12.7534 9.44007 12.6504 9.45849 12.547 9.45533C12.3382 9.45533 12.138 9.37234 11.9904 9.22474C11.8428 9.07713 11.7599 8.87676 11.7599 8.66802C11.7599 8.45927 11.8428 8.25944 11.9904 8.11183ZM8.2194 8.1193C8.36231 8.2663 8.44222 8.46301 8.44214 8.66802C8.44222 8.87303 8.36231 9.07027 8.2194 9.21727C8.07649 9.36426 7.88186 9.44963 7.67693 9.45533C7.46818 9.45533 7.26799 9.37234 7.12038 9.22474C6.97278 9.07713 6.88986 8.87676 6.88986 8.66802C6.88986 8.45927 6.97278 8.25944 7.12038 8.11183C7.26799 7.96422 7.46818 7.88124 7.67693 7.88124C7.88186 7.88694 8.07649 7.97231 8.2194 8.1193Z" fill="black"/>
<path fill-rule="evenodd" clip-rule="evenodd" d="M18.5703 19.6872C19.1387 19.8094 19.6809 20.0316 20.1717 20.3432C20.1717 20.212 20.1717 20.0154 20.0734 19.9498C19.7509 19.2939 19.9422 18.8999 20.456 18.4408C21.3266 17.6536 21.8644 16.5644 21.9598 15.3946C22.0553 14.2247 21.7012 13.0624 20.9697 12.1445C19.2262 9.87069 15.6515 9.32402 13.2138 10.9638C10.459 12.8003 10.1365 16.2764 12.5087 18.5065C13.0813 19.0793 13.7777 19.5132 14.5443 19.7747C15.3109 20.0362 16.1272 20.1188 16.9305 20.0154C17.151 19.989 17.3767 19.9198 17.6014 19.851C17.9338 19.7491 18.2637 19.648 18.5703 19.6872ZM17.5142 13.062C17.634 12.9392 17.7975 12.869 17.969 12.8661H17.9909C18.1657 12.8877 18.3263 12.9735 18.4414 13.1068C18.5565 13.2402 18.618 13.4111 18.614 13.5872C18.6015 13.7491 18.5279 13.9004 18.4081 14.01C18.2884 14.1196 18.1314 14.1795 17.969 14.1776C17.8826 14.1817 17.7962 14.1677 17.7156 14.136C17.6351 14.1042 17.5622 14.0554 17.5018 13.9934C17.4413 13.9314 17.3947 13.8575 17.365 13.7762C17.3354 13.6949 17.3232 13.6079 17.3295 13.5216C17.3281 13.35 17.3944 13.1849 17.5142 13.062ZM14.2439 14.1263C14.1652 14.1597 14.0808 14.1769 13.9954 14.1776H14.0173C13.929 14.185 13.8402 14.1732 13.757 14.1429C13.6738 14.1126 13.5981 14.0649 13.5353 14.0025C13.4724 13.9402 13.4238 13.8645 13.3928 13.7815C13.3619 13.6986 13.3493 13.6099 13.3559 13.5216C13.3544 13.35 13.4208 13.1849 13.5406 13.062C13.6604 12.9392 13.8238 12.869 13.9954 12.8661C14.0823 12.8612 14.1693 12.8748 14.2505 12.9061C14.3317 12.9375 14.4053 12.9861 14.4663 13.0481C14.5274 13.1102 14.5744 13.1842 14.6045 13.2659C14.6345 13.3476 14.6467 13.4348 14.6404 13.5216C14.6411 13.607 14.625 13.6922 14.5929 13.7714C14.5609 13.8506 14.5136 13.9224 14.4537 13.9833C14.3938 14.0442 14.3225 14.093 14.2439 14.1263Z" fill="black"/>
</svg>
