<svg width="25" height="24" viewBox="0 0 25 24" fill="none" xmlns="http://www.w3.org/2000/svg">
<path fill-rule="evenodd" clip-rule="evenodd" d="M15.6938 4C18.3433 4 20.5 6.15601 20.5 8.80571V15.1943C20.5 17.844 18.3433 20 15.6938 20H9.30548C6.65591 20 4.5 17.844 4.5 15.1943V8.80571C4.5 6.15601 6.65591 4 9.30548 4H15.6938ZM15.6938 5.50497H9.30548C7.48588 5.50497 6.00566 6.98525 6.00566 8.80571V15.1943C6.00566 17.014 7.48588 18.495 9.30548 18.495H15.6938C17.5141 18.495 18.9951 17.014 18.9951 15.1943V8.80571C18.9951 6.98525 17.5141 5.50497 15.6938 5.50497ZM12.5659 8.05978C14.7381 8.05978 16.506 9.82702 16.506 12C16.506 14.173 14.7381 15.9402 12.5659 15.9402C10.3931 15.9402 8.62515 14.173 8.62515 12C8.62515 9.82702 10.3931 8.05978 12.5659 8.05978ZM12.5659 9.47604C11.1737 9.47604 10.0413 10.6084 10.0413 12C10.0413 13.3916 11.1737 14.524 12.5659 14.524C13.9575 14.524 15.089 13.3916 15.089 12C15.089 10.6084 13.9575 9.47604 12.5659 9.47604ZM16.7358 6.85643C17.2542 6.85643 17.6738 7.27683 17.6738 7.79443C17.6738 8.3128 17.2542 8.73243 16.7358 8.73243C16.2175 8.73243 15.7979 8.3128 15.7979 7.79443C15.7979 7.27683 16.2175 6.85643 16.7358 6.85643Z" fill="black"/>
</svg>
