<svg width="25" height="24" viewBox="0 0 25 24" fill="none" xmlns="http://www.w3.org/2000/svg">
<path d="M21.1527 6.57621C20.5267 6.84752 19.8656 7.03008 19.189 7.11701C19.9004 6.6855 20.4333 6.01246 20.6911 5.22133C20.0198 5.6173 19.2861 5.89605 18.5212 6.04595C18.0489 5.55694 17.4418 5.21949 16.777 5.07654C16.1123 4.9336 15.4201 4.99178 14.7885 5.24339C14.1569 5.49499 13.6143 5.92908 13.23 6.48991C12.8456 7.05073 12.6367 7.71339 12.63 8.39325C12.6292 8.65437 12.6588 8.91473 12.7183 9.16897C11.3569 9.10097 10.0249 8.74718 8.80877 8.13148C7.59261 7.51579 6.51941 6.65133 5.65867 5.59433C5.35404 6.11556 5.19472 6.7089 5.19721 7.31261C5.19835 7.87693 5.33764 8.43311 5.60293 8.93118C5.86823 9.42924 6.25139 9.8542 6.71905 10.17C6.17512 10.1502 5.64362 10.0027 5.16773 9.73854C5.16983 10.5291 5.44445 11.2948 5.94525 11.9065C6.44605 12.5182 7.14233 12.9384 7.91691 13.0965C7.41381 13.2303 6.88726 13.25 6.37542 13.155C6.59134 13.8354 7.01556 14.4306 7.58814 14.857C8.16072 15.2833 8.85273 15.5192 9.56651 15.531C8.35472 16.4851 6.85731 17.0038 5.31503 17.0038C5.04359 17.0188 4.77145 17.0188 4.5 17.0038C5.97291 17.9433 7.67124 18.47 9.41729 18.5284C11.1633 18.5868 12.893 18.1755 14.4254 17.3366C15.9578 16.4976 17.2367 15.2615 18.1282 13.7591C19.0197 12.2566 19.4912 10.543 19.4933 8.79598C19.4933 8.64869 19.4933 8.50122 19.4933 8.35394C20.1631 7.87082 20.7416 7.27256 21.2017 6.58675" fill="black"/>
</svg>
