<svg width="25" height="24" viewBox="0 0 25 24" fill="none" xmlns="http://www.w3.org/2000/svg">
<path d="M7.5 5.5C7.5 5.22386 7.72386 5 8 5H17C17.2761 5 17.5 5.22386 17.5 5.5C17.5 5.77614 17.2761 6 17 6H8C7.72386 6 7.5 5.77614 7.5 5.5Z" fill="black"/>
<path d="M7.5 7.5C7.5 7.22386 7.72386 7 8 7H17C17.2761 7 17.5 7.22386 17.5 7.5C17.5 7.77614 17.2761 8 17 8H8C7.72386 8 7.5 7.77614 7.5 7.5Z" fill="black"/>
<path d="M8 11C7.72386 11 7.5 11.2239 7.5 11.5C7.5 11.7761 7.72386 12 8 12H14C14.2761 12 14.5 11.7761 14.5 11.5C14.5 11.2239 14.2761 11 14 11H8Z" fill="black"/>
<path d="M11.5 17C11.5 18.1046 10.6046 19 9.5 19C8.39543 19 7.5 18.1046 7.5 17C7.5 15.8954 8.39543 15 9.5 15C10.6046 15 11.5 15.8954 11.5 17Z" fill="black"/>
<path d="M8 9C7.72386 9 7.5 9.22386 7.5 9.5C7.5 9.77614 7.72386 10 8 10H17C17.2761 10 17.5 9.77614 17.5 9.5C17.5 9.22386 17.2761 9 17 9H8Z" fill="black"/>
<path fill-rule="evenodd" clip-rule="evenodd" d="M7 2C6.17157 2 5.5 2.67157 5.5 3.5V20.5C5.5 21.3284 6.17157 22 7 22H18C18.8284 22 19.5 21.3284 19.5 20.5V3.5C19.5 2.67157 18.8284 2 18 2H7ZM6.5 3.5C6.5 3.22386 6.72386 3 7 3H18C18.2761 3 18.5 3.22386 18.5 3.5V20.5C18.5 20.7761 18.2761 21 18 21H7C6.72386 21 6.5 20.7761 6.5 20.5V3.5Z" fill="black"/>
</svg>
