<svg width="25" height="24" viewBox="0 0 25 24" fill="none" xmlns="http://www.w3.org/2000/svg">
<path fill-rule="evenodd" clip-rule="evenodd" d="M5 19C3.61929 19 2.5 17.8807 2.5 16.5V7.5C2.5 6.11929 3.61929 5 5 5H8.58579C8.98361 5 9.36514 5.15804 9.64645 5.43934L11.0607 6.85355C11.1544 6.94732 11.2816 7 11.4142 7H20C21.3807 7 22.5 8.11929 22.5 9.5V16.5C22.5 17.8807 21.3807 19 20 19H5ZM3.5 7.5C3.5 6.67157 4.17157 6 5 6H8.58579C8.71839 6 8.84557 6.05268 8.93934 6.14645L10.3536 7.56066C10.6349 7.84197 11.0164 8 11.4142 8H20C20.8284 8 21.5 8.67157 21.5 9.5V11H3.5V7.5ZM5 18C4.17157 18 3.5 17.3284 3.5 16.5V12H21.5V16.5C21.5 17.3284 20.8284 18 20 18H5Z" fill="black"/>
</svg>
