<svg width="25" height="24" viewBox="0 0 25 24" fill="none" xmlns="http://www.w3.org/2000/svg">
<path fill-rule="evenodd" clip-rule="evenodd" d="M5 19C3.61929 19 2.5 17.8807 2.5 16.5V7.5C2.5 6.11929 3.61929 5 5 5H8.58579C8.98361 5 9.36514 5.15804 9.64645 5.43934L11.0607 6.85355C11.1544 6.94732 11.2816 7 11.4142 7H20C21.3807 7 22.5 8.11929 22.5 9.5V13.5C22.5 13.7761 22.2761 14 22 14C21.7239 14 21.5 13.7761 21.5 13.5V12H3.5V16.5C3.5 17.3284 4.17157 18 5 18H13C13.2761 18 13.5 18.2239 13.5 18.5C13.5 18.7761 13.2761 19 13 19H5ZM3.5 7.5C3.5 6.67157 4.17157 6 5 6H8.58579C8.71839 6 8.84557 6.05268 8.93934 6.14645L10.3536 7.56066C10.6349 7.84197 11.0164 8 11.4142 8H20C20.8284 8 21.5 8.67157 21.5 9.5V11H3.5V7.5Z" fill="black"/>
<path d="M20.8536 17.8536C21.0488 17.6583 21.0488 17.3417 20.8536 17.1464C20.6583 16.9512 20.3417 16.9512 20.1464 17.1464L18.5 18.7929L17.8536 18.1464C17.6583 17.9512 17.3417 17.9512 17.1464 18.1464C16.9512 18.3417 16.9512 18.6583 17.1464 18.8536L18.1464 19.8536C18.3417 20.0488 18.6583 20.0488 18.8536 19.8536L20.8536 17.8536Z" fill="black"/>
<path fill-rule="evenodd" clip-rule="evenodd" d="M14.5 18.5C14.5 16.0147 16.5147 14 19 14C21.4853 14 23.5 16.0147 23.5 18.5C23.5 20.9853 21.4853 23 19 23C16.5147 23 14.5 20.9853 14.5 18.5ZM19 15C17.067 15 15.5 16.567 15.5 18.5C15.5 20.433 17.067 22 19 22C20.933 22 22.5 20.433 22.5 18.5C22.5 16.567 20.933 15 19 15Z" fill="black"/>
</svg>
