<svg width="25" height="24" viewBox="0 0 25 24" fill="none" xmlns="http://www.w3.org/2000/svg">
<path fill-rule="evenodd" clip-rule="evenodd" d="M19.12 2C18.6881 2 18.2604 2.08544 17.8615 2.25143C17.4629 2.41733 17.1003 2.66089 16.7957 2.96723L16.005 3.75916L15.8536 3.60747C15.6583 3.4119 15.3417 3.4119 15.1464 3.60747C14.9512 3.80305 14.9512 4.12013 15.1464 4.3157L15.2979 4.46738L2.64645 17.1388C2.55268 17.2327 2.5 17.3601 2.5 17.4929V21.4992C2.5 21.7758 2.72386 22 3 22H7C7.13224 22 7.2591 21.9475 7.3528 21.8541L20.0318 9.20878L20.1864 9.36365C20.3817 9.55922 20.6983 9.55922 20.8936 9.36365C21.0888 9.16808 21.0888 8.851 20.8936 8.65543L20.7404 8.50206L21.5328 7.71181C21.8389 7.40657 22.0817 7.04379 22.2475 6.64429C22.4132 6.24479 22.4985 5.81643 22.4985 5.38383C22.4985 4.95122 22.4132 4.52287 22.2475 4.12337C22.0818 3.72405 21.8387 3.361 21.5328 3.05584L21.4439 2.96677C21.1392 2.66043 20.7771 2.41733 20.3785 2.25143C19.9796 2.08544 19.5519 2 19.12 2ZM20.0333 7.79384L20.8272 7.00207C21.04 6.78989 21.2088 6.5377 21.324 6.26C21.4392 5.9823 21.4985 5.68454 21.4985 5.38383C21.4985 5.08311 21.4392 4.78535 21.324 4.50765C21.2088 4.22995 21.04 3.97777 20.8272 3.76559L20.8264 3.76483L20.7364 3.67469L20.7357 3.67392C20.5238 3.46082 20.2721 3.29173 19.9948 3.17635C19.7175 3.06097 19.4202 3.00158 19.12 3.00158C18.8198 3.00158 18.5225 3.06097 18.2452 3.17635C17.9679 3.29173 17.7162 3.46082 17.5043 3.67392L17.5036 3.67469L16.7121 4.46738L18.3189 6.07671C18.3416 6.09281 18.3632 6.11101 18.3835 6.13134C18.4039 6.15175 18.4221 6.17349 18.4383 6.19628L20.0333 7.79384ZM17.3181 6.49074L16.005 5.17561L3.57811 17.6221C3.64578 17.6463 3.70929 17.6855 3.76347 17.7397L4.92987 18.908L17.3181 6.49074ZM18.0252 7.19897L19.3247 8.50056L6.88385 20.9083C6.85981 20.8562 6.82634 20.8074 6.78347 20.7645L5.63697 19.6162L18.0252 7.19897ZM3.5 18.8923L5.60282 20.9984H3.5V18.8923Z" fill="black"/>
</svg>
