<svg width="25" height="24" viewBox="0 0 25 24" fill="none" xmlns="http://www.w3.org/2000/svg">
<path d="M6.5 6.5C6.5 6.22386 6.72386 6 7 6H18C18.2761 6 18.5 6.22386 18.5 6.5C18.5 6.77614 18.2761 7 18 7H7C6.72386 7 6.5 6.77614 6.5 6.5Z" fill="black"/>
<path d="M7 9C6.72386 9 6.5 9.22386 6.5 9.5C6.5 9.77614 6.72386 10 7 10H18C18.2761 10 18.5 9.77614 18.5 9.5C18.5 9.22386 18.2761 9 18 9H7Z" fill="black"/>
<path d="M6.5 12.5C6.5 12.2239 6.72386 12 7 12H18C18.2761 12 18.5 12.2239 18.5 12.5C18.5 12.7761 18.2761 13 18 13H7C6.72386 13 6.5 12.7761 6.5 12.5Z" fill="black"/>
<path fill-rule="evenodd" clip-rule="evenodd" d="M6 3C4.61929 3 3.5 4.11929 3.5 5.5V18.5C3.5 19.8807 4.61929 21 6 21H19C20.3807 21 21.5 19.8807 21.5 18.5V5.5C21.5 4.11929 20.3807 3 19 3H6ZM15.1577 15.2488C15.2472 15.0948 15.4119 15 15.59 15H20.5V5.5C20.5 4.67157 19.8284 4 19 4H6C5.17157 4 4.5 4.67157 4.5 5.5V15H9.41C9.58814 15 9.75282 15.0948 9.84232 15.2488C10.1153 15.7185 10.504 16.1105 10.9714 16.3873C11.4353 16.662 11.9613 16.8143 12.5 16.8298C13.0387 16.8143 13.5647 16.662 14.0286 16.3873C14.496 16.1105 14.8847 15.7185 15.1577 15.2488ZM6 20C5.17157 20 4.5 19.3284 4.5 18.5V16H9.1342C9.47894 16.5075 9.9319 16.9339 10.4618 17.2477C11.0763 17.6116 11.7737 17.812 12.4875 17.8298L12.5001 17.83L12.5125 17.8298C13.2263 17.812 13.9237 17.6116 14.5382 17.2477C15.0681 16.9339 15.5211 16.5075 15.8658 16H20.5V18.5C20.5 19.3284 19.8284 20 19 20H6Z" fill="black"/>
</svg>
