<svg width="25" height="24" viewBox="0 0 25 24" fill="none" xmlns="http://www.w3.org/2000/svg">
<path d="M8 6C7.72386 6 7.5 6.22386 7.5 6.5C7.5 6.77614 7.72386 7 8 7H12.07C12.3461 7 12.57 6.77614 12.57 6.5C12.57 6.22386 12.3461 6 12.07 6H8Z" fill="black"/>
<path d="M8 8C7.72386 8 7.5 8.22386 7.5 8.5C7.5 8.77614 7.72386 9 8 9H12.07C12.3461 9 12.57 8.77614 12.57 8.5C12.57 8.22386 12.3461 8 12.07 8H8Z" fill="black"/>
<path d="M7.5 10.5C7.5 10.2239 7.72386 10 8 10H17C17.2761 10 17.5 10.2239 17.5 10.5C17.5 10.7761 17.2761 11 17 11H8C7.72386 11 7.5 10.7761 7.5 10.5Z" fill="black"/>
<path fill-rule="evenodd" clip-rule="evenodd" d="M8 13C7.72386 13 7.5 13.2239 7.5 13.5V18.5C7.5 18.7761 7.72386 19 8 19H17C17.2761 19 17.5 18.7761 17.5 18.5V13.5C17.5 13.2239 17.2761 13 17 13H8ZM8.5 18V14H16.5V18H8.5Z" fill="black"/>
<path fill-rule="evenodd" clip-rule="evenodd" d="M19.0607 5.85355C19.342 6.13486 19.5 6.51639 19.5 6.91421V20.5C19.5 21.3284 18.8284 22 18 22H7C6.17157 22 5.5 21.3284 5.5 20.5V3.5C5.5 2.67157 6.17157 2 7 2H14.5858C14.9836 2 15.3651 2.15804 15.6464 2.43934L19.0607 5.85355ZM6.5 3.5C6.5 3.22386 6.72386 3 7 3H14.5V6.3C14.5 6.6866 14.8134 7 15.2 7H18.5V20.5C18.5 20.7761 18.2761 21 18 21H7C6.72386 21 6.5 20.7761 6.5 20.5V3.5ZM17.7929 6L15.5 3.70711V6H17.7929Z" fill="black"/>
</svg>
