<svg width="25" height="24" viewBox="0 0 25 24" fill="none" xmlns="http://www.w3.org/2000/svg">
<path d="M8.76196 13.0984C8.67993 13.1082 8.46997 13.1131 8.13208 13.1131H7.56372V12.1199H8.06177C8.46997 12.1199 8.71704 12.1248 8.80298 12.1346C8.94751 12.1522 9.05591 12.2029 9.12817 12.2869C9.20239 12.369 9.2395 12.4764 9.2395 12.6092C9.2395 12.7479 9.19653 12.8602 9.1106 12.9461C9.02661 13.0301 8.9104 13.0809 8.76196 13.0984Z" fill="black"/>
<path d="M9.03149 13.8895C8.91431 13.8484 8.65845 13.8279 8.26392 13.8279H7.56372V14.9764H8.36646C8.67896 14.9764 8.8772 14.9676 8.96118 14.95C9.09009 14.9266 9.19458 14.8699 9.27466 14.7801C9.35669 14.6883 9.39771 14.5662 9.39771 14.4139C9.39771 14.285 9.36646 14.1756 9.30396 14.0858C9.24146 13.9959 9.15063 13.9305 9.03149 13.8895Z" fill="black"/>
<path d="M12.1367 14.8533C11.9902 14.6893 11.917 14.4529 11.917 14.1443C11.917 13.8358 11.9902 13.5994 12.1367 13.4354C12.2832 13.2713 12.4639 13.1893 12.6787 13.1893C12.8936 13.1893 13.0733 13.2713 13.2178 13.4354C13.3643 13.5994 13.4375 13.8338 13.4375 14.1385C13.4375 14.451 13.3643 14.6893 13.2178 14.8533C13.0733 15.0174 12.8936 15.0994 12.6787 15.0994C12.4639 15.0994 12.2832 15.0174 12.1367 14.8533Z" fill="black"/>
<path d="M17.2049 13.283C17.0896 13.3279 16.8611 13.3504 16.5193 13.3504H16.0447V12.1317H16.4636C16.7761 12.1317 16.9841 12.1414 17.0877 12.1609C17.2283 12.1863 17.3445 12.2498 17.4363 12.3514C17.5281 12.4529 17.574 12.5818 17.574 12.7381C17.574 12.8651 17.5408 12.9764 17.4744 13.0721C17.4099 13.1678 17.3201 13.2381 17.2049 13.283Z" fill="black"/>
<path fill-rule="evenodd" clip-rule="evenodd" d="M20.5 11C20.5 10.4477 20.0523 10 19.5 10V6.91421C19.5 6.51639 19.342 6.13486 19.0607 5.85355L15.6464 2.43934C15.3651 2.15804 14.9836 2 14.5858 2H7C6.17157 2 5.5 2.67157 5.5 3.5V10C4.94772 10 4.5 10.4477 4.5 11V16C4.5 16.5523 4.94772 17 5.5 17V20.5C5.5 21.3284 6.17157 22 7 22H18C18.8284 22 19.5 21.3284 19.5 20.5V17C20.0523 17 20.5 16.5523 20.5 16V11ZM7 3C6.72386 3 6.5 3.22386 6.5 3.5V10H18.5V7H15.2C14.8134 7 14.5 6.6866 14.5 6.3V3H7ZM18 21C18.2761 21 18.5 20.7761 18.5 20.5V17H6.5V20.5C6.5 20.7761 6.72386 21 7 21H18ZM15.5 3.70711L17.7929 6H15.5V3.70711ZM9.17212 11.449C9.0061 11.4197 8.75317 11.4051 8.41333 11.4051H6.69653V15.7H8.15845C8.71118 15.6961 9.05981 15.6863 9.20435 15.6707C9.43481 15.6453 9.62817 15.5779 9.78442 15.4686C9.94263 15.3572 10.0667 15.2098 10.1565 15.0262C10.2483 14.8406 10.2942 14.6502 10.2942 14.4549C10.2942 14.2068 10.2239 13.991 10.0833 13.8074C9.94263 13.6238 9.74146 13.494 9.47974 13.4178C9.66528 13.3338 9.81177 13.2078 9.91919 13.0399C10.0286 12.8719 10.0833 12.6873 10.0833 12.4861C10.0833 12.3006 10.0393 12.1336 9.95142 11.9852C9.86353 11.8348 9.75317 11.7147 9.62036 11.6248C9.4895 11.535 9.34009 11.4764 9.17212 11.449ZM11.2754 13.3065C11.1406 13.5623 11.0733 13.827 11.0733 14.1004C11.0733 14.4578 11.1406 14.7615 11.2754 15.0115C11.4102 15.2596 11.6065 15.4481 11.8643 15.577C12.124 15.7059 12.3965 15.7703 12.6817 15.7703C13.1426 15.7703 13.5244 15.616 13.8272 15.3074C14.1318 14.9969 14.2842 14.6063 14.2842 14.1356C14.2842 13.6688 14.1338 13.283 13.833 12.9783C13.5322 12.6717 13.1465 12.5184 12.6758 12.5184C12.3711 12.5184 12.0947 12.5858 11.8467 12.7205C11.6006 12.8553 11.4102 13.0506 11.2754 13.3065ZM17.5095 14.0184C17.3025 14.0594 17.0027 14.0799 16.6101 14.0799H16.0447V15.7H15.1775V11.4051H16.5691C17.0965 11.4051 17.4402 11.4266 17.6004 11.4695C17.8465 11.534 18.0525 11.6746 18.2185 11.8914C18.3845 12.1063 18.4675 12.3846 18.4675 12.7264C18.4675 12.9901 18.4197 13.2117 18.324 13.3914C18.2283 13.5711 18.1062 13.7127 17.9578 13.8162C17.8113 13.9178 17.6619 13.9852 17.5095 14.0184Z" fill="black"/>
</svg>
