<svg width="25" height="24" viewBox="0 0 25 24" fill="none" xmlns="http://www.w3.org/2000/svg">
<path d="M4 2C3.17157 2 2.5 2.67157 2.5 3.5V20.5C2.5 21.3284 3.17157 22 4 22H15C15.8284 22 16.5 21.3284 16.5 20.5V13C16.5 12.7239 16.2761 12.5 16 12.5C15.7239 12.5 15.5 12.7239 15.5 13V20.5C15.5 20.7761 15.2761 21 15 21H4C3.72386 21 3.5 20.7761 3.5 20.5V3.5C3.5 3.22386 3.72386 3 4 3H15C15.2761 3 15.5 3.22386 15.5 3.5V4C15.5 4.27614 15.7239 4.5 16 4.5C16.2761 4.5 16.5 4.27614 16.5 4V3.5C16.5 2.67157 15.8284 2 15 2H4Z" fill="black"/>
<path fill-rule="evenodd" clip-rule="evenodd" d="M5 15C4.72386 15 4.5 15.2239 4.5 15.5V19.5C4.5 19.7761 4.72386 20 5 20H14C14.2761 20 14.5 19.7761 14.5 19.5V15.5C14.5 15.2239 14.2761 15 14 15H5ZM5.5 19V16H13.5V19H5.5Z" fill="black"/>
<path d="M5.5 5.5C5.5 5.22386 5.72386 5 6 5H13C13.2761 5 13.5 5.22386 13.5 5.5C13.5 5.77614 13.2761 6 13 6H6C5.72386 6 5.5 5.77614 5.5 5.5Z" fill="black"/>
<path d="M6 7C5.72386 7 5.5 7.22386 5.5 7.5C5.5 7.77614 5.72386 8 6 8H11C11.2761 8 11.5 7.77614 11.5 7.5C11.5 7.22386 11.2761 7 11 7H6Z" fill="black"/>
<path d="M5.5 9.5C5.5 9.22386 5.72386 9 6 9H10C10.2761 9 10.5 9.22386 10.5 9.5C10.5 9.77614 10.2761 10 10 10H6C5.72386 10 5.5 9.77614 5.5 9.5Z" fill="black"/>
<path fill-rule="evenodd" clip-rule="evenodd" d="M20.49 2.05103C20.2102 2.05103 19.9332 2.10641 19.6749 2.214C19.4174 2.32122 19.1837 2.47817 18.987 2.67587L10.6488 10.9041C10.5536 10.9981 10.5 11.1263 10.5 11.26V13.62C10.5 13.8962 10.7239 14.12 11 14.12H13.36C13.4926 14.12 13.6198 14.0673 13.7136 13.9736L21.9932 5.69389C22.1918 5.49607 22.3493 5.26101 22.4568 5.0022C22.5644 4.7432 22.6198 4.4655 22.6198 4.18502C22.6198 3.90454 22.5644 3.62683 22.4568 3.36784C22.3494 3.1093 22.1921 2.87447 21.9939 2.67679C21.797 2.47866 21.563 2.32139 21.3051 2.214C21.0468 2.10641 20.7698 2.05103 20.49 2.05103ZM21.2851 3.38218L21.64 3.03002L21.2872 3.38431C21.3926 3.4893 21.4763 3.61408 21.5334 3.75149C21.5905 3.88891 21.6198 4.03624 21.6198 4.18502C21.6198 4.3338 21.5905 4.48112 21.5334 4.61854C21.4763 4.75595 21.3926 4.88073 21.2872 4.98572L21.2864 4.98646L20.805 5.46791L19.2039 3.86682L19.6912 3.38593L19.6949 3.38218C19.799 3.27725 19.9229 3.19396 20.0594 3.13712C20.1958 3.08029 20.3422 3.05103 20.49 3.05103C20.6378 3.05103 20.7842 3.08029 20.9206 3.13712C21.0571 3.19396 21.1809 3.27724 21.2851 3.38218ZM18.4921 4.56923L11.5 11.4691V11.5029L13.1171 13.12H13.1529L20.0979 6.17502L18.4921 4.56923ZM11.5 12.9171L11.7029 13.12H11.5V12.9171Z" fill="black"/>
</svg>
