<svg width="25" height="24" viewBox="0 0 25 24" fill="none" xmlns="http://www.w3.org/2000/svg">
<path fill-rule="evenodd" clip-rule="evenodd" d="M15.2774 3.08398C15.145 2.99575 14.9786 2.97575 14.8291 3.03011L3.82914 7.03011C3.65196 7.09454 3.52608 7.25315 3.50358 7.44034C3.48108 7.62752 3.56579 7.81145 3.72266 7.91603L5.81213 9.309L3.82914 10.0301C3.65196 10.0945 3.52608 10.2531 3.50358 10.4403C3.48108 10.6275 3.56579 10.8114 3.72266 10.916L5.81214 12.309L3.82914 13.0301C3.65196 13.0945 3.52608 13.2531 3.50358 13.4403C3.48108 13.6275 3.56579 13.8114 3.72266 13.916L5.81216 15.309L3.82914 16.0301C3.65196 16.0945 3.52608 16.2532 3.50358 16.4403C3.48108 16.6275 3.56579 16.8114 3.72266 16.916L9.72266 20.916C9.855 21.0042 10.0214 21.0243 10.1709 20.9699L21.1709 16.9699C21.3481 16.9055 21.4739 16.7469 21.4964 16.5597C21.5189 16.3725 21.4342 16.1886 21.2774 16.084L19.1879 14.691L21.1709 13.9699C21.3481 13.9055 21.4739 13.7468 21.4964 13.5597C21.5189 13.3725 21.4342 13.1885 21.2774 13.084L19.1879 11.691L21.1709 10.9699C21.3481 10.9055 21.4739 10.7468 21.4964 10.5597C21.5189 10.3725 21.4342 10.1885 21.2774 10.084L19.1879 8.69098L21.1709 7.9699C21.3481 7.90547 21.4739 7.74685 21.4964 7.55967C21.5189 7.37248 21.4342 7.18856 21.2774 7.08398L15.2774 3.08398ZM18.0214 15.1152L10.1709 17.9699C10.0214 18.0242 9.855 18.0042 9.72266 17.916L6.84489 15.9975L5.09964 16.6322L10.0669 19.9437L19.9004 16.3678L18.0214 15.1152ZM5.09964 13.6322L6.84491 12.9975L9.72266 14.916C9.855 15.0042 10.0214 15.0242 10.1709 14.9699L18.0214 12.1152L19.9004 13.3678L10.0669 16.9436L5.09964 13.6322ZM19.9004 10.3678L10.0669 13.9436L5.09964 10.6322L6.84491 9.99751L9.72266 11.916C9.855 12.0042 10.0214 12.0242 10.1709 11.9699L18.0214 9.11516L19.9004 10.3678ZM17.9174 8.08891L10.0669 10.9436L7.18912 9.02514L7.18682 9.02361L5.09964 7.63217L14.9331 4.05635L19.9004 7.36784L17.9207 8.08773L17.9174 8.08891Z" fill="black"/>
</svg>
