<svg width="25" height="24" viewBox="0 0 25 24" fill="none" xmlns="http://www.w3.org/2000/svg">
<path d="M8.5 8.46997C8.5 8.19383 8.72386 7.96997 9 7.96997H16C16.2761 7.96997 16.5 8.19383 16.5 8.46997C16.5 8.74611 16.2761 8.96997 16 8.96997H9C8.72386 8.96997 8.5 8.74611 8.5 8.46997Z" fill="black"/>
<path d="M9 9.96997C8.72386 9.96997 8.5 10.1938 8.5 10.47C8.5 10.7461 8.72386 10.97 9 10.97H16C16.2761 10.97 16.5 10.7461 16.5 10.47C16.5 10.1938 16.2761 9.96997 16 9.96997H9Z" fill="black"/>
<path d="M8.5 12.47C8.5 12.1938 8.72386 11.97 9 11.97H16C16.2761 11.97 16.5 12.1938 16.5 12.47C16.5 12.7461 16.2761 12.97 16 12.97H9C8.72386 12.97 8.5 12.7461 8.5 12.47Z" fill="black"/>
<path d="M9 13.97C8.72386 13.97 8.5 14.1938 8.5 14.47C8.5 14.7461 8.72386 14.97 9 14.97H13C13.2761 14.97 13.5 14.7461 13.5 14.47C13.5 14.1938 13.2761 13.97 13 13.97H9Z" fill="black"/>
<path fill-rule="evenodd" clip-rule="evenodd" d="M11.0854 3C11.2913 2.4174 11.8469 2 12.5 2C13.1531 2 13.7087 2.4174 13.9146 3H18C18.8284 3 19.5 3.67157 19.5 4.5V20.5C19.5 21.3284 18.8284 22 18 22H7C6.17157 22 5.5 21.3284 5.5 20.5V4.5C5.5 3.67157 6.17157 3 7 3H11.0854ZM18.5 4.5C18.5 4.22386 18.2761 4 18 4H15.5V5C15.5 5.27614 15.2761 5.5 15 5.5H10C9.72386 5.5 9.5 5.27614 9.5 5V4H7C6.72386 4 6.5 4.22386 6.5 4.5V20.5C6.5 20.7761 6.72386 21 7 21H18C18.2761 21 18.5 20.7761 18.5 20.5V4.5Z" fill="black"/>
</svg>
