<svg width="25" height="24" viewBox="0 0 25 24" fill="none" xmlns="http://www.w3.org/2000/svg">
<path fill-rule="evenodd" clip-rule="evenodd" d="M20.5 11C20.5 10.4477 20.0523 10 19.5 10V6.91421C19.5 6.51639 19.342 6.13486 19.0607 5.85355L15.6464 2.43934C15.3651 2.15804 14.9836 2 14.5858 2H7C6.17157 2 5.5 2.67157 5.5 3.5V10C4.94772 10 4.5 10.4477 4.5 11V16C4.5 16.5523 4.94772 17 5.5 17V20.5C5.5 21.3284 6.17157 22 7 22H18C18.8284 22 19.5 21.3284 19.5 20.5V17C20.0523 17 20.5 16.5523 20.5 16V11ZM7 3C6.72386 3 6.5 3.22386 6.5 3.5V10H18.5V7H15.2C14.8134 7 14.5 6.6866 14.5 6.3V3H7ZM18 21C18.2761 21 18.5 20.7761 18.5 20.5V17H6.5V20.5C6.5 20.7761 6.72386 21 7 21H18ZM7.89185 13.4588L6.5 15.5841V15.7H7.46411L8.41919 14.2147L9.37134 15.7H10.4172L8.94946 13.491L10.2854 11.4051H9.28052L8.43677 12.785L7.57544 11.4051H6.56177L7.89185 13.4588ZM15.5 3.70711L17.7929 6H15.5V3.70711ZM14.7908 14.3026L15.6345 14.2205C15.6853 14.5037 15.7879 14.7117 15.9422 14.8445C16.0984 14.9774 16.3084 15.0438 16.572 15.0438C16.8513 15.0438 17.0613 14.9852 17.2019 14.868C17.3445 14.7488 17.4158 14.6102 17.4158 14.452C17.4158 14.3504 17.3855 14.2645 17.325 14.1942C17.2664 14.1219 17.1629 14.0594 17.0144 14.0067C16.9129 13.9715 16.6814 13.909 16.3201 13.8192C15.8552 13.7039 15.5291 13.5623 15.3416 13.3943C15.0779 13.158 14.9461 12.8699 14.9461 12.5301C14.9461 12.3113 15.0076 12.1072 15.1306 11.9178C15.2556 11.7264 15.4343 11.5809 15.6668 11.4813C15.9011 11.3817 16.1834 11.3318 16.5134 11.3318C17.0525 11.3318 17.4578 11.45 17.7293 11.6863C18.0027 11.9227 18.1463 12.2381 18.1599 12.6326L17.2927 12.6707C17.2556 12.45 17.1756 12.2918 17.0525 12.1961C16.9314 12.0984 16.7488 12.0496 16.5047 12.0496C16.2527 12.0496 16.0554 12.1014 15.9129 12.2049C15.8211 12.2713 15.7752 12.3602 15.7752 12.4715C15.7752 12.5731 15.8181 12.66 15.9041 12.7322C16.0134 12.824 16.2791 12.9197 16.7009 13.0193C17.1228 13.119 17.4343 13.2225 17.6355 13.3299C17.8386 13.4354 17.9968 13.5809 18.1101 13.7664C18.2254 13.95 18.283 14.1776 18.283 14.449C18.283 14.6951 18.2146 14.9256 18.0779 15.1404C17.9412 15.3553 17.7478 15.5154 17.4978 15.6209C17.2478 15.7244 16.9363 15.7762 16.5633 15.7762C16.0203 15.7762 15.6033 15.6512 15.3123 15.4012C15.0213 15.1492 14.8474 14.783 14.7908 14.3026ZM11.126 11.4402V15.7H14.1494V14.9764H11.9932V11.4402H11.126Z" fill="black"/>
</svg>
