<svg width="25" height="24" viewBox="0 0 25 24" fill="none" xmlns="http://www.w3.org/2000/svg">
<path fill-rule="evenodd" clip-rule="evenodd" d="M9.00014 5.5C9.00014 4.67157 9.67171 4 10.5001 4H14.5001C15.3286 4 16.0001 4.67157 16.0001 5.5V6H20.0001C20.8286 6 21.5001 6.67157 21.5001 7.5V9.4884C21.5002 9.49082 21.5002 9.49324 21.5003 9.49566C21.5003 9.50098 21.5003 9.5063 21.5001 9.51161V17.5C21.5001 18.3284 20.8286 19 20.0001 19H5.00014C4.17171 19 3.50014 18.3284 3.50014 17.5V9.51163C3.49995 9.5039 3.49995 9.49614 3.50014 9.48837V7.5C3.50014 6.67157 4.17171 6 5.00014 6H9.00014V5.5ZM12.0009 12.854L4.50014 10.2067V17.5C4.50014 17.7761 4.72399 18 5.00014 18H20.0001C20.2763 18 20.5001 17.7761 20.5001 17.5V10.2067L12.9994 12.854C12.6763 12.968 12.324 12.968 12.0009 12.854ZM20.5001 9.14624L12.6665 11.911C12.5589 11.949 12.4414 11.949 12.3337 11.911L4.50014 9.14624V7.5C4.50014 7.22386 4.72399 7 5.00014 7H20.0001C20.2763 7 20.5001 7.22386 20.5001 7.5V9.14624ZM14.5001 5C14.7763 5 15.0001 5.22386 15.0001 5.5V6H10.0001V5.5C10.0001 5.22386 10.224 5 10.5001 5H14.5001Z" fill="black"/>
</svg>
