<svg width="25" height="24" viewBox="0 0 25 24" fill="none" xmlns="http://www.w3.org/2000/svg">
<path d="M4 2C3.17157 2 2.5 2.67157 2.5 3.5V18.5C2.5 19.3284 3.17157 20 4 20H10C10.2761 20 10.5 19.7761 10.5 19.5C10.5 19.2239 10.2761 19 10 19H4C3.72386 19 3.5 18.7761 3.5 18.5V3.5C3.5 3.22386 3.72386 3 4 3H14C14.2761 3 14.5 3.22386 14.5 3.5V5.6875C14.5 5.96364 14.7239 6.1875 15 6.1875C15.2761 6.1875 15.5 5.96364 15.5 5.6875V3.5C15.5 2.67157 14.8284 2 14 2H4Z" fill="black"/>
<path d="M4.5 5.5C4.5 5.22386 4.72386 5 5 5H11C11.2761 5 11.5 5.22386 11.5 5.5C11.5 5.77614 11.2761 6 11 6H5C4.72386 6 4.5 5.77614 4.5 5.5Z" fill="black"/>
<path d="M5 7.5C4.72386 7.5 4.5 7.72386 4.5 8C4.5 8.27614 4.72386 8.5 5 8.5H9C9.27614 8.5 9.5 8.27614 9.5 8C9.5 7.72386 9.27614 7.5 9 7.5H5Z" fill="black"/>
<path d="M4.5 10.5C4.5 10.2239 4.72386 10 5 10H9C9.27614 10 9.5 10.2239 9.5 10.5C9.5 10.7761 9.27614 11 9 11H5C4.72386 11 4.5 10.7761 4.5 10.5Z" fill="black"/>
<path d="M7.5 15.5C7.5 16.3284 6.82843 17 6 17C5.17157 17 4.5 16.3284 4.5 15.5C4.5 14.6716 5.17157 14 6 14C6.82843 14 7.5 14.6716 7.5 15.5Z" fill="black"/>
<path d="M14.5 14C15.0523 14 15.5 13.5523 15.5 13C15.5 12.4477 15.0523 12 14.5 12C13.9477 12 13.5 12.4477 13.5 13C13.5 13.5523 13.9477 14 14.5 14Z" fill="black"/>
<path d="M15.5 16C15.5 16.5523 15.0523 17 14.5 17C13.9477 17 13.5 16.5523 13.5 16C13.5 15.4477 13.9477 15 14.5 15C15.0523 15 15.5 15.4477 15.5 16Z" fill="black"/>
<path d="M15.5 19C15.5 19.5523 15.0523 20 14.5 20C13.9477 20 13.5 19.5523 13.5 19C13.5 18.4477 13.9477 18 14.5 18C15.0523 18 15.5 18.4477 15.5 19Z" fill="black"/>
<path d="M20.5 19C20.5 19.5523 20.0523 20 19.5 20C18.9477 20 18.5 19.5523 18.5 19C18.5 18.4477 18.9477 18 19.5 18C20.0523 18 20.5 18.4477 20.5 19Z" fill="black"/>
<path d="M17 20C17.5523 20 18 19.5523 18 19C18 18.4477 17.5523 18 17 18C16.4477 18 16 18.4477 16 19C16 19.5523 16.4477 20 17 20Z" fill="black"/>
<path d="M19.5 17C20.0523 17 20.5 16.5523 20.5 16C20.5 15.4477 20.0523 15 19.5 15C18.9477 15 18.5 15.4477 18.5 16C18.5 16.5523 18.9477 17 19.5 17Z" fill="black"/>
<path d="M18 16C18 16.5523 17.5523 17 17 17C16.4477 17 16 16.5523 16 16C16 15.4477 16.4477 15 17 15C17.5523 15 18 15.4477 18 16Z" fill="black"/>
<path d="M20.5 13C20.5 13.5523 20.0523 14 19.5 14C18.9477 14 18.5 13.5523 18.5 13C18.5 12.4477 18.9477 12 19.5 12C20.0523 12 20.5 12.4477 20.5 13Z" fill="black"/>
<path d="M17 14C17.5523 14 18 13.5523 18 13C18 12.4477 17.5523 12 17 12C16.4477 12 16 12.4477 16 13C16 13.5523 16.4477 14 17 14Z" fill="black"/>
<path fill-rule="evenodd" clip-rule="evenodd" d="M11.5 9C11.5 7.89543 12.3954 7 13.5 7H20.5C21.6046 7 22.5 7.89543 22.5 9V20C22.5 21.1046 21.6046 22 20.5 22H13.5C12.3954 22 11.5 21.1046 11.5 20V9ZM13.5 8C12.9477 8 12.5 8.44772 12.5 9V10H21.5V9C21.5 8.44772 21.0523 8 20.5 8H13.5ZM20.5 21C21.0523 21 21.5 20.5523 21.5 20V11H12.5V20C12.5 20.5523 12.9477 21 13.5 21H20.5Z" fill="black"/>
</svg>
