<svg width="25" height="24" viewBox="0 0 25 24" fill="none" xmlns="http://www.w3.org/2000/svg">
<path fill-rule="evenodd" clip-rule="evenodd" d="M7 2C6.17157 2 5.5 2.67157 5.5 3.5V10C4.94772 10 4.5 10.4477 4.5 11V16C4.5 16.5523 4.94772 17 5.5 17V20.5C5.5 21.3284 6.17157 22 7 22H18C18.8284 22 19.5 21.3284 19.5 20.5V17C20.0523 17 20.5 16.5523 20.5 16V11C20.5 10.4477 20.0523 10 19.5 10V6.91421C19.5 6.51639 19.342 6.13486 19.0607 5.85355L15.6464 2.43934C15.3651 2.15804 14.9836 2 14.5858 2H7ZM7 3C6.72386 3 6.5 3.22386 6.5 3.5V10H18.5V7H15.2C14.8134 7 14.5 6.6866 14.5 6.3V3H7ZM7.93872 12.785L7.07739 11.4051H6.06372L7.3938 13.4588L5.92603 15.7H6.96606L7.92114 14.2147L8.87329 15.7H9.91919L8.45142 13.491L9.78735 11.4051H8.78247L7.93872 12.785ZM18 21C18.2761 21 18.5 20.7761 18.5 20.5V17H6.5V20.5C6.5 20.7761 6.72386 21 7 21H18ZM15.5 3.70711L17.7929 6H15.5V3.70711ZM12.6699 14.3348L11.8906 11.4051H10.5928V15.7H11.3984V12.3192L12.2481 15.7H13.083L13.9356 12.3192V15.7H14.7412V11.4051H13.4404L12.6699 14.3348ZM18.8894 15.7V14.9764H16.7332V11.4402H15.866V15.7H18.8894Z" fill="black"/>
</svg>
