<svg width="25" height="24" viewBox="0 0 25 24" fill="none" xmlns="http://www.w3.org/2000/svg">
<path fill-rule="evenodd" clip-rule="evenodd" d="M7.5 5.5C7.5 5.22386 7.72386 5 8 5H17C17.2761 5 17.5 5.22386 17.5 5.5V9H19C19.8284 9 20.5 9.67157 20.5 10.5V16.5C20.5 16.7761 20.2761 17 20 17H18.5C18.2239 17 18 16.7761 18 16.5C18 16.2239 18.2239 16 18.5 16H19.5V10.5C19.5 10.2239 19.2761 10 19 10H6C5.72386 10 5.5 10.2239 5.5 10.5V16H6.5C6.77614 16 7 16.2239 7 16.5C7 16.7761 6.77614 17 6.5 17H5C4.72386 17 4.5 16.7761 4.5 16.5V10.5C4.5 9.67157 5.17157 9 6 9H7.5V5.5ZM16.5 6V9H8.5V6H16.5Z" fill="black"/>
<path d="M9.5 15.47C9.5 15.1938 9.72386 14.97 10 14.97H15C15.2761 14.97 15.5 15.1938 15.5 15.47C15.5 15.7461 15.2761 15.97 15 15.97H10C9.72386 15.97 9.5 15.7461 9.5 15.47Z" fill="black"/>
<path d="M10 16.97C9.72386 16.97 9.5 17.1938 9.5 17.47C9.5 17.7461 9.72386 17.97 10 17.97H15C15.2761 17.97 15.5 17.7461 15.5 17.47C15.5 17.1938 15.2761 16.97 15 16.97H10Z" fill="black"/>
<path fill-rule="evenodd" clip-rule="evenodd" d="M6.5 13.5C6.5 13.7761 6.72386 14 7 14H7.5V19.5C7.5 19.7761 7.72386 20 8 20H17C17.2761 20 17.5 19.7761 17.5 19.5V14H18C18.2761 14 18.5 13.7761 18.5 13.5C18.5 13.2239 18.2761 13 18 13H7C6.72386 13 6.5 13.2239 6.5 13.5ZM8.5 14H16.5V19H8.5V14Z" fill="black"/>
<path d="M7 12C7.27614 12 7.5 11.7761 7.5 11.5C7.5 11.2239 7.27614 11 7 11C6.72386 11 6.5 11.2239 6.5 11.5C6.5 11.7761 6.72386 12 7 12Z" fill="black"/>
</svg>
