<svg width="25" height="24" viewBox="0 0 25 24" fill="none" xmlns="http://www.w3.org/2000/svg">
<path fill-rule="evenodd" clip-rule="evenodd" d="M7 2C6.17157 2 5.5 2.67157 5.5 3.5V10C4.94772 10 4.5 10.4477 4.5 11V16C4.5 16.5523 4.94772 17 5.5 17V20.5C5.5 21.3284 6.17157 22 7 22H18C18.8284 22 19.5 21.3284 19.5 20.5V17C20.0523 17 20.5 16.5523 20.5 16V11C20.5 10.4477 20.0523 10 19.5 10V6.91421C19.5 6.51639 19.342 6.13486 19.0607 5.85355L15.6464 2.43934C15.3651 2.15804 14.9836 2 14.5858 2H7ZM7 3C6.72386 3 6.5 3.22386 6.5 3.5V10H18.5V7H15.2C14.8134 7 14.5 6.6866 14.5 6.3V3H7ZM18.5 15.2783C18.5795 15.2239 18.6497 15.1672 18.7107 15.1082V13.3973H16.8416V14.1209H17.8347V14.6658C17.7039 14.7674 17.5466 14.8543 17.3631 14.9266C17.1814 14.9969 16.9998 15.032 16.8181 15.032C16.4509 15.032 16.1541 14.9051 15.9275 14.6512C15.7009 14.3953 15.5877 14.0125 15.5877 13.5027C15.5877 13.0301 15.699 12.6736 15.9216 12.4334C16.1463 12.1932 16.448 12.0731 16.8269 12.0731C17.0769 12.0731 17.2849 12.1346 17.4509 12.2576C17.6189 12.3787 17.7332 12.5447 17.7937 12.7557L18.655 12.5945C18.6206 12.4365 18.5689 12.2922 18.5 12.1617C18.3969 11.9665 18.2552 11.8022 18.075 11.6688C17.7761 11.4442 17.3601 11.3318 16.8269 11.3318C16.4168 11.3318 16.074 11.4031 15.7986 11.5457C15.4373 11.7313 15.1629 11.9979 14.9754 12.3455C14.7879 12.6932 14.6941 13.0906 14.6941 13.5379C14.6941 13.95 14.7781 14.3318 14.9461 14.6834C15.114 15.033 15.365 15.3026 15.699 15.492C16.033 15.6795 16.4246 15.7733 16.8738 15.7733C17.2273 15.7733 17.5759 15.7068 17.9197 15.574C18.1493 15.4845 18.3428 15.386 18.5 15.2783ZM7 21C6.72386 21 6.5 20.7761 6.5 20.5V17H18.5V20.5C18.5 20.7761 18.2761 21 18 21H7ZM6.5 15.2353C6.54905 15.2952 6.60284 15.3505 6.66138 15.4012C6.95239 15.6512 7.36938 15.7762 7.91235 15.7762C8.2854 15.7762 8.59692 15.7244 8.84692 15.6209C9.09692 15.5154 9.29028 15.3553 9.427 15.1404C9.56372 14.9256 9.63208 14.6951 9.63208 14.449C9.63208 14.1776 9.57446 13.95 9.45923 13.7664C9.34595 13.5809 9.18774 13.4354 8.98462 13.3299C8.78345 13.2225 8.47192 13.119 8.05005 13.0193C7.62817 12.9197 7.36255 12.824 7.25317 12.7322C7.16724 12.66 7.12427 12.5731 7.12427 12.4715C7.12427 12.3602 7.17017 12.2713 7.26196 12.2049C7.40454 12.1014 7.60181 12.0496 7.85376 12.0496C8.0979 12.0496 8.28052 12.0984 8.40161 12.1961C8.52466 12.2918 8.60474 12.45 8.64185 12.6707L9.50903 12.6326C9.49536 12.2381 9.35181 11.9227 9.07837 11.6863C8.80688 11.45 8.40161 11.3318 7.86255 11.3318C7.53247 11.3318 7.25024 11.3817 7.01587 11.4813C6.79573 11.5756 6.62377 11.7111 6.5 11.8878C6.4931 11.8977 6.48634 11.9077 6.47974 11.9178C6.35669 12.1072 6.29517 12.3113 6.29517 12.5301C6.29517 12.7747 6.36344 12.9924 6.5 13.1834C6.5532 13.2578 6.61675 13.3281 6.69067 13.3943C6.87817 13.5623 7.20435 13.7039 7.66919 13.8192C8.03052 13.909 8.26196 13.9715 8.36353 14.0067C8.51196 14.0594 8.61548 14.1219 8.67407 14.1942C8.73462 14.2645 8.76489 14.3504 8.76489 14.452C8.76489 14.6102 8.6936 14.7488 8.55103 14.868C8.4104 14.9852 8.20044 15.0438 7.92114 15.0438C7.65747 15.0438 7.44751 14.9774 7.29126 14.8445C7.13696 14.7117 7.03442 14.5037 6.98364 14.2205L6.13989 14.3026C6.18514 14.6864 6.30518 14.9973 6.5 15.2353ZM15.5 3.70711L17.7929 6H15.5V3.70711ZM10.1621 11.4051L11.6973 15.7H12.6231L14.1611 11.4051H13.2412L12.1895 14.5838L11.1025 11.4051H10.1621Z" fill="black"/>
</svg>
