<svg width="25" height="24" viewBox="0 0 25 24" fill="none" xmlns="http://www.w3.org/2000/svg">
<path fill-rule="evenodd" clip-rule="evenodd" d="M6 3C5.72386 3 5.5 3.22386 5.5 3.5V19.5C5.5 19.7761 5.72386 20 6 20H12.5C12.7761 20 13 20.2239 13 20.5C13 20.7761 12.7761 21 12.5 21H6C5.17157 21 4.5 20.3284 4.5 19.5V3.5C4.5 2.67157 5.17157 2 6 2H13.6015C13.9853 2 14.3545 2.14712 14.6331 2.41107L18.0316 5.63068C18.3306 5.91395 18.5 6.30772 18.5 6.71961V11.5C18.5 11.7761 18.2761 12 18 12C17.7239 12 17.5 11.7761 17.5 11.5V7H14.2C13.8134 7 13.5 6.6866 13.5 6.3V3H6ZM16.7929 6L14.5 3.70711V6H16.7929Z" fill="black"/>
<path fill-rule="evenodd" clip-rule="evenodd" d="M17.751 17.7568C17.6592 17.7236 17.5137 17.707 17.3145 17.707H17.1387V19.5H16.2715V15.2051H18.0967C18.5557 15.2051 18.8887 15.2441 19.0957 15.3223C19.3047 15.3984 19.4717 15.5352 19.5967 15.7324C19.7217 15.9297 19.7842 16.1553 19.7842 16.4092C19.7842 16.7314 19.6895 16.998 19.5 17.209C19.3105 17.418 19.0273 17.5498 18.6504 17.6045C18.8379 17.7139 18.9922 17.834 19.1133 17.9648C19.2363 18.0957 19.4014 18.3281 19.6084 18.6621L20.1328 19.5H19.0957L18.4688 18.5654C18.2461 18.2314 18.0938 18.0215 18.0117 17.9355C17.9297 17.8477 17.8428 17.7881 17.751 17.7568ZM18.4482 15.9463C18.3779 15.9365 18.167 15.9316 17.8154 15.9316H17.1387V17.0215H17.7803C18.1963 17.0215 18.4561 17.0039 18.5596 16.9688C18.6631 16.9336 18.7441 16.873 18.8027 16.7871C18.8613 16.7012 18.8906 16.5938 18.8906 16.4648C18.8906 16.3203 18.8516 16.2041 18.7734 16.1162C18.6973 16.0264 18.5889 15.9697 18.4482 15.9463Z" fill="black"/>
<path fill-rule="evenodd" clip-rule="evenodd" d="M18 13C15.5147 13 13.5 15.0147 13.5 17.5C13.5 19.9853 15.5147 22 18 22C20.4853 22 22.5 19.9853 22.5 17.5C22.5 15.0147 20.4853 13 18 13ZM14.5 17.5C14.5 15.567 16.067 14 18 14C19.933 14 21.5 15.567 21.5 17.5C21.5 19.433 19.933 21 18 21C16.067 21 14.5 19.433 14.5 17.5Z" fill="black"/>
<path d="M7.5 7C7.22386 7 7 7.22386 7 7.5C7 7.77614 7.22386 8 7.5 8H11.07C11.3461 8 11.57 7.77614 11.57 7.5C11.57 7.22386 11.3461 7 11.07 7H7.5Z" fill="black"/>
<path d="M7 12.5C7 12.2239 7.22386 12 7.5 12H13.5C13.7761 12 14 12.2239 14 12.5C14 12.7761 13.7761 13 13.5 13H7.5C7.22386 13 7 12.7761 7 12.5Z" fill="black"/>
<path d="M7.5 9.5C7.22386 9.5 7 9.72386 7 10C7 10.2761 7.22386 10.5 7.5 10.5H15C15.2761 10.5 15.5 10.2761 15.5 10C15.5 9.72386 15.2761 9.5 15 9.5H7.5Z" fill="black"/>
</svg>
