<svg width="25" height="24" viewBox="0 0 25 24" fill="none" xmlns="http://www.w3.org/2000/svg">
<path fill-rule="evenodd" clip-rule="evenodd" d="M7 2C6.17157 2 5.5 2.67157 5.5 3.5V10C4.94772 10 4.5 10.4477 4.5 11V16C4.5 16.5523 4.94772 17 5.5 17V20.5C5.5 21.3284 6.17157 22 7 22H18C18.8284 22 19.5 21.3284 19.5 20.5V17C20.0523 17 20.5 16.5523 20.5 16V11C20.5 10.4477 20.0523 10 19.5 10V6.91421C19.5 6.51639 19.342 6.13486 19.0607 5.85355L15.6464 2.43934C15.3651 2.15804 14.9836 2 14.5858 2H7ZM7 3C6.72386 3 6.5 3.22386 6.5 3.5V10H18.5V7H15.2C14.8134 7 14.5 6.6866 14.5 6.3V3H7ZM6.5 12.6778C6.41618 12.9457 6.37427 13.25 6.37427 13.5906C6.37427 13.9135 6.41618 14.2038 6.5 14.4616C6.59162 14.7434 6.7333 14.9863 6.92505 15.1902C7.29224 15.5789 7.76099 15.7733 8.3313 15.7733C8.79224 15.7733 9.17212 15.66 9.47095 15.4334C9.77173 15.2049 9.98657 14.8563 10.1155 14.3875L9.27466 14.1209C9.20239 14.4354 9.08325 14.6658 8.91724 14.8123C8.75122 14.9588 8.55298 15.032 8.32251 15.032C8.01001 15.032 7.7561 14.9168 7.56079 14.6863C7.36548 14.4559 7.26782 14.0692 7.26782 13.5262C7.26782 13.0145 7.36646 12.6443 7.56372 12.4158C7.76294 12.1873 8.02173 12.0731 8.34009 12.0731C8.57056 12.0731 8.76587 12.1375 8.92603 12.2664C9.08813 12.3953 9.19458 12.5711 9.24536 12.7938L10.1038 12.5887C10.0061 12.2449 9.85962 11.9813 9.66431 11.7977C9.33618 11.4871 8.90942 11.3318 8.38403 11.3318C7.78247 11.3318 7.29712 11.5301 6.92798 11.9266C6.73474 12.1331 6.59208 12.3835 6.5 12.6778ZM18 21C18.2761 21 18.5 20.7761 18.5 20.5V17H6.5V20.5C6.5 20.7761 6.72386 21 7 21H18ZM18.9041 11.4051H17.9841L16.9324 14.5838L15.8455 11.4051H14.905L16.4402 15.7H17.366L18.9041 11.4051ZM15.5 3.70711L17.7929 6H15.5V3.70711ZM11.7266 14.2205L10.8828 14.3026C10.9395 14.783 11.1133 15.1492 11.4043 15.4012C11.6953 15.6512 12.1123 15.7762 12.6553 15.7762C13.0283 15.7762 13.3399 15.7244 13.5899 15.6209C13.8399 15.5154 14.0332 15.3553 14.1699 15.1404C14.3067 14.9256 14.375 14.6951 14.375 14.449C14.375 14.1776 14.3174 13.95 14.2022 13.7664C14.0889 13.5809 13.9307 13.4354 13.7275 13.3299C13.5264 13.2225 13.2149 13.119 12.793 13.0193C12.3711 12.9197 12.1055 12.824 11.9961 12.7322C11.9102 12.66 11.8672 12.5731 11.8672 12.4715C11.8672 12.3602 11.9131 12.2713 12.0049 12.2049C12.1475 12.1014 12.3447 12.0496 12.5967 12.0496C12.8408 12.0496 13.0234 12.0984 13.1445 12.1961C13.2676 12.2918 13.3477 12.45 13.3848 12.6707L14.252 12.6326C14.2383 12.2381 14.0947 11.9227 13.8213 11.6863C13.5498 11.45 13.1445 11.3318 12.6055 11.3318C12.2754 11.3318 11.9932 11.3817 11.7588 11.4813C11.5264 11.5809 11.3477 11.7264 11.2227 11.9178C11.0996 12.1072 11.0381 12.3113 11.0381 12.5301C11.0381 12.8699 11.1699 13.158 11.4336 13.3943C11.6211 13.5623 11.9473 13.7039 12.4121 13.8192C12.7734 13.909 13.0049 13.9715 13.1065 14.0067C13.2549 14.0594 13.3584 14.1219 13.417 14.1942C13.4775 14.2645 13.5078 14.3504 13.5078 14.452C13.5078 14.6102 13.4365 14.7488 13.294 14.868C13.1533 14.9852 12.9434 15.0438 12.6641 15.0438C12.4004 15.0438 12.1904 14.9774 12.0342 14.8445C11.8799 14.7117 11.7774 14.5037 11.7266 14.2205Z" fill="black"/>
</svg>
