<svg width="25" height="24" viewBox="0 0 25 24" fill="none" xmlns="http://www.w3.org/2000/svg">
<path fill-rule="evenodd" clip-rule="evenodd" d="M21.5 11C21.5 10.4477 21.0523 10 20.5 10H19.5V6.91421C19.5 6.51639 19.342 6.13486 19.0607 5.85355L15.6464 2.43934C15.3651 2.15804 14.9836 2 14.5858 2H7C6.17157 2 5.5 2.67157 5.5 3.5V10H4.5C3.94772 10 3.5 10.4477 3.5 11V16C3.5 16.5523 3.94772 17 4.5 17H5.5V20.5C5.5 21.3284 6.17157 22 7 22H18C18.8284 22 19.5 21.3284 19.5 20.5V17H20.5C21.0523 17 21.5 16.5523 21.5 16V11ZM7 3C6.72386 3 6.5 3.22386 6.5 3.5V10H18.5V7H15.2C14.8134 7 14.5 6.6866 14.5 6.3V3H7ZM18 21C18.2761 21 18.5 20.7761 18.5 20.5V17H6.5V20.5C6.5 20.7761 6.72386 21 7 21H18ZM6.34998 15.7H7.29041L8.14294 12.4891L8.99841 15.7H9.91833L10.9613 11.4051H10.0883L9.42908 14.4051L8.67615 11.4051H7.6449L6.85974 14.3553L6.21228 11.4051H5.32458L6.34998 15.7ZM17.7929 6L15.5 3.70711V6H17.7929ZM18.3551 14.9764V11.4402H17.4879V15.7H20.5114V14.9764H18.3551ZM11.6202 15.7V11.4051H12.4874V15.7H11.6202ZM13.58 11.4402V15.7H16.6034V14.9764H14.4472V11.4402H13.58Z" fill="black"/>
</svg>
