<svg width="25" height="24" viewBox="0 0 25 24" fill="none" xmlns="http://www.w3.org/2000/svg">
<path d="M8.10278 12.1609C7.99927 12.1414 7.79126 12.1317 7.47876 12.1317H7.05981V13.3504H7.53442C7.87622 13.3504 8.10474 13.3279 8.21997 13.283C8.33521 13.2381 8.42505 13.1678 8.4895 13.0721C8.55591 12.9764 8.58911 12.8651 8.58911 12.7381C8.58911 12.5818 8.54321 12.4529 8.45142 12.3514C8.35962 12.2498 8.24341 12.1863 8.10278 12.1609Z" fill="black"/>
<path fill-rule="evenodd" clip-rule="evenodd" d="M5.5 3.5C5.5 2.67157 6.17157 2 7 2H14.5858C14.9836 2 15.3651 2.15804 15.6464 2.43934L15.693 2.48593L15.695 2.48786L19.0121 5.80502L19.0141 5.80697L19.0607 5.85355C19.342 6.13486 19.5 6.51639 19.5 6.91421V10C20.0523 10 20.5 10.4477 20.5 11V16C20.5 16.5523 20.0523 17 19.5 17V20.5C19.5 21.3284 18.8284 22 18 22H7C6.17157 22 5.5 21.3284 5.5 20.5V17C4.94772 17 4.5 16.5523 4.5 16V11C4.5 10.4477 4.94772 10 5.5 10V3.5ZM14.5 6.29999C14.5 6.68659 14.8134 6.99999 15.2 6.99999H18.5V10H6.5V3.5C6.5 3.22386 6.72386 3 7 3H14.5V6.29999ZM18.5 11.9117C18.4252 11.8217 18.3392 11.7407 18.242 11.6688C17.9431 11.4442 17.5271 11.3318 16.9939 11.3318C16.5838 11.3318 16.241 11.4031 15.9656 11.5457C15.6043 11.7313 15.3299 11.9979 15.1424 12.3455C14.9549 12.6932 14.8611 13.0906 14.8611 13.5379C14.8611 13.95 14.9451 14.3318 15.1131 14.6834C15.281 15.033 15.532 15.3026 15.866 15.492C16.2 15.6795 16.5916 15.7733 17.0408 15.7733C17.3943 15.7733 17.7429 15.7068 18.0867 15.574C18.2408 15.514 18.3785 15.4498 18.5 15.3816C18.6511 15.2968 18.777 15.2057 18.8777 15.1082V13.3973H17.0086V14.1209H18.0017V14.6658C17.8709 14.7674 17.7136 14.8543 17.53 14.9266C17.3484 14.9969 17.1668 15.032 16.9851 15.032C16.6179 15.032 16.3211 14.9051 16.0945 14.6512C15.8679 14.3953 15.7547 14.0125 15.7547 13.5027C15.7547 13.0301 15.866 12.6736 16.0886 12.4334C16.3133 12.1932 16.615 12.0731 16.9939 12.0731C17.2439 12.0731 17.4519 12.1346 17.6179 12.2576C17.7859 12.3787 17.9002 12.5447 17.9607 12.7557L18.822 12.5945C18.7639 12.3276 18.6565 12.0999 18.5 11.9117ZM18 21C18.2761 21 18.5 20.7761 18.5 20.5V17H6.5V20.5C6.5 20.7761 6.72386 21 7 21H18ZM8.61548 11.4695C8.45532 11.4266 8.11157 11.4051 7.58423 11.4051H6.19263V15.7H7.05981V14.0799H7.62524C8.01782 14.0799 8.31763 14.0594 8.52466 14.0184C8.677 13.9852 8.82642 13.9178 8.9729 13.8162C9.12134 13.7127 9.24341 13.5711 9.33911 13.3914C9.43481 13.2117 9.48267 12.9901 9.48267 12.7264C9.48267 12.3846 9.39966 12.1063 9.23364 11.8914C9.06763 11.6746 8.86157 11.534 8.61548 11.4695ZM17.7929 5.99999L15.5 3.7071V5.99999H17.7929ZM13.0449 14.2733L11.2871 11.4051H10.4434V15.7H11.249V12.8992L12.9805 15.7H13.8506V11.4051H13.0449V14.2733Z" fill="black"/>
</svg>
