<svg width="25" height="24" viewBox="0 0 25 24" fill="none" xmlns="http://www.w3.org/2000/svg">
<path fill-rule="evenodd" clip-rule="evenodd" d="M6 3C5.72386 3 5.5 3.22386 5.5 3.5V19.5C5.5 19.7761 5.72386 20 6 20H12.5C12.7761 20 13 20.2239 13 20.5C13 20.7761 12.7761 21 12.5 21H6C5.17157 21 4.5 20.3284 4.5 19.5V3.5C4.5 2.67157 5.17157 2 6 2H13.6015C13.9853 2 14.3545 2.14712 14.6331 2.41107L18.0316 5.63068C18.3306 5.91395 18.5 6.30772 18.5 6.71961V11.5C18.5 11.7761 18.2761 12 18 12C17.7239 12 17.5 11.7761 17.5 11.5V7H14.2C13.8134 7 13.5 6.6866 13.5 6.3V3H6ZM16.7929 6L14.5 3.70711V6H16.7929Z" fill="black"/>
<path fill-rule="evenodd" clip-rule="evenodd" d="M17.4756 18.6182C17.5615 18.7314 17.6572 18.8135 17.7627 18.8643V17.6367C17.3799 17.5273 17.0986 17.3623 16.9189 17.1416C16.7412 16.9189 16.6523 16.6494 16.6523 16.333C16.6523 16.0127 16.7529 15.7441 16.9541 15.5273C17.1572 15.3086 17.4268 15.1826 17.7627 15.1494V14.8594H18.1875V15.1494C18.498 15.1865 18.7451 15.293 18.9287 15.4688C19.1123 15.6426 19.2295 15.876 19.2803 16.1689L18.5391 16.2656C18.4941 16.0352 18.377 15.8789 18.1875 15.7969V16.9424C18.6562 17.0693 18.9756 17.2344 19.1455 17.4375C19.3154 17.6387 19.4004 17.8975 19.4004 18.2139C19.4004 18.5674 19.293 18.8652 19.0781 19.1074C18.8652 19.3496 18.5684 19.498 18.1875 19.5527V20.1006H17.7627V19.5674C17.4248 19.5264 17.1504 19.4004 16.9395 19.1895C16.7285 18.9785 16.5938 18.6807 16.5352 18.2959L17.2998 18.2139C17.3311 18.3701 17.3896 18.5049 17.4756 18.6182ZM17.7627 15.7881C17.6475 15.8271 17.5557 15.8936 17.4873 15.9873C17.4189 16.0811 17.3848 16.1846 17.3848 16.2979C17.3848 16.4014 17.416 16.498 17.4785 16.5879C17.541 16.6758 17.6357 16.7471 17.7627 16.8018V15.7881ZM18.1875 18.9053C18.334 18.8779 18.4531 18.8105 18.5449 18.7031C18.6367 18.5938 18.6826 18.4658 18.6826 18.3193C18.6826 18.1885 18.6436 18.0762 18.5654 17.9824C18.4893 17.8867 18.3633 17.8135 18.1875 17.7627V18.9053Z" fill="black"/>
<path fill-rule="evenodd" clip-rule="evenodd" d="M18 13C15.5147 13 13.5 15.0147 13.5 17.5C13.5 19.9853 15.5147 22 18 22C20.4853 22 22.5 19.9853 22.5 17.5C22.5 15.0147 20.4853 13 18 13ZM14.5 17.5C14.5 15.567 16.067 14 18 14C19.933 14 21.5 15.567 21.5 17.5C21.5 19.433 19.933 21 18 21C16.067 21 14.5 19.433 14.5 17.5Z" fill="black"/>
<path d="M7.5 7C7.22386 7 7 7.22386 7 7.5C7 7.77614 7.22386 8 7.5 8H11.07C11.3461 8 11.57 7.77614 11.57 7.5C11.57 7.22386 11.3461 7 11.07 7H7.5Z" fill="black"/>
<path d="M7 12.5C7 12.2239 7.22386 12 7.5 12H13.5C13.7761 12 14 12.2239 14 12.5C14 12.7761 13.7761 13 13.5 13H7.5C7.22386 13 7 12.7761 7 12.5Z" fill="black"/>
<path d="M7.5 9.5C7.22386 9.5 7 9.72386 7 10C7 10.2761 7.22386 10.5 7.5 10.5H15C15.2761 10.5 15.5 10.2761 15.5 10C15.5 9.72386 15.2761 9.5 15 9.5H7.5Z" fill="black"/>
</svg>
