<svg width="25" height="24" viewBox="0 0 25 24" fill="none" xmlns="http://www.w3.org/2000/svg">
<path fill-rule="evenodd" clip-rule="evenodd" d="M7 2C6.17157 2 5.5 2.67157 5.5 3.5V8C5.5 8.27614 5.72386 8.5 6 8.5C6.27614 8.5 6.5 8.27614 6.5 8V3.5C6.5 3.22386 6.72386 3 7 3H14.5V6.3C14.5 6.6866 14.8134 7 15.2 7H18.5V10C18.5 10.2761 18.7239 10.5 19 10.5C19.2761 10.5 19.5 10.2761 19.5 10V6.91421C19.5 6.51639 19.342 6.13486 19.0607 5.85355L15.6464 2.43934C15.3651 2.15804 14.9836 2 14.5858 2H7ZM17.7929 6L15.5 3.70711V6H17.7929Z" fill="black"/>
<path d="M7.5 5C7.5 4.72386 7.72386 4.5 8 4.5H12C12.2761 4.5 12.5 4.72386 12.5 5C12.5 5.27614 12.2761 5.5 12 5.5H8C7.72386 5.5 7.5 5.27614 7.5 5Z" fill="black"/>
<path fill-rule="evenodd" clip-rule="evenodd" d="M3.23223 21.2678C2.76339 20.7989 2.5 20.163 2.5 19.5V11.5C2.5 10.837 2.76339 10.2011 3.23223 9.73223C3.70107 9.26339 4.33696 9 5 9H9C9.13261 9 9.25979 9.05268 9.35355 9.14645L11.2071 11H20C20.663 11 21.2989 11.2634 21.7678 11.7322C22.2366 12.2011 22.5 12.837 22.5 13.5V19.5C22.5 20.163 22.2366 20.7989 21.7678 21.2678C21.2989 21.7366 20.663 22 20 22H5C4.33696 22 3.70107 21.7366 3.23223 21.2678ZM3.93934 10.4393C4.22064 10.158 4.60218 10 5 10H8.79289L10.6464 11.8536C10.7402 11.9473 10.8674 12 11 12H20C20.3978 12 20.7794 12.158 21.0607 12.4393C21.342 12.7206 21.5 13.1022 21.5 13.5V15H3.5V11.5C3.5 11.1022 3.65804 10.7206 3.93934 10.4393ZM3.93934 20.5607C3.65804 20.2794 3.5 19.8978 3.5 19.5V16H21.5V19.5C21.5 19.8978 21.342 20.2794 21.0607 20.5607C20.7794 20.842 20.3978 21 20 21H5C4.60218 21 4.22064 20.842 3.93934 20.5607Z" fill="black"/>
<path d="M8 6.5C7.72386 6.5 7.5 6.72386 7.5 7C7.5 7.27614 7.72386 7.5 8 7.5H12C12.2761 7.5 12.5 7.27614 12.5 7C12.5 6.72386 12.2761 6.5 12 6.5H8Z" fill="black"/>
</svg>
