<svg width="25" height="24" viewBox="0 0 25 24" fill="none" xmlns="http://www.w3.org/2000/svg">
<path fill-rule="evenodd" clip-rule="evenodd" d="M5.5 3.5C5.5 3.22386 5.72386 3 6 3H13.5V6.29999C13.5 6.68659 13.8134 6.99999 14.2 6.99999H17.5V11.5C17.5 11.7761 17.7239 12 18 12C18.2761 12 18.5 11.7761 18.5 11.5V6.71961C18.5 6.30772 18.3306 5.91395 18.0316 5.63068L14.6331 2.41107C14.3545 2.14712 13.9853 2 13.6015 2H6C5.17157 2 4.5 2.67157 4.5 3.5V19.5C4.5 20.3284 5.17157 21 6 21H12.5C12.7761 21 13 20.7761 13 20.5C13 20.2239 12.7761 20 12.5 20H6C5.72386 20 5.5 19.7761 5.5 19.5V3.5ZM16.7929 5.99999L14.5 3.7071V5.99999H16.7929Z" fill="black"/>
<path d="M7.5 7C7.22386 7 7 7.22386 7 7.5C7 7.77614 7.22386 8 7.5 8H11.07C11.3461 8 11.57 7.77614 11.57 7.5C11.57 7.22386 11.3461 7 11.07 7H7.5Z" fill="black"/>
<path d="M20.3536 17.8536L18.8536 19.3536C18.6583 19.5488 18.3417 19.5488 18.1464 19.3536C17.9512 19.1583 17.9512 18.8417 18.1464 18.6464L18.7929 18H16C15.7239 18 15.5 17.7761 15.5 17.5C15.5 17.2239 15.7239 17 16 17H18.7929L18.1464 16.3536C17.9512 16.1583 17.9512 15.8417 18.1464 15.6464C18.3417 15.4512 18.6583 15.4512 18.8536 15.6464L20.3536 17.1464C20.5488 17.3417 20.5488 17.6583 20.3536 17.8536Z" fill="black"/>
<path fill-rule="evenodd" clip-rule="evenodd" d="M18 13C15.5147 13 13.5 15.0147 13.5 17.5C13.5 19.9853 15.5147 22 18 22C20.4853 22 22.5 19.9853 22.5 17.5C22.5 15.0147 20.4853 13 18 13ZM14.5 17.5C14.5 15.567 16.067 14 18 14C19.933 14 21.5 15.567 21.5 17.5C21.5 19.433 19.933 21 18 21C16.067 21 14.5 19.433 14.5 17.5Z" fill="black"/>
<path d="M7 12.5C7 12.2239 7.22386 12 7.5 12H13.5C13.7761 12 14 12.2239 14 12.5C14 12.7761 13.7761 13 13.5 13H7.5C7.22386 13 7 12.7761 7 12.5Z" fill="black"/>
<path d="M7.5 9.5C7.22386 9.5 7 9.72386 7 10C7 10.2761 7.22386 10.5 7.5 10.5H15C15.2761 10.5 15.5 10.2761 15.5 10C15.5 9.72386 15.2761 9.5 15 9.5H7.5Z" fill="black"/>
</svg>
