<svg width="25" height="24" viewBox="0 0 25 24" fill="none" xmlns="http://www.w3.org/2000/svg">
<path d="M8.72095 13.283C8.60571 13.3279 8.3772 13.3504 8.0354 13.3504H7.56079V12.1317H7.97974C8.29224 12.1317 8.50024 12.1414 8.60376 12.1609C8.74438 12.1863 8.8606 12.2498 8.95239 12.3514C9.04419 12.4529 9.09009 12.5818 9.09009 12.7381C9.09009 12.8651 9.05688 12.9764 8.99048 13.0721C8.92603 13.1678 8.83618 13.2381 8.72095 13.283Z" fill="black"/>
<path d="M12.9014 12.1727C12.7803 12.1453 12.543 12.1317 12.1895 12.1317H11.7998V14.9764H12.4473C12.6895 14.9764 12.8643 14.9627 12.9717 14.9354C13.1123 14.9002 13.2285 14.8406 13.3203 14.7567C13.4141 14.6727 13.4902 14.535 13.5488 14.3436C13.6074 14.1502 13.6367 13.8875 13.6367 13.5555C13.6367 13.2234 13.6074 12.9686 13.5488 12.7908C13.4902 12.6131 13.4082 12.4744 13.3027 12.3748C13.1973 12.2752 13.0635 12.2078 12.9014 12.1727Z" fill="black"/>
<path fill-rule="evenodd" clip-rule="evenodd" d="M20.5 11C20.5 10.4477 20.0523 10 19.5 10V6.91421C19.5 6.51639 19.342 6.13486 19.0607 5.85355L15.6464 2.43934C15.3651 2.15804 14.9836 2 14.5858 2H7C6.17157 2 5.5 2.67157 5.5 3.5V10C4.94772 10 4.5 10.4477 4.5 11V16C4.5 16.5523 4.94772 17 5.5 17V20.5C5.5 21.3284 6.17157 22 7 22H18C18.8284 22 19.5 21.3284 19.5 20.5V17C20.0523 17 20.5 16.5523 20.5 16V11ZM7 3C6.72386 3 6.5 3.22386 6.5 3.5V10H18.5V7H15.2C14.8134 7 14.5 6.6866 14.5 6.3V3H7ZM18 21C18.2761 21 18.5 20.7761 18.5 20.5V17H6.5V20.5C6.5 20.7761 6.72386 21 7 21H18ZM15.5 3.70711L17.7929 6H15.5V3.70711ZM9.11646 11.4695C8.9563 11.4266 8.61255 11.4051 8.08521 11.4051H6.6936V15.7H7.56079V14.0799H8.12622C8.5188 14.0799 8.8186 14.0594 9.02563 14.0184C9.17798 13.9852 9.32739 13.9178 9.47388 13.8162C9.62231 13.7127 9.74438 13.5711 9.84009 13.3914C9.93579 13.2117 9.98364 12.9901 9.98364 12.7264C9.98364 12.3846 9.90063 12.1063 9.73462 11.8914C9.5686 11.6746 9.36255 11.534 9.11646 11.4695ZM13.335 11.4871C13.1475 11.4324 12.875 11.4051 12.5176 11.4051H10.9326V15.7H12.5645C12.8848 15.7 13.1406 15.6697 13.332 15.6092C13.5879 15.5272 13.791 15.4129 13.9414 15.2664C14.1406 15.0731 14.294 14.8201 14.4014 14.5076C14.4893 14.2518 14.5332 13.9471 14.5332 13.5936C14.5332 13.1912 14.4863 12.8533 14.3926 12.5799C14.2988 12.3045 14.1621 12.0721 13.9824 11.8826C13.8027 11.6932 13.5869 11.5613 13.335 11.4871ZM15.5174 15.7V11.4051H18.4617V12.1317H16.3845V13.1483H18.1775V13.8748H16.3845V15.7H15.5174Z" fill="black"/>
</svg>
