<svg width="25" height="24" viewBox="0 0 25 24" fill="none" xmlns="http://www.w3.org/2000/svg">
<path d="M12.1807 12.1609C12.0772 12.1414 11.8692 12.1317 11.5567 12.1317H11.1377V13.3504H11.6123C11.9541 13.3504 12.1826 13.3279 12.2979 13.283C12.4131 13.2381 12.5029 13.1678 12.5674 13.0721C12.6338 12.9764 12.667 12.8651 12.667 12.7381C12.667 12.5818 12.6211 12.4529 12.5293 12.3514C12.4375 12.2498 12.3213 12.1863 12.1807 12.1609Z" fill="black"/>
<path fill-rule="evenodd" clip-rule="evenodd" d="M5.5 10C4.94772 10 4.5 10.4477 4.5 11V16C4.5 16.5523 4.94772 17 5.5 17V20.5C5.5 21.3284 6.17157 22 7 22H18C18.8284 22 19.5 21.3284 19.5 20.5V17C20.0523 17 20.5 16.5523 20.5 16V11C20.5 10.4477 20.0523 10 19.5 10V6.91421C19.5 6.51639 19.342 6.13486 19.0607 5.85355L15.6464 2.43934C15.3651 2.15804 14.9836 2 14.5858 2H7C6.17157 2 5.5 2.67157 5.5 3.5V10ZM6.5 3.5C6.5 3.22386 6.72386 3 7 3H14.5V6.3C14.5 6.6866 14.8134 7 15.2 7H18.5V10H6.5V3.5ZM6.70239 15.4188C6.62031 15.3332 6.55285 15.2334 6.5 15.1193V14.3564L7.17407 14.2791C7.18384 14.5252 7.21997 14.699 7.28247 14.8006C7.37622 14.9549 7.5188 15.032 7.71021 15.032C7.90356 15.032 8.04028 14.9774 8.12036 14.868C8.20044 14.7567 8.24048 14.5272 8.24048 14.1795V11.4051H9.10474V14.1238C9.10474 14.4793 9.07349 14.7527 9.01099 14.9442C8.927 15.1942 8.77466 15.3953 8.55396 15.5477C8.33325 15.6981 8.04224 15.7733 7.68091 15.7733C7.25708 15.7733 6.93091 15.6551 6.70239 15.4188ZM7 21C6.72386 21 6.5 20.7761 6.5 20.5V17H18.5V20.5C18.5 20.7761 18.2761 21 18 21H7ZM17.7929 6L15.5 3.70711V6H17.7929ZM17.032 14.9266C17.2156 14.8543 17.3728 14.7674 17.5037 14.6658V14.1209H16.5105V13.3973H18.3797V15.1082C18.198 15.284 17.9343 15.4393 17.5886 15.574C17.2449 15.7068 16.8963 15.7733 16.5427 15.7733C16.0935 15.7733 15.7019 15.6795 15.3679 15.492C15.034 15.3026 14.783 15.033 14.615 14.6834C14.447 14.3318 14.3631 13.95 14.3631 13.5379C14.3631 13.0906 14.4568 12.6932 14.6443 12.3455C14.8318 11.9979 15.1062 11.7313 15.4675 11.5457C15.7429 11.4031 16.0857 11.3318 16.4959 11.3318C17.0291 11.3318 17.4451 11.4442 17.7439 11.6688C18.0447 11.8914 18.2381 12.2 18.324 12.5945L17.4627 12.7557C17.4021 12.5447 17.2879 12.3787 17.1199 12.2576C16.9539 12.1346 16.7459 12.0731 16.4959 12.0731C16.117 12.0731 15.8152 12.1932 15.5906 12.4334C15.3679 12.6736 15.2566 13.0301 15.2566 13.5027C15.2566 14.0125 15.3699 14.3953 15.5965 14.6512C15.823 14.9051 16.1199 15.032 16.4871 15.032C16.6687 15.032 16.8504 14.9969 17.032 14.9266ZM12.6934 11.4695C12.5332 11.4266 12.1895 11.4051 11.6621 11.4051H10.2705V15.7H11.1377V14.0799H11.7031C12.0957 14.0799 12.3955 14.0594 12.6025 14.0184C12.7549 13.9852 12.9043 13.9178 13.0508 13.8162C13.1992 13.7127 13.3213 13.5711 13.417 13.3914C13.5127 13.2117 13.5606 12.9901 13.5606 12.7264C13.5606 12.3846 13.4775 12.1063 13.3115 11.8914C13.1455 11.6746 12.9395 11.534 12.6934 11.4695Z" fill="black"/>
</svg>
