<svg width="25" height="24" viewBox="0 0 25 24" fill="none" xmlns="http://www.w3.org/2000/svg">
<path d="M6.63184 12.3748C6.59194 12.3371 6.548 12.3041 6.5 12.2756C6.4211 12.2288 6.33126 12.1945 6.23047 12.1727C6.10938 12.1453 5.87207 12.1317 5.51855 12.1317H5.12891V14.9764H5.77637C6.01855 14.9764 6.19336 14.9627 6.30078 14.9354C6.37376 14.9171 6.44017 14.8923 6.5 14.8609C6.55545 14.8318 6.60526 14.7971 6.64941 14.7567C6.74316 14.6727 6.81934 14.535 6.87793 14.3436C6.93652 14.1502 6.96582 13.8875 6.96582 13.5555C6.96582 13.2234 6.93652 12.9686 6.87793 12.7908C6.81934 12.6131 6.7373 12.4744 6.63184 12.3748Z" fill="black"/>
<path d="M9.31836 13.5496C9.31836 14.0359 9.43066 14.4051 9.65527 14.657C9.87988 14.907 10.165 15.032 10.5107 15.032C10.8564 15.032 11.1396 14.908 11.3604 14.66C11.583 14.41 11.6943 14.0359 11.6943 13.5379C11.6943 13.0457 11.5859 12.6785 11.3691 12.4363C11.1543 12.1942 10.8682 12.0731 10.5107 12.0731C10.1533 12.0731 9.86523 12.1961 9.64648 12.4422C9.42773 12.6863 9.31836 13.0555 9.31836 13.5496Z" fill="black"/>
<path fill-rule="evenodd" clip-rule="evenodd" d="M22.5 11C22.5 10.4477 22.0523 10 21.5 10H19.5V6.91421C19.5 6.51639 19.342 6.13486 19.0607 5.85355L15.6464 2.43934C15.3651 2.15804 14.9836 2 14.5858 2H7C6.17157 2 5.5 2.67157 5.5 3.5V10H3.5C2.94772 10 2.5 10.4477 2.5 11V16C2.5 16.5523 2.94772 17 3.5 17H5.5V20.5C5.5 21.3284 6.17157 22 7 22H18C18.8284 22 19.5 21.3284 19.5 20.5V17H21.5C22.0523 17 22.5 16.5523 22.5 16V11ZM7 3C6.72386 3 6.5 3.22386 6.5 3.5V10H18.5V7H15.2C14.8134 7 14.5 6.6866 14.5 6.3V3H7ZM19.1826 12.785L18.3213 11.4051H17.3076L18.6377 13.4588L17.1699 15.7H18.21L19.165 14.2147L20.1172 15.7H21.1631L19.6953 13.491L21.0312 11.4051H20.0264L19.1826 12.785ZM18 21C18.2761 21 18.5 20.7761 18.5 20.5V17H6.5V20.5C6.5 20.7761 6.72386 21 7 21H18ZM6.5 15.65C6.55801 15.6384 6.61172 15.6248 6.66113 15.6092C6.91699 15.5272 7.12012 15.4129 7.27051 15.2664C7.46973 15.0731 7.62305 14.8201 7.73047 14.5076C7.81836 14.2518 7.8623 13.9471 7.8623 13.5936C7.8623 13.1912 7.81543 12.8533 7.72168 12.5799C7.62793 12.3045 7.49121 12.0721 7.31152 11.8826C7.13184 11.6932 6.91602 11.5613 6.66406 11.4871C6.61516 11.4729 6.56047 11.4605 6.5 11.4499C6.32865 11.42 6.11087 11.4051 5.84668 11.4051H4.26172V15.7H5.89355C6.13117 15.7 6.33332 15.6834 6.5 15.65ZM17.7929 6L15.5 3.70711V6H17.7929ZM8.4248 13.5789C8.4248 13.1414 8.49023 12.7742 8.62109 12.4774C8.71875 12.2586 8.85156 12.0623 9.01953 11.8885C9.18945 11.7147 9.375 11.5858 9.57617 11.5018C9.84375 11.3885 10.1523 11.3318 10.502 11.3318C11.1348 11.3318 11.6406 11.5281 12.0195 11.9207C12.4004 12.3133 12.5908 12.8592 12.5908 13.5584C12.5908 14.2518 12.4023 14.7947 12.0254 15.1873C11.6484 15.5779 11.1445 15.7733 10.5137 15.7733C9.875 15.7733 9.36719 15.5789 8.99023 15.1902C8.61328 14.7996 8.4248 14.2625 8.4248 13.5789ZM16.8594 14.3875L16.0186 14.1209C15.9463 14.4354 15.8271 14.6658 15.6611 14.8123C15.4951 14.9588 15.2969 15.032 15.0664 15.032C14.7539 15.032 14.5 14.9168 14.3047 14.6863C14.1094 14.4559 14.0117 14.0692 14.0117 13.5262C14.0117 13.0145 14.1104 12.6443 14.3076 12.4158C14.5068 12.1873 14.7656 12.0731 15.084 12.0731C15.3145 12.0731 15.5098 12.1375 15.6699 12.2664C15.832 12.3953 15.9385 12.5711 15.9893 12.7938L16.8477 12.5887C16.75 12.2449 16.6035 11.9813 16.4082 11.7977C16.0801 11.4871 15.6533 11.3318 15.1279 11.3318C14.5264 11.3318 14.041 11.5301 13.6719 11.9266C13.3027 12.3211 13.1182 12.8758 13.1182 13.5906C13.1182 14.2664 13.3018 14.7996 13.6689 15.1902C14.0361 15.5789 14.5049 15.7733 15.0752 15.7733C15.5361 15.7733 15.916 15.66 16.2148 15.4334C16.5156 15.2049 16.7305 14.8563 16.8594 14.3875Z" fill="black"/>
</svg>
