<svg width="25" height="24" viewBox="0 0 25 24" fill="none" xmlns="http://www.w3.org/2000/svg">
<path fill-rule="evenodd" clip-rule="evenodd" d="M12.5 2C6.97715 2 2.5 6.47715 2.5 12C2.5 17.5228 6.97715 22 12.5 22C18.0228 22 22.5 17.5228 22.5 12C22.5 6.47715 18.0228 2 12.5 2ZM8.85355 7.64645C8.65829 7.45118 8.34171 7.45118 8.14645 7.64645C7.95118 7.84171 7.95118 8.15829 8.14645 8.35355L11.7929 12L8.14645 15.6464C7.95118 15.8417 7.95118 16.1583 8.14645 16.3536C8.34171 16.5488 8.65829 16.5488 8.85355 16.3536L12.5 12.7071L16.1464 16.3536C16.3417 16.5488 16.6583 16.5488 16.8536 16.3536C17.0488 16.1583 17.0488 15.8417 16.8536 15.6464L13.2071 12L16.8536 8.35355C17.0488 8.15829 17.0488 7.84171 16.8536 7.64645C16.6583 7.45118 16.3417 7.45118 16.1464 7.64645L12.5 11.2929L8.85355 7.64645Z" fill="black"/>
</svg>
