<svg width="25" height="24" viewBox="0 0 25 24" fill="none" xmlns="http://www.w3.org/2000/svg">
<path d="M19.4302 3.49666C19.4283 3.22053 19.203 2.99817 18.9268 3.00001C18.6507 3.00185 18.4283 3.2272 18.4302 3.50334L18.442 5.27524C17.4121 4.37822 16.1874 3.72307 14.8579 3.36593C13.1227 2.89984 11.2879 2.96256 9.58856 3.54605C7.88927 4.12954 6.40295 5.20721 5.32012 6.64093C4.2373 8.07464 3.60729 9.79906 3.51089 11.5931L3.51075 11.5961C3.47693 12.3031 3.52299 13.0116 3.64805 13.7083C3.69684 13.9801 3.95673 14.1609 4.22852 14.1121C4.50032 14.0633 4.68111 13.8034 4.63232 13.5316C4.52063 12.9095 4.47944 12.2767 4.50954 11.6453C4.59552 10.0507 5.15562 8.51798 6.11811 7.24361C7.08088 5.96884 8.40243 5.01065 9.91333 4.49185C11.4242 3.97304 13.0556 3.91728 14.5984 4.33169C15.769 4.64613 16.8481 5.22037 17.7583 6.00595L16.9477 6.01001C16.9278 6.01011 16.9081 6.01137 16.8888 6.01373L15.9469 6.02001C15.6707 6.02185 15.4484 6.2472 15.4502 6.52333C15.452 6.79947 15.6774 7.02183 15.9535 7.01999L18.9527 6.99999C19.0853 6.99933 19.2122 6.94602 19.3055 6.85178C19.3988 6.75754 19.4509 6.6301 19.4502 6.4975L19.4402 4.4975C19.4401 4.47756 19.4388 4.45791 19.4365 4.4386L19.4302 3.49666Z" fill="black"/>
<path d="M8.05279 18.09C8.07274 18.0899 8.09241 18.0886 8.11174 18.0862L9.05361 18.0799C9.32975 18.0781 9.55211 17.8528 9.55027 17.5766C9.54843 17.3005 9.32308 17.0781 9.04694 17.08L6.04779 17.1C5.91727 17.1006 5.79868 17.1512 5.71005 17.2336C5.70473 17.2385 5.69951 17.2436 5.69439 17.2488C5.60125 17.3432 5.54942 17.4699 5.5503 17.6025L5.56029 19.6025C5.56039 19.6224 5.56166 19.6421 5.56403 19.6614L5.57031 20.6033C5.57215 20.8794 5.7975 21.1018 6.07363 21.0999C6.34977 21.0981 6.57213 20.8728 6.57029 20.5966L6.55847 18.8247C7.58841 19.7217 8.81305 20.3769 10.1426 20.734C11.8778 21.2001 13.7126 21.1374 15.4119 20.5539C17.1112 19.9704 18.5975 18.8927 19.6804 17.459C20.7632 16.0253 21.3932 14.3009 21.4896 12.5068L21.4897 12.5039C21.5235 11.7969 21.4775 11.0883 21.3524 10.3916C21.3036 10.1198 21.0437 9.93906 20.7719 9.98785C20.5002 10.0366 20.3194 10.2965 20.3682 10.5683C20.4798 11.1905 20.521 11.8232 20.4909 12.4546C20.405 14.0492 19.8449 15.582 18.8824 16.8564C17.9196 18.1311 16.5981 19.0893 15.0872 19.6081C13.5763 20.1269 11.9448 20.1827 10.402 19.7683C9.23146 19.4538 8.15235 18.8796 7.24222 18.094L8.05279 18.09Z" fill="black"/>
</svg>
