<svg width="25" height="24" viewBox="0 0 25 24" fill="none" xmlns="http://www.w3.org/2000/svg">
<path d="M16.3633 7.00586H6.99942C6.60175 7.00586 6.22037 7.16371 5.93917 7.44469C5.65797 7.72567 5.5 8.10676 5.5 8.50412V15.496C5.5 15.8934 5.65797 16.2745 5.93917 16.5554C6.22037 16.8364 6.60175 16.9943 6.99942 16.9943L16.3647 16.9943C16.4082 16.9981 16.4519 17 16.4957 17C16.6937 17 16.8897 16.9608 17.0724 16.8848C17.2551 16.8087 17.4209 16.6972 17.5603 16.5568C17.5792 16.5378 17.5966 16.5172 17.6122 16.4954L20.0891 13.0304C20.2143 12.8983 20.3145 12.7444 20.3847 12.5762C20.4608 12.3936 20.5 12.1978 20.5 12C20.5 11.8022 20.4608 11.6064 20.3847 11.4238C20.3145 11.2556 20.2143 11.1017 20.0891 10.9696L17.6122 7.50459C17.5966 7.48277 17.5792 7.46223 17.5603 7.44318C17.4209 7.30275 17.2551 7.19129 17.0724 7.11523C16.8897 7.03916 16.6937 7 16.4957 7C16.4514 7 16.4072 7.00196 16.3633 7.00586Z" fill="black"/>
</svg>
