<svg width="25" height="24" viewBox="0 0 25 24" fill="none" xmlns="http://www.w3.org/2000/svg">
<path d="M5 12C4.72386 12 4.5 11.7761 4.5 11.5L4.5 7.5C4.5 6.57175 4.86875 5.68151 5.52512 5.02513C6.1815 4.36875 7.07174 4 8 4H9.7929L8.64645 2.85355C8.45118 2.65829 8.45118 2.34171 8.64645 2.14645C8.84171 1.95118 9.15829 1.95118 9.35355 2.14645L11.3536 4.14645C11.4018 4.19471 11.4382 4.25039 11.4626 4.30981C11.4867 4.36844 11.5 4.43267 11.5 4.50001C11.5 4.56826 11.4863 4.63332 11.4616 4.69259C11.4387 4.74755 11.4055 4.79925 11.3621 4.84478L11.3525 4.85458L9.35355 6.85356C9.15829 7.04882 8.84171 7.04882 8.64645 6.85356C8.45118 6.65829 8.45118 6.34171 8.64645 6.14645L9.79289 5H8C7.33696 5 6.70107 5.2634 6.23223 5.73224C5.76339 6.20108 5.5 6.83696 5.5 7.5L5.5 11.5C5.5 11.7761 5.27614 12 5 12Z" fill="black"/>
<path fill-rule="evenodd" clip-rule="evenodd" d="M14 2C13.7239 2 13.5 2.22386 13.5 2.5V9.5C13.5 9.77614 13.7239 10 14 10H22C22.2761 10 22.5 9.77614 22.5 9.5V2.5C22.5 2.22386 22.2761 2 22 2H14ZM14.5 9V3H21.5V9H14.5Z" fill="black"/>
<path d="M2.5 14.5C2.5 14.2239 2.72386 14 3 14H11C11.2761 14 11.5 14.2239 11.5 14.5V21.5C11.5 21.7761 11.2761 22 11 22H3C2.72386 22 2.5 21.7761 2.5 21.5V14.5Z" fill="black"/>
<path d="M20.5 12.5C20.5 12.2239 20.2761 12 20 12C19.7239 12 19.5 12.2239 19.5 12.5V16.5C19.5 17.163 19.2366 17.7989 18.7678 18.2678C18.2989 18.7366 17.663 19 17 19H15.2071L16.3536 17.8536C16.5488 17.6583 16.5488 17.3417 16.3536 17.1465C16.1583 16.9512 15.8417 16.9512 15.6464 17.1465L13.6475 19.1454L13.6379 19.1552C13.5945 19.2008 13.5613 19.2525 13.5384 19.3074C13.5137 19.3667 13.5 19.4317 13.5 19.5C13.5 19.5673 13.5133 19.6316 13.5374 19.6902C13.5618 19.7496 13.5982 19.8053 13.6464 19.8536L15.6464 21.8536C15.8417 22.0488 16.1583 22.0488 16.3536 21.8536C16.5488 21.6583 16.5488 21.3417 16.3536 21.1465L15.2071 20H17C17.9283 20 18.8185 19.6313 19.4749 18.9749C20.1313 18.3185 20.5 17.4283 20.5 16.5V12.5Z" fill="black"/>
</svg>
