<svg width="25" height="24" viewBox="0 0 25 24" fill="none" xmlns="http://www.w3.org/2000/svg">
<path d="M11.9598 1.5C12.236 1.5 12.4598 1.72386 12.4598 2V6C12.4598 6.27614 12.236 6.5 11.9598 6.5C11.6837 6.5 11.4598 6.27614 11.4598 6V2C11.4598 1.72386 11.6837 1.5 11.9598 1.5Z" fill="black"/>
<path d="M7.31339 3.64645C7.11813 3.45118 6.80155 3.45118 6.60629 3.64645C6.41102 3.84171 6.41102 4.15829 6.60629 4.35355L9.60629 7.35355C9.80155 7.54882 10.1181 7.54882 10.3134 7.35355C10.5087 7.15829 10.5087 6.84171 10.3134 6.64645L7.31339 3.64645Z" fill="black"/>
<path d="M16.5532 6.77614C17.4305 6.42312 18.4118 6.43155 19.2829 6.79959C20.154 7.16763 20.8441 7.86537 21.2026 8.74048L21.2037 8.74333C21.5567 9.62062 21.5483 10.602 21.1803 11.4731C20.8122 12.3442 20.1145 13.0343 19.2394 13.3927L19.2379 13.3933L13.5486 15.703C12.6726 16.0601 11.6908 16.0548 10.8187 15.6885C9.94654 15.3223 9.25544 14.6248 8.89712 13.7494C8.79252 13.4938 8.9149 13.2018 9.17046 13.0972C9.42603 12.9926 9.718 13.115 9.8226 13.3706C10.0805 14.0008 10.5781 14.5029 11.2059 14.7666C11.8337 15.0303 12.5406 15.034 13.1711 14.777L18.8604 12.4673C19.4907 12.2089 19.994 11.7114 20.2591 11.0839C20.5241 10.4566 20.5304 9.74995 20.2766 9.11807C20.0181 8.48807 19.5211 7.98578 18.8938 7.72075C18.266 7.45552 17.5588 7.44944 16.9266 7.70381L14.4468 8.70372C14.1907 8.80698 13.8994 8.68308 13.7961 8.42698C13.6929 8.17087 13.8168 7.87954 14.0729 7.77627L16.5532 6.77614Z" fill="black"/>
<path d="M9.01886 10.6891C9.9418 10.4715 10.9134 10.6278 11.7215 11.124C11.9568 11.2685 12.0304 11.5764 11.8859 11.8117C11.7414 12.047 11.4335 12.1206 11.1982 11.9762C10.6152 11.6182 9.91426 11.5054 9.24841 11.6624C8.58255 11.8195 8.00588 12.2336 7.64429 12.8143L7.6437 12.8153L4.38494 18.0233L4.38436 18.0242C4.20675 18.3113 4.08745 18.6306 4.03329 18.9639C3.97906 19.2975 3.99118 19.6385 4.06894 19.9675C4.1467 20.2964 4.28858 20.6068 4.48645 20.8808C4.68433 21.1548 4.9343 21.3871 5.22207 21.5644L5.22444 21.5658C5.51131 21.7447 5.83077 21.8651 6.16439 21.9199C6.49801 21.9747 6.83918 21.9628 7.1682 21.885C7.49722 21.8072 7.80757 21.6651 8.08135 21.4667C8.35512 21.2683 8.58689 21.0177 8.76326 20.7292L8.76642 20.7241L10.9464 17.2541C11.0933 17.0203 11.402 16.9498 11.6358 17.0967C11.8696 17.2436 11.9401 17.5522 11.7932 17.7861L9.61476 21.2536C9.36968 21.6536 9.04797 22.0012 8.66811 22.2764C8.2874 22.5523 7.85582 22.75 7.39827 22.8582C6.94072 22.9664 6.46629 22.9828 6.00234 22.9066C5.53881 22.8305 5.09493 22.6634 4.69628 22.415C4.29708 22.1688 3.9503 21.8464 3.67573 21.4662C3.40087 21.0856 3.20378 20.6545 3.09576 20.1975C2.98775 19.7406 2.97092 19.2669 3.04624 18.8035C3.12156 18.34 3.28756 17.896 3.53472 17.4968L3.53597 17.4948L6.79538 12.2858C7.2966 11.4811 8.0961 10.9068 9.01886 10.6891Z" fill="black"/>
<path d="M4.95984 8.5C4.6837 8.5 4.45984 8.72386 4.45984 9C4.45984 9.27614 4.6837 9.5 4.95984 9.5H8.95984C9.23598 9.5 9.45984 9.27614 9.45984 9C9.45984 8.72386 9.23598 8.5 8.95984 8.5H4.95984Z" fill="black"/>
</svg>
