<svg width="25" height="24" viewBox="0 0 25 24" fill="none" xmlns="http://www.w3.org/2000/svg">
<path fill-rule="evenodd" clip-rule="evenodd" d="M9.99987 2.5C9.99987 1.94772 10.4476 1.5 10.9999 1.5H13.9999C14.5522 1.5 14.9999 1.94772 14.9999 2.5V4.92691C15.878 5.2373 16.6808 5.70637 17.3737 6.29934L19.4771 5.08495C19.9554 4.8088 20.567 4.97268 20.8431 5.45097L22.3431 8.04905C22.6193 8.52734 22.4554 9.13893 21.9771 9.41507L19.8747 10.6289C19.957 11.0737 19.9999 11.5321 19.9999 12C19.9999 12.4679 19.957 12.9263 19.8747 13.3711L21.9771 14.5849C22.4554 14.8611 22.6193 15.4727 22.3431 15.951L20.8431 18.549C20.567 19.0273 19.9554 19.1912 19.4771 18.9151L17.3737 17.7007C16.6808 18.2936 15.878 18.7627 14.9999 19.0731V21.5C14.9999 22.0523 14.5522 22.5 13.9999 22.5H10.9999C10.4476 22.5 9.99987 22.0523 9.99987 21.5V19.0731C9.12171 18.7627 8.31899 18.2936 7.62603 17.7007L5.52263 18.9151C5.04434 19.1912 4.43275 19.0273 4.1566 18.549L2.6566 15.951C2.38046 15.4727 2.54434 14.8611 3.02263 14.5849L5.12501 13.3711C5.04279 12.9263 4.99987 12.468 4.99987 12C4.99987 11.5321 5.04279 11.0737 5.12501 10.6289L3.02263 9.41507C2.54433 9.13893 2.38046 8.52734 2.6566 8.04904L4.1566 5.45097C4.43275 4.97267 5.04434 4.8088 5.52263 5.08494L7.62602 6.29934C8.31898 5.70637 9.12171 5.2373 9.99987 4.92691V2.5ZM12.4999 8.5C10.5669 8.5 8.99987 10.067 8.99987 12C8.99987 13.933 10.5669 15.5 12.4999 15.5C14.4329 15.5 15.9999 13.933 15.9999 12C15.9999 10.067 14.4329 8.5 12.4999 8.5Z" fill="black"/>
</svg>
