<svg width="25" height="24" viewBox="0 0 25 24" fill="none" xmlns="http://www.w3.org/2000/svg">
<path fill-rule="evenodd" clip-rule="evenodd" d="M2.5 12C2.5 6.47715 6.97715 2 12.5 2C18.0228 2 22.5 6.47715 22.5 12C22.5 17.5228 18.0228 22 12.5 22C6.97715 22 2.5 17.5228 2.5 12ZM12.5 6.5C12.7761 6.5 13 6.72386 13 7V11.5H17.5C17.7761 11.5 18 11.7239 18 12C18 12.2761 17.7761 12.5 17.5 12.5H13V17C13 17.2761 12.7761 17.5 12.5 17.5C12.2239 17.5 12 17.2761 12 17V12.5H7.5C7.22386 12.5 7 12.2761 7 12C7 11.7239 7.22386 11.5 7.5 11.5H12V7C12 6.72386 12.2239 6.5 12.5 6.5Z" fill="black"/>
</svg>
