<svg width="25" height="24" viewBox="0 0 25 24" fill="none" xmlns="http://www.w3.org/2000/svg">
<path d="M6.5 11C7.05228 11 7.5 10.5523 7.5 10C7.5 9.44772 7.05228 9 6.5 9C5.94772 9 5.5 9.44772 5.5 10C5.5 10.5523 5.94772 11 6.5 11Z" fill="black"/>
<path d="M10.5 11C11.0523 11 11.5 10.5523 11.5 10C11.5 9.44772 11.0523 9 10.5 9C9.94772 9 9.5 9.44772 9.5 10C9.5 10.5523 9.94772 11 10.5 11Z" fill="black"/>
<path d="M15.5 10C15.5 10.5523 15.0523 11 14.5 11C13.9477 11 13.5 10.5523 13.5 10C13.5 9.44772 13.9477 9 14.5 9C15.0523 9 15.5 9.44772 15.5 10Z" fill="black"/>
<path d="M18.5 11C19.0523 11 19.5 10.5523 19.5 10C19.5 9.44772 19.0523 9 18.5 9C17.9477 9 17.5 9.44772 17.5 10C17.5 10.5523 17.9477 11 18.5 11Z" fill="black"/>
<path d="M11.5 14C11.5 14.5523 11.0523 15 10.5 15C9.94772 15 9.5 14.5523 9.5 14C9.5 13.4477 9.94772 13 10.5 13C11.0523 13 11.5 13.4477 11.5 14Z" fill="black"/>
<path d="M6.5 15C7.05228 15 7.5 14.5523 7.5 14C7.5 13.4477 7.05228 13 6.5 13C5.94772 13 5.5 13.4477 5.5 14C5.5 14.5523 5.94772 15 6.5 15Z" fill="black"/>
<path d="M15.5 14C15.5 14.5523 15.0523 15 14.5 15C13.9477 15 13.5 14.5523 13.5 14C13.5 13.4477 13.9477 13 14.5 13C15.0523 13 15.5 13.4477 15.5 14Z" fill="black"/>
<path d="M18.5 15C19.0523 15 19.5 14.5523 19.5 14C19.5 13.4477 19.0523 13 18.5 13C17.9477 13 17.5 13.4477 17.5 14C17.5 14.5523 17.9477 15 18.5 15Z" fill="black"/>
</svg>
