<svg width="25" height="24" viewBox="0 0 25 24" fill="none" xmlns="http://www.w3.org/2000/svg">
<path fill-rule="evenodd" clip-rule="evenodd" d="M12.4999 7.5C10.0146 7.5 7.99987 9.51472 7.99987 12C7.99987 14.4853 10.0146 16.5 12.4999 16.5C14.9852 16.5 16.9999 14.4853 16.9999 12C16.9999 9.51472 14.9852 7.5 12.4999 7.5ZM8.99987 12C8.99987 10.067 10.5669 8.5 12.4999 8.5C14.4329 8.5 15.9999 10.067 15.9999 12C15.9999 13.933 14.4329 15.5 12.4999 15.5C10.5669 15.5 8.99987 13.933 8.99987 12Z" fill="black"/>
<path fill-rule="evenodd" clip-rule="evenodd" d="M10.9999 1.5C10.4476 1.5 9.99987 1.94772 9.99987 2.5V4.92691C9.12171 5.2373 8.31898 5.70637 7.62602 6.29934L5.52263 5.08494C5.04434 4.8088 4.43274 4.97267 4.1566 5.45097L2.6566 8.04904C2.38046 8.52734 2.54433 9.13893 3.02263 9.41507L5.12501 10.6289C5.04279 11.0737 4.99987 11.5321 4.99987 12C4.99987 12.468 5.04279 12.9263 5.12501 13.3711L3.02263 14.5849C2.54434 14.8611 2.38046 15.4727 2.6566 15.951L4.1566 18.549C4.43275 19.0273 5.04433 19.1912 5.52263 18.9151L7.62603 17.7007C8.31899 18.2936 9.12171 18.7627 9.99987 19.0731V21.5C9.99987 22.0523 10.4476 22.5 10.9999 22.5H13.9999C14.5522 22.5 14.9999 22.0523 14.9999 21.5V19.0731C15.878 18.7627 16.6808 18.2936 17.3737 17.7007L19.4771 18.9151C19.9554 19.1912 20.567 19.0273 20.8431 18.549L22.3431 15.951C22.6193 15.4727 22.4554 14.8611 21.9771 14.5849L19.8747 13.3711C19.957 12.9263 19.9999 12.468 19.9999 12C19.9999 11.5321 19.957 11.0737 19.8747 10.6289L21.9771 9.41507C22.4554 9.13893 22.6193 8.52734 22.3431 8.04905L20.8431 5.45097C20.567 4.97268 19.9554 4.8088 19.4771 5.08495L17.3737 6.29934C16.6808 5.70637 15.878 5.2373 14.9999 4.92691V2.5C14.9999 1.94772 14.5522 1.5 13.9999 1.5H10.9999ZM10.9999 2.5L13.9999 2.5V5.66274L14.3572 5.7691C15.3452 6.06313 16.2353 6.58607 16.9658 7.27708L17.2366 7.53323L19.9771 5.95097L21.4771 8.54905L18.7383 10.1303L18.8243 10.4926C18.939 10.9759 18.9999 11.4805 18.9999 12C18.9999 12.5195 18.939 13.0241 18.8243 13.5074L18.7383 13.8697L21.4771 15.451L19.9771 18.049L17.2365 16.4668L16.9658 16.7229C16.2353 17.4139 15.3452 17.9369 14.3572 18.2309L13.9999 18.3373V21.5H10.9999V18.3373L10.6425 18.2309C9.65458 17.9369 8.76448 17.4139 8.03398 16.7229L7.76319 16.4668L5.02263 18.049L3.52263 15.451L6.26145 13.8697L6.17544 13.5074C6.06071 13.0241 5.99987 12.5195 5.99987 12C5.99987 11.4805 6.06071 10.9759 6.17544 10.4926L6.26144 10.1303L3.52263 8.54904L5.02263 5.95097L7.76318 7.53323L8.03397 7.27708C8.76448 6.58607 9.65457 6.06313 10.6425 5.76911L10.9999 5.66275V2.5Z" fill="black"/>
</svg>
