<svg width="25" height="24" viewBox="0 0 25 24" fill="none" xmlns="http://www.w3.org/2000/svg">
<path fill-rule="evenodd" clip-rule="evenodd" d="M4.5 4.8C4.5 4.35817 4.85817 4 5.3 4H10.7C11.1418 4 11.5 4.35817 11.5 4.8V10.2C11.5 10.6418 11.1418 11 10.7 11H5.3C4.85817 11 4.5 10.6418 4.5 10.2V4.8ZM5.5 5V10H10.5V5H5.5Z" fill="black"/>
<path fill-rule="evenodd" clip-rule="evenodd" d="M4.5 13.8C4.5 13.3582 4.85817 13 5.3 13H10.7C11.1418 13 11.5 13.3582 11.5 13.8V19.2C11.5 19.6418 11.1418 20 10.7 20H5.3C4.85817 20 4.5 19.6418 4.5 19.2V13.8ZM5.5 14V19H10.5V14H5.5Z" fill="black"/>
<path fill-rule="evenodd" clip-rule="evenodd" d="M14.3 4C13.8582 4 13.5 4.35817 13.5 4.8V10.2C13.5 10.6418 13.8582 11 14.3 11H19.7C20.1418 11 20.5 10.6418 20.5 10.2V4.8C20.5 4.35817 20.1418 4 19.7 4H14.3ZM14.5 10V5H19.5V10H14.5Z" fill="black"/>
<path d="M13.5 16.5C13.5 16.2239 13.7239 16 14 16H16.5V13.5C16.5 13.2239 16.7239 13 17 13C17.2761 13 17.5 13.2239 17.5 13.5V16H20C20.2761 16 20.5 16.2239 20.5 16.5C20.5 16.7761 20.2761 17 20 17H17.5V19.5C17.5 19.7761 17.2761 20 17 20C16.7239 20 16.5 19.7761 16.5 19.5V17H14C13.7239 17 13.5 16.7761 13.5 16.5Z" fill="black"/>
</svg>
