<svg width="25" height="24" viewBox="0 0 25 24" fill="none" xmlns="http://www.w3.org/2000/svg">
<path fill-rule="evenodd" clip-rule="evenodd" d="M8.5 8C7.56808 8 6.78503 7.36261 6.56301 6.5H3C2.72386 6.5 2.5 6.27614 2.5 6C2.5 5.72386 2.72386 5.5 3 5.5H6.56301C6.78503 4.63739 7.56808 4 8.5 4C9.60457 4 10.5 4.89543 10.5 6C10.5 7.10457 9.60457 8 8.5 8ZM8.5 5C7.94772 5 7.5 5.44772 7.5 6C7.5 6.55228 7.94772 7 8.5 7C9.05228 7 9.5 6.55228 9.5 6C9.5 5.44772 9.05228 5 8.5 5Z" fill="black"/>
<path d="M11.5 6C11.5 5.72386 11.7239 5.5 12 5.5H22C22.2761 5.5 22.5 5.72386 22.5 6C22.5 6.27614 22.2761 6.5 22 6.5H12C11.7239 6.5 11.5 6.27614 11.5 6Z" fill="black"/>
<path d="M3 11.5C2.72386 11.5 2.5 11.7239 2.5 12C2.5 12.2761 2.72386 12.5 3 12.5H14C14.2761 12.5 14.5 12.2761 14.5 12C14.5 11.7239 14.2761 11.5 14 11.5H3Z" fill="black"/>
<path fill-rule="evenodd" clip-rule="evenodd" d="M17.5 10C18.4319 10 19.215 10.6374 19.437 11.5H22C22.2761 11.5 22.5 11.7239 22.5 12C22.5 12.2761 22.2761 12.5 22 12.5H19.437C19.215 13.3626 18.4319 14 17.5 14C16.3954 14 15.5 13.1046 15.5 12C15.5 10.8954 16.3954 10 17.5 10ZM16.5 12C16.5 11.4477 16.9477 11 17.5 11C18.0523 11 18.5 11.4477 18.5 12C18.5 12.5523 18.0523 13 17.5 13C16.9477 13 16.5 12.5523 16.5 12Z" fill="black"/>
<path d="M16 17.5C15.7239 17.5 15.5 17.7239 15.5 18C15.5 18.2761 15.7239 18.5 16 18.5H22C22.2761 18.5 22.5 18.2761 22.5 18C22.5 17.7239 22.2761 17.5 22 17.5H16Z" fill="black"/>
<path fill-rule="evenodd" clip-rule="evenodd" d="M10.563 18.5C10.785 19.3626 11.5681 20 12.5 20C13.6046 20 14.5 19.1046 14.5 18C14.5 16.8954 13.6046 16 12.5 16C11.5681 16 10.785 16.6374 10.563 17.5H3C2.72386 17.5 2.5 17.7239 2.5 18C2.5 18.2761 2.72386 18.5 3 18.5H10.563ZM12.5 17C11.9477 17 11.5 17.4477 11.5 18C11.5 18.5523 11.9477 19 12.5 19C13.0523 19 13.5 18.5523 13.5 18C13.5 17.4477 13.0523 17 12.5 17Z" fill="black"/>
</svg>
