<svg width="25" height="24" viewBox="0 0 25 24" fill="none" xmlns="http://www.w3.org/2000/svg">
<path d="M6.5 11.5C6.5 12.3284 5.82843 13 5 13C4.17157 13 3.5 12.3284 3.5 11.5C3.5 10.6716 4.17157 10 5 10C5.82843 10 6.5 10.6716 6.5 11.5Z" fill="black"/>
<path d="M12.5 13C13.3284 13 14 12.3284 14 11.5C14 10.6716 13.3284 10 12.5 10C11.6716 10 11 10.6716 11 11.5C11 12.3284 11.6716 13 12.5 13Z" fill="black"/>
<path d="M20 13C20.8284 13 21.5 12.3284 21.5 11.5C21.5 10.6716 20.8284 10 20 10C19.1716 10 18.5 10.6716 18.5 11.5C18.5 12.3284 19.1716 13 20 13Z" fill="black"/>
</svg>
