<svg width="25" height="24" viewBox="0 0 25 24" fill="none" xmlns="http://www.w3.org/2000/svg">
<path fill-rule="evenodd" clip-rule="evenodd" d="M18.5 3C16.8431 3 15.5 4.34315 15.5 6C15.5 6.38419 15.5722 6.75151 15.7038 7.08913L9.04859 10.4166C8.51906 9.56609 7.57564 9 6.5 9C4.84315 9 3.5 10.3431 3.5 12C3.5 13.6569 4.84315 15 6.5 15C7.57564 15 8.51906 14.4339 9.04859 13.5834L15.7038 16.911C15.5722 17.2486 15.5 17.6159 15.5 18C15.5 19.6569 16.8431 21 18.5 21C20.1569 21 21.5 19.6569 21.5 18C21.5 16.3431 20.1569 15 18.5 15C17.5872 15 16.7697 15.4076 16.2194 16.0508L9.42824 12.6552C9.47522 12.4443 9.5 12.225 9.5 12C9.5 11.775 9.47522 11.5557 9.42824 11.3448L16.2195 7.94931C16.7698 8.59241 17.5873 9 18.5 9C20.1569 9 21.5 7.65685 21.5 6C21.5 4.34315 20.1569 3 18.5 3ZM16.5 6C16.5 4.89543 17.3954 4 18.5 4C19.6046 4 20.5 4.89543 20.5 6C20.5 7.10457 19.6046 8 18.5 8C17.3954 8 16.5 7.10457 16.5 6ZM16.5 18C16.5 16.8954 17.3954 16 18.5 16C19.6046 16 20.5 16.8954 20.5 18C20.5 19.1046 19.6046 20 18.5 20C17.3954 20 16.5 19.1046 16.5 18ZM6.5 10C5.39543 10 4.5 10.8954 4.5 12C4.5 13.1046 5.39543 14 6.5 14C7.60457 14 8.5 13.1046 8.5 12C8.5 10.8954 7.60457 10 6.5 10Z" fill="black"/>
</svg>
