<svg width="25" height="24" viewBox="0 0 25 24" fill="none" xmlns="http://www.w3.org/2000/svg">
<path d="M5 5C4.72386 5 4.5 5.22386 4.5 5.5C4.5 5.77614 4.72386 6 5 6H18C18.2761 6 18.5 5.77614 18.5 5.5C18.5 5.22386 18.2761 5 18 5H5Z" fill="black"/>
<path d="M18.5 13.3787C18.5 13.1025 18.2761 12.8787 18 12.8787C17.7239 12.8787 17.5 13.1025 17.5 13.3787V15H15.8787C15.6025 15 15.3787 15.2239 15.3787 15.5C15.3787 15.7761 15.6025 16 15.8787 16H17.5V17.6213C17.5 17.8975 17.7239 18.1213 18 18.1213C18.2761 18.1213 18.5 17.8975 18.5 17.6213V16H20.1213C20.3975 16 20.6213 15.7761 20.6213 15.5C20.6213 15.2239 20.3975 15 20.1213 15H18.5V13.3787Z" fill="black"/>
<path fill-rule="evenodd" clip-rule="evenodd" d="M13.5 15.5C13.5 13.0147 15.5147 11 18 11C20.4853 11 22.5 13.0147 22.5 15.5C22.5 17.9853 20.4853 20 18 20C15.5147 20 13.5 17.9853 13.5 15.5ZM18 12C16.067 12 14.5 13.567 14.5 15.5C14.5 17.433 16.067 19 18 19C19.933 19 21.5 17.433 21.5 15.5C21.5 13.567 19.933 12 18 12Z" fill="black"/>
<path d="M4.5 9.5C4.5 9.22386 4.72386 9 5 9H18C18.2761 9 18.5 9.22386 18.5 9.5C18.5 9.77614 18.2761 10 18 10H5C4.72386 10 4.5 9.77614 4.5 9.5Z" fill="black"/>
<path d="M4.5 13.5C4.5 13.2239 4.72386 13 5 13H12C12.2761 13 12.5 13.2239 12.5 13.5C12.5 13.7761 12.2761 14 12 14H5C4.72386 14 4.5 13.7761 4.5 13.5Z" fill="black"/>
<path d="M4.5 17.5C4.5 17.2239 4.72386 17 5 17H12C12.2761 17 12.5 17.2239 12.5 17.5C12.5 17.7761 12.2761 18 12 18H5C4.72386 18 4.5 17.7761 4.5 17.5Z" fill="black"/>
</svg>
