<svg width="25" height="24" viewBox="0 0 25 24" fill="none" xmlns="http://www.w3.org/2000/svg">
<path fill-rule="evenodd" clip-rule="evenodd" d="M2.5 12C2.5 6.47715 6.97715 2 12.5 2C18.0228 2 22.5 6.47715 22.5 12C22.5 17.5228 18.0228 22 12.5 22C6.97715 22 2.5 17.5228 2.5 12ZM12 15.5C11.5 15.5 11.5 15 11.5 15V13.5C11.5 12.3859 12.0625 11.9523 13.0938 11.3316C14.3438 10.5517 14.8906 10.122 14.8906 8.92838C14.8906 7.73475 14.0312 7.00265 12.5781 7.00265C11.25 7.00265 10.4375 7.67109 9.78125 8.61008C9.42218 8.78929 9 8.52816 9 8.12685V8.0053C9.84375 6.85942 10.9062 6 12.6406 6C14.6719 6 16 7.17772 16 8.86472C16 10.4244 15.125 11.1406 14 11.809C12.4843 12.7096 12.4861 12.9588 12.4977 14.5207C12.4988 14.6682 12.5 14.8274 12.5 15C12.5 15 12.5 15.5 12 15.5ZM12.75 17.25C12.75 17.6642 12.4142 18 12 18C11.5858 18 11.25 17.6642 11.25 17.25C11.25 16.8358 11.5858 16.5 12 16.5C12.4142 16.5 12.75 16.8358 12.75 17.25Z" fill="black"/>
</svg>
