<svg width="25" height="24" viewBox="0 0 25 24" fill="none" xmlns="http://www.w3.org/2000/svg">
<path d="M2.64645 2.14645C2.84171 1.95118 3.15829 1.95118 3.35355 2.14645L12.5 11.2929V8.5C12.5 8.22386 12.7239 8 13 8C13.2761 8 13.5 8.22386 13.5 8.5V12.4995C13.5 12.5075 13.4998 12.516 13.4994 12.524C13.4967 12.5811 13.4842 12.6378 13.4621 12.6914C13.4377 12.7504 13.4015 12.8056 13.3536 12.8536C13.3056 12.9015 13.2504 12.9377 13.1914 12.9621C13.1333 12.9861 13.0697 12.9996 13.003 13L13 13H9C8.72386 13 8.5 12.7761 8.5 12.5C8.5 12.2239 8.72386 12 9 12H11.7929L2.64645 2.85355C2.45118 2.65829 2.45118 2.34171 2.64645 2.14645Z" fill="black"/>
<path d="M9 4C8.72386 4 8.5 4.22386 8.5 4.5C8.5 4.77614 8.72386 5 9 5H18C18.3978 5 18.7794 5.15804 19.0607 5.43934C19.342 5.72064 19.5 6.10217 19.5 6.5V17.5C19.5 17.8978 19.342 18.2794 19.0607 18.5607C18.7794 18.842 18.3978 19 18 19H7C6.60218 19 6.22064 18.842 5.93934 18.5607C5.65803 18.2794 5.5 17.8978 5.5 17.5V8.5C5.5 8.22386 5.27614 8 5 8C4.72386 8 4.5 8.22386 4.5 8.5V17.5C4.5 18.163 4.76339 18.7989 5.23223 19.2678C5.70107 19.7366 6.33696 20 7 20H18C18.663 20 19.2989 19.7366 19.7678 19.2678C20.2366 18.7989 20.5 18.163 20.5 17.5V6.5C20.5 5.83696 20.2366 5.20107 19.7678 4.73223C19.2989 4.26339 18.663 4 18 4H9Z" fill="black"/>
</svg>
