<svg width="25" height="24" viewBox="0 0 25 24" fill="none" xmlns="http://www.w3.org/2000/svg">
<path d="M12.5 3C12.7761 3 13 3.22386 13 3.5V15.2929L16.1464 12.1464C16.3417 11.9512 16.6583 11.9512 16.8536 12.1464C17.0488 12.3417 17.0488 12.6583 16.8536 12.8536L12.8536 16.8536C12.6583 17.0488 12.3417 17.0488 12.1464 16.8536L8.14645 12.8536C7.95118 12.6583 7.95118 12.3417 8.14645 12.1464C8.34171 11.9512 8.65829 11.9512 8.85355 12.1464L12 15.2929V3.5C12 3.22386 12.2239 3 12.5 3Z" fill="black"/>
<path d="M3.5 16.5C3.5 16.2239 3.27614 16 3 16C2.72386 16 2.5 16.2239 2.5 16.5V18.5C2.5 19.163 2.76339 19.7989 3.23223 20.2678C3.70107 20.7366 4.33696 21 5 21H20C20.663 21 21.2989 20.7366 21.7678 20.2678C22.2366 19.7989 22.5 19.163 22.5 18.5V16.5C22.5 16.2239 22.2761 16 22 16C21.7239 16 21.5 16.2239 21.5 16.5V18.5C21.5 18.8978 21.342 19.2794 21.0607 19.5607C20.7794 19.842 20.3978 20 20 20H5C4.60218 20 4.22064 19.842 3.93934 19.5607C3.65803 19.2794 3.5 18.8978 3.5 18.5V16.5Z" fill="black"/>
</svg>
