<svg width="25" height="24" viewBox="0 0 25 24" fill="none" xmlns="http://www.w3.org/2000/svg">
<path fill-rule="evenodd" clip-rule="evenodd" d="M11.5 4.8C11.5 4.35817 11.1418 4 10.7 4H5.3C4.85817 4 4.5 4.35817 4.5 4.8V10.2C4.5 10.6418 4.85817 11 5.3 11H10.7C11.1418 11 11.5 10.6418 11.5 10.2V4.8ZM6.79289 10L10.5 6.29289V5H9.20711L5.5 8.70711V10H6.79289ZM10.5 7.70711L8.20711 10H10.5V7.70711ZM5.5 7.29289L7.79289 5H5.5V7.29289Z" fill="black"/>
<path fill-rule="evenodd" clip-rule="evenodd" d="M5.3 13C4.85817 13 4.5 13.3582 4.5 13.8V19.2C4.5 19.6418 4.85817 20 5.3 20H10.7C11.1418 20 11.5 19.6418 11.5 19.2V13.8C11.5 13.3582 11.1418 13 10.7 13H5.3ZM5.5 19V14H10.5V19H5.5Z" fill="black"/>
<path fill-rule="evenodd" clip-rule="evenodd" d="M13.5 13.8C13.5 13.3582 13.8582 13 14.3 13H19.7C20.1418 13 20.5 13.3582 20.5 13.8V19.2C20.5 19.6418 20.1418 20 19.7 20H14.3C13.8582 20 13.5 19.6418 13.5 19.2V13.8ZM14.5 14V19H19.5V14H14.5Z" fill="black"/>
<path fill-rule="evenodd" clip-rule="evenodd" d="M14.3 4C13.8582 4 13.5 4.35817 13.5 4.8V10.2C13.5 10.6418 13.8582 11 14.3 11H19.7C20.1418 11 20.5 10.6418 20.5 10.2V4.8C20.5 4.35817 20.1418 4 19.7 4H14.3ZM14.5 10V5H19.5V10H14.5Z" fill="black"/>
</svg>
