<svg width="25" height="24" viewBox="0 0 25 24" fill="none" xmlns="http://www.w3.org/2000/svg">
<path fill-rule="evenodd" clip-rule="evenodd" d="M4.5 3.5C4.31443 3.5 4.14412 3.60278 4.05763 3.76696C3.97114 3.93114 3.98269 4.12972 4.08764 4.28276L10 12.905V20C10 20.1844 10.1015 20.3538 10.2641 20.4408C10.4267 20.5278 10.6239 20.5183 10.7774 20.416L13.7774 18.416C13.9165 18.3233 14 18.1672 14 18V12.905L19.9124 4.28276C20.0173 4.12972 20.0289 3.93114 19.9424 3.76696C19.8559 3.60278 19.6856 3.5 19.5 3.5H4.5ZM6.82055 6.5L5.44912 4.5H18.5509L17.1795 6.5H6.82055ZM7.50626 7.5L10.9124 12.4672C10.9694 12.5505 11 12.6491 11 12.75V19.0657L13 17.7324V12.75C13 12.6491 13.0306 12.5505 13.0876 12.4672L16.4937 7.5H7.50626Z" fill="black"/>
</svg>
