<svg width="25" height="24" viewBox="0 0 25 24" fill="none" xmlns="http://www.w3.org/2000/svg">
<path fill-rule="evenodd" clip-rule="evenodd" d="M6.5 6.5C6.5 6.22386 6.72386 6 7 6H18C18.2761 6 18.5 6.22386 18.5 6.5V17.5C18.5 17.7761 18.2761 18 18 18H7C6.72386 18 6.5 17.7761 6.5 17.5V6.5ZM7.5 7V17H17.5V7H7.5Z" fill="black"/>
<path d="M2.5 8.5C2.5 8.22386 2.72386 8 3 8H5.5C5.77614 8 6 8.22386 6 8.5C6 8.77614 5.77614 9 5.5 9H3.5V15H5.5C5.77614 15 6 15.2239 6 15.5C6 15.7761 5.77614 16 5.5 16H3C2.72386 16 2.5 15.7761 2.5 15.5V8.5Z" fill="black"/>
<path d="M22 8C22.2761 8 22.5 8.22386 22.5 8.5V15.5C22.5 15.7761 22.2761 16 22 16H19.5C19.2239 16 19 15.7761 19 15.5C19 15.2239 19.2239 15 19.5 15H21.5V9H19.5C19.2239 9 19 8.77614 19 8.5C19 8.22386 19.2239 8 19.5 8H22Z" fill="black"/>
</svg>
