<svg width="25" height="24" viewBox="0 0 25 24" fill="none" xmlns="http://www.w3.org/2000/svg">
<path fill-rule="evenodd" clip-rule="evenodd" d="M12.5 3C7.52944 3 3.5 7.02944 3.5 12C3.5 16.9706 7.52944 21 12.5 21C17.4706 21 21.5 16.9706 21.5 12C21.5 7.02944 17.4706 3 12.5 3ZM2.5 12C2.5 6.47715 6.97715 2 12.5 2C18.0228 2 22.5 6.47715 22.5 12C22.5 17.5228 18.0228 22 12.5 22C6.97715 22 2.5 17.5228 2.5 12Z" fill="black"/>
<path fill-rule="evenodd" clip-rule="evenodd" d="M8.14645 7.64645C8.34171 7.45118 8.65829 7.45118 8.85355 7.64645L16.8536 15.6464C17.0488 15.8417 17.0488 16.1583 16.8536 16.3536C16.6583 16.5488 16.3417 16.5488 16.1464 16.3536L8.14645 8.35355C7.95118 8.15829 7.95118 7.84171 8.14645 7.64645Z" fill="black"/>
<path fill-rule="evenodd" clip-rule="evenodd" d="M16.8536 7.64645C17.0488 7.84171 17.0488 8.15829 16.8536 8.35355L8.85355 16.3536C8.65829 16.5488 8.34171 16.5488 8.14645 16.3536C7.95118 16.1583 7.95118 15.8417 8.14645 15.6464L16.1464 7.64645C16.3417 7.45118 16.6583 7.45118 16.8536 7.64645Z" fill="black"/>
</svg>
