<svg width="25" height="25" viewBox="0 0 25 25" fill="none" xmlns="http://www.w3.org/2000/svg">
<path d="M10.5 19.5925C10.5 19.3164 10.7239 19.0925 11 19.0925H14C14.2761 19.0925 14.5 19.3164 14.5 19.5925C14.5 19.8687 14.2761 20.0925 14 20.0925H11C10.7239 20.0925 10.5 19.8687 10.5 19.5925Z" fill="black"/>
<path fill-rule="evenodd" clip-rule="evenodd" d="M6 2.09253C4.61929 2.09253 3.5 3.21182 3.5 4.59253V19.5925C3.5 20.9732 4.61929 22.0925 6 22.0925H19C20.3807 22.0925 21.5 20.9732 21.5 19.5925V4.59253C21.5 3.21182 20.3807 2.09253 19 2.09253H6ZM4.5 4.59253C4.5 3.7641 5.17157 3.09253 6 3.09253H19C19.8284 3.09253 20.5 3.7641 20.5 4.59253V19.5925C20.5 20.421 19.8284 21.0925 19 21.0925H6C5.17157 21.0925 4.5 20.421 4.5 19.5925V4.59253Z" fill="black"/>
</svg>
