<svg width="25" height="25" viewBox="0 0 25 25" fill="none" xmlns="http://www.w3.org/2000/svg">
<path fill-rule="evenodd" clip-rule="evenodd" d="M6 5.09253C4.61929 5.09253 3.5 6.21182 3.5 7.59253V16.5925C3.5 17.9732 4.61929 19.0925 6 19.0925H19C20.3807 19.0925 21.5 17.9732 21.5 16.5925V7.59253C21.5 6.21182 20.3807 5.09253 19 5.09253H6ZM20.5 7.59253C20.5 6.7641 19.8284 6.09253 19 6.09253H6C5.17157 6.09253 4.5 6.7641 4.5 7.59253C4.5 8.05714 4.72573 8.49279 5.10531 8.76073L12.2117 13.777C12.3845 13.899 12.6155 13.899 12.7883 13.777L19.8947 8.76073C20.2743 8.49279 20.5 8.05714 20.5 7.59253ZM4.5 9.55718L4.52863 9.5777L11.635 14.5939C12.1536 14.96 12.8464 14.96 13.365 14.5939L20.4714 9.5777L20.5 9.55718V16.5925C20.5 17.421 19.8284 18.0925 19 18.0925H6C5.17157 18.0925 4.5 17.421 4.5 16.5925V9.55718Z" fill="black"/>
</svg>
