<svg width="25" height="25" viewBox="0 0 25 25" fill="none" xmlns="http://www.w3.org/2000/svg">
<path d="M5 2.09253C3.61929 2.09253 2.5 3.21182 2.5 4.59253V19.5925C2.5 20.9732 3.61929 22.0925 5 22.0925H12C13.3807 22.0925 14.5 20.9732 14.5 19.5925V18.5925C14.5 18.3164 14.2761 18.0925 14 18.0925C13.7239 18.0925 13.5 18.3164 13.5 18.5925V19.5925C13.5 20.421 12.8284 21.0925 12 21.0925H5C4.17157 21.0925 3.5 20.421 3.5 19.5925V4.59253C3.5 3.7641 4.17157 3.09253 5 3.09253H12C12.8284 3.09253 13.5 3.7641 13.5 4.59253V5.09253C13.5 5.36867 13.7239 5.59253 14 5.59253C14.2761 5.59253 14.5 5.36867 14.5 5.09253V4.59253C14.5 3.21182 13.3807 2.09253 12 2.09253H5Z" fill="black"/>
<path d="M14.5 12.0925C15.0523 12.0925 15.5 11.6448 15.5 11.0925C15.5 10.5402 15.0523 10.0925 14.5 10.0925C13.9477 10.0925 13.5 10.5402 13.5 11.0925C13.5 11.6448 13.9477 12.0925 14.5 12.0925Z" fill="black"/>
<path d="M18.5 11.0925C18.5 11.6448 18.0523 12.0925 17.5 12.0925C16.9477 12.0925 16.5 11.6448 16.5 11.0925C16.5 10.5402 16.9477 10.0925 17.5 10.0925C18.0523 10.0925 18.5 10.5402 18.5 11.0925Z" fill="black"/>
<path d="M11.5 12.0925C12.0523 12.0925 12.5 11.6448 12.5 11.0925C12.5 10.5402 12.0523 10.0925 11.5 10.0925C10.9477 10.0925 10.5 10.5402 10.5 11.0925C10.5 11.6448 10.9477 12.0925 11.5 12.0925Z" fill="black"/>
<path fill-rule="evenodd" clip-rule="evenodd" d="M10.5 15.9925C8.21776 15.5292 6.5 13.5115 6.5 11.0925C6.5 8.33111 8.73858 6.09253 11.5 6.09253H17.5C20.2614 6.09253 22.5 8.33111 22.5 11.0925C22.5 13.854 20.2614 16.0925 17.5 16.0925H15.7466L11.238 18.5323C11.083 18.6161 10.8954 18.6122 10.7441 18.5221C10.5927 18.4319 10.5 18.2687 10.5 18.0925V15.9925ZM7.5 11.0925C7.5 8.88339 9.29086 7.09253 11.5 7.09253H17.5C19.7091 7.09253 21.5 8.88339 21.5 11.0925C21.5 13.3017 19.7091 15.0925 17.5 15.0925H15.6294C15.6228 15.0924 15.6163 15.0924 15.6098 15.0925H15.5V15.107C15.4598 15.117 15.4202 15.1322 15.382 15.1528L11.5 17.2535V15.0925C9.29086 15.0925 7.5 13.3017 7.5 11.0925Z" fill="black"/>
<path d="M8.5 20.0925C9.05228 20.0925 9.5 19.6448 9.5 19.0925C9.5 18.5402 9.05228 18.0925 8.5 18.0925C7.94772 18.0925 7.5 18.5402 7.5 19.0925C7.5 19.6448 7.94772 20.0925 8.5 20.0925Z" fill="black"/>
</svg>
