<svg width="25" height="25" viewBox="0 0 25 25" fill="none" xmlns="http://www.w3.org/2000/svg">
<path d="M5 2.09253C3.61929 2.09253 2.5 3.21182 2.5 4.59253V19.5925C2.5 20.9732 3.61929 22.0925 5 22.0925H12C13.3807 22.0925 14.5 20.9732 14.5 19.5925V17.0925C14.5 16.8164 14.2761 16.5925 14 16.5925C13.7239 16.5925 13.5 16.8164 13.5 17.0925V19.5925C13.5 20.421 12.8284 21.0925 12 21.0925H5C4.17157 21.0925 3.5 20.421 3.5 19.5925V4.59253C3.5 3.7641 4.17157 3.09253 5 3.09253H12C12.8284 3.09253 13.5 3.7641 13.5 4.59253V5.09253C13.5 5.36867 13.7239 5.59253 14 5.59253C14.2761 5.59253 14.5 5.36867 14.5 5.09253V4.59253C14.5 3.21182 13.3807 2.09253 12 2.09253H5Z" fill="black"/>
<path fill-rule="evenodd" clip-rule="evenodd" d="M19 14.0925C19.2761 14.0925 19.5 13.8687 19.5 13.5925V8.59253C19.5 8.31639 19.2761 8.09253 19 8.09253H12C11.7239 8.09253 11.5 8.31639 11.5 8.59253V13.5925C11.5 13.8687 11.7239 14.0925 12 14.0925H19ZM18.5 9.09253V13.0925H12.5V9.09253H18.5Z" fill="black"/>
<path fill-rule="evenodd" clip-rule="evenodd" d="M20 16.0925C20.8284 16.0925 21.5 15.421 21.5 14.5925V7.59253C21.5 6.7641 20.8284 6.09253 20 6.09253H10.4142C10.0164 6.09253 9.63486 6.25056 9.35355 6.53187L6.93934 8.94608C6.65804 9.22739 6.5 9.60892 6.5 10.0067V14.5925C6.5 15.421 7.17157 16.0925 8 16.0925H20ZM20.5 14.5925C20.5 14.8687 20.2761 15.0925 20 15.0925H8C7.72386 15.0925 7.5 14.8687 7.5 14.5925V10.0067C7.5 9.87413 7.55268 9.74696 7.64645 9.65319L10.0607 7.23898C10.1544 7.14521 10.2816 7.09253 10.4142 7.09253H20C20.2761 7.09253 20.5 7.31639 20.5 7.59253V14.5925Z" fill="black"/>
<path d="M8.5 20.0925C9.05228 20.0925 9.5 19.6448 9.5 19.0925C9.5 18.5402 9.05228 18.0925 8.5 18.0925C7.94772 18.0925 7.5 18.5402 7.5 19.0925C7.5 19.6448 7.94772 20.0925 8.5 20.0925Z" fill="black"/>
</svg>
