<svg width="25" height="25" viewBox="0 0 25 25" fill="none" xmlns="http://www.w3.org/2000/svg">
<path d="M5 2.09253C3.61929 2.09253 2.5 3.21182 2.5 4.59253V19.5925C2.5 20.9732 3.61929 22.0925 5 22.0925H12C13.3807 22.0925 14.5 20.9732 14.5 19.5925V17.0925C14.5 16.8164 14.2761 16.5925 14 16.5925C13.7239 16.5925 13.5 16.8164 13.5 17.0925V19.5925C13.5 20.421 12.8284 21.0925 12 21.0925H5C4.17157 21.0925 3.5 20.421 3.5 19.5925V4.59253C3.5 3.7641 4.17157 3.09253 5 3.09253H12C12.8284 3.09253 13.5 3.7641 13.5 4.59253V5.09253C13.5 5.36867 13.7239 5.59253 14 5.59253C14.2761 5.59253 14.5 5.36867 14.5 5.09253V4.59253C14.5 3.21182 13.3807 2.09253 12 2.09253H5Z" fill="black"/>
<path d="M9.5 12.5925C9.5 12.3164 9.72386 12.0925 10 12.0925H12C12.2761 12.0925 12.5 12.3164 12.5 12.5925C12.5 12.8687 12.2761 13.0925 12 13.0925H10C9.72386 13.0925 9.5 12.8687 9.5 12.5925Z" fill="black"/>
<path fill-rule="evenodd" clip-rule="evenodd" d="M21 6.09253C21.8284 6.09253 22.5 6.7641 22.5 7.59253V14.5925C22.5 15.421 21.8284 16.0925 21 16.0925H9C8.17157 16.0925 7.5 15.421 7.5 14.5925V7.59253C7.5 6.7641 8.17157 6.09253 9 6.09253H21ZM9 7.09253C8.72386 7.09253 8.5 7.31639 8.5 7.59253V9.09253H21.5V7.59253C21.5 7.31639 21.2761 7.09253 21 7.09253H9ZM21 15.0925C21.2761 15.0925 21.5 14.8687 21.5 14.5925V11.0925H8.5V14.5925C8.5 14.8687 8.72386 15.0925 9 15.0925H21Z" fill="black"/>
<path d="M8.5 20.0925C9.05228 20.0925 9.5 19.6448 9.5 19.0925C9.5 18.5402 9.05228 18.0925 8.5 18.0925C7.94772 18.0925 7.5 18.5402 7.5 19.0925C7.5 19.6448 7.94772 20.0925 8.5 20.0925Z" fill="black"/>
</svg>
