<svg width="25" height="25" viewBox="0 0 25 25" fill="none" xmlns="http://www.w3.org/2000/svg">
<path d="M3.5 4.09253C3.5 2.71182 4.61929 1.59253 6 1.59253H13C14.3807 1.59253 15.5 2.71182 15.5 4.09253V4.59253C15.5 4.86867 15.2761 5.09253 15 5.09253C14.7239 5.09253 14.5 4.86867 14.5 4.59253V4.09253C14.5 3.2641 13.8284 2.59253 13 2.59253H6C5.17157 2.59253 4.5 3.2641 4.5 4.09253V19.0925C4.5 19.921 5.17157 20.5925 6 20.5925H13C13.8284 20.5925 14.5 19.921 14.5 19.0925V16.5925C14.5 16.3164 14.7239 16.0925 15 16.0925C15.2761 16.0925 15.5 16.3164 15.5 16.5925V19.0925C15.5 20.4732 14.3807 21.5925 13 21.5925H6C4.61929 21.5925 3.5 20.4732 3.5 19.0925V4.09253Z" fill="black"/>
<path d="M9.5 19.5925C10.0523 19.5925 10.5 19.1448 10.5 18.5925C10.5 18.0402 10.0523 17.5925 9.5 17.5925C8.94772 17.5925 8.5 18.0402 8.5 18.5925C8.5 19.1448 8.94772 19.5925 9.5 19.5925Z" fill="black"/>
<path fill-rule="evenodd" clip-rule="evenodd" d="M6.5 7.09253C6.5 6.2641 7.17157 5.59253 8 5.59253H20C20.8284 5.59253 21.5 6.2641 21.5 7.09253V14.0925C21.5 14.921 20.8284 15.5925 20 15.5925H8C7.17157 15.5925 6.5 14.921 6.5 14.0925V7.09253ZM12.5 8.59253C11.9477 8.59253 11.5 9.04024 11.5 9.59253C11.5 10.1448 11.9477 10.5925 12.5 10.5925C13.0523 10.5925 13.5 10.1448 13.5 9.59253C13.5 9.04024 13.0523 8.59253 12.5 8.59253ZM20 14.5925C20.2761 14.5925 20.5 14.3687 20.5 14.0925V10.5925H17.2324C16.8866 11.1903 16.2403 11.5925 15.5 11.5925C15.4637 11.5925 15.4276 11.5916 15.3918 11.5897C15.7072 11.9687 16.0164 12.2006 16.272 12.3439C16.5042 12.474 16.7011 12.5361 16.8327 12.5657C16.8986 12.5805 16.9481 12.5872 16.9775 12.5903C16.9921 12.5918 17.0017 12.5923 17.0056 12.5925L17.0068 12.5926C17.2798 12.5962 17.5 12.8186 17.5 13.0925C17.5 13.3687 17.2762 13.5925 17 13.5925L16.9985 13.5925L16.9968 13.5925L16.9929 13.5925L16.9832 13.5923C16.9759 13.5921 16.967 13.5918 16.9566 13.5913C16.9357 13.5903 16.9084 13.5884 16.8755 13.585C16.8095 13.5783 16.7205 13.5655 16.613 13.5412C16.3976 13.4928 16.1084 13.3985 15.783 13.2162C15.377 12.9886 14.9279 12.6311 14.5 12.0754V14.5925H20ZM20.5 7.09253C20.5 6.81639 20.2761 6.59253 20 6.59253H14.5V7.86009C14.7942 7.68992 15.1357 7.59253 15.5 7.59253C16.6046 7.59253 17.5 8.48796 17.5 9.59253H20.5V7.09253ZM12.5 7.59253C12.8643 7.59253 13.2058 7.68992 13.5 7.86009V6.59253H8C7.72386 6.59253 7.5 6.81639 7.5 7.09253V9.59253H10.5C10.5 8.48796 11.3954 7.59253 12.5 7.59253ZM12.217 13.2162C12.623 12.9886 13.0721 12.6311 13.5 12.0755V14.5925H8C7.72386 14.5925 7.5 14.3687 7.5 14.0925V10.5925H10.7676C11.1134 11.1903 11.7597 11.5925 12.5 11.5925C12.5363 11.5925 12.5724 11.5916 12.6082 11.5897C12.5586 11.6493 12.5091 11.7053 12.46 11.7578C12.1968 12.0394 11.9434 12.2232 11.728 12.3439C11.4959 12.474 11.2989 12.5361 11.1673 12.5657C11.1014 12.5805 11.0519 12.5872 11.0226 12.5903C11.0079 12.5918 10.9984 12.5923 10.9944 12.5925L10.9932 12.5926C10.7202 12.5962 10.5 12.8186 10.5 13.0925C10.5 13.3687 10.7239 13.5925 11 13.5925L11.002 13.5925L11.0033 13.5925L11.0072 13.5925L11.0168 13.5923C11.0241 13.5921 11.033 13.5918 11.0434 13.5913C11.0644 13.5903 11.0916 13.5884 11.1246 13.585C11.1905 13.5783 11.2795 13.5655 11.387 13.5412C11.6024 13.4928 11.8916 13.3985 12.217 13.2162ZM15.5 8.59253C14.9477 8.59253 14.5 9.04024 14.5 9.59253C14.5 10.1448 14.9477 10.5925 15.5 10.5925C16.0523 10.5925 16.5 10.1448 16.5 9.59253C16.5 9.04024 16.0523 8.59253 15.5 8.59253Z" fill="black"/>
</svg>
