<svg width="25" height="25" viewBox="0 0 25 25" fill="none" xmlns="http://www.w3.org/2000/svg">
<path fill-rule="evenodd" clip-rule="evenodd" d="M8.5 18.5925C8.5 18.8687 8.72386 19.0925 9 19.0925H16C16.2761 19.0925 16.5 18.8687 16.5 18.5925V9.59253C16.5 9.31639 16.2761 9.09253 16 9.09253L9 9.09253C8.72386 9.09253 8.5 9.31639 8.5 9.59253L8.5 18.5925ZM9.5 18.0925L9.5 10.0925H15.5V18.0925H9.5Z" fill="black"/>
<path fill-rule="evenodd" clip-rule="evenodd" d="M5.5 20.5925C5.5 21.421 6.17157 22.0925 7 22.0925H18C18.8284 22.0925 19.5 21.421 19.5 20.5925L19.5 7.09654C19.5 6.6825 19.3289 6.28687 19.0271 6.00336L15.2977 2.49935C15.0195 2.23801 14.6522 2.09253 14.2706 2.09253H7C6.17157 2.09253 5.5 2.7641 5.5 3.59253V20.5925ZM7 21.0925C6.72386 21.0925 6.5 20.8687 6.5 20.5925L6.5 3.59253C6.5 3.31639 6.72386 3.09253 7 3.09253L14.2706 3.09253C14.3978 3.09253 14.5202 3.14102 14.613 3.22814L18.3424 6.73215C18.443 6.82665 18.5 6.95853 18.5 7.09654L18.5 20.5925C18.5 20.8687 18.2761 21.0925 18 21.0925H7Z" fill="black"/>
</svg>
