<svg width="25" height="25" viewBox="0 0 25 25" fill="none" xmlns="http://www.w3.org/2000/svg">
<path d="M5 2.09253C3.61929 2.09253 2.5 3.21182 2.5 4.59253V19.5925C2.5 20.9732 3.61929 22.0925 5 22.0925H12C13.3807 22.0925 14.5 20.9732 14.5 19.5925V18.0925C14.5 17.8164 14.2761 17.5925 14 17.5925C13.7239 17.5925 13.5 17.8164 13.5 18.0925V19.5925C13.5 20.421 12.8284 21.0925 12 21.0925H5C4.17157 21.0925 3.5 20.421 3.5 19.5925V4.59253C3.5 3.7641 4.17157 3.09253 5 3.09253H12C12.8284 3.09253 13.5 3.7641 13.5 4.59253V6.09253C13.5 6.36867 13.7239 6.59253 14 6.59253C14.2761 6.59253 14.5 6.36867 14.5 6.09253V4.59253C14.5 3.21182 13.3807 2.09253 12 2.09253H5Z" fill="black"/>
<path d="M9.5 18.5925C9.5 19.1448 9.05228 19.5925 8.5 19.5925C7.94772 19.5925 7.5 19.1448 7.5 18.5925C7.5 18.0402 7.94772 17.5925 8.5 17.5925C9.05228 17.5925 9.5 18.0402 9.5 18.5925Z" fill="black"/>
<path d="M18.2035 5.23044C18.5553 5.21033 18.9073 5.2648 19.2365 5.39029C19.5658 5.51578 19.8648 5.70945 20.1139 5.9586C20.3631 6.20775 20.5568 6.50674 20.6822 6.83598C20.8077 7.16523 20.8622 7.51728 20.8421 7.86905C20.822 8.22082 20.7277 8.56437 20.5655 8.87717C20.408 9.18103 20.1898 9.44921 19.9245 9.66517L17.1313 12.4584C16.6634 12.9202 16.0324 13.1792 15.375 13.1792C14.7176 13.1792 14.0866 12.9202 13.6188 12.4584C13.4222 12.2644 13.4202 11.9478 13.6142 11.7513C13.8081 11.5548 14.1247 11.5527 14.3213 11.7467C14.602 12.0238 14.9806 12.1792 15.375 12.1792C15.7689 12.1792 16.147 12.0242 16.4277 11.7478L19.2364 8.93898C19.2499 8.92551 19.2641 8.91283 19.279 8.90099C19.4446 8.76951 19.5805 8.60453 19.6778 8.41685C19.7751 8.22917 19.8317 8.02304 19.8437 7.81198C19.8558 7.60091 19.8231 7.38968 19.7478 7.19214C19.6725 6.99459 19.5563 6.81519 19.4068 6.6657C19.2573 6.51622 19.0779 6.40001 18.8804 6.32472C18.6829 6.24943 18.4716 6.21674 18.2606 6.22881C18.0495 6.24088 17.8434 6.29742 17.6557 6.39474C17.468 6.49205 17.303 6.62794 17.1715 6.79349C17.16 6.80805 17.1476 6.82196 17.1345 6.83514L15.2645 8.71514C15.0698 8.91092 14.7532 8.91177 14.5574 8.71703C14.3616 8.52229 14.3608 8.20571 14.5555 8.00992L16.4069 6.14861C16.623 5.88308 16.8913 5.66465 17.1954 5.50698C17.5082 5.34479 17.8517 5.25055 18.2035 5.23044Z" fill="black"/>
<path d="M13.965 9.6259C13.3076 9.6259 12.6766 9.88486 12.2087 10.3467L9.39644 13.159C9.38298 13.1724 9.3703 13.1867 9.35845 13.2016C8.97678 13.6822 8.78521 14.2863 8.82024 14.8991C8.85527 15.5118 9.11444 16.0902 9.5484 16.5241C9.98235 16.9581 10.5608 17.2173 11.1735 17.2523C11.7862 17.2873 12.3904 17.0957 12.871 16.7141C12.8855 16.7025 12.8994 16.6901 12.9126 16.677L14.7926 14.807C14.9884 14.6123 14.9892 14.2957 14.7945 14.0999C14.5998 13.9041 14.2832 13.9033 14.0874 14.098L12.2286 15.9469C11.9437 16.1653 11.5895 16.2744 11.2306 16.2539C10.8629 16.2329 10.5159 16.0774 10.2555 15.817C9.99513 15.5567 9.83962 15.2096 9.81861 14.842C9.7981 14.4832 9.90708 14.1293 10.1252 13.8444L12.9123 11.0573C13.1929 10.7809 13.571 10.6259 13.965 10.6259C14.3594 10.6259 14.738 10.7813 15.0187 11.0584C15.2153 11.2524 15.5318 11.2503 15.7258 11.0538C15.9198 10.8573 15.9178 10.5407 15.7212 10.3467C15.2534 9.88486 14.6224 9.6259 13.965 9.6259Z" fill="black"/>
</svg>
