<svg width="25" height="25" viewBox="0 0 25 25" fill="none" xmlns="http://www.w3.org/2000/svg">
<path fill-rule="evenodd" clip-rule="evenodd" d="M8.25736 4.84989C9.38258 3.72467 10.9087 3.09253 12.5 3.09253C14.0913 3.09253 15.6174 3.72467 16.7426 4.84989C17.8679 5.97511 18.5 7.50123 18.5 9.09253V15.5925C18.5 16.421 19.1716 17.0925 20 17.0925C20.8284 17.0925 21.5 16.421 21.5 15.5925V10.5925C21.5 9.7641 20.8284 9.09253 20 9.09253C19.8247 9.09253 19.6564 9.12261 19.5 9.17788V9.09253C19.5 7.23601 18.7625 5.45554 17.4497 4.14278C16.137 2.83003 14.3565 2.09253 12.5 2.09253C10.6435 2.09253 8.86301 2.83003 7.55025 4.14278C6.2375 5.45554 5.5 7.23601 5.5 9.09253V9.17788C5.34361 9.12261 5.17532 9.09253 5 9.09253C4.17157 9.09253 3.5 9.7641 3.5 10.5925V15.5925C3.5 16.421 4.17157 17.0925 5 17.0925C5.17532 17.0925 5.34361 17.0625 5.5 17.0072V17.7325L5.50001 17.7351C5.50594 18.8889 5.96693 19.9938 6.78282 20.8097C7.59871 21.6256 8.7036 22.0866 9.85743 22.0925L9.86 22.0925H13.67C14.1284 22.0925 14.5 21.7209 14.5 21.2625V20.9225C14.5 20.4641 14.1284 20.0925 13.67 20.0925H11.33C10.8716 20.0925 10.5 20.4641 10.5 20.9225V21.0925H9.86149C8.97148 21.0877 8.11929 20.732 7.48993 20.1026C6.8606 19.4733 6.5049 18.6212 6.5 17.7312V9.09253C6.5 7.50123 7.13214 5.97511 8.25736 4.84989ZM19.5 10.5925C19.5 10.3164 19.7239 10.0925 20 10.0925C20.2761 10.0925 20.5 10.3164 20.5 10.5925V15.5925C20.5 15.8687 20.2761 16.0925 20 16.0925C19.7239 16.0925 19.5 15.8687 19.5 15.5925V10.5925ZM5 16.0925C5.27614 16.0925 5.5 15.8687 5.5 15.5925V10.5925C5.5 10.3164 5.27614 10.0925 5 10.0925C4.72386 10.0925 4.5 10.3164 4.5 10.5925V15.5925C4.5 15.8687 4.72386 16.0925 5 16.0925Z" fill="black"/>
</svg>
