<svg width="25" height="24" viewBox="0 0 25 24" fill="none" xmlns="http://www.w3.org/2000/svg">
<path d="M15 1.35205C14.7239 1.35205 14.5 1.56516 14.5 1.82805C14.5 2.09094 14.7239 2.30405 15 2.30405C16.7239 2.30405 18.3772 2.956 19.5962 4.11647C20.8152 5.27695 21.5 6.85089 21.5 8.49205C21.5 8.75494 21.7239 8.96805 22 8.96805C22.2761 8.96805 22.5 8.75494 22.5 8.49205C22.5 6.5984 21.7098 4.78232 20.3033 3.44331C18.8968 2.1043 16.9891 1.35205 15 1.35205Z" fill="black"/>
<path fill-rule="evenodd" clip-rule="evenodd" d="M9.98324 7.06432L9.99999 7.06405H14L14.0167 7.06432C14.6962 7.08592 15.339 7.36299 15.8044 7.83484C16.2681 8.3049 16.5179 8.9301 16.5 9.57446V18.8442C16.515 19.487 16.2636 20.1097 15.8 20.5775C15.335 21.0467 14.6941 21.3222 14.0167 21.3438L14 21.344H10.2018L9.35465 22.1556C9.15999 22.342 8.84341 22.343 8.64755 22.1577C8.45168 21.9724 8.4507 21.671 8.64535 21.4845L11.8539 18.4109C11.9449 18.322 11.9959 18.2028 11.9959 18.0787C11.9959 17.9541 11.9445 17.8345 11.8529 17.7455C11.8462 17.739 11.8397 17.7323 11.8334 17.7254C11.7383 17.6218 11.6073 17.5544 11.4646 17.5354C11.3271 17.5348 11.1924 17.5733 11.0778 17.6462L11.0704 17.6509L8.27674 19.3605C8.26985 19.3649 8.26284 19.3691 8.25572 19.3732C8.24006 19.3822 8.2261 19.3893 8.21363 19.3945C8.14885 19.4237 8.07643 19.4401 7.99999 19.4401C7.72385 19.4401 7.49999 19.2269 7.49999 18.9641V14.4753L5.15849 16.9058C5.1532 16.9113 5.14778 16.9166 5.14222 16.9219C4.77793 17.2661 4.551 17.7201 4.5 18.2059V21.8105C4.5 22.0734 4.27614 22.2865 4 22.2865C3.72386 22.2865 3.5 22.0734 3.5 21.8105V18.1834C3.5 18.1691 3.50067 18.1549 3.50202 18.1406C3.56956 17.4278 3.89773 16.7603 4.42911 16.2544L7.49999 13.0668V9.56386C7.48501 8.92109 7.7364 8.29843 8.19996 7.83065C8.665 7.36136 9.30593 7.08594 9.98324 7.06432ZM15.0726 19.9242C14.7903 20.2091 14.4019 20.377 13.991 20.3921H11.1956L12.5647 19.0806L12.5671 19.0783C12.8419 18.8113 12.9959 18.4525 12.9959 18.0787C12.9959 17.7095 12.8457 17.3548 12.5772 17.089C12.3134 16.8066 11.9488 16.6275 11.5539 16.5868C11.5414 16.5855 11.5288 16.5847 11.5163 16.5843C11.165 16.5734 10.8189 16.667 10.5262 16.8521L8.50001 18.0922L8.50014 9.55829L8.49984 9.54652C8.48961 9.15252 8.64326 8.77062 8.92735 8.48393C9.20966 8.19905 9.59807 8.03111 10.009 8.01605H13.9911C14.4033 8.0311 14.7929 8.20004 15.0754 8.4865C15.3597 8.77475 15.5125 9.15851 15.5002 9.55375L15.5 9.56781L15.4998 18.8498L15.5001 18.8616C15.5104 19.2556 15.3567 19.6375 15.0726 19.9242Z" fill="black"/>
<path d="M14.5 3.73205C14.5 3.46916 14.7239 3.25605 15 3.25605C16.4587 3.25605 17.8576 3.8077 18.8891 4.78964C19.9205 5.77158 20.5 7.10338 20.5 8.49205C20.5 8.75494 20.2761 8.96805 20 8.96805C19.7239 8.96805 19.5 8.75494 19.5 8.49205C19.5 7.35586 19.0259 6.26621 18.182 5.46281C17.3381 4.6594 16.1935 4.20805 15 4.20805C14.7239 4.20805 14.5 3.99494 14.5 3.73205Z" fill="black"/>
<path d="M14.5051 5.616C14.5443 5.35578 14.7977 5.17512 15.0711 5.21249C15.9225 5.32889 16.7114 5.70475 17.3196 6.28378C17.9278 6.86281 18.3227 7.61384 18.4449 8.4244C18.4842 8.68461 18.2944 8.92586 18.0211 8.96322C17.7477 9.00059 17.4943 8.81994 17.4551 8.55972C17.3635 7.95282 17.0679 7.39049 16.6125 6.95694C16.1571 6.5234 15.5664 6.24198 14.9289 6.15482C14.6556 6.11745 14.4658 5.87621 14.5051 5.616Z" fill="black"/>
</svg>
