<svg width="25" height="25" viewBox="0 0 25 25" fill="none" xmlns="http://www.w3.org/2000/svg">
<path fill-rule="evenodd" clip-rule="evenodd" d="M6 8.59253C6 7.21182 7.11929 6.09253 8.5 6.09253H20C21.3807 6.09253 22.5 7.21182 22.5 8.59253V15.5925C22.5 16.9732 21.3807 18.0925 20 18.0925H8.5C7.11929 18.0925 6 16.9732 6 15.5925V14.5925C6 14.3164 6.22386 14.0925 6.5 14.0925C6.77614 14.0925 7 14.3164 7 14.5925V15.5925C7 16.421 7.67157 17.0925 8.5 17.0925H20C20.8284 17.0925 21.5 16.421 21.5 15.5925V10.3915C21.4449 10.4257 21.3879 10.4576 21.3292 10.487L14.6856 13.8087C14.2509 14.0261 13.7378 14.0193 13.3089 13.7906L7.14706 10.5043C7.09667 10.4774 7.04763 10.4487 7 10.4183V10.5925C7 10.8687 6.77614 11.0925 6.5 11.0925C6.22386 11.0925 6 10.8687 6 10.5925V8.59253ZM7 8.59253C7 9.02339 7.23747 9.41918 7.61765 9.62194L13.7795 12.9083C13.9225 12.9845 14.0935 12.9868 14.2384 12.9143L20.882 9.59253C21.2607 9.40314 21.5 9.01601 21.5 8.59253C21.5 7.7641 20.8284 7.09253 20 7.09253H8.5C7.67157 7.09253 7 7.7641 7 8.59253Z" fill="black"/>
<path d="M2.5 10.5925C2.5 10.3164 2.72386 10.0925 3 10.0925H5C5.27614 10.0925 5.5 10.3164 5.5 10.5925C5.5 10.8687 5.27614 11.0925 5 11.0925H3C2.72386 11.0925 2.5 10.8687 2.5 10.5925Z" fill="black"/>
<path d="M3.5 12.5925C3.5 12.3164 3.72386 12.0925 4 12.0925H8C8.27614 12.0925 8.5 12.3164 8.5 12.5925C8.5 12.8687 8.27614 13.0925 8 13.0925H4C3.72386 13.0925 3.5 12.8687 3.5 12.5925Z" fill="black"/>
<path d="M4 14.0925C3.72386 14.0925 3.5 14.3164 3.5 14.5925C3.5 14.8687 3.72386 15.0925 4 15.0925H5C5.27614 15.0925 5.5 14.8687 5.5 14.5925C5.5 14.3164 5.27614 14.0925 5 14.0925H4Z" fill="black"/>
</svg>
