<svg width="25" height="25" viewBox="0 0 25 25" fill="none" xmlns="http://www.w3.org/2000/svg">
<path d="M12.8203 7.94253C11.8891 7.94253 11.318 8.41027 10.8792 9.00624L10.85 9.04592V9.15596C10.85 9.46807 11.1783 9.67116 11.4576 9.53178L11.4917 9.51475L11.5135 9.4835C11.8251 9.03778 12.191 8.74386 12.789 8.74386C13.1288 8.74386 13.3798 8.8295 13.5433 8.96645C13.7034 9.10063 13.7953 9.29703 13.7953 9.55672C13.7953 9.82794 13.7346 9.99473 13.6149 10.1395C13.4866 10.2946 13.2838 10.4336 12.9685 10.6304C12.7129 10.7843 12.4926 10.9276 12.3396 11.1122C12.1792 11.3057 12.1 11.5345 12.1 11.8425V12.5928L12.1 12.5939L12.1 12.5957L12.1001 12.6003L12.1008 12.614C12.1016 12.6248 12.1031 12.6393 12.1059 12.6563C12.1115 12.6895 12.1228 12.7362 12.1471 12.7846C12.1716 12.8337 12.2107 12.8873 12.2722 12.9283C12.3347 12.9699 12.4112 12.9925 12.5 12.9925C12.5887 12.9925 12.6653 12.9699 12.7277 12.9283C12.7892 12.8873 12.8284 12.8337 12.8529 12.7846C12.8771 12.7362 12.8885 12.6895 12.894 12.6563C12.8969 12.6393 12.8983 12.6248 12.8991 12.614L12.8998 12.6003L12.8999 12.5957L12.9 12.5939L12.9 12.5925C12.9 12.5057 12.8994 12.4254 12.8988 12.3518C12.8974 12.154 12.8964 12.0077 12.9066 11.8876C12.9167 11.7697 12.9368 11.6878 12.9718 11.6188C13.0431 11.478 13.1931 11.3538 13.5766 11.126C13.8609 10.9571 14.1312 10.7724 14.3289 10.5207C14.5305 10.264 14.65 9.94644 14.65 9.52489C14.65 9.0611 14.4662 8.66097 14.139 8.3788C13.8135 8.09815 13.3565 7.94253 12.8203 7.94253Z" fill="black"/>
<path d="M12.5 13.4425C12.21 13.4425 11.975 13.6776 11.975 13.9675C11.975 14.2575 12.21 14.4925 12.5 14.4925C12.7899 14.4925 13.025 14.2575 13.025 13.9675C13.025 13.6776 12.7899 13.4425 12.5 13.4425Z" fill="black"/>
<path fill-rule="evenodd" clip-rule="evenodd" d="M2.5 11.0925C2.5 14.4062 5.18629 17.0925 8.5 17.0925H9.5V18.5925C9.5 18.7584 9.5823 18.9135 9.71969 19.0066C9.85707 19.0996 10.0316 19.1184 10.1857 19.0568L15.0963 17.0925H16.5C19.8137 17.0925 22.5 14.4062 22.5 11.0925C22.5 7.77882 19.8137 5.09253 16.5 5.09253H8.5C5.18629 5.09253 2.5 7.77882 2.5 11.0925ZM8.5 6.09253C5.73858 6.09253 3.5 8.33111 3.5 11.0925C3.5 13.854 5.73858 16.0925 8.5 16.0925H10C10.2761 16.0925 10.5 16.3164 10.5 16.5925V17.854L14.8038 16.1325C14.8351 16.1191 14.8681 16.1088 14.9024 16.1021C14.9387 16.0948 14.9752 16.0917 15.0114 16.0925H16.5C19.2614 16.0925 21.5 13.854 21.5 11.0925C21.5 8.33111 19.2614 6.09253 16.5 6.09253H8.5Z" fill="black"/>
</svg>
