<svg width="25" height="25" viewBox="0 0 25 25" fill="none" xmlns="http://www.w3.org/2000/svg">
<path d="M8.5 1.59253C8.5 1.31639 8.27614 1.09253 8 1.09253C7.72386 1.09253 7.5 1.31639 7.5 1.59253V3.59253C7.5 3.86867 7.72386 4.09253 8 4.09253C8.27614 4.09253 8.5 3.86867 8.5 3.59253V1.59253Z" fill="black"/>
<path d="M3.64645 2.23898C3.84171 2.04371 4.15829 2.04371 4.35355 2.23898L6.35355 4.23898C6.54882 4.43424 6.54882 4.75082 6.35355 4.94608C6.15829 5.14135 5.84171 5.14135 5.64645 4.94608L3.64645 2.94608C3.45118 2.75082 3.45118 2.43424 3.64645 2.23898Z" fill="black"/>
<path fill-rule="evenodd" clip-rule="evenodd" d="M19.8915 16.4579L16.5 13.6545V19.0925C16.5 19.1872 16.4737 19.2757 16.428 19.3512C16.5105 19.5013 16.5137 19.6898 16.42 19.8477C16.279 20.0852 15.9723 20.1635 15.7348 20.0225L12.9548 18.3725C12.9237 18.354 12.8947 18.3322 12.8682 18.3075C12.7735 18.2188 12.648 18.1704 12.5182 18.1725L12.5022 18.1725C12.4355 18.1715 12.3693 18.1837 12.3075 18.2086C12.2467 18.2331 12.1914 18.2693 12.1446 18.315C12.0546 18.4082 12.0042 18.5328 12.0042 18.6625C12.0042 18.793 12.0551 18.9182 12.1461 19.0115L13.7702 20.6457C13.8668 20.6945 13.9455 20.7736 13.9936 20.8706L15.3546 22.2401C15.5493 22.436 15.5483 22.7525 15.3525 22.9472C15.1566 23.1418 14.84 23.1409 14.6454 22.945L13.3012 21.5925H8.9992C7.61823 21.5925 6.5 20.473 6.5 19.0925V7.09253C6.5 5.71182 7.61929 4.59253 9 4.59253H14C15.3807 4.59253 16.5 5.71182 16.5 7.09253V12.3571L20.5211 15.681C20.822 15.9117 21.0665 16.2078 21.2361 16.547C21.4073 16.8894 21.4976 17.2666 21.5 17.6494L21.5 17.6525L21.5 22.5625C21.5 22.8386 21.2761 23.0625 21 23.0625C20.7239 23.0625 20.5 22.8386 20.5 22.5625V17.6542C20.4984 17.425 20.4442 17.1992 20.3417 16.9942C20.2389 16.7887 20.0904 16.6096 19.9075 16.4706L19.8999 16.4647L19.8915 16.4579ZM13.5073 17.5375L15.5 18.7203V7.09253C15.5 6.2641 14.8284 5.59253 14 5.59253H9C8.17157 5.59253 7.5 6.2641 7.5 7.09253V19.0925C7.5 19.9212 8.17103 20.5925 8.9992 20.5925H12.3074L11.4329 19.7126C11.158 19.4321 11.0042 19.0551 11.0042 18.6625C11.0042 18.27 11.158 17.893 11.4329 17.6125L11.4378 17.6076C11.5797 17.4667 11.7485 17.3557 11.9339 17.281C12.117 17.2073 12.3127 17.1705 12.5098 17.1725C12.8762 17.1685 13.2309 17.2986 13.5073 17.5375Z" fill="black"/>
<path d="M2.5 6.59253C2.5 6.31639 2.72386 6.09253 3 6.09253H5C5.27614 6.09253 5.5 6.31639 5.5 6.59253C5.5 6.86867 5.27614 7.09253 5 7.09253H3C2.72386 7.09253 2.5 6.86867 2.5 6.59253Z" fill="black"/>
</svg>
