<svg width="25" height="25" viewBox="0 0 25 25" fill="none" xmlns="http://www.w3.org/2000/svg">
<path d="M12.4999 20.0925C13.0522 20.0925 13.4999 19.6448 13.4999 19.0925C13.4999 18.5402 13.0522 18.0925 12.4999 18.0925C11.9476 18.0925 11.4999 18.5402 11.4999 19.0925C11.4999 19.6448 11.9476 20.0925 12.4999 20.0925Z" fill="black"/>
<path fill-rule="evenodd" clip-rule="evenodd" d="M6.49988 4.98205C6.49743 4.9145 6.49744 4.84697 6.49988 4.77961L6.49988 4.59253C6.49988 3.21182 7.61917 2.09253 8.99988 2.09253H15.9999C17.3806 2.09253 18.4999 3.21182 18.4999 4.59253V4.7796C18.5023 4.84697 18.5023 4.9145 18.4999 4.98206V19.203C18.5023 19.2706 18.5023 19.3381 18.4999 19.4055V19.5925C18.4999 20.9732 17.3806 22.0925 15.9999 22.0925H8.99988C7.61917 22.0925 6.49988 20.9732 6.49988 19.5925V19.4055C6.49744 19.3381 6.49743 19.2706 6.49988 19.203V4.98205ZM9.2101 3.09253C8.9781 3.10264 8.75024 3.1578 8.53926 3.25497C8.32553 3.3534 8.13331 3.49301 7.9736 3.66579C7.81388 3.83858 7.68979 4.04116 7.60844 4.26195C7.54473 4.43486 7.5082 4.61628 7.49988 4.79976V19.3853C7.5082 19.5688 7.54473 19.7502 7.60844 19.9231C7.68979 20.1439 7.81388 20.3465 7.9736 20.5193C8.13331 20.6921 8.32553 20.8317 8.53926 20.9301C8.75025 21.0273 8.97811 21.0824 9.21012 21.0925H15.7896C16.0217 21.0824 16.2495 21.0273 16.4605 20.9301C16.6742 20.8317 16.8665 20.6921 17.0262 20.5193C17.1859 20.3465 17.31 20.1439 17.3913 19.9231C17.455 19.7502 17.4916 19.5688 17.4999 19.3853V4.79977C17.4916 4.61629 17.455 4.43486 17.3913 4.26195C17.31 4.04116 17.1859 3.83858 17.0262 3.66579C16.8665 3.49301 16.6742 3.3534 16.4605 3.25497C16.2495 3.1578 16.0217 3.10264 15.7897 3.09253H9.2101Z" fill="black"/>
</svg>
