<svg width="25" height="25" viewBox="0 0 25 25" fill="none" xmlns="http://www.w3.org/2000/svg">
<path d="M4.5 4.59253C4.5 3.21182 5.61929 2.09253 7 2.09253H14C15.3807 2.09253 16.5 3.21182 16.5 4.59253V5.09253C16.5 5.36867 16.2761 5.59253 16 5.59253C15.7239 5.59253 15.5 5.36867 15.5 5.09253V4.59253C15.5 3.7641 14.8284 3.09253 14 3.09253H7C6.17157 3.09253 5.5 3.7641 5.5 4.59253V19.5925C5.5 20.421 6.17157 21.0925 7 21.0925H14C14.8284 21.0925 15.5 20.421 15.5 19.5925V19.0925C15.5 18.8164 15.7239 18.5925 16 18.5925C16.2761 18.5925 16.5 18.8164 16.5 19.0925V19.5925C16.5 20.9732 15.3807 22.0925 14 22.0925H7C5.61929 22.0925 4.5 20.9732 4.5 19.5925V4.59253Z" fill="black"/>
<path d="M10.5 19.5925C11.0523 19.5925 11.5 19.1448 11.5 18.5925C11.5 18.0402 11.0523 17.5925 10.5 17.5925C9.94772 17.5925 9.5 18.0402 9.5 18.5925C9.5 19.1448 9.94772 19.5925 10.5 19.5925Z" fill="black"/>
<path fill-rule="evenodd" clip-rule="evenodd" d="M16.2495 9.59253C14.855 9.59253 13.7062 10.7018 13.7062 12.0925C13.7062 13.4833 14.855 14.5925 16.2495 14.5925C17.644 14.5925 18.7928 13.4833 18.7928 12.0925C18.7928 10.7018 17.644 9.59253 16.2495 9.59253ZM14.7062 12.0925C14.7062 11.2741 15.387 10.5925 16.2495 10.5925C17.112 10.5925 17.7928 11.2741 17.7928 12.0925C17.7928 12.9109 17.112 13.5925 16.2495 13.5925C15.387 13.5925 14.7062 12.9109 14.7062 12.0925Z" fill="black"/>
<path fill-rule="evenodd" clip-rule="evenodd" d="M15.7278 6.59253C15.1755 6.59253 14.7278 7.04025 14.7278 7.59253V7.89426C14.7278 8.15199 14.54 8.43973 14.1987 8.63508C13.8727 8.82167 13.5484 8.83709 13.3243 8.71044L13.0177 8.5372C12.54 8.26726 11.9305 8.43056 11.6517 8.90314L11.1381 9.77387C10.8557 10.2527 11.0201 10.8664 11.5041 11.1399L11.8112 11.3134C12.0236 11.4335 12.1737 11.7184 12.1737 12.0925C12.1737 12.4666 12.0236 12.7516 11.8112 12.8717L11.5041 13.0452C11.0201 13.3187 10.8557 13.9324 11.1381 14.4112L11.6517 15.2819C11.9305 15.7545 12.54 15.9178 13.0177 15.6479L13.3243 15.4746C13.5484 15.348 13.8727 15.3634 14.1987 15.55C14.54 15.7453 14.7278 16.0331 14.7278 16.2908V16.5925C14.7278 17.1448 15.1755 17.5925 15.7278 17.5925H16.7711C17.3234 17.5925 17.7711 17.1448 17.7711 16.5925V16.2908C17.7711 16.0331 17.959 15.7453 18.3003 15.55C18.6263 15.3634 18.9506 15.348 19.1747 15.4746L19.4813 15.6479C19.9589 15.9178 20.5685 15.7545 20.8472 15.2819L21.3608 14.4112C21.6433 13.9324 21.4789 13.3187 20.9949 13.0452L20.6878 12.8717C20.4753 12.7516 20.3253 12.4666 20.3253 12.0925C20.3253 11.7184 20.4753 11.4335 20.6878 11.3134L20.9949 11.1399C21.4789 10.8664 21.6433 10.2527 21.3608 9.77387L20.8472 8.90314C20.5685 8.43056 19.9589 8.26726 19.4813 8.5372L19.1747 8.71044C18.9506 8.83709 18.6263 8.82167 18.3003 8.63508C17.959 8.43973 17.7711 8.15199 17.7711 7.89426V7.59253C17.7711 7.04024 17.3234 6.59253 16.7711 6.59253H15.7278ZM14.6955 9.50297C15.2214 9.20192 15.7278 8.63582 15.7278 7.89426V7.59253H16.7711V7.89426C16.7711 8.63582 17.2775 9.20192 17.8035 9.50297C18.326 9.80204 19.0397 9.93539 19.6667 9.58104L19.9732 9.4078L19.9751 9.40717C19.9751 9.40717 19.9778 9.40706 19.9801 9.40767C19.9823 9.40827 19.9847 9.40974 19.9847 9.40974L19.9859 9.4112L20.4948 10.2739L20.1958 10.4428C19.5644 10.7996 19.3253 11.4973 19.3253 12.0925C19.3253 12.6877 19.5644 13.3854 20.1958 13.7423L20.4948 13.9112L19.9859 14.7739L19.9847 14.7753C19.9847 14.7753 19.9823 14.7768 19.9801 14.7774L19.979 14.7776L19.9766 14.7779L19.9751 14.7779L19.9732 14.7773L19.6667 14.604C19.0396 14.2497 18.326 14.383 17.8035 14.6821C17.2775 14.9831 16.7711 15.5492 16.7711 16.2908V16.5925H15.7278V16.2908C15.7278 15.5492 15.2214 14.9831 14.6955 14.6821C14.173 14.383 13.4593 14.2497 12.8323 14.604L12.5257 14.7773L12.5239 14.7779L12.5222 14.7779L12.5189 14.7774C12.5166 14.7768 12.5143 14.7753 12.5143 14.7753L12.513 14.7739L12.0042 13.9112L12.3032 13.7423C12.9346 13.3854 13.1737 12.6877 13.1737 12.0925C13.1737 11.4973 12.9346 10.7996 12.3032 10.4428L12.0042 10.2739L12.513 9.4112L12.5143 9.40974C12.5143 9.40974 12.5166 9.40827 12.5189 9.40766L12.5223 9.40712L12.5239 9.40717L12.5257 9.4078L12.8323 9.58104C13.4593 9.93539 14.1729 9.80204 14.6955 9.50297Z" fill="black"/>
</svg>
