<svg width="25" height="25" viewBox="0 0 25 25" fill="none" xmlns="http://www.w3.org/2000/svg">
<path d="M2.5 4.59253C2.5 3.21182 3.61929 2.09253 5 2.09253H12C13.3807 2.09253 14.5 3.21182 14.5 4.59253V5.09253C14.5 5.36867 14.2761 5.59253 14 5.59253C13.7239 5.59253 13.5 5.36867 13.5 5.09253V4.59253C13.5 3.7641 12.8284 3.09253 12 3.09253H5C4.17157 3.09253 3.5 3.7641 3.5 4.59253V19.5925C3.5 20.421 4.17157 21.0925 5 21.0925H12C12.8284 21.0925 13.5 20.421 13.5 19.5925V19.0925C13.5 18.8164 13.7239 18.5925 14 18.5925C14.2761 18.5925 14.5 18.8164 14.5 19.0925V19.5925C14.5 20.9732 13.3807 22.0925 12 22.0925H5C3.61929 22.0925 2.5 20.9732 2.5 19.5925V4.59253Z" fill="black"/>
<path d="M8.5 19.5925C9.05228 19.5925 9.5 19.1448 9.5 18.5925C9.5 18.0402 9.05228 17.5925 8.5 17.5925C7.94772 17.5925 7.5 18.0402 7.5 18.5925C7.5 19.1448 7.94772 19.5925 8.5 19.5925Z" fill="black"/>
<path fill-rule="evenodd" clip-rule="evenodd" d="M15 6.09253C11.6863 6.09253 9 8.77882 9 12.0925C9 15.4062 11.6863 18.0925 15 18.0925C18.3137 18.0925 21 15.4062 21 12.0925C21 8.77882 18.3137 6.09253 15 6.09253ZM10.94 10.2084C10.6967 10.2969 10.4673 10.3956 10.2573 10.5049C10.754 9.02055 11.928 7.84651 13.4124 7.34984C13.3031 7.55981 13.2044 7.78924 13.1159 8.03257C12.9324 8.53722 12.7843 9.12579 12.6794 9.77191C12.0333 9.87684 11.4447 10.0249 10.94 10.2084ZM12.5529 10.8094C12.0778 10.8995 11.6494 11.0145 11.2818 11.1482C10.816 11.3176 10.4742 11.5075 10.2582 11.6932C10.0406 11.8803 10 12.0169 10 12.0925C10 12.1681 10.0406 12.3048 10.2582 12.4919C10.4742 12.6776 10.816 12.8675 11.2818 13.0368C11.6494 13.1705 12.0778 13.2855 12.5529 13.3756C12.5182 12.9616 12.5 12.532 12.5 12.0925C12.5 11.653 12.5182 11.2235 12.5529 10.8094ZM13.5707 13.5219C13.5248 13.0696 13.5 12.5902 13.5 12.0925C13.5 11.5948 13.5248 11.1155 13.5707 10.6632C14.023 10.6174 14.5023 10.5925 15 10.5925C15.4977 10.5925 15.977 10.6174 16.4293 10.6632C16.4752 11.1155 16.5 11.5948 16.5 12.0925C16.5 12.5902 16.4752 13.0696 16.4293 13.5219C15.977 13.5677 15.4977 13.5925 15 13.5925C14.5023 13.5925 14.023 13.5677 13.5707 13.5219ZM12.6794 14.4131C12.0333 14.3082 11.4447 14.1601 10.94 13.9766C10.6967 13.8882 10.4673 13.7894 10.2573 13.6801C10.754 15.1645 11.928 16.3385 13.4124 16.8352C13.3031 16.6252 13.2044 16.3958 13.1159 16.1525C12.9324 15.6478 12.7843 15.0593 12.6794 14.4131ZM15 17.0925C14.9244 17.0925 14.7877 17.052 14.6007 16.8344C14.415 16.6184 14.2251 16.2766 14.0557 15.8107C13.922 15.4431 13.807 15.0148 13.7169 14.5396C14.1309 14.5744 14.5605 14.5925 15 14.5925C15.4395 14.5925 15.8691 14.5744 16.2831 14.5396C16.193 15.0148 16.078 15.4431 15.9443 15.8107C15.7749 16.2766 15.585 16.6184 15.3993 16.8344C15.2123 17.052 15.0756 17.0925 15 17.0925ZM16.5876 16.8352C16.6969 16.6252 16.7956 16.3958 16.8841 16.1525C17.0676 15.6478 17.2157 15.0593 17.3206 14.4131C17.9667 14.3082 18.5553 14.1601 19.06 13.9766C19.3033 13.8882 19.5327 13.7894 19.7427 13.6801C19.246 15.1645 18.072 16.3386 16.5876 16.8352ZM17.4471 13.3756C17.9222 13.2855 18.3506 13.1705 18.7182 13.0368C19.184 12.8675 19.5258 12.6776 19.7418 12.4919C19.9594 12.3048 20 12.1681 20 12.0925C20 12.0169 19.9594 11.8803 19.7418 11.6932C19.5258 11.5075 19.184 11.3176 18.7182 11.1482C18.3506 11.0145 17.9222 10.8995 17.4471 10.8094C17.4818 11.2235 17.5 11.653 17.5 12.0925C17.5 12.532 17.4818 12.9616 17.4471 13.3756ZM17.3206 9.77191C17.9667 9.87684 18.5553 10.0249 19.06 10.2084C19.3033 10.2969 19.5327 10.3956 19.7427 10.5049C19.246 9.02055 18.072 7.84651 16.5876 7.34984C16.6969 7.55981 16.7956 7.78924 16.8841 8.03257C17.0676 8.53722 17.2157 9.12579 17.3206 9.77191ZM16.2831 9.64543C15.8691 9.6107 15.4395 9.59253 15 9.59253C14.5605 9.59253 14.1309 9.6107 13.7169 9.64543C13.807 9.1703 13.922 8.74191 14.0557 8.37431C14.2251 7.90849 14.415 7.5667 14.6007 7.35071C14.7877 7.1331 14.9244 7.09253 15 7.09253C15.0756 7.09253 15.2123 7.1331 15.3993 7.35071C15.585 7.5667 15.7749 7.90849 15.9443 8.37431C16.078 8.74191 16.193 9.1703 16.2831 9.64543Z" fill="black"/>
</svg>
