<svg width="25" height="24" viewBox="0 0 25 24" fill="none" xmlns="http://www.w3.org/2000/svg">
<path fill-rule="evenodd" clip-rule="evenodd" d="M12.8189 10.2597C13.8364 9.53448 14.5 8.34473 14.5 7C14.5 4.79086 12.7091 3 10.5 3C8.29086 3 6.5 4.79086 6.5 7C6.5 8.34473 7.16357 9.53448 8.18113 10.2597C7.1411 10.5628 6.18359 11.124 5.40381 11.9038C4.18482 13.1228 3.5 14.7761 3.5 16.5V16.8C3.5 17.3835 3.73179 17.9431 4.14437 18.3556C4.55694 18.7682 5.11652 19 5.7 19H7.52002V22.5299C7.52002 22.8061 7.74388 23.0299 8.02002 23.0299H11.55C11.6825 23.0299 11.8096 22.9773 11.9033 22.8837L19.7333 15.0637C19.7738 15.0233 19.8066 14.9768 19.8308 14.9263L21.756 13.001L21.7631 12.9942L21.771 12.9861L22.6636 12.0935L22.6748 12.0819C23.205 11.5162 23.493 10.7657 23.4773 9.99053C23.4615 9.21541 23.1434 8.47716 22.5907 7.93348C22.5847 7.92757 22.5785 7.92182 22.5722 7.91622L22.4932 7.846C22.227 7.58119 21.9117 7.37076 21.5649 7.22652C21.2132 7.08021 20.836 7.00488 20.455 7.00488C20.0741 7.00488 19.6968 7.0802 19.3451 7.22652C18.9937 7.37268 18.6746 7.58682 18.4062 7.85662L18.4054 7.85743L15.4871 10.7658L14.9325 11.3245C14.2971 10.8417 13.5801 10.4816 12.8189 10.2597ZM14.2208 12.0417C13.2894 11.3688 12.1637 11 11 11H10C8.54131 11 7.14236 11.5795 6.11091 12.6109C5.07946 13.6424 4.5 15.0413 4.5 16.5V16.8C4.5 17.1183 4.62643 17.4235 4.85147 17.6485C5.07652 17.8736 5.38174 18 5.7 18H8.30791L14.2208 12.0417ZM7.5 7C7.5 5.34315 8.84315 4 10.5 4C12.1569 4 13.5 5.34315 13.5 7C13.5 8.65685 12.1569 10 10.5 10C8.84315 10 7.5 8.65685 7.5 7ZM21.4104 11.9324L21.9504 11.3924C22.2988 11.0179 22.4879 10.5224 22.4775 10.0108C22.4671 9.50065 22.2592 9.01457 21.8979 8.65476L21.8178 8.58363L21.8135 8.57976C21.8074 8.57414 21.8013 8.56836 21.7954 8.56243C21.6198 8.38573 21.4109 8.24551 21.1809 8.14983C20.9508 8.05414 20.7042 8.00488 20.455 8.00488C20.2059 8.00488 19.9592 8.05414 19.7292 8.14983C19.4991 8.24551 19.2903 8.38573 19.1146 8.56243L19.113 8.56409L18.5806 9.0946L21.4104 11.9324ZM17.8723 9.80049L18.9407 10.8719L10.2199 19.5829L9.17896 18.5419L16.193 11.4741L16.1949 11.4721L17.8723 9.80049ZM10.927 20.29L19.6468 11.58L20.7033 12.6395L19.0265 14.3164C18.9862 14.3566 18.9535 14.403 18.9294 14.4534L12.0055 21.3684L10.927 20.29ZM8.52002 19.2972L11.2528 22.0299H8.52002V19.2972Z" fill="black"/>
</svg>
