<svg width="25" height="24" viewBox="0 0 25 24" fill="none" xmlns="http://www.w3.org/2000/svg">
<path d="M13 19C12.7239 19 12.5 19.2239 12.5 19.5C12.5 19.7761 12.7239 20 13 20H20C20.2761 20 20.5 19.7761 20.5 19.5C20.5 19.2239 20.2761 19 20 19H13Z" fill="black"/>
<path d="M12.5 16.3C12.5 15.582 13.082 15 13.8 15H14.2C14.918 15 15.5 15.582 15.5 16.3V16.7C15.5 17.418 14.918 18 14.2 18H13.8C13.082 18 12.5 17.418 12.5 16.7V16.3Z" fill="black"/>
<path d="M16.5 17.5C16.5 17.2239 16.7239 17 17 17H20C20.2761 17 20.5 17.2239 20.5 17.5C20.5 17.7761 20.2761 18 20 18H17C16.7239 18 16.5 17.7761 16.5 17.5Z" fill="black"/>
<path d="M17 15C16.7239 15 16.5 15.2239 16.5 15.5C16.5 15.7761 16.7239 16 17 16H20C20.2761 16 20.5 15.7761 20.5 15.5C20.5 15.2239 20.2761 15 20 15H17Z" fill="black"/>
<path fill-rule="evenodd" clip-rule="evenodd" d="M12.8189 10.2597C13.8364 9.53448 14.5 8.34473 14.5 7C14.5 4.79086 12.7091 3 10.5 3C8.29086 3 6.5 4.79086 6.5 7C6.5 8.34473 7.16357 9.53448 8.18113 10.2597C7.1411 10.5628 6.18359 11.124 5.40381 11.9038C4.18482 13.1228 3.5 14.7761 3.5 16.5V16.8C3.5 17.3835 3.73179 17.9431 4.14437 18.3556C4.55694 18.7682 5.11652 19 5.7 19H10.5V19.5C10.5 20.163 10.7634 20.7989 11.2322 21.2678C11.7011 21.7366 12.337 22 13 22H20C20.663 22 21.2989 21.7366 21.7678 21.2678C22.2366 20.7989 22.5 20.163 22.5 19.5V13.5C22.5 13.1022 22.342 12.7206 22.0607 12.4393C21.7794 12.158 21.3978 12 21 12H15.6904C15.6594 11.9676 15.628 11.9356 15.5962 11.9038C14.8164 11.124 13.8589 10.5628 12.8189 10.2597ZM7.5 7C7.5 5.34315 8.84315 4 10.5 4C12.1569 4 13.5 5.34315 13.5 7C13.5 8.65685 12.1569 10 10.5 10C8.84315 10 7.5 8.65685 7.5 7ZM10.9393 12.4393C10.658 12.7206 10.5 13.1022 10.5 13.5V18H5.7C5.38174 18 5.07652 17.8736 4.85147 17.6485C4.62643 17.4235 4.5 17.1183 4.5 16.8V16.5C4.5 15.0413 5.07946 13.6424 6.11091 12.6109C7.14236 11.5795 8.54131 11 10 11H11C12.1395 11 13.2425 11.3536 14.1623 12H12C11.6022 12 11.2206 12.158 10.9393 12.4393ZM21.0607 20.5607C21.342 20.2794 21.5 19.8978 21.5 19.5V14H11.5V19.5C11.5 19.8978 11.658 20.2794 11.9393 20.5607C12.2206 20.842 12.6022 21 13 21H20C20.3978 21 20.7794 20.842 21.0607 20.5607Z" fill="black"/>
</svg>
