<svg width="25" height="24" viewBox="0 0 25 24" fill="none" xmlns="http://www.w3.org/2000/svg">
<path d="M20.6213 17.5C20.8975 17.5 21.1213 17.2762 21.1213 17C21.1213 16.7239 20.8975 16.5 20.6213 16.5H16.3787C16.1025 16.5 15.8787 16.7239 15.8787 17C15.8787 17.2762 16.1025 17.5 16.3787 17.5H20.6213Z" fill="black"/>
<path fill-rule="evenodd" clip-rule="evenodd" d="M14.5 7C14.5 8.34473 13.8364 9.53448 12.8189 10.2597C13.8589 10.5628 14.8164 11.124 15.5962 11.9038C15.9268 12.2344 16.2181 12.597 16.4672 12.9843C17.0778 12.6745 17.7685 12.5 18.5 12.5C20.9853 12.5 23 14.5147 23 17C23 19.4853 20.9853 21.5 18.5 21.5C16.7331 21.5 15.2041 20.4817 14.4678 19H5.7C5.11652 19 4.55694 18.7682 4.14437 18.3556C3.73179 17.9431 3.5 17.3835 3.5 16.8V16.5C3.5 14.7761 4.18482 13.1228 5.40381 11.9038C6.18359 11.124 7.1411 10.5628 8.18113 10.2597C7.16357 9.53448 6.5 8.34473 6.5 7C6.5 4.79086 8.29086 3 10.5 3C12.7091 3 14.5 4.79086 14.5 7ZM7.5 7C7.5 5.34315 8.84315 4 10.5 4C12.1569 4 13.5 5.34315 13.5 7C13.5 8.65685 12.1569 10 10.5 10C8.84315 10 7.5 8.65685 7.5 7ZM6.11091 12.6109C7.14236 11.5795 8.54131 11 10 11H11C12.4587 11 13.8576 11.5795 14.8891 12.6109C15.1711 12.8929 15.4193 13.2023 15.6311 13.533C14.6347 14.3584 14 15.6051 14 17C14 17.3437 14.0385 17.6784 14.1115 18H5.7C5.38174 18 5.07652 17.8736 4.85147 17.6485C4.62643 17.4235 4.5 17.1183 4.5 16.8V16.5C4.5 15.0413 5.07946 13.6424 6.11091 12.6109ZM15 17C15 15.067 16.567 13.5 18.5 13.5C20.433 13.5 22 15.067 22 17C22 18.933 20.433 20.5 18.5 20.5C16.567 20.5 15 18.933 15 17Z" fill="black"/>
</svg>
