<svg width="25" height="24" viewBox="0 0 25 24" fill="none" xmlns="http://www.w3.org/2000/svg">
<path fill-rule="evenodd" clip-rule="evenodd" d="M2.5 12C2.5 6.47715 6.97715 2 12.5 2C18.0228 2 22.5 6.47715 22.5 12C22.5 17.5228 18.0228 22 12.5 22C6.97715 22 2.5 17.5228 2.5 12ZM12.5 3C7.52944 3 3.5 7.02944 3.5 12C3.5 14.2383 4.3171 16.2858 5.66929 17.8604C5.98311 16.6565 6.6383 15.5597 7.56692 14.7084C8.31585 14.0219 9.20846 13.5264 10.1693 13.2512C9.15844 12.5253 8.5 11.3395 8.5 10C8.5 7.79086 10.2909 6 12.5 6C14.7091 6 16.5 7.79086 16.5 10C16.5 11.3446 15.8366 12.5342 14.8192 13.2594C15.7692 13.5363 16.6516 14.0287 17.3931 14.7084C18.3309 15.5681 18.9898 16.6782 19.2999 17.8961C20.6705 16.3168 21.5 14.2553 21.5 12C21.5 7.02944 17.4706 3 12.5 3ZM12.4858 14L12.5 14L12.5142 14H12.98L12.9817 14C14.3644 13.9952 15.6981 14.5113 16.7173 15.4456C17.665 16.3143 18.2761 17.4852 18.4499 18.7528C16.8637 20.1515 14.781 21 12.5 21C10.2019 21 8.10504 20.1387 6.51452 18.7213C6.69404 17.4658 7.30286 16.3071 8.24264 15.4456C9.26187 14.5113 10.5956 13.9952 11.9783 14L11.98 14H12.4858ZM12.5123 13C14.1635 12.9933 15.5 11.6527 15.5 10C15.5 8.34315 14.1569 7 12.5 7C10.8431 7 9.5 8.34315 9.5 10C9.5 11.6527 10.8365 12.9933 12.4877 13H12.5123Z" fill="black"/>
</svg>
