<svg width="25" height="24" viewBox="0 0 25 24" fill="none" xmlns="http://www.w3.org/2000/svg">
<path fill-rule="evenodd" clip-rule="evenodd" d="M17.3 14C15.9193 14 14.8 15.1193 14.8 16.5C14.8 17.8807 15.9193 19 17.3 19C18.6808 19 19.8 17.8807 19.8 16.5C19.8 15.1193 18.6808 14 17.3 14ZM15.8 16.5C15.8 15.6716 16.4716 15 17.3 15C18.1285 15 18.8 15.6716 18.8 16.5C18.8 17.3284 18.1285 18 17.3 18C16.4716 18 15.8 17.3284 15.8 16.5Z" fill="black"/>
<path fill-rule="evenodd" clip-rule="evenodd" d="M14.5 7C14.5 8.34473 13.8364 9.53448 12.8189 10.2597C13.7848 10.5412 14.6796 11.0454 15.427 11.7406C15.6103 11.3065 16.0383 11 16.5407 11H17.9594C18.6305 11 19.1687 11.5469 19.1687 12.2143V12.7885C19.1687 12.9589 19.3471 13.053 19.4814 12.9749L19.9752 12.6878C20.5556 12.3503 21.2962 12.552 21.6292 13.1328L22.3386 14.37C22.6704 14.9487 22.4749 15.6904 21.8965 16.0267L21.4028 16.3137C21.2616 16.3958 21.2615 16.6042 21.4028 16.6863L21.8965 16.9733C22.4749 17.3096 22.6705 18.0513 22.3386 18.63L21.6293 19.8672C21.2963 20.448 20.5557 20.6497 19.9753 20.3122L19.4814 20.0251C19.3471 19.947 19.1687 20.0411 19.1687 20.2114V20.7857C19.1687 21.4531 18.6305 22 17.9594 22H16.5407C15.8695 22 15.3313 21.4531 15.3313 20.7857V20.2116C15.3313 20.0413 15.153 19.9472 15.0186 20.0253L14.5248 20.3124C13.9444 20.6498 13.2038 20.4482 12.8708 19.8674L12.3734 19H5.7C5.11652 19 4.55694 18.7682 4.14437 18.3556C3.73179 17.9431 3.5 17.3835 3.5 16.8V16.5C3.5 14.7761 4.18482 13.1228 5.40381 11.9038C6.18359 11.124 7.1411 10.5628 8.18113 10.2597C7.16357 9.53448 6.5 8.34473 6.5 7C6.5 4.79086 8.29086 3 10.5 3C12.7091 3 14.5 4.79086 14.5 7ZM7.5 7C7.5 5.34315 8.84315 4 10.5 4C12.1569 4 13.5 5.34315 13.5 7C13.5 8.65685 12.1569 10 10.5 10C8.84315 10 7.5 8.65685 7.5 7ZM6.11091 12.6109C7.14236 11.5795 8.54131 11 10 11H11C12.4587 11 13.8576 11.5795 14.8891 12.6109C15.0062 12.7281 15.1175 12.8499 15.2228 12.9761C15.1619 13.0098 15.0849 13.0132 15.0186 12.9747L14.5249 12.6876C13.9444 12.3502 13.2038 12.5518 12.8708 13.1326L12.1615 14.3698C11.8296 14.9486 12.0252 15.6902 12.6036 16.0265L13.0975 16.3137C13.2388 16.3958 13.2388 16.6042 13.0975 16.6863L12.6035 16.9735C12.2235 17.1944 12.0088 17.5903 12.0003 18H5.7C5.38174 18 5.07652 17.8736 4.85147 17.6485C4.62643 17.4235 4.5 17.1183 4.5 16.8V16.5C4.5 15.0413 5.07946 13.6424 6.11091 12.6109ZM16.3313 12.2143C16.3313 12.0927 16.4283 12 16.5407 12H17.9594C18.0717 12 18.1687 12.0927 18.1687 12.2143V12.7885C18.1687 13.7179 19.1726 14.3111 19.984 13.8394L20.4778 13.5523C20.5759 13.4953 20.7029 13.5277 20.7617 13.6302L21.4711 14.8674C21.531 14.9719 21.494 15.1039 21.3939 15.1621L20.9002 15.4491C20.0958 15.9168 20.0958 17.0831 20.9002 17.5508L21.3939 17.8379C21.4941 17.8961 21.531 18.0281 21.4711 18.1326L20.7618 19.3698C20.703 19.4723 20.576 19.5047 20.4779 19.4477L19.984 19.1606C19.1726 18.6888 18.1687 19.2821 18.1687 20.2114V20.7857C18.1687 20.9073 18.0717 21 17.9594 21H16.5407C16.4283 21 16.3313 20.9073 16.3313 20.7857V20.2116C16.3313 19.2822 15.3275 18.689 14.516 19.1608L14.0222 19.4479C13.9241 19.5049 13.797 19.4725 13.7383 19.37L13.0289 18.1328C12.969 18.0283 13.006 17.8962 13.1061 17.838L13.6001 17.5508C14.4046 17.0831 14.4046 15.9168 13.6001 15.4491L13.1062 15.162C13.006 15.1038 12.9691 14.9717 13.029 14.8672L13.7383 13.63C13.7971 13.5275 13.9242 13.4951 14.0223 13.5521L14.516 13.8392C15.3275 14.311 16.3313 13.7177 16.3313 12.7884V12.2143Z" fill="black"/>
</svg>
