<svg width="25" height="24" viewBox="0 0 25 24" fill="none" xmlns="http://www.w3.org/2000/svg">
<path fill-rule="evenodd" clip-rule="evenodd" d="M12.8189 10.2597C13.8364 9.53448 14.5 8.34473 14.5 7C14.5 4.79086 12.7091 3 10.5 3C8.29086 3 6.5 4.79086 6.5 7C6.5 8.34473 7.16357 9.53448 8.18113 10.2597C7.1411 10.5628 6.18359 11.124 5.40381 11.9038C4.18482 13.1228 3.5 14.7761 3.5 16.5V16.8C3.5 17.3835 3.73179 17.9431 4.14437 18.3556C4.55694 18.7682 5.11652 19 5.7 19H13.0997C14.0101 20.7808 15.8627 22 18 22C21.0376 22 23.5 19.5376 23.5 16.5C23.5 13.4624 21.0376 11 18 11C17.0418 11 16.1408 11.245 15.3563 11.6759C14.6235 11.0141 13.7546 10.5324 12.8189 10.2597ZM10.5 4C8.84315 4 7.5 5.34315 7.5 7C7.5 8.65685 8.84315 10 10.5 10C12.1569 10 13.5 8.65685 13.5 7C13.5 5.34315 12.1569 4 10.5 4ZM16.3295 12.3202C15.1879 12.7769 14.2769 13.6879 13.8202 14.8295C13.9654 14.7548 14.1189 14.6855 14.2788 14.6215C14.6996 14.4532 15.1831 14.3146 15.7114 14.2114C15.8146 13.6831 15.9532 13.1996 16.1215 12.7788C16.1855 12.6189 16.2548 12.4654 16.3295 12.3202ZM16.7674 14.0588C16.8473 13.7238 16.9426 13.4187 17.05 13.1502C17.217 12.7326 17.4034 12.4283 17.5848 12.2365C17.7652 12.0457 17.9056 12 18 12C18.0944 12 18.2348 12.0457 18.4152 12.2365C18.5966 12.4283 18.783 12.7326 18.95 13.1502C19.0574 13.4187 19.1527 13.7238 19.2326 14.0588C18.8355 14.0202 18.4227 14 18 14C17.5773 14 17.1645 14.0202 16.7674 14.0588ZM15.5588 15.2674C15.2238 15.3473 14.9187 15.4426 14.6502 15.55C14.2326 15.717 13.9283 15.9034 13.7365 16.0848C13.5457 16.2652 13.5 16.4056 13.5 16.5C13.5 16.5944 13.5457 16.7348 13.7365 16.9152C13.9283 17.0966 14.2326 17.283 14.6502 17.45C14.9187 17.5574 15.2238 17.6527 15.5588 17.7326C15.5202 17.3355 15.5 16.9227 15.5 16.5C15.5 16.0773 15.5202 15.6645 15.5588 15.2674ZM16.5849 17.9151C16.53 17.471 16.5 16.9958 16.5 16.5C16.5 16.0042 16.53 15.529 16.5849 15.0849C17.029 15.03 17.5042 15 18 15C18.4958 15 18.971 15.03 19.4151 15.0849C19.47 15.529 19.5 16.0042 19.5 16.5C19.5 16.9958 19.47 17.471 19.4151 17.9151C18.971 17.97 18.4958 18 18 18C17.5042 18 17.029 17.97 16.5849 17.9151ZM15.7114 18.7886C15.1831 18.6854 14.6996 18.5468 14.2788 18.3785C14.1189 18.3145 13.9654 18.2452 13.8202 18.1705C14.2769 19.3121 15.1879 20.2231 16.3295 20.6798C16.2548 20.5346 16.1855 20.3811 16.1215 20.2212C15.9532 19.8004 15.8146 19.3169 15.7114 18.7886ZM18 21C17.9056 21 17.7652 20.9543 17.5848 20.7635C17.4034 20.5717 17.217 20.2674 17.05 19.8498C16.9426 19.5813 16.8473 19.2762 16.7674 18.9412C17.1645 18.9798 17.5773 19 18 19C18.4227 19 18.8355 18.9798 19.2326 18.9412C19.1527 19.2762 19.0574 19.5813 18.95 19.8498C18.783 20.2674 18.5966 20.5717 18.4152 20.7635C18.2348 20.9543 18.0944 21 18 21ZM19.6705 20.6798C20.8121 20.2231 21.7231 19.3121 22.1798 18.1705C22.0346 18.2452 21.8811 18.3145 21.7212 18.3785C21.3004 18.5468 20.8169 18.6854 20.2886 18.7886C20.1854 19.3169 20.0468 19.8004 19.8785 20.2212C19.8145 20.3811 19.7452 20.5346 19.6705 20.6798ZM20.4412 17.7326C20.7762 17.6527 21.0813 17.5574 21.3498 17.45C21.7674 17.283 22.0717 17.0966 22.2635 16.9152C22.4543 16.7348 22.5 16.5944 22.5 16.5C22.5 16.4056 22.4543 16.2652 22.2635 16.0848C22.0717 15.9034 21.7674 15.717 21.3498 15.55C21.0813 15.4426 20.7762 15.3473 20.4412 15.2674C20.4798 15.6645 20.5 16.0773 20.5 16.5C20.5 16.9227 20.4798 17.3355 20.4412 17.7326ZM20.2886 14.2114C20.8169 14.3146 21.3004 14.4532 21.7212 14.6215C21.8811 14.6855 22.0346 14.7548 22.1798 14.8295C21.7231 13.6879 20.8121 12.7769 19.6705 12.3202C19.7452 12.4654 19.8145 12.6189 19.8785 12.7788C20.0468 13.1996 20.1854 13.6831 20.2886 14.2114ZM14.4999 12.2573C13.2785 13.266 12.5 14.7921 12.5 16.5C12.5 17.02 12.5722 17.5232 12.707 18H5.7C5.38174 18 5.07652 17.8736 4.85147 17.6485C4.62643 17.4235 4.5 17.1183 4.5 16.8V16.5C4.5 15.0413 5.07946 13.6424 6.11091 12.6109C7.14236 11.5795 8.54131 11 10 11H11C12.2825 11 13.5189 11.448 14.4999 12.2573Z" fill="black"/>
</svg>
