<svg width="25" height="24" viewBox="0 0 25 24" fill="none" xmlns="http://www.w3.org/2000/svg">
<path fill-rule="evenodd" clip-rule="evenodd" d="M15.5 9C15.5 9.92237 15.0837 10.7475 14.4288 11.2978C15.0729 11.548 15.6622 11.9496 16.1508 12.4789C16.2877 12.6272 16.415 12.7837 16.5323 12.9471C16.7698 12.7086 17.0382 12.5106 17.3277 12.3584C16.8195 11.9008 16.5 11.2377 16.5 10.5C16.5 9.11929 17.6193 8 19 8C20.3807 8 21.5 9.11929 21.5 10.5C21.5 11.2377 21.1805 11.9008 20.6723 12.3584C20.9984 12.5299 21.2977 12.7594 21.5563 13.0395C22.1645 13.6984 22.5 14.5841 22.5 15.5V15.65C22.5 15.9957 22.3736 16.3345 22.1376 16.5902C21.9003 16.8472 21.5696 17 21.2154 17H17.3319C17.2543 17.1696 17.1506 17.3271 17.0227 17.4657C16.7119 17.8024 16.2813 18 15.8231 18H9.17692C8.71867 18 8.28814 17.8024 7.97731 17.4657C7.84942 17.3271 7.74573 17.1696 7.66808 17H3.78462C3.43041 17 3.09966 16.8472 2.86241 16.5902C2.6264 16.3345 2.5 15.9957 2.5 15.65V15.5C2.5 14.5841 2.83549 13.6984 3.44369 13.0395C3.70227 12.7594 4.00156 12.5299 4.32772 12.3584C3.81952 11.9008 3.5 11.2377 3.5 10.5C3.5 9.11929 4.61929 8 6 8C7.38071 8 8.5 9.11929 8.5 10.5C8.5 11.2377 8.18048 11.9008 7.67228 12.3584C7.96184 12.5106 8.23022 12.7086 8.46773 12.9471C8.58503 12.7837 8.71232 12.6272 8.84923 12.4789C9.33783 11.9496 9.92712 11.548 10.5712 11.2978C9.91626 10.7475 9.5 9.92237 9.5 9C9.5 7.34315 10.8431 6 12.5 6C14.1569 6 15.5 7.34315 15.5 9ZM12.5 7C11.3954 7 10.5 7.89543 10.5 9C10.5 10.1046 11.3954 11 12.5 11C13.6046 11 14.5 10.1046 14.5 9C14.5 7.89543 13.6046 7 12.5 7ZM15.416 13.1572C14.7271 12.4109 13.8017 12 12.8462 12H12.1538C11.1983 12 10.2729 12.4109 9.58403 13.1572C9.24316 13.5264 8.97455 13.9627 8.78998 14.4389C8.62424 14.8666 8.52626 15.3266 8.50459 15.7994C8.50154 15.866 8.5 15.9329 8.5 16V16.225C8.5 16.2475 8.50085 16.2698 8.50253 16.2919C8.50532 16.3285 8.51039 16.3647 8.51762 16.4001L8.51833 16.4036C8.54911 16.5514 8.61726 16.6847 8.71211 16.7874C8.84272 16.9289 9.01089 17 9.17692 17H15.8231C15.9891 17 16.1573 16.9289 16.2879 16.7874C16.3828 16.6846 16.4509 16.5514 16.4817 16.4036L16.4824 16.4001C16.4895 16.3651 16.4945 16.3295 16.4974 16.2934C16.4991 16.2708 16.5 16.248 16.5 16.225V16C16.5 15.9329 16.4985 15.866 16.4954 15.7994C16.4496 14.8001 16.063 13.8581 15.416 13.1572ZM6 9C5.17157 9 4.5 9.67157 4.5 10.5C4.5 11.3284 5.17157 12 6 12C6.82843 12 7.5 11.3284 7.5 10.5C7.5 9.67157 6.82843 9 6 9ZM17.4944 15.7543L17.5 16H21.2154C21.2774 16 21.3458 15.9737 21.4028 15.9119C21.4611 15.8488 21.5 15.7552 21.5 15.65V15.5C21.5 14.8246 21.252 14.1842 20.8215 13.7178C20.3923 13.2528 19.8191 13 19.2308 13H18.7692C18.1809 13 17.6077 13.2528 17.1785 13.7178C17.1352 13.7648 17.0937 13.8134 17.0541 13.8638C17.3135 14.4538 17.4643 15.0959 17.4944 15.7543ZM19 12C19.8284 12 20.5 11.3284 20.5 10.5C20.5 9.67157 19.8284 9 19 9C18.1716 9 17.5 9.67157 17.5 10.5C17.5 11.3284 18.1716 12 19 12ZM7.82151 13.7178C7.86483 13.7648 7.90631 13.8134 7.94589 13.8638C7.68655 14.4538 7.53575 15.0959 7.50562 15.7543C7.50188 15.836 7.5 15.9179 7.5 16H3.78462C3.72263 16 3.65424 15.9737 3.59721 15.9119C3.53893 15.8488 3.5 15.7552 3.5 15.65V15.5C3.5 14.8246 3.74803 14.1842 4.17849 13.7178C4.60771 13.2528 5.18089 13 5.76923 13H6.23077C6.81911 13 7.39229 13.2528 7.82151 13.7178Z" fill="black"/>
</svg>
