<svg width="25" height="24" viewBox="0 0 25 24" fill="none" xmlns="http://www.w3.org/2000/svg">
<path d="M16.6464 15.1464C16.8417 14.9512 17.1583 14.9512 17.3536 15.1464L18.5 16.2929L19.6464 15.1464C19.8417 14.9512 20.1583 14.9512 20.3536 15.1464C20.5488 15.3417 20.5488 15.6583 20.3536 15.8536L19.2071 17L20.3536 18.1464C20.5488 18.3417 20.5488 18.6583 20.3536 18.8536C20.1583 19.0488 19.8417 19.0488 19.6464 18.8536L18.5 17.7071L17.3536 18.8536C17.1583 19.0488 16.8417 19.0488 16.6464 18.8536C16.4512 18.6583 16.4512 18.3417 16.6464 18.1464L17.7929 17L16.6464 15.8536C16.4512 15.6583 16.4512 15.3417 16.6464 15.1464Z" fill="black"/>
<path fill-rule="evenodd" clip-rule="evenodd" d="M12.8189 10.2597C13.8364 9.53448 14.5 8.34473 14.5 7C14.5 4.79086 12.7091 3 10.5 3C8.29086 3 6.5 4.79086 6.5 7C6.5 8.34473 7.16357 9.53448 8.18113 10.2597C7.1411 10.5628 6.18359 11.124 5.40381 11.9038C4.18482 13.1228 3.5 14.7761 3.5 16.5V16.8C3.5 17.3835 3.73179 17.9431 4.14437 18.3556C4.55694 18.7682 5.11652 19 5.7 19H14.4678C15.2041 20.4817 16.7331 21.5 18.5 21.5C20.9853 21.5 23 19.4853 23 17C23 14.5147 20.9853 12.5 18.5 12.5C17.7685 12.5 17.0778 12.6745 16.4672 12.9843C16.2181 12.597 15.9268 12.2344 15.5962 11.9038C14.8164 11.124 13.8589 10.5628 12.8189 10.2597ZM10.5 4C8.84315 4 7.5 5.34315 7.5 7C7.5 8.65685 8.84315 10 10.5 10C12.1569 10 13.5 8.65685 13.5 7C13.5 5.34315 12.1569 4 10.5 4ZM14.8891 12.6109C13.8576 11.5795 12.4587 11 11 11H10C8.54131 11 7.14236 11.5795 6.11091 12.6109C5.07946 13.6424 4.5 15.0413 4.5 16.5V16.8C4.5 17.1183 4.62643 17.4235 4.85147 17.6485C5.07652 17.8736 5.38174 18 5.7 18H14.1115C14.0385 17.6784 14 17.3437 14 17C14 15.6051 14.6347 14.3584 15.6311 13.533C15.4193 13.2023 15.1711 12.8929 14.8891 12.6109ZM18.5 13.5C16.567 13.5 15 15.067 15 17C15 18.933 16.567 20.5 18.5 20.5C20.433 20.5 22 18.933 22 17C22 15.067 20.433 13.5 18.5 13.5Z" fill="black"/>
</svg>
