<svg width="25" height="24" viewBox="0 0 25 24" fill="none" xmlns="http://www.w3.org/2000/svg">
<path d="M9.5 9C8.94772 9 8.5 9.44772 8.5 10C8.5 10.5523 8.94772 11 9.5 11C10.0523 11 10.5 10.5523 10.5 10C10.5 9.44772 10.0523 9 9.5 9Z" fill="black"/>
<path d="M12.5 14.0206C11.7805 14.0206 11.0682 14.1649 10.4054 14.4451C9.74264 14.7252 9.1428 15.1355 8.64139 15.6516C8.44896 15.8496 8.45352 16.1662 8.65157 16.3586C8.84963 16.551 9.16618 16.5465 9.35861 16.3484C9.76684 15.9283 10.2552 15.5943 10.7948 15.3662C11.3343 15.1381 11.9142 15.0206 12.5 15.0206C13.0858 15.0206 13.6657 15.1381 14.2052 15.3662C14.7448 15.5943 15.2332 15.9283 15.6414 16.3484C15.8338 16.5465 16.1504 16.551 16.3484 16.3586C16.5465 16.1662 16.551 15.8496 16.3586 15.6516C15.8572 15.1355 15.2574 14.7252 14.5946 14.4451C13.9318 14.1649 13.2195 14.0206 12.5 14.0206Z" fill="black"/>
<path d="M14.5 10C14.5 9.44772 14.9477 9 15.5 9C16.0523 9 16.5 9.44772 16.5 10C16.5 10.5523 16.0523 11 15.5 11C14.9477 11 14.5 10.5523 14.5 10Z" fill="black"/>
<path fill-rule="evenodd" clip-rule="evenodd" d="M12.5 2C6.97715 2 2.5 6.47715 2.5 12C2.5 17.5228 6.97715 22 12.5 22C18.0228 22 22.5 17.5228 22.5 12C22.5 6.47715 18.0228 2 12.5 2ZM3.5 12C3.5 7.02944 7.52944 3 12.5 3C17.4706 3 21.5 7.02944 21.5 12C21.5 16.9706 17.4706 21 12.5 21C7.52944 21 3.5 16.9706 3.5 12Z" fill="black"/>
</svg>
