<svg width="25" height="24" viewBox="0 0 25 24" fill="none" xmlns="http://www.w3.org/2000/svg">
<path fill-rule="evenodd" clip-rule="evenodd" d="M14.8189 11.2597C15.8364 10.5345 16.5 9.34473 16.5 8C16.5 5.79086 14.7091 4 12.5 4C10.2909 4 8.5 5.79086 8.5 8C8.5 9.34473 9.16357 10.5345 10.1811 11.2597C9.1411 11.5628 8.18359 12.124 7.40381 12.9038C6.18482 14.1228 5.5 15.7761 5.5 17.5V17.8C5.5 18.3835 5.73179 18.9431 6.14437 19.3556C6.55694 19.7682 7.11652 20 7.7 20H17.3C17.8835 20 18.4431 19.7682 18.8556 19.3556C19.2682 18.9431 19.5 18.3835 19.5 17.8V17.5C19.5 15.7761 18.8152 14.1228 17.5962 12.9038C16.8164 12.124 15.8589 11.5628 14.8189 11.2597ZM9.5 8C9.5 6.34315 10.8431 5 12.5 5C14.1569 5 15.5 6.34315 15.5 8C15.5 9.65685 14.1569 11 12.5 11C10.8431 11 9.5 9.65685 9.5 8ZM16.8891 13.6109C15.8576 12.5795 14.4587 12 13 12H12C10.5413 12 9.14236 12.5795 8.11091 13.6109C7.07946 14.6424 6.5 16.0413 6.5 17.5V17.8C6.5 18.1183 6.62643 18.4235 6.85147 18.6485C7.07652 18.8736 7.38174 19 7.7 19H17.3C17.6183 19 17.9235 18.8736 18.1485 18.6485C18.3736 18.4235 18.5 18.1183 18.5 17.8V17.5C18.5 16.0413 17.9205 14.6424 16.8891 13.6109Z" fill="black"/>
</svg>
