<svg width="25" height="24" viewBox="0 0 25 24" fill="none" xmlns="http://www.w3.org/2000/svg">
<path d="M18.5 15.5C18.5 15.2239 18.2761 15 18 15C17.7239 15 17.5 15.2239 17.5 15.5V17.1213H15.8787C15.6025 17.1213 15.3787 17.3452 15.3787 17.6213C15.3787 17.8975 15.6025 18.1213 15.8787 18.1213H17.5V19.7426C17.5 20.0188 17.7239 20.2426 18 20.2426C18.2761 20.2426 18.5 20.0188 18.5 19.7426V18.1213H20.1213C20.3975 18.1213 20.6213 17.8975 20.6213 17.6213C20.6213 17.3452 20.3975 17.1213 20.1213 17.1213H18.5V15.5Z" fill="black"/>
<path fill-rule="evenodd" clip-rule="evenodd" d="M12.8189 10.2597C13.8364 9.53448 14.5 8.34473 14.5 7C14.5 4.79086 12.7091 3 10.5 3C8.29086 3 6.5 4.79086 6.5 7C6.5 8.34473 7.16357 9.53448 8.18113 10.2597C7.1411 10.5628 6.18359 11.124 5.40381 11.9038C4.18482 13.1228 3.5 14.7761 3.5 16.5V16.8C3.5 17.3835 3.73179 17.9431 4.14437 18.3556C4.55694 18.7682 5.11652 19 5.7 19H13.7561C14.3738 20.7478 16.0407 22 18 22C20.4853 22 22.5 19.9853 22.5 17.5C22.5 15.0147 20.4853 13 18 13C17.5152 13 17.0484 13.0767 16.6109 13.2185C16.4207 12.8934 16.2018 12.5838 15.9557 12.2939C15.9296 12.2361 15.892 12.1824 15.843 12.1362L15.5909 11.8985C14.8121 11.1215 13.8565 10.5621 12.8189 10.2597ZM14.8891 12.6109C13.8576 11.5795 12.4587 11 11 11H10C8.54131 11 7.14236 11.5795 6.11091 12.6109C5.07946 13.6424 4.5 15.0413 4.5 16.5V16.8C4.5 17.1183 4.62643 17.4235 4.85147 17.6485C5.07652 17.8736 5.38174 18 5.7 18H13.5275C13.5093 17.8358 13.5 17.669 13.5 17.5C13.5 15.8573 14.3802 14.4202 15.6946 13.6346C15.4695 13.2656 15.1998 12.9216 14.8891 12.6109ZM10.5 10C8.84315 10 7.5 8.65685 7.5 7C7.5 5.34315 8.84315 4 10.5 4C12.1569 4 13.5 5.34315 13.5 7C13.5 8.65685 12.1569 10 10.5 10ZM14.5 17.5C14.5 15.567 16.067 14 18 14C19.933 14 21.5 15.567 21.5 17.5C21.5 19.433 19.933 21 18 21C16.067 21 14.5 19.433 14.5 17.5Z" fill="black"/>
</svg>
