<svg width="25" height="24" viewBox="0 0 25 24" fill="none" xmlns="http://www.w3.org/2000/svg">
<path fill-rule="evenodd" clip-rule="evenodd" d="M11.0787 12.8889C10.9508 13.0803 10.7979 13.252 10.6248 13.4C10.9353 13.5627 11.2224 13.7727 11.4749 14.0251C12.1313 14.6815 12.5 15.5717 12.5 16.5C12.5 16.8978 12.342 17.2794 12.0607 17.5607C11.7794 17.842 11.3978 18 11 18H7C6.60218 18 6.22064 17.842 5.93933 17.5607C5.65803 17.2794 5.5 16.8978 5.5 16.5C5.5 15.5717 5.86874 14.6815 6.52512 14.0251C6.77759 13.7727 7.06466 13.5627 7.37519 13.4C7.32597 13.3579 7.27827 13.3138 7.23224 13.2678C6.88261 12.9181 6.6445 12.4727 6.54804 11.9877C6.45157 11.5028 6.50109 11.0001 6.69031 10.5433C6.87953 10.0865 7.19996 9.69603 7.61108 9.42133C8.02221 9.14662 8.50555 9 9 9C9.66304 9 10.2989 9.26339 10.7678 9.73223C11.2366 10.2011 11.5 10.837 11.5 11.5C11.5 11.9945 11.3534 12.4778 11.0787 12.8889ZM9 10C9.29667 10 9.58667 10.088 9.83334 10.2528C10.08 10.4176 10.2723 10.6519 10.3858 10.926C10.4994 11.2001 10.5291 11.5017 10.4712 11.7926C10.4133 12.0836 10.2704 12.3509 10.0607 12.5607C9.85089 12.7704 9.58361 12.9133 9.29263 12.9712C9.19617 12.9904 9.09854 12.9999 9.00113 13C8.80471 13.0001 8.60919 12.9617 8.42597 12.8858C8.15188 12.7723 7.91763 12.58 7.75281 12.3334C7.58799 12.0867 7.5 11.7967 7.5 11.5C7.5 11.1022 7.65803 10.7206 7.93933 10.4393C8.22064 10.158 8.60218 10 9 10ZM7.23224 14.7322C7.70062 14.2639 8.33571 14.0005 8.99805 14L9 14C9.66304 14 10.2989 14.2634 10.7678 14.7322C11.2366 15.2011 11.5 15.837 11.5 16.5C11.5 16.6326 11.4473 16.7598 11.3535 16.8536C11.2598 16.9473 11.1326 17 11 17H7C6.86739 17 6.74022 16.9473 6.64645 16.8536C6.55269 16.7598 6.5 16.6326 6.5 16.5C6.5 15.837 6.7634 15.2011 7.23224 14.7322Z" fill="black"/>
<path d="M13.5 14.5C13.5 14.2239 13.7239 14 14 14H19C19.2761 14 19.5 14.2239 19.5 14.5C19.5 14.7761 19.2761 15 19 15H14C13.7239 15 13.5 14.7761 13.5 14.5Z" fill="black"/>
<path d="M14 16C13.7239 16 13.5 16.2239 13.5 16.5C13.5 16.7761 13.7239 17 14 17H19C19.2761 17 19.5 16.7761 19.5 16.5C19.5 16.2239 19.2761 16 19 16H14Z" fill="black"/>
<path d="M13.5 10.3C13.5 9.58203 14.082 9 14.8 9H18.2C18.918 9 19.5 9.58203 19.5 10.3V11.7C19.5 12.418 18.918 13 18.2 13H14.8C14.082 13 13.5 12.418 13.5 11.7V10.3Z" fill="black"/>
<path fill-rule="evenodd" clip-rule="evenodd" d="M22.0607 4.43934C21.7794 4.15804 21.3978 4 21 4H4C3.60218 4 3.22064 4.15804 2.93934 4.43934C2.65804 4.72064 2.5 5.10218 2.5 5.5V17.5C2.5 18.163 2.76339 18.7989 3.23223 19.2678C3.70107 19.7366 4.33696 20 5 20H20C20.663 20 21.2989 19.7366 21.7678 19.2678C22.2366 18.7989 22.5 18.163 22.5 17.5V5.5C22.5 5.10218 22.342 4.72065 22.0607 4.43934ZM3.93934 18.5607C3.65804 18.2794 3.5 17.8978 3.5 17.5V7H21.5V17.5C21.5 17.8978 21.342 18.2794 21.0607 18.5607C20.7794 18.842 20.3978 19 20 19H5C4.60218 19 4.22064 18.842 3.93934 18.5607Z" fill="black"/>
</svg>
