<svg width="25" height="24" viewBox="0 0 25 24" fill="none" xmlns="http://www.w3.org/2000/svg">
<path d="M9.54999 14.05C9.54999 13.7739 9.32613 13.55 9.04999 13.55C8.77385 13.55 8.54999 13.7739 8.54999 14.05C8.54999 14.5672 8.75542 15.0632 9.12112 15.4289C9.48683 15.7946 9.98285 16 10.5 16H13C13.2761 16 13.5 15.7761 13.5 15.5C13.5 15.2239 13.2761 15 13 15H10.5C10.248 15 10.0064 14.8999 9.82822 14.7218C9.65006 14.5436 9.54999 14.302 9.54999 14.05Z" fill="black"/>
<path d="M8.5 10C8.5 9.44772 8.94772 9 9.5 9C10.0523 9 10.5 9.44772 10.5 10C10.5 10.5523 10.0523 11 9.5 11C8.94772 11 8.5 10.5523 8.5 10Z" fill="black"/>
<path d="M15.5 9C14.9477 9 14.5 9.44772 14.5 10C14.5 10.5523 14.9477 11 15.5 11C16.0523 11 16.5 10.5523 16.5 10C16.5 9.44772 16.0523 9 15.5 9Z" fill="black"/>
<path fill-rule="evenodd" clip-rule="evenodd" d="M12.5 2C6.97715 2 2.5 6.47715 2.5 12C2.5 17.5228 6.97715 22 12.5 22C18.0228 22 22.5 17.5228 22.5 12C22.5 6.47715 18.0228 2 12.5 2ZM3.5 12C3.5 7.02944 7.52944 3 12.5 3C17.4706 3 21.5 7.02944 21.5 12C21.5 16.9706 17.4706 21 12.5 21C7.52944 21 3.5 16.9706 3.5 12Z" fill="black"/>
</svg>
