<svg width="25" height="24" viewBox="0 0 25 24" fill="none" xmlns="http://www.w3.org/2000/svg">
<path fill-rule="evenodd" clip-rule="evenodd" d="M8 14C7.83261 14 7.67632 14.0838 7.58364 14.2232C7.49095 14.3626 7.47417 14.5391 7.53893 14.6934C7.94898 15.6708 8.63858 16.5053 9.52119 17.0921C10.4038 17.679 11.4401 17.9921 12.5 17.9921C13.5599 17.9921 14.5962 17.679 15.4788 17.0921C16.3614 16.5053 17.051 15.6708 17.4611 14.6934C17.5258 14.5391 17.509 14.3626 17.4164 14.2232C17.3237 14.0838 17.1674 14 17 14H8ZM10.0749 16.2594C9.57557 15.9274 9.15213 15.4981 8.8282 15H16.1718C15.8479 15.4981 15.4244 15.9274 14.9251 16.2594C14.2066 16.7372 13.3629 16.9921 12.5 16.9921C11.6371 16.9921 10.7934 16.7372 10.0749 16.2594Z" fill="black"/>
<path d="M8.5 10C8.5 9.44772 8.94772 9 9.5 9C10.0523 9 10.5 9.44772 10.5 10C10.5 10.5523 10.0523 11 9.5 11C8.94772 11 8.5 10.5523 8.5 10Z" fill="black"/>
<path d="M15.5 9C14.9477 9 14.5 9.44772 14.5 10C14.5 10.5523 14.9477 11 15.5 11C16.0523 11 16.5 10.5523 16.5 10C16.5 9.44772 16.0523 9 15.5 9Z" fill="black"/>
<path fill-rule="evenodd" clip-rule="evenodd" d="M12.5 2C6.97715 2 2.5 6.47715 2.5 12C2.5 17.5228 6.97715 22 12.5 22C18.0228 22 22.5 17.5228 22.5 12C22.5 6.47715 18.0228 2 12.5 2ZM3.5 12C3.5 7.02944 7.52944 3 12.5 3C17.4706 3 21.5 7.02944 21.5 12C21.5 16.9706 17.4706 21 12.5 21C7.52944 21 3.5 16.9706 3.5 12Z" fill="black"/>
</svg>
