<svg width="25" height="24" viewBox="0 0 25 24" fill="none" xmlns="http://www.w3.org/2000/svg">
<path d="M18 16C18.2761 16 18.5 16.2239 18.5 16.5V18.5C18.5 18.7761 18.2761 19 18 19C17.7239 19 17.5 18.7761 17.5 18.5V16.5C17.5 16.2239 17.7239 16 18 16Z" fill="black"/>
<path fill-rule="evenodd" clip-rule="evenodd" d="M14.5 7C14.5 8.34473 13.8364 9.53448 12.8189 10.2597C13.412 10.4325 13.9782 10.6893 14.5 11.0227V10.64C14.5 10.6376 14.5 10.6353 14.5 10.6329C14.5001 10.6259 14.5004 10.6188 14.5008 10.6117C14.5398 9.92349 14.834 9.27452 15.3259 8.79162C15.8178 8.30872 16.4721 8.02659 17.161 8.00036C17.1673 8.00012 17.1737 8 17.18 8H18.82C18.8263 8 18.8327 8.00012 18.839 8.00036C19.5279 8.02659 20.1822 8.30872 20.6741 8.79162C21.166 9.27452 21.4602 9.92349 21.4992 10.6117C21.5148 10.8874 21.304 11.1236 21.0283 11.1392C20.7526 11.1548 20.5164 10.944 20.5008 10.6683C20.4759 10.2285 20.2879 9.81381 19.9736 9.50524C19.6614 9.19876 19.2468 9.01884 18.8099 9H17.1901C16.7532 9.01884 16.3386 9.19876 16.0264 9.50524C15.7153 9.81071 15.5279 10.2202 15.5 10.655V13H23C23.2762 13 23.5 13.2239 23.5 13.5V20.1035C23.4965 20.6054 23.2955 21.0857 22.9406 21.4406C22.5857 21.7955 22.1054 21.9964 21.6035 22L21.6 22H14.3965C13.8946 21.9965 13.4143 21.7955 13.0594 21.4406C12.7045 21.0857 12.5036 20.6054 12.5 20.1035L12.5 20.1L12.5 19H5.7C5.11652 19 4.55694 18.7682 4.14437 18.3556C3.73179 17.9431 3.5 17.3835 3.5 16.8V16.5C3.5 14.7761 4.18482 13.1228 5.40381 11.9038C6.18359 11.124 7.1411 10.5628 8.18113 10.2597C7.16357 9.53448 6.5 8.34473 6.5 7C6.5 4.79086 8.29086 3 10.5 3C12.7091 3 14.5 4.79086 14.5 7ZM11 11C12.2826 11 13.519 11.448 14.5 12.2573V13H13C12.7239 13 12.5 13.2239 12.5 13.5L12.5 18H5.7C5.38174 18 5.07652 17.8736 4.85147 17.6485C4.62643 17.4235 4.5 17.1183 4.5 16.8V16.5C4.5 15.0413 5.07946 13.6424 6.11091 12.6109C7.14236 11.5795 8.54131 11 10 11H11ZM10.5 4C8.84315 4 7.5 5.34315 7.5 7C7.5 8.65685 8.84315 10 10.5 10C12.1569 10 13.5 8.65685 13.5 7C13.5 5.34315 12.1569 4 10.5 4ZM22.2335 20.7335C22.4022 20.5648 22.4979 20.3366 22.5 20.098V14H13.5V20.098C13.5021 20.3366 13.5978 20.5648 13.7665 20.7335C13.9352 20.9022 14.1634 20.9979 14.402 21H21.598C21.8366 20.9979 22.0648 20.9022 22.2335 20.7335Z" fill="black"/>
</svg>
