<svg width="25" height="24" viewBox="0 0 25 24" fill="none" xmlns="http://www.w3.org/2000/svg">
<path d="M12.7787 2.69333C12.6779 2.44239 12.3227 2.44239 12.2219 2.69333L11.7946 3.7574C11.7517 3.86426 11.6514 3.93713 11.5365 3.94492L10.3925 4.02249C10.1227 4.04078 10.0129 4.37864 10.2204 4.55202L11.1003 5.28722C11.1887 5.36105 11.227 5.47896 11.1989 5.59063L10.9192 6.70264C10.8532 6.96489 11.1406 7.17369 11.3696 7.02991L12.3408 6.42022C12.4383 6.35899 12.5623 6.35899 12.6598 6.42022L13.6309 7.02991C13.8599 7.17369 14.1473 6.96489 14.0814 6.70264L13.8016 5.59063C13.7735 5.47896 13.8118 5.36105 13.9002 5.28722L14.7801 4.55202C14.9877 4.37864 14.8779 4.04078 14.6081 4.02249L13.4641 3.94492C13.3492 3.93713 13.2489 3.86426 13.206 3.7574L12.7787 2.69333Z" fill="black"/>
<path fill-rule="evenodd" clip-rule="evenodd" d="M15.5002 12C15.5002 12.9224 15.084 13.7475 14.4291 14.2978C15.0731 14.548 15.6624 14.9496 16.151 15.4789C17.0189 16.4191 17.5002 17.6863 17.5002 19V19.225C17.5002 19.6834 17.3325 20.1303 17.0229 20.4657C16.7121 20.8024 16.2816 21 15.8233 21H9.17717C8.71892 21 8.28838 20.8024 7.97756 20.4657C7.66797 20.1303 7.50024 19.6834 7.50024 19.225V19C7.50024 17.6863 7.98161 16.4191 8.84948 15.4789C9.33807 14.9496 9.92736 14.548 10.5714 14.2978C9.9165 13.7475 9.50024 12.9224 9.50024 12C9.50024 10.3431 10.8434 9 12.5002 9C14.1571 9 15.5002 10.3431 15.5002 12ZM12.5002 10C11.3957 10 10.5002 10.8954 10.5002 12C10.5002 13.1046 11.3957 14 12.5002 14C13.6048 14 14.5002 13.1046 14.5002 12C14.5002 10.8954 13.6048 10 12.5002 10ZM9.58428 16.1572C10.2732 15.4109 11.1985 15 12.1541 15H12.8464C13.802 15 14.7273 15.4109 15.4162 16.1572C16.1063 16.9048 16.5002 17.9268 16.5002 19V19.225C16.5002 19.4429 16.42 19.6446 16.2881 19.7874C16.1575 19.9289 15.9894 20 15.8233 20H9.17717C9.01114 20 8.84297 19.9289 8.71236 19.7874C8.58051 19.6446 8.50024 19.4429 8.50024 19.225V19C8.50024 17.9268 8.89415 16.9048 9.58428 16.1572Z" fill="black"/>
<path d="M5.22188 7.69333C5.32265 7.44239 5.67789 7.44239 5.77866 7.69333L6.20596 8.7574C6.24888 8.86426 6.34917 8.93713 6.46406 8.94492L7.60809 9.02249C7.87789 9.04078 7.98766 9.37864 7.78014 9.55202L6.9002 10.2872C6.81183 10.3611 6.77352 10.479 6.80162 10.5906L7.08137 11.7026C7.14734 11.9649 6.85994 12.1737 6.63092 12.0299L5.65978 11.4202C5.56226 11.359 5.43829 11.359 5.34076 11.4202L4.36963 12.0299C4.1406 12.1737 3.8532 11.9649 3.91918 11.7026L4.19893 10.5906C4.22702 10.479 4.18871 10.3611 4.10034 10.2872L3.2204 9.55202C3.01288 9.37864 3.12266 9.04078 3.39246 9.02249L4.53648 8.94492C4.65138 8.93713 4.75167 8.86426 4.79458 8.7574L5.22188 7.69333Z" fill="black"/>
<path d="M19.7787 7.69333C19.6779 7.44239 19.3227 7.44239 19.2219 7.69333L18.7946 8.7574C18.7517 8.86426 18.6514 8.93713 18.5365 8.94492L17.3925 9.02249C17.1227 9.04078 17.0129 9.37864 17.2204 9.55202L18.1003 10.2872C18.1887 10.3611 18.227 10.479 18.1989 10.5906L17.9192 11.7026C17.8532 11.9649 18.1406 12.1737 18.3696 12.0299L19.3408 11.4202C19.4383 11.359 19.5623 11.359 19.6598 11.4202L20.6309 12.0299C20.8599 12.1737 21.1473 11.9649 21.0814 11.7026L20.8016 10.5906C20.7735 10.479 20.8118 10.3611 20.9002 10.2872L21.7801 9.55202C21.9877 9.37864 21.8779 9.04078 21.6081 9.02249L20.4641 8.94492C20.3492 8.93713 20.2489 8.86426 20.206 8.7574L19.7787 7.69333Z" fill="black"/>
</svg>
