<svg width="25" height="24" viewBox="0 0 25 24" fill="none" xmlns="http://www.w3.org/2000/svg">
<path fill-rule="evenodd" clip-rule="evenodd" d="M15.3951 8.32576C16.0695 7.77564 16.5 6.93811 16.5 6C16.5 4.34315 15.1569 3 13.5 3C11.8432 3 10.5 4.34315 10.5 6C10.5 6.90729 10.9028 7.7205 11.5393 8.27062C10.8672 8.51838 10.2522 8.92993 9.74543 9.47888C9.12393 10.1522 8.70099 10.993 8.51076 11.897C8.4539 12.1673 8.62687 12.4324 8.89709 12.4893C9.16732 12.5461 9.43247 12.3732 9.48933 12.103C9.64409 11.3674 9.98655 10.692 10.4802 10.1572C11.1691 9.41086 12.0945 9 13.05 9H13.7424C14.6979 9 15.6233 9.41086 16.3122 10.1572C16.7036 10.5813 17.0001 11.0938 17.1833 11.6551C17.269 11.9176 17.5513 12.061 17.8138 11.9753C18.0763 11.8896 18.2196 11.6074 18.134 11.3449C17.908 10.6525 17.54 10.013 17.047 9.47888C16.5762 8.96884 16.0118 8.57741 15.3951 8.32576ZM11.5 6C11.5 4.89543 12.3955 4 13.5 4C14.6046 4 15.5 4.89543 15.5 6C15.5 7.10457 14.6046 8 13.5 8C12.3955 8 11.5 7.10457 11.5 6Z" fill="black"/>
<path d="M8.1061 18.4324C7.25215 18.4839 6.44662 18.8463 5.8417 19.4512L4.64649 20.6464C4.45123 20.8417 4.45123 21.1583 4.64649 21.3536C4.84175 21.5488 5.15834 21.5488 5.3536 21.3536L6.54881 20.1583C6.9809 19.7262 7.55628 19.4674 8.16624 19.4306L14.0653 19.0752C14.993 19.0193 15.8806 18.6776 16.6062 18.097L21.887 13.8714C22.7632 13.1702 22.7422 11.8307 21.8444 11.1574C21.2251 10.6929 20.3714 10.7003 19.7603 11.1757L16.2892 13.8754C16.0523 13.3588 15.5306 13 14.925 13H8.92876C8.41716 13 7.91788 13.157 7.4983 13.4497L3.71395 16.0899C3.48748 16.2479 3.43198 16.5596 3.58998 16.7861C3.74798 17.0126 4.05966 17.0681 4.28613 16.9101L8.07049 14.2698C8.32223 14.0942 8.6218 14 8.92876 14H14.925C15.2012 14 15.425 14.2239 15.425 14.5C15.425 14.7761 15.2012 15 14.925 15H11.3C11.0239 15 10.8 15.2239 10.8 15.5C10.8 15.7761 11.0239 16 11.3 16H14.925C15.5788 16 16.1349 15.5818 16.3403 14.9982C16.4345 14.9909 16.5277 14.9568 16.6079 14.8944L20.3742 11.965C20.6294 11.7665 20.9858 11.7634 21.2444 11.9574C21.6193 12.2385 21.6281 12.7978 21.2622 13.0906L15.9814 17.3162C15.417 17.7678 14.7267 18.0335 14.0052 18.077L8.1061 18.4324Z" fill="black"/>
</svg>
