<svg width="25" height="24" viewBox="0 0 25 24" fill="none" xmlns="http://www.w3.org/2000/svg">
<path d="M19 14.8787C19 14.6026 18.7761 14.3787 18.5 14.3787C18.2239 14.3787 18 14.6026 18 14.8787V16.5H16.3787C16.1025 16.5 15.8787 16.7239 15.8787 17C15.8787 17.2762 16.1025 17.5 16.3787 17.5H18V19.1213C18 19.3975 18.2239 19.6213 18.5 19.6213C18.7761 19.6213 19 19.3975 19 19.1213V17.5H20.6213C20.8975 17.5 21.1213 17.2762 21.1213 17C21.1213 16.7239 20.8975 16.5 20.6213 16.5H19V14.8787Z" fill="black"/>
<path fill-rule="evenodd" clip-rule="evenodd" d="M16.4288 8.29783C17.0837 7.74752 17.5 6.92237 17.5 6C17.5 4.34315 16.1569 3 14.5 3C12.8431 3 11.5 4.34315 11.5 6C11.5 6.92237 11.9163 7.74752 12.5712 8.29783C11.9271 8.548 11.3378 8.94957 10.8492 9.47888C10.4008 9.96466 10.0556 10.5377 9.82662 11.1594C9.40965 10.786 8.93623 10.4949 8.42883 10.2978C9.08374 9.74752 9.5 8.92237 9.5 8C9.5 6.34315 8.15685 5 6.5 5C4.84315 5 3.5 6.34315 3.5 8C3.5 8.92237 3.91626 9.74752 4.57117 10.2978C3.92712 10.548 3.33783 10.9496 2.84923 11.4789C1.98137 12.4191 1.5 13.6863 1.5 15V15.225C1.5 15.6834 1.66773 16.1303 1.97731 16.4657C2.28814 16.8024 2.71867 17 3.17692 17H9.82308C10.2813 17 10.7119 16.8024 11.0227 16.4657C11.3323 16.1303 11.5 15.6834 11.5 15.225V15H14.4678C14.1684 15.6025 14 16.2816 14 17C14 19.4853 16.0147 21.5 18.5 21.5C20.9853 21.5 23 19.4853 23 17C23 14.8533 21.4969 13.0577 19.4857 12.6083C19.4001 11.4366 18.932 10.3252 18.1508 9.47888C17.6622 8.94957 17.0729 8.548 16.4288 8.29783ZM12.5 6C12.5 4.89543 13.3954 4 14.5 4C15.6046 4 16.5 4.89543 16.5 6C16.5 7.10457 15.6046 8 14.5 8C13.3954 8 12.5 7.10457 12.5 6ZM18.4714 12.5001C18.3693 11.6132 17.9979 10.7876 17.416 10.1572C16.7271 9.41086 15.8017 9 14.8462 9H14.1538C13.1983 9 12.2729 9.41086 11.584 10.1572C11.1017 10.6797 10.7641 11.3362 10.6045 12.0505C11.0003 12.6327 11.2728 13.2983 11.406 14H15.1458C15.9639 13.086 17.1501 12.5083 18.4714 12.5001ZM3.58403 12.1572C4.27292 11.4109 5.19829 11 6.15385 11H6.84615C7.80171 11 8.72708 11.4109 9.41597 12.1572C10.1061 12.9048 10.5 13.9268 10.5 15V15.225C10.5 15.4429 10.4197 15.6446 10.2879 15.7874C10.1573 15.9289 9.98911 16 9.82308 16H3.17692C3.01089 16 2.84272 15.9289 2.71211 15.7874C2.58027 15.6446 2.5 15.4429 2.5 15.225V15C2.5 13.9268 2.89391 12.9048 3.58403 12.1572ZM4.5 8C4.5 9.10457 5.39543 10 6.5 10C7.60457 10 8.5 9.10457 8.5 8C8.5 6.89543 7.60457 6 6.5 6C5.39543 6 4.5 6.89543 4.5 8ZM15 17C15 15.067 16.567 13.5 18.5 13.5C20.433 13.5 22 15.067 22 17C22 18.933 20.433 20.5 18.5 20.5C16.567 20.5 15 18.933 15 17Z" fill="black"/>
</svg>
