<svg width="25" height="24" viewBox="0 0 25 24" fill="none" xmlns="http://www.w3.org/2000/svg">
<path fill-rule="evenodd" clip-rule="evenodd" d="M18.9964 10.3751C19.9052 9.74293 20.5 8.69093 20.5 7.5C20.5 5.567 18.933 4 17 4C15.067 4 13.5 5.567 13.5 7.5C13.5 8.69093 14.0948 9.74293 15.0036 10.3751C14.3006 10.649 13.6547 11.0671 13.1109 11.6109C12.5497 12.1721 12.1223 12.8422 11.8492 13.5714C11.3138 13.0469 10.6823 12.6423 9.99644 12.3751C10.9052 11.7429 11.5 10.6909 11.5 9.5C11.5 7.567 9.933 6 8 6C6.067 6 4.5 7.567 4.5 9.5C4.5 10.6909 5.09481 11.7429 6.00356 12.3751C5.3006 12.649 4.65469 13.0671 4.11091 13.6109C3.07946 14.6424 2.5 16.0413 2.5 17.5V18C2.5 18.5304 2.71071 19.0391 3.08579 19.4142C3.46086 19.7893 3.96957 20 4.5 20H11.5C12.0304 20 12.5391 19.7893 12.9142 19.4142C13.2893 19.0391 13.5 18.5304 13.5 18H20.5C21.0304 18 21.5391 17.7893 21.9142 17.4142C22.2893 17.0391 22.5 16.5304 22.5 16V15.5C22.5 14.0413 21.9205 12.6424 20.8891 11.6109C20.3453 11.0671 19.6994 10.649 18.9964 10.3751ZM14.5 7.5C14.5 6.11929 15.6193 5 17 5C18.3807 5 19.5 6.11929 19.5 7.5C19.5 8.88071 18.3807 10 17 10C15.6193 10 14.5 8.88071 14.5 7.5ZM17 11C15.8065 11 14.6619 11.4741 13.818 12.318C13.2132 12.9228 12.7983 13.6821 12.6118 14.5031C13.0971 15.2499 13.3957 16.1065 13.4772 16.9997L13.5 17H20.5C20.7652 17 21.0196 16.8946 21.2071 16.7071C21.3946 16.5196 21.5 16.2652 21.5 16V15.5C21.5 14.3065 21.0259 13.1619 20.182 12.318C19.3381 11.4741 18.1935 11 17 11ZM8 7C6.61929 7 5.5 8.11929 5.5 9.5C5.5 10.8807 6.61929 12 8 12C9.38071 12 10.5 10.8807 10.5 9.5C10.5 8.11929 9.38071 7 8 7ZM4.81802 14.318C5.66193 13.4741 6.80653 13 8 13C9.19347 13 10.3381 13.4741 11.182 14.318C12.0259 15.1619 12.5 16.3065 12.5 17.5V18C12.5 18.2652 12.3946 18.5196 12.2071 18.7071C12.0196 18.8946 11.7652 19 11.5 19H4.5C4.23478 19 3.98043 18.8946 3.79289 18.7071C3.60536 18.5196 3.5 18.2652 3.5 18V17.5C3.5 16.3065 3.97411 15.1619 4.81802 14.318Z" fill="black"/>
</svg>
