<svg width="25" height="24" viewBox="0 0 25 24" fill="none" xmlns="http://www.w3.org/2000/svg">
<path fill-rule="evenodd" clip-rule="evenodd" d="M14.6248 6.4C14.7979 6.25202 14.9508 6.0803 15.0787 5.88893C15.3534 5.4778 15.5 4.99445 15.5 4.5C15.5 3.83696 15.2366 3.20107 14.7678 2.73223C14.2989 2.26339 13.663 2 13 2C12.5055 2 12.0222 2.14662 11.6111 2.42133C11.2 2.69603 10.8795 3.08648 10.6903 3.54329C10.5011 4.00011 10.4516 4.50277 10.548 4.98773C10.6445 5.47268 10.8826 5.91814 11.2322 6.26777C11.2783 6.3138 11.326 6.3579 11.3752 6.4C11.0647 6.56274 10.7776 6.77266 10.5251 7.02513C9.86875 7.6815 9.5 8.57174 9.5 9.5C9.5 9.89783 9.65804 10.2794 9.93934 10.5607C10.2206 10.842 10.6022 11 11 11H15C15.3978 11 15.7794 10.842 16.0607 10.5607C16.342 10.2794 16.5 9.89783 16.5 9.5C16.5 8.57174 16.1313 7.6815 15.4749 7.02513C15.2224 6.77265 14.9353 6.56274 14.6248 6.4ZM13.8333 3.2528C13.5867 3.08797 13.2967 3 13 3C12.6022 3 12.2206 3.15804 11.9393 3.43934C11.658 3.72064 11.5 4.10218 11.5 4.5C11.5 4.79667 11.588 5.08668 11.7528 5.33336C11.9176 5.58003 12.1519 5.77229 12.426 5.88582C12.6093 5.96174 12.8049 6.00018 13.0014 6C13.0987 5.99991 13.1962 5.99035 13.2926 5.97118C13.5836 5.9133 13.8509 5.77044 14.0607 5.56066C14.2704 5.35088 14.4133 5.08361 14.4712 4.79264C14.5291 4.50166 14.4994 4.20006 14.3858 3.92597C14.2723 3.65189 14.08 3.41762 13.8333 3.2528ZM13.0019 7L13 7C12.337 7 11.7011 7.26339 11.2322 7.73223C10.7634 8.20107 10.5 8.83696 10.5 9.5C10.5 9.63261 10.5527 9.75978 10.6464 9.85355C10.7402 9.94732 10.8674 10 11 10H15C15.1326 10 15.2598 9.94732 15.3536 9.85355C15.4473 9.75978 15.5 9.63261 15.5 9.5C15.5 8.83696 15.2366 8.20107 14.7678 7.73223C14.2994 7.26383 13.6642 7.00049 13.0019 7Z" fill="black"/>
<path fill-rule="evenodd" clip-rule="evenodd" d="M3.37519 17.4C3.06467 17.5627 2.7776 17.7727 2.52513 18.0251C1.86875 18.6815 1.5 19.5717 1.5 20.5C1.5 20.8978 1.65804 21.2794 1.93934 21.5607C2.22065 21.842 2.60218 22 3 22H7C7.39782 22 7.77935 21.842 8.06066 21.5607C8.34196 21.2794 8.5 20.8978 8.5 20.5C8.5 19.5717 8.13125 18.6815 7.47487 18.0251C7.2224 17.7727 6.93533 17.5627 6.6248 17.4C6.79785 17.252 6.95081 17.0803 7.07868 16.8889C7.35338 16.4778 7.5 15.9945 7.5 15.5C7.5 14.837 7.2366 14.2011 6.76776 13.7322C6.29892 13.2634 5.66304 13 5 13C4.50555 13 4.02221 13.1466 3.61108 13.4213C3.19996 13.696 2.87953 14.0865 2.69031 14.5433C2.50109 15.0001 2.45157 15.5028 2.54804 15.9877C2.6445 16.4727 2.88261 16.9181 3.23224 17.2678C3.27827 17.3138 3.32597 17.3579 3.37519 17.4ZM5 18C4.33696 18 3.70107 18.2634 3.23223 18.7322C2.76339 19.2011 2.5 19.837 2.5 20.5C2.5 20.6326 2.55268 20.7598 2.64645 20.8536C2.74021 20.9473 2.86739 21 3 21H7C7.13261 21 7.25979 20.9473 7.35355 20.8536C7.44732 20.7598 7.5 20.6326 7.5 20.5C7.5 19.837 7.23661 19.2011 6.76777 18.7322C6.29893 18.2634 5.66304 18 5 18ZM4.99914 17C4.80339 16.9999 4.60857 16.9615 4.42597 16.8858C4.15188 16.7723 3.91763 16.58 3.75281 16.3334C3.58799 16.0867 3.5 15.7967 3.5 15.5C3.5 15.1022 3.65803 14.7206 3.93933 14.4393C4.22064 14.158 4.60218 14 5 14C5.29667 14 5.58667 14.088 5.83334 14.2528C6.08002 14.4176 6.2723 14.6519 6.38583 14.926C6.49937 15.2001 6.52907 15.5017 6.47119 15.7926C6.41331 16.0836 6.27045 16.3509 6.06067 16.5607C5.85089 16.7704 5.58361 16.9133 5.29263 16.9712C5.19551 16.9905 5.09721 17.0001 4.99914 17Z" fill="black"/>
<path fill-rule="evenodd" clip-rule="evenodd" d="M21.6248 17.4C21.7979 17.252 21.9508 17.0803 22.0787 16.8889C22.3534 16.4778 22.5 15.9945 22.5 15.5C22.5 14.837 22.2366 14.2011 21.7678 13.7322C21.2989 13.2634 20.663 13 20 13C19.5055 13 19.0222 13.1466 18.6111 13.4213C18.2 13.696 17.8795 14.0865 17.6903 14.5433C17.5011 15.0001 17.4516 15.5028 17.548 15.9877C17.6445 16.4727 17.8826 16.9181 18.2322 17.2678C18.2783 17.3138 18.326 17.3579 18.3752 17.4C18.0647 17.5627 17.7776 17.7727 17.5251 18.0251C16.8687 18.6815 16.5 19.5717 16.5 20.5C16.5 20.8978 16.658 21.2794 16.9393 21.5607C17.2206 21.842 17.6022 22 18 22H22C22.3978 22 22.7794 21.842 23.0607 21.5607C23.342 21.2794 23.5 20.8978 23.5 20.5C23.5 19.5717 23.1313 18.6815 22.4749 18.0251C22.2224 17.7727 21.9353 17.5627 21.6248 17.4ZM20 18C19.337 18 18.7011 18.2634 18.2322 18.7322C17.7634 19.2011 17.5 19.837 17.5 20.5C17.5 20.6326 17.5527 20.7598 17.6464 20.8536C17.7402 20.9473 17.8674 21 18 21H22C22.1326 21 22.2598 20.9473 22.3536 20.8536C22.4473 20.7598 22.5 20.6326 22.5 20.5C22.5 19.837 22.2366 19.2011 21.7678 18.7322C21.2989 18.2634 20.663 18 20 18ZM20.8333 14.2528C20.5867 14.088 20.2967 14 20 14C19.6022 14 19.2206 14.158 18.9393 14.4393C18.658 14.7206 18.5 15.1022 18.5 15.5C18.5 15.7967 18.588 16.0867 18.7528 16.3334C18.9176 16.58 19.1519 16.7723 19.426 16.8858C19.7001 16.9993 20.0017 17.0291 20.2926 16.9712C20.5836 16.9133 20.8509 16.7704 21.0607 16.5607C21.2704 16.3509 21.4133 16.0836 21.4712 15.7926C21.5291 15.5017 21.4994 15.2001 21.3858 14.926C21.2723 14.6519 21.08 14.4176 20.8333 14.2528Z" fill="black"/>
<path d="M5.5 4.5C5.5 4.22386 5.72386 4 6 4H8C8.27614 4 8.5 4.22386 8.5 4.5V4.80017C8.50011 4.80634 8.50011 4.8125 8.5 4.81865V6.5C8.5 6.77614 8.27614 7 8 7C7.72386 7 7.5 6.77614 7.5 6.5V5.76201C6.74138 6.35504 6.09634 7.08446 5.5995 7.91542C4.94418 9.01145 4.56651 10.251 4.49932 11.5262C4.48479 11.802 4.24946 12.0137 3.9737 11.9992C3.69794 11.9847 3.48618 11.7493 3.50071 11.4736C3.57647 10.0357 4.00231 8.63808 4.74122 7.40225C5.29424 6.47732 6.01009 5.66398 6.85124 5H6C5.72386 5 5.5 4.77614 5.5 4.5Z" fill="black"/>
<path d="M22.2236 9.0529C22.4706 9.17639 22.5707 9.47673 22.4472 9.72372L21.4505 11.717C21.4427 11.7333 21.4339 11.7492 21.4244 11.7645C21.3941 11.8133 21.3564 11.8553 21.3136 11.8897C21.2678 11.9266 21.2148 11.9559 21.1561 11.9751C21.0352 12.0148 20.8992 12.0087 20.7764 11.9473L18.7764 10.9473C18.5294 10.8238 18.4293 10.5235 18.5528 10.2765C18.6763 10.0295 18.9766 9.9294 19.2236 10.0529L20.2466 10.5644C19.5449 7.96763 18.6896 6.19994 16.7268 4.91876C16.4955 4.76782 16.4304 4.45801 16.5814 4.22676C16.7323 3.99552 17.0421 3.93042 17.2734 4.08136C19.4775 5.52008 20.434 7.50562 21.151 10.0801L21.5528 9.2765C21.6763 9.02951 21.9766 8.9294 22.2236 9.0529Z" fill="black"/>
<path d="M11.7072 19L12.2636 18.4436C12.4588 18.2484 12.4588 17.9318 12.2636 17.7365C12.0683 17.5413 11.7517 17.5413 11.5564 17.7365L10.1464 19.1465C9.95118 19.3418 9.95118 19.6584 10.1464 19.8536L11.5564 21.2636C11.7517 21.4589 12.0683 21.4589 12.2636 21.2636C12.4588 21.0684 12.4588 20.7518 12.2636 20.5565L11.707 20H14.5C14.7761 20 15 19.7761 15 19.5C15 19.2239 14.7761 19 14.5 19H11.7072Z" fill="black"/>
</svg>
