<svg width="25" height="24" viewBox="0 0 25 24" fill="none" xmlns="http://www.w3.org/2000/svg">
<path d="M4.85355 3.64645C4.65829 3.45118 4.34171 3.45118 4.14645 3.64645C3.95118 3.84171 3.95118 4.15829 4.14645 4.35355L21.1464 21.3536C21.3417 21.5488 21.6583 21.5488 21.8536 21.3536C22.0488 21.1583 22.0488 20.8417 21.8536 20.6464L4.85355 3.64645Z" fill="black"/>
<path d="M14.9965 12.3751C15.6994 12.649 16.3453 13.0671 16.8891 13.6109C17.4329 14.1547 17.851 14.8006 18.1249 15.5035L19.467 16.8457C19.3169 15.3621 18.66 13.9676 17.5962 12.9038C16.8164 12.124 15.8589 11.5628 14.8189 11.2597C15.8364 10.5345 16.5 9.34473 16.5 8C16.5 5.79086 14.7091 4 12.5 4C10.9102 4 9.53709 4.92743 8.89208 6.27076L9.65801 7.03669C10.0593 5.85237 11.1801 5 12.5 5C14.1569 5 15.5 6.34315 15.5 8C15.5 9.31989 14.6476 10.4407 13.4633 10.842L14.9965 12.3751Z" fill="black"/>
<path d="M7.40381 12.9038C8.08028 12.2273 8.89051 11.7154 9.77233 11.3937L10.5683 12.1896C9.64684 12.4381 8.79747 12.9244 8.11091 13.6109C7.07946 14.6424 6.5 16.0413 6.5 17.5V17.8C6.5 18.1183 6.62643 18.4235 6.85147 18.6485C7.07652 18.8736 7.38174 19 7.7 19H17.3C17.3255 19 17.3509 18.9992 17.3763 18.9976L18.1904 19.8118C17.9126 19.9347 17.6097 20 17.3 20H7.7C7.11652 20 6.55694 19.7682 6.14437 19.3556C5.73179 18.9431 5.5 18.3835 5.5 17.8V17.5C5.5 15.7761 6.18482 14.1228 7.40381 12.9038Z" fill="black"/>
</svg>
