<svg width="25" height="24" viewBox="0 0 25 24" fill="none" xmlns="http://www.w3.org/2000/svg">
<path d="M19.5 14.3787C19.7761 14.3787 20 14.6026 20 14.8787V16.5H21.6213C21.8975 16.5 22.1213 16.7239 22.1213 17C22.1213 17.2762 21.8975 17.5 21.6213 17.5H20V19.1213C20 19.3975 19.7761 19.6213 19.5 19.6213C19.2239 19.6213 19 19.3975 19 19.1213V17.5H17.3787C17.1025 17.5 16.8787 17.2762 16.8787 17C16.8787 16.7239 17.1025 16.5 17.3787 16.5H19V14.8787C19 14.6026 19.2239 14.3787 19.5 14.3787Z" fill="black"/>
<path fill-rule="evenodd" clip-rule="evenodd" d="M14.5 8C14.5 8.92237 14.0837 9.74752 13.4288 10.2978C14.0729 10.548 14.6622 10.9496 15.1508 11.4789C15.2877 11.6272 15.415 11.7837 15.5323 11.9471C15.7698 11.7086 16.0382 11.5106 16.3277 11.3584C15.8195 10.9008 15.5 10.2377 15.5 9.5C15.5 8.11929 16.6193 7 18 7C19.3807 7 20.5 8.11929 20.5 9.5C20.5 10.2377 20.1805 10.9008 19.6723 11.3584C19.9984 11.5299 20.2977 11.7594 20.5563 12.0395C20.7639 12.2644 20.9397 12.5158 21.0813 12.7857C22.7865 13.4258 24 15.0712 24 17C24 19.4853 21.9853 21.5 19.5 21.5C17.0147 21.5 15 19.4853 15 17L15 16.9901C14.9416 16.9967 14.8826 17 14.8231 17H8.17692C7.71867 17 7.28814 16.8024 6.97731 16.4657C6.84942 16.3271 6.74573 16.1696 6.66808 16H2.78462C2.43041 16 2.09966 15.8472 1.86241 15.5902C1.6264 15.3345 1.5 14.9957 1.5 14.65V14.5C1.5 13.5841 1.83549 12.6984 2.44369 12.0395C2.70227 11.7594 3.00156 11.5299 3.32772 11.3584C2.81952 10.9008 2.5 10.2377 2.5 9.5C2.5 8.11929 3.61929 7 5 7C6.38071 7 7.5 8.11929 7.5 9.5C7.5 10.2377 7.18048 10.9008 6.67228 11.3584C6.96184 11.5106 7.23022 11.7086 7.46773 11.9471C7.58503 11.7837 7.71232 11.6272 7.84923 11.4789C8.33783 10.9496 8.92712 10.548 9.57117 10.2978C8.91626 9.74752 8.5 8.92237 8.5 8C8.5 6.34315 9.84315 5 11.5 5C13.1569 5 14.5 6.34315 14.5 8ZM15.1319 15.9141C15.2168 15.5713 15.3411 15.244 15.4996 14.9373C15.4989 14.8912 15.4975 14.8453 15.4954 14.7994C15.4496 13.8001 15.063 12.8581 14.416 12.1572C13.7271 11.4109 12.8017 11 11.8462 11H11.1538C10.1983 11 9.27292 11.4109 8.58403 12.1572C8.24316 12.5264 7.97455 12.9627 7.78998 13.4389C7.62424 13.8666 7.52626 14.3266 7.50459 14.7994C7.50154 14.866 7.5 14.9329 7.5 15V15.225C7.5 15.2475 7.50085 15.2698 7.50253 15.2919C7.50532 15.3285 7.51039 15.3647 7.51762 15.4001L7.51833 15.4036C7.54911 15.5514 7.61726 15.6847 7.71211 15.7874C7.84272 15.9289 8.01089 16 8.17692 16H14.8231C14.9285 16 15.0349 15.9713 15.1319 15.9141ZM16.3589 13.7777C17.1698 12.9871 18.278 12.5 19.5 12.5C19.531 12.5 19.5619 12.5003 19.5928 12.5009C19.1986 12.1748 18.7199 12 18.2308 12H17.7692C17.1809 12 16.6077 12.2528 16.1785 12.7178C16.1352 12.7648 16.0937 12.8134 16.0541 12.8638C16.183 13.157 16.2851 13.4631 16.3589 13.7777ZM11.5 6C10.3954 6 9.5 6.89543 9.5 8C9.5 9.10457 10.3954 10 11.5 10C12.6046 10 13.5 9.10457 13.5 8C13.5 6.89543 12.6046 6 11.5 6ZM5 8C4.17157 8 3.5 8.67157 3.5 9.5C3.5 10.3284 4.17157 11 5 11C5.82843 11 6.5 10.3284 6.5 9.5C6.5 8.67157 5.82843 8 5 8ZM18 11C18.8284 11 19.5 10.3284 19.5 9.5C19.5 8.67157 18.8284 8 18 8C17.1716 8 16.5 8.67157 16.5 9.5C16.5 10.3284 17.1716 11 18 11ZM6.82151 12.7178C6.86483 12.7648 6.90631 12.8134 6.94589 12.8638C6.68655 13.4538 6.53575 14.0959 6.50562 14.7543C6.50188 14.836 6.5 14.9179 6.5 15H2.78462C2.72263 15 2.65424 14.9737 2.59721 14.9119C2.53893 14.8488 2.5 14.7552 2.5 14.65V14.5C2.5 13.8246 2.74803 13.1842 3.17849 12.7178C3.60771 12.2528 4.18089 12 4.76923 12H5.23077C5.81911 12 6.39229 12.2528 6.82151 12.7178ZM19.5 13.5C17.567 13.5 16 15.067 16 17C16 18.933 17.567 20.5 19.5 20.5C21.433 20.5 23 18.933 23 17C23 15.067 21.433 13.5 19.5 13.5Z" fill="black"/>
</svg>
