<svg width="25" height="24" viewBox="0 0 25 24" fill="none" xmlns="http://www.w3.org/2000/svg">
<path d="M12.5134 5.00004C13.9008 5.01742 15.2355 5.53668 16.2778 6.46272C17.1741 7.259 17.8036 8.31099 18.0896 9.47287C18.336 9.41873 18.5886 9.39403 18.8421 9.39982L18.8433 9.39984C19.4338 9.4147 20.0121 9.57068 20.5314 9.8547C21.0506 10.1387 21.4958 10.5425 21.8314 11.0329C22.167 11.5232 22.3837 12.0864 22.4645 12.6768C22.5451 13.2663 22.488 13.8669 22.2975 14.4301C22.0477 15.1896 21.5647 15.8494 20.9176 16.3122C20.2713 16.7744 19.4955 17.0155 18.7035 16.9992L15.5001 17C15.2239 17 15.0001 16.7762 15 16.5001C14.9999 16.2239 15.2238 16 15.4999 16L18.7199 15.9992C19.2966 16.012 19.8629 15.8371 20.3359 15.4988C20.809 15.1604 21.1643 14.6762 21.3482 14.1159L21.3497 14.1114C21.4909 13.6945 21.5335 13.2493 21.4737 12.8123C21.4139 12.3752 21.2536 11.9591 21.0062 11.5977C20.7589 11.2363 20.4316 10.94 20.0515 10.732C19.6716 10.5242 19.2493 10.4105 18.8188 10.3995C18.5056 10.3925 18.1943 10.4534 17.9056 10.5785C17.7627 10.6404 17.599 10.6322 17.463 10.5562C17.327 10.4803 17.2342 10.3453 17.2119 10.1911C17.0451 9.03457 16.4776 7.97792 15.6136 7.21029C14.7508 6.44371 13.6486 6.0153 12.5048 6.00001C11.7402 6.00333 10.9876 6.19691 10.3129 6.56429C9.63703 6.93233 9.05967 7.46374 8.63214 8.11247C8.51096 8.29634 8.28375 8.37929 8.07261 8.31673C7.80465 8.23734 7.52685 8.19797 7.24791 8.1998C6.61949 8.21621 6.00422 8.38908 5.45615 8.70375C4.90678 9.01917 4.44152 9.46753 4.10203 10.0099C3.76251 10.5523 3.55941 11.1718 3.51119 11.8137C3.46296 12.4556 3.57116 13.0995 3.82591 13.6884L3.8275 13.6921C4.12248 14.3892 4.61461 14.9802 5.24006 15.3906C5.86541 15.8009 6.59611 16.0125 7.33914 15.9993L7.34803 15.9991L9.5 15.9992C9.77614 15.9992 10 16.2231 10 16.4992C10 16.7754 9.77614 16.9992 9.5 16.9992H7.35235C6.40895 17.0151 5.48274 16.7459 4.69144 16.2266C3.89949 15.707 3.27886 14.9607 2.90731 14.0836C2.5887 13.3463 2.45373 12.5411 2.514 11.7388C2.57432 10.9359 2.82841 10.1599 3.25438 9.47934C3.68038 8.79877 4.26534 8.23434 4.95824 7.83652C5.65118 7.43868 6.43045 7.2199 7.22722 7.2L7.2357 7.19979C7.49323 7.19772 7.75 7.22169 8.00224 7.27099C8.49334 6.61752 9.11768 6.07648 9.83471 5.68605C10.6557 5.23898 11.5729 5.00324 12.5054 5L12.5134 5.00004Z" fill="black"/>
<path d="M12.5 20.5C12.2239 20.5 12 20.2761 12 20L12 11.7071L9.85355 13.8536C9.65829 14.0488 9.34171 14.0488 9.14645 13.8536C8.95118 13.6583 8.95118 13.3417 9.14645 13.1464L12.1464 10.1464C12.3417 9.95119 12.6583 9.95119 12.8536 10.1464L15.8536 13.1464C16.0488 13.3417 16.0488 13.6583 15.8536 13.8536C15.6583 14.0488 15.3417 14.0488 15.1464 13.8536L13 11.7071L13 20C13 20.2761 12.7761 20.5 12.5 20.5Z" fill="black"/>
</svg>
