<svg width="25" height="24" viewBox="0 0 25 24" fill="none" xmlns="http://www.w3.org/2000/svg">
<path d="M7 7C7 7.55228 6.55228 8 6 8C5.44772 8 5 7.55228 5 7C5 6.44772 5.44772 6 6 6C6.55228 6 7 6.44772 7 7Z" fill="black"/>
<path d="M9.5 6.5C9.22386 6.5 9 6.72386 9 7C9 7.27614 9.22386 7.5 9.5 7.5H19.5C19.7761 7.5 20 7.27614 20 7C20 6.72386 19.7761 6.5 19.5 6.5H9.5Z" fill="black"/>
<path d="M6 13C6.55228 13 7 12.5523 7 12C7 11.4477 6.55228 11 6 11C5.44772 11 5 11.4477 5 12C5 12.5523 5.44772 13 6 13Z" fill="black"/>
<path d="M9.5 11.5C9.22386 11.5 9 11.7239 9 12C9 12.2761 9.22386 12.5 9.5 12.5H19.5C19.7761 12.5 20 12.2761 20 12C20 11.7239 19.7761 11.5 19.5 11.5H9.5Z" fill="black"/>
<path d="M9 17C9 16.7239 9.22386 16.5 9.5 16.5H19.5C19.7761 16.5 20 16.7239 20 17C20 17.2761 19.7761 17.5 19.5 17.5H9.5C9.22386 17.5 9 17.2761 9 17Z" fill="black"/>
<path d="M7 17C7 17.5523 6.55228 18 6 18C5.44772 18 5 17.5523 5 17C5 16.4477 5.44772 16 6 16C6.55228 16 7 16.4477 7 17Z" fill="black"/>
</svg>
