<svg width="25" height="24" viewBox="0 0 25 24" fill="none" xmlns="http://www.w3.org/2000/svg">
<path d="M11.5 15C11.5 15 11.5 15.5 12 15.5C12.5 15.5 12.5 15 12.5 15C12.5 14.8274 12.4988 14.6682 12.4977 14.5207C12.4861 12.9588 12.4843 12.7096 14 11.809C15.125 11.1406 16 10.4244 16 8.86472C16 7.17772 14.6719 6 12.6406 6C10.9063 6 9.84375 6.85942 9 8.0053V8.12685C9 8.52816 9.42218 8.78929 9.78125 8.61008C10.4375 7.67109 11.25 7.00265 12.5781 7.00265C14.0312 7.00265 14.8906 7.73475 14.8906 8.92838C14.8906 10.122 14.3437 10.5517 13.0938 11.3316C12.0625 11.9523 11.5 12.3859 11.5 13.5V15Z" fill="black"/>
<path d="M12 18C12.4142 18 12.75 17.6642 12.75 17.25C12.75 16.8358 12.4142 16.5 12 16.5C11.5858 16.5 11.25 16.8358 11.25 17.25C11.25 17.6642 11.5858 18 12 18Z" fill="black"/>
</svg>
