<svg width="25" height="24" viewBox="0 0 25 24" fill="none" xmlns="http://www.w3.org/2000/svg">
<path d="M16.8536 8.85355C16.6583 9.04881 16.3417 9.04881 16.1464 8.85355L13 5.70711L13 17.5C13 17.7761 12.7761 18 12.5 18C12.2239 18 12 17.7761 12 17.5L12 5.70711L8.85355 8.85355C8.65829 9.04881 8.34171 9.04881 8.14645 8.85355C7.95118 8.65829 7.95118 8.34171 8.14645 8.14644L12.1464 4.14645C12.3417 3.95118 12.6583 3.95118 12.8536 4.14645L16.8536 8.14645C17.0488 8.34171 17.0488 8.65829 16.8536 8.85355Z" fill="black"/>
<path d="M3.5 16.5C3.5 16.2238 3.27614 16 3 16C2.72386 16 2.5 16.2238 2.5 16.5V18.5C2.5 19.163 2.76339 19.7989 3.23223 20.2677C3.70107 20.7366 4.33696 21 5 21H20C20.663 21 21.2989 20.7366 21.7678 20.2677C22.2366 19.7989 22.5 19.163 22.5 18.5V16.5C22.5 16.2238 22.2761 16 22 16C21.7239 16 21.5 16.2238 21.5 16.5V18.5C21.5 18.8978 21.342 19.2793 21.0607 19.5606C20.7794 19.8419 20.3978 20 20 20H5C4.60218 20 4.22064 19.8419 3.93934 19.5606C3.65803 19.2793 3.5 18.8978 3.5 18.5V16.5Z" fill="black"/>
</svg>
