<svg width="25" height="24" viewBox="0 0 25 24" fill="none" xmlns="http://www.w3.org/2000/svg">
<path d="M11 8C11 7.72386 10.7761 7.5 10.5 7.5C10.2239 7.5 10 7.72386 10 8V9.62132H8.37868C8.10254 9.62132 7.87868 9.84518 7.87868 10.1213C7.87868 10.3975 8.10254 10.6213 8.37868 10.6213H10V12.2426C10 12.5188 10.2239 12.7426 10.5 12.7426C10.7761 12.7426 11 12.5188 11 12.2426V10.6213H12.6213C12.8975 10.6213 13.1213 10.3975 13.1213 10.1213C13.1213 9.84518 12.8975 9.62132 12.6213 9.62132H11V8Z" fill="black"/>
<path fill-rule="evenodd" clip-rule="evenodd" d="M10.5 3C6.63401 3 3.5 6.13401 3.5 10C3.5 13.866 6.63401 17 10.5 17C12.2558 17 13.8607 16.3535 15.0895 15.2856C15.1062 15.3095 15.1251 15.3323 15.1464 15.3536L20.1464 20.3536C20.3417 20.5488 20.6583 20.5488 20.8536 20.3536C21.0488 20.1583 21.0488 19.8417 20.8536 19.6464L15.8536 14.6464C15.8323 14.6251 15.8095 14.6062 15.7856 14.5895C16.8535 13.3607 17.5 11.7558 17.5 10C17.5 6.13401 14.366 3 10.5 3ZM4.5 10C4.5 6.68629 7.18629 4 10.5 4C13.8137 4 16.5 6.68629 16.5 10C16.5 13.3137 13.8137 16 10.5 16C7.18629 16 4.5 13.3137 4.5 10Z" fill="black"/>
</svg>
