<svg width="25" height="24" viewBox="0 0 25 24" fill="none" xmlns="http://www.w3.org/2000/svg">
<path d="M6 6C5.72386 6 5.5 6.22386 5.5 6.5C5.5 6.77614 5.72386 7 6 7H19C19.2761 7 19.5 6.77614 19.5 6.5C19.5 6.22386 19.2761 6 19 6H6Z" fill="black"/>
<path d="M5.5 12C5.5 11.7239 5.72386 11.5 6 11.5H19C19.2761 11.5 19.5 11.7239 19.5 12C19.5 12.2761 19.2761 12.5 19 12.5H6C5.72386 12.5 5.5 12.2761 5.5 12Z" fill="black"/>
<path d="M5.5 17.5C5.5 17.2239 5.72386 17 6 17H19C19.2761 17 19.5 17.2239 19.5 17.5C19.5 17.7761 19.2761 18 19 18H6C5.72386 18 5.5 17.7761 5.5 17.5Z" fill="black"/>
</svg>
