<svg width="25" height="24" viewBox="0 0 25 24" fill="none" xmlns="http://www.w3.org/2000/svg">
<path d="M11.3384 12.2531L10.9848 11.8995C10.7896 11.7043 10.473 11.7043 10.2777 11.8995C10.0825 12.0948 10.0825 12.4114 10.2777 12.6066L10.6313 12.9602C11.9981 14.327 14.2142 14.327 15.581 12.9602L19.8237 8.71755C21.1905 7.35071 21.1905 5.13464 19.8237 3.7678C18.4568 2.40097 16.2408 2.40097 14.8739 3.7678L12.0455 6.59623C11.8502 6.79149 11.8502 7.10807 12.0455 7.30334C12.2408 7.4986 12.5574 7.4986 12.7526 7.30334L15.581 4.47491C16.5574 3.4986 18.1403 3.4986 19.1166 4.47491C20.0929 5.45122 20.0929 7.03413 19.1166 8.01044L14.8739 12.2531C13.8976 13.2294 12.3147 13.2294 11.3384 12.2531Z" fill="black"/>
<path d="M9.21706 10.8388C10.1934 9.86251 11.7763 9.86251 12.7526 10.8388L13.1061 11.1924C13.3014 11.3876 13.618 11.3876 13.8133 11.1924C14.0085 10.9971 14.0085 10.6805 13.8133 10.4853L13.4597 10.1317C12.0929 8.76488 9.87679 8.76488 8.50995 10.1317L4.26731 14.3744C2.90048 15.7412 2.90048 17.9573 4.26731 19.3241C5.63415 20.6909 7.85023 20.6909 9.21706 19.3241L12.0455 16.4957C12.2408 16.3004 12.2408 15.9838 12.0455 15.7886C11.8502 15.5933 11.5336 15.5933 11.3384 15.7886L8.50995 18.617C7.53364 19.5933 5.95073 19.5933 4.97442 18.617C3.99811 17.6407 3.99811 16.0578 4.97442 15.0815L9.21706 10.8388Z" fill="black"/>
</svg>
