<svg width="25" height="24" viewBox="0 0 25 24" fill="none" xmlns="http://www.w3.org/2000/svg">
<path d="M9.19139 8.96206C9.25036 8.93766 9.30561 8.90149 9.35355 8.85355C9.40149 8.80561 9.43766 8.75036 9.46206 8.69139C9.48651 8.63244 9.5 8.56779 9.5 8.5L9.5 4.5C9.5 4.22386 9.27614 4 9 4C8.72386 4 8.5 4.22386 8.5 4.5L8.5 7.29289L5.35355 4.14645C5.15829 3.95118 4.84171 3.95118 4.64645 4.14645C4.45118 4.34171 4.45118 4.65829 4.64645 4.85355L7.79289 8L5 8C4.72386 8 4.5 8.22386 4.5 8.5C4.5 8.77614 4.72386 9 5 9L9 9C9.06779 9 9.13244 8.98651 9.19139 8.96206Z" fill="black"/>
<path d="M9.35567 15.1486C9.40256 15.196 9.43802 15.2505 9.46206 15.3086C9.48697 15.3688 9.49961 15.4329 9.49999 15.497L9.5 15.5003V19.5C9.5 19.7761 9.27614 20 9 20C8.72386 20 8.5 19.7761 8.5 19.5V16.7071L5.35355 19.8535C5.15829 20.0488 4.84171 20.0488 4.64645 19.8535C4.45118 19.6583 4.45118 19.3417 4.64645 19.1464L7.79289 16H5C4.72386 16 4.5 15.7761 4.5 15.5C4.5 15.2239 4.72386 15 5 15H9C9.13699 15 9.26112 15.0551 9.35143 15.1443L9.35567 15.1486Z" fill="black"/>
<path d="M15.6464 15.1464C15.6944 15.0985 15.7496 15.0623 15.8086 15.0379C15.8676 15.0135 15.9322 15 16 15H20C20.2761 15 20.5 15.2239 20.5 15.5C20.5 15.7761 20.2761 16 20 16H17.2071L20.3536 19.1464C20.5488 19.3417 20.5488 19.6583 20.3536 19.8535C20.1583 20.0488 19.8417 20.0488 19.6464 19.8535L16.5 16.7071V19.5C16.5 19.7761 16.2761 20 16 20C15.7239 20 15.5 19.7761 15.5 19.5V15.5C15.5 15.4322 15.5135 15.3676 15.5379 15.3086C15.5623 15.2496 15.5985 15.1944 15.6464 15.1464Z" fill="black"/>
<path d="M15.6443 8.85142C15.5974 8.80398 15.562 8.74949 15.5379 8.69139C15.513 8.6312 15.5004 8.56713 15.5 8.503L15.5 8.49965V4.5C15.5 4.22386 15.7239 4 16 4C16.2761 4 16.5 4.22386 16.5 4.5V7.29289L19.6464 4.14645C19.8417 3.95118 20.1583 3.95118 20.3536 4.14645C20.5488 4.34171 20.5488 4.65829 20.3536 4.85355L17.2071 8L20 8C20.2761 8 20.5 8.22386 20.5 8.5C20.5 8.77614 20.2761 9 20 9L16 9C15.863 9 15.7389 8.9449 15.6486 8.85567L15.6443 8.85142Z" fill="black"/>
</svg>
