<svg width="25" height="24" viewBox="0 0 25 24" fill="none" xmlns="http://www.w3.org/2000/svg">
<path fill-rule="evenodd" clip-rule="evenodd" d="M9 5C9 4.20435 9.31607 3.44129 9.87868 2.87868C10.4413 2.31607 11.2044 2 12 2H14C14.7956 2 15.5587 2.31607 16.1213 2.87868C16.6839 3.44129 17 4.20435 17 5L19.5 5C19.7761 5 20 5.22386 20 5.5C20 5.77614 19.7761 6 19.5 6H6.5C6.22386 6 6 5.77614 6 5.5C6 5.22386 6.22386 5 6.5 5L9 5ZM10.5858 3.58578C10.9609 3.21071 11.4696 3 12 3H14C14.5304 3 15.0391 3.21071 15.4142 3.58578C15.7893 3.96086 16 4.46957 16 5H10C10 4.46957 10.2107 3.96086 10.5858 3.58578Z" fill="black"/>
<path d="M11.5 10C11.7761 10 12 10.2239 12 10.5V18.46C12 18.7361 11.7761 18.96 11.5 18.96C11.2239 18.96 11 18.7361 11 18.46V10.5C11 10.2239 11.2239 10 11.5 10Z" fill="black"/>
<path d="M15 10.5C15 10.2239 14.7761 10 14.5 10C14.2239 10 14 10.2239 14 10.5V18.5C14 18.7761 14.2239 19 14.5 19C14.7761 19 15 18.7761 15 18.5V10.5Z" fill="black"/>
<path fill-rule="evenodd" clip-rule="evenodd" d="M7 7.5C7 7.22386 7.22386 7 7.5 7H18.5C18.7761 7 19 7.22386 19 7.5V18.955C19 18.9657 18.9997 18.9764 18.999 18.9871C18.9441 19.8379 18.553 20.6319 17.9119 21.1953C17.2749 21.7552 16.4426 22.0421 15.5955 21.995H10.4045C9.55737 22.0421 8.72511 21.7552 8.08808 21.1953C7.44703 20.6319 7.05589 19.8379 7.00104 18.9871C7.00035 18.9764 7 18.9657 7 18.955V7.5ZM17.2518 20.4442C17.6903 20.0588 17.9586 19.5177 18 18.938V8H8V18.938C8.0414 19.5177 8.30974 20.0588 8.74824 20.4442C9.19065 20.833 9.77014 21.0316 10.3598 20.9959C10.3698 20.9953 10.3799 20.995 10.39 20.995H15.61C15.6201 20.995 15.6302 20.9953 15.6402 20.9959C16.2299 21.0316 16.8094 20.833 17.2518 20.4442Z" fill="black"/>
</svg>
