<svg width="25" height="24" viewBox="0 0 25 24" fill="none" xmlns="http://www.w3.org/2000/svg">
<path d="M14.5 4.5C14.5 5.32843 13.8284 6 13 6C12.1716 6 11.5 5.32843 11.5 4.5C11.5 3.67157 12.1716 3 13 3C13.8284 3 14.5 3.67157 14.5 4.5Z" fill="black"/>
<path d="M13 13.5C13.8284 13.5 14.5 12.8284 14.5 12C14.5 11.1716 13.8284 10.5 13 10.5C12.1716 10.5 11.5 11.1716 11.5 12C11.5 12.8284 12.1716 13.5 13 13.5Z" fill="black"/>
<path d="M13 21C13.8284 21 14.5 20.3284 14.5 19.5C14.5 18.6716 13.8284 18 13 18C12.1716 18 11.5 18.6716 11.5 19.5C11.5 20.3284 12.1716 21 13 21Z" fill="black"/>
</svg>
