<svg width="25" height="24" viewBox="0 0 25 24" fill="none" xmlns="http://www.w3.org/2000/svg">
<path d="M4.5 4.5C4.5 4.43221 4.51349 4.36756 4.53794 4.30861C4.56198 4.25051 4.59744 4.19602 4.64433 4.14857L4.64645 4.14645C4.69439 4.09851 4.74964 4.06234 4.80861 4.03794C4.86756 4.01349 4.93221 4 5 4H9C9.27614 4 9.5 4.22386 9.5 4.5C9.5 4.77614 9.27614 5 9 5H6.20711L9.44355 8.23645C9.63881 8.43171 9.63881 8.74829 9.44355 8.94355C9.24829 9.13882 8.93171 9.13882 8.73644 8.94355L5.5 5.70711V8.5C5.5 8.77614 5.27614 9 5 9C4.72386 9 4.5 8.77614 4.5 8.5V4.5Z" fill="black"/>
<path d="M20 4C20.0678 4 20.1324 4.01349 20.1914 4.03794C20.2495 4.06198 20.304 4.09744 20.3514 4.14433L20.3536 4.14645C20.4015 4.19439 20.4377 4.24964 20.4621 4.30861C20.4865 4.36756 20.5 4.43221 20.5 4.5V8.5C20.5 8.77614 20.2761 9 20 9C19.7239 9 19.5 8.77614 19.5 8.5V5.70711L16.2636 8.94355C16.0683 9.13881 15.7517 9.13881 15.5564 8.94355C15.3612 8.74829 15.3612 8.43171 15.5564 8.23644L18.7929 5L16 5C15.7239 5 15.5 4.77614 15.5 4.5C15.5 4.22386 15.7239 4 16 4H20Z" fill="black"/>
<path d="M20.4621 19.6914C20.4865 19.6324 20.5 19.5678 20.5 19.5V15.5C20.5 15.2239 20.2761 15 20 15C19.7239 15 19.5 15.2239 19.5 15.5V18.2929L16.2636 15.0564C16.0683 14.8612 15.7517 14.8612 15.5564 15.0564C15.3612 15.2517 15.3612 15.5683 15.5564 15.7636L18.7929 19H16C15.7239 19 15.5 19.2239 15.5 19.5C15.5 19.7761 15.7239 20 16 20H20C20.0678 20 20.1324 19.9865 20.1914 19.9621C20.2504 19.9377 20.3056 19.9015 20.3536 19.8536L20.3557 19.8514C20.4026 19.804 20.438 19.7495 20.4621 19.6914Z" fill="black"/>
<path d="M5 20C4.93221 20 4.86756 19.9865 4.80861 19.9621C4.75051 19.938 4.69602 19.9026 4.64857 19.8557L4.64645 19.8536C4.59851 19.8056 4.56234 19.7504 4.53794 19.6914C4.51349 19.6324 4.5 19.5678 4.5 19.5V15.5C4.5 15.2239 4.72386 15 5 15C5.27614 15 5.5 15.2239 5.5 15.5L5.5 18.2929L8.73645 15.0564C8.93171 14.8612 9.24829 14.8612 9.44355 15.0564C9.63882 15.2517 9.63882 15.5683 9.44355 15.7636L6.20711 19L9 19C9.27614 19 9.5 19.2239 9.5 19.5C9.5 19.7761 9.27614 20 9 20H5Z" fill="black"/>
</svg>
