<svg width="25" height="24" viewBox="0 0 25 24" fill="none" xmlns="http://www.w3.org/2000/svg">
<path fill-rule="evenodd" clip-rule="evenodd" d="M2.5 2.5C2.5 2.22386 2.72386 2 3 2H11C11.2761 2 11.5 2.22386 11.5 2.5V12.5C11.5 12.7761 11.2761 13 11 13H3C2.72386 13 2.5 12.7761 2.5 12.5V2.5ZM3.5 3V12H10.5V3H3.5Z" fill="black"/>
<path fill-rule="evenodd" clip-rule="evenodd" d="M13.5 11.5C13.5 11.2239 13.7239 11 14 11H22C22.2761 11 22.5 11.2239 22.5 11.5V21.5C22.5 21.7761 22.2761 22 22 22H14C13.7239 22 13.5 21.7761 13.5 21.5V11.5ZM14.5 12V21H21.5V12H14.5Z" fill="black"/>
<path fill-rule="evenodd" clip-rule="evenodd" d="M2.5 15.49C2.5 15.2138 2.72386 14.99 3 14.99H11C11.2761 14.99 11.5 15.2138 11.5 15.49V21.49C11.5 21.7661 11.2761 21.99 11 21.99H3C2.72386 21.99 2.5 21.7661 2.5 21.49V15.49ZM3.5 15.99V20.99H10.5V15.99H3.5Z" fill="black"/>
<path d="M13.5 2.5C13.5 2.22386 13.7239 2 14 2H22C22.2761 2 22.5 2.22386 22.5 2.5V8.5C22.5 8.77614 22.2761 9 22 9H14C13.7239 9 13.5 8.77614 13.5 8.5V2.5Z" fill="black"/>
</svg>
