<svg width="25" height="24" viewBox="0 0 25 24" fill="none" xmlns="http://www.w3.org/2000/svg">
<path d="M16.4957 7.99884C16.5617 7.99884 16.6271 8.0119 16.688 8.03725C16.7386 8.05831 16.7853 8.08752 16.8263 8.12363L19.2978 11.5811C19.3142 11.604 19.3325 11.6256 19.3525 11.6454C19.3994 11.6918 19.4366 11.7471 19.4619 11.8079C19.4873 11.8688 19.5004 11.9341 19.5004 12C19.5004 12.0659 19.4873 12.1312 19.4619 12.1921C19.4366 12.2529 19.3994 12.3082 19.3525 12.3546C19.3325 12.3744 19.3142 12.396 19.2978 12.4189L16.8263 15.8764C16.7853 15.9125 16.7386 15.9417 16.688 15.9628C16.6271 15.9881 16.5617 16.0012 16.4957 16.0012V17C16.6937 17 16.8897 16.9608 17.0724 16.8848C17.2551 16.8087 17.4209 16.6972 17.5603 16.5568C17.5792 16.5378 17.5966 16.5172 17.6122 16.4954L20.0891 13.0304C20.2143 12.8983 20.3145 12.7444 20.3847 12.5762C20.4608 12.3936 20.5 12.1978 20.5 12C20.5 11.8022 20.4608 11.6064 20.3847 11.4238C20.3145 11.2556 20.2143 11.1017 20.0891 10.9696L17.6122 7.50459C17.5966 7.48277 17.5792 7.46223 17.5603 7.44318C17.4209 7.30275 17.2551 7.19129 17.0724 7.11523C16.8897 7.03916 16.6937 7 16.4957 7V7.00586H6.99942C6.60175 7.00586 6.22037 7.16371 5.93917 7.44469C5.65797 7.72567 5.5 8.10676 5.5 8.50412V15.496C5.5 15.8934 5.65797 16.2745 5.93917 16.5554C6.22037 16.8364 6.60175 16.9943 6.99942 16.9943L16.4957 16.9943V15.9954L6.99942 15.9954C6.86686 15.9954 6.73974 15.9428 6.646 15.8492C6.55227 15.7555 6.49961 15.6285 6.49961 15.496V8.50412C6.49961 8.37167 6.55227 8.24464 6.646 8.15098C6.73974 8.05732 6.86686 8.0047 6.99942 8.0047L16.4957 8.0047V7.99884Z" fill="black"/>
</svg>
