<svg width="25" height="24" viewBox="0 0 25 24" fill="none" xmlns="http://www.w3.org/2000/svg">
<path d="M11.6464 2.14645L11.6486 2.14433L12.1914 2.03794C12.2504 2.06234 12.3056 2.09851 12.3536 2.14645L15.3536 5.14645C15.5488 5.34171 15.5488 5.65829 15.3536 5.85355C15.1583 6.04882 14.8417 6.04882 14.6464 5.85355L12.5 3.70711V15.5C12.5 15.7761 12.2761 16 12 16C11.7239 16 11.5 15.7761 11.5 15.5V3.70711C11.4775 3.6846 11.5173 3.73247 11.5 3.70711L9.35355 5.85355C9.15829 6.04882 8.84171 6.04882 8.64645 5.85355C8.45118 5.65829 8.45118 5.34171 8.64645 5.14645L11.6464 2.14645Z" fill="black"/>
<path d="M11.6486 2.14433L12.1914 2.03794C12.1327 2.0137 12.0675 2 12 2C11.9322 2 11.8676 2.01349 11.8086 2.03794L11.8006 2.04133C11.7455 2.06527 11.6938 2.0996 11.6486 2.14433Z" fill="black"/>
<path d="M6.5 8C5.83696 8 5.20107 8.26339 4.73223 8.73223C4.26339 9.20107 4 9.83696 4 10.5V19.5C4 20.163 4.26339 20.7989 4.73223 21.2678C5.20107 21.7366 5.83696 22 6.5 22H17.5C18.163 22 18.7989 21.7366 19.2678 21.2678C19.7366 20.7989 20 20.163 20 19.5V10.5C20 9.83696 19.7366 9.20107 19.2678 8.73223C18.7989 8.26339 18.163 8 17.5 8H15.5C15.2239 8 15 8.22386 15 8.5C15 8.77614 15.2239 9 15.5 9H17.5C17.8978 9 18.2794 9.15804 18.5607 9.43934C18.842 9.72064 19 10.1022 19 10.5V19.5C19 19.8978 18.842 20.2794 18.5607 20.5607C18.2794 20.842 17.8978 21 17.5 21H6.5C6.10218 21 5.72064 20.842 5.43934 20.5607C5.15804 20.2794 5 19.8978 5 19.5V10.5C5 10.1022 5.15804 9.72064 5.43934 9.43934C5.72064 9.15804 6.10218 9 6.5 9H8.5C8.77614 9 9 8.77614 9 8.5C9 8.22386 8.77614 8 8.5 8H6.5Z" fill="black"/>
</svg>
