<svg width="25" height="24" viewBox="0 0 25 24" fill="none" xmlns="http://www.w3.org/2000/svg">
<path d="M7 4C6.33696 4 5.70107 4.26339 5.23223 4.73223C4.76339 5.20107 4.5 5.83696 4.5 6.5V17.5C4.5 18.163 4.76339 18.7989 5.23223 19.2678C5.70107 19.7366 6.33696 20 7 20H18C18.663 20 19.2989 19.7366 19.7678 19.2678C20.2366 18.7989 20.5 18.163 20.5 17.5V12.5C20.5 12.2239 20.2761 12 20 12C19.7239 12 19.5 12.2239 19.5 12.5V17.5C19.5 17.8978 19.342 18.2794 19.0607 18.5607C18.7794 18.842 18.3978 19 18 19H7C6.60218 19 6.22064 18.842 5.93934 18.5607C5.65803 18.2794 5.5 17.8978 5.5 17.5V6.5C5.5 6.10217 5.65803 5.72064 5.93934 5.43934C6.22064 5.15804 6.60217 5 7 5H12C12.2761 5 12.5 4.77614 12.5 4.5C12.5 4.22386 12.2761 4 12 4H7Z" fill="black"/>
<path d="M16 4C15.7239 4 15.5 4.22386 15.5 4.5C15.5 4.77614 15.7239 5 16 5H18.7929L11.6464 12.1464C11.4512 12.3417 11.4512 12.6583 11.6464 12.8536C11.8417 13.0488 12.1583 13.0488 12.3536 12.8536L19.5 5.70711V8.5C19.5 8.77614 19.7239 9 20 9C20.2761 9 20.5 8.77614 20.5 8.5V4H16Z" fill="black"/>
</svg>
