<svg width="25" height="24" viewBox="0 0 25 24" fill="none" xmlns="http://www.w3.org/2000/svg">
<path d="M18 2C17.7239 2 17.5 2.22386 17.5 2.5C17.5 2.77614 17.7239 3 18 3H20.7929L11.6464 12.1464C11.4512 12.3417 11.4512 12.6583 11.6464 12.8536C11.8417 13.0488 12.1583 13.0488 12.3536 12.8536L21.5 3.70711V6.5C21.5 6.77614 21.7239 7 22 7C22.2761 7 22.5 6.77614 22.5 6.5V2.5C22.5 2.49137 22.4998 2.48279 22.4993 2.47427C22.4964 2.41584 22.4834 2.36006 22.4621 2.30861C22.4388 2.25232 22.4048 2.19942 22.36 2.15303C22.3557 2.1486 22.3514 2.14425 22.347 2.13998C22.3006 2.09524 22.2477 2.06123 22.1914 2.03794C22.1324 2.01349 22.0678 2 22 2H18Z" fill="black"/>
<path d="M7 4C6.33696 4 5.70107 4.26339 5.23223 4.73223C4.76339 5.20107 4.5 5.83696 4.5 6.5V17.5C4.5 18.163 4.76339 18.7989 5.23223 19.2678C5.70107 19.7366 6.33696 20 7 20H18C18.663 20 19.2989 19.7366 19.7678 19.2678C20.2366 18.7989 20.5 18.163 20.5 17.5V8.5C20.5 8.22386 20.2761 8 20 8C19.7239 8 19.5 8.22386 19.5 8.5V17.5C19.5 17.8978 19.342 18.2794 19.0607 18.5607C18.7794 18.842 18.3978 19 18 19H7C6.60218 19 6.22064 18.842 5.93934 18.5607C5.65803 18.2794 5.5 17.8978 5.5 17.5V6.5C5.5 6.10217 5.65803 5.72064 5.93934 5.43934C6.22064 5.15804 6.60217 5 7 5H16C16.2761 5 16.5 4.77614 16.5 4.5C16.5 4.22386 16.2761 4 16 4H7Z" fill="black"/>
</svg>
