<svg width="25" height="24" viewBox="0 0 25 24" fill="none" xmlns="http://www.w3.org/2000/svg">
<path d="M5 2C4.17157 2 3.5 2.67157 3.5 3.5V11.5C3.5 12.3284 4.17157 13 5 13H7C7.27614 13 7.5 12.7761 7.5 12.5C7.5 12.2239 7.27614 12 7 12H5C4.72386 12 4.5 11.7761 4.5 11.5V3.5C4.5 3.22386 4.72386 3 5 3H20C20.2761 3 20.5 3.22386 20.5 3.5V11.5C20.5 11.7761 20.2761 12 20 12H16C15.7239 12 15.5 12.2239 15.5 12.5C15.5 12.7761 15.7239 13 16 13H20C20.8284 13 21.5 12.3284 21.5 11.5V3.5C21.5 2.67157 20.8284 2 20 2H5Z" fill="black"/>
<path d="M12 4.5C12 4.22386 11.7761 4 11.5 4C11.2239 4 11 4.22386 11 4.5V6.5C11 6.77614 11.2239 7 11.5 7C11.7761 7 12 6.77614 12 6.5V4.5Z" fill="black"/>
<path d="M11.5 9C12.0523 9 12.5 9.44772 12.5 10V14.1095C12.4998 14.1168 12.4998 14.1241 12.5 14.1314V15.5C12.5 15.7761 12.7239 16 13 16C13.2761 16 13.5 15.7761 13.5 15.5V14.7683L16.6831 15.6037C16.6943 15.6067 16.7057 15.6092 16.7171 15.6114C17.2152 15.7056 17.6653 15.9697 17.9904 16.3587C18.3151 16.7472 18.4952 17.2361 18.5 17.7424V21.5001C18.5 21.7763 18.7239 22.0001 19 22.0001C19.2761 22.0001 19.5 21.7763 19.5 21.5001L19.5 17.7401L19.5 17.7358C19.4936 16.9974 19.2313 16.284 18.7577 15.7174C18.2879 15.1554 17.6393 14.7724 16.9208 14.6323L13.5 13.7344V10C13.5 8.89543 12.6046 8 11.5 8C10.3954 8 9.5 8.89543 9.5 10V15.2061L8.6927 14.4968C8.32719 14.1669 7.84947 13.9892 7.35738 14C7.10976 13.9972 6.86397 14.043 6.63398 14.135C6.40116 14.2282 6.1892 14.3667 6.01046 14.5425C5.83516 14.7128 5.69576 14.9165 5.60048 15.1416C5.5049 15.3674 5.45569 15.61 5.45569 15.8551C5.45569 16.1001 5.5049 16.3428 5.60048 16.5685C5.69515 16.7921 5.83338 16.9947 6.00709 17.1643L10.603 21.8502C10.7964 22.0473 11.113 22.0504 11.3101 21.857C11.5072 21.6637 11.5103 21.3471 11.317 21.1499L6.71706 16.4598L6.70798 16.451C6.62816 16.3737 6.5647 16.281 6.52135 16.1787C6.47802 16.0763 6.45569 15.9663 6.45569 15.8551C6.45569 15.7438 6.47802 15.6338 6.52135 15.5315C6.5647 15.4291 6.62818 15.3365 6.708 15.2591L6.71103 15.2561C6.79535 15.173 6.89542 15.1075 7.00537 15.0635C7.11531 15.0195 7.23293 14.9979 7.35132 15C7.35882 15.0001 7.36632 15.0001 7.37381 14.9999C7.61351 14.9932 7.84647 15.0795 8.02412 15.2405L9.43 16.4757C9.45242 16.4954 9.47611 16.5127 9.50075 16.5277C9.51513 16.791 9.73315 17 10 17C10.2761 17 10.5 16.7761 10.5 16.5V10C10.5 9.44772 10.9477 9 11.5 9Z" fill="black"/>
<path d="M15.8535 5.64645C16.0488 5.84171 16.0488 6.15829 15.8535 6.35355L14.4393 7.76777C14.2441 7.96303 13.9275 7.96303 13.7322 7.76777C13.537 7.5725 13.537 7.25592 13.7322 7.06066L15.1464 5.64645C15.3417 5.45118 15.6583 5.45118 15.8535 5.64645Z" fill="black"/>
<path d="M15 9C14.7239 9 14.5 9.22386 14.5 9.5C14.5 9.77614 14.7239 10 15 10H17C17.2761 10 17.5 9.77614 17.5 9.5C17.5 9.22386 17.2761 9 17 9H15Z" fill="black"/>
<path d="M5.5 9.5C5.5 9.22386 5.72386 9 6 9H8C8.27614 9 8.5 9.22386 8.5 9.5C8.5 9.77614 8.27614 10 8 10H6C5.72386 10 5.5 9.77614 5.5 9.5Z" fill="black"/>
<path d="M7.85355 5.6464C7.65829 5.45114 7.34171 5.45114 7.14645 5.6464C6.95118 5.84166 6.95118 6.15825 7.14645 6.35351L8.56066 7.76772C8.75592 7.96298 9.0725 7.96298 9.26777 7.76772C9.46303 7.57246 9.46303 7.25588 9.26777 7.06061L7.85355 5.6464Z" fill="black"/>
</svg>
