<svg width="25" height="24" viewBox="0 0 25 24" fill="none" xmlns="http://www.w3.org/2000/svg">
<path d="M6.85355 5.64645C6.65829 5.45118 6.34171 5.45118 6.14645 5.64645C5.95118 5.84171 5.95118 6.15829 6.14645 6.35355L11.7929 12L6.14645 17.6464C5.95118 17.8417 5.95118 18.1583 6.14645 18.3536C6.34171 18.5488 6.65829 18.5488 6.85355 18.3536L12.5 12.7071L18.1464 18.3536C18.3417 18.5488 18.6583 18.5488 18.8536 18.3536C19.0488 18.1583 19.0488 17.8417 18.8536 17.6464L13.2071 12L18.8536 6.35355C19.0488 6.15829 19.0488 5.84171 18.8536 5.64645C18.6583 5.45118 18.3417 5.45118 18.1464 5.64645L12.5 11.2929L6.85355 5.64645Z" fill="black"/>
</svg>
