<svg width="25" height="24" viewBox="0 0 25 24" fill="none" xmlns="http://www.w3.org/2000/svg">
<path d="M13.5 6C13.5 6.55228 13.9477 7 14.5 7C15.0523 7 15.5 6.55228 15.5 6C15.5 5.44772 15.0523 5 14.5 5C13.9477 5 13.5 5.44772 13.5 6Z" fill="black"/>
<path d="M13.5 10C13.5 10.5523 13.9477 11 14.5 11C15.0523 11 15.5 10.5523 15.5 10C15.5 9.44772 15.0523 9 14.5 9C13.9477 9 13.5 9.44772 13.5 10Z" fill="black"/>
<path d="M14.5 15C13.9477 15 13.5 14.5523 13.5 14C13.5 13.4477 13.9477 13 14.5 13C15.0523 13 15.5 13.4477 15.5 14C15.5 14.5523 15.0523 15 14.5 15Z" fill="black"/>
<path d="M13.5 18C13.5 18.5523 13.9477 19 14.5 19C15.0523 19 15.5 18.5523 15.5 18C15.5 17.4477 15.0523 17 14.5 17C13.9477 17 13.5 17.4477 13.5 18Z" fill="black"/>
<path d="M10.5 11C9.94772 11 9.5 10.5523 9.5 10C9.5 9.44772 9.94772 9 10.5 9C11.0523 9 11.5 9.44772 11.5 10C11.5 10.5523 11.0523 11 10.5 11Z" fill="black"/>
<path d="M9.5 6C9.5 6.55228 9.94772 7 10.5 7C11.0523 7 11.5 6.55228 11.5 6C11.5 5.44772 11.0523 5 10.5 5C9.94772 5 9.5 5.44772 9.5 6Z" fill="black"/>
<path d="M10.5 15C9.94772 15 9.5 14.5523 9.5 14C9.5 13.4477 9.94772 13 10.5 13C11.0523 13 11.5 13.4477 11.5 14C11.5 14.5523 11.0523 15 10.5 15Z" fill="black"/>
<path d="M9.5 18C9.5 18.5523 9.94772 19 10.5 19C11.0523 19 11.5 18.5523 11.5 18C11.5 17.4477 11.0523 17 10.5 17C9.94772 17 9.5 17.4477 9.5 18Z" fill="black"/>
</svg>
