<svg width="25" height="24" viewBox="0 0 25 24" fill="none" xmlns="http://www.w3.org/2000/svg">
<path d="M10.5 1.5C10.7761 1.5 11 1.72386 11 2V5C11 5.27614 10.7761 5.5 10.5 5.5C10.2239 5.5 10 5.27614 10 5V2C10 1.72386 10.2239 1.5 10.5 1.5Z" fill="black"/>
<path d="M11.5 13.1314C11.4998 13.1241 11.4998 13.1168 11.5 13.1095V9C11.5 8.44772 11.0523 8 10.5 8C9.94772 8 9.5 8.44772 9.5 9V16.5C9.5 16.7761 9.27614 17 9 17C8.73315 17 8.51513 16.791 8.50075 16.5277C8.47611 16.5127 8.45242 16.4954 8.43 16.4757L7.02412 15.2405C6.84647 15.0795 6.61351 14.9932 6.37381 14.9999C6.36632 15.0001 6.35882 15.0001 6.35132 15C6.23293 14.9979 6.11531 15.0195 6.00537 15.0635C5.89542 15.1075 5.79535 15.173 5.71103 15.2561L5.708 15.2591C5.62818 15.3365 5.5647 15.4291 5.52135 15.5315C5.47802 15.6338 5.45569 15.7438 5.45569 15.8551C5.45569 15.9663 5.47802 16.0763 5.52135 16.1787C5.5647 16.281 5.62816 16.3737 5.70798 16.451L5.71706 16.4598L10.317 21.1499C10.5103 21.3471 10.5072 21.6637 10.3101 21.857C10.113 22.0504 9.79639 22.0473 9.60303 21.8502L5.00709 17.1643C4.83338 16.9947 4.69515 16.7921 4.60048 16.5685C4.5049 16.3428 4.45569 16.1001 4.45569 15.8551C4.45569 15.61 4.5049 15.3674 4.60048 15.1416C4.69576 14.9165 4.83516 14.7128 5.01046 14.5425C5.1892 14.3667 5.40116 14.2282 5.63398 14.135C5.86397 14.043 6.10976 13.9972 6.35738 14C6.84947 13.9892 7.32719 14.1669 7.6927 14.4968L8.5 15.2061V9C8.5 7.89543 9.39543 7 10.5 7C11.6046 7 12.5 7.89543 12.5 9V12.7344L15.9208 13.6323C16.6393 13.7724 17.2879 14.1554 17.7577 14.7174C18.2313 15.284 18.4936 15.9974 18.5 16.7358L18.5 16.7401L18.5 21.5001C18.5 21.7763 18.2761 22.0001 18 22.0001C17.7239 22.0001 17.5 21.7763 17.5 21.5001V16.7424C17.4952 16.2361 17.3151 15.7472 16.9904 15.3587C16.6653 14.9697 16.2152 14.7056 15.7171 14.6114C15.7057 14.6092 15.6943 14.6067 15.6831 14.6037L12.5 13.7683V14.5C12.5 14.7761 12.2761 15 12 15C11.7239 15 11.5 14.7761 11.5 14.5V13.1314Z" fill="black"/>
<path d="M5.85355 3.6464C5.65829 3.45114 5.34171 3.45114 5.14645 3.6464C4.95118 3.84166 4.95118 4.15824 5.14645 4.35351L7.26777 6.47483C7.46303 6.67009 7.77961 6.67009 7.97487 6.47483C8.17014 6.27957 8.17014 5.96298 7.97487 5.76772L5.85355 3.6464Z" fill="black"/>
<path d="M15.9748 3.64645C16.1701 3.84171 16.1701 4.15829 15.9748 4.35355L13.8535 6.47487C13.6583 6.67014 13.3417 6.67014 13.1464 6.47487C12.9512 6.27961 12.9512 5.96303 13.1464 5.76777L15.2677 3.64645C15.463 3.45118 15.7796 3.45118 15.9748 3.64645Z" fill="black"/>
<path d="M14.5 8C14.2239 8 14 8.22386 14 8.5C14 8.77614 14.2239 9 14.5 9H17.5C17.7761 9 18 8.77614 18 8.5C18 8.22386 17.7761 8 17.5 8H14.5Z" fill="black"/>
<path d="M3 8.5C3 8.22386 3.22386 8 3.5 8H6.5C6.77614 8 7 8.22386 7 8.5C7 8.77614 6.77614 9 6.5 9H3.5C3.22386 9 3 8.77614 3 8.5Z" fill="black"/>
</svg>
