<svg width="25" height="24" viewBox="0 0 25 24" fill="none" xmlns="http://www.w3.org/2000/svg">
<path d="M4.15669 3.86351C3.95593 3.6739 3.94689 3.35745 4.13649 3.15669C4.3261 2.95593 4.64255 2.94689 4.84331 3.13649L13.0735 10.9095C13.7003 11.5014 13.7003 12.4986 13.0735 13.0905L4.84331 20.8635C4.64255 21.0531 4.3261 21.0441 4.13649 20.8433C3.94689 20.6426 3.95593 20.3261 4.15669 20.1365L12.3869 12.3635C12.5958 12.1662 12.5958 11.8338 12.3869 11.6365L4.15669 3.86351Z" fill="black"/>
<path d="M11.1567 3.86351C10.9559 3.6739 10.9469 3.35745 11.1365 3.15669C11.3261 2.95593 11.6426 2.94689 11.8433 3.13649L20.0735 10.9095C20.7003 11.5014 20.7003 12.4986 20.0735 13.0905L11.8433 20.8635C11.6426 21.0531 11.3261 21.0441 11.1365 20.8433C10.9469 20.6426 10.9559 20.3261 11.1567 20.1365L19.3869 12.3635C19.5958 12.1662 19.5958 11.8338 19.3869 11.6365L11.1567 3.86351Z" fill="black"/>
</svg>
