<svg width="25" height="24" viewBox="0 0 25 24" fill="none" xmlns="http://www.w3.org/2000/svg">
<path d="M3.6263 8.16787C3.44284 8.37426 3.46143 8.69029 3.66782 8.87375C3.87421 9.05721 4.19025 9.03862 4.37371 8.83223L7.58965 5.2143C7.53314 5.29529 7.5 5.3938 7.5 5.50005L7.50001 20C7.50001 20.2762 7.72386 20.5 8.00001 20.5C8.27615 20.5 8.50001 20.2762 8.50001 20L8.5 5.50005C8.5 5.3938 8.46686 5.29529 8.41035 5.21429L11.6263 8.83223C11.8098 9.03862 12.1258 9.05721 12.3322 8.87375C12.5386 8.6903 12.5572 8.37426 12.3737 8.16787L9.12112 4.5087C8.52443 3.83743 7.47558 3.83743 6.87889 4.5087L3.6263 8.16787Z" fill="black"/>
<path d="M21.3322 16.1263C21.5386 16.3098 21.5572 16.6258 21.3737 16.8322L18.1211 20.4914C17.5244 21.1627 16.4756 21.1627 15.8789 20.4914L12.6263 16.8322C12.4428 16.6258 12.4614 16.3098 12.6678 16.1263C12.8742 15.9429 13.1903 15.9615 13.3737 16.1679L16.5897 19.7858C16.5331 19.7048 16.5 19.6063 16.5 19.5L16.5 5.00005C16.5 4.72391 16.7239 4.50005 17 4.50005C17.2761 4.50005 17.5 4.72391 17.5 5.00005L17.5 19.5C17.5 19.6063 17.4669 19.7048 17.4103 19.7858L20.6263 16.1679C20.8098 15.9615 21.1258 15.9429 21.3322 16.1263Z" fill="black"/>
</svg>
