<svg width="25" height="24" viewBox="0 0 25 24" fill="none" xmlns="http://www.w3.org/2000/svg">
<path d="M12.5 11C12.3583 11 12.2232 10.9398 12.1284 10.8345L7.62836 5.83448C7.49627 5.68772 7.46293 5.47696 7.54326 5.29658C7.62359 5.11621 7.80255 5 8.00001 5H17C17.1975 5 17.3764 5.11621 17.4568 5.29658C17.5371 5.47696 17.5037 5.68772 17.3717 5.83448L12.8717 10.8345C12.7768 10.9398 12.6418 11 12.5 11Z" fill="black"/>
<path d="M12.5 19C12.3583 19 12.2232 18.9398 12.1284 18.8345L7.62836 13.8345C7.49627 13.6877 7.46293 13.477 7.54326 13.2966C7.62359 13.1162 7.80255 13 8.00001 13L17 13C17.1975 13 17.3764 13.1162 17.4568 13.2966C17.5371 13.477 17.5037 13.6877 17.3717 13.8345L12.8717 18.8345C12.7768 18.9398 12.6418 19 12.5 19Z" fill="black"/>
</svg>
