<svg width="25" height="24" viewBox="0 0 25 24" fill="none" xmlns="http://www.w3.org/2000/svg">
<path d="M13.843 3.86351C14.0437 3.6739 14.0528 3.35745 13.8632 3.15669C13.6736 2.95593 13.3571 2.94689 13.1563 3.13649L4.92612 10.9095C4.29937 11.5014 4.29937 12.4986 4.92612 13.0905L13.1563 20.8635C13.3571 21.0531 13.6736 21.0441 13.8632 20.8433C14.0528 20.6426 14.0437 20.3261 13.843 20.1365L5.61274 12.3635C5.40383 12.1662 5.40383 11.8338 5.61274 11.6365L13.843 3.86351Z" fill="black"/>
<path d="M20.843 3.86351C21.0437 3.6739 21.0528 3.35745 20.8632 3.15669C20.6736 2.95593 20.3571 2.94689 20.1563 3.13649L11.9261 10.9095C11.2994 11.5014 11.2994 12.4986 11.9261 13.0905L20.1563 20.8635C20.3571 21.0531 20.6736 21.0441 20.8632 20.8433C21.0528 20.6426 21.0437 20.3261 20.843 20.1365L12.6127 12.3635C12.4038 12.1662 12.4038 11.8338 12.6127 11.6365L20.843 3.86351Z" fill="black"/>
</svg>
