<svg width="25" height="24" viewBox="0 0 25 24" fill="none" xmlns="http://www.w3.org/2000/svg">
<path fill-rule="evenodd" clip-rule="evenodd" d="M12.8717 5.16552C12.7768 5.06016 12.6418 5 12.5 5C12.3583 5 12.2232 5.06016 12.1284 5.16552L7.62836 10.1655C7.49627 10.3123 7.46293 10.523 7.54326 10.7034C7.62359 10.8838 7.80255 11 8.00001 11H17C17.1975 11 17.3764 10.8838 17.4568 10.7034C17.5371 10.523 17.5037 10.3123 17.3717 10.1655L12.8717 5.16552ZM15.8773 10H9.12269L12.5 6.24742L15.8773 10Z" fill="black"/>
<path fill-rule="evenodd" clip-rule="evenodd" d="M8.00001 13C7.80255 13 7.62359 13.1162 7.54326 13.2966C7.46293 13.477 7.49627 13.6877 7.62836 13.8345L12.1284 18.8345C12.2232 18.9398 12.3583 19 12.5 19C12.6418 19 12.7768 18.9398 12.8717 18.8345L17.3717 13.8345C17.5037 13.6877 17.5371 13.477 17.4568 13.2966C17.3764 13.1162 17.1975 13 17 13H8.00001ZM12.5 17.7526L9.12269 14H15.8773L12.5 17.7526Z" fill="black"/>
</svg>
