<svg width="25" height="24" viewBox="0 0 25 24" fill="none" xmlns="http://www.w3.org/2000/svg">
<path fill-rule="evenodd" clip-rule="evenodd" d="M12.692 6.03832C12.5691 5.98723 12.4309 5.98723 12.308 6.03832L2.80804 9.98832C2.62228 10.0656 2.5009 10.2466 2.50001 10.4478C2.49911 10.6489 2.61886 10.8311 2.80392 10.9099L5.02127 11.8552C5.00711 11.9021 4.99966 11.9519 5.00001 12.0034L5.01998 14.8982C5.02086 15.025 5.06988 15.1467 5.15713 15.2387L5.51997 14.8947C5.15713 15.2387 5.15785 15.2395 5.15785 15.2395L5.15881 15.2405L5.16142 15.2432L5.16938 15.2514C5.17591 15.2581 5.18488 15.2672 5.19628 15.2786C5.21909 15.3012 5.25163 15.3329 5.29381 15.3723C5.37815 15.451 5.50114 15.5605 5.66199 15.6906C5.9835 15.9506 6.45745 16.2934 7.07732 16.6352C8.31802 17.3193 10.1454 18 12.5 18C13.6455 18 14.7098 17.7964 15.649 17.5031C15.9452 17.4106 16.2293 17.3091 16.5 17.202V18.5001C16.5 18.7762 16.7239 19.0001 17 19.0001C17.2761 19.0001 17.5 18.7762 17.5 18.5001V16.7564C17.8344 16.5903 18.1382 16.4219 18.4075 16.2614C18.8508 15.9971 19.2018 15.7533 19.4436 15.5742C19.5646 15.4846 19.6584 15.411 19.723 15.359C19.7553 15.333 19.7803 15.3123 19.7978 15.2977L19.8183 15.2805L19.8242 15.2754L19.8261 15.2738L19.8272 15.2728C19.9369 15.1778 20 15.0399 20 14.8947V12C20 11.9497 19.9926 11.9011 19.9787 11.8552L22.1961 10.9099C22.3811 10.8311 22.5009 10.6489 22.5 10.4478C22.4991 10.2466 22.3777 10.0656 22.192 9.98832L12.692 6.03832ZM19 12.2725L18.5603 12.4599C18.3063 12.5682 18.0125 12.4501 17.9043 12.1961C17.796 11.9421 17.9141 11.6483 18.1681 11.5401L20.7115 10.4558L12.5 7.0415L4.28848 10.4558L12.5061 13.9591L14.8143 13.0358C15.0707 12.9332 15.3617 13.0579 15.4642 13.3143C15.5668 13.5707 15.4421 13.8617 15.1857 13.9642L12.6857 14.9642C12.5629 15.0134 12.4256 15.0118 12.3039 14.9599L6.0019 12.2733L6.0185 14.6802C6.08524 14.741 6.17615 14.8203 6.29078 14.913C6.57333 15.1415 6.99877 15.45 7.56016 15.7595C8.68198 16.3781 10.3446 17 12.5 17C13.5271 17 14.4901 16.8174 15.351 16.5486C15.7591 16.4211 16.1435 16.2745 16.5 16.1193V12.9023L12.7676 10.9427C12.5231 10.8143 12.4289 10.5121 12.5573 10.2676C12.6857 10.0231 12.9879 9.92894 13.2324 10.0573L17.2324 12.1574C17.3969 12.2438 17.5 12.4143 17.5 12.6001V15.6285C17.6394 15.5522 17.7714 15.4764 17.8954 15.4024C18.3061 15.1576 18.6294 14.9328 18.8484 14.7706C18.9064 14.7276 18.957 14.6891 19 14.6558V12.2725Z" fill="black"/>
</svg>
