<svg width="25" height="24" viewBox="0 0 25 24" fill="none" xmlns="http://www.w3.org/2000/svg">
<path fill-rule="evenodd" clip-rule="evenodd" d="M5.51904 6.1076C5.19941 6.46171 4.94301 6.88625 4.76714 7.35793C4.59115 7.82992 4.5 8.33805 4.5 8.85234C4.5 9.36662 4.59114 9.87459 4.76714 10.3466C4.94209 10.8158 5.19673 11.2384 5.51402 11.5913L12.4773 18.7824L19.4865 11.5908C19.8036 11.2379 20.058 10.8155 20.2329 10.3466C20.4089 9.87459 20.5 9.36662 20.5 8.85234C20.5 8.33805 20.4088 7.82992 20.2329 7.35793C20.057 6.88623 19.8006 6.46169 19.4809 6.10757C18.8278 5.38997 17.9618 5 17.073 5C16.1839 5 15.3176 5.39023 14.6644 6.10828L14.6629 6.10987L12.8684 8.06541C12.7737 8.1686 12.6401 8.22735 12.5 8.22735C12.36 8.22735 12.2263 8.1686 12.1316 8.06541L10.3357 6.10828C9.68246 5.39023 8.81617 5 7.92706 5C7.03823 5 6.1722 5.38999 5.51904 6.1076ZM4.77872 5.43534C5.60857 4.52315 6.73772 4 7.92706 4C9.11604 4 10.2449 4.52284 11.0746 5.43452C11.0749 5.43479 11.0751 5.43507 11.0754 5.43534L12.5 6.98783L13.9247 5.43534C13.9249 5.43506 13.9252 5.43478 13.9254 5.4345C14.7552 4.52283 15.884 4 17.073 4C18.2624 4 19.3914 4.52316 20.2213 5.43534L20.2225 5.4367C20.6303 5.88831 20.9515 6.42302 21.1698 7.00856C21.3882 7.5941 21.5 8.22067 21.5 8.85234C21.5 9.48403 21.3882 10.1104 21.1698 10.696C20.9515 11.2815 20.6303 11.8162 20.2225 12.2678C20.2183 12.2725 20.2139 12.2772 20.2095 12.2817L12.8342 19.849C12.7398 19.9457 12.6104 20.0002 12.4753 20C12.3402 19.9998 12.2109 19.9449 12.1169 19.8478L4.78938 12.2805C4.78534 12.2764 4.78138 12.2721 4.7775 12.2678C4.36965 11.8162 4.04848 11.2815 3.83015 10.696C3.61183 10.1104 3.5 9.48403 3.5 8.85234C3.5 8.22068 3.61183 7.5941 3.83015 7.00856C4.04848 6.42302 4.36965 5.88831 4.7775 5.4367L4.77872 5.43534Z" fill="black"/>
</svg>
