<svg width="25" height="24" viewBox="0 0 25 24" fill="none" xmlns="http://www.w3.org/2000/svg">
<path fill-rule="evenodd" clip-rule="evenodd" d="M12.5 3.5C12.0874 3.5 11.7166 3.70124 11.459 3.9589C11.2013 4.21655 11 4.58731 11 4.99993C11 5.26167 11.1206 5.51511 11.2173 5.69248C11.3218 5.88398 11.457 6.0869 11.577 6.26683L11.584 6.27728C11.7123 6.46978 11.8238 6.6377 11.9048 6.78623L11.9183 6.8113L10.6454 7.76596L10.4418 7.76596C10.3305 7.55554 10.0854 7.45236 9.85633 7.52109L4.85633 9.02109C4.7268 9.05995 4.61853 9.14962 4.55623 9.26965C4.49392 9.38967 4.48289 9.52982 4.52566 9.65811L5.52566 12.6581C5.59372 12.8623 5.78479 13 6 13H7.5V20C7.5 20.2761 7.72386 20.5 8 20.5H17C17.2761 20.5 17.5 20.2761 17.5 20V13H19C19.2152 13 19.4063 12.8623 19.4743 12.6581L20.4743 9.65811C20.5171 9.52982 20.5061 9.38967 20.4438 9.26965C20.3815 9.14962 20.2732 9.05995 20.1437 9.02109L15.1437 7.52109C14.9146 7.45236 14.6695 7.55554 14.5582 7.76595L14.3546 7.76595L12.9586 6.71891C12.9149 6.56269 12.844 6.41976 12.7827 6.30738C12.6782 6.11588 12.543 5.91296 12.423 5.73303L12.416 5.72258C12.2877 5.53008 12.1762 5.36216 12.0952 5.21363C12.0239 5.08284 12.0059 5.01837 12.0014 5.00247C12.0002 4.99815 12 4.99742 12 4.99993C12 4.91255 12.0487 4.78334 12.166 4.66604C12.2834 4.54873 12.4126 4.5 12.5 4.5C12.7838 4.5 12.8735 4.58401 12.9075 4.62616C12.9579 4.68868 13 4.80697 13 5C13 5.27614 13.2239 5.5 13.5 5.5C13.7761 5.5 14 5.27614 14 5C14 4.69303 13.938 4.31132 13.6863 3.99884C13.4181 3.66599 13.0079 3.5 12.5 3.5ZM14.5524 7.77504L14.5535 7.77504L14.5541 7.77377L14.5553 7.77149L14.5571 7.76794L14.5589 7.76472L14.5582 7.76595L14.554 7.77259L14.5524 7.77504ZM14.5524 7.77504C14.5447 7.78684 14.5299 7.80814 14.5065 7.83616C14.4996 7.84441 14.492 7.85328 14.4836 7.86267L14.3662 7.77463L14.5524 7.77504ZM10.4418 7.76596L10.6454 7.76596L10.5164 7.86267C10.5149 7.86091 10.5133 7.85917 10.5118 7.85744C10.5052 7.84997 10.4991 7.84287 10.4935 7.83616C10.4684 7.80608 10.4532 7.78375 10.446 7.77259L10.4418 7.76596ZM12.5 7.625L12.6879 7.76596L12.3121 7.76596L12.5 7.625ZM12.6946 7.77094L12.3066 7.77008L11.4861 8.38543C11.754 8.45368 12.0875 8.5 12.5 8.5C12.9125 8.5 13.246 8.45368 13.5139 8.38543L12.6946 7.77094ZM10.2334 8.92314C10.2261 8.91858 10.219 8.91381 10.2119 8.90885C10.0442 8.79584 9.91419 8.68071 9.81551 8.57736L5.63732 9.83082L6.36038 12H8C8.27614 12 8.5 12.2239 8.5 12.5V19.5H16.5V12.5C16.5 12.2239 16.7239 12 17 12H18.6396L19.3627 9.83082L15.1845 8.57736C15.0858 8.68072 14.9558 8.79585 14.788 8.90887C14.781 8.91382 14.7739 8.91857 14.7666 8.92313C14.3003 9.23085 13.5792 9.5 12.5 9.5C11.4208 9.5 10.6997 9.23085 10.2334 8.92314Z" fill="black"/>
</svg>
