<svg width="25" height="24" viewBox="0 0 25 24" fill="none" xmlns="http://www.w3.org/2000/svg">
<path fill-rule="evenodd" clip-rule="evenodd" d="M13 2.50005C13 2.2611 12.8309 2.05555 12.5965 2.00944C12.362 1.96334 12.1277 2.08957 12.0372 2.31073L7.53723 13.3107C7.47415 13.4649 7.49201 13.6404 7.58488 13.7787C7.67774 13.9171 7.8334 14 8 14H12V21.5C12 21.739 12.1691 21.9446 12.4035 21.9907C12.638 22.0368 12.8723 21.9105 12.9628 21.6894L17.4628 10.6894C17.5259 10.5352 17.508 10.3597 17.4151 10.2214C17.3223 10.083 17.1666 10 17 10H13V2.50005ZM13 13.5C13 13.2239 12.7761 13 12.5 13H8.74477L12 5.04281V10.5C12 10.7762 12.2239 11 12.5 11H16.2552L13 18.9573V13.5Z" fill="black"/>
</svg>
