<svg width="25" height="24" viewBox="0 0 25 24" fill="none" xmlns="http://www.w3.org/2000/svg">
<path fill-rule="evenodd" clip-rule="evenodd" d="M4.5 4.5C4.5 4.22386 4.72386 4 5 4H11.5V7.3C11.5 7.6866 11.8134 8 12.2 8H15.5V12.5C15.5 12.7761 15.7239 13 16 13C16.2761 13 16.5 12.7761 16.5 12.5V7.91421C16.5 7.51639 16.342 7.13486 16.0607 6.85355L12.6464 3.43934C12.3651 3.15804 11.9836 3 11.5858 3H5C4.17157 3 3.5 3.67157 3.5 4.5V19.5C3.5 20.3284 4.17157 21 5 21H8C8.27614 21 8.5 20.7761 8.5 20.5C8.5 20.2239 8.27614 20 8 20H5C4.72386 20 4.5 19.7761 4.5 19.5V4.5ZM14.7929 7L12.5 4.70711V7H14.7929Z" fill="black"/>
<path d="M6 8C6 7.72386 6.22386 7.5 6.5 7.5H9.5C9.77614 7.5 10 7.72386 10 8C10 8.27614 9.77614 8.5 9.5 8.5H6.5C6.22386 8.5 6 8.27614 6 8Z" fill="black"/>
<path d="M6 10C6 9.72386 6.22386 9.5 6.5 9.5H10.5C10.7761 9.5 11 9.72386 11 10C11 10.2761 10.7761 10.5 10.5 10.5H6.5C6.22386 10.5 6 10.2761 6 10Z" fill="black"/>
<path d="M6.5 11.5C6.22386 11.5 6 11.7239 6 12C6 12.2761 6.22386 12.5 6.5 12.5H11.5C11.7761 12.5 12 12.2761 12 12C12 11.7239 11.7761 11.5 11.5 11.5H6.5Z" fill="black"/>
<path d="M13.5 18C13.2239 18 13 18.2239 13 18.5C13 18.7761 13.2239 19 13.5 19H18.5C18.7761 19 19 18.7761 19 18.5C19 18.2239 18.7761 18 18.5 18H13.5Z" fill="black"/>
<path d="M15 16.5C15 16.2239 15.2239 16 15.5 16H18.5C18.7761 16 19 16.2239 19 16.5C19 16.7761 18.7761 17 18.5 17H15.5C15.2239 17 15 16.7761 15 16.5Z" fill="black"/>
<path d="M12 17.5C12.5523 17.5 13 17.0523 13 16.5C13 15.9477 12.5523 15.5 12 15.5C11.4477 15.5 11 15.9477 11 16.5C11 17.0523 11.4477 17.5 12 17.5Z" fill="black"/>
<path fill-rule="evenodd" clip-rule="evenodd" d="M9.5 14.7C9.5 14.3134 9.8134 14 10.2 14H19.8C20.1866 14 20.5 14.3134 20.5 14.7V20.3C20.5 20.6866 20.1866 21 19.8 21H10.2C9.8134 21 9.5 20.6866 9.5 20.3V14.7ZM10.5 15V20H19.5V15H10.5Z" fill="black"/>
</svg>
