<svg width="25" height="24" viewBox="0 0 25 24" fill="none" xmlns="http://www.w3.org/2000/svg">
<path d="M12.5 14.95C12.7761 14.95 13 15.1739 13 15.45V18.45C13 18.7261 12.7761 18.95 12.5 18.95C12.2239 18.95 12 18.7261 12 18.45V15.45C12 15.1739 12.2239 14.95 12.5 14.95Z" fill="black"/>
<path fill-rule="evenodd" clip-rule="evenodd" d="M12 2C9.51472 2 7.5 4.01472 7.5 6.5V9H6C5.17157 9 4.5 9.67157 4.5 10.5V18.5C4.5 20.433 6.067 22 8 22H17C18.933 22 20.5 20.433 20.5 18.5V10.5C20.5 9.67157 19.8284 9 19 9H17.5V6.5C17.5 4.01472 15.4853 2 13 2H12ZM12 3C10.067 3 8.5 4.567 8.5 6.5V9H16.5V6.5C16.5 4.567 14.933 3 13 3H12ZM19.5 10.5C19.5 10.2239 19.2761 10 19 10H6C5.72386 10 5.5 10.2239 5.5 10.5V18.5C5.5 19.8807 6.61929 21 8 21H17C18.3807 21 19.5 19.8807 19.5 18.5V10.5Z" fill="black"/>
</svg>
