<svg width="25" height="24" viewBox="0 0 25 24" fill="none" xmlns="http://www.w3.org/2000/svg">
<path d="M13 8.5C13 8.22386 12.7761 8 12.5 8C12.2239 8 12 8.22386 12 8.5V9C12 9.27614 12.2239 9.5 12.5 9.5C12.7761 9.5 13 9.27614 13 9V8.5Z" fill="black"/>
<path fill-rule="evenodd" clip-rule="evenodd" d="M12.37 2C11.7472 2 11.1464 2.23837 10.7007 2.66816C10.2543 3.09853 10 3.68622 10 4.30303V5.5H9C8.72386 5.5 8.5 5.72386 8.5 6V9.5C8.5 10.8807 9.61929 12 11 12H14C15.3807 12 16.5 10.8807 16.5 9.5V6C16.5 5.72386 16.2761 5.5 16 5.5H15V4.30303C15 3.68622 14.7457 3.09853 14.2993 2.66816C13.8536 2.23837 13.2528 2 12.63 2H12.37ZM11 11C10.1716 11 9.5 10.3284 9.5 9.5V6.5H15.5V9.5C15.5 10.3284 14.8284 11 14 11H11ZM11.3948 3.38804C11.1397 3.63392 11 3.96345 11 4.30303V5.5H14V4.30303C14 3.96345 13.8603 3.63392 13.6052 3.38804C13.3496 3.14155 12.9991 3 12.63 3H12.37C12.0009 3 11.6504 3.14155 11.3948 3.38804Z" fill="black"/>
<path d="M2.5 11.4997C2.5 11.2237 2.72363 11 3 11H7C7.27614 11 7.5 10.7761 7.5 10.5C7.5 10.2239 7.27614 10 7 10H3C2.1718 10 1.5 10.671 1.5 11.4997V18.5025C1.5 19.3325 2.17318 20 3 20H22C22.8284 20 23.5 19.3284 23.5 18.5V11.5C23.5 10.6716 22.8284 10 22 10H18C17.7239 10 17.5 10.2239 17.5 10.5C17.5 10.7761 17.7239 11 18 11H22C22.2761 11 22.5 11.2239 22.5 11.5V18.5C22.5 18.7761 22.2761 19 22 19H3C2.72225 19 2.5 18.777 2.5 18.5025V11.4997Z" fill="black"/>
<path d="M7.5 15C7.5 15.5523 7.05228 16 6.5 16C5.94772 16 5.5 15.5523 5.5 15C5.5 14.4477 5.94772 14 6.5 14C7.05228 14 7.5 14.4477 7.5 15Z" fill="black"/>
<path d="M10.5 16C11.0523 16 11.5 15.5523 11.5 15C11.5 14.4477 11.0523 14 10.5 14C9.94771 14 9.5 14.4477 9.5 15C9.5 15.5523 9.94771 16 10.5 16Z" fill="black"/>
<path d="M15.5 15C15.5 15.5523 15.0523 16 14.5 16C13.9477 16 13.5 15.5523 13.5 15C13.5 14.4477 13.9477 14 14.5 14C15.0523 14 15.5 14.4477 15.5 15Z" fill="black"/>
<path d="M18.5 16C19.0523 16 19.5 15.5523 19.5 15C19.5 14.4477 19.0523 14 18.5 14C17.9477 14 17.5 14.4477 17.5 15C17.5 15.5523 17.9477 16 18.5 16Z" fill="black"/>
</svg>
