<svg width="25" height="24" viewBox="0 0 25 24" fill="none" xmlns="http://www.w3.org/2000/svg">
<path d="M20.1464 3.49654C20.3417 3.30128 20.6583 3.30128 20.8536 3.49654C21.0488 3.69181 21.0488 4.00839 20.8536 4.20365L3.85355 21.2037C3.65829 21.3989 3.34171 21.3989 3.14645 21.2037C2.95118 21.0084 2.95118 20.6918 3.14645 20.4965L20.1464 3.49654Z" fill="black"/>
<path d="M8.5 11.8501C8.5 12.4044 8.61274 12.9323 8.81653 13.4122L8.0659 14.1629C7.70441 13.4713 7.5 12.6845 7.5 11.8501C7.5 10.5875 7.96796 9.43428 8.7399 8.5543C6.46703 9.46074 4.94155 11.053 3.86083 12.1811L3.70005 12.3487C3.80654 12.4583 3.91366 12.5694 4.02179 12.6817C4.8715 13.5634 5.78392 14.5102 6.95046 15.2783L6.22985 15.9989C5.03534 15.1831 4.10936 14.2186 3.29326 13.3686C3.07055 13.1367 2.85602 12.9132 2.64645 12.7037C2.45118 12.5084 2.45118 12.1918 2.64645 11.9965C2.7927 11.8503 2.95352 11.6816 3.13005 11.4963C4.71269 9.83585 7.55844 6.8501 12.5 6.8501C13.4355 6.8501 14.2959 6.95711 15.0869 7.14189L14.0621 8.16663C13.5822 7.96283 13.0543 7.8501 12.5 7.8501C10.2909 7.8501 8.5 9.64096 8.5 11.8501Z" fill="black"/>
<path d="M21.87 11.4963C21.0233 10.608 19.8151 9.34038 18.1179 8.35354L17.3851 9.08635C19.0527 10.0032 20.2474 11.2502 21.1392 12.1811L21.3 12.3487C21.1935 12.4583 21.0863 12.5694 20.9782 12.6817C19.1197 14.6102 16.9612 16.8501 12.5 16.8501C15.2614 16.8501 17.5 14.6115 17.5 11.8501C17.5 11.0156 17.2956 10.2289 16.9341 9.53731L16.1835 10.2879C16.3873 10.7679 16.5 11.2958 16.5 11.8501C16.5 14.0592 14.7091 15.8501 12.5 15.8501C11.9457 15.8501 11.4178 15.7374 10.9379 15.5336L10.1872 16.2842C10.8788 16.6457 11.6655 16.8501 12.5 16.8501C11.5357 16.8501 10.6789 16.7454 9.90953 16.5619L9.09509 17.3763C10.0813 17.6729 11.2046 17.8501 12.5 17.8501C17.404 17.8501 19.8421 15.3107 21.7067 13.3686C21.9295 13.1367 22.144 12.9132 22.3536 12.7037C22.5488 12.5084 22.5488 12.1918 22.3536 11.9965C22.2073 11.8503 22.0465 11.6816 21.87 11.4963Z" fill="black"/>
<path d="M14.9752 11.4963C14.9915 11.6119 15 11.73 15 11.8501C15 13.2308 13.8807 14.3501 12.5 14.3501C12.3799 14.3501 12.2618 14.3416 12.1462 14.3253L14.9752 11.4963Z" fill="black"/>
</svg>
