<svg width="25" height="24" viewBox="0 0 25 24" fill="none" xmlns="http://www.w3.org/2000/svg">
<path d="M14.4182 10.3967C14.2647 10.7516 13.9114 11 13.5 11C12.9477 11 12.5 10.5523 12.5 10C12.5 9.81927 12.5479 9.64973 12.6318 9.50342C12.5882 9.50115 12.5442 9.5 12.5 9.5C11.1193 9.5 10 10.6193 10 12C10 13.3807 11.1193 14.5 12.5 14.5C13.8807 14.5 15 13.3807 15 12C15 11.3898 14.7814 10.8307 14.4182 10.3967Z" fill="black"/>
<path fill-rule="evenodd" clip-rule="evenodd" d="M12.5 7C7.55844 7 4.71269 9.98575 3.13005 11.6462C2.95352 11.8315 2.7927 12.0002 2.64645 12.1464C2.45118 12.3417 2.45118 12.6583 2.64645 12.8536C2.85602 13.0631 3.07055 13.2866 3.29326 13.5185C5.15786 15.4606 7.59604 18 12.5 18C17.404 18 19.8421 15.4606 21.7067 13.5185C21.9295 13.2866 22.144 13.0631 22.3536 12.8536C22.5488 12.6583 22.5488 12.3417 22.3536 12.1464C22.2073 12.0002 22.0465 11.8315 21.87 11.6462C20.2873 9.98575 17.4416 7 12.5 7ZM3.70005 12.4986C3.80654 12.6082 3.91366 12.7193 4.02179 12.8316C5.88027 14.7601 8.03875 17 12.5 17C16.9612 17 19.1197 14.7601 20.9782 12.8316C21.0863 12.7193 21.1935 12.6082 21.3 12.4986L21.1392 12.331C20.0585 11.2029 18.533 9.61064 16.2601 8.70421C17.032 9.58418 17.5 10.7374 17.5 12C17.5 14.7614 15.2614 17 12.5 17C9.73858 17 7.5 14.7614 7.5 12C7.5 10.7374 7.96796 9.58418 8.73989 8.70421C6.46702 9.61065 4.94155 11.2029 3.86083 12.331L3.70005 12.4986ZM12.5 8C10.2909 8 8.5 9.79086 8.5 12C8.5 14.2091 10.2909 16 12.5 16C14.7091 16 16.5 14.2091 16.5 12C16.5 9.79086 14.7091 8 12.5 8Z" fill="black"/>
</svg>
