<svg width="25" height="24" viewBox="0 0 25 24" fill="none" xmlns="http://www.w3.org/2000/svg">
<path d="M7.62493 5.64043C6.17233 6.80251 4.97611 8.68521 4.49327 11.5822C4.44788 11.8546 4.19026 12.0386 3.91788 11.9932C3.64549 11.9478 3.46148 11.6902 3.50688 11.4178C4.02405 8.31479 5.32783 6.19749 7.00023 4.85957C8.6667 3.52639 10.6578 3 12.5001 3C15.4938 3 18.9695 4.86723 20.264 7.79799C20.3756 8.05059 20.2612 8.3458 20.0086 8.45737C19.756 8.56894 19.4608 8.45462 19.3493 8.20201C18.2408 5.69245 15.1665 4 12.5001 4C10.8423 4 9.08346 4.47361 7.62493 5.64043Z" fill="black"/>
<path d="M9.70532 9.34069C8.98356 10.2568 8.50008 11.6972 8.50008 13.75C8.50008 15.5453 8.98016 17.367 10.022 18.7272C11.0499 20.0692 12.6516 21 15.0001 21C15.2762 21 15.5001 21.2239 15.5001 21.5C15.5001 21.7761 15.2762 22 15.0001 22C12.3486 22 10.4502 20.9308 9.22814 19.3353C8.01999 17.758 7.50008 15.7047 7.50008 13.75C7.50008 11.5528 8.01659 9.86823 8.91983 8.72181C9.83238 7.56359 11.1055 7 12.5001 7C15.3948 7 17.5001 9.90973 17.5001 13.5C17.5001 13.7761 17.2762 14 17.0001 14C16.7239 14 16.5001 13.7761 16.5001 13.5C16.5001 10.1903 14.6053 8 12.5001 8C11.3946 8 10.4178 8.43641 9.70532 9.34069Z" fill="black"/>
<path d="M11.9898 12.1642C12.2659 12.1585 12.4943 12.3777 12.5 12.6538C12.5092 13.1052 12.606 14.4213 13.3228 15.5021C13.6741 16.0319 14.1724 16.5028 14.8904 16.796C15.6111 17.0904 16.5891 17.2204 17.9207 17.0063C18.1934 16.9625 18.4499 17.1479 18.4937 17.4206C18.5376 17.6932 18.3521 17.9498 18.0794 17.9936C16.6092 18.23 15.4388 18.1002 14.5123 17.7218C13.5829 17.3422 12.9352 16.7271 12.4894 16.0548C11.6119 14.7316 11.5106 13.1792 11.5002 12.6743C11.4945 12.3982 11.7137 12.1698 11.9898 12.1642Z" fill="black"/>
<path d="M8.28735 7.95022C7.20113 9.21864 6.50008 11.0964 6.50008 13.5L6.50005 13.5055C6.49996 13.5134 6.49969 13.5213 6.49923 13.5291C6.40354 15.1684 6.73081 16.8048 7.44963 18.2811C7.57051 18.5294 7.46724 18.8287 7.21896 18.9495C6.97068 19.0704 6.67142 18.9672 6.55053 18.7189C5.75881 17.0928 5.39719 15.291 5.50009 13.4855C5.50292 10.8957 6.2614 8.77859 7.52781 7.29978C8.79943 5.81486 10.5627 5 12.5001 5C14.915 5 16.6898 6.0458 17.844 7.65623C18.9824 9.24463 19.4984 11.352 19.5001 13.4899C19.5127 13.821 19.4571 14.1512 19.3368 14.46C19.2152 14.7723 19.03 15.0559 18.793 15.2929C18.556 15.5299 18.2724 15.7151 17.9601 15.8367C17.6478 15.9584 17.3136 16.0138 16.9788 15.9995L16.9681 15.999C16.2742 15.9545 15.6258 15.638 15.1639 15.1183C14.7269 14.6267 14.5001 14.1482 14.5001 13.5C14.5001 12.3211 14.2283 11.4247 13.8388 10.8395C13.4576 10.2667 12.9803 10.007 12.5093 10.0001C12.2202 10.0257 11.9387 10.1075 11.6808 10.241C11.4169 10.3776 11.183 10.5655 10.9927 10.7938C10.8024 11.0222 10.6597 11.2862 10.573 11.5704C10.4862 11.8546 10.4571 12.1534 10.4875 12.449C10.4892 12.4659 10.4901 12.483 10.4901 12.5C10.4901 12.9926 10.4942 14.6315 11.3053 16.1379C11.7062 16.8824 12.3024 17.5907 13.1964 18.1157C14.0911 18.6412 15.3128 19 16.9901 19C17.2662 19 17.4901 19.2239 17.4901 19.5C17.4901 19.7761 17.2662 20 16.9901 20C15.1673 20 13.764 19.6088 12.69 18.978C11.6152 18.3468 10.899 17.4926 10.4248 16.612C9.50052 14.8954 9.49018 13.065 9.49008 12.5245C9.45054 12.105 9.49348 11.6817 9.61655 11.2785C9.74222 10.8668 9.94891 10.4843 10.2245 10.1537C10.5 9.82299 10.8389 9.55072 11.2212 9.35287C11.6035 9.15503 12.0215 9.03558 12.4506 9.00156C12.4637 9.00052 12.4769 9 12.4901 9C13.3729 9 14.1427 9.4911 14.6713 10.2855C15.1969 11.0753 15.5001 12.1789 15.5001 13.5C15.5001 13.8518 15.5993 14.103 15.9113 14.4539C16.197 14.7754 16.5976 14.9717 17.0267 15.0007C17.2214 15.0082 17.4156 14.9756 17.5972 14.9049C17.7804 14.8335 17.9469 14.7249 18.0859 14.5858C18.225 14.4468 18.3336 14.2803 18.405 14.0971C18.4764 13.9138 18.5089 13.7178 18.5005 13.5213C18.5002 13.5142 18.5001 13.5071 18.5001 13.5C18.5001 11.5013 18.016 9.61286 17.0312 8.23877C16.0604 6.8842 14.5851 6 12.5001 6C10.8574 6 9.37073 6.68514 8.28735 7.95022Z" fill="black"/>
</svg>
