<svg width="25" height="24" viewBox="0 0 25 24" fill="none" xmlns="http://www.w3.org/2000/svg">
<path d="M5 2C3.61929 2 2.5 3.11929 2.5 4.5V7.5C2.5 7.77614 2.72386 8 3 8C3.27614 8 3.5 7.77614 3.5 7.5V4.5C3.5 3.67157 4.17157 3 5 3H8C8.27614 3 8.5 2.77614 8.5 2.5C8.5 2.22386 8.27614 2 8 2H5Z" fill="black"/>
<path d="M16.5 2.5C16.5 2.22386 16.7239 2 17 2H20C21.3807 2 22.5 3.11929 22.5 4.5V7.5C22.5 7.77614 22.2761 8 22 8C21.7239 8 21.5 7.77614 21.5 7.5V4.5C21.5 3.67157 20.8284 3 20 3H17C16.7239 3 16.5 2.77614 16.5 2.5Z" fill="black"/>
<path d="M8.5 7.5C8.5 7.22386 8.27614 7 8 7C7.72386 7 7.5 7.22386 7.5 7.5V9.5C7.5 9.77614 7.72386 10 8 10C8.27614 10 8.5 9.77614 8.5 9.5V7.5Z" fill="black"/>
<path d="M9.5 15.5C9.5 15.2239 9.27614 15 9 15C8.72386 15 8.5 15.2239 8.5 15.5C8.5 16.2561 9.05221 16.8894 9.74275 17.3037C10.455 17.7311 11.4212 18 12.5 18C13.5788 18 14.545 17.7311 15.2572 17.3037C15.9478 16.8894 16.5 16.2561 16.5 15.5C16.5 15.2239 16.2761 15 16 15C15.7239 15 15.5 15.2239 15.5 15.5C15.5 15.7439 15.3022 16.1106 14.7428 16.4463C14.205 16.7689 13.4212 17 12.5 17C11.5788 17 10.795 16.7689 10.2572 16.4463C9.69779 16.1106 9.5 15.7439 9.5 15.5Z" fill="black"/>
<path d="M17 7C17.2761 7 17.5 7.22386 17.5 7.5V9.5C17.5 9.77614 17.2761 10 17 10C16.7239 10 16.5 9.77614 16.5 9.5V7.5C16.5 7.22386 16.7239 7 17 7Z" fill="black"/>
<path d="M13.5 9.5C13.5 9.22386 13.2761 9 13 9C12.7239 9 12.5 9.22386 12.5 9.5V12H12C11.7239 12 11.5 12.2239 11.5 12.5C11.5 12.7761 11.7239 13 12 13H12.5C13.0523 13 13.5 12.5523 13.5 12V9.5Z" fill="black"/>
<path d="M22 16C22.2761 16 22.5 16.2239 22.5 16.5V19.5C22.5 20.8807 21.3807 22 20 22H17C16.7239 22 16.5 21.7761 16.5 21.5C16.5 21.2239 16.7239 21 17 21H20C20.8284 21 21.5 20.3284 21.5 19.5V16.5C21.5 16.2239 21.7239 16 22 16Z" fill="black"/>
<path d="M3.5 16.5C3.5 16.2239 3.27614 16 3 16C2.72386 16 2.5 16.2239 2.5 16.5V19.5C2.5 20.8807 3.61929 22 5 22H8C8.27614 22 8.5 21.7761 8.5 21.5C8.5 21.2239 8.27614 21 8 21H5C4.17157 21 3.5 20.3284 3.5 19.5V16.5Z" fill="black"/>
</svg>
