<svg width="25" height="24" viewBox="0 0 25 24" fill="none" xmlns="http://www.w3.org/2000/svg">
<path fill-rule="evenodd" clip-rule="evenodd" d="M12.4996 19.2201C10.405 18.4763 8.62513 17.0432 7.45149 15.1555C6.27785 13.2679 5.78003 11.0376 6.0396 8.83008L6.43962 4.83008C8.44653 4.53899 10.4717 4.392 12.4996 4.39014C14.5275 4.392 16.5527 4.53899 18.5596 4.83008L18.9596 8.90015C19.1828 11.0936 18.6689 13.2989 17.499 15.1677C16.3292 17.0366 14.5701 18.4624 12.4996 19.2201ZM12.4996 7.3501C12.7757 7.3501 12.9996 7.57396 12.9996 7.8501V10.3501H15.4996C15.7757 10.3501 15.9996 10.574 15.9996 10.8501C15.9996 11.1262 15.7757 11.3501 15.4996 11.3501H12.9996V13.8501C12.9996 14.1262 12.7757 14.3501 12.4996 14.3501C12.2234 14.3501 11.9996 14.1262 11.9996 13.8501V11.3501H9.49956C9.22342 11.3501 8.99956 11.1262 8.99956 10.8501C8.99956 10.574 9.22342 10.3501 9.49956 10.3501H11.9996V7.8501C11.9996 7.57396 12.2234 7.3501 12.4996 7.3501Z" fill="black"/>
<path fill-rule="evenodd" clip-rule="evenodd" d="M20.49 2.57834C15.2073 1.60735 9.79185 1.60735 4.50917 2.57834C4.28989 2.61865 4.12379 2.79926 4.10196 3.02115L3.55221 8.60884C3.24052 11.4942 3.95079 14.3975 5.55933 16.8132C7.16833 19.2295 9.57412 21.0047 12.3575 21.8295C12.4502 21.857 12.5489 21.857 12.6416 21.8295C15.425 21.0047 17.8308 19.2295 19.4398 16.8132C21.0484 14.3975 21.7586 11.4942 21.4469 8.6088L21.4467 8.60639L20.8972 3.02115C20.8753 2.79926 20.7092 2.61865 20.49 2.57834ZM4.54717 8.70915L5.06012 3.49549C9.98241 2.63497 15.0167 2.63497 19.939 3.49549L20.4519 8.70915L20.4525 8.71399C20.7396 11.3674 20.0867 14.0374 18.6075 16.2589C17.1557 18.4392 14.9983 20.0517 12.4996 20.8276C10.0009 20.0517 7.84348 18.4392 6.39168 16.2589C4.91244 14.0374 4.25951 11.3674 4.54667 8.71399L4.54717 8.70915Z" fill="black"/>
</svg>
