<svg width="25" height="24" viewBox="0 0 25 24" fill="none" xmlns="http://www.w3.org/2000/svg">
<path d="M7 6C6.72386 6 6.5 6.22386 6.5 6.5V7.5C6.5 7.77614 6.72386 8 7 8H8C8.27614 8 8.5 7.77614 8.5 7.5V6.5C8.5 6.22386 8.27614 6 8 6H7Z" fill="black"/>
<path fill-rule="evenodd" clip-rule="evenodd" d="M4 3C3.72386 3 3.5 3.22386 3.5 3.5V10.5C3.5 10.7761 3.72386 11 4 11H11C11.2761 11 11.5 10.7761 11.5 10.5V3.5C11.5 3.22386 11.2761 3 11 3H4ZM4.5 10V4H10.5V10H4.5Z" fill="black"/>
<path fill-rule="evenodd" clip-rule="evenodd" d="M5.5 15.5C5.5 15.2239 5.72386 15 6 15H9C9.27614 15 9.5 15.2239 9.5 15.5V18.5C9.5 18.7761 9.27614 19 9 19H6C5.72386 19 5.5 18.7761 5.5 18.5V15.5ZM6.5 16V18H8.5V16H6.5Z" fill="black"/>
<path fill-rule="evenodd" clip-rule="evenodd" d="M4 13C3.72386 13 3.5 13.2239 3.5 13.5V20.5C3.5 20.7761 3.72386 21 4 21H11C11.2761 21 11.5 20.7761 11.5 20.5V13.5C11.5 13.2239 11.2761 13 11 13H4ZM4.5 20V14H10.5V20H4.5Z" fill="black"/>
<path d="M13.5 13.5C13.5 13.2239 13.7239 13 14 13H21C21.2761 13 21.5 13.2239 21.5 13.5C21.5 13.7761 21.2761 14 21 14H14.5V20.5C14.5 20.7761 14.2761 21 14 21C13.7239 21 13.5 20.7761 13.5 20.5V13.5Z" fill="black"/>
<path d="M16 15C15.7239 15 15.5 15.2239 15.5 15.5V16.5C15.5 16.7761 15.7239 17 16 17C16.2761 17 16.5 16.7761 16.5 16.5V16H18C18.2761 16 18.5 15.7761 18.5 15.5C18.5 15.2239 18.2761 15 18 15H16Z" fill="black"/>
<path d="M21 15C21.2761 15 21.5 15.2239 21.5 15.5V17.5C21.5 17.7761 21.2761 18 21 18H19C18.7239 18 18.5 17.7761 18.5 17.5C18.5 17.2239 18.7239 17 19 17H20.5V15.5C20.5 15.2239 20.7239 15 21 15Z" fill="black"/>
<path fill-rule="evenodd" clip-rule="evenodd" d="M15.5 5.5C15.5 5.22386 15.7239 5 16 5H19C19.2761 5 19.5 5.22386 19.5 5.5V8.5C19.5 8.77614 19.2761 9 19 9H16C15.7239 9 15.5 8.77614 15.5 8.5V5.5ZM16.5 6V8H18.5V6H16.5Z" fill="black"/>
<path fill-rule="evenodd" clip-rule="evenodd" d="M14 3C13.7239 3 13.5 3.22386 13.5 3.5V10.5C13.5 10.7761 13.7239 11 14 11H21C21.2761 11 21.5 10.7761 21.5 10.5V3.5C21.5 3.22386 21.2761 3 21 3H14ZM14.5 10V4H20.5V10H14.5Z" fill="black"/>
<path d="M16.5 18.5C16.5 18.2239 16.2761 18 16 18C15.7239 18 15.5 18.2239 15.5 18.5V20.5C15.5 20.7761 15.7239 21 16 21H21C21.2761 21 21.5 20.7761 21.5 20.5V19.5C21.5 19.2239 21.2761 19 21 19C20.7239 19 20.5 19.2239 20.5 19.5V20H16.5V18.5Z" fill="black"/>
</svg>
