<svg width="25" height="24" viewBox="0 0 25 24" fill="none" xmlns="http://www.w3.org/2000/svg">
<path d="M5.5 11.8501C5.5 12.4024 5.05228 12.8501 4.5 12.8501C3.94772 12.8501 3.5 12.4024 3.5 11.8501C3.5 11.2978 3.94772 10.8501 4.5 10.8501C5.05228 10.8501 5.5 11.2978 5.5 11.8501Z" fill="black"/>
<path d="M9.5 11.8501C9.5 12.4024 9.05228 12.8501 8.5 12.8501C7.94772 12.8501 7.5 12.4024 7.5 11.8501C7.5 11.2978 7.94772 10.8501 8.5 10.8501C9.05228 10.8501 9.5 11.2978 9.5 11.8501Z" fill="black"/>
<path d="M12.5 12.8501C13.0523 12.8501 13.5 12.4024 13.5 11.8501C13.5 11.2978 13.0523 10.8501 12.5 10.8501C11.9477 10.8501 11.5 11.2978 11.5 11.8501C11.5 12.4024 11.9477 12.8501 12.5 12.8501Z" fill="black"/>
<path d="M17.5 11.8501C17.5 12.4024 17.0523 12.8501 16.5 12.8501C15.9477 12.8501 15.5 12.4024 15.5 11.8501C15.5 11.2978 15.9477 10.8501 16.5 10.8501C17.0523 10.8501 17.5 11.2978 17.5 11.8501Z" fill="black"/>
<path d="M20.5 12.8501C21.0523 12.8501 21.5 12.4024 21.5 11.8501C21.5 11.2978 21.0523 10.8501 20.5 10.8501C19.9477 10.8501 19.5 11.2978 19.5 11.8501C19.5 12.4024 19.9477 12.8501 20.5 12.8501Z" fill="black"/>
</svg>
