<svg width="25" height="24" viewBox="0 0 25 24" fill="none" xmlns="http://www.w3.org/2000/svg">
<path fill-rule="evenodd" clip-rule="evenodd" d="M17.4094 5.5589C17.8632 6.01274 18.1182 6.62827 18.1182 7.2701V10.8501H21.6182C21.7508 10.8501 21.8779 10.9028 21.9717 10.9965C22.0655 11.0903 22.1182 11.2175 22.1182 11.3501C22.1182 11.4827 22.0655 11.6099 21.9717 11.7037C21.8779 11.7974 21.7508 11.8501 21.6182 11.8501H2.61816C2.48556 11.8501 2.35838 11.7974 2.26461 11.7037C2.17084 11.6099 2.11816 11.4827 2.11816 11.3501C2.11816 11.2175 2.17084 11.0903 2.26461 10.9965C2.35838 10.9028 2.48556 10.8501 2.61816 10.8501H6.11816V7.2701C6.11816 6.62827 6.37313 6.01274 6.82697 5.5589C7.2808 5.10506 7.89634 4.8501 8.53816 4.8501H15.6982C16.34 4.8501 16.9555 5.10506 17.4094 5.5589ZM7.22355 6.72512C7.15266 6.898 7.11683 7.08325 7.11816 7.2701V10.8501H17.1182V7.2701C17.1195 7.08325 17.0837 6.898 17.0128 6.72512C16.9419 6.55223 16.8373 6.39517 16.7052 6.26304C16.5731 6.13092 16.416 6.02637 16.2431 5.95548C16.0703 5.88459 15.885 5.84877 15.6982 5.8501H8.53816C8.35132 5.84877 8.16607 5.88459 7.99318 5.95548C7.8203 6.02637 7.66323 6.13092 7.53111 6.26304C7.39898 6.39517 7.29444 6.55223 7.22355 6.72512Z" fill="black"/>
<path d="M8.11816 14.8501C7.71816 14.8501 6.11816 14.8501 6.11816 15.3501C6.11816 16.1501 7.11816 16.8501 8.11816 16.8501C9.11816 16.8501 10.1182 16.6501 10.1182 15.8501C10.1182 15.0501 9.11816 14.8501 8.11816 14.8501Z" fill="black"/>
<path d="M14.1182 15.8501C14.1182 16.8001 15.1182 16.8501 16.1182 16.8501C17.1182 16.8501 18.1182 16.1501 18.1182 15.3501C18.1182 14.8501 16.5182 14.8501 16.1182 14.8501C15.1182 14.8501 14.1182 14.9001 14.1182 15.8501Z" fill="black"/>
<path fill-rule="evenodd" clip-rule="evenodd" d="M12.1182 17.3601C12.8891 18.1806 13.9214 18.7074 15.0382 18.8501C18.4882 18.8501 19.7082 17.7501 20.8482 15.5901C20.9927 15.3704 21.0739 15.115 21.0827 14.8521C21.0915 14.5893 21.0277 14.329 20.8982 14.1001C20.1982 12.9201 17.6282 12.8501 17.1182 12.8501H7.11816C6.56816 12.8501 3.99816 12.9201 3.34816 14.1001C3.21122 14.3245 3.13877 14.5822 3.13877 14.8451C3.13877 15.108 3.21122 15.3657 3.34816 15.5901C4.52816 17.7501 5.74816 18.8501 9.19816 18.8501C10.3149 18.7074 11.3473 18.1806 12.1182 17.3601ZM12.6382 16.4801C12.5473 16.3987 12.4302 16.3526 12.3082 16.3501H11.9282C11.8307 16.3673 11.7404 16.4125 11.6682 16.4801C11.0338 17.1799 10.1933 17.6597 9.26816 17.8501C6.26816 17.8501 5.26816 17.0101 4.26816 15.1101C4.13056 14.8511 4.16986 14.7165 4.18983 14.6482C4.19453 14.6321 4.19816 14.6196 4.19816 14.6101C4.49816 14.1001 6.11816 13.8501 7.11816 13.8501H17.1182C18.1182 13.8501 19.7782 14.1001 20.1182 14.6101C20.1482 14.6601 20.2182 14.7901 20.0482 15.1101C18.9782 17.0101 18.0482 17.8501 15.0482 17.8501C14.1187 17.6637 13.2738 17.1834 12.6382 16.4801Z" fill="black"/>
</svg>
