<svg width="25" height="24" viewBox="0 0 25 24" fill="none" xmlns="http://www.w3.org/2000/svg">
<path d="M13.0191 12.5C13.0191 12.2239 12.7952 12 12.5191 12C12.243 12 12.0191 12.2239 12.0191 12.5V13C12.0191 13.2761 12.243 13.5 12.5191 13.5C12.7952 13.5 13.0191 13.2761 13.0191 13V12.5Z" fill="black"/>
<path fill-rule="evenodd" clip-rule="evenodd" d="M10.7198 6.66816C11.1655 6.23837 11.7663 6 12.3891 6H12.6491C13.2719 6 13.8727 6.23837 14.3184 6.66816C14.7648 7.09853 15.0191 7.68622 15.0191 8.30303V9.5H16.0191C16.2952 9.5 16.5191 9.72386 16.5191 10V13.5C16.5191 14.8807 15.3998 16 14.0191 16H11.0191C9.63839 16 8.5191 14.8807 8.5191 13.5V10C8.5191 9.72386 8.74296 9.5 9.0191 9.5H10.0191V8.30303C10.0191 7.68622 10.2734 7.09853 10.7198 6.66816ZM13.6243 7.38804C13.8794 7.63392 14.0191 7.96345 14.0191 8.30303V9.5H11.0191V8.30303C11.0191 7.96345 11.1588 7.63392 11.4139 7.38804C11.6695 7.14155 12.02 7 12.3891 7H12.6491C13.0182 7 13.3687 7.14155 13.6243 7.38804ZM11.0191 15C10.1907 15 9.5191 14.3284 9.5191 13.5V10.5H15.5191V13.5C15.5191 14.3284 14.8475 15 14.0191 15H11.0191Z" fill="black"/>
<path fill-rule="evenodd" clip-rule="evenodd" d="M20.5095 2.72824C15.2268 1.75725 9.81139 1.75725 4.52872 2.72824C4.30944 2.76855 4.14334 2.94916 4.12151 3.17105L3.57174 8.75865C3.26005 11.644 3.9703 14.5474 5.57885 16.963C7.18784 19.3794 9.59364 21.1546 12.377 21.9794C12.4698 22.0069 12.5684 22.0069 12.6612 21.9794C15.4446 21.1546 17.8504 19.3794 19.4594 16.963C21.0679 14.5474 21.7782 11.644 21.4665 8.75863L21.4662 8.75621L20.9167 3.17105C20.8949 2.94916 20.7288 2.76855 20.5095 2.72824ZM4.5667 8.85896L5.07966 3.64539C10.002 2.78487 15.0363 2.78487 19.9585 3.64539L20.4715 8.85897L20.472 8.8638C20.7592 11.5172 20.1063 14.1873 18.627 16.4088C17.1752 18.5891 15.0178 20.2016 12.5191 20.9775C10.0204 20.2016 7.863 18.5891 6.4112 16.4088C4.93196 14.1873 4.27904 11.5172 4.5662 8.8638L4.5667 8.85896Z" fill="black"/>
</svg>
