<svg width="25" height="24" viewBox="0 0 25 24" fill="none" xmlns="http://www.w3.org/2000/svg">
<path d="M18.0004 2.8501C17.7242 2.8501 17.5004 3.07396 17.5004 3.3501C17.5004 3.62624 17.7242 3.8501 18.0004 3.8501H21.0004C21.2765 3.8501 21.5004 3.62624 21.5004 3.3501C21.5004 3.07396 21.2765 2.8501 21.0004 2.8501H18.0004Z" fill="black"/>
<path d="M17.5004 5.3501C17.5004 5.07396 17.7242 4.8501 18.0004 4.8501H21.0004C21.2765 4.8501 21.5004 5.07396 21.5004 5.3501C21.5004 5.62624 21.2765 5.8501 21.0004 5.8501H18.0004C17.7242 5.8501 17.5004 5.62624 17.5004 5.3501Z" fill="black"/>
<path d="M10.5004 11.9814C10.5002 11.9741 10.5002 11.9668 10.5004 11.9594V7.8501C10.5004 7.29781 10.0527 6.8501 9.50037 6.8501C8.94808 6.8501 8.50037 7.29781 8.50037 7.8501V15.3501C8.50037 15.6262 8.27651 15.8501 8.00037 15.8501C7.73349 15.8501 7.51546 15.641 7.50112 15.3777C7.47647 15.3627 7.45279 15.3454 7.43037 15.3257L6.02449 14.0906C5.84684 13.9295 5.61388 13.8433 5.37418 13.8499C5.36669 13.8501 5.35919 13.8502 5.35169 13.85C5.23329 13.848 5.11568 13.8696 5.00573 13.9135C4.89578 13.9575 4.79572 14.023 4.7114 14.1061L4.70836 14.1091C4.62854 14.1865 4.56506 14.2791 4.52171 14.3815C4.47838 14.4838 4.45605 14.5939 4.45605 14.7051C4.45605 14.8163 4.47838 14.9263 4.52171 15.0287C4.56506 15.1311 4.62853 15.2237 4.70835 15.3011L4.71743 15.3099L9.31732 20C9.51068 20.1971 9.50761 20.5137 9.31047 20.7071C9.11333 20.9004 8.79676 20.8974 8.6034 20.7002L4.00747 16.0144C3.83375 15.8447 3.69552 15.6422 3.60085 15.4186C3.50526 15.1928 3.45605 14.9502 3.45605 14.7051C3.45605 14.46 3.50526 14.2174 3.60085 13.9916C3.69613 13.7666 3.83553 13.5629 4.01082 13.3926C4.18957 13.2167 4.40153 13.0782 4.63434 12.9851C4.86433 12.8931 5.11013 12.8472 5.35774 12.85C5.84983 12.8393 6.32756 13.0169 6.69307 13.3469L7.50037 14.0561V7.8501C7.50037 6.74553 8.3958 5.8501 9.50037 5.8501C10.6049 5.8501 11.5004 6.74553 11.5004 7.8501V11.5844L14.9211 12.4822C15.6396 12.6224 16.2883 13.0054 16.758 13.5674C17.2316 14.134 17.494 14.8473 17.5003 15.5858L17.5004 15.5901L17.5004 20.3501C17.5004 20.6262 17.2765 20.8501 17.0004 20.8501C16.7242 20.8501 16.5004 20.6262 16.5004 20.3501V15.5923C16.4955 15.0861 16.3155 14.5972 15.9908 14.2087C15.6656 13.8197 15.2156 13.5556 14.7174 13.4614L14.7132 13.4606C14.7032 13.4586 14.6933 13.4563 14.6834 13.4537L11.5004 12.6183V13.3501C11.5004 13.6262 11.2765 13.8501 11.0004 13.8501C10.7242 13.8501 10.5004 13.6262 10.5004 13.3501V11.9814Z" fill="black"/>
<path d="M17.5004 7.3501C17.5004 7.07396 17.7242 6.8501 18.0004 6.8501H21.0004C21.2765 6.8501 21.5004 7.07396 21.5004 7.3501C21.5004 7.62624 21.2765 7.8501 21.0004 7.8501H18.0004C17.7242 7.8501 17.5004 7.62624 17.5004 7.3501Z" fill="black"/>
<path d="M13.0004 4.8501C12.7242 4.8501 12.5004 5.07396 12.5004 5.3501C12.5004 5.62624 12.7242 5.8501 13.0004 5.8501H16.0004C16.2765 5.8501 16.5004 5.62624 16.5004 5.3501C16.5004 5.07396 16.2765 4.8501 16.0004 4.8501H13.0004Z" fill="black"/>
<path d="M12.5004 3.3501C12.5004 3.07396 12.7242 2.8501 13.0004 2.8501H16.0004C16.2765 2.8501 16.5004 3.07396 16.5004 3.3501C16.5004 3.62624 16.2765 3.8501 16.0004 3.8501H13.0004C12.7242 3.8501 12.5004 3.62624 12.5004 3.3501Z" fill="black"/>
<path d="M8.00037 2.8501C7.72422 2.8501 7.50037 3.07396 7.50037 3.3501C7.50037 3.62624 7.72422 3.8501 8.00037 3.8501H11.0004C11.2765 3.8501 11.5004 3.62624 11.5004 3.3501C11.5004 3.07396 11.2765 2.8501 11.0004 2.8501H8.00037Z" fill="black"/>
<path d="M12.5004 7.3501C12.5004 7.07396 12.7242 6.8501 13.0004 6.8501H16.0004C16.2765 6.8501 16.5004 7.07396 16.5004 7.3501C16.5004 7.62624 16.2765 7.8501 16.0004 7.8501H13.0004C12.7242 7.8501 12.5004 7.62624 12.5004 7.3501Z" fill="black"/>
</svg>
