<svg width="25" height="24" viewBox="0 0 25 24" fill="none" xmlns="http://www.w3.org/2000/svg">
<path d="M10.5 17.5C10.5 17.2239 10.7239 17 11 17H14C14.2761 17 14.5 17.2239 14.5 17.5C14.5 17.7761 14.2761 18 14 18H11C10.7239 18 10.5 17.7761 10.5 17.5Z" fill="black"/>
<path fill-rule="evenodd" clip-rule="evenodd" d="M12.33 1C13.7012 1 15.0162 1.5447 15.9857 2.51426C16.9553 3.48382 17.5 4.79883 17.5 6.17V9H19C19.8284 9 20.5 9.67157 20.5 10.5V18.5C20.5 20.433 18.933 22 17 22H8C6.067 22 4.5 20.433 4.5 18.5V10.5C4.5 9.67157 5.17157 9 6 9H16.5V6.17C16.5 5.06405 16.0607 4.00339 15.2786 3.22137C14.4967 2.43947 13.4363 2.00014 12.3305 2C11.2263 2.0025 10.1682 2.44287 9.38821 3.22452C8.60811 4.00629 8.17 5.06559 8.17 6.17C8.17 6.44614 7.94614 6.67 7.67 6.67C7.39386 6.67 7.17 6.44614 7.17 6.17C7.17 4.80075 7.71317 3.48741 8.68034 2.51817C9.64751 1.54892 10.9597 1.00293 12.3289 1L12.33 1.5V1ZM19.5 10.5C19.5 10.2239 19.2761 10 19 10H6C5.72386 10 5.5 10.2239 5.5 10.5V18.5C5.5 19.8807 6.61929 21 8 21H17C18.3807 21 19.5 19.8807 19.5 18.5V10.5Z" fill="black"/>
</svg>
