<svg width="25" height="24" viewBox="0 0 25 24" fill="none" xmlns="http://www.w3.org/2000/svg">
<path d="M16.7252 4.03261C14.8865 3.05495 12.7657 2.74517 10.7241 3.15608C8.68261 3.56699 6.84675 4.67315 5.52945 6.28604C4.35693 7.72165 3.65984 9.47964 3.52436 11.3173L2.35355 10.1464C2.15829 9.95118 1.84171 9.95118 1.64645 10.1464C1.45118 10.3417 1.45118 10.6583 1.64645 10.8536L3.64645 12.8536C3.84171 13.0488 4.15829 13.0488 4.35355 12.8536L6.35355 10.8536C6.54882 10.6583 6.54882 10.3417 6.35355 10.1464C6.15829 9.95118 5.84171 9.95118 5.64645 10.1464L4.53233 11.2606C4.67535 9.67441 5.28945 8.16075 6.30395 6.9186C7.47489 5.48493 9.10677 4.50167 10.9215 4.13642C12.7362 3.77117 14.6214 4.04653 16.2558 4.91556C17.8902 5.78459 19.1727 7.19352 19.8846 8.90222C20.5966 10.6109 20.694 12.5136 20.1602 14.2861C19.6264 16.0585 18.4944 17.591 16.9573 18.6224C15.4201 19.6537 13.5729 20.1201 11.7304 19.942C9.88788 19.764 8.16415 18.9524 6.85296 17.6458C6.82542 17.6183 6.795 17.5944 6.76243 17.5743C6.60017 17.4079 6.44503 17.2343 6.297 17.0533C6.12214 16.8396 5.80713 16.8081 5.59341 16.983C5.37968 17.1578 5.34818 17.4729 5.52305 17.6866C5.71352 17.9194 5.91467 18.1417 6.12647 18.3535C6.15565 18.3827 6.18807 18.4079 6.22288 18.4288C7.68828 19.855 9.59668 20.7405 11.6342 20.9374C13.707 21.1377 15.7851 20.6131 17.5144 19.4528C19.2437 18.2925 20.5172 16.5685 21.1177 14.5744C21.7182 12.5804 21.6086 10.4399 20.8077 8.5176C20.0067 6.59532 18.564 5.01028 16.7252 4.03261Z" fill="black"/>
<path d="M12 7C12.2761 7 12.5 7.22386 12.5 7.5V11.8729L15.2636 14.6364C15.4588 14.8317 15.4588 15.1483 15.2636 15.3436C15.0683 15.5388 14.7517 15.5388 14.5564 15.3436L11.6464 12.4336C11.5527 12.3398 11.5 12.2126 11.5 12.08V7.5C11.5 7.22386 11.7239 7 12 7Z" fill="black"/>
</svg>
