<svg width="25" height="24" viewBox="0 0 25 24" fill="none" xmlns="http://www.w3.org/2000/svg">
<path fill-rule="evenodd" clip-rule="evenodd" d="M8 3C8.27614 3 8.5 3.22386 8.5 3.5V4H12V3.5C12 3.22386 12.2239 3 12.5 3C12.7761 3 13 3.22386 13 3.5V4H16.5V3.5C16.5 3.22386 16.7239 3 17 3C17.2761 3 17.5 3.22386 17.5 3.5V4H20C20.3978 4 20.7794 4.15803 21.0607 4.43934C21.342 4.72065 21.5 5.10218 21.5 5.5V9.32812C21.5196 9.38172 21.5303 9.43961 21.5303 9.5V17.8962C21.5361 18.2977 21.4628 18.6964 21.3146 19.0696C21.1659 19.444 20.9447 19.7854 20.6637 20.0742C20.3827 20.3629 20.0475 20.5934 19.6772 20.7522C19.307 20.9111 18.909 20.9953 18.5061 21L18.5003 21L6.48867 21C5.68125 20.9812 4.91403 20.6438 4.35425 20.0616C3.79543 19.4804 3.4886 18.7023 3.50032 17.8962L3.5 5.5C3.5 5.10218 3.65804 4.72064 3.93934 4.43934C4.22064 4.15804 4.60217 4 5 4H7.5V3.5C7.5 3.22386 7.72386 3 8 3ZM20.3536 5.14645C20.4473 5.24021 20.5 5.36739 20.5 5.5V9H4.5V5.5C4.5 5.36739 4.55268 5.24021 4.64645 5.14645C4.74022 5.05268 4.86739 5 5 5H7.5V6.5C7.5 6.77614 7.72386 7 8 7C8.27614 7 8.5 6.77614 8.5 6.5V5H12V6.5C12 6.77614 12.2239 7 12.5 7C12.7761 7 13 6.77614 13 6.5V5H16.5V6.5C16.5 6.77614 16.7239 7 17 7C17.2761 7 17.5 6.77614 17.5 6.5V5H20C20.1326 5 20.2598 5.05268 20.3536 5.14645ZM5.07508 19.3685C4.69824 18.9766 4.49168 18.4516 4.50032 17.9079V10H20.5303L20.5303 17.9L20.5304 17.9078C20.5346 18.179 20.4853 18.4484 20.3852 18.7005C20.2851 18.9526 20.1362 19.1824 19.947 19.3768C19.7579 19.5712 19.5322 19.7263 19.2829 19.8333C19.0345 19.9399 18.7675 19.9965 18.4972 20H6.50648C5.96495 19.9859 5.45066 19.7591 5.07508 19.3685Z" fill="black"/>
</svg>
