<svg width="25" height="24" viewBox="0 0 25 24" fill="none" xmlns="http://www.w3.org/2000/svg">
<path d="M13 7.5C13 7.22386 12.7761 7 12.5 7C12.2239 7 12 7.22386 12 7.5V12C12 12.1326 12.0527 12.2598 12.1464 12.3536L16.6464 16.8536C16.8417 17.0488 17.1583 17.0488 17.3536 16.8536C17.5488 16.6583 17.5488 16.3417 17.3536 16.1464L13 11.7929V7.5Z" fill="black"/>
<path fill-rule="evenodd" clip-rule="evenodd" d="M12.5 2C6.97715 2 2.5 6.47715 2.5 12C2.5 17.5228 6.97715 22 12.5 22C18.0228 22 22.5 17.5228 22.5 12C22.5 6.47715 18.0228 2 12.5 2ZM3.51365 11.5C3.76403 6.92752 7.42752 3.26403 12 3.01365V3.99997C12 4.27611 12.2239 4.49997 12.5 4.49997C12.7761 4.49997 13 4.27611 13 3.99997V3.01365C17.5725 3.26403 21.236 6.92752 21.4863 11.5H20.5C20.2239 11.5 20 11.7239 20 12C20 12.2761 20.2239 12.5 20.5 12.5H21.4863C21.236 17.0725 17.5725 20.736 13 20.9863V20C13 19.7239 12.7761 19.5 12.5 19.5C12.2239 19.5 12 19.7239 12 20V20.9863C7.42752 20.736 3.76403 17.0725 3.51365 12.5H4.5C4.77614 12.5 5 12.2761 5 12C5 11.7239 4.77614 11.5 4.5 11.5H3.51365Z" fill="black"/>
</svg>
