<svg width="25" height="24" viewBox="0 0 25 24" fill="none" xmlns="http://www.w3.org/2000/svg">
<path fill-rule="evenodd" clip-rule="evenodd" d="M9.00974 3.99995L8.93256 3.99979C8.50815 3.9985 8.06942 3.99717 7.68831 4.34382C7.51138 4.50475 7.3663 4.72085 7.22153 4.97063C7.07585 5.22196 6.90615 5.55172 6.69167 5.9685L6.68516 5.98116C6.68172 5.98784 6.67843 5.99461 6.67529 6.00145L4.61529 10.4914C4.60642 10.5108 4.59878 10.5307 4.59244 10.551C4.47196 10.9371 4.44111 11.3456 4.50224 11.7454C4.56336 12.1452 4.71486 12.5258 4.94521 12.8583C5.17556 13.1908 5.47869 13.4663 5.83155 13.664C6.18441 13.8617 6.5777 13.9763 6.98152 13.9992C6.99092 13.9997 7.00033 13.9999 7.00974 13.9999H11.5097V17.4899C11.4972 17.821 11.5527 18.1512 11.673 18.46C11.7946 18.7723 11.9798 19.0559 12.2168 19.2929C12.4538 19.5299 12.7374 19.7151 13.0497 19.8367C13.362 19.9583 13.6962 20.0138 14.031 19.9995C14.2382 19.9907 14.4185 19.8548 14.4841 19.6581L16.4841 13.6581C16.5011 13.6071 16.5097 13.5537 16.5097 13.4999V4.49995C16.5097 4.22381 16.2859 3.99995 16.0097 3.99995H9.00974ZM5.5384 10.8775L7.57949 6.42871C7.79922 6.00174 7.95613 5.69738 8.08671 5.47208C8.22069 5.24092 8.30311 5.1364 8.36118 5.08358C8.42691 5.02379 8.45782 4.99995 9.00974 4.99995H15.5097V13.4188L13.6575 18.9757C13.5741 18.9595 13.4922 18.9358 13.4126 18.9049C13.2294 18.8335 13.063 18.7248 12.9239 18.5858C12.7849 18.4467 12.6762 18.2803 12.6048 18.097C12.5334 17.9138 12.5009 17.7177 12.5093 17.5212C12.5096 17.5141 12.5097 17.507 12.5097 17.4999V13.4999C12.5097 13.2238 12.2859 12.9999 12.0097 12.9999H7.0248C6.77741 12.984 6.53669 12.9128 6.32032 12.7916C6.10011 12.6682 5.91094 12.4963 5.76719 12.2888C5.62344 12.0813 5.5289 11.8438 5.49075 11.5943C5.45411 11.3546 5.47042 11.11 5.5384 10.8775Z" fill="black"/>
<path d="M20.3633 12.8536C20.2696 12.9473 20.1424 13 20.0098 13H17.5098V4H20.0098C20.1424 4 20.2696 4.05268 20.3633 4.14645C20.4571 4.24021 20.5098 4.36739 20.5098 4.5V12.5C20.5098 12.6326 20.4571 12.7598 20.3633 12.8536Z" fill="black"/>
</svg>
