<svg width="25" height="24" viewBox="0 0 25 24" fill="none" xmlns="http://www.w3.org/2000/svg">
<path d="M12.5 2.99121C12.1363 2.99121 11.7824 3.10848 11.4908 3.32561C11.2 3.54206 10.9866 3.84623 10.8819 4.19321L9.69268 7.99043L9.68955 8.00127C9.64844 8.14376 9.5625 8.26922 9.44448 8.35904C9.32711 8.44837 9.18421 8.49772 9.03677 8.49989L5.19995 8.49979L5.18988 8.49999C4.81908 8.50746 4.46011 8.63188 4.16421 8.85549C3.86832 9.0791 3.65063 9.39046 3.54221 9.74514C3.43379 10.0998 3.44019 10.4797 3.56049 10.8305C3.67998 11.179 3.90575 11.4811 4.20593 11.6944L7.28079 13.9905L7.28236 13.9917C7.4125 14.0881 7.50941 14.2226 7.55964 14.3766C7.60987 14.5305 7.61093 14.6963 7.56267 14.8509L7.56214 14.8526L6.37443 18.7052C6.25866 19.0458 6.25262 19.4143 6.35729 19.7587C6.46284 20.106 6.67558 20.4111 6.96505 20.6301C7.25451 20.8492 7.60587 20.971 7.96881 20.9782C8.33175 20.9855 8.68766 20.8776 8.9856 20.6703C8.98777 20.6688 8.98993 20.6672 8.99207 20.6657C8.99679 20.6623 9.00144 20.6588 9.00604 20.6553L12.1038 18.257L12.1047 18.2563C12.2197 18.1686 12.3603 18.1211 12.505 18.1211C12.65 18.1211 12.7909 18.1688 12.9061 18.257L12.9079 18.2583L16.0078 20.6085L16.0192 20.6167C16.3164 20.8291 16.6738 20.9408 17.0391 20.9353C17.4044 20.9299 17.7583 20.8076 18.049 20.5864C18.3397 20.3652 18.552 20.0567 18.6547 19.7061C18.756 19.3599 18.7453 18.9905 18.6242 18.651L17.4477 14.8522C17.4008 14.7008 17.4019 14.5385 17.4508 14.3877C17.4996 14.2369 17.5938 14.1048 17.7205 14.0095L20.8033 11.6574C21.0898 11.4387 21.3023 11.1373 21.412 10.794C21.5218 10.4506 21.5234 10.0818 21.4168 9.73752C21.3101 9.3932 21.1003 9.08993 20.8157 8.8687C20.5311 8.64748 20.1855 8.51897 19.8255 8.50054C19.817 8.50011 19.8085 8.49989 19.8 8.49989H15.9618C15.8131 8.49862 15.6686 8.45002 15.5494 8.36109C15.4297 8.2719 15.3417 8.1468 15.2982 8.00407L14.1182 4.19406C14.0137 3.84673 13.8001 3.54224 13.5091 3.32561C13.2175 3.10848 12.8636 2.99121 12.5 2.99121Z" fill="black"/>
</svg>
