<svg width="25" height="24" viewBox="0 0 25 24" fill="none" xmlns="http://www.w3.org/2000/svg">
<path d="M6.06092 14.4172C5.81106 14.2996 5.51319 14.4069 5.39561 14.6567C5.27803 14.9066 5.38526 15.2045 5.63512 15.322L7.37394 16.1403C7.6238 16.2579 7.92167 16.1506 8.03925 15.9008C8.15683 15.6509 8.0496 15.3531 7.79974 15.2355L6.06092 14.4172Z" fill="black"/>
<path fill-rule="evenodd" clip-rule="evenodd" d="M12.2871 3.04759C12.4219 2.98414 12.5781 2.98414 12.7129 3.04759L21.2028 7.04283C21.2363 7.05773 21.2679 7.07624 21.2971 7.09783C21.3281 7.12072 21.3561 7.14696 21.3808 7.17591C21.4563 7.2647 21.5 7.37895 21.5 7.5V17.5C21.5 17.6937 21.3881 17.8699 21.2129 17.9524L12.7129 21.9524C12.5781 22.0159 12.4219 22.0159 12.2871 21.9524L3.7871 17.9524C3.61186 17.8699 3.5 17.6937 3.5 17.5V7.5C3.5 7.34206 3.57323 7.20123 3.68758 7.1096C3.7209 7.0829 3.75771 7.06038 3.79722 7.04283L12.2871 3.04759ZM20.5 17.1827L13 20.7121V11.8173L15.0001 10.8761V12.5C15.0001 12.6718 15.0884 12.8317 15.2338 12.9232C15.3793 13.0147 15.5615 13.0251 15.7165 12.9507L18.2165 11.7507C18.3898 11.6675 18.5001 11.4923 18.5001 11.3V9.22902L20.5 8.28789V17.1827ZM17.5001 9.6996L16.0001 10.4055V11.7054L17.5001 10.9854V9.6996ZM15.5976 9.48971L16.7639 8.94088L9.7765 5.4472C9.73985 5.42888 9.70644 5.40666 9.67651 5.3813L8.49385 5.93784L15.5976 9.48971ZM10.812 4.84693L17.9158 8.3988L19.8257 7.5L12.5 4.0526L10.812 4.84693ZM7.34194 6.47992L5.17427 7.5L12.5 10.9474L14.4457 10.0318L7.34194 6.47992ZM4.5 8.28789L12 11.8173V20.7121L4.5 17.1827V8.28789Z" fill="black"/>
</svg>
