<svg width="25" height="24" viewBox="0 0 25 24" fill="none" xmlns="http://www.w3.org/2000/svg">
<path fill-rule="evenodd" clip-rule="evenodd" d="M8.99995 3C7.38284 3 6.4087 4.2542 6.51157 5.53988C6.55345 6.06341 6.77308 6.57821 7.17711 7H6C5.17157 7 4.5 7.67157 4.5 8.5V12.5C4.5 12.7761 4.72386 13 5 13H5.5V19.5C5.5 20.3284 6.17157 21 7 21H18C18.8284 21 19.5 20.3284 19.5 19.5V13H20C20.2761 13 20.5 12.7761 20.5 12.5V8.5C20.5 7.67157 19.8284 7 19 7H17.0621C17.33 6.67554 17.5 6.25698 17.5 5.74003C17.5 5.0416 17.1556 4.48936 16.6483 4.15823C16.1526 3.83464 15.5168 3.72878 14.9022 3.85136C13.7226 4.08662 12.6778 5.12761 12.5204 7H12.4702C12.4644 6.94158 12.4575 6.87905 12.4492 6.81298C12.3993 6.41382 12.2987 5.87269 12.0931 5.32444C11.8883 4.77826 11.5692 4.19816 11.0665 3.7513C10.5535 3.29525 9.87288 3 8.99995 3ZM11.4645 7C11.4621 6.97948 11.4596 6.95847 11.4569 6.93702C11.4131 6.58618 11.3262 6.12731 11.1568 5.67556C10.9866 5.22174 10.7432 4.80184 10.4021 4.4987C10.0714 4.20475 9.62703 4 8.99995 4C7.97706 4 7.45123 4.7458 7.50838 5.46012C7.53701 5.81801 7.71327 6.18903 8.08983 6.47869C8.46951 6.77075 9.08136 7 9.99995 7H11.4645ZM15.0978 4.83205C14.4486 4.96152 13.67 5.55378 13.5242 7H14.5017L14.5163 6.99973C14.5305 6.9994 14.5529 6.9987 14.5823 6.99722C14.6413 6.99425 14.7278 6.9882 14.8324 6.97593C15.0441 6.95108 15.3176 6.90215 15.584 6.80839C15.8534 6.71356 16.0858 6.58327 16.2463 6.41373C16.396 6.25571 16.5 6.04754 16.5 5.74003C16.5 5.40069 16.3444 5.15405 16.1017 4.99561C15.8474 4.82961 15.4832 4.75519 15.0978 4.83205ZM19 8C19.2761 8 19.5 8.22386 19.5 8.5V12H13.5V8H19ZM5.5 8.5C5.5 8.22386 5.72386 8 6 8H11.5V12H5.5V8.5ZM18 20C18.2761 20 18.5 19.7761 18.5 19.5V13H13.5V20H18ZM6.5 19.5C6.5 19.7761 6.72386 20 7 20H11.5V13H6.5V19.5Z" fill="black"/>
</svg>
