<svg width="25" height="24" viewBox="0 0 25 24" fill="none" xmlns="http://www.w3.org/2000/svg">
<path fill-rule="evenodd" clip-rule="evenodd" d="M9.00014 7C9.00014 6.17157 9.67171 5.5 10.5001 5.5C11.3286 5.5 12.0001 6.17157 12.0001 7C12.0001 7.82843 11.3286 8.5 10.5001 8.5C9.67171 8.5 9.00014 7.82843 9.00014 7ZM10.5001 6.5C10.224 6.5 10.0001 6.72386 10.0001 7C10.0001 7.27614 10.224 7.5 10.5001 7.5C10.7763 7.5 11.0001 7.27614 11.0001 7C11.0001 6.72386 10.7763 6.5 10.5001 6.5Z" fill="black"/>
<path fill-rule="evenodd" clip-rule="evenodd" d="M7.50014 10.5C6.67171 10.5 6.00014 11.1716 6.00014 12C6.00014 12.8284 6.67171 13.5 7.50014 13.5C8.32856 13.5 9.00014 12.8284 9.00014 12C9.00014 11.1716 8.32856 10.5 7.50014 10.5ZM7.00014 12C7.00014 11.7239 7.22399 11.5 7.50014 11.5C7.77628 11.5 8.00014 11.7239 8.00014 12C8.00014 12.2761 7.77628 12.5 7.50014 12.5C7.22399 12.5 7.00014 12.2761 7.00014 12Z" fill="black"/>
<path fill-rule="evenodd" clip-rule="evenodd" d="M14.0001 7C14.0001 6.17157 14.6717 5.5 15.5001 5.5C16.3286 5.5 17.0001 6.17157 17.0001 7C17.0001 7.82843 16.3286 8.5 15.5001 8.5C14.6717 8.5 14.0001 7.82843 14.0001 7ZM15.5001 6.5C15.224 6.5 15.0001 6.72386 15.0001 7C15.0001 7.27614 15.224 7.5 15.5001 7.5C15.7763 7.5 16.0001 7.27614 16.0001 7C16.0001 6.72386 15.7763 6.5 15.5001 6.5Z" fill="black"/>
<path fill-rule="evenodd" clip-rule="evenodd" d="M17.5001 8.5C16.6717 8.5 16.0001 9.17157 16.0001 10C16.0001 10.8284 16.6717 11.5 17.5001 11.5C18.3286 11.5 19.0001 10.8284 19.0001 10C19.0001 9.17157 18.3286 8.5 17.5001 8.5ZM17.0001 10C17.0001 9.72386 17.224 9.5 17.5001 9.5C17.7763 9.5 18.0001 9.72386 18.0001 10C18.0001 10.2761 17.7763 10.5 17.5001 10.5C17.224 10.5 17.0001 10.2761 17.0001 10Z" fill="black"/>
<path fill-rule="evenodd" clip-rule="evenodd" d="M21.0001 11C21.0001 14.0252 19.4198 16.6812 17.0396 18.1876L18.3409 21.5H21.5001C21.7763 21.5 22.0001 21.7239 22.0001 22C22.0001 22.2761 21.7763 22.5 21.5001 22.5H18.0118C18.0094 22.5001 18.007 22.5001 18.0046 22.5001C17.9993 22.5002 17.994 22.5001 17.9887 22.5H7.01156C7.00387 22.5002 6.99617 22.5002 6.98845 22.5H3.50014C3.22399 22.5 3.00014 22.2761 3.00014 22C3.00014 21.7239 3.22399 21.5 3.50014 21.5H6.65936L7.96066 18.1876C5.58049 16.6812 4.00014 14.0252 4.00014 11C4.00014 6.30558 7.80572 2.5 12.5001 2.5C17.1946 2.5 21.0001 6.30558 21.0001 11ZM5.00014 11C5.00014 6.85786 8.358 3.5 12.5001 3.5C16.6423 3.5 20.0001 6.85786 20.0001 11C20.0001 13.6006 18.6766 15.892 16.6663 17.2374L13.8963 10.1864C13.3978 8.91766 11.6024 8.91767 11.104 10.1864L8.33397 17.2374C6.32371 15.892 5.00014 13.6006 5.00014 11ZM17.2665 21.5L16.1569 18.6754C15.0492 19.2041 13.8092 19.5 12.5001 19.5C11.191 19.5 9.95104 19.2041 8.84342 18.6754L7.73377 21.5H17.2665ZM12.9655 10.552L15.7901 17.7418C14.7968 18.2274 13.6803 18.5 12.5001 18.5C11.32 18.5 10.2035 18.2274 9.2102 17.7418L9.46718 17.0877C9.73616 17.3432 10.0998 17.5 10.5001 17.5C11.3286 17.5 12.0001 16.8284 12.0001 16C12.0001 15.1716 11.3286 14.5 10.5001 14.5L10.4837 14.5001L12.0348 10.552C12.2009 10.1291 12.7994 10.1291 12.9655 10.552ZM10.0001 16C10.0001 15.7239 10.224 15.5 10.5001 15.5C10.7763 15.5 11.0001 15.7239 11.0001 16C11.0001 16.2761 10.7763 16.5 10.5001 16.5C10.224 16.5 10.0001 16.2761 10.0001 16Z" fill="black"/>
<path d="M22.475 7.71246C22.3886 7.45018 22.106 7.3076 21.8437 7.394C21.5814 7.4804 21.4388 7.76305 21.5252 8.02533C21.8333 8.96044 22.0001 9.96026 22.0001 11.0001C22.0001 12.2523 21.7581 13.4468 21.3188 14.5402C21.2158 14.7964 21.34 15.0876 21.5963 15.1906C21.8525 15.2935 22.1437 15.1693 22.2466 14.913C22.7328 13.7031 23.0001 12.3822 23.0001 11.0001C23.0001 9.85265 22.8159 8.74727 22.475 7.71246Z" fill="black"/>
<path d="M4.65824 4.77404C4.88268 4.93491 4.93421 5.24728 4.77333 5.47171C3.91908 6.66347 3.33404 8.06043 3.10632 9.57431C3.06525 9.84738 2.81058 10.0355 2.53751 9.99438C2.26444 9.9533 2.07637 9.69864 2.11745 9.42557C2.36933 7.75104 3.01657 6.20609 3.96056 4.88913C4.12144 4.66469 4.4338 4.61316 4.65824 4.77404Z" fill="black"/>
</svg>
