<svg width="25" height="24" viewBox="0 0 25 24" fill="none" xmlns="http://www.w3.org/2000/svg">
<path d="M9 8.5C8.72386 8.5 8.5 8.72386 8.5 9C8.5 9.27614 8.72386 9.5 9 9.5H16C16.2761 9.5 16.5 9.27614 16.5 9C16.5 8.72386 16.2761 8.5 16 8.5H9Z" fill="black"/>
<path d="M9 11.5C8.72386 11.5 8.5 11.7239 8.5 12C8.5 12.2761 8.72386 12.5 9 12.5H16C16.2761 12.5 16.5 12.2761 16.5 12C16.5 11.7239 16.2761 11.5 16 11.5H9Z" fill="black"/>
<path d="M8.5 15C8.5 14.7239 8.72386 14.5 9 14.5H16C16.2761 14.5 16.5 14.7239 16.5 15C16.5 15.2761 16.2761 15.5 16 15.5H9C8.72386 15.5 8.5 15.2761 8.5 15Z" fill="black"/>
<path fill-rule="evenodd" clip-rule="evenodd" d="M5.35355 2.14646C5.21055 2.00346 4.9955 1.96068 4.80866 2.03807C4.62182 2.11547 4.5 2.29778 4.5 2.50001V21.5C4.5 21.7022 4.62182 21.8846 4.80866 21.962C4.9955 22.0393 5.21055 21.9966 5.35355 21.8536L6.5 20.7071L7.64645 21.8536C7.84171 22.0488 8.15829 22.0488 8.35355 21.8536L9.5 20.7071L10.6464 21.8536C10.8417 22.0488 11.1583 22.0488 11.3536 21.8536L12.5 20.7071L13.6464 21.8536C13.8417 22.0488 14.1583 22.0488 14.3536 21.8536L15.5 20.7071L16.6464 21.8536C16.8417 22.0488 17.1583 22.0488 17.3536 21.8536L18.5 20.7071L19.6464 21.8536C19.7894 21.9966 20.0045 22.0393 20.1913 21.962C20.3782 21.8846 20.5 21.7022 20.5 21.5V2.50001C20.5 2.29778 20.3782 2.11547 20.1913 2.03807C20.0045 1.96068 19.7894 2.00346 19.6464 2.14646L18.5 3.29291L17.3536 2.14646C17.1583 1.9512 16.8417 1.9512 16.6464 2.14646L15.5 3.29291L14.3536 2.14646C14.1583 1.9512 13.8417 1.9512 13.6464 2.14646L12.5 3.29291L11.3536 2.14646C11.1583 1.9512 10.8417 1.9512 10.6464 2.14646L9.5 3.29291L8.35355 2.14646C8.15829 1.9512 7.84171 1.9512 7.64645 2.14646L6.5 3.29291L5.35355 2.14646ZM6.14645 19.6465L5.5 20.2929V3.70712L6.14645 4.35357C6.34171 4.54883 6.65829 4.54883 6.85355 4.35357L8 3.20712L9.14645 4.35357C9.34171 4.54883 9.65829 4.54883 9.85355 4.35357L11 3.20712L12.1464 4.35357C12.3417 4.54883 12.6583 4.54883 12.8536 4.35357L14 3.20712L15.1464 4.35357C15.3417 4.54883 15.6583 4.54883 15.8536 4.35357L17 3.20712L18.1464 4.35357C18.3417 4.54883 18.6583 4.54883 18.8536 4.35357L19.5 3.70712V20.2929L18.8536 19.6465C18.6583 19.4512 18.3417 19.4512 18.1464 19.6465L17 20.7929L15.8536 19.6465C15.6583 19.4512 15.3417 19.4512 15.1464 19.6465L14 20.7929L12.8536 19.6465C12.6583 19.4512 12.3417 19.4512 12.1464 19.6465L11 20.7929L9.85355 19.6465C9.65829 19.4512 9.34171 19.4512 9.14645 19.6465L8 20.7929L6.85355 19.6465C6.65829 19.4512 6.34171 19.4512 6.14645 19.6465Z" fill="black"/>
</svg>
