<svg width="25" height="24" viewBox="0 0 25 24" fill="none" xmlns="http://www.w3.org/2000/svg">
<path fill-rule="evenodd" clip-rule="evenodd" d="M5.51157 4.53988C5.4087 3.2542 6.38284 2 7.99995 2C8.87288 2 9.55346 2.29525 10.0665 2.7513C10.5692 3.19816 10.8883 3.77826 11.0931 4.32444C11.2987 4.87269 11.3993 5.41382 11.4492 5.81298C11.4575 5.87905 11.4644 5.94158 11.4702 6H11.5204C11.6778 4.12761 12.7226 3.08662 13.9022 2.85136C14.5168 2.72878 15.1526 2.83464 15.6483 3.15823C16.1556 3.48936 16.5 4.0416 16.5 4.74003C16.5 5.25698 16.33 5.67554 16.0621 6H18C18.8284 6 19.5 6.67157 19.5 7.5V11.5C19.5 11.7761 19.2761 12 19 12H18.5V13.0277C19.4798 13.1366 20.4306 13.5667 21.1819 14.318C22.9393 16.0754 22.9393 18.9246 21.1819 20.682C19.4246 22.4393 16.5753 22.4393 14.818 20.682C14.6053 20.4693 14.4184 20.2407 14.2572 20H6C5.17157 20 4.5 19.3284 4.5 18.5V12H4C3.72386 12 3.5 11.7761 3.5 11.5V7.5C3.5 6.67157 4.17157 6 5 6H6.17711C5.77308 5.57821 5.55345 5.06341 5.51157 4.53988ZM14.818 14.318C13.5519 15.5841 13.1979 17.417 13.7562 19H12.5V12H17.5V13.0277C16.5202 13.1366 15.5693 13.5667 14.818 14.318ZM10.4569 5.93702C10.4596 5.95847 10.4621 5.97948 10.4645 6H8.99995C8.08136 6 7.46951 5.77075 7.08983 5.47869C6.71327 5.18903 6.53701 4.81801 6.50838 4.46012C6.45123 3.7458 6.97707 3 7.99995 3C8.62703 3 9.07145 3.20475 9.40215 3.4987C9.74317 3.80184 9.98661 4.22174 10.1568 4.67556C10.3262 5.12731 10.4131 5.58618 10.4569 5.93702ZM12.5242 6C12.67 4.55378 13.4486 3.96152 14.0978 3.83205C14.4832 3.75519 14.8474 3.82961 15.1017 3.99561C15.3444 4.15405 15.5 4.40069 15.5 4.74003C15.5 5.04754 15.396 5.25571 15.2463 5.41373C15.0858 5.58327 14.8534 5.71356 14.584 5.80839C14.3176 5.90215 14.0441 5.95108 13.8324 5.97593C13.7278 5.9882 13.6413 5.99425 13.5823 5.99722C13.5529 5.9987 13.5305 5.9994 13.5163 5.99973L13.5017 6H12.5242ZM18.5 7.5C18.5 7.22386 18.2761 7 18 7H12.5V11H18.5V7.5ZM5 7C4.72386 7 4.5 7.22386 4.5 7.5V11H10.5V7H5ZM6 19C5.72386 19 5.5 18.7761 5.5 18.5V12H10.5V19H6ZM15.1966 19.5963L20.0962 14.6966C18.7253 13.6688 16.7719 13.7783 15.5251 15.0251C14.2783 16.2719 14.1688 18.2253 15.1966 19.5963ZM20.8033 15.4037L15.9037 20.3034C17.2746 21.3312 19.228 21.2217 20.4748 19.9749C21.7216 18.7281 21.8311 16.7747 20.8033 15.4037Z" fill="black"/>
</svg>
