<svg width="25" height="24" viewBox="0 0 25 24" fill="none" xmlns="http://www.w3.org/2000/svg">
<path fill-rule="evenodd" clip-rule="evenodd" d="M19.0577 11.1302C19.5143 9.95221 19.6227 8.66783 19.3699 7.43001C19.1019 6.11778 18.4535 4.91348 17.5055 3.9674C16.5592 3.02307 15.3563 2.37769 14.0464 2.11143C13.0467 1.87941 12.0079 1.87201 11.0049 2.0898C9.9995 2.3081 9.05521 2.74722 8.24039 3.37535C7.42556 4.00349 6.76059 4.80493 6.2936 5.72167C5.82661 6.63841 5.56912 7.64751 5.54009 8.67593L5.54006 8.68883C5.5375 9.74689 5.78858 10.7901 6.27227 11.7312C6.75517 12.6707 7.45588 13.4809 8.31582 14.0943C8.34014 14.113 8.39786 14.1787 8.45151 14.3573C8.50393 14.5318 8.53568 14.7581 8.5509 15.0191C8.57176 15.3768 8.56058 15.7218 8.55043 16.0354C8.5451 16.1998 8.54006 16.3556 8.54006 16.5V18.5C8.54006 18.6355 8.59504 18.7652 8.69241 18.8594C9.14729 19.2995 9.66284 19.8224 10.184 20.3511L10.1867 20.3539C10.7047 20.8793 11.2281 21.4103 11.6924 21.8594C11.7857 21.9496 11.9103 22 12.0401 22H13.0401C13.1698 22 13.2945 21.9496 13.3877 21.8594C13.8517 21.4105 14.3748 20.8799 14.8924 20.3548L14.8961 20.3511C15.4173 19.8224 15.9328 19.2995 16.3877 18.8594C16.4851 18.7652 16.5401 18.6355 16.5401 18.5V16.5C16.5401 16.3682 16.5364 16.2252 16.5325 16.0743C16.524 15.7458 16.5145 15.3799 16.5401 15.0109C16.5582 14.7498 16.5928 14.5232 16.6479 14.3477C16.7047 14.1668 16.7657 14.0958 16.7962 14.0729C17.8164 13.3289 18.6014 12.3075 19.0577 11.1302ZM11.2171 3.06702C12.0776 2.88017 12.9689 2.88699 13.8265 3.08697L13.841 3.09013C14.9613 3.31658 15.9901 3.86786 16.7991 4.67523C17.6081 5.48258 18.1614 6.51026 18.3902 7.63007C18.6046 8.68006 18.5126 9.76954 18.1253 10.7688C17.738 11.768 17.0716 12.6348 16.2056 13.266L16.2032 13.2677C15.9285 13.4704 15.78 13.7734 15.6938 14.0483C15.6054 14.33 15.5631 14.644 15.5425 14.9417C15.541 14.9631 15.5396 14.9845 15.5384 15.0061C15.5129 15.0021 15.4867 15 15.46 15H13V10C13 9.93364 12.9871 9.87029 12.9636 9.81235L14.5159 8.93533C14.7564 8.79949 14.8411 8.49448 14.7053 8.25405C14.5695 8.01363 14.2645 7.92884 14.024 8.06467L12.5 8.92572L10.9759 8.06467C10.7355 7.92884 10.4305 8.01363 10.2947 8.25405C10.1588 8.49448 10.2436 8.79949 10.484 8.93533L12.0364 9.81237C12.0129 9.87031 12 9.93364 12 10V15H9.55136L9.54921 14.9609C9.53193 14.6645 9.49368 14.3508 9.40923 14.0696C9.3271 13.7963 9.18237 13.4896 8.90577 13.2868L8.90009 13.2828C8.16841 12.7617 7.57229 12.0729 7.16166 11.274C6.75202 10.4771 6.5389 9.59371 6.54004 8.69769C6.56578 7.81969 6.78593 6.9583 7.18465 6.17557C7.58435 5.39093 8.15351 4.70497 8.85092 4.16734C9.54833 3.62972 10.3566 3.25388 11.2171 3.06702ZM10.893 19.6458L10.8961 19.649C11.3628 20.1224 11.825 20.5912 12.2431 21H12.837C13.2551 20.5912 13.7173 20.1224 14.184 19.649L14.187 19.6459C14.4003 19.4296 14.6147 19.2121 14.8253 19H10.2548C10.4654 19.2121 10.6797 19.4295 10.893 19.6458ZM16.7962 14.0729L16.7945 14.0741L16.5001 13.67L16.7962 14.0729ZM10.05 18V16H14.96V18H10.05Z" fill="black"/>
</svg>
