<svg width="25" height="24" viewBox="0 0 25 24" fill="none" xmlns="http://www.w3.org/2000/svg">
<path fill-rule="evenodd" clip-rule="evenodd" d="M14.031 4.00049C13.6962 3.98622 13.362 4.04166 13.0497 4.16329C12.7374 4.28493 12.4538 4.47011 12.2168 4.70709C11.9798 4.94408 11.7946 5.22771 11.673 5.54001C11.5527 5.84881 11.4972 6.17898 11.5097 6.51006V10H7.00974C7.00739 10 7.00504 10 7.00268 10.0001C6.99562 10.0002 6.98857 10.0004 6.98152 10.0008C6.5777 10.0237 6.18441 10.1383 5.83155 10.336C5.47869 10.5337 5.17556 10.8092 4.94521 11.1417C4.71486 11.4741 4.56336 11.8547 4.50224 12.2546C4.44111 12.6544 4.47196 13.0629 4.59244 13.449C4.59878 13.4693 4.60642 13.4892 4.61529 13.5085L6.67529 17.9985C6.67843 18.0054 6.68172 18.0121 6.68516 18.0188L6.69168 18.0315C6.90614 18.4482 7.07586 18.778 7.22153 19.0294C7.3663 19.2791 7.51138 19.4952 7.68831 19.6562C8.06942 20.0028 8.50815 20.0015 8.93256 20.0002L9.00974 20H16.0097C16.2859 20 16.5097 19.7762 16.5097 19.5V10.5C16.5097 10.4463 16.5011 10.3929 16.4841 10.3419L14.4841 4.34192C14.4185 4.14516 14.2382 4.00932 14.031 4.00049ZM13.4126 5.09511C13.4922 5.06414 13.5741 5.04048 13.6575 5.0243L15.5097 10.5812V19H9.00974C8.45782 19 8.42691 18.9762 8.36118 18.9164C8.30311 18.8636 8.22069 18.7591 8.08671 18.5279C7.95613 18.3026 7.79922 17.9982 7.57949 17.5713L5.5384 13.1225C5.47042 12.89 5.45411 12.6454 5.49075 12.4057C5.5289 12.1562 5.62344 11.9187 5.76719 11.7112C5.91094 11.5037 6.10011 11.3318 6.32032 11.2084C6.53669 11.0872 6.77741 11.016 7.0248 11H12.0097C12.2859 11 12.5097 10.7762 12.5097 10.5V6.50003C12.5097 6.49382 12.5096 6.48762 12.5094 6.48142C12.5094 6.48141 12.5094 6.48142 12.5094 6.48142C12.5094 6.48053 12.5093 6.47963 12.5093 6.47875C12.5009 6.28226 12.5334 6.08619 12.6048 5.90294C12.6762 5.71969 12.7849 5.55326 12.9239 5.4142C13.063 5.27514 13.2294 5.16648 13.4126 5.09511Z" fill="black"/>
<path d="M20.3633 11.1464C20.2696 11.0527 20.1424 11 20.0098 11H17.5098V20H20.0098C20.1424 20 20.2696 19.9473 20.3633 19.8536C20.4571 19.7598 20.5098 19.6326 20.5098 19.5V11.5C20.5098 11.3674 20.4571 11.2402 20.3633 11.1464Z" fill="black"/>
</svg>
