<svg width="25" height="24" viewBox="0 0 25 24" fill="none" xmlns="http://www.w3.org/2000/svg">
<path d="M11 9C11.2761 9 11.5 9.22386 11.5 9.5V11H13C13.2761 11 13.5 11.2239 13.5 11.5C13.5 11.7761 13.2761 12 13 12H11.5V13.5C11.5 13.7761 11.2761 14 11 14C10.7239 14 10.5 13.7761 10.5 13.5V12H9C8.72386 12 8.5 11.7761 8.5 11.5C8.5 11.2239 8.72386 11 9 11H10.5V9.5C10.5 9.22386 10.7239 9 11 9Z" fill="black"/>
<path fill-rule="evenodd" clip-rule="evenodd" d="M11.5 6.5C11.5 5.67157 12.1716 5 13 5C13.8284 5 14.5 5.67157 14.5 6.5V7H17C18.0829 7 18.9514 7.60139 19.5156 8.13752C19.8035 8.41102 20.0288 8.68301 20.1822 8.88644C20.2592 8.98855 20.3189 9.07445 20.3601 9.13606C20.3807 9.16689 20.3968 9.19173 20.4081 9.20956L20.421 9.23005L22.416 12.2227C22.465 12.2961 22.492 12.3778 22.4985 12.46H22.5V15.5C22.5 16.1667 22.0652 16.7317 21.4637 16.927C21.2611 18.1043 20.2351 19 19 19C17.7905 19 16.7817 18.1411 16.55 17H8.44998C8.21833 18.1411 7.20946 19 6 19C4.76487 19 3.73894 18.1043 3.53632 16.927C2.93483 16.7317 2.5 16.1667 2.5 15.5V8.5C2.5 7.67157 3.17157 7 4 7H11.5V6.5ZM21.5 15.5C21.5 15.6123 21.463 15.716 21.4005 15.7994C21.0976 14.7597 20.1375 14 19 14C17.7905 14 16.7816 14.8589 16.55 16H8.45C8.21838 14.8589 7.2095 14 6 14C4.86249 14 3.90242 14.7597 3.59949 15.7994C3.53701 15.716 3.5 15.6123 3.5 15.5V8.5C3.5 8.22386 3.72386 8 4 8H14.5V10.55C14.5 11.3785 15.1716 12.05 16 12.05H20C20.7669 12.05 21.1179 12.2617 21.2818 12.4349C21.4532 12.6161 21.5 12.8397 21.5 13V15.5ZM19 15C18.3469 15 17.7912 15.4174 17.5853 16C17.5301 16.1564 17.5 16.3247 17.5 16.5C17.5 16.6753 17.5301 16.8436 17.5854 17C17.7913 17.5826 18.3469 18 19 18C19.6531 18 20.2087 17.5826 20.4146 17C20.4699 16.8436 20.5 16.6753 20.5 16.5C20.5 16.3247 20.4699 16.1564 20.4147 16C20.2088 15.4174 19.6531 15 19 15ZM4.58537 17C4.7913 17.5826 5.34691 18 6 18C6.65309 18 7.2087 17.5826 7.41463 17C7.46992 16.8436 7.5 16.6753 7.5 16.5C7.5 16.3247 7.46993 16.1564 7.41466 16C7.20876 15.4174 6.65313 15 6 15C5.34687 15 4.79124 15.4174 4.58534 16C4.53007 16.1564 4.5 16.3247 4.5 16.5C4.5 16.6753 4.53008 16.8436 4.58537 17ZM13 6C13.2761 6 13.5 6.22386 13.5 6.5V7H12.5V6.5C12.5 6.22386 12.7239 6 13 6ZM20.4467 11.0714C20.3059 11.0573 20.1571 11.05 20 11.05H16C15.7239 11.05 15.5 10.8262 15.5 10.55V8H17C17.7071 8 18.3386 8.39861 18.8269 8.86248C19.0652 9.08898 19.2544 9.31699 19.3838 9.48856C19.4482 9.57395 19.497 9.6443 19.5289 9.69206C19.5449 9.71592 19.5566 9.73405 19.5639 9.74552L19.5714 9.75756L19.5727 9.75958C19.5763 9.76559 19.5801 9.77151 19.584 9.77735L20.4467 11.0714Z" fill="black"/>
</svg>
