<svg width="25" height="24" viewBox="0 0 25 24" fill="none" xmlns="http://www.w3.org/2000/svg">
<path fill-rule="evenodd" clip-rule="evenodd" d="M7.29157 4C5.64818 4 4.22612 5.14337 3.87322 6.74842L3.51812 8.36351C2.66926 8.82534 2.06394 9.68652 1.96433 10.7092L1.60926 14.3546C1.56586 14.8001 1.7213 15.2155 2 15.5174V16.5C2 17.3284 2.67157 18 3.5 18H4.5C5.32843 18 6 17.3284 6 16.5L6.00002 16C6.27616 16 6.50005 15.7761 6.50005 15.5C6.50005 15.2239 6.2762 15 6.00005 15H3.10219C2.80689 15 2.57592 14.7454 2.60454 14.4515L2.95962 10.8061C3.05942 9.78149 3.92073 9 4.9502 9H8.00005C8.2762 9 8.50005 8.77614 8.50005 8.5C8.50005 8.22386 8.2762 8 8.00005 8H4.62193L4.84989 6.96316C5.10196 5.81669 6.11772 5 7.29157 5H12.0849C12.6883 5 13.237 5.2752 13.5992 5.71645C13.673 5.8698 13.8226 5.97973 13.9995 5.99748L14 6L14.0023 5.99775C14.018 5.99924 14.0339 6 14.05 6C14.3262 6 14.55 5.77614 14.55 5.5C14.55 5.40155 14.5491 5.32679 14.5 5.24941C14.5095 5.26287 14.4957 5.23157 14.4834 5.2262C13.9412 4.47609 13.0603 4 12.0849 4H7.29157ZM14.485 5.22849L14.4834 5.2262C14.4823 5.22571 14.4832 5.22668 14.485 5.22849ZM4.5 17C4.77614 17 5 16.7761 5 16.5V16H3V16.5C3 16.7761 3.22386 17 3.5 17H4.5Z" fill="black"/>
<path fill-rule="evenodd" clip-rule="evenodd" d="M5.11719 10C4.42683 10 3.86719 10.5596 3.86719 11.25C3.86719 11.9404 4.42683 12.5 5.11719 12.5C5.62977 12.5 6.07029 12.1915 6.26318 11.75H7C7.27614 11.75 7.5 11.5261 7.5 11.25C7.5 10.9739 7.27614 10.75 7 10.75H6.26318C6.07029 10.3085 5.62977 10 5.11719 10ZM4.86719 11.25C4.86719 11.1119 4.97912 11 5.11719 11C5.25526 11 5.36719 11.1119 5.36719 11.25C5.36719 11.3881 5.25526 11.5 5.11719 11.5C4.97912 11.5 4.86719 11.3881 4.86719 11.25Z" fill="black"/>
<path fill-rule="evenodd" clip-rule="evenodd" d="M8.86719 14.25C8.86719 13.5596 9.42683 13 10.1172 13C10.6298 13 11.0703 13.3085 11.2632 13.75H17.6567C17.8496 13.3085 18.2902 13 18.8027 13C19.4931 13 20.0527 13.5596 20.0527 14.25C20.0527 14.9404 19.4931 15.5 18.8027 15.5C18.2902 15.5 17.8496 15.1915 17.6567 14.75H11.2632C11.0703 15.1915 10.6298 15.5 10.1172 15.5C9.42683 15.5 8.86719 14.9404 8.86719 14.25ZM10.1172 14C9.97912 14 9.86719 14.1119 9.86719 14.25C9.86719 14.3881 9.97912 14.5 10.1172 14.5C10.2553 14.5 10.3672 14.3881 10.3672 14.25C10.3672 14.1119 10.2553 14 10.1172 14ZM18.5527 14.25C18.5527 14.1119 18.6647 14 18.8027 14C18.9408 14 19.0527 14.1119 19.0527 14.25C19.0527 14.3881 18.9408 14.5 18.8027 14.5C18.6647 14.5 18.5527 14.3881 18.5527 14.25Z" fill="black"/>
<path fill-rule="evenodd" clip-rule="evenodd" d="M12.2916 7C10.6482 7 9.22612 8.14337 8.87322 9.74842L8.51812 11.3635C7.66926 11.8253 7.06394 12.6865 6.96433 13.7092L6.60926 17.3546C6.56586 17.8001 6.7213 18.2155 7 18.5174V19.5C7 20.3284 7.67157 21 8.5 21H9.5C10.3284 21 11 20.3284 11 19.5V19H18V19.5C18 20.3284 18.6716 21 19.5 21H20.5C21.3284 21 22 20.3284 22 19.5V18.5176C22.2788 18.2156 22.4343 17.8002 22.3909 17.3546L22.0358 13.7092C21.9362 12.6865 21.3308 11.8253 20.482 11.3635L20.1269 9.74842C19.774 8.14337 18.3519 7 16.7085 7H12.2916ZM9.5 20C9.77614 20 10 19.7761 10 19.5V19H8V19.5C8 19.7761 8.22386 20 8.5 20H9.5ZM7.60454 17.4515C7.57592 17.7454 7.80689 18 8.10219 18H20.8979C21.1932 18 21.4242 17.7454 21.3956 17.4515L21.0405 13.8061C20.9407 12.7815 20.0794 12 19.0499 12H9.9502C8.92072 12 8.05942 12.7815 7.95962 13.8061L7.60454 17.4515ZM19.5 20C19.2239 20 19 19.7761 19 19.5V19H21V19.5C21 19.7761 20.7761 20 20.5 20H19.5ZM9.84989 9.96316L9.62193 11H19.3782L19.1502 9.96316C18.8981 8.81669 17.8824 8 16.7085 8H12.2916C11.1177 8 10.102 8.81669 9.84989 9.96316Z" fill="black"/>
</svg>
