<svg width="25" height="24" viewBox="0 0 25 24" fill="none" xmlns="http://www.w3.org/2000/svg">
<path fill-rule="evenodd" clip-rule="evenodd" d="M13.5401 5.49C13.5455 5.21781 13.7678 5 14.04 5H15.82C15.9969 5 16.1607 5.09353 16.2506 5.24593L17.2855 7H18C18.1753 7 18.3378 7.09182 18.4283 7.24199L19.4283 8.90199C19.4752 8.97988 19.5 9.06908 19.5 9.16V11.0219C20.647 11.0822 21.5145 11.3074 22.3536 12.1465C22.5488 12.3417 22.5488 12.6583 22.3536 12.8536C22.1583 13.0488 21.8417 13.0488 21.6464 12.8536C20.8158 12.023 20.0405 12 18 12L17.9942 12H17.5948L18.079 13.1234C18.3775 13.0419 18.6872 13 19 13C19.9283 13 20.8185 13.3687 21.4749 14.0251C22.1313 14.6815 22.5 15.5717 22.5 16.5C22.5 17.1922 22.2947 17.8689 21.9101 18.4445C21.5256 19.0201 20.9789 19.4687 20.3394 19.7336C19.6999 19.9985 18.9961 20.0678 18.3172 19.9327C17.6383 19.7977 17.0146 19.4644 16.5251 18.9749C16.0356 18.4854 15.7023 17.8618 15.5673 17.1828C15.4322 16.5039 15.5015 15.8001 15.7664 15.1606C16.0313 14.5211 16.4799 13.9744 17.0555 13.5899C17.0905 13.5665 17.1259 13.5437 17.1617 13.5216L16.5308 12.058C16.5226 12.0389 16.5156 12.0195 16.5099 12H16.309L14.4472 15.7236C14.3625 15.893 14.1894 16 14 16H11C10.7239 16 10.5 15.7761 10.5 15.5V14.383L9.22767 15.1464C9.40573 15.571 9.5 16.0306 9.5 16.5C9.5 17.1922 9.29473 17.8689 8.91014 18.4445C8.52556 19.0201 7.97894 19.4687 7.33939 19.7336C6.69985 19.9985 5.99612 20.0678 5.31719 19.9327C4.63825 19.7977 4.01461 19.4644 3.52513 18.9749C3.03564 18.4854 2.7023 17.8618 2.56725 17.1828C2.4322 16.5039 2.50152 15.8001 2.76642 15.1606C3.03133 14.5211 3.47993 13.9744 4.05551 13.5899C4.63108 13.2053 5.30777 13 6 13C6.92826 13 7.8185 13.3687 8.47487 14.0251C8.5591 14.1093 8.63858 14.1974 8.71316 14.2889L9.96165 13.5398L4.88197 11H3C2.72386 11 2.5 10.7761 2.5 10.5V8.5C2.5 8.22386 2.72386 8 3 8H7C7.03293 8 7.06577 8.00325 7.09806 8.00971L11.7236 8.93481L12.5528 7.27639C12.6375 7.107 12.8106 7 13 7H13.5099L13.5401 5.49ZM15.5528 11.2764L13.691 15H11.5V13.5049C11.5008 13.4273 11.4836 13.3487 11.4468 13.2756C11.4372 13.2564 11.4263 13.2379 11.4143 13.2201C11.363 13.1439 11.2938 13.0861 11.2158 13.0489L5.22361 10.0528C5.15418 10.0181 5.07762 10 5 10H3.5V9H6.95049L11.9019 9.99029C12.123 10.0345 12.3464 9.92528 12.4472 9.72361L13.309 8H14C14.2722 8 14.4945 7.78219 14.4999 7.51L14.5301 6H15.5345L16.5694 7.75407C16.6593 7.90647 16.8231 8 17 8H17.7175L18.5 9.29897V11H16C15.8106 11 15.6375 11.107 15.5528 11.2764ZM17.5635 14.4539L18.5308 16.698C18.6401 16.9516 18.9343 17.0686 19.1879 16.9593C19.4415 16.85 19.5585 16.5558 19.4492 16.3022L18.4804 14.0546C18.6504 14.0185 18.8245 14 19 14C19.663 14 20.2989 14.2634 20.7678 14.7322C21.2366 15.2011 21.5 15.837 21.5 16.5C21.5 16.9945 21.3534 17.4778 21.0787 17.8889C20.804 18.3 20.4135 18.6205 19.9567 18.8097C19.4999 18.9989 18.9972 19.0484 18.5123 18.952C18.0273 18.8555 17.5819 18.6174 17.2322 18.2678C16.8826 17.9181 16.6445 17.4727 16.548 16.9877C16.4516 16.5028 16.5011 16.0001 16.6903 15.5433C16.8722 15.1042 17.1752 14.7265 17.5635 14.4539ZM5.74271 16.0712L7.84313 14.811C7.81864 14.7842 7.79351 14.758 7.76777 14.7322C7.29893 14.2634 6.66304 14 6 14C5.50555 14 5.0222 14.1466 4.61108 14.4213C4.19995 14.696 3.87952 15.0865 3.6903 15.5433C3.50108 16.0001 3.45158 16.5028 3.54804 16.9877C3.6445 17.4727 3.8826 17.9181 4.23223 18.2678C4.58187 18.6174 5.02732 18.8555 5.51228 18.952C5.99723 19.0484 6.4999 18.9989 6.95671 18.8097C7.41352 18.6205 7.80397 18.3 8.07868 17.8889C8.35338 17.4778 8.5 16.9945 8.5 16.5C8.5 16.214 8.451 15.9331 8.35765 15.6684L6.2572 16.9287C6.02041 17.0708 5.71328 16.994 5.57121 16.7572C5.42913 16.5204 5.50592 16.2133 5.74271 16.0712Z" fill="black"/>
</svg>
