<svg width="25" height="24" viewBox="0 0 25 24" fill="none" xmlns="http://www.w3.org/2000/svg">
<path fill-rule="evenodd" clip-rule="evenodd" d="M12.5002 10C12.1047 10 11.718 10.1173 11.3891 10.3371C11.0602 10.5568 10.8039 10.8692 10.6525 11.2346C10.5011 11.6001 10.4615 12.0022 10.5387 12.3902C10.6158 12.7781 10.8063 13.1345 11.086 13.4142C11.3657 13.6939 11.7221 13.8844 12.1101 13.9616C12.498 14.0387 12.9002 13.9991 13.2656 13.8478C13.6311 13.6964 13.9434 13.44 14.1632 13.1111C14.3829 12.7822 14.5002 12.3956 14.5002 12C14.5002 11.4696 14.2895 10.9609 13.9145 10.5858C13.5394 10.2107 13.0307 10 12.5002 10ZM11.9447 11.1685C12.1091 11.0586 12.3025 11 12.5002 11C12.7655 11 13.0198 11.1054 13.2074 11.2929C13.3949 11.4804 13.5002 11.7348 13.5002 12C13.5002 12.1978 13.4416 12.3911 13.3317 12.5556C13.2218 12.72 13.0657 12.8482 12.8829 12.9239C12.7002 12.9996 12.4991 13.0194 12.3052 12.9808C12.1112 12.9422 11.933 12.847 11.7931 12.7071C11.6533 12.5673 11.558 12.3891 11.5195 12.1951C11.4809 12.0011 11.5007 11.8 11.5764 11.6173C11.6521 11.4346 11.7802 11.2784 11.9447 11.1685Z" fill="black"/>
<path fill-rule="evenodd" clip-rule="evenodd" d="M15.0497 5.4791C14.1933 5.14437 13.2794 4.98164 12.3601 5.00021C10.976 5.02817 9.63133 5.46588 8.49601 6.25802C7.36069 7.05016 6.48574 8.16114 5.98178 9.4505C5.47782 10.7399 5.36749 12.1497 5.66473 13.5018C5.96196 14.8538 6.65342 16.0874 7.65168 17.0465C8.64995 18.0056 9.91018 18.6472 11.273 18.8902C12.6359 19.1331 14.0402 18.9665 15.3084 18.4114C16.5766 17.8562 17.6517 16.9376 18.3978 15.7715C19.1439 14.6054 19.5275 13.2443 19.5001 11.8602C19.4819 10.9409 19.2828 10.0342 18.914 9.19185C18.5453 8.34953 18.0143 7.58809 17.3512 6.95105C16.6882 6.314 15.9061 5.81383 15.0497 5.4791ZM17.9629 9.51418C16.1546 9.10736 14.3012 8.93431 12.4479 8.99965L12.4362 9.00006C10.5796 9.02191 8.73338 9.27334 6.93941 9.74854C6.93054 9.77048 6.92179 9.79248 6.91317 9.81454C6.6595 10.4635 6.52218 11.1482 6.50364 11.8374C7.80372 12.3507 8.96244 13.1719 9.87869 14.2332L9.88294 14.2382L9.89182 14.2491C10.764 15.3477 11.4091 16.6079 11.7903 17.9565C12.3419 18.0223 12.8981 18.011 13.443 17.9244C13.7645 16.5608 14.3574 15.275 15.1871 14.1442L15.1936 14.1356L15.1976 14.1304C16.0693 13.0248 17.2006 12.1548 18.4879 11.596C18.4415 10.9057 18.276 10.2279 17.998 9.59284C17.9864 9.56653 17.9747 9.5403 17.9629 9.51418ZM17.2662 8.35222C15.6688 8.06152 14.0436 7.94319 12.4185 8.00007C10.7904 8.01963 9.16991 8.20833 7.58297 8.56245C7.98487 7.98721 8.48669 7.48387 9.06822 7.07813C10.0413 6.39916 11.1939 6.02397 12.3803 6C13.1683 5.98409 13.9517 6.12357 14.6857 6.41048C15.4198 6.69739 16.0901 7.12611 16.6584 7.67215C16.8785 7.88358 17.0816 8.11099 17.2662 8.35222ZM18.4585 12.7152C17.502 13.2042 16.6585 13.8947 15.9882 14.7428C15.3463 15.6194 14.8616 16.5987 14.5538 17.6369C14.6729 17.5935 14.7908 17.5463 14.9074 17.4953C15.9944 17.0195 16.9159 16.232 17.5555 15.2325C18.044 14.469 18.3512 13.608 18.4585 12.7152ZM10.6658 17.7111C10.3131 16.6879 9.78924 15.73 9.11505 14.8789C8.41125 14.0659 7.54637 13.4127 6.57871 12.9585C6.59652 13.0683 6.61741 13.1779 6.6414 13.2871C6.89618 14.446 7.48886 15.5033 8.34451 16.3254C9.00533 16.9603 9.80008 17.4329 10.6658 17.7111Z" fill="black"/>
<path fill-rule="evenodd" clip-rule="evenodd" d="M18.7345 5.51126C20.4555 7.16473 21.4501 9.43344 21.5002 11.8195C21.5354 13.599 21.0422 15.3496 20.0829 16.8489C19.1237 18.3481 17.7414 19.5293 16.1109 20.243C14.4803 20.9567 12.6748 21.1709 10.9226 20.8586C9.1703 20.5462 7.55 19.7213 6.26652 18.4882C4.98304 17.255 4.09402 15.669 3.71186 13.9306C3.3297 12.1923 3.47156 10.3796 4.11951 8.72186C4.76745 7.06411 5.89239 5.63571 7.35208 4.61725C8.81178 3.59878 10.5413 3.03599 12.3208 3.00005C14.7069 2.95465 17.0136 3.85779 18.7345 5.51126ZM12.34 3.99986C14.4612 3.95957 16.5118 4.76247 18.0417 6.23237C19.5715 7.70218 20.4557 9.71886 20.5004 11.8399C20.5317 13.4217 20.0933 14.9772 19.2406 16.3099C18.3879 17.6426 17.1592 18.6925 15.7099 19.3269C14.2605 19.9613 12.6556 20.1517 11.098 19.8741C9.54048 19.5964 8.10022 18.8632 6.95935 17.7671C5.81848 16.6709 5.02824 15.2611 4.68854 13.7159C4.34884 12.1707 4.47494 10.5595 5.05089 9.0859C5.62684 7.61235 6.62679 6.34265 7.92429 5.43735C9.2217 4.53212 10.7584 4.03188 12.34 3.99986Z" fill="black"/>
</svg>
