<svg width="25" height="24" viewBox="0 0 25 24" fill="none" xmlns="http://www.w3.org/2000/svg">
<path fill-rule="evenodd" clip-rule="evenodd" d="M8.51388 9.05582C8.61447 9.01631 8.72196 8.99733 8.83 9H17.17C17.3823 9.00517 17.5843 9.09247 17.7335 9.24355C17.8827 9.39462 17.9675 9.59768 17.97 9.81V11.19C17.9674 11.4057 17.8798 11.6118 17.7263 11.7634C17.5728 11.915 17.3658 12 17.15 12H8.81C8.59517 12 8.38915 11.9147 8.23724 11.7628C8.08534 11.6109 8 11.4048 8 11.19V9.81C7.99997 9.70193 8.02156 9.59494 8.06351 9.49534C8.10546 9.39574 8.16692 9.30554 8.24427 9.23006C8.32162 9.15457 8.41329 9.09533 8.51388 9.05582ZM17 11V10H9V11H17Z" fill="black"/>
<path d="M17.8135 14.1464C17.7197 14.0527 17.5926 14 17.46 14H8.45996C8.32735 14 8.20018 14.0527 8.10641 14.1464C8.01264 14.2402 7.95996 14.3674 7.95996 14.5C7.95996 14.6326 8.01264 14.7598 8.10641 14.8536C8.20018 14.9473 8.32735 15 8.45996 15H17.46C17.5926 15 17.7197 14.9473 17.8135 14.8536C17.9073 14.7598 17.96 14.6326 17.96 14.5C17.96 14.3674 17.9073 14.2402 17.8135 14.1464Z" fill="black"/>
<path d="M8.10641 16.1464C8.20018 16.0527 8.32735 16 8.45996 16H17.46C17.5926 16 17.7197 16.0527 17.8135 16.1464C17.9073 16.2402 17.96 16.3674 17.96 16.5C17.96 16.6326 17.9073 16.7598 17.8135 16.8536C17.7197 16.9473 17.5926 17 17.46 17H8.45996C8.32735 17 8.20018 16.9473 8.10641 16.8536C8.01264 16.7598 7.95996 16.6326 7.95996 16.5C7.95996 16.3674 8.01264 16.2402 8.10641 16.1464Z" fill="black"/>
<path fill-rule="evenodd" clip-rule="evenodd" d="M13 3C11.1211 3 9.28435 3.55717 7.72209 4.60104C6.15982 5.64491 4.94218 7.12861 4.22315 8.86451C3.50412 10.6004 3.31598 12.5105 3.68254 14.3534C4.0491 16.1962 4.95389 17.8889 6.28249 19.2175C7.61109 20.5461 9.30383 21.4509 11.1466 21.8175C12.9895 22.184 14.8996 21.9959 16.6355 21.2769C18.3714 20.5578 19.8551 19.3402 20.899 17.7779C21.9428 16.2157 22.5 14.3789 22.5 12.5C22.5 9.98044 21.4991 7.56408 19.7175 5.78249C17.9359 4.00089 15.5196 3 13 3ZM16.5 5C16.5 4.91086 16.4881 4.82295 16.4652 4.73838C16.9011 4.93302 17.3218 5.16489 17.7224 5.43251C19.1202 6.3665 20.2096 7.69402 20.853 9.24719C21.4963 10.8004 21.6647 12.5094 21.3367 14.1583C21.0087 15.8071 20.1992 17.3217 19.0104 18.5104C17.8217 19.6992 16.3071 20.5087 14.6583 20.8367C13.0094 21.1646 11.3004 20.9963 9.74719 20.353C8.19402 19.7096 6.8665 18.6202 5.93251 17.2223C4.99852 15.8245 4.5 14.1811 4.5 12.5C4.50265 10.2465 5.39903 8.086 6.99252 6.49252C7.73301 5.75202 8.59594 5.16207 9.53375 4.74238C9.51153 4.82571 9.5 4.91226 9.5 5C9.5 5.26522 9.60536 5.51957 9.79289 5.70711C9.98043 5.89464 10.2348 6 10.5 6H15.5C15.7652 6 16.0196 5.89464 16.2071 5.70711C16.3946 5.51957 16.5 5.26522 16.5 5Z" fill="black"/>
</svg>
