<svg width="25" height="24" viewBox="0 0 25 24" fill="none" xmlns="http://www.w3.org/2000/svg">
<path fill-rule="evenodd" clip-rule="evenodd" d="M6.37319 4.74842C6.72609 3.14337 8.14815 2 9.79154 2H14.2085C15.8519 2 17.274 3.14337 17.6269 4.74842L17.9771 6.34157C18.8333 6.79024 19.4512 7.64194 19.567 8.66127L19.7266 10.0653C19.7577 10.3396 19.5606 10.5873 19.2862 10.6185C19.0118 10.6497 18.7641 10.4525 18.733 10.1782L18.5734 8.77418C18.4586 7.76349 17.6034 7 16.5862 7H7.41384C6.39665 7 5.54148 7.76349 5.42663 8.77418L5.12329 11.4435C5.08959 11.7401 5.32159 12 5.6201 12H7.00002C7.27617 12 7.50002 12.2239 7.50002 12.5C7.50002 12.7761 7.27617 13 7.00002 13H5.6201C5.57965 13 5.5396 12.9984 5.50002 12.9953V14.5C5.50002 14.7761 5.27617 15 5.00002 15C4.72388 15 4.50002 14.7761 4.50002 14.5V12.5L4.50003 12.4977C4.22745 12.1917 4.0792 11.7749 4.12969 11.3306L4.43302 8.66127C4.54886 7.64194 5.16671 6.79024 6.02291 6.34156L6.37319 4.74842ZM16.6502 4.96316L16.8781 6H7.1219L7.34987 4.96316C7.60193 3.81669 8.61769 3 9.79154 3H14.2085C15.3823 3 16.3981 3.81669 16.6502 4.96316Z" fill="black"/>
<path d="M8.60176 18.43C7.75059 18.4832 6.94813 18.8453 6.3451 19.4484L4.64731 21.1462C4.45205 21.3415 4.45205 21.6581 4.64732 21.8533C4.84259 22.0486 5.15917 22.0486 5.35443 21.8533L7.05222 20.1555C7.48296 19.7247 8.05614 19.466 8.66412 19.4281L14.2715 19.0777C15.1956 19.0199 16.0794 18.6785 16.8024 18.1L22.087 13.8714C22.9632 13.1703 22.9422 11.8308 22.0444 11.1574C21.425 10.6929 20.5714 10.7004 19.9603 11.1757L16.4892 13.8754C16.2523 13.3588 15.7306 13 15.125 13H9.18624C8.6303 13 8.09022 13.1853 7.65139 13.5266L3.69305 16.6053C3.47508 16.7749 3.43581 17.089 3.60535 17.307C3.77488 17.5249 4.08902 17.5642 4.30699 17.3947L8.26533 14.316C8.52863 14.1112 8.85267 14 9.18624 14H15.125C15.4012 14 15.625 14.2239 15.625 14.5C15.625 14.7761 15.4012 15 15.125 15H11.5C11.2239 15 11 15.2239 11 15.5C11 15.7761 11.2239 16 11.5 16H15.125C15.7788 16 16.3349 15.5818 16.5403 14.9983C16.6345 14.9909 16.7277 14.9568 16.8078 14.8944L20.5742 11.965C20.8294 11.7666 21.1858 11.7635 21.4444 11.9574C21.8193 12.2386 21.828 12.7979 21.4622 13.0906L16.1776 17.3192C15.6153 17.7692 14.9279 18.0347 14.2091 18.0796L8.60176 18.43Z" fill="black"/>
<path fill-rule="evenodd" clip-rule="evenodd" d="M7.61721 8C6.92685 8 6.36721 8.55964 6.36721 9.25C6.36721 9.94036 6.92685 10.5 7.61721 10.5C8.12979 10.5 8.57031 10.1915 8.7632 9.75H15.1568C15.3497 10.1915 15.7902 10.5 16.3028 10.5C16.9931 10.5 17.5528 9.94036 17.5528 9.25C17.5528 8.55964 16.9931 8 16.3028 8C15.7902 8 15.3497 8.30852 15.1568 8.75H8.7632C8.57031 8.30852 8.12979 8 7.61721 8ZM7.36721 9.25C7.36721 9.11193 7.47914 9 7.61721 9C7.75528 9 7.86721 9.11193 7.86721 9.25C7.86721 9.38807 7.75528 9.5 7.61721 9.5C7.47914 9.5 7.36721 9.38807 7.36721 9.25ZM16.3028 9C16.1647 9 16.0528 9.11193 16.0528 9.25C16.0528 9.38807 16.1647 9.5 16.3028 9.5C16.4408 9.5 16.5528 9.38807 16.5528 9.25C16.5528 9.11193 16.4408 9 16.3028 9Z" fill="black"/>
</svg>
