<svg width="25" height="24" viewBox="0 0 25 24" fill="none" xmlns="http://www.w3.org/2000/svg">
<path fill-rule="evenodd" clip-rule="evenodd" d="M2.5 8.5C2.5 7.67157 3.17157 7 4 7H17C18.0829 7 18.9514 7.60139 19.5156 8.13752C19.8035 8.41102 20.0288 8.68301 20.1822 8.88644C20.2592 8.98855 20.3189 9.07445 20.3601 9.13606C20.3807 9.16689 20.3968 9.19173 20.4081 9.20956L20.421 9.23005L22.416 12.2227C22.465 12.2961 22.492 12.3778 22.4985 12.46H22.5V15.5C22.5 16.1667 22.0652 16.7317 21.4637 16.927C21.2611 18.1043 20.2351 19 19 19C17.7905 19 16.7817 18.1411 16.55 17H8.44998C8.21833 18.1411 7.20946 19 6 19C4.76487 19 3.73894 18.1043 3.53632 16.927C2.93483 16.7317 2.5 16.1667 2.5 15.5V8.5ZM6 14C7.2095 14 8.21838 14.8589 8.45 16H16.55C16.7816 14.8589 17.7905 14 19 14C20.1375 14 21.0976 14.7597 21.4005 15.7994C21.463 15.716 21.5 15.6123 21.5 15.5V13C21.5 12.8397 21.4532 12.6161 21.2818 12.4349C21.1179 12.2617 20.7669 12.05 20 12.05H3.5V15.5C3.5 15.6123 3.53701 15.716 3.59949 15.7994C3.90242 14.7597 4.86249 14 6 14ZM19.584 9.77735L20.4467 11.0714C20.3059 11.0573 20.1571 11.05 20 11.05H15.5V8H17C17.7071 8 18.3386 8.39861 18.8269 8.86248C19.0652 9.08898 19.2544 9.31699 19.3838 9.48856C19.4482 9.57395 19.497 9.6443 19.5289 9.69206C19.5449 9.71592 19.5566 9.73405 19.5639 9.74552L19.5714 9.75756L19.5727 9.75958C19.5763 9.76559 19.5801 9.77151 19.584 9.77735ZM4 8C3.72386 8 3.5 8.22386 3.5 8.5V11.05H7.5V8H4ZM6 15C5.17157 15 4.5 15.6716 4.5 16.5C4.5 17.3284 5.17157 18 6 18C6.82843 18 7.5 17.3284 7.5 16.5C7.5 15.6716 6.82843 15 6 15ZM17.5 16.5C17.5 15.6716 18.1716 15 19 15C19.8284 15 20.5 15.6716 20.5 16.5C20.5 17.3284 19.8284 18 19 18C18.1716 18 17.5 17.3284 17.5 16.5ZM14.5 8V11.05H8.5V8H14.5Z" fill="black"/>
</svg>
