<svg width="25" height="24" viewBox="0 0 25 24" fill="none" xmlns="http://www.w3.org/2000/svg">
<path fill-rule="evenodd" clip-rule="evenodd" d="M6.98017 5L6.96045 5.00156C6.24633 5.05815 5.55855 5.29646 4.9625 5.69383C4.37122 6.08802 3.8897 6.62574 3.56292 7.25657L2.07121 9.74275C2.02281 9.82341 1.99981 9.91224 1.99988 9.99992C1.686 10.4178 1.5 10.9372 1.5 11.5V14.5C1.5 15.3284 2.17157 16 3 16H3.55001C3.78164 17.1411 4.79052 18 6 18C7.20948 18 8.21836 17.1411 8.44999 16H16.55C16.7816 17.1411 17.7905 18 19 18C20.2095 18 21.2184 17.1411 21.45 16H22C22.8284 16 23.5 15.3284 23.5 14.5V13.5C23.5 11.0147 21.4853 9 19 9H18.2071L15.3442 6.13717L15.3345 6.1284C14.5581 5.42942 13.5583 5.0293 12.514 5H6.98017ZM6 13C7.20948 13 8.21836 13.8589 8.44999 15H16.55C16.7816 13.8589 17.7905 13 19 13C20.2095 13 21.2184 13.8589 21.45 15H22C22.2762 15 22.5 14.7761 22.5 14.5V13.5C22.5 11.567 20.933 10 19 10H4C3.17157 10 2.5 10.6716 2.5 11.5V14.5C2.5 14.7761 2.72386 15 3 15H3.55001C3.78164 13.8589 4.79052 13 6 13ZM16.7928 9L14.656 6.86314C14.0591 6.32975 13.293 6.02405 12.4927 6H9.5V9H16.7928ZM7.02045 6C6.48316 6.0458 5.96605 6.22665 5.5172 6.52588C5.06307 6.82863 4.69392 7.24251 4.44486 7.72817L4.43726 7.74298L3.6701 9.02157C3.77805 9.00734 3.88817 9 4 9H8.5V6H7.02045ZM17.5 15.5C17.5 14.6716 18.1716 14 19 14C19.8284 14 20.5 14.6716 20.5 15.5C20.5 16.3284 19.8284 17 19 17C18.1716 17 17.5 16.3284 17.5 15.5ZM4.5 15.5C4.5 14.6716 5.17157 14 6 14C6.82843 14 7.5 14.6716 7.5 15.5C7.5 16.3284 6.82843 17 6 17C5.17157 17 4.5 16.3284 4.5 15.5Z" fill="black"/>
</svg>
