<svg width="25" height="24" viewBox="0 0 25 24" fill="none" xmlns="http://www.w3.org/2000/svg">
<path fill-rule="evenodd" clip-rule="evenodd" d="M5.52472 6.55683C5.94774 5.04515 7.32549 4 8.89525 4H14.1051C15.6749 4 17.0526 5.04514 17.4756 6.55683L17.9313 8.18526C18.9722 8.56991 19.7492 9.51684 19.8746 10.678L20.0655 12.4463C20.0951 12.7209 19.8966 12.9675 19.622 12.9971C19.3475 13.0268 19.1009 12.8282 19.0712 12.5537L18.8803 10.7853C18.7707 9.76976 17.9134 9 16.8919 9H6.10845C5.08697 9 4.22964 9.76976 4.12 10.7853L3.61683 15.4463C3.58491 15.742 3.81656 16 4.11394 16H14.0002C14.2763 16 14.5002 16.2239 14.5002 16.5C14.5002 16.7761 14.2763 17 14.0002 17H7.00017V17.5C7.00017 18.3284 6.3286 19 5.50017 19H4.50017C3.67175 19 3.00017 18.3284 3.00017 17.5V16.5048C2.72539 16.2001 2.57459 15.7838 2.6226 15.339L3.12578 10.678C3.25113 9.51684 4.0281 8.56991 5.06904 8.18526L5.52472 6.55683ZM16.5126 6.82631L16.8411 8H6.1593L6.48773 6.82631C6.78988 5.74653 7.77399 5 8.89525 5H14.1051C15.2264 5 16.2105 5.74653 16.5126 6.82631ZM5.50017 18C5.77632 18 6.00017 17.7761 6.00017 17.5V17H4.00017V17.5C4.00017 17.7761 4.22403 18 4.50017 18H5.50017Z" fill="black"/>
<path fill-rule="evenodd" clip-rule="evenodd" d="M19.0002 14C18.0896 14 17.242 14.2383 16.6069 14.6499C15.9767 15.0584 15.5002 15.6817 15.5002 16.4444C15.5002 16.5314 15.5064 16.6164 15.5183 16.6996C15.5065 16.7422 15.5002 16.787 15.5002 16.8333V19.9448C15.5002 20.6563 16.0462 21.1762 16.6487 21.4886C17.2762 21.814 18.1084 22.0004 19.0002 22.0004C19.892 22.0004 20.7241 21.814 21.3517 21.4886C21.9542 21.1762 22.5002 20.6563 22.5002 19.9448V16.833C22.5002 16.7867 22.4939 16.7419 22.4821 16.6994C22.494 16.6163 22.5002 16.5313 22.5002 16.4444C22.5002 15.6817 22.0237 15.0584 21.3934 14.6499C20.7583 14.2383 19.9108 14 19.0002 14ZM16.5002 16.4444C16.5002 16.1333 16.6953 15.7844 17.1508 15.4891C17.6015 15.197 18.2539 15 19.0002 15C19.7464 15 20.3989 15.197 20.8495 15.4891C21.3051 15.7844 21.5002 16.1333 21.5002 16.4444C21.5002 16.7555 21.3051 17.1045 20.8495 17.3998C20.3989 17.6919 19.7464 17.8889 19.0002 17.8889C18.2539 17.8889 17.6015 17.6919 17.1508 17.3998C16.6953 17.1045 16.5002 16.7555 16.5002 16.4444ZM21.5002 18.1667C21.4651 18.1914 21.4295 18.2156 21.3934 18.239C20.7583 18.6506 19.9108 18.8889 19.0002 18.8889C18.0896 18.8889 17.242 18.6506 16.6069 18.239C16.5708 18.2156 16.5352 18.1914 16.5002 18.1667V18.3885C16.5002 18.5362 16.6258 18.794 17.109 19.0446C17.5673 19.2822 18.2351 19.4441 19.0002 19.4441C19.7652 19.4441 20.4331 19.2822 20.8913 19.0446C21.3746 18.794 21.5002 18.5362 21.5002 18.3885V18.1667ZM21.5002 19.8503C21.4512 19.8791 21.4016 19.9064 21.3517 19.9323C20.7241 20.2577 19.892 20.4441 19.0002 20.4441C18.1084 20.4441 17.2762 20.2577 16.6487 19.9323C16.5987 19.9064 16.5491 19.8791 16.5002 19.8503V19.9448C16.5002 20.0925 16.6258 20.3503 17.109 20.6009C17.5673 20.8385 18.2351 21.0004 19.0002 21.0004C19.7652 21.0004 20.4331 20.8385 20.8913 20.6009C21.3746 20.3503 21.5002 20.0925 21.5002 19.9448V19.8503Z" fill="black"/>
<path fill-rule="evenodd" clip-rule="evenodd" d="M6.50017 11C5.67175 11 5.00017 11.6716 5.00017 12.5C5.00017 13.3284 5.67175 14 6.50017 14C7.15328 14 7.7089 13.5826 7.91482 13H15.0855C15.2914 13.5826 15.8471 14 16.5002 14C17.3286 14 18.0002 13.3284 18.0002 12.5C18.0002 11.6716 17.3286 11 16.5002 11C15.8471 11 15.2914 11.4174 15.0855 12H7.91482C7.7089 11.4174 7.15328 11 6.50017 11ZM6.00017 12.5C6.00017 12.2239 6.22403 12 6.50017 12C6.77632 12 7.00017 12.2239 7.00017 12.5C7.00017 12.7761 6.77632 13 6.50017 13C6.22403 13 6.00017 12.7761 6.00017 12.5ZM16.5002 12C16.224 12 16.0002 12.2239 16.0002 12.5C16.0002 12.7761 16.224 13 16.5002 13C16.7763 13 17.0002 12.7761 17.0002 12.5C17.0002 12.2239 16.7763 12 16.5002 12Z" fill="black"/>
</svg>
