<svg width="25" height="24" viewBox="0 0 25 24" fill="none" xmlns="http://www.w3.org/2000/svg">
<path fill-rule="evenodd" clip-rule="evenodd" d="M8.38886 13.3371C8.71776 13.1173 9.10444 13 9.5 13C10.0304 13 10.5391 13.2107 10.9142 13.5858C11.2893 13.9609 11.5 14.4696 11.5 15C11.5 15.3956 11.3827 15.7822 11.1629 16.1111C10.9432 16.44 10.6308 16.6964 10.2654 16.8478C9.89992 16.9991 9.49778 17.0387 9.10982 16.9616C8.72186 16.8844 8.36549 16.6939 8.08579 16.4142C7.80608 16.1345 7.6156 15.7781 7.53843 15.3902C7.46126 15.0022 7.50087 14.6001 7.65224 14.2346C7.80362 13.8692 8.05996 13.5568 8.38886 13.3371ZM9.5 14C9.30222 14 9.10888 14.0586 8.94443 14.1685C8.77998 14.2784 8.65181 14.4346 8.57612 14.6173C8.50043 14.8 8.48063 15.0011 8.51922 15.1951C8.5578 15.3891 8.65304 15.5673 8.79289 15.7071C8.93275 15.847 9.11093 15.9422 9.30491 15.9808C9.49889 16.0194 9.69996 15.9996 9.88268 15.9239C10.0654 15.8482 10.2216 15.72 10.3315 15.5556C10.4414 15.3911 10.5 15.1978 10.5 15C10.5 14.7348 10.3946 14.4804 10.2071 14.2929C10.0196 14.1054 9.76522 14 9.5 14Z" fill="black"/>
<path fill-rule="evenodd" clip-rule="evenodd" d="M2.5 6.5C2.5 6.22386 2.72386 6 3 6H15C15.0776 6 15.1542 6.01807 15.2236 6.05279L19.2236 8.05279C19.393 8.13748 19.5 8.31061 19.5 8.5V13H21.5V12.5C21.5 12.2239 21.7239 12 22 12C22.2761 12 22.5 12.2239 22.5 12.5V13.5C22.5 13.7761 22.2761 14 22 14H19.5V14.5C19.5 14.7761 19.2761 15 19 15H13.5C13.5 15.7911 13.2654 16.5645 12.8259 17.2223C12.3864 17.8801 11.7616 18.3928 11.0307 18.6955C10.2998 18.9983 9.49556 19.0775 8.71964 18.9231C7.94372 18.7688 7.23098 18.3878 6.67157 17.8284C6.11216 17.269 5.7312 16.5563 5.57686 15.7804C5.5255 15.5221 5.5 15.2608 5.5 15H3C2.72386 15 2.5 14.7761 2.5 14.5V6.5ZM13.3769 14.0153C13.4163 14.0053 13.4575 14 13.5 14H18.5V10H3.5V14H5.5C5.54248 14 5.58372 14.0053 5.62311 14.0153C5.67019 13.8299 5.7307 13.6474 5.80448 13.4693C6.10723 12.7384 6.61992 12.1136 7.27772 11.6741C7.93552 11.2346 8.70888 11 9.5 11C10.5609 11 11.5783 11.4214 12.3284 12.1716C12.8417 12.6849 13.2011 13.3234 13.3769 14.0153ZM14.882 7L18.5 8.80902V9H3.5V7H14.882ZM7.83329 12.5056C8.32664 12.1759 8.90666 12 9.5 12C10.2957 12 11.0587 12.3161 11.6213 12.8787C12.1839 13.4413 12.5 14.2044 12.5 15C12.5 15.5933 12.3241 16.1734 11.9944 16.6667C11.6648 17.1601 11.1962 17.5446 10.6481 17.7716C10.0999 17.9987 9.49667 18.0581 8.91473 17.9424C8.33279 17.8266 7.79824 17.5409 7.37868 17.1213C6.95912 16.7018 6.6734 16.1672 6.55765 15.5853C6.44189 15.0033 6.5013 14.4001 6.72836 13.8519C6.95543 13.3038 7.33994 12.8352 7.83329 12.5056Z" fill="black"/>
</svg>
