<svg width="25" height="24" viewBox="0 0 25 24" fill="none" xmlns="http://www.w3.org/2000/svg">
<path fill-rule="evenodd" clip-rule="evenodd" d="M12 4C11.1716 4 10.5 4.67157 10.5 5.5C10.5 6.32843 11.1716 7 12 7C12.8284 7 13.5 6.32843 13.5 5.5C13.5 4.67157 12.8284 4 12 4ZM11.5 5.5C11.5 5.22386 11.7239 5 12 5C12.2761 5 12.5 5.22386 12.5 5.5C12.5 5.77614 12.2761 6 12 6C11.7239 6 11.5 5.77614 11.5 5.5Z" fill="black"/>
<path fill-rule="evenodd" clip-rule="evenodd" d="M10.5 9.5C10.5 8.67157 11.1716 8 12 8C12.8284 8 13.5 8.67157 13.5 9.5C13.5 10.3284 12.8284 11 12 11C11.1716 11 10.5 10.3284 10.5 9.5ZM12 9C11.7239 9 11.5 9.22386 11.5 9.5C11.5 9.77614 11.7239 10 12 10C12.2761 10 12.5 9.77614 12.5 9.5C12.5 9.22386 12.2761 9 12 9Z" fill="black"/>
<path fill-rule="evenodd" clip-rule="evenodd" d="M12 12C11.1716 12 10.5 12.6716 10.5 13.5C10.5 14.3284 11.1716 15 12 15C12.8284 15 13.5 14.3284 13.5 13.5C13.5 12.6716 12.8284 12 12 12ZM11.5 13.5C11.5 13.2239 11.7239 13 12 13C12.2761 13 12.5 13.2239 12.5 13.5C12.5 13.7761 12.2761 14 12 14C11.7239 14 11.5 13.7761 11.5 13.5Z" fill="black"/>
<path fill-rule="evenodd" clip-rule="evenodd" d="M6.5 4.5C6.5 5.70948 7.35888 6.71836 8.5 6.94999V8H7C6.72386 8 6.5 8.22386 6.5 8.5C6.5 9.70948 7.35888 10.7184 8.5 10.95V12H7C6.72386 12 6.5 12.2239 6.5 12.5C6.5 13.7242 7.37996 14.7429 8.54188 14.9581C8.75706 16.12 9.77577 17 11 17H11.5V21.5C11.5 21.7761 11.7239 22 12 22C12.2761 22 12.5 21.7761 12.5 21.5V17H13C14.2242 17 15.2429 16.12 15.4581 14.9581C16.62 14.7429 17.5 13.7242 17.5 12.5C17.5 12.2239 17.2761 12 17 12H15.5V10.95C16.6411 10.7184 17.5 9.70948 17.5 8.5C17.5 8.22386 17.2761 8 17 8H15.5V6.94999C16.6411 6.71836 17.5 5.70948 17.5 4.5C17.5 4.22386 17.2761 4 17 4H15.45C15.2184 2.85888 14.2095 2 13 2H11C9.79052 2 8.78164 2.85888 8.55001 4H7C6.72386 4 6.5 4.22386 6.5 4.5ZM8.5 5.91465C8.07379 5.764 7.736 5.42621 7.58535 5H8.5V5.91465ZM15.5 13.9146C15.9262 13.764 16.264 13.4262 16.4146 13H15.5V13.9146ZM13 16C13.8284 16 14.5 15.3284 14.5 14.5V4.5C14.5 3.67157 13.8284 3 13 3H11C10.1716 3 9.5 3.67157 9.5 4.5V14.5C9.5 15.3284 10.1716 16 11 16H13ZM16.4146 9C16.264 9.42621 15.9262 9.764 15.5 9.91465V9H16.4146ZM15.5 5.91465C15.9262 5.764 16.264 5.42621 16.4146 5H15.5V5.91465ZM8.5 13.9146C8.07379 13.764 7.736 13.4262 7.58535 13H8.5V13.9146ZM7.58535 9C7.736 9.42621 8.07379 9.764 8.5 9.91465V9H7.58535Z" fill="black"/>
</svg>
