<svg width="25" height="24" viewBox="0 0 25 24" fill="none" xmlns="http://www.w3.org/2000/svg">
<path fill-rule="evenodd" clip-rule="evenodd" d="M10.7241 3.1562C12.7657 2.7453 14.8865 3.05507 16.7252 4.03273C18.564 5.0104 20.0067 6.59544 20.8077 8.51772C21.6086 10.44 21.7182 12.5806 21.1177 14.5746C20.5172 16.5686 19.2437 18.2926 17.5144 19.4529C15.7851 20.6132 13.707 21.1379 11.6342 20.9375C9.59668 20.7406 7.68828 19.8551 6.22288 18.4289C6.18807 18.408 6.15565 18.3828 6.12647 18.3536C5.91467 18.1418 5.71352 17.9195 5.52305 17.6867C5.51492 17.6768 5.50724 17.6666 5.5 17.6563V19.5C5.5 19.7761 5.27614 20 5 20C4.72386 20 4.5 19.7761 4.5 19.5V16.5C4.5 16.2239 4.72386 16 5 16H8C8.27614 16 8.5 16.2239 8.5 16.5C8.5 16.7761 8.27614 17 8 17H6.24633C6.26425 17.0163 6.2812 17.0342 6.297 17.0535C6.44503 17.2344 6.60017 17.408 6.76243 17.5745C6.795 17.5946 6.82542 17.6185 6.85297 17.6459C8.16415 18.9526 9.88788 19.7641 11.7304 19.9422C13.5729 20.1202 15.4201 19.6539 16.9573 18.6225C18.4944 17.5912 19.6264 16.0587 20.1602 14.2862C20.694 12.5138 20.5966 10.611 19.8846 8.90234C19.1727 7.19364 17.8902 5.78472 16.2558 4.91568C14.6214 4.04665 12.7362 3.77129 10.9215 4.13654C9.10677 4.5018 7.47489 5.48505 6.30396 6.91873C5.13302 8.3524 4.49549 10.1478 4.50003 11.9989C4.5007 12.275 4.27739 12.4994 4.00125 12.5001C3.72511 12.5008 3.5007 12.2775 3.50003 12.0013C3.49492 9.91884 4.21215 7.89905 5.52945 6.28616C6.84675 4.67327 8.68262 3.56711 10.7241 3.1562ZM5.5738 17C5.54563 17.0256 5.52101 17.0537 5.5 17.0837V17H5.5738Z" fill="black"/>
<path d="M12.5 7C12.7761 7 13 7.22386 13 7.5V11.7929L17.3536 16.1464C17.5488 16.3417 17.5488 16.6583 17.3536 16.8536C17.1583 17.0488 16.8417 17.0488 16.6464 16.8536L12.1464 12.3536C12.0527 12.2598 12 12.1326 12 12V7.5C12 7.22386 12.2239 7 12.5 7Z" fill="black"/>
</svg>
