<svg width="25" height="24" viewBox="0 0 25 24" fill="none" xmlns="http://www.w3.org/2000/svg">
<path d="M12.5 14C13.0523 14 13.5 13.5523 13.5 13C13.5 12.4477 13.0523 12 12.5 12C12.4104 12 12.3236 12.0118 12.241 12.0339L9.35355 9.14645C9.15829 8.95118 8.84171 8.95118 8.64645 9.14645C8.45118 9.34171 8.45118 9.65829 8.64645 9.85355L11.5339 12.741C11.5118 12.8236 11.5 12.9104 11.5 13C11.5 13.5523 11.9477 14 12.5 14Z" fill="black"/>
<path fill-rule="evenodd" clip-rule="evenodd" d="M10 2C9.72386 2 9.5 2.22386 9.5 2.5C9.5 2.77614 9.72386 3 10 3H12V5.01537C7.81464 5.27347 4.5 8.74965 4.5 13C4.5 17.4183 8.08172 21 12.5 21C16.9183 21 20.5 17.4183 20.5 13C20.5 8.74965 17.1854 5.27347 13 5.01537V3H15C15.2761 3 15.5 2.77614 15.5 2.5C15.5 2.22386 15.2761 2 15 2H10ZM12.5 6C16.366 6 19.5 9.13401 19.5 13C19.5 16.866 16.366 20 12.5 20C8.63401 20 5.5 16.866 5.5 13C5.5 9.13401 8.63401 6 12.5 6Z" fill="black"/>
</svg>
