<svg width="25" height="24" viewBox="0 0 25 24" fill="none" xmlns="http://www.w3.org/2000/svg">
<path fill-rule="evenodd" clip-rule="evenodd" d="M8 3C8.27614 3 8.5 3.22386 8.5 3.5V4H12V3.5C12 3.22386 12.2239 3 12.5 3C12.7761 3 13 3.22386 13 3.5V4H16.5V3.5C16.5 3.22386 16.7239 3 17 3C17.2761 3 17.5 3.22386 17.5 3.5V4H20C20.3978 4 20.7794 4.15803 21.0607 4.43934C21.342 4.72065 21.5 5.10218 21.5 5.5V9.32812C21.5196 9.38172 21.5303 9.43961 21.5303 9.5V12C21.5303 12.2761 21.3065 12.5 21.0303 12.5C20.7542 12.5 20.5303 12.2761 20.5303 12V10H4.50032V17.9079C4.49168 18.4516 4.69824 18.9766 5.07508 19.3685C5.45066 19.7591 5.96495 19.9859 6.50648 20H12.5C12.7761 20 13 20.2239 13 20.5C13 20.7761 12.7761 21 12.5 21H6.48866C5.68125 20.9812 4.91403 20.6438 4.35425 20.0616C3.79543 19.4804 3.4886 18.7023 3.50032 17.8962L3.5 5.5C3.5 5.10218 3.65804 4.72064 3.93934 4.43934C4.22064 4.15804 4.60217 4 5 4H7.5V3.5C7.5 3.22386 7.72386 3 8 3ZM20.3536 5.14645C20.4473 5.24021 20.5 5.36739 20.5 5.5V9H4.5V5.5C4.5 5.36739 4.55268 5.24021 4.64645 5.14645C4.74022 5.05268 4.86739 5 5 5H7.5V6.5C7.5 6.77614 7.72386 7 8 7C8.27614 7 8.5 6.77614 8.5 6.5V5H12V6.5C12 6.77614 12.2239 7 12.5 7C12.7761 7 13 6.77614 13 6.5V5H16.5V6.5C16.5 6.77614 16.7239 7 17 7C17.2761 7 17.5 6.77614 17.5 6.5V5H20C20.1326 5 20.2598 5.05268 20.3536 5.14645Z" fill="black"/>
<path d="M18 18C18 18.1326 18.0527 18.2598 18.1464 18.3536L19.1464 19.3536C19.3417 19.5488 19.6583 19.5488 19.8536 19.3536C20.0488 19.1583 20.0488 18.8417 19.8536 18.6464L19 17.7929V15.5C19 15.2239 18.7761 15 18.5 15C18.2239 15 18 15.2239 18 15.5V18Z" fill="black"/>
<path fill-rule="evenodd" clip-rule="evenodd" d="M13.5 18C13.5 15.2386 15.7386 13 18.5 13C21.2614 13 23.5 15.2386 23.5 18C23.5 20.7614 21.2614 23 18.5 23C15.7386 23 13.5 20.7614 13.5 18ZM18.5 14C16.2909 14 14.5 15.7909 14.5 18C14.5 20.2091 16.2909 22 18.5 22C20.7091 22 22.5 20.2091 22.5 18C22.5 15.7909 20.7091 14 18.5 14Z" fill="black"/>
</svg>
