<svg width="25" height="24" viewBox="0 0 25 24" fill="none" xmlns="http://www.w3.org/2000/svg">
<path d="M8.95818 2.63185C9.06874 2.88489 8.95323 3.17965 8.70019 3.29021C7.63416 3.75598 6.66974 4.41198 5.85002 5.21557C5.65283 5.40888 5.33626 5.40573 5.14295 5.20854C4.94964 5.01134 4.95278 4.69478 5.14998 4.50147C6.05527 3.61399 7.12092 2.88894 8.29981 2.37386C8.55286 2.2633 8.84762 2.37881 8.95818 2.63185Z" fill="black"/>
<path d="M16.0418 2.63185C16.1524 2.37881 16.4471 2.2633 16.7002 2.37386C17.8791 2.88894 18.9447 3.61399 19.85 4.50147C20.0472 4.69478 20.0504 5.01134 19.857 5.20854C19.6637 5.40573 19.3472 5.40888 19.15 5.21557C18.3303 4.41198 17.3658 3.75598 16.2998 3.29021C16.0468 3.17965 15.9313 2.88489 16.0418 2.63185Z" fill="black"/>
<path d="M13 8.5C13 8.22386 12.7761 8 12.5 8C12.2239 8 12 8.22386 12 8.5V12C12 12.1326 12.0527 12.2598 12.1464 12.3536L15.6464 15.8536C15.8417 16.0488 16.1583 16.0488 16.3536 15.8536C16.5488 15.6583 16.5488 15.3417 16.3536 15.1464L13 11.7929V8.5Z" fill="black"/>
<path fill-rule="evenodd" clip-rule="evenodd" d="M4 12C4 7.30558 7.80558 3.5 12.5 3.5C17.1944 3.5 21 7.30558 21 12C21 15.069 19.3735 17.7582 16.9354 19.2524L17.7485 20.504C17.8989 20.7356 17.8331 21.0452 17.6015 21.1957C17.37 21.3461 17.0603 21.2803 16.9099 21.0488L16.0807 19.7724C16.0704 19.7566 16.0612 19.7405 16.053 19.7241C14.9719 20.2222 13.7684 20.5 12.5 20.5C11.1755 20.5 9.92169 20.197 8.80419 19.6566C8.79099 19.6966 8.77251 19.7355 8.74853 19.7724L7.91935 21.0488C7.76892 21.2803 7.45925 21.3461 7.22768 21.1957C6.99611 21.0452 6.93033 20.7356 7.08077 20.504L7.90995 19.2276C7.92118 19.2103 7.93331 19.194 7.94622 19.1785C5.57403 17.6706 4 15.0191 4 12ZM12.5 4.5C8.35786 4.5 5 7.85786 5 12C5 16.1421 8.35786 19.5 12.5 19.5C16.6421 19.5 20 16.1421 20 12C20 7.85786 16.6421 4.5 12.5 4.5Z" fill="black"/>
</svg>
