<svg width="25" height="24" viewBox="0 0 25 24" fill="none" xmlns="http://www.w3.org/2000/svg">
<path fill-rule="evenodd" clip-rule="evenodd" d="M7.5 3.5C7.5 3.22386 7.72386 3 8 3H17C17.2761 3 17.5 3.22386 17.5 3.5V5.5C17.5 5.77614 17.2761 6 17 6H16.5V7.79C16.5 8.53162 16.3625 9.11584 16.13 9.59755C15.8981 10.0778 15.5854 10.4273 15.2791 10.7139C15.1423 10.8419 15.0024 10.9612 14.8743 11.0704L14.8354 11.1036C14.6933 11.2248 14.5669 11.3342 14.452 11.4471C14.2717 11.6243 14.1326 11.7979 14.0376 12C14.1326 12.2021 14.2717 12.3757 14.452 12.5529C14.5669 12.6658 14.6933 12.7752 14.8354 12.8964L14.8743 12.9296C15.0023 13.0388 15.1423 13.1581 15.2791 13.2861C15.5854 13.5727 15.8981 13.9222 16.13 14.4024C16.3625 14.8842 16.5 15.4684 16.5 16.21V18H17C17.2761 18 17.5 18.2239 17.5 18.5V20.5C17.5 20.7761 17.2761 21 17 21H8C7.72386 21 7.5 20.7761 7.5 20.5V18.5C7.5 18.2239 7.72386 18 8 18H8.5V16.21C8.5 15.4684 8.63747 14.8842 8.87005 14.4024C9.10193 13.9222 9.41461 13.5727 9.72091 13.2861C9.85774 13.1581 9.99765 13.0388 10.1257 12.9296L10.1646 12.8964C10.3067 12.7752 10.4331 12.6658 10.548 12.5529C10.7283 12.3757 10.8674 12.2021 10.9624 12C10.8674 11.7979 10.7283 11.6243 10.548 11.4471C10.4331 11.3342 10.3067 11.2248 10.1646 11.1036L10.1257 11.0704C9.99764 10.9612 9.85773 10.8419 9.72091 10.7139C9.41461 10.4273 9.10193 10.0778 8.87005 9.59755C8.63747 9.11584 8.5 8.53162 8.5 7.79V6H8C7.72386 6 7.5 5.77614 7.5 5.5V3.5ZM9.77058 9.16276C9.61253 8.83541 9.5 8.40338 9.5 7.79V6H15.5V7.79C15.5 8.40338 15.3875 8.83541 15.2294 9.16276C15.0707 9.49155 14.8521 9.74393 14.5959 9.98363C14.4768 10.095 14.3544 10.1995 14.2237 10.311L14.1861 10.343C14.045 10.4635 13.894 10.5935 13.7512 10.7338C13.4611 11.0188 13.1846 11.3652 13.0257 11.8419C12.9914 11.9445 12.9914 12.0555 13.0257 12.1581C13.1846 12.6348 13.4611 12.9812 13.7512 13.2662C13.894 13.4065 14.045 13.5365 14.1861 13.657L14.2237 13.689C14.3543 13.8005 14.4768 13.905 14.5959 14.0164C14.8521 14.2561 15.0707 14.5084 15.2294 14.8372C15.3875 15.1646 15.5 15.5966 15.5 16.21V18H9.5V16.21C9.5 15.5966 9.61253 15.1646 9.77058 14.8372C9.92932 14.5084 10.1479 14.2561 10.4041 14.0164C10.5232 13.905 10.6457 13.8005 10.7764 13.689L10.8139 13.657C10.955 13.5365 11.106 13.4065 11.2488 13.2662C11.5389 12.9812 11.8154 12.6348 11.9743 12.1581C12.0086 12.0555 12.0086 11.9445 11.9743 11.8419C11.8154 11.3652 11.5389 11.0188 11.2488 10.7338C11.106 10.5935 10.955 10.4635 10.8139 10.343L10.7764 10.311C10.6457 10.1995 10.5232 10.095 10.4041 9.98363C10.1479 9.74393 9.92932 9.49155 9.77058 9.16276ZM8.5 5V4H16.5V5H8.5ZM16.5 19V20H8.5V19H16.5Z" fill="black"/>
</svg>
