<svg width="25" height="24" viewBox="0 0 25 24" fill="none" xmlns="http://www.w3.org/2000/svg">
<path fill-rule="evenodd" clip-rule="evenodd" d="M2.5 12C2.5 6.47715 6.97715 2 12.5 2C18.0228 2 22.5 6.47715 22.5 12C22.5 17.5228 18.0228 22 12.5 22C6.97715 22 2.5 17.5228 2.5 12ZM17.3254 8.12038C17.5351 8.30009 17.5593 8.61574 17.3796 8.8254L11.3796 15.8254C11.289 15.9311 11.1584 15.9943 11.0192 15.9996C10.88 16.005 10.7449 15.952 10.6464 15.8536L7.64645 12.8536C7.45118 12.6583 7.45118 12.3417 7.64645 12.1465C7.84171 11.9512 8.15829 11.9512 8.35355 12.1465L10.9718 14.7647L16.6204 8.17461C16.8001 7.96495 17.1157 7.94067 17.3254 8.12038Z" fill="black"/>
</svg>
