<svg width="25" height="24" viewBox="0 0 25 24" fill="none" xmlns="http://www.w3.org/2000/svg">
<path d="M17.3633 8.16157C17.561 8.33101 17.5839 8.62861 17.4144 8.82629L11.3964 15.8474C11.3109 15.9471 11.1878 16.0066 11.0565 16.0116C10.9253 16.0167 10.798 15.9668 10.7051 15.8739L7.69609 12.8649C7.51199 12.6808 7.51199 12.3823 7.69609 12.1982C7.88019 12.0141 8.17867 12.0141 8.36277 12.1982L11.0118 14.8473L16.6986 8.21271C16.868 8.01503 17.1656 7.99214 17.3633 8.16157Z" fill="black"/>
<path fill-rule="evenodd" clip-rule="evenodd" d="M2.54297 12.03C2.54297 6.50718 7.02012 2.03003 12.543 2.03003C18.0658 2.03003 22.543 6.50718 22.543 12.03C22.543 17.5529 18.0658 22.03 12.543 22.03C7.02012 22.03 2.54297 17.5529 2.54297 12.03ZM12.543 2.97286C7.54083 2.97286 3.4858 7.02789 3.4858 12.03C3.4858 17.0322 7.54083 21.0872 12.543 21.0872C17.5451 21.0872 21.6001 17.0322 21.6001 12.03C21.6001 7.02789 17.5451 2.97286 12.543 2.97286Z" fill="black"/>
</svg>
