<svg width="25" height="24" viewBox="0 0 25 24" fill="none" xmlns="http://www.w3.org/2000/svg">
<path fill-rule="evenodd" clip-rule="evenodd" d="M12.5002 2.98992C12.4424 2.96927 12.3799 2.95899 12.3148 2.96124C10.7313 3.0161 9.34739 3.69269 8.2807 4.80599C7.36725 5.74699 6.81004 7.07969 6.59907 8.33447C6.59682 8.34786 6.59512 8.36133 6.59396 8.37486L6.50175 9.45529L6.50068 9.4705L6.49738 9.5309C6.49438 9.58296 6.48955 9.66026 6.48257 9.75571C6.46849 9.94806 6.4457 10.214 6.41097 10.5082C6.33748 11.1307 6.22334 11.7593 6.07508 12.1211C5.94352 12.4421 5.71205 12.8214 5.38715 13.3497C5.31394 13.4688 5.23679 13.5942 5.15692 13.7256C4.74724 14.3997 4.27722 15.2164 3.94895 16.1428C3.92424 16.2126 3.89823 16.2829 3.87083 16.3567C3.87083 16.3567 3.87083 16.3567 3.87083 16.3567C3.86692 16.3672 3.86297 16.3778 3.859 16.3885L3.84991 16.4129C3.69003 16.8424 3.4914 17.376 3.50029 18.0145C3.5079 18.5613 3.95333 19.0006 4.50019 19.0006H20.5002C21.0471 19.0006 21.4925 18.5613 21.5001 18.0145C21.509 17.3757 21.3102 16.8419 21.1502 16.412L21.1411 16.3876C21.1094 16.3024 21.0796 16.2222 21.0514 16.1426C20.7307 15.2383 20.2908 14.4297 19.8869 13.7448C19.7482 13.5095 19.6156 13.2916 19.4931 13.0902L19.4925 13.0891C19.2438 12.6804 19.0436 12.3506 18.8948 12.0531C18.7467 11.7569 18.6563 11.1943 18.6266 10.5774C18.6232 10.5057 18.6048 10.4383 18.5747 10.378C18.5481 10.136 18.5299 9.91924 18.5179 9.75571C18.5109 9.66035 18.5061 9.58296 18.5031 9.5309L18.4998 9.4705L18.4987 9.45529L18.4065 8.37486C18.4056 8.36471 18.4045 8.3546 18.403 8.34453C18.4027 8.34285 18.4025 8.34117 18.4022 8.3395C18.4019 8.33782 18.4017 8.33614 18.4014 8.33447C18.1904 7.07972 17.6332 5.74706 16.7198 4.80606C15.6531 3.69273 14.2692 3.0161 12.6857 2.96124C12.6206 2.95899 12.558 2.96927 12.5002 2.98992ZM12.5004 8.5C12.7765 8.5 13.0004 8.72386 13.0004 9V11.5H15.5004C15.7765 11.5 16.0004 11.7239 16.0004 12C16.0004 12.2761 15.7765 12.5 15.5004 12.5H13.0004V15C13.0004 15.2761 12.7765 15.5 12.5004 15.5C12.2243 15.5 12.0004 15.2761 12.0004 15V12.5H9.5004C9.22425 12.5 9.0004 12.2761 9.0004 12C9.0004 11.7239 9.22425 11.5 9.5004 11.5H12.0004V9C12.0004 8.72386 12.2243 8.5 12.5004 8.5Z" fill="black"/>
<path d="M9.46862 20.2502C9.5579 20.0954 9.72303 20 9.90173 20H15.099C15.2777 20 15.4429 20.0954 15.5322 20.2502C15.6214 20.405 15.6213 20.5957 15.5318 20.7504C14.9274 21.7952 13.7965 22.5 12.5004 22.5C11.2043 22.5 10.0733 21.7952 9.46893 20.7504C9.37945 20.5957 9.37933 20.405 9.46862 20.2502Z" fill="black"/>
</svg>
