<svg width="25" height="24" viewBox="0 0 25 24" fill="none" xmlns="http://www.w3.org/2000/svg">
<path fill-rule="evenodd" clip-rule="evenodd" d="M2.5 12C2.5 6.47715 6.97715 2 12.5 2C18.0228 2 22.5 6.47715 22.5 12C22.5 17.5228 18.0228 22 12.5 22C6.97715 22 2.5 17.5228 2.5 12ZM12.5 3C7.52944 3 3.5 7.02944 3.5 12C3.5 14.6449 4.64088 17.0233 6.45735 18.6699L17.8237 4.83267C17.8393 4.81358 17.8561 4.79595 17.8739 4.7798C16.3742 3.66178 14.5144 3 12.5 3ZM12.5 21C10.5338 21 8.71479 20.3695 7.23425 19.2996L18.5964 5.46741C18.6104 5.45037 18.6231 5.43268 18.6344 5.41446C20.3975 7.05746 21.5 9.39997 21.5 12C21.5 16.9706 17.4706 21 12.5 21Z" fill="black"/>
</svg>
