<svg width="25" height="24" viewBox="0 0 25 24" fill="none" xmlns="http://www.w3.org/2000/svg">
<path d="M4 3C4.27614 3 4.5 3.22386 4.5 3.5V16.4077L9.59184 9.21121C9.74583 8.99356 10.0435 8.93503 10.2684 9.07817L15.4301 12.3628L19.7929 8H18C17.7239 8 17.5 7.77614 17.5 7.5C17.5 7.22386 17.7239 7 18 7H21C21.2761 7 21.5 7.22386 21.5 7.5V10.5C21.5 10.7761 21.2761 11 21 11C20.7239 11 20.5 10.7761 20.5 10.5V8.70711L15.8536 13.3536C15.6878 13.5193 15.4293 13.5476 15.2316 13.4218L10.1332 10.1774L4.5 18.139V20H22C22.2761 20 22.5 20.2239 22.5 20.5C22.5 20.7761 22.2761 21 22 21H4C3.72386 21 3.5 20.7761 3.5 20.5V3.5C3.5 3.22386 3.72386 3 4 3Z" fill="black"/>
</svg>
