<svg width="25" height="24" viewBox="0 0 25 24" fill="none" xmlns="http://www.w3.org/2000/svg">
<path d="M17.5 13C18.0523 13 18.5 12.5523 18.5 12C18.5 11.4477 18.0523 11 17.5 11C16.9477 11 16.5 11.4477 16.5 12C16.5 12.5523 16.9477 13 17.5 13Z" fill="black"/>
<path fill-rule="evenodd" clip-rule="evenodd" d="M2.5 16.5C2.5 17.8549 3.54703 19 4.89474 19H19.1053C20.453 19 21.5 17.8549 21.5 16.5V15H22C22.2761 15 22.5 14.7761 22.5 14.5V9.5C22.5 9.22386 22.2761 9 22 9H21.5V7.5C21.5 6.1451 20.453 5 19.1053 5H4.89474C3.54703 5 2.5 6.1451 2.5 7.5V16.5ZM3.5 7.5C3.5 6.64576 4.14957 6 4.89474 6H5.5V18H4.89474C4.14957 18 3.5 17.3542 3.5 16.5V7.5ZM15.5 12C15.5 10.8954 16.3954 10 17.5 10H21.5V14H17.5C16.3954 14 15.5 13.1046 15.5 12ZM14.5 12C14.5 10.3431 15.8431 9 17.5 9H20.5V7.5C20.5 6.64576 19.8504 6 19.1053 6H6.5V18H19.1053C19.8504 18 20.5 17.3542 20.5 16.5V15H17.5C15.8431 15 14.5 13.6569 14.5 12Z" fill="black"/>
</svg>
