<svg width="25" height="24" viewBox="0 0 25 24" fill="none" xmlns="http://www.w3.org/2000/svg">
<path d="M6.09091 3C5.68234 3 5.28268 3.14838 4.98166 3.42432C4.67918 3.70159 4.5 4.08744 4.5 4.5V19.2019C4.5 19.6534 4.64997 20.1003 4.93674 20.4415C5.22569 20.7853 5.63814 21 6.09091 21H12C12.2761 21 12.5 20.7761 12.5 20.5C12.5 20.2239 12.2761 20 12 20H6.09091C5.96503 20 5.82252 19.9412 5.7023 19.7981C5.5799 19.6525 5.5 19.439 5.5 19.2019V6H16.5V12.5C16.5 12.7761 16.7239 13 17 13C17.2761 13 17.5 12.7761 17.5 12.5V4.5C17.5 4.08744 17.3208 3.70159 17.0183 3.42432C16.7173 3.14838 16.3177 3 15.9091 3H6.09091Z" fill="black"/>
<path d="M6.5 8.5C6.5 8.22386 6.72386 8 7 8H15C15.2761 8 15.5 8.22386 15.5 8.5C15.5 8.77614 15.2761 9 15 9H7C6.72386 9 6.5 8.77614 6.5 8.5Z" fill="black"/>
<path d="M7 10.5C6.72386 10.5 6.5 10.7239 6.5 11C6.5 11.2761 6.72386 11.5 7 11.5H13C13.2761 11.5 13.5 11.2761 13.5 11C13.5 10.7239 13.2761 10.5 13 10.5H7Z" fill="black"/>
<path d="M6.5 13.5C6.5 13.2239 6.72386 13 7 13H11C11.2761 13 11.5 13.2239 11.5 13.5C11.5 13.7761 11.2761 14 11 14H7C6.72386 14 6.5 13.7761 6.5 13.5Z" fill="black"/>
<path fill-rule="evenodd" clip-rule="evenodd" d="M13.5193 16.6953C13.5067 16.7391 13.5 16.7854 13.5 16.8333V19.9444C13.5 20.3219 13.6742 20.6438 13.9128 20.8946C14.149 21.1428 14.4672 21.3435 14.8221 21.5012C15.5331 21.8173 16.4803 22 17.5 22C18.5197 22 19.4669 21.8173 20.1779 21.5012C20.5328 21.3435 20.851 21.1428 21.0872 20.8946C21.3258 20.6438 21.5 20.3219 21.5 19.9444V16.8333C21.5 16.7854 21.4933 16.7391 21.4807 16.6953C21.4934 16.6138 21.5 16.5301 21.5 16.4444C21.5 15.6435 20.9215 15.0234 20.2177 14.6324C19.4969 14.232 18.5351 14 17.5 14C16.4649 14 15.5031 14.232 14.7823 14.6324C14.0785 15.0234 13.5 15.6435 13.5 16.4444C13.5 16.5301 13.5066 16.6138 13.5193 16.6953ZM20.5 18.0821C20.4091 18.1445 20.3146 18.2026 20.2177 18.2565C19.4969 18.6569 18.5351 18.8889 17.5 18.8889C16.4649 18.8889 15.5031 18.6569 14.7823 18.2565C14.6854 18.2026 14.5909 18.1445 14.5 18.0821V18.3889C14.5 18.441 14.5217 18.5283 14.6372 18.6497C14.7553 18.7738 14.9497 18.9082 15.2282 19.032C15.7839 19.279 16.5867 19.4445 17.5 19.4445C18.4133 19.4445 19.2161 19.279 19.7718 19.032C20.0503 18.9082 20.2447 18.7738 20.3628 18.6497C20.4783 18.5283 20.5 18.441 20.5 18.3889V18.0821ZM20.5 19.7843C20.3972 19.8425 20.2894 19.8963 20.1779 19.9458C19.4669 20.2618 18.5197 20.4445 17.5 20.4445C16.4803 20.4445 15.5331 20.2618 14.8221 19.9458C14.7106 19.8963 14.6028 19.8425 14.5 19.7843V19.9444C14.5 19.9965 14.5217 20.0837 14.6372 20.2052C14.7553 20.3292 14.9497 20.4637 15.2282 20.5874C15.7839 20.8344 16.5867 21 17.5 21C18.4133 21 19.2161 20.8344 19.7718 20.5874C20.0503 20.4637 20.2447 20.3292 20.3628 20.2052C20.4783 20.0837 20.5 19.9965 20.5 19.9444V19.7843ZM14.5 16.4444C14.5 16.1715 14.705 15.8193 15.2679 15.5066C15.8139 15.2033 16.6021 15 17.5 15C18.3979 15 19.1861 15.2033 19.7321 15.5066C20.295 15.8193 20.5 16.1715 20.5 16.4444C20.5 16.7174 20.295 17.0696 19.7321 17.3823C19.1861 17.6856 18.3979 17.8889 17.5 17.8889C16.6021 17.8889 15.8139 17.6856 15.2679 17.3823C14.705 17.0696 14.5 16.7174 14.5 16.4444Z" fill="black"/>
</svg>
