<svg width="25" height="24" viewBox="0 0 25 24" fill="none" xmlns="http://www.w3.org/2000/svg">
<path d="M4.35355 2.85355C4.54882 2.65829 4.54882 2.34171 4.35355 2.14645C4.15829 1.95118 3.84171 1.95118 3.64645 2.14645L1.64645 4.14645C1.45118 4.34171 1.45118 4.65829 1.64645 4.85355L3.64645 6.85355C3.84171 7.04882 4.15829 7.04882 4.35355 6.85355C4.54882 6.65829 4.54882 6.34171 4.35355 6.14645L3.20711 5H7C7.27614 5 7.5 4.77614 7.5 4.5C7.5 4.22386 7.27614 4 7 4H3.20711L4.35355 2.85355Z" fill="black"/>
<path d="M20.6464 21.1464C20.4512 21.3417 20.4512 21.6583 20.6464 21.8536C20.8417 22.0488 21.1583 22.0488 21.3536 21.8536L23.3536 19.8536C23.5488 19.6583 23.5488 19.3417 23.3536 19.1464L21.3536 17.1464C21.1583 16.9512 20.8417 16.9512 20.6464 17.1464C20.4512 17.3417 20.4512 17.6583 20.6464 17.8536L21.7929 19H18C17.7239 19 17.5 19.2239 17.5 19.5C17.5 19.7761 17.7239 20 18 20H21.7929L20.6464 21.1464Z" fill="black"/>
<path d="M16.32 10.58C16.6395 10.5578 16.9393 10.4175 17.1611 10.1865C17.3829 9.95542 17.5108 9.65016 17.52 9.33002C17.52 8.71002 17.2 8.33999 16.39 8.04999C15.81 7.83999 15.58 7.66003 15.58 7.47003C15.58 7.28003 15.72 7.09003 16.16 7.09003C16.5062 7.0921 16.8477 7.17061 17.16 7.32001L17.35 6.54999C17.0347 6.41058 16.6947 6.33581 16.35 6.33002V5.72998H15.68V6.38C15.3747 6.40686 15.0899 6.54492 14.8797 6.76801C14.6695 6.99109 14.5486 7.28365 14.54 7.59003C14.54 8.25003 15.03 8.58002 15.76 8.83002C16.26 9.00002 16.48 9.14998 16.48 9.41998C16.48 9.68998 16.21 9.84003 15.83 9.84003C15.4341 9.83682 15.0454 9.73357 14.7 9.53998L14.5 10.34C14.8535 10.5209 15.2431 10.62 15.64 10.63V11.27H16.32V10.58Z" fill="black"/>
<path d="M10.91 17.51C10.5387 17.6986 10.1262 17.7914 9.70997 17.7801C9.42326 17.7876 9.13788 17.7384 8.87018 17.6355C8.60249 17.5325 8.35774 17.3777 8.14997 17.18C7.89846 16.9207 7.71918 16.6001 7.62997 16.25H7.08997V15.7H7.54997V15.52C7.54546 15.4535 7.54546 15.3866 7.54997 15.32H7.09997V14.77H7.62997C7.72523 14.4261 7.90781 14.1126 8.15997 13.86C8.60687 13.4355 9.20376 13.2054 9.81997 13.2201C10.191 13.2103 10.5596 13.2819 10.9 13.43L10.67 14.26C10.4335 14.1572 10.1778 14.106 9.91997 14.11C9.76474 14.1021 9.60952 14.1255 9.4635 14.1787C9.31748 14.232 9.18366 14.314 9.06997 14.42C8.97487 14.518 8.90608 14.6384 8.86997 14.77H10.56V15.32H8.72997C8.72575 15.38 8.72575 15.4401 8.72997 15.5C8.72569 15.5666 8.72569 15.6334 8.72997 15.7H10.56V16.25H8.86997C8.90899 16.3664 8.97396 16.4724 9.05997 16.56C9.17669 16.6675 9.31389 16.7504 9.46338 16.8037C9.61287 16.8569 9.77156 16.8795 9.92997 16.87C10.2293 16.8704 10.5254 16.8091 10.8 16.69L10.91 17.51Z" fill="black"/>
<path fill-rule="evenodd" clip-rule="evenodd" d="M9.5 8.5C9.5 4.91015 12.4101 2 16 2C19.5899 2 22.5 4.91015 22.5 8.5C22.5 12.0899 19.5899 15 16 15C15.8248 15 15.6512 14.9931 15.4795 14.9795C15.4931 15.1512 15.5 15.3248 15.5 15.5C15.5 19.0899 12.5899 22 9 22C5.41015 22 2.5 19.0899 2.5 15.5C2.5 11.9101 5.41015 9 9 9C9.17522 9 9.34882 9.00693 9.52054 9.02054C9.50693 8.84882 9.5 8.67522 9.5 8.5ZM16 3C12.9624 3 10.5 5.46243 10.5 8.5C10.5 11.5376 12.9624 14 16 14C19.0376 14 21.5 11.5376 21.5 8.5C21.5 5.46243 19.0376 3 16 3ZM9.68403 10.0421C10.2561 12.3932 12.1068 14.2439 14.4579 14.816C14.4857 15.0401 14.5 15.2684 14.5 15.5C14.5 18.5376 12.0376 21 9 21C5.96243 21 3.5 18.5376 3.5 15.5C3.5 12.4624 5.96243 10 9 10C9.23163 10 9.45992 10.0143 9.68403 10.0421Z" fill="black"/>
</svg>
