<svg width="25" height="24" viewBox="0 0 25 24" fill="none" xmlns="http://www.w3.org/2000/svg">
<path d="M18 18.03C17.7239 18.03 17.5 17.8061 17.5 17.53L17.5 14.53C17.5 14.2539 17.7239 14.03 18 14.03C18.2762 14.03 18.5 14.2539 18.5 14.53L18.5 17.53C18.5 17.8061 18.2762 18.03 18 18.03Z" fill="black"/>
<path fill-rule="evenodd" clip-rule="evenodd" d="M3.88137 12.581C3.45287 12.2618 3.10449 11.8467 2.86473 11.3692C2.62489 10.8915 2.5 10.3645 2.5 9.82999L2.5 2.53C2.5 2.25386 2.72386 2.03 3 2.03C3.27614 2.03 3.5 2.25386 3.5 2.53L3.5 9.83C3.5 10.2087 3.58848 10.5821 3.75839 10.9204C3.9283 11.2588 4.17494 11.5528 4.47864 11.779L10.5 16.2747L10.5 8.0194C10.4648 7.53191 10.6199 7.04939 10.9332 6.67347C11.2513 6.29176 11.7069 6.05066 12.2014 6.00237L12.3423 6.11062L12.3462 6.1132L12.3591 6.12205L16.4091 8.99204C16.428 9.0054 16.4459 9.02006 16.4627 9.03589C16.6427 9.20524 16.8784 9.3027 17.1252 9.30996C17.3926 9.30766 17.6486 9.2015 17.8392 9.01379C17.9293 8.92535 18.0016 8.81914 18.0505 8.70271C18.0994 8.58628 18.1245 8.46127 18.1245 8.335C18.1245 8.20872 18.0994 8.08371 18.0505 7.96728C18.0016 7.85085 17.93 7.74533 17.8399 7.65689L17.8361 7.6532L13.0761 2.88318C12.8811 2.68771 12.8814 2.37113 13.0769 2.17607C13.2723 1.98102 13.5889 1.98135 13.784 2.17681L17.5991 6L20.75 6C20.7662 6 20.7825 6.00079 20.7986 6.00237C21.2931 6.05066 21.7487 6.29176 22.0668 6.67347C22.3801 7.04939 22.5352 7.53191 22.5 8.01939L22.5 18.9806C22.5352 19.4681 22.3801 19.9506 22.0668 20.3265C21.7487 20.7082 21.2931 20.9493 20.7986 20.9976C20.7825 20.9992 20.7662 21 20.75 21L12.25 21C12.2338 21 12.2176 20.9992 12.2014 20.9976C11.7069 20.9493 11.2513 20.7082 10.9332 20.3265C10.6199 19.9506 10.4648 19.4681 10.5 18.9806L10.5 17.5227L3.88137 12.581ZM18.5959 7C18.7549 7.16926 18.8825 7.36572 18.9725 7.58021C19.0729 7.81921 19.1245 8.0758 19.1245 8.335C19.1245 8.59419 19.0729 8.85079 18.9725 9.08978C18.8723 9.32862 18.7254 9.54509 18.5406 9.72655C18.162 10.0992 17.6525 10.3087 17.1213 10.31L17.1085 10.3099C16.6251 10.2987 16.1623 10.1136 15.8047 9.78932L15.5 9.57343L15.5 20L20.7229 20C20.9475 19.9725 21.1535 19.8605 21.2986 19.6863C21.4484 19.5066 21.5214 19.2751 21.5018 19.0419C21.5006 19.028 21.5 19.014 21.5 19L21.5 8C21.5 7.986 21.5006 7.97201 21.5018 7.95806C21.5214 7.72491 21.4484 7.4934 21.2986 7.31365C21.1535 7.13946 20.9475 7.02745 20.7229 7L18.5959 7ZM13.5 8.15615L11.9899 7.08599C11.8799 7.14048 11.7814 7.21761 11.7014 7.31365C11.5516 7.4934 11.4786 7.72491 11.4982 7.95806C11.4994 7.97201 11.5 7.986 11.5 8L11.5 19C11.5 19.014 11.4994 19.028 11.4982 19.0419C11.4786 19.2751 11.5516 19.5066 11.7014 19.6863C11.8466 19.8605 12.0525 19.9725 12.2771 20L13.5 20L13.5 8.15615Z" fill="black"/>
<path d="M12.25 6C12.2338 6 12.2176 6.00079 12.2014 6.00237L12.25 6Z" fill="black"/>
</svg>
