<svg width="25" height="24" viewBox="0 0 25 24" fill="none" xmlns="http://www.w3.org/2000/svg">
<path d="M17 2C16.7239 2 16.5 2.22386 16.5 2.5C16.5 2.77614 16.7239 3 17 3H18.7847L15.4226 6.28645L10.7515 3.56786C10.58 3.46804 10.3657 3.4791 10.2053 3.59606L4.84535 7.50606C4.62225 7.6688 4.57333 7.98158 4.73607 8.20467C4.89881 8.42776 5.21159 8.47668 5.43468 8.31394L10.5308 4.59644L15.2485 7.34214C15.4428 7.45523 15.6887 7.42472 15.8495 7.26755L19.5 3.6992V5.5C19.5 5.77614 19.7239 6 20 6C20.2761 6 20.5 5.77614 20.5 5.5V2.5C20.5 2.22386 20.2761 2 20 2H17Z" fill="black"/>
<path d="M14 9.5C14 9.22386 14.2239 9 14.5 9H17.5C17.7761 9 18 9.22386 18 9.5V11.5C18 11.7761 17.7761 12 17.5 12C17.2239 12 17 11.7761 17 11.5V10H15V12.5C15 12.7761 14.7761 13 14.5 13C14.2239 13 14 12.7761 14 12.5V9.5Z" fill="black"/>
<path fill-rule="evenodd" clip-rule="evenodd" d="M9 10C8.72386 10 8.5 10.2239 8.5 10.5V19H7.5V12.5C7.5 12.2239 7.27614 12 7 12H4C3.72386 12 3.5 12.2239 3.5 12.5V19H2.5C2.22386 19 2 19.2239 2 19.5C2 19.7761 2.22386 20 2.5 20H14.2578C15.065 21.206 16.4398 22 18 22C20.4853 22 22.5 19.9853 22.5 17.5C22.5 15.0147 20.4853 13 18 13C15.5147 13 13.5 15.0147 13.5 17.5C13.5 18.026 13.5902 18.5308 13.7561 19H12.5V10.5C12.5 10.2239 12.2761 10 12 10H9ZM15.0747 19.4224C15.3372 19.821 15.679 20.1628 16.0776 20.4253C15.9735 20.2001 15.8818 19.9558 15.804 19.696C15.5442 19.6182 15.2999 19.5265 15.0747 19.4224ZM15.5649 18.5465C15.5064 18.5208 15.4498 18.4943 15.3952 18.467C14.7245 18.1316 14.5 17.7609 14.5 17.5C14.5 17.2391 14.7245 16.8684 15.3952 16.533C15.4498 16.5057 15.5064 16.4792 15.5649 16.4535C15.5223 16.7906 15.5 17.1412 15.5 17.5C15.5 17.8588 15.5223 18.2094 15.5649 18.5465ZM16.9535 19.9351C16.9792 19.9936 17.0057 20.0502 17.033 20.1048C17.3684 20.7755 17.7391 21 18 21C18.2609 21 18.6316 20.7755 18.967 20.1048C18.9943 20.0502 19.0208 19.9936 19.0465 19.9351C18.7094 19.9777 18.3588 20 18 20C17.6412 20 17.2906 19.9777 16.9535 19.9351ZM19.3706 18.8706C18.9516 18.9533 18.4894 19 18 19C17.5106 19 17.0484 18.9533 16.6294 18.8706C16.5467 18.4516 16.5 17.9894 16.5 17.5C16.5 17.0106 16.5467 16.5484 16.6294 16.1294C17.0484 16.0467 17.5106 16 18 16C18.4894 16 18.9516 16.0467 19.3706 16.1294C19.4533 16.5484 19.5 17.0106 19.5 17.5C19.5 17.9894 19.4533 18.4516 19.3706 18.8706ZM20.196 19.696C20.1182 19.9558 20.0265 20.2001 19.9224 20.4253C20.321 20.1628 20.6628 19.821 20.9253 19.4224C20.7001 19.5265 20.4558 19.6182 20.196 19.696ZM20.9253 15.5776C20.6628 15.179 20.321 14.8372 19.9224 14.5747C20.0265 14.7999 20.1182 15.0442 20.196 15.304C20.4558 15.3818 20.7001 15.4735 20.9253 15.5776ZM20.4351 16.4535C20.4936 16.4792 20.5502 16.5057 20.6048 16.533C21.2755 16.8684 21.5 17.2391 21.5 17.5C21.5 17.7609 21.2755 18.1316 20.6048 18.467C20.5502 18.4943 20.4936 18.5208 20.4351 18.5465C20.4777 18.2094 20.5 17.8588 20.5 17.5C20.5 17.1412 20.4777 16.7906 20.4351 16.4535ZM19.0465 15.0649C19.0208 15.0064 18.9943 14.9498 18.967 14.8952C18.6316 14.2245 18.2609 14 18 14C17.7391 14 17.3684 14.2245 17.033 14.8952C17.0057 14.9498 16.9792 15.0064 16.9535 15.0649C17.2906 15.0223 17.6412 15 18 15C18.3588 15 18.7094 15.0223 19.0465 15.0649ZM15.804 15.304C15.8818 15.0442 15.9735 14.7999 16.0776 14.5747C15.679 14.8372 15.3372 15.179 15.0747 15.5776C15.2999 15.4735 15.5442 15.3818 15.804 15.304ZM11.5 19V11H9.5V19H11.5ZM6.5 13V19H4.5V13H6.5Z" fill="black"/>
</svg>
