<svg width="25" height="24" viewBox="0 0 25 24" fill="none" xmlns="http://www.w3.org/2000/svg">
<path d="M5 14C4.72386 14 4.5 14.2239 4.5 14.5C4.5 14.7761 4.72386 15 5 15H9C9.27614 15 9.5 14.7761 9.5 14.5C9.5 14.2239 9.27614 14 9 14H5Z" fill="black"/>
<path fill-rule="evenodd" clip-rule="evenodd" d="M5 5C3.61929 5 2.5 6.11929 2.5 7.5V16.5C2.5 17.8807 3.61929 19 5 19H20C21.3807 19 22.5 17.8807 22.5 16.5V7.5C22.5 6.11929 21.3807 5 20 5H5ZM5 6C4.17157 6 3.5 6.67157 3.5 7.5V9H21.5V7.5C21.5 6.67157 20.8284 6 20 6H5ZM20 18C20.8284 18 21.5 17.3284 21.5 16.5V12H3.5V16.5C3.5 17.3284 4.17157 18 5 18H20Z" fill="black"/>
</svg>
