<svg width="25" height="24" viewBox="0 0 25 24" fill="none" xmlns="http://www.w3.org/2000/svg">
<path d="M9.5 14C10.0523 14 10.5 13.5523 10.5 13C10.5 12.4477 10.0523 12 9.5 12C8.94772 12 8.5 12.4477 8.5 13C8.5 13.5523 8.94772 14 9.5 14Z" fill="black"/>
<path d="M9.5 17C10.0523 17 10.5 16.5523 10.5 16C10.5 15.4477 10.0523 15 9.5 15C8.94772 15 8.5 15.4477 8.5 16C8.5 16.5523 8.94772 17 9.5 17Z" fill="black"/>
<path d="M10.5 19C10.5 19.5523 10.0523 20 9.5 20C8.94772 20 8.5 19.5523 8.5 19C8.5 18.4477 8.94772 18 9.5 18C10.0523 18 10.5 18.4477 10.5 19Z" fill="black"/>
<path d="M14.5 20C15.0523 20 15.5 19.5523 15.5 19C15.5 18.4477 15.0523 18 14.5 18C13.9477 18 13.5 18.4477 13.5 19C13.5 19.5523 13.9477 20 14.5 20Z" fill="black"/>
<path d="M12 20C12.5523 20 13 19.5523 13 19C13 18.4477 12.5523 18 12 18C11.4477 18 11 18.4477 11 19C11 19.5523 11.4477 20 12 20Z" fill="black"/>
<path d="M14.5 17C15.0523 17 15.5 16.5523 15.5 16C15.5 15.4477 15.0523 15 14.5 15C13.9477 15 13.5 15.4477 13.5 16C13.5 16.5523 13.9477 17 14.5 17Z" fill="black"/>
<path d="M12 17C12.5523 17 13 16.5523 13 16C13 15.4477 12.5523 15 12 15C11.4477 15 11 15.4477 11 16C11 16.5523 11.4477 17 12 17Z" fill="black"/>
<path d="M15.5 13C15.5 13.5523 15.0523 14 14.5 14C13.9477 14 13.5 13.5523 13.5 13C13.5 12.4477 13.9477 12 14.5 12C15.0523 12 15.5 12.4477 15.5 13Z" fill="black"/>
<path d="M13 13C13 13.5523 12.5523 14 12 14C11.4477 14 11 13.5523 11 13C11 12.4477 11.4477 12 12 12C12.5523 12 13 12.4477 13 13Z" fill="black"/>
<path fill-rule="evenodd" clip-rule="evenodd" d="M8.5 9C8.5 8.44772 8.94772 8 9.5 8H14.5C15.0523 8 15.5 8.44772 15.5 9V10C15.5 10.5523 15.0523 11 14.5 11H9.5C8.94772 11 8.5 10.5523 8.5 10V9ZM9.5 9V10H14.5V9H9.5Z" fill="black"/>
<path fill-rule="evenodd" clip-rule="evenodd" d="M8.70764 3.09438C8.83803 3.00041 9.00564 2.97484 9.15811 3.02566L12 3.97296L14.8419 3.02566C14.9944 2.97484 15.162 3.00041 15.2924 3.09438C15.4227 3.18836 15.5 3.33928 15.5 3.5V6C16.6046 6 17.5 6.89543 17.5 8V20C17.5 21.1046 16.6046 22 15.5 22H8.5C7.39543 22 6.5 21.1046 6.5 20V8C6.5 6.89543 7.39543 6 8.5 6V3.5C8.5 3.33928 8.57726 3.18836 8.70764 3.09438ZM11.8419 4.97435L9.5 4.19372V6H14.5V4.19372L12.1581 4.97435C12.0555 5.00856 11.9445 5.00856 11.8419 4.97435ZM8.5 7C7.94772 7 7.5 7.44772 7.5 8V20C7.5 20.5523 7.94772 21 8.5 21H15.5C16.0523 21 16.5 20.5523 16.5 20V8C16.5 7.44772 16.0523 7 15.5 7H8.5Z" fill="black"/>
<path d="M19.5 9C19.5 8.72386 19.2761 8.5 19 8.5C18.7239 8.5 18.5 8.72386 18.5 9V19.5C18.5 19.7761 18.7239 20 19 20C19.2761 20 19.5 19.7761 19.5 19.5V9Z" fill="black"/>
</svg>
