<svg width="25" height="24" viewBox="0 0 25 24" fill="none" xmlns="http://www.w3.org/2000/svg">
<path fill-rule="evenodd" clip-rule="evenodd" d="M4.5 5.5C3.94772 5.5 3.5 5.94772 3.5 6.5V15.5C3.5 16.0523 3.94771 16.5 4.5 16.5H13.5C13.7761 16.5 14 16.2761 14 16C14 15.7239 13.7761 15.5 13.5 15.5H7.5C7.5 14.7044 7.18393 13.9413 6.62132 13.3787C6.05871 12.8161 5.29565 12.5 4.5 12.5V9.5C5.29565 9.5 6.05871 9.18393 6.62132 8.62132C7.18393 8.05871 7.5 7.29565 7.5 6.5H16.5C16.5 7.29565 16.8161 8.05871 17.3787 8.62132C17.9413 9.18393 18.7044 9.5 19.5 9.5V10C19.5 10.2761 19.7239 10.5 20 10.5C20.2761 10.5 20.5 10.2761 20.5 10V6.5C20.5 5.94772 20.0523 5.5 19.5 5.5H4.5ZM18.0858 7.91421C18.4609 8.28929 18.9696 8.5 19.5 8.5V6.5H17.5C17.5 7.03043 17.7107 7.53914 18.0858 7.91421ZM6.5 6.5L4.5 6.5V8.5C5.03043 8.5 5.53914 8.28929 5.91422 7.91421C6.28929 7.53914 6.5 7.03043 6.5 6.5ZM5.91422 14.0858C5.53914 13.7107 5.03043 13.5 4.5 13.5V15.5H6.5C6.5 14.9696 6.28929 14.4609 5.91422 14.0858Z" fill="black"/>
<path d="M7.5 10C7.5 9.72386 7.27614 9.5 7 9.5C6.72386 9.5 6.5 9.72386 6.5 10V12C6.5 12.2761 6.72386 12.5 7 12.5C7.27614 12.5 7.5 12.2761 7.5 12V10Z" fill="black"/>
<path d="M17.5 10C17.5 9.72386 17.2761 9.5 17 9.5C16.7239 9.5 16.5 9.72386 16.5 10V10.5C16.5 10.7761 16.7239 11 17 11C17.2761 11 17.5 10.7761 17.5 10.5V10Z" fill="black"/>
<path fill-rule="evenodd" clip-rule="evenodd" d="M9.5 11C9.5 9.61929 10.6193 8.5 12 8.5C13.3807 8.5 14.5 9.61929 14.5 11C14.5 12.3807 13.3807 13.5 12 13.5C10.6193 13.5 9.5 12.3807 9.5 11ZM12 9.5C11.1716 9.5 10.5 10.1716 10.5 11C10.5 11.8284 11.1716 12.5 12 12.5C12.8284 12.5 13.5 11.8284 13.5 11C13.5 10.1716 12.8284 9.5 12 9.5Z" fill="black"/>
<path d="M19 12.8787C19.2761 12.8787 19.5 13.1026 19.5 13.3787V15H21.1213C21.3975 15 21.6213 15.2239 21.6213 15.5C21.6213 15.7762 21.3975 16 21.1213 16H19.5V17.6213C19.5 17.8975 19.2761 18.1213 19 18.1213C18.7239 18.1213 18.5 17.8975 18.5 17.6213V16H16.8787C16.6025 16 16.3787 15.7762 16.3787 15.5C16.3787 15.2239 16.6025 15 16.8787 15H18.5V13.3787C18.5 13.1026 18.7239 12.8787 19 12.8787Z" fill="black"/>
<path fill-rule="evenodd" clip-rule="evenodd" d="M19 11C16.5147 11 14.5 13.0147 14.5 15.5C14.5 17.9853 16.5147 20 19 20C21.4853 20 23.5 17.9853 23.5 15.5C23.5 13.0147 21.4853 11 19 11ZM15.5 15.5C15.5 13.567 17.067 12 19 12C20.933 12 22.5 13.567 22.5 15.5C22.5 17.433 20.933 19 19 19C17.067 19 15.5 17.433 15.5 15.5Z" fill="black"/>
</svg>
