<svg width="25" height="24" viewBox="0 0 25 24" fill="none" xmlns="http://www.w3.org/2000/svg">
<path fill-rule="evenodd" clip-rule="evenodd" d="M2.5 7C2.5 6.44772 2.94772 6 3.5 6H20.5C21.0523 6 21.5 6.44771 21.5 7V10.5C21.5 10.7761 21.2761 11 21 11C20.7239 11 20.5 10.7761 20.5 10.5V10C19.7044 10 18.9413 9.68393 18.3787 9.12132C17.8161 8.55871 17.5 7.79565 17.5 7H6.5C6.5 7.79565 6.18393 8.55871 5.62132 9.12132C5.05871 9.68393 4.29565 10 3.5 10V13C4.29565 13 5.05871 13.3161 5.62132 13.8787C6.18393 14.4413 6.5 15.2044 6.5 16H12.5C12.7761 16 13 16.2239 13 16.5C13 16.7761 12.7761 17 12.5 17H3.5C2.94771 17 2.5 16.5523 2.5 16V7ZM19.0858 8.41421C18.7107 8.03914 18.5 7.53043 18.5 7H20.5V9C19.9696 9 19.4609 8.78929 19.0858 8.41421ZM3.5 7L5.5 7C5.5 7.53043 5.28929 8.03914 4.91422 8.41421C4.53914 8.78929 4.03043 9 3.5 9V7ZM4.91422 14.5858C5.28929 14.9609 5.5 15.4696 5.5 16H3.5V14C4.03043 14 4.53914 14.2107 4.91422 14.5858Z" fill="black"/>
<path d="M7.5 10.5C7.5 10.2239 7.27614 10 7 10C6.72386 10 6.5 10.2239 6.5 10.5V12.5C6.5 12.7761 6.72386 13 7 13C7.27614 13 7.5 12.7761 7.5 12.5V10.5Z" fill="black"/>
<path fill-rule="evenodd" clip-rule="evenodd" d="M15.5752 12.7952C16.4769 12.2942 17.6887 12 19 12C20.3113 12 21.5231 12.2942 22.4248 12.7952C23.3096 13.2867 24 14.0456 24 15C24 15.1138 23.9902 15.2248 23.9714 15.3329C23.9899 15.3852 24 15.4414 24 15.5V19.5C24 19.9388 23.7978 20.3192 23.5086 20.6232C23.2218 20.9245 22.8304 21.1732 22.385 21.3711C21.4931 21.7676 20.2959 22 19 22C17.7041 22 16.5069 21.7676 15.615 21.3711C15.1696 21.1732 14.7782 20.9245 14.4914 20.6232C14.2022 20.3192 14 19.9388 14 19.5V15.5C14 15.4414 14.0101 15.3852 14.0286 15.3329C14.0098 15.2248 14 15.1138 14 15C14 14.0456 14.6904 13.2867 15.5752 12.7952ZM16.0608 13.6693C15.3169 14.0826 15 14.5737 15 15C15 15.4263 15.3169 15.9174 16.0608 16.3307C16.7878 16.7346 17.826 17 19 17C20.174 17 21.2122 16.7346 21.9392 16.3307C22.6831 15.9174 23 15.4263 23 15C23 14.5737 22.6831 14.0826 21.9392 13.6693C21.2122 13.2654 20.174 13 19 13C17.826 13 16.7878 13.2654 16.0608 13.6693ZM22.4248 17.2048C22.6289 17.0915 22.8227 16.9638 23 16.8229V17.5C23 17.6135 22.9504 17.7592 22.7842 17.9338C22.6155 18.111 22.3479 18.2933 21.9789 18.4573C21.2422 18.7847 20.1894 19 19 19C17.8106 19 16.7578 18.7847 16.0211 18.4573C15.6521 18.2933 15.3845 18.111 15.2158 17.9338C15.0496 17.7592 15 17.6135 15 17.5V16.8229C15.1773 16.9638 15.3711 17.0915 15.5752 17.2048C16.4769 17.7058 17.6887 18 19 18C20.3113 18 21.5231 17.7058 22.4248 17.2048ZM22.385 19.3711C22.6053 19.2732 22.8123 19.163 23 19.04V19.5C23 19.6135 22.9504 19.7592 22.7842 19.9338C22.6155 20.111 22.3479 20.2933 21.9789 20.4573C21.2422 20.7847 20.1894 21 19 21C17.8106 21 16.7578 20.7847 16.0211 20.4573C15.6521 20.2933 15.3845 20.111 15.2158 19.9338C15.0496 19.7592 15 19.6135 15 19.5V19.04C15.1877 19.163 15.3947 19.2732 15.615 19.3711C16.5069 19.7676 17.7041 20 19 20C20.2959 20 21.4931 19.7676 22.385 19.3711Z" fill="black"/>
<path d="M16.5 10C16.7761 10 17 10.2239 17 10.5V11.5C17 11.7761 16.7761 12 16.5 12C16.2239 12 16 11.7761 16 11.5V10.5C16 10.2239 16.2239 10 16.5 10Z" fill="black"/>
<path fill-rule="evenodd" clip-rule="evenodd" d="M12 9C10.6193 9 9.5 10.1193 9.5 11.5C9.5 12.8807 10.6193 14 12 14C13.3807 14 14.5 12.8807 14.5 11.5C14.5 10.1193 13.3807 9 12 9ZM10.5 11.5C10.5 10.6716 11.1716 10 12 10C12.8284 10 13.5 10.6716 13.5 11.5C13.5 12.3284 12.8284 13 12 13C11.1716 13 10.5 12.3284 10.5 11.5Z" fill="black"/>
</svg>
