<svg width="25" height="24" viewBox="0 0 25 24" fill="none" xmlns="http://www.w3.org/2000/svg">
<path d="M3.5 6.5C3.5 5.67157 4.17157 5 5 5H15.8064C16.226 5 16.6264 5.17574 16.9104 5.48456L20.104 8.95677C20.3587 9.23362 20.5 9.59605 20.5 9.97221V11C20.5 11.2761 20.7239 11.5 21 11.5C21.2761 11.5 21.5 11.2761 21.5 11V9.97221C21.5 9.34528 21.2645 8.74124 20.84 8.27981L17.6465 4.8076C17.1731 4.2929 16.5057 4 15.8064 4H5C3.61929 4 2.5 5.11929 2.5 6.5V14.5C2.5 15.8807 3.61929 17 5 17H13C13.2761 17 13.5 16.7761 13.5 16.5C13.5 16.2239 13.2761 16 13 16H5C4.17157 16 3.5 15.3284 3.5 14.5V6.5Z" fill="black"/>
<path d="M5.5 13C5.22386 13 5 13.2239 5 13.5C5 13.7761 5.22386 14 5.5 14H13.5C13.7761 14 14 13.7761 14 13.5C14 13.2239 13.7761 13 13.5 13H5.5Z" fill="black"/>
<path d="M5 11.5C5 11.2239 5.22386 11 5.5 11H15.5C15.7761 11 16 11.2239 16 11.5C16 11.7761 15.7761 12 15.5 12H5.5C5.22386 12 5 11.7761 5 11.5Z" fill="black"/>
<path d="M8.5 8C8.5 8.82843 7.82843 9.5 7 9.5C6.17157 9.5 5.5 8.82843 5.5 8C5.5 7.17157 6.17157 6.5 7 6.5C7.82843 6.5 8.5 7.17157 8.5 8Z" fill="black"/>
<path d="M20.8536 15.8536C21.0488 15.6583 21.0488 15.3417 20.8536 15.1464C20.6583 14.9512 20.3417 14.9512 20.1464 15.1464L18.5 16.7929L17.8536 16.1464C17.6583 15.9512 17.3417 15.9512 17.1464 16.1464C16.9512 16.3417 16.9512 16.6583 17.1464 16.8536L18.1464 17.8536C18.3417 18.0488 18.6583 18.0488 18.8536 17.8536L20.8536 15.8536Z" fill="black"/>
<path fill-rule="evenodd" clip-rule="evenodd" d="M14.5 16.5C14.5 14.0147 16.5147 12 19 12C21.4853 12 23.5 14.0147 23.5 16.5C23.5 18.9853 21.4853 21 19 21C16.5147 21 14.5 18.9853 14.5 16.5ZM19 13C17.067 13 15.5 14.567 15.5 16.5C15.5 18.433 17.067 20 19 20C20.933 20 22.5 18.433 22.5 16.5C22.5 14.567 20.933 13 19 13Z" fill="black"/>
</svg>
