<svg width="25" height="24" viewBox="0 0 25 24" fill="none" xmlns="http://www.w3.org/2000/svg">
<path fill-rule="evenodd" clip-rule="evenodd" d="M10 10C10 8.61929 11.1193 7.5 12.5 7.5C13.8807 7.5 15 8.61929 15 10C15 11.3807 13.8807 12.5 12.5 12.5C11.1193 12.5 10 11.3807 10 10ZM12.5 8.5C11.6716 8.5 11 9.17157 11 10C11 10.8284 11.6716 11.5 12.5 11.5C13.3284 11.5 14 10.8284 14 10C14 9.17157 13.3284 8.5 12.5 8.5Z" fill="black"/>
<path d="M11 14C10.7239 14 10.5 14.2239 10.5 14.5C10.5 14.7761 10.7239 15 11 15H14C14.2761 15 14.5 14.7761 14.5 14.5C14.5 14.2239 14.2761 14 14 14H11Z" fill="black"/>
<path fill-rule="evenodd" clip-rule="evenodd" d="M20.5 6.5C20.5 7.32843 19.8284 8 19 8H18.5V18C18.5 18.5523 18.0523 19 17.5 19H7.5C6.94772 19 6.5 18.5523 6.5 18V8H6C5.17166 8 4.5 7.32864 4.5 6.50013V4.4997C4.5 3.67107 5.17177 3 6 3H19C19.8284 3 20.5 3.67157 20.5 4.5V6.5ZM6 7C5.72377 7 5.5 6.77619 5.5 6.50013V4.4997C5.5 4.22375 5.72366 4 6 4H19C19.2761 4 19.5 4.22386 19.5 4.5V6.5C19.5 6.77614 19.2761 7 19 7H18.5V5H6.5V7H6ZM9.62132 15.8787C9.05871 15.3161 8.29565 15 7.5 15V6H17.5V15C16.7044 15 15.9413 15.3161 15.3787 15.8787C14.8161 16.4413 14.5 17.2044 14.5 18H10.5C10.5 17.2044 10.1839 16.4413 9.62132 15.8787ZM8.91422 16.5858C9.28929 16.9609 9.5 17.4696 9.5 18H7.5V16C8.03043 16 8.53914 16.2107 8.91422 16.5858ZM16.0858 16.5858C15.7107 16.9609 15.5 17.4696 15.5 18H17.5V16C16.9696 16 16.4609 16.2107 16.0858 16.5858Z" fill="black"/>
<path d="M7.5 20C7.22386 20 7 20.2239 7 20.5C7 20.7761 7.22386 21 7.5 21H17.5C17.7761 21 18 20.7761 18 20.5C18 20.2239 17.7761 20 17.5 20H7.5Z" fill="black"/>
</svg>
