<svg width="25" height="24" viewBox="0 0 25 24" fill="none" xmlns="http://www.w3.org/2000/svg">
<g clip-path="url(#clip0_10438_76782)">
<path d="M9 11.5C9.27614 11.5 9.5 11.7239 9.5 12V14C9.5 14.2761 9.27614 14.5 9 14.5C8.72386 14.5 8.5 14.2761 8.5 14V12C8.5 11.7239 8.72386 11.5 9 11.5Z" fill="black"/>
<path d="M19.5 12C19.5 11.7239 19.2761 11.5 19 11.5C18.7239 11.5 18.5 11.7239 18.5 12V14C18.5 14.2761 18.7239 14.5 19 14.5C19.2761 14.5 19.5 14.2761 19.5 14V12Z" fill="black"/>
<path fill-rule="evenodd" clip-rule="evenodd" d="M14 10.5C12.6193 10.5 11.5 11.6193 11.5 13C11.5 14.3807 12.6193 15.5 14 15.5C15.3807 15.5 16.5 14.3807 16.5 13C16.5 11.6193 15.3807 10.5 14 10.5ZM12.5 13C12.5 12.1716 13.1716 11.5 14 11.5C14.8284 11.5 15.5 12.1716 15.5 13C15.5 13.8284 14.8284 14.5 14 14.5C13.1716 14.5 12.5 13.8284 12.5 13Z" fill="black"/>
<path fill-rule="evenodd" clip-rule="evenodd" d="M5.5 8.5C5.5 7.94772 5.94772 7.5 6.5 7.5H21.5C22.0523 7.5 22.5 7.94772 22.5 8.5V17.5C22.5 18.0523 22.0523 18.5 21.5 18.5H6.5C5.94772 18.5 5.5 18.0523 5.5 17.5V8.5ZM20.0858 9.91421C20.4609 10.2893 20.9696 10.5 21.5 10.5V8.5H19.5C19.5 9.03043 19.7107 9.53914 20.0858 9.91421ZM8.62132 10.6213C9.18393 10.0587 9.5 9.29565 9.5 8.5H18.5C18.5 9.29565 18.8161 10.0587 19.3787 10.6213C19.9413 11.1839 20.7044 11.5 21.5 11.5V14.5C20.7044 14.5 19.9413 14.8161 19.3787 15.3787C18.8161 15.9413 18.5 16.7044 18.5 17.5H9.5C9.5 16.7044 9.18393 15.9413 8.62132 15.3787C8.05871 14.8161 7.29565 14.5 6.5 14.5V11.5C7.29565 11.5 8.05871 11.1839 8.62132 10.6213ZM20.0858 16.0858C20.4609 15.7107 20.9696 15.5 21.5 15.5V17.5H19.5C19.5 16.9696 19.7107 16.4609 20.0858 16.0858ZM7.91422 16.0858C8.28929 16.4609 8.5 16.9696 8.5 17.5H6.5V15.5C7.03043 15.5 7.53914 15.7107 7.91422 16.0858ZM7.91422 9.91421C7.53914 10.2893 7.03043 10.5 6.5 10.5V8.5L8.5 8.5C8.5 9.03043 8.28929 9.53914 7.91422 9.91421Z" fill="black"/>
<path d="M0.5 10.5C0.5 10.2239 0.723858 10 1 10H4C4.27614 10 4.5 10.2239 4.5 10.5C4.5 10.7761 4.27614 11 4 11H1C0.723858 11 0.5 10.7761 0.5 10.5Z" fill="black"/>
<path d="M1.5 12.5C1.5 12.2239 1.72386 12 2 12H4C4.27614 12 4.5 12.2239 4.5 12.5C4.5 12.7761 4.27614 13 4 13H2C1.72386 13 1.5 12.7761 1.5 12.5Z" fill="black"/>
<path d="M3 14C2.72386 14 2.5 14.2239 2.5 14.5C2.5 14.7761 2.72386 15 3 15H4C4.27614 15 4.5 14.7761 4.5 14.5C4.5 14.2239 4.27614 14 4 14H3Z" fill="black"/>
</g>
<defs>
<clipPath id="clip0_10438_76782">
<rect width="24" height="24" fill="white" transform="translate(0.5)"/>
</clipPath>
</defs>
</svg>
