<svg width="25" height="24" viewBox="0 0 25 24" fill="none" xmlns="http://www.w3.org/2000/svg">
<path d="M20.0783 5.21498C20.597 5.4631 21.0581 5.81689 21.4321 6.25365C21.806 6.69042 22.0845 7.20051 22.2498 7.75122C22.415 8.30193 22.4634 8.8811 22.3917 9.45159L22.3913 9.45511C22.3669 9.66068 22.3263 9.864 22.2698 10.0631C22.1944 10.3288 22.3487 10.6053 22.6143 10.6806C22.88 10.756 23.1565 10.6017 23.2318 10.3361C23.3026 10.0866 23.3535 9.83199 23.3841 9.57451C23.4728 8.86634 23.4127 8.14742 23.2076 7.46381C23.0023 6.77963 22.6563 6.14591 22.1917 5.60329C21.7271 5.06068 21.1543 4.62114 20.5099 4.31289C19.866 4.00488 19.165 3.83473 18.4516 3.81331C18.1925 3.80388 17.933 3.81496 17.6756 3.84646C17.4015 3.88 17.2065 4.12939 17.2401 4.40349C17.2736 4.67759 17.523 4.87259 17.7971 4.83905C18.0026 4.81391 18.2097 4.80511 18.4166 4.81272L18.4201 4.81282C18.9949 4.82987 19.5597 4.96686 20.0783 5.21498Z" fill="black"/>
<path d="M5.5 15C5.5 14.7239 5.72386 14.5 6 14.5H9C9.27614 14.5 9.5 14.7239 9.5 15C9.5 15.2762 9.27614 15.5 9 15.5H6C5.72386 15.5 5.5 15.2762 5.5 15Z" fill="black"/>
<path fill-rule="evenodd" clip-rule="evenodd" d="M5 18.5C4.17157 18.5 3.5 17.8285 3.5 17V10C3.5 9.1716 4.17157 8.50003 5 8.50003H17C17.8284 8.50003 18.5 9.1716 18.5 10V17C18.5 17.8285 17.8284 18.5 17 18.5H5ZM4.5 10C4.5 9.72388 4.72386 9.50003 5 9.50003H17C17.2761 9.50003 17.5 9.72388 17.5 10V11.5H4.5V10ZM5 17.5C4.72386 17.5 4.5 17.2762 4.5 17V13.5H17.5V17C17.5 17.2762 17.2761 17.5 17 17.5H5Z" fill="black"/>
<path d="M20.2546 7.26174C19.9921 6.95521 19.6675 6.70798 19.3022 6.53647C18.937 6.36496 18.5394 6.27308 18.1359 6.26692L18.1309 6.26685C17.982 6.26308 17.833 6.27032 17.6852 6.28857C17.4111 6.3224 17.1615 6.12765 17.1277 5.85358C17.0938 5.57952 17.2886 5.32993 17.5627 5.2961C17.7587 5.2719 17.9562 5.2622 18.1537 5.26708C18.6981 5.27574 19.2344 5.39988 19.7273 5.63129C20.2209 5.86306 20.6595 6.19715 21.0142 6.61138C21.3688 7.02561 21.6313 7.51052 21.7843 8.03393C21.937 8.55653 21.9771 9.10559 21.9018 9.6448C21.8762 9.84066 21.8361 10.0344 21.782 10.2243C21.7064 10.4899 21.4298 10.6439 21.1642 10.5682C20.8986 10.4926 20.7446 10.216 20.8203 9.9504C20.8611 9.80714 20.8912 9.66105 20.9104 9.51334L20.9111 9.50836C20.9672 9.10874 20.9377 8.70177 20.8245 8.31444C20.7113 7.92711 20.517 7.56827 20.2546 7.26174Z" fill="black"/>
<path d="M18.5256 7.85967C18.7376 7.95369 18.926 8.09394 19.0768 8.27013C19.2277 8.44633 19.3372 8.65402 19.3975 8.87801C19.4577 9.102 19.4671 9.33663 19.425 9.56472L19.4224 9.58029C19.4092 9.66643 19.3895 9.75143 19.3633 9.83452C19.2802 10.0979 19.4263 10.3787 19.6896 10.4618C19.953 10.5449 20.2338 10.3988 20.3169 10.1354C20.3579 10.0057 20.3889 9.87299 20.4098 9.73854C20.4773 9.36631 20.4614 8.98369 20.3631 8.6183C20.2642 8.25036 20.0842 7.9092 19.8364 7.61977C19.5886 7.33034 19.2793 7.09997 18.931 6.94552C18.587 6.79299 18.2137 6.7183 17.8376 6.72672C17.7087 6.72368 17.5798 6.7299 17.4518 6.74535C17.1777 6.77845 16.9823 7.02752 17.0153 7.30167C17.0484 7.57582 17.2975 7.77124 17.5717 7.73815C17.655 7.72808 17.739 7.72425 17.8229 7.72667C17.8324 7.72694 17.8419 7.72695 17.8513 7.72668C18.0832 7.7202 18.3136 7.76564 18.5256 7.85967Z" fill="black"/>
</svg>
