<svg width="25" height="24" viewBox="0 0 25 24" fill="none" xmlns="http://www.w3.org/2000/svg">
<path fill-rule="evenodd" clip-rule="evenodd" d="M4 3C4.27614 3 4.5 3.22386 4.5 3.5V14.7041L8.31728 10.5814C8.1165 10.2696 8 9.89841 8 9.5C8 8.39543 8.89543 7.5 10 7.5C11.1046 7.5 12 8.39543 12 9.5C12 9.8709 11.899 10.2182 11.7231 10.516L14.984 13.7769C15.2818 13.601 15.6291 13.5 16 13.5C16.1123 13.5 16.2225 13.5093 16.3297 13.527L18.7566 8.0666C18.2956 7.70021 18 7.13462 18 6.5C18 5.39543 18.8954 4.5 20 4.5C21.1046 4.5 22 5.39543 22 6.5C22 7.60457 21.1046 8.5 20 8.5C19.8877 8.5 19.7776 8.49074 19.6703 8.47295L17.2434 13.9334C17.7044 14.2998 18 14.8654 18 15.5C18 16.6046 17.1046 17.5 16 17.5C14.8954 17.5 14 16.6046 14 15.5C14 15.1291 14.101 14.7818 14.2769 14.484L11.016 11.2231C10.7182 11.399 10.3709 11.5 10 11.5C9.65655 11.5 9.33332 11.4134 9.05094 11.2609L4.5 16.1759V20H22C22.2761 20 22.5 20.2239 22.5 20.5C22.5 20.7761 22.2761 21 22 21H4C3.72386 21 3.5 20.7761 3.5 20.5V3.5C3.5 3.22386 3.72386 3 4 3ZM19 6.5C19 5.94772 19.4477 5.5 20 5.5C20.5523 5.5 21 5.94772 21 6.5C21 7.05228 20.5523 7.5 20 7.5C19.4477 7.5 19 7.05228 19 6.5ZM16 14.5C15.4477 14.5 15 14.9477 15 15.5C15 16.0523 15.4477 16.5 16 16.5C16.5523 16.5 17 16.0523 17 15.5C17 14.9477 16.5523 14.5 16 14.5ZM9 9.5C9 8.94772 9.44772 8.5 10 8.5C10.5523 8.5 11 8.94772 11 9.5C11 10.0523 10.5523 10.5 10 10.5C9.44772 10.5 9 10.0523 9 9.5Z" fill="black"/>
</svg>
