<svg width="25" height="24" viewBox="0 0 25 24" fill="none" xmlns="http://www.w3.org/2000/svg">
<path d="M5 5C4.17157 5 3.5 5.67157 3.5 6.5V14.5C3.5 15.3284 4.17157 16 5 16H10.5C10.7761 16 11 16.2239 11 16.5C11 16.7761 10.7761 17 10.5 17H5C3.61929 17 2.5 15.8807 2.5 14.5V6.5C2.5 5.11929 3.61929 4 5 4H15.828C16.5115 4 17.1652 4.27983 17.637 4.77438L20.8618 8.15488C21.0524 8.35468 21.0449 8.67118 20.8451 8.86179C20.6453 9.05239 20.3288 9.04493 20.1382 8.84512L16.9134 5.46463C16.6303 5.1679 16.2381 5 15.828 5H5Z" fill="black"/>
<path d="M21.0666 9.98776C20.7373 9.86227 20.3853 9.8078 20.0335 9.82791C19.6817 9.84802 19.3382 9.94226 19.0254 10.1044C18.7207 10.2624 18.4519 10.4814 18.2356 10.7477L16.3727 12.6502C16.1796 12.8475 16.1829 13.1641 16.3802 13.3573C16.5775 13.5504 16.8941 13.5471 17.0873 13.3498L18.9673 11.4298C18.9794 11.4175 18.9908 11.4045 19.0015 11.391C19.133 11.2254 19.298 11.0895 19.4857 10.9922C19.6734 10.8949 19.8795 10.8383 20.0906 10.8263C20.3016 10.8142 20.5129 10.8469 20.7104 10.9222C20.9079 10.9975 21.0873 11.1137 21.2368 11.2632C21.3863 11.4127 21.5025 11.5921 21.5778 11.7896C21.6531 11.9871 21.6858 12.1984 21.6737 12.4094C21.6617 12.6205 21.6051 12.8266 21.5078 13.0143C21.4105 13.202 21.2746 13.367 21.109 13.4985C21.0941 13.5103 21.0799 13.523 21.0665 13.5364L18.2577 16.3452C17.9771 16.6217 17.5989 16.7766 17.205 16.7766C16.8106 16.7766 16.432 16.6213 16.1513 16.3442C15.9547 16.1502 15.6382 16.1522 15.4442 16.3487C15.2502 16.5453 15.2522 16.8618 15.4488 17.0558C15.9166 17.5177 16.5476 17.7766 17.205 17.7766C17.8624 17.7766 18.4934 17.5177 18.9613 17.0558L21.7545 14.2626C22.0198 14.0467 22.238 13.7785 22.3955 13.4746C22.5577 13.1618 22.652 12.8183 22.6721 12.4665C22.6922 12.1147 22.6377 11.7627 22.5122 11.4335C22.3868 11.1042 22.1931 10.8052 21.9439 10.5561C21.6948 10.3069 21.3958 10.1132 21.0666 9.98776Z" fill="black"/>
<path d="M15.795 14.2234C15.1376 14.2234 14.5066 14.4823 14.0387 14.9442L11.2455 17.7374C10.9802 17.9533 10.762 18.2215 10.6044 18.5254C10.4423 18.8382 10.348 19.1817 10.3279 19.5335C10.3078 19.8853 10.3623 20.2373 10.4878 20.5665C10.6132 20.8958 10.8069 21.1948 11.0561 21.4439C11.3052 21.6931 11.6042 21.8867 11.9335 22.0122C12.2627 22.1377 12.6147 22.1922 12.9665 22.1721C13.3183 22.152 13.6618 22.0577 13.9746 21.8955C14.2793 21.7376 14.5481 21.5186 14.7644 21.2523L16.6273 19.3498C16.8204 19.1525 16.8171 18.8359 16.6198 18.6427C16.4225 18.4495 16.1059 18.4529 15.9127 18.6502L14.0327 20.5702C14.0207 20.5825 14.0092 20.5955 13.9985 20.609C13.867 20.7746 13.702 20.9105 13.5143 21.0078C13.3266 21.1051 13.1205 21.1617 12.9094 21.1737C12.6984 21.1858 12.4871 21.1531 12.2896 21.0778C12.0921 21.0025 11.9127 20.8863 11.7632 20.7368C11.6137 20.5873 11.4975 20.4079 11.4222 20.2104C11.3469 20.0128 11.3142 19.8016 11.3263 19.5906C11.3383 19.3795 11.3949 19.1734 11.4922 18.9857C11.5895 18.798 11.7254 18.633 11.891 18.5015C11.9059 18.4897 11.9201 18.477 11.9336 18.4636L14.7423 15.6548C15.0229 15.3783 15.4011 15.2234 15.795 15.2234C16.1894 15.2234 16.568 15.3787 16.8487 15.6558C17.0453 15.8498 17.3618 15.8478 17.5558 15.6512C17.7498 15.4547 17.7478 15.1381 17.5512 14.9442C17.0834 14.4823 16.4524 14.2234 15.795 14.2234Z" fill="black"/>
<path d="M5.5 13C5.22386 13 5 13.2239 5 13.5C5 13.7761 5.22386 14 5.5 14H13.5C13.7761 14 14 13.7761 14 13.5C14 13.2239 13.7761 13 13.5 13H5.5Z" fill="black"/>
<path d="M5 11.5C5 11.2239 5.22386 11 5.5 11H15.5C15.7761 11 16 11.2239 16 11.5C16 11.7761 15.7761 12 15.5 12H5.5C5.22386 12 5 11.7761 5 11.5Z" fill="black"/>
<path d="M8.5 8C8.5 8.82843 7.82843 9.5 7 9.5C6.17157 9.5 5.5 8.82843 5.5 8C5.5 7.17157 6.17157 6.5 7 6.5C7.82843 6.5 8.5 7.17157 8.5 8Z" fill="black"/>
</svg>
