<svg width="25" height="24" viewBox="0 0 25 24" fill="none" xmlns="http://www.w3.org/2000/svg">
<path fill-rule="evenodd" clip-rule="evenodd" d="M8 13C7.72386 13 7.5 12.7761 7.5 12.5V10.5C7.5 10.2239 7.72386 10 8 10H11C11.2761 10 11.5 10.2239 11.5 10.5V12.5C11.5 12.7761 11.2761 13 11 13H8ZM8.5 11V12H10.5V11H8.5Z" fill="black"/>
<path d="M14.5 10.5C14.5 10.7761 14.2761 11 14 11C13.7239 11 13.5 10.7761 13.5 10.5C13.5 10.2239 13.7239 10 14 10C14.2761 10 14.5 10.2239 14.5 10.5Z" fill="black"/>
<path d="M16 11C16.2761 11 16.5 10.7761 16.5 10.5C16.5 10.2239 16.2761 10 16 10C15.7239 10 15.5 10.2239 15.5 10.5C15.5 10.7761 15.7239 11 16 11Z" fill="black"/>
<path d="M14.5 12.5C14.5 12.7761 14.2761 13 14 13C13.7239 13 13.5 12.7761 13.5 12.5C13.5 12.2239 13.7239 12 14 12C14.2761 12 14.5 12.2239 14.5 12.5Z" fill="black"/>
<path d="M16 13C16.2761 13 16.5 12.7761 16.5 12.5C16.5 12.2239 16.2761 12 16 12C15.7239 12 15.5 12.2239 15.5 12.5C15.5 12.7761 15.7239 13 16 13Z" fill="black"/>
<path fill-rule="evenodd" clip-rule="evenodd" d="M13.5 4.5C13.5 4.22386 13.7239 4 14 4H18C18.2761 4 18.5 4.22386 18.5 4.5V6.5C18.5 6.77614 18.2761 7 18 7H16.5V8H17.9965C18.7767 8 19.4266 8.59799 19.4914 9.37543L19.9601 15H20C20.8284 15 21.5 15.6716 21.5 16.5V19.5C21.5 20.3284 20.8284 21 20 21H5C4.17157 21 3.5 20.3284 3.5 19.5V16.5C3.5 15.6716 4.17157 15 5 15H5.03993L5.50865 9.37543C5.57343 8.59799 6.22333 8 7.00347 8H7.5V5.5C7.5 5.32671 7.58973 5.16578 7.73713 5.07467C7.88454 4.98357 8.06861 4.97529 8.22361 5.05279L10 5.94098L11.7764 5.05279C11.9314 4.97529 12.1155 4.98357 12.2629 5.07467C12.4103 5.16578 12.5 5.32671 12.5 5.5V8H15.5V7H14C13.7239 7 13.5 6.77614 13.5 6.5V4.5ZM18.4948 9.45848C18.4732 9.19933 18.2566 9 17.9965 9H7.00347C6.74342 9 6.52679 9.19933 6.50519 9.45848L6.0434 15H18.9566L18.4948 9.45848ZM10.2236 6.94721L11.5 6.30902V8H8.5V6.30902L9.77639 6.94721C9.91716 7.0176 10.0828 7.0176 10.2236 6.94721ZM20.5 16.5C20.5 16.2239 20.2761 16 20 16H5C4.72386 16 4.5 16.2239 4.5 16.5V19.5C4.5 19.7761 4.72386 20 5 20H20C20.2761 20 20.5 19.7761 20.5 19.5V16.5ZM17.5 6H14.5V5H17.5V6Z" fill="black"/>
</svg>
