<svg width="25" height="24" viewBox="0 0 25 24" fill="none" xmlns="http://www.w3.org/2000/svg">
<path d="M4 3C4.27614 3 4.5 3.22386 4.5 3.5V20H7.5V14.5C7.5 14.2239 7.72386 14 8 14C8.27614 14 8.5 14.2239 8.5 14.5V20H12.5V10.5C12.5 10.2239 12.7239 10 13 10C13.2761 10 13.5 10.2239 13.5 10.5V20H17.5V5.71285L16.3527 6.85445C16.1569 7.04922 15.8403 7.04843 15.6456 6.85268C15.4508 6.65692 15.4516 6.34034 15.6473 6.14557L17.6473 4.15557C17.8424 3.96149 18.1576 3.96149 18.3527 4.15557L20.3527 6.14557C20.5484 6.34034 20.5492 6.65692 20.3544 6.85268C20.1597 7.04843 19.8431 7.04922 19.6473 6.85445L18.5 5.71285V20H22C22.2761 20 22.5 20.2239 22.5 20.5C22.5 20.7761 22.2761 21 22 21H4C3.72386 21 3.5 20.7761 3.5 20.5V3.5C3.5 3.22386 3.72386 3 4 3Z" fill="black"/>
</svg>
