<svg width="25" height="24" viewBox="0 0 25 24" fill="none" xmlns="http://www.w3.org/2000/svg">
<path fill-rule="evenodd" clip-rule="evenodd" d="M14.8897 11.3107C14.1441 11.3107 13.43 11.2362 12.7778 11.0996C12.8854 11.4285 12.9561 11.7741 12.9852 12.1316C13.0075 12.4068 12.8025 12.648 12.5272 12.6704C12.252 12.6927 12.0108 12.4877 11.9884 12.2125C11.8425 10.4142 10.3362 9 8.50004 9C6.56705 9 5.00004 10.567 5.00004 12.5C5.00004 12.9651 5.09048 13.4078 5.25427 13.8124C5.35788 14.0684 5.23438 14.3599 4.97841 14.4635C4.72244 14.5671 4.43095 14.4436 4.32733 14.1876C4.11611 13.6658 4.00004 13.0958 4.00004 12.5C4.00004 10.0147 6.01476 8 8.50004 8C8.78761 8 9.06887 8.02697 9.34143 8.07851V6.04921C9.3391 6.0125 9.33792 5.97544 9.33792 5.93803C9.33792 4.96403 10.1397 4.22732 11.1002 3.76378C12.0959 3.28326 13.4363 3 14.8897 3C16.3431 3 17.6835 3.28326 18.6791 3.76378C19.6392 4.22711 20.4407 4.96335 20.4414 5.93667V5.93803L20.5 9.99355C20.504 10.2697 20.2834 10.4967 20.0072 10.5007C19.7428 10.5045 19.5233 10.3023 19.5018 10.0426C19.2551 10.2358 18.9746 10.4043 18.6791 10.5469C17.6835 11.0274 16.3431 11.3107 14.8897 11.3107ZM19.4414 5.93803C19.4414 5.56554 19.1124 5.08323 18.2445 4.66438C17.4118 4.26251 16.2263 4 14.8897 4C13.5531 4 12.3676 4.26251 11.5349 4.66438C10.7006 5.067 10.3642 5.52825 10.3394 5.89423C10.3407 5.90913 10.3414 5.92421 10.3414 5.93945V6.00539C10.3788 6.36747 10.7184 6.81765 11.5349 7.21167C12.3676 7.61354 13.5531 7.87605 14.8897 7.87605C16.2263 7.87605 17.4118 7.61354 18.2445 7.21167C19.1124 6.79282 19.4414 6.31052 19.4414 5.93803ZM10.3414 7.65688C10.5722 7.82977 10.83 7.98184 11.1002 8.11227C12.0959 8.59279 13.4363 8.87605 14.8897 8.87605C16.3431 8.87605 17.6835 8.59279 18.6791 8.11227C18.9604 7.97655 19.228 7.81741 19.4658 7.63576L19.4739 8.19497C19.4529 8.25018 19.4414 8.31007 19.4414 8.37263C19.4414 8.74512 19.1124 9.22743 18.2445 9.64628C17.4118 10.0481 16.2263 10.3107 14.8897 10.3107C13.8704 10.3107 12.935 10.1579 12.1765 9.90449C11.7136 9.24992 11.0803 8.72446 10.3412 8.39264L10.3414 8.37748V7.65688Z" fill="black"/>
<path d="M8.60176 18.43C7.7506 18.4832 6.94813 18.8453 6.34511 19.4484L4.64731 21.1462C4.45205 21.3415 4.45206 21.6581 4.64732 21.8533C4.84259 22.0486 5.15917 22.0486 5.35443 21.8533L7.05223 20.1555C7.48296 19.7247 8.05615 19.466 8.66412 19.428L14.2715 19.0777C15.1956 19.0199 16.0794 18.6785 16.8024 18.1L22.087 13.8714C22.9632 13.1703 22.9422 11.8308 22.0444 11.1574C21.425 10.6929 20.5714 10.7004 19.9603 11.1757L16.4892 13.8754C16.2523 13.3588 15.7306 13 15.125 13H9.18624C8.6303 13 8.09022 13.1853 7.65139 13.5266L3.69305 16.6053C3.47508 16.7749 3.43581 17.089 3.60535 17.307C3.77488 17.5249 4.08902 17.5642 4.30699 17.3947L8.26533 14.316C8.52863 14.1112 8.85267 14 9.18624 14H15.125C15.4012 14 15.625 14.2239 15.625 14.5C15.625 14.7761 15.4012 15 15.125 15H11.5C11.2239 15 11 15.2239 11 15.5C11 15.7761 11.2239 16 11.5 16H15.125C15.7788 16 16.3349 15.5818 16.5403 14.9983C16.6345 14.9909 16.7277 14.9568 16.8079 14.8944L20.5742 11.965C20.8294 11.7666 21.1858 11.7635 21.4444 11.9574C21.8193 12.2386 21.8281 12.7979 21.4622 13.0906L16.1776 17.3192C15.6153 17.7692 14.9279 18.0347 14.2091 18.0796L8.60176 18.43Z" fill="black"/>
<path d="M8.50003 11C7.6716 11 7.00003 11.6716 7.00003 12.5C7.00003 12.6614 7.02535 12.816 7.07188 12.9604C7.15653 13.2233 7.01208 13.505 6.74923 13.5896C6.48638 13.6743 6.20468 13.5298 6.12003 13.267C6.04198 13.0247 6.00003 12.7668 6.00003 12.5C6.00003 11.1193 7.11932 10 8.50003 10C9.74398 10 10.7749 10.908 10.9677 12.0975C11.0119 12.3701 10.8268 12.6269 10.5542 12.6711C10.2816 12.7152 10.0248 12.5301 9.98061 12.2575C9.86502 11.5445 9.24563 11 8.50003 11Z" fill="black"/>
</svg>
