<svg width="25" height="24" viewBox="0 0 25 24" fill="none" xmlns="http://www.w3.org/2000/svg">
<path fill-rule="evenodd" clip-rule="evenodd" d="M6.58398 5.22265C6.67671 5.08355 6.83282 5 7 5H18C18.1484 5 18.2891 5.06591 18.3841 5.17991L20.8841 8.17991C21.0334 8.35903 21.039 8.61755 20.8977 8.80302L12.8977 19.303C12.8015 19.4293 12.651 19.5024 12.4923 19.4999C12.3336 19.4975 12.1854 19.4198 12.0931 19.2906L4.59313 8.79062C4.47239 8.62158 4.46875 8.39549 4.58397 8.22265L6.58398 5.22265ZM5.93112 8.00471C5.95364 8.0016 5.97663 8 6 8H12V6H7.26759L5.93112 8.00471ZM17.7658 6L19.4325 8H13V6H17.7658ZM5.971 8.99917L12 17.4398V9H6C5.99027 9 5.9806 8.99972 5.971 8.99917ZM19.4905 9L13 17.5187V9H19.4905Z" fill="black"/>
</svg>
