<svg width="25" height="24" viewBox="0 0 25 24" fill="none" xmlns="http://www.w3.org/2000/svg">
<path d="M5 16C4.72386 16 4.5 16.2239 4.5 16.5C4.5 16.7761 4.72386 17 5 17H8C8.27614 17 8.5 16.7761 8.5 16.5C8.5 16.2239 8.27614 16 8 16H5Z" fill="black"/>
<path fill-rule="evenodd" clip-rule="evenodd" d="M14.9983 3.00003L15.0062 3C16.0603 3.01301 17.0753 3.40159 17.8687 4.09581C18.519 4.66488 18.9856 5.40879 19.2168 6.23307C19.3698 6.20774 19.5253 6.19664 19.6812 6.20015L19.6824 6.20018C20.138 6.21147 20.5846 6.33 20.9859 6.54616C21.3871 6.76232 21.7318 7.07002 21.9919 7.4443C22.252 7.81857 22.4202 8.24889 22.483 8.70035C22.5455 9.151 22.5012 9.61004 22.3536 10.0404C22.1595 10.621 21.7848 11.1244 21.2843 11.477C20.7846 11.8289 20.1857 12.0121 19.5748 12H17.5V18.5C17.5 19.3284 16.8284 20 16 20H4C3.17157 20 2.5 19.3284 2.5 18.5V11.5C2.5 10.6716 3.17157 10 4 10H7.8851C7.85191 9.93419 7.82065 9.86726 7.7914 9.79928C7.54703 9.24216 7.44342 8.63348 7.48969 8.02687C7.53601 7.41959 7.73113 6.83306 8.05781 6.31905C8.3845 5.80503 8.8327 5.37935 9.36286 5.07958C9.89302 4.7798 10.4888 4.61516 11.0977 4.60018L11.106 4.60004C11.2784 4.59868 11.4503 4.61217 11.6198 4.64025C11.9864 4.17779 12.4445 3.79414 12.9667 3.51409C13.5916 3.17897 14.2892 3.00245 14.9983 3.00003ZM8.70938 9.40265C8.80181 9.61778 8.92191 9.81845 9.06576 10H16C16.6531 10 17.2087 10.4174 17.4147 11H19.58L19.5909 11.0001C19.9902 11.0088 20.3819 10.8894 20.7084 10.6594C21.035 10.4294 21.2793 10.1009 21.4056 9.72192L21.4072 9.71737C21.5043 9.43499 21.5335 9.13369 21.4925 8.83791C21.4514 8.54213 21.3412 8.2602 21.1707 8.01498C21.0003 7.76977 20.7745 7.56817 20.5116 7.42655C20.2489 7.28503 19.9565 7.20738 19.6582 7.19989C19.4447 7.19516 19.2327 7.23607 19.0362 7.3199C18.8936 7.38078 18.7308 7.37201 18.5955 7.29616C18.4602 7.22031 18.3677 7.08597 18.3453 6.9325C18.2269 6.12487 17.8245 5.3859 17.2102 4.84839C16.5969 4.31174 15.8125 4.01103 14.9978 4.00004C14.4538 4.00254 13.9187 4.13826 13.4393 4.39536C12.9587 4.65308 12.5488 5.02488 12.2455 5.47809C12.1242 5.65939 11.8993 5.74111 11.6899 5.68001C11.5042 5.62581 11.3115 5.59885 11.118 5.59998C10.6748 5.61158 10.2411 5.73178 9.85507 5.95005C9.46781 6.16903 9.14041 6.47997 8.90178 6.85544C8.66316 7.2309 8.52063 7.65934 8.48679 8.10293C8.45296 8.54652 8.52885 8.99162 8.70776 9.39894L8.70938 9.40265ZM3.5 11.5C3.5 11.2239 3.72386 11 4 11H16C16.2761 11 16.5 11.2239 16.5 11.5V18.5C16.5 18.7761 16.2761 19 16 19H4C3.72386 19 3.5 18.7761 3.5 18.5V15H16.5V13H3.5V11.5Z" fill="black"/>
</svg>
