<svg width="25" height="24" viewBox="0 0 25 24" fill="none" xmlns="http://www.w3.org/2000/svg">
<path fill-rule="evenodd" clip-rule="evenodd" d="M17 19C15.067 19 13.5 17.433 13.5 15.5C13.5 13.567 15.067 12 17 12C18.933 12 20.5 13.567 20.5 15.5C20.5 17.433 18.933 19 17 19ZM17 18C15.6193 18 14.5 16.8807 14.5 15.5C14.5 14.1193 15.6193 13 17 13C18.3807 13 19.5 14.1193 19.5 15.5C19.5 16.8807 18.3807 18 17 18Z" fill="black"/>
<path fill-rule="evenodd" clip-rule="evenodd" d="M13.4662 4.93147C14.6052 5.50094 15.5 6.38016 15.5 7.5V10.207C15.9768 10.0722 16.48 10 17 10C20.0376 10 22.5 12.4624 22.5 15.5C22.5 18.5376 20.0376 21 17 21C14.3783 21 12.185 19.1656 11.6336 16.7103C10.8277 16.8971 9.9357 17 9 17C7.28235 17 5.7026 16.653 4.53375 16.0685C3.39481 15.4991 2.5 14.6198 2.5 13.5V7.5C2.5 6.38016 3.39481 5.50094 4.53375 4.93147C5.7026 4.34704 7.28235 4 9 4C10.7176 4 12.2974 4.34704 13.4662 4.93147ZM3.5 7.5C3.5 6.96299 3.94833 6.34221 4.98097 5.82589C5.98369 5.32453 7.40394 5 9 5C10.5961 5 12.0163 5.32453 13.019 5.82589C14.0517 6.34221 14.5 6.96299 14.5 7.5C14.5 8.03701 14.0517 8.65779 13.019 9.17411C12.0163 9.67547 10.5961 10 9 10C7.40394 10 5.98369 9.67547 4.98097 9.17411C3.94833 8.65779 3.5 8.03701 3.5 7.5ZM13.4662 10.0685C13.846 9.87865 14.1986 9.65433 14.5 9.39813V10.5C14.5 10.5325 14.5031 10.5643 14.509 10.5951C13.6726 11.0207 12.9596 11.654 12.4379 12.427C11.4966 12.7827 10.3055 13 9 13C7.40394 13 5.98369 12.6755 4.98097 12.1741C3.94833 11.6578 3.5 11.037 3.5 10.5V9.39813C3.80136 9.65433 4.15399 9.87865 4.53375 10.0685C5.7026 10.653 7.28235 11 9 11C10.7176 11 12.2974 10.653 13.4662 10.0685ZM11.5 15.5C11.5 15.5714 11.5014 15.6425 11.5041 15.7133C10.7532 15.896 9.90331 16 9 16C7.40394 16 5.98369 15.6755 4.98097 15.1741C3.94833 14.6578 3.5 14.037 3.5 13.5V12.3981C3.80136 12.6543 4.15399 12.8787 4.53375 13.0685C5.7026 13.653 7.28235 14 9 14C10.0042 14 10.9597 13.8814 11.8128 13.667C11.6102 14.2403 11.5 14.8573 11.5 15.5ZM17 11C14.5147 11 12.5 13.0147 12.5 15.5C12.5 17.9853 14.5147 20 17 20C19.4853 20 21.5 17.9853 21.5 15.5C21.5 13.0147 19.4853 11 17 11Z" fill="black"/>
</svg>
