<svg width="25" height="24" viewBox="0 0 25 24" fill="none" xmlns="http://www.w3.org/2000/svg">
<path fill-rule="evenodd" clip-rule="evenodd" d="M17.5 2C16.3954 2 15.5 2.89543 15.5 4C15.5 4.3709 15.601 4.71823 15.7769 5.01598L12.7929 8H7C6.86739 8 6.74021 8.05268 6.64645 8.14645L3.64645 11.1464C3.45118 11.3417 3.45118 11.6583 3.64645 11.8536C3.84171 12.0488 4.15829 12.0488 4.35355 11.8536L7.20711 9H13C13.1326 9 13.2598 8.94732 13.3536 8.85355L16.484 5.72309C16.7818 5.89904 17.1291 6 17.5 6C18.6046 6 19.5 5.10457 19.5 4C19.5 2.89543 18.6046 2 17.5 2ZM16.5 4C16.5 3.44772 16.9477 3 17.5 3C18.0523 3 18.5 3.44772 18.5 4C18.5 4.55228 18.0523 5 17.5 5C16.9477 5 16.5 4.55228 16.5 4Z" fill="black"/>
<path fill-rule="evenodd" clip-rule="evenodd" d="M16 8C15.7239 8 15.5 8.22386 15.5 8.5V20H14.5V11.5C14.5 11.2239 14.2761 11 14 11H11C10.7239 11 10.5 11.2239 10.5 11.5V20H9.5V13.5C9.5 13.2239 9.27614 13 9 13H6C5.72386 13 5.5 13.2239 5.5 13.5V20H3.5C3.22386 20 3 20.2239 3 20.5C3 20.7761 3.22386 21 3.5 21H21.5C21.7761 21 22 20.7761 22 20.5C22 20.2239 21.7761 20 21.5 20H19.5V8.5C19.5 8.22386 19.2761 8 19 8H16ZM11.5 20H13.5V12H11.5V20ZM8.5 14V20H6.5V14H8.5ZM18.5 20V9H16.5V20H18.5Z" fill="black"/>
</svg>
