<svg width="25" height="24" viewBox="0 0 25 24" fill="none" xmlns="http://www.w3.org/2000/svg">
<path fill-rule="evenodd" clip-rule="evenodd" d="M14.7062 7.5C14.7062 6.10924 15.855 5 17.2495 5C18.644 5 19.7928 6.10924 19.7928 7.5C19.7928 8.89076 18.644 10 17.2495 10C15.855 10 14.7062 8.89076 14.7062 7.5ZM17.2495 6C16.387 6 15.7062 6.68162 15.7062 7.5C15.7062 8.31838 16.387 9 17.2495 9C18.112 9 18.7928 8.31838 18.7928 7.5C18.7928 6.68162 18.112 6 17.2495 6Z" fill="black"/>
<path d="M5 16.5C4.72386 16.5 4.5 16.7239 4.5 17C4.5 17.2761 4.72386 17.5 5 17.5H9C9.27614 17.5 9.5 17.2761 9.5 17C9.5 16.7239 9.27614 16.5 9 16.5H5Z" fill="black"/>
<path fill-rule="evenodd" clip-rule="evenodd" d="M16.7279 2C16.1756 2 15.7279 2.44772 15.7279 3V3.30173C15.7279 3.55946 15.5401 3.8472 15.1988 4.04255C14.8728 4.22914 14.5484 4.24457 14.3243 4.11791L14.0178 3.94467C13.5401 3.67473 12.9305 3.83803 12.6518 4.31061L12.1382 5.18134C11.8557 5.66016 12.0201 6.27382 12.5041 6.54732L12.8112 6.72089C13.0237 6.84095 13.1738 7.12591 13.1738 7.5C13.1738 7.87408 13.0237 8.15904 12.8112 8.2791L12.5041 8.45268C12.0201 8.72618 11.8557 9.33984 12.1381 9.81866L12.6517 10.6894C12.9305 11.162 13.5401 11.3253 14.0177 11.0553L14.3243 10.8821C14.5484 10.7554 14.8728 10.7709 15.1988 10.9574C15.5401 11.1528 15.7279 11.4405 15.7279 11.6983V12H3.5V10C3.5 9.17157 4.17157 8.5 5 8.5H11C11.2761 8.5 11.5 8.27614 11.5 8C11.5 7.72386 11.2761 7.5 11 7.5H5C3.61929 7.5 2.5 8.61929 2.5 10V19C2.5 20.3807 3.61929 21.5 5 21.5H20C21.3807 21.5 22.5 20.3807 22.5 19V12.5C22.5 12.2239 22.2761 12 22 12C21.9267 12 21.8572 12.0158 21.7945 12.0441C21.7014 12.0154 21.6025 12 21.5 12H18.7712V11.6983C18.7712 11.4405 18.959 11.1528 19.3003 10.9575C19.6263 10.7709 19.9506 10.7554 20.1747 10.8821L20.4813 11.0553C20.959 11.3253 21.5685 11.162 21.8473 10.6894L22.3609 9.81867C22.6433 9.33984 22.4789 8.72618 21.995 8.45268L21.6879 8.27914C21.4754 8.15907 21.3253 7.8741 21.3253 7.5C21.3253 7.12589 21.4754 6.84091 21.6879 6.72084L21.9949 6.54732C22.4789 6.27382 22.6433 5.66016 22.3609 5.18133L21.8473 4.31061C21.5685 3.83802 20.959 3.67473 20.4813 3.94467L20.1747 4.1179C19.9506 4.24455 19.6263 4.22913 19.3003 4.04254C18.959 3.8472 18.7712 3.55946 18.7712 3.30174V3C18.7712 2.44772 18.3235 2 17.7712 2H16.7279ZM15.6955 10.0896C16.2215 10.3906 16.7279 10.9567 16.7279 11.6983V12H17.7712V11.6983C17.7712 10.9567 18.2776 10.3906 18.8036 10.0896C19.3261 9.7905 20.0397 9.65715 20.6667 10.0115L20.9733 10.1847L20.9751 10.1854C20.9751 10.1854 20.9779 10.1855 20.9801 10.1849C20.9824 10.1843 20.9847 10.1828 20.9847 10.1828L20.986 10.1813L21.4948 9.31868L21.1959 9.14974C20.5645 8.79292 20.3253 8.0952 20.3253 7.5C20.3253 6.90479 20.5645 6.20706 21.1959 5.85024L21.4948 5.68132L20.9859 4.81866L20.9847 4.81721L20.9831 4.81633C20.9823 4.8159 20.9812 4.81542 20.9801 4.81513L20.9776 4.81472L20.9751 4.81463L20.9733 4.81527L20.6667 4.9885C20.0397 5.34285 19.3261 5.2095 18.8036 4.91044C18.2776 4.60939 17.7712 4.0433 17.7712 3.30174V3L16.7279 3V3.30173C16.7279 4.04329 16.2215 4.6094 15.6955 4.91044C15.173 5.20951 14.4594 5.34287 13.8323 4.98852L13.5258 4.81527L13.5239 4.81464C13.5239 4.81464 13.5212 4.81453 13.5189 4.81513C13.5167 4.81574 13.5143 4.81721 13.5143 4.81721L13.5131 4.81867L13.0043 5.68133L13.3032 5.85028C13.9346 6.2071 14.1738 6.90481 14.1738 7.5C14.1738 8.09519 13.9346 8.79289 13.3032 9.1497L13.0042 9.31867L13.5131 10.1813L13.5143 10.1828C13.5143 10.1828 13.5167 10.1843 13.5189 10.1849L13.5213 10.1853L13.5239 10.1854L13.5257 10.1847L13.8323 10.0115C14.4594 9.65713 15.173 9.79049 15.6955 10.0896ZM5 20.5C4.17157 20.5 3.5 19.8284 3.5 19V15H21.5V19C21.5 19.8284 20.8284 20.5 20 20.5H5Z" fill="black"/>
</svg>
