<svg width="25" height="24" viewBox="0 0 25 24" fill="none" xmlns="http://www.w3.org/2000/svg">
<path fill-rule="evenodd" clip-rule="evenodd" d="M11.344 6.31062C11.344 7.10747 10.8994 7.62647 10.1748 7.62647C9.44467 7.62647 9.00002 7.10747 9.00002 6.31062C9.00002 5.519 9.44467 5 10.1748 5C10.8994 5 11.344 5.519 11.344 6.31062ZM9.87285 6.31062C9.87285 6.75098 9.9497 6.99214 10.1748 6.99214C10.3998 6.99214 10.4657 6.75098 10.4657 6.31062C10.4657 5.87549 10.3944 5.64482 10.1748 5.64482C9.94421 5.64482 9.87285 5.87549 9.87285 6.31062Z" fill="black"/>
<path d="M13.6716 5.06815L11.2452 8.94758H10.323L12.7493 5.06815H13.6716Z" fill="black"/>
<path fill-rule="evenodd" clip-rule="evenodd" d="M15 7.68414C15 8.481 14.5554 9 13.8308 9C13.1007 9 12.656 8.481 12.656 7.68414C12.656 6.89253 13.1007 6.37353 13.8308 6.37353C14.5554 6.37353 15 6.89253 15 7.68414ZM13.5288 7.68414C13.5288 8.12451 13.6057 8.36566 13.8308 8.36566C14.0558 8.36566 14.1217 8.12451 14.1217 7.68414C14.1217 7.24902 14.0503 7.01835 13.8308 7.01835C13.6002 7.01835 13.5288 7.24902 13.5288 7.68414Z" fill="black"/>
<path fill-rule="evenodd" clip-rule="evenodd" d="M7.00002 7C7.00002 4.23858 9.2386 2 12 2C14.7614 2 17 4.23858 17 7C17 9.76142 14.7614 12 12 12C9.2386 12 7.00002 9.76142 7.00002 7ZM12 3C9.79088 3 8.00002 4.79086 8.00002 7C8.00002 9.20914 9.79088 11 12 11C14.2092 11 16 9.20914 16 7C16 4.79086 14.2092 3 12 3Z" fill="black"/>
<path d="M7.60176 18.43C6.75059 18.4832 5.94813 18.8453 5.3451 19.4484L3.64731 21.1462C3.45205 21.3415 3.45205 21.6581 3.64732 21.8533C3.84259 22.0486 4.15917 22.0486 4.35443 21.8533L6.05222 20.1555C6.48296 19.7247 7.05614 19.466 7.66412 19.4281L13.2715 19.0777C14.1956 19.0199 15.0794 18.6785 15.8024 18.1L21.087 13.8714C21.9632 13.1703 21.9422 11.8308 21.0444 11.1574C20.425 10.6929 19.5714 10.7004 18.9603 11.1757L15.4892 13.8754C15.2523 13.3588 14.7306 13 14.125 13H8.18624C7.6303 13 7.09022 13.1853 6.65139 13.5266L2.69305 16.6053C2.47508 16.7749 2.43581 17.089 2.60535 17.307C2.77488 17.5249 3.08902 17.5642 3.30699 17.3947L7.26533 14.316C7.52863 14.1112 7.85267 14 8.18624 14H14.125C14.4012 14 14.625 14.2239 14.625 14.5C14.625 14.7761 14.4012 15 14.125 15H10.5C10.2239 15 10 15.2239 10 15.5C10 15.7761 10.2239 16 10.5 16H14.125C14.7788 16 15.3349 15.5818 15.5403 14.9983C15.6345 14.9909 15.7277 14.9568 15.8078 14.8944L19.5742 11.965C19.8294 11.7666 20.1858 11.7635 20.4444 11.9574C20.8193 12.2386 20.828 12.7979 20.4622 13.0906L15.1776 17.3192C14.6153 17.7692 13.9279 18.0347 13.2091 18.0796L7.60176 18.43Z" fill="black"/>
</svg>
