<svg width="25" height="24" viewBox="0 0 25 24" fill="none" xmlns="http://www.w3.org/2000/svg">
<path fill-rule="evenodd" clip-rule="evenodd" d="M12.5 9C14.1569 9 15.5 10.3431 15.5 12C15.5 13.6569 14.1569 15 12.5 15C10.8431 15 9.5 13.6569 9.5 12C9.5 10.3431 10.8431 9 12.5 9ZM13.5 11.5C13.2239 11.5 13 11.7239 13 12C13 12.2761 13.2239 12.5 13.5 12.5H14.437C14.215 13.3626 13.4319 14 12.5 14C11.3954 14 10.5 13.1046 10.5 12C10.5 10.8954 11.3954 10 12.5 10C13.4319 10 14.215 10.6374 14.437 11.5H13.5Z" fill="black"/>
<path d="M18.5 9C18.5 8.72386 18.2761 8.5 18 8.5C17.7239 8.5 17.5 8.72386 17.5 9V15C17.5 15.2761 17.7239 15.5 18 15.5C18.2761 15.5 18.5 15.2761 18.5 15V9Z" fill="black"/>
<path fill-rule="evenodd" clip-rule="evenodd" d="M5.5 3.5C4.67157 3.5 4 4.17157 4 5V18C4 18.8284 4.67157 19.5 5.5 19.5H6C6 20.0523 6.44772 20.5 7 20.5H10C10.5523 20.5 11 20.0523 11 19.5H14C14 20.0523 14.4477 20.5 15 20.5H18C18.5523 20.5 19 20.0523 19 19.5H19.5C20.3284 19.5 21 18.8284 21 18V5C21 4.17157 20.3284 3.5 19.5 3.5H5.5ZM20 18C20 18.2761 19.7761 18.5 19.5 18.5H5.5C5.22386 18.5 5 18.2761 5 18L5 17C5.27614 17 5.5 16.7761 5.5 16.5L5.5 14.5C5.5 14.2239 5.27614 14 5 14L5 9C5.27614 9 5.5 8.77614 5.5 8.5L5.5 6.5C5.5 6.22386 5.27614 6 5 6V5C5 4.72386 5.22386 4.5 5.5 4.5H19.5C19.7761 4.5 20 4.72386 20 5V18Z" fill="black"/>
</svg>
