<svg width="25" height="24" viewBox="0 0 25 24" fill="none" xmlns="http://www.w3.org/2000/svg">
<path fill-rule="evenodd" clip-rule="evenodd" d="M19.5 11C19.2239 11 19 10.7761 19 10.5V10H5.38464V13.4615C5.38464 13.5716 5.40161 13.6768 5.4327 13.7752C5.51596 14.0385 5.37002 14.3194 5.10673 14.4027C4.84344 14.4859 4.5625 14.34 4.47924 14.0767C4.41766 13.882 4.38464 13.6751 4.38464 13.4615V6.53846C4.38464 5.41265 5.29729 4.5 6.42311 4.5H17.9616C19.0874 4.5 20 5.41265 20 6.53846V10.5C20 10.7761 19.7762 11 19.5 11ZM5.38464 6.53846C5.38464 5.96494 5.84958 5.5 6.42311 5.5H17.9616C18.5351 5.5 19 5.96494 19 6.53846V7.69232H5.38464V6.53846Z" fill="black"/>
<path d="M6.34511 19.4483C6.94813 18.8453 7.7506 18.4832 8.60176 18.43L14.2091 18.0796C14.9279 18.0347 15.6153 17.7692 16.1776 17.3192L21.4622 13.0906C21.8281 12.7978 21.8193 12.2385 21.4444 11.9574C21.1858 11.7634 20.8294 11.7666 20.5742 11.965L16.8079 14.8944C16.7277 14.9568 16.6345 14.9909 16.5403 14.9982C16.3349 15.5818 15.7788 16 15.125 16H11.5C11.2239 16 11 15.7761 11 15.5C11 15.2239 11.2239 15 11.5 15H15.125C15.4012 15 15.625 14.7761 15.625 14.5C15.625 14.2239 15.4012 14 15.125 14H9.18624C8.85267 14 8.52863 14.1112 8.26533 14.316L4.30699 17.3947C4.08902 17.5642 3.77488 17.5249 3.60535 17.307C3.43581 17.089 3.47508 16.7749 3.69305 16.6053L7.65139 13.5266C8.09022 13.1853 8.6303 13 9.18624 13H15.125C15.7306 13 16.2523 13.3588 16.4892 13.8754L19.9603 11.1757C20.5714 10.7004 21.425 10.6929 22.0444 11.1574C22.9422 11.8307 22.9632 13.1703 22.087 13.8714L16.8024 18.1C16.0794 18.6785 15.1956 19.0199 14.2715 19.0777L8.66412 19.428C8.05615 19.466 7.48296 19.7247 7.05223 20.1554L5.35443 21.8533C5.15917 22.0486 4.84259 22.0486 4.64732 21.8533C4.45206 21.6581 4.45205 21.3415 4.64731 21.1462L6.34511 19.4483Z" fill="black"/>
<path d="M5.9231 11.9231C5.9231 11.647 6.14695 11.4231 6.4231 11.4231H9.50002C9.77616 11.4231 10 11.647 10 11.9231C10 12.1992 9.77616 12.4231 9.50002 12.4231H6.4231C6.14695 12.4231 5.9231 12.1992 5.9231 11.9231Z" fill="black"/>
</svg>
