<svg width="25" height="24" viewBox="0 0 25 24" fill="none" xmlns="http://www.w3.org/2000/svg">
<path d="M6.35355 4.14645C6.54882 4.34171 6.54882 4.65829 6.35355 4.85355L4.20711 7H8.01383C8.53009 7.01428 9.03082 7.17986 9.45402 7.47588C9.86297 7.76194 10.1822 8.15783 10.3751 8.61734L11.4195 10.228C11.5698 10.4596 11.5037 10.7693 11.272 10.9195C11.0404 11.0698 10.7307 11.0037 10.5805 10.772L9.51049 9.12205C9.49255 9.09439 9.4774 9.06503 9.46524 9.03439C9.34693 8.73617 9.14374 8.47921 8.88084 8.29531C8.61971 8.11266 8.31105 8.01006 7.99263 8H4.20711L6.35355 10.1464C6.54882 10.3417 6.54882 10.6583 6.35355 10.8536C6.15829 11.0488 5.84171 11.0488 5.64645 10.8536L2.64645 7.85355C2.45118 7.65829 2.45118 7.34171 2.64645 7.14645L5.64645 4.14645C5.84171 3.95118 6.15829 3.95118 6.35355 4.14645Z" fill="black"/>
<path d="M18.6464 4.14645C18.8417 3.95118 19.1583 3.95118 19.3536 4.14645L22.3536 7.14645C22.5488 7.34171 22.5488 7.65829 22.3536 7.85355L19.3536 10.8536C19.1583 11.0488 18.8417 11.0488 18.6464 10.8536C18.4512 10.6583 18.4512 10.3417 18.6464 10.1464L20.7929 8H17.5024C17.1011 8.00403 16.7071 8.10823 16.3562 8.30316C16.0072 8.49707 15.7118 8.77463 15.4967 9.11087L10.4325 17.7509L10.4319 17.7518C10.3851 17.8326 10.3348 17.9229 10.281 18.0193C10.0916 18.3591 9.86001 18.7746 9.5905 19.1144C9.2362 19.5612 8.72519 20 8 20H3C2.72386 20 2.5 19.7761 2.5 19.5C2.5 19.2239 2.72386 19 3 19H8C8.27481 19 8.5288 18.8438 8.807 18.4931C9.02097 18.2233 9.19587 17.9101 9.37832 17.5835C9.43993 17.4732 9.5024 17.3613 9.56753 17.2491L9.56864 17.2472L14.6386 8.59717C14.6416 8.59205 14.6447 8.58699 14.6479 8.58198C14.9529 8.10167 15.3732 7.70531 15.8706 7.429C16.3679 7.15269 16.9265 7.00522 17.4954 7.00002L17.5 7H20.7929L18.6464 4.85355C18.4512 4.65829 18.4512 4.34171 18.6464 4.14645Z" fill="black"/>
<path d="M14.4472 16.2764C14.3237 16.0294 14.0234 15.9293 13.7764 16.0528C13.5294 16.1763 13.4293 16.4766 13.5528 16.7236L14.5526 18.7237L14.5587 18.735C14.7958 19.1803 15.1656 19.5407 15.6168 19.7664C16.0559 19.9859 16.5508 20.0672 17.0364 20H22C22.2761 20 22.5 19.7761 22.5 19.5C22.5 19.2239 22.2761 19 22 19H17C16.9743 19 16.9486 19.002 16.9232 19.0059C16.6298 19.0515 16.3296 19.0047 16.064 18.8719C15.8003 18.7401 15.5838 18.5299 15.4441 18.2702L14.4472 16.2764Z" fill="black"/>
</svg>
