<svg width="25" height="24" viewBox="0 0 25 24" fill="none" xmlns="http://www.w3.org/2000/svg">
<path d="M6 13C5.72386 13 5.5 13.2239 5.5 13.5C5.5 13.7761 5.72386 14 6 14H19C19.2761 14 19.5 13.7761 19.5 13.5C19.5 13.2239 19.2761 13 19 13H6Z" fill="black"/>
<path d="M5.5 15.5C5.5 15.2239 5.72386 15 6 15H19C19.2761 15 19.5 15.2239 19.5 15.5C19.5 15.7761 19.2761 16 19 16H6C5.72386 16 5.5 15.7761 5.5 15.5Z" fill="black"/>
<path d="M9.5 10C9.5 11.1046 8.60457 12 7.5 12C6.39543 12 5.5 11.1046 5.5 10C5.5 8.89543 6.39543 8 7.5 8C8.60457 8 9.5 8.89543 9.5 10Z" fill="black"/>
<path fill-rule="evenodd" clip-rule="evenodd" d="M5 5C3.61929 5 2.5 6.11929 2.5 7.5V16.5C2.5 17.8807 3.61929 19 5 19H20C21.3807 19 22.5 17.8807 22.5 16.5V10.2515C22.5 9.64591 22.2802 9.06094 21.8814 8.60521L19.4739 5.85374C18.9992 5.3112 18.3134 5 17.5925 5H5ZM3.5 7.5C3.5 6.67157 4.17157 6 5 6H17.5925C18.025 6 18.4365 6.18672 18.7213 6.51224L21.1289 9.26371C21.3681 9.53715 21.5 9.88814 21.5 10.2515V16.5C21.5 17.3284 20.8284 18 20 18H5C4.17157 18 3.5 17.3284 3.5 16.5V7.5Z" fill="black"/>
</svg>
