<svg width="25" height="24" viewBox="0 0 25 24" fill="none" xmlns="http://www.w3.org/2000/svg">
<path d="M5 5C4.17157 5 3.5 5.67157 3.5 6.5V14.5C3.5 15.3284 4.17157 16 5 16H13C13.2761 16 13.5 16.2239 13.5 16.5C13.5 16.7761 13.2761 17 13 17H5C3.61929 17 2.5 15.8807 2.5 14.5V6.5C2.5 5.11929 3.61929 4 5 4H15.8064C16.5057 4 17.1731 4.2929 17.6465 4.8076L20.84 8.27981C21.2645 8.74124 21.5 9.34528 21.5 9.97221V11C21.5 11.2761 21.2761 11.5 21 11.5C20.7239 11.5 20.5 11.2761 20.5 11V9.97221C20.5 9.59605 20.3587 9.23362 20.104 8.95677L16.9104 5.48456C16.6264 5.17574 16.226 5 15.8064 5H5Z" fill="black"/>
<path d="M5 13.5C5 13.2239 5.22386 13 5.5 13H13.5C13.7761 13 14 13.2239 14 13.5C14 13.7761 13.7761 14 13.5 14H5.5C5.22386 14 5 13.7761 5 13.5Z" fill="black"/>
<path d="M5.5 11C5.22386 11 5 11.2239 5 11.5C5 11.7761 5.22386 12 5.5 12H15.5C15.7761 12 16 11.7761 16 11.5C16 11.2239 15.7761 11 15.5 11H5.5Z" fill="black"/>
<path d="M7 9.5C7.82843 9.5 8.5 8.82843 8.5 8C8.5 7.17157 7.82843 6.5 7 6.5C6.17157 6.5 5.5 7.17157 5.5 8C5.5 8.82843 6.17157 9.5 7 9.5Z" fill="black"/>
<path d="M20.8536 14.6465C21.0488 14.8417 21.0488 15.1583 20.8536 15.3536L19.7071 16.5L20.8536 17.6465C21.0488 17.8417 21.0488 18.1583 20.8536 18.3536C20.6583 18.5488 20.3417 18.5488 20.1464 18.3536L19 17.2071L17.8536 18.3536C17.6583 18.5488 17.3417 18.5488 17.1464 18.3536C16.9512 18.1583 16.9512 17.8417 17.1464 17.6465L18.2929 16.5L17.1464 15.3536C16.9512 15.1583 16.9512 14.8417 17.1464 14.6465C17.3417 14.4512 17.6583 14.4512 17.8536 14.6465L19 15.7929L20.1464 14.6465C20.3417 14.4512 20.6583 14.4512 20.8536 14.6465Z" fill="black"/>
<path fill-rule="evenodd" clip-rule="evenodd" d="M19 12C16.5147 12 14.5 14.0147 14.5 16.5C14.5 18.9853 16.5147 21 19 21C21.4853 21 23.5 18.9853 23.5 16.5C23.5 14.0147 21.4853 12 19 12ZM15.5 16.5C15.5 14.567 17.067 13 19 13C20.933 13 22.5 14.567 22.5 16.5C22.5 18.433 20.933 20 19 20C17.067 20 15.5 18.433 15.5 16.5Z" fill="black"/>
</svg>
