<svg width="25" height="24" viewBox="0 0 25 24" fill="none" xmlns="http://www.w3.org/2000/svg">
<path fill-rule="evenodd" clip-rule="evenodd" d="M4.00002 5.5C4.00002 4.94772 4.44774 4.5 5.00002 4.5H20C20.5523 4.5 21 4.94772 21 5.5V9C21 9.27614 20.7762 9.5 20.5 9.5C20.2239 9.5 20 9.27614 20 9V8.5C19.2044 8.5 18.4413 8.18393 17.8787 7.62132C17.3161 7.05871 17 6.29565 17 5.5H8.00002C8.00002 6.29565 7.68396 7.05871 7.12135 7.62132C6.55874 8.18393 5.79567 8.5 5.00002 8.5V14C5.00002 14.2761 4.77617 14.5 4.50002 14.5C4.22388 14.5 4.00002 14.2761 4.00002 14V5.5ZM18.5858 6.91421C18.2107 6.53914 18 6.03043 18 5.5H20V7.5C19.4696 7.5 18.9609 7.28929 18.5858 6.91421ZM5.00002 5.5L7.00002 5.5C7.00002 6.03043 6.78931 6.53914 6.41424 6.91421C6.03917 7.28929 5.53046 7.5 5.00002 7.5V5.5Z" fill="black"/>
<path d="M7.50002 8.5C7.77617 8.5 8.00002 8.72386 8.00002 9V11C8.00002 11.2761 7.77617 11.5 7.50002 11.5C7.22388 11.5 7.00002 11.2761 7.00002 11V9C7.00002 8.72386 7.22388 8.5 7.50002 8.5Z" fill="black"/>
<path d="M6.3451 19.4484C6.94813 18.8453 7.75059 18.4832 8.60176 18.43L14.2091 18.0796C14.9279 18.0347 15.6153 17.7692 16.1776 17.3192L21.4622 13.0906C21.828 12.7979 21.8193 12.2386 21.4444 11.9574C21.1858 11.7635 20.8294 11.7666 20.5742 11.965L16.8078 14.8944C16.7277 14.9568 16.6345 14.9909 16.5403 14.9983C16.3349 15.5818 15.7788 16 15.125 16H11.5C11.2239 16 11 15.7761 11 15.5C11 15.2239 11.2239 15 11.5 15H15.125C15.4012 15 15.625 14.7761 15.625 14.5C15.625 14.2239 15.4012 14 15.125 14H9.18624C8.85267 14 8.52863 14.1112 8.26533 14.316L4.30699 17.3947C4.08902 17.5642 3.77488 17.5249 3.60535 17.307C3.43581 17.089 3.47508 16.7749 3.69305 16.6053L7.65139 13.5266C8.09022 13.1853 8.6303 13 9.18624 13H15.125C15.7306 13 16.2523 13.3588 16.4892 13.8754L19.9603 11.1757C20.5714 10.7004 21.425 10.6929 22.0444 11.1574C22.9422 11.8308 22.9632 13.1703 22.087 13.8714L16.8024 18.1C16.0794 18.6785 15.1956 19.0199 14.2715 19.0777L8.66412 19.4281C8.05614 19.466 7.48296 19.7247 7.05222 20.1555L5.35443 21.8533C5.15917 22.0486 4.84259 22.0486 4.64732 21.8533C4.45205 21.6581 4.45205 21.3415 4.64731 21.1462L6.3451 19.4484Z" fill="black"/>
<path d="M18 9C18 8.72386 17.7762 8.5 17.5 8.5C17.2239 8.5 17 8.72386 17 9V9.5C17 9.77614 17.2239 10 17.5 10C17.7762 10 18 9.77614 18 9.5V9Z" fill="black"/>
<path fill-rule="evenodd" clip-rule="evenodd" d="M10 10C10 8.61929 11.1193 7.5 12.5 7.5C13.8807 7.5 15 8.61929 15 10C15 11.3807 13.8807 12.5 12.5 12.5C11.1193 12.5 10 11.3807 10 10ZM12.5 8.5C11.6716 8.5 11 9.17157 11 10C11 10.8284 11.6716 11.5 12.5 11.5C13.3285 11.5 14 10.8284 14 10C14 9.17157 13.3285 8.5 12.5 8.5Z" fill="black"/>
</svg>
