<svg width="25" height="24" viewBox="0 0 25 24" fill="none" xmlns="http://www.w3.org/2000/svg">
<path d="M7 6.00003C7.27614 6.00003 7.5 6.22389 7.5 6.50003V9.50003C7.5 9.77617 7.27614 10 7 10C6.72386 10 6.5 9.77617 6.5 9.50003V6.50003C6.5 6.22389 6.72386 6.00003 7 6.00003Z" fill="black"/>
<path fill-rule="evenodd" clip-rule="evenodd" d="M4.20142 3.0324C4.21757 3.03082 4.23379 3.03003 4.25002 3.03003H12.75C12.7662 3.03003 12.7825 3.03082 12.7986 3.0324C13.2931 3.08069 13.7488 3.32179 14.0669 3.7035C14.3801 4.07942 14.5352 4.56194 14.5 5.04943V6.50731L21.1187 11.449C21.5472 11.7682 21.8955 12.1834 22.1353 12.6609C22.3751 13.1385 22.5 13.6656 22.5 14.2V21.5C22.5 21.7762 22.2762 22 22 22C21.7239 22 21.5 21.7762 21.5 21.5V14.2C21.5 13.8214 21.4115 13.448 21.2416 13.1096C21.0717 12.7712 20.8251 12.4772 20.5214 12.2511L14.5 7.75529V16.0106C14.5352 16.4981 14.3801 16.9806 14.0669 17.3566C13.7488 17.7383 13.2931 17.9794 12.7986 18.0277L12.6577 17.9194C12.652 17.9157 12.6464 17.9119 12.6409 17.908L8.59088 15.038C8.57203 15.0246 8.55412 15.01 8.5373 14.9941C8.35735 14.8248 8.12163 14.7273 7.87479 14.7201C7.60747 14.7224 7.35142 14.8285 7.16085 15.0162C7.07072 15.1047 6.99842 15.2109 6.94954 15.3273C6.90066 15.4437 6.87549 15.5688 6.87549 15.695C6.87549 15.8213 6.90066 15.9463 6.94954 16.0627C6.99842 16.1792 7.07002 16.2847 7.16015 16.3731L7.16392 16.3768L11.9239 21.1468C12.119 21.3423 12.1186 21.6589 11.9232 21.854C11.7277 22.049 11.4111 22.0487 11.216 21.8532L7.40088 18.03H4.25002C4.23379 18.03 4.21757 18.0292 4.20142 18.0277C3.70689 17.9794 3.25128 17.7383 2.93318 17.3566C2.61992 16.9806 2.46485 16.4981 2.50002 16.0106V5.04942C2.46485 4.56194 2.61992 4.07942 2.93318 3.7035C3.25128 3.32179 3.70689 3.08069 4.20142 3.0324ZM6.40412 17.03C6.24515 16.8608 6.11753 16.6643 6.02749 16.4498C5.92716 16.2108 5.87549 15.9542 5.87549 15.695C5.87549 15.4358 5.92716 15.1792 6.02749 14.9402C6.12775 14.7014 6.2746 14.4849 6.45944 14.3035C6.83798 13.9308 7.34754 13.7213 7.87877 13.72L7.89152 13.7202C8.37498 13.7313 8.83776 13.9164 9.19535 14.2407L9.5 14.4566V4.03003H4.27709C4.05255 4.05748 3.84657 4.16949 3.7014 4.34368C3.55161 4.52343 3.47863 4.75494 3.49826 4.98809C3.49943 5.00204 3.50002 5.01603 3.50002 5.03003V16.03C3.50002 16.044 3.49943 16.058 3.49826 16.072C3.47863 16.3051 3.55161 16.5366 3.7014 16.7164C3.84657 16.8906 4.05255 17.0026 4.27709 17.03H6.40412ZM11.5 15.8739L13.0102 16.944C13.1201 16.8896 13.2186 16.8124 13.2986 16.7164C13.4484 16.5366 13.5214 16.3051 13.5018 16.072C13.5006 16.058 13.5 16.044 13.5 16.03V5.03003C13.5 5.01603 13.5006 5.00204 13.5018 4.98809C13.5214 4.75494 13.4484 4.52343 13.2986 4.34368C13.1535 4.16949 12.9475 4.05748 12.723 4.03003H11.5V15.8739Z" fill="black"/>
<path d="M12.75 18.03C12.7662 18.03 12.7825 18.0292 12.7986 18.0277L12.75 18.03Z" fill="black"/>
</svg>
