<svg width="25" height="24" viewBox="0 0 25 24" fill="none" xmlns="http://www.w3.org/2000/svg">
<path fill-rule="evenodd" clip-rule="evenodd" d="M13.7047 3.60631L18.8485 2.02362C18.862 2.01932 18.8758 2.01558 18.8897 2.01244C18.9962 1.98821 19.1037 2.00022 19.1982 2.04108C19.2189 2.05004 19.239 2.06038 19.2584 2.07204C19.3301 2.11529 19.3912 2.17657 19.4342 2.2519L22.4287 7.24287C22.4754 7.32071 22.4992 7.40817 22.5 7.49585L22.5 7.5005V8.50012C22.5 9.42838 22.1313 10.3186 21.4749 10.975C20.8185 11.6314 19.9283 12.0001 19 12.0001C18.0717 12.0001 17.1815 11.6314 16.5251 10.975C15.8687 10.3186 15.5 9.42838 15.5 8.50012V7.50012C15.5 7.40308 15.5276 7.3125 15.5755 7.23582L17.8999 3.36175L13.9987 4.56212C13.9733 5.18821 13.5641 5.7154 13 5.91477V21.0001H17C17.2761 21.0001 17.5 21.224 17.5 21.5001C17.5 21.7763 17.2761 22.0001 17 22.0001H8C7.72386 22.0001 7.5 21.7763 7.5 21.5001C7.5 21.224 7.72386 21.0001 8 21.0001H12V5.91477C11.7162 5.81445 11.4715 5.63112 11.2953 5.39395L6.75719 6.79029L9.42875 11.2429C9.47545 11.3207 9.49923 11.4082 9.49998 11.4959L9.5 11.5005V12.5001C9.5 13.4284 9.13125 14.3186 8.47487 14.975C7.8185 15.6314 6.92826 16.0001 6 16.0001C5.07174 16.0001 4.1815 15.6314 3.52513 14.975C2.86875 14.3186 2.5 13.4284 2.5 12.5001V11.5001C2.5 11.4031 2.52764 11.3125 2.57548 11.2358L5.57125 6.24287C5.57607 6.23485 5.58109 6.22699 5.58631 6.2193C5.64189 6.13731 5.72206 6.07126 5.82026 6.03354C5.83249 6.02882 5.84493 6.02459 5.85754 6.02084L11.0013 4.43815C11.0267 3.81205 11.4359 3.28485 12 3.08547V2.50012C12 2.22398 12.2239 2.00012 12.5 2.00012C12.7761 2.00012 13 2.22398 13 2.50012V3.08547C13.2838 3.1858 13.5285 3.36914 13.7047 3.60631ZM21.1169 7.00012L19 3.47195L16.8831 7.00012H21.1169ZM20.7678 10.2679C21.2366 9.79905 21.5 9.16316 21.5 8.50012V8.00012H16.5V8.50012C16.5 9.16316 16.7634 9.79905 17.2322 10.2679C17.7011 10.7367 18.337 11.0001 19 11.0001C19.663 11.0001 20.2989 10.7367 20.7678 10.2679ZM6 7.47195L8.1169 11.0001H3.8831L6 7.47195ZM8.5 12.5001C8.5 13.1632 8.23661 13.799 7.76777 14.2679C7.29893 14.7367 6.66304 15.0001 6 15.0001C5.33696 15.0001 4.70107 14.7367 4.23223 14.2679C3.76339 13.799 3.5 13.1632 3.5 12.5001V12.0001H8.5V12.5001Z" fill="black"/>
</svg>
