<svg width="25" height="24" viewBox="0 0 25 24" fill="none" xmlns="http://www.w3.org/2000/svg">
<path d="M17.5 3.5C17.5 3.22386 17.7239 3 18 3H21C21.2761 3 21.5 3.22386 21.5 3.5V6.5C21.5 6.77614 21.2761 7 21 7C20.7239 7 20.5 6.77614 20.5 6.5V4.6992L16.8495 8.26755C16.6887 8.42472 16.4428 8.45523 16.2485 8.34214L11.5308 5.59644L6.43469 9.31394C6.21159 9.47668 5.89882 9.42776 5.73607 9.20467C5.57333 8.98158 5.62226 8.6688 5.84535 8.50606L11.2054 4.59606C11.3657 4.4791 11.58 4.46804 11.7515 4.56786L16.4226 7.28645L19.7847 4H18C17.7239 4 17.5 3.77614 17.5 3.5Z" fill="black"/>
<path fill-rule="evenodd" clip-rule="evenodd" d="M9.5 11.5C9.5 11.2239 9.72386 11 10 11H13C13.2761 11 13.5 11.2239 13.5 11.5V20H14.5V13.5C14.5 13.2239 14.7239 13 15 13H18C18.2761 13 18.5 13.2239 18.5 13.5V20H20.5C20.7761 20 21 20.2239 21 20.5C21 20.7761 20.7761 21 20.5 21H3.5C3.22386 21 3 20.7761 3 20.5C3 20.2239 3.22386 20 3.5 20H4.5V13.5C4.5 13.2239 4.72386 13 5 13H8C8.27614 13 8.5 13.2239 8.5 13.5V20H9.5V11.5ZM12.5 12V20H10.5V12H12.5ZM7.5 20V14H5.5V20H7.5ZM17.5 14V20H15.5V14H17.5Z" fill="black"/>
</svg>
