<svg width="25" height="24" viewBox="0 0 25 24" fill="none" xmlns="http://www.w3.org/2000/svg">
<path fill-rule="evenodd" clip-rule="evenodd" d="M16.9637 14.2212L20.8278 15.2275C20.9704 15.2647 21.0894 15.3629 21.1529 15.4959C21.2165 15.6289 21.2181 15.7832 21.1573 15.9175C20.6997 16.9293 20.0558 17.8769 19.2265 18.7084C17.7809 20.158 15.9821 21.0437 14.106 21.3639C13.96 21.3889 13.8104 21.3477 13.6976 21.2516C13.5848 21.1555 13.5205 21.0143 13.5219 20.8661L13.5607 16.9432C13.5571 16.9338 13.5537 16.9242 13.5506 16.9144C13.4665 16.6514 13.6115 16.37 13.8746 16.2859C14.537 16.0742 15.1601 15.7051 15.6862 15.1776C15.9274 14.9358 16.135 14.674 16.3093 14.3976C16.4493 14.1756 16.7352 14.1015 16.9637 14.2212ZM16.9392 15.2482L19.981 16.0404C19.6005 16.7442 19.1131 17.406 18.5185 18.0023C17.3767 19.1471 15.9908 19.8981 14.528 20.2558L14.5592 17.1013C15.2278 16.8317 15.854 16.4256 16.3943 15.8838C16.5945 15.683 16.7762 15.4704 16.9392 15.2482Z" fill="black"/>
<path fill-rule="evenodd" clip-rule="evenodd" d="M21.3693 13.2749C21.5086 13.3024 21.653 13.2693 21.7665 13.184C21.8799 13.0986 21.9518 12.9691 21.9641 12.8277C22.1991 10.1253 21.2804 7.33976 19.2085 5.2734C17.7621 3.83087 15.9656 2.95066 14.0931 2.63373C13.9502 2.60955 13.8038 2.64855 13.6919 2.74064C13.58 2.83272 13.5136 2.96883 13.5098 3.11371L13.4077 7.03529C13.4041 7.17594 13.4588 7.30453 13.55 7.39779C13.5994 7.54255 13.7144 7.66283 13.8714 7.71287C14.5312 7.92329 15.1524 8.28976 15.6777 8.81366C16.5047 9.6384 16.9436 10.7037 16.9949 11.7854C16.979 11.8202 16.9669 11.8574 16.9592 11.8967C16.9058 12.1676 17.0822 12.4305 17.3531 12.4839L21.3693 13.2749ZM17.9847 11.5891L20.9981 12.1826C21.0251 10.9161 20.7709 9.64522 20.2356 8.47137L17.8751 10.8319C17.9292 11.0819 17.9658 11.335 17.9847 11.5891ZM17.5272 9.76561C17.2596 9.16311 16.8784 8.59886 16.3838 8.1056C16.1652 7.88756 15.9327 7.69165 15.6891 7.51792L17.8296 5.37741C18.0617 5.56473 18.2864 5.76607 18.5023 5.98146C18.9911 6.46893 19.4082 7.00106 19.7535 7.56476C19.7152 7.5865 19.6791 7.61371 19.6464 7.6464L17.5272 9.76561ZM14.494 3.73579C15.3695 3.94609 16.218 4.29706 17.0039 4.78893L14.7934 6.99939C14.6683 6.94201 14.5414 6.88957 14.4131 6.84207L14.494 3.73579Z" fill="black"/>
<path fill-rule="evenodd" clip-rule="evenodd" d="M10.9344 21.3708C11.0777 21.3946 11.2243 21.3549 11.336 21.2621C11.4477 21.1693 11.5135 21.0324 11.5163 20.8872L11.5924 16.9613C11.5947 16.8423 11.5552 16.7321 11.4874 16.645C11.445 16.4841 11.3234 16.3479 11.1529 16.2946C10.484 16.0855 9.85403 15.7165 9.32229 15.1862C7.56257 13.4312 7.55874 10.5819 9.31373 8.82222C9.84858 8.28593 10.4838 7.91341 11.1586 7.70344C11.3407 7.64676 11.4673 7.49547 11.5011 7.32041C11.5523 7.24014 11.5811 7.14441 11.579 7.04212L11.5006 3.11501C11.4977 2.96969 11.4317 2.83283 11.3198 2.74007C11.2079 2.6473 11.0611 2.60783 10.9178 2.63192C9.03313 2.94867 7.22526 3.83576 5.77346 5.29147C2.06847 9.00644 2.07656 15.0215 5.79153 18.7265C7.24504 20.1761 9.05201 21.0578 10.9344 21.3708ZM10.5127 3.73421L10.5749 6.84652C9.85593 7.11464 9.18203 7.53815 8.60567 8.11606C6.46068 10.2668 6.46537 13.7492 8.61614 15.8942C9.19392 16.4705 9.8688 16.8921 10.5883 17.1583L10.5281 20.2694C9.05188 19.9189 7.65136 19.169 6.49768 18.0184C3.17376 14.7034 3.16652 9.32155 6.48151 5.99763C7.63387 4.84217 9.03493 4.08792 10.5127 3.73421Z" fill="black"/>
</svg>
