<svg width="25" height="24" viewBox="0 0 25 24" fill="none" xmlns="http://www.w3.org/2000/svg">
<path fill-rule="evenodd" clip-rule="evenodd" d="M4.5 3.5C4.5 3.22386 4.27614 3 4 3C3.72386 3 3.5 3.22386 3.5 3.5V20.5C3.5 20.7761 3.72386 21 4 21H22C22.2761 21 22.5 20.7761 22.5 20.5C22.5 20.2239 22.2761 20 22 20H20.5V9.5C20.5 9.22386 20.2761 9 20 9H17C16.7239 9 16.5 9.22386 16.5 9.5V20H15.5V13.5C15.5 13.2239 15.2761 13 15 13H12C11.7239 13 11.5 13.2239 11.5 13.5V20H10.5V6.5C10.5 6.22386 10.2761 6 10 6H7C6.72386 6 6.5 6.22386 6.5 6.5V20H4.5V3.5ZM17.5 20H19.5V10H17.5V20ZM14.5 14V20H12.5V14H14.5ZM7.5 20H9.5V7H7.5V20Z" fill="black"/>
</svg>
