<svg width="25" height="24" viewBox="0 0 25 24" fill="none" xmlns="http://www.w3.org/2000/svg">
<path d="M6 4C5.72386 4 5.5 4.22386 5.5 4.5C5.5 4.77614 5.72386 5 6 5H19C19.2761 5 19.5 4.77614 19.5 4.5C19.5 4.22386 19.2761 4 19 4H6Z" fill="black"/>
<path d="M4 6C3.72386 6 3.5 6.22386 3.5 6.5C3.5 6.77614 3.72386 7 4 7H21C21.2761 7 21.5 6.77614 21.5 6.5C21.5 6.22386 21.2761 6 21 6H4Z" fill="black"/>
<path d="M7 12C7.27614 12 7.5 12.2239 7.5 12.5V15.5C7.5 15.7761 7.27614 16 7 16C6.72386 16 6.5 15.7761 6.5 15.5V12.5C6.5 12.2239 6.72386 12 7 12Z" fill="black"/>
<path d="M18.5 12.5C18.5 12.2239 18.2761 12 18 12C17.7239 12 17.5 12.2239 17.5 12.5V15.5C17.5 15.7761 17.7239 16 18 16C18.2761 16 18.5 15.7761 18.5 15.5V12.5Z" fill="black"/>
<path fill-rule="evenodd" clip-rule="evenodd" d="M12.5 11C10.8431 11 9.5 12.3431 9.5 14C9.5 15.6569 10.8431 17 12.5 17C14.1569 17 15.5 15.6569 15.5 14C15.5 12.3431 14.1569 11 12.5 11ZM10.5 14C10.5 12.8954 11.3954 12 12.5 12C13.6046 12 14.5 12.8954 14.5 14C14.5 15.1046 13.6046 16 12.5 16C11.3954 16 10.5 15.1046 10.5 14Z" fill="black"/>
<path fill-rule="evenodd" clip-rule="evenodd" d="M2.5 9C2.5 8.44772 2.94772 8 3.5 8H21.5C22.0523 8 22.5 8.44771 22.5 9V19C22.5 19.5523 22.0523 20 21.5 20H3.5C2.94772 20 2.5 19.5523 2.5 19V9ZM4.91422 10.4142C4.53914 10.7893 4.03043 11 3.5 11V9H5.5C5.5 9.53043 5.28929 10.0391 4.91422 10.4142ZM5.62132 16.8787C5.05871 16.3161 4.29565 16 3.5 16V12C4.29565 12 5.05871 11.6839 5.62132 11.1213C6.18393 10.5587 6.5 9.79565 6.5 9H18.5C18.5 9.79565 18.8161 10.5587 19.3787 11.1213C19.9413 11.6839 20.7044 12 21.5 12V16C20.7044 16 19.9413 16.3161 19.3787 16.8787C18.8161 17.4413 18.5 18.2044 18.5 19H6.5C6.5 18.2044 6.18393 17.4413 5.62132 16.8787ZM20.0858 10.4142C19.7107 10.0391 19.5 9.53043 19.5 9H21.5V11C20.9696 11 20.4609 10.7893 20.0858 10.4142ZM20.0858 17.5858C20.4609 17.2107 20.9696 17 21.5 17V19H19.5C19.5 18.4696 19.7107 17.9609 20.0858 17.5858ZM4.91422 17.5858C5.28929 17.9609 5.5 18.4696 5.5 19H3.5V17C4.03043 17 4.53914 17.2107 4.91422 17.5858Z" fill="black"/>
</svg>
