<svg width="25" height="24" viewBox="0 0 25 24" fill="none" xmlns="http://www.w3.org/2000/svg">
<path fill-rule="evenodd" clip-rule="evenodd" d="M12 2C11.9013 2 11.8048 2.02922 11.7227 2.08397L8.72265 4.08397C8.60999 4.15908 8.53261 4.27667 8.50819 4.40986C8.48378 4.54305 8.51443 4.68044 8.59314 4.79062L13.5931 11.7906C13.687 11.922 13.8385 12 14 12C14.1615 12 14.313 11.922 14.4069 11.7906L19.4069 4.79062C19.4856 4.68044 19.5162 4.54305 19.4918 4.40986C19.4674 4.27667 19.39 4.15908 19.2774 4.08397L16.2774 2.08397C16.1952 2.02922 16.0987 2 16 2H12ZM10.6514 4L12.1514 3H13.5V4H10.6514ZM17.3486 4L15.8486 3H14.5V4H17.3486ZM13.5 9.93976L9.97101 4.99917C9.9806 4.99972 9.99027 5 10 5H13.5V9.93976ZM14.5 9.93977L18.029 4.99917C18.0218 4.99958 18.0146 4.99984 18.0073 4.99995L18 5H14.5V9.93977Z" fill="black"/>
<path d="M19.8243 12.3205L19.8113 12.3318L16.4861 14.7639C16.4332 15.2442 16.2305 15.5964 15.8904 15.8026C15.562 16.0016 15.189 16.0005 15.022 16L15 16H11.5C11.2238 16 11 15.7761 11 15.5C11 15.2238 11.2238 15 11.5 15H15C15.1958 15 15.3033 14.9891 15.3721 14.9474C15.3928 14.9348 15.4171 14.9149 15.4408 14.8646C15.4672 14.8088 15.4992 14.7008 15.5 14.5074V14.4935C15.4993 14.2995 15.4672 14.1913 15.4408 14.1354C15.4171 14.0851 15.3928 14.0651 15.3721 14.0526C15.3033 14.0109 15.1958 14 15 14H9.12998C9.12964 14.0001 9.12864 14.0006 9.12703 14.0009C9.11 14.0048 9.02917 14.0234 8.86194 14.1024C8.68466 14.1862 8.46385 14.3115 8.21002 14.4705C7.70374 14.7878 7.10373 15.2157 6.52338 15.6502C5.94476 16.0834 5.39334 16.5174 4.98606 16.8434C4.78259 17.0063 4.61547 17.142 4.49938 17.2368C4.44134 17.2842 4.39608 17.3214 4.36543 17.3466L4.33065 17.3753L4.31978 17.3843C4.10723 17.5606 3.79141 17.5317 3.61512 17.3192C3.43883 17.1066 3.46832 16.7913 3.68087 16.615C3.68087 16.615 3.68079 16.6151 3.94379 16.9322L3.99998 17L3.68087 16.615L3.69357 16.6045L3.72975 16.5747C3.76136 16.5487 3.80765 16.5106 3.86678 16.4623C3.98503 16.3658 4.15471 16.228 4.36108 16.0628C4.77349 15.7326 5.33395 15.2915 5.92407 14.8497C6.51248 14.4092 7.13809 13.9621 7.679 13.6232C7.94876 13.4541 8.20693 13.3059 8.43462 13.1983C8.64057 13.101 8.89486 13 9.12998 13H15L15.022 12.9999C15.189 12.9994 15.562 12.9983 15.8904 13.1974C16.0719 13.3074 16.2143 13.4591 16.3157 13.6496L19.1926 11.5454L19.1981 11.5408C19.2108 11.5305 19.2281 11.5167 19.2497 11.5004C19.2926 11.4679 19.3529 11.4247 19.4277 11.3772C19.5753 11.2835 19.79 11.1667 20.0475 11.0872C20.3053 11.0077 20.6229 10.9605 20.9634 11.0275C21.311 11.096 21.6492 11.2771 21.9472 11.6007C22.2849 11.9649 22.4725 12.4433 22.4725 12.94C22.4725 13.4371 22.2846 13.9158 21.9464 14.2801L21.9199 14.3087L16.7854 18.3516L16.7595 18.3674C15.8996 18.8896 14.9042 19.1447 13.8995 19.1005C12.8827 19.145 11.8915 19.1067 11.0409 19.0657C10.9238 19.06 10.8095 19.0544 10.6992 19.0489L10.6973 19.0488C9.98481 19.0134 9.41451 18.9851 9.01234 19.009C8.6593 19.0341 8.25689 19.1931 7.82984 19.4583C7.40674 19.7211 6.99293 20.0671 6.62451 20.4199C6.25755 20.7713 5.94507 21.1203 5.72401 21.3821C5.61376 21.5127 5.52694 21.6207 5.4682 21.6954C5.43885 21.7328 5.41655 21.7617 5.40189 21.781L5.38571 21.8023L5.38207 21.8072L5.38146 21.808C5.21686 22.0296 4.90367 22.0761 4.68197 21.9115C4.46022 21.7469 4.41387 21.4338 4.57844 21.212L4.5793 21.2109L4.58094 21.2087L4.58653 21.2012L4.60677 21.1745C4.62422 21.1516 4.64951 21.1188 4.68205 21.0774C4.7471 20.9947 4.8413 20.8775 4.95996 20.737C5.19671 20.4566 5.5336 20.08 5.93289 19.6976C6.33072 19.3167 6.80003 18.9208 7.30225 18.6089C7.79959 18.3 8.36386 18.0516 8.94528 18.0112L8.95 18.0109C9.41188 17.9832 10.0494 18.015 10.7516 18.0502L10.7534 18.0503C10.8638 18.0558 10.9758 18.0614 11.089 18.0668C11.942 18.108 12.9023 18.1444 13.8775 18.1005L13.9009 18.0995L13.9242 18.1006C14.7279 18.1397 15.5249 17.9403 16.2152 17.5279L21.2368 13.5738C21.3886 13.398 21.4725 13.1731 21.4725 12.94C21.4725 12.6952 21.38 12.4595 21.2135 12.2801L21.212 12.2785C21.0502 12.1026 20.8986 12.034 20.7703 12.0087C20.6345 11.982 20.4896 11.9974 20.3424 12.0428C20.1949 12.0883 20.0621 12.159 19.9635 12.2216C19.9152 12.2522 19.8776 12.2793 19.8535 12.2975C19.8513 12.2992 19.8491 12.3009 19.8471 12.3024C19.8385 12.3091 19.8321 12.3141 19.8284 12.3172L19.8243 12.3205Z" fill="black"/>
</svg>
