<svg width="25" height="24" viewBox="0 0 25 24" fill="none" xmlns="http://www.w3.org/2000/svg">
<path fill-rule="evenodd" clip-rule="evenodd" d="M12.5 3.5C12.2239 3.5 12 3.72386 12 4V12C12 12.2761 12.2239 12.5 12.5 12.5H20.5C20.7761 12.5 21 12.2761 21 12C21 7.30558 17.1944 3.5 12.5 3.5ZM19.1598 8.54734L16.2071 11.5H19.9836C19.9139 10.4406 19.6242 9.44132 19.1598 8.54734ZM18.6239 7.66902C18.132 6.97485 17.5251 6.36796 16.831 5.87613L13 9.70711V11.5H14.7929L18.6239 7.66902ZM13 8.29289L15.9527 5.34024C15.0587 4.87582 14.0594 4.58613 13 4.5164V8.29289Z" fill="black"/>
<path d="M10.5995 5.64004C10.8701 5.5851 11.0449 5.32119 10.99 5.05056C10.9351 4.77994 10.6712 4.60509 10.4005 4.66002C10.0352 4.73418 9.67885 4.83324 9.33338 4.95535C6.22687 6.05334 4 9.01597 4 12.5C4 16.9183 7.58172 20.5 12 20.5C15.8709 20.5 19.0987 17.7513 19.84 14.0995C19.8949 13.8288 19.7201 13.5649 19.4494 13.51C19.1788 13.4551 18.9149 13.6299 18.86 13.9005C18.2114 17.0955 15.386 19.5 12 19.5C8.13401 19.5 5 16.366 5 12.5C5 9.45294 6.94717 6.85938 9.66662 5.89819C9.96857 5.79146 10.2801 5.70487 10.5995 5.64004Z" fill="black"/>
</svg>
