<svg width="25" height="24" viewBox="0 0 25 24" fill="none" xmlns="http://www.w3.org/2000/svg">
<path d="M14.5 16C14.5 16.2761 14.7239 16.5 15 16.5C15.2761 16.5 15.5 16.2761 15.5 16V12C15.5 11.7239 15.2761 11.5 15 11.5C14.7239 11.5 14.5 11.7239 14.5 12V16Z" fill="black"/>
<path fill-rule="evenodd" clip-rule="evenodd" d="M16 20C17.3807 20 18.5 18.8807 18.5 17.5V9H19C19.8284 9 20.5 8.32843 20.5 7.5V5.5C20.5 4.67157 19.8284 4 19 4H6C5.17177 4 4.5 4.67107 4.5 5.4997V7.50013C4.5 8.32864 5.17166 9 6 9H6.5V17.5C6.5 18.8807 7.61929 20 9 20H16ZM5.5 7.50013C5.5 7.77619 5.72377 8 6 8H6.5V6H18.5V8H19C19.2761 8 19.5 7.77614 19.5 7.5V5.5C19.5 5.22386 19.2761 5 19 5H6C5.72366 5 5.5 5.22375 5.5 5.4997V7.50013ZM16 19C16.8284 19 17.5 18.3284 17.5 17.5V7H12.5V19H16ZM9 19C8.17157 19 7.5 18.3284 7.5 17.5V7H10.5V19H9Z" fill="black"/>
</svg>
