<svg width="25" height="24" viewBox="0 0 25 24" fill="none" xmlns="http://www.w3.org/2000/svg">
<path d="M7.5 10.5C7.5 10.2239 7.27614 10 7 10C6.72386 10 6.5 10.2239 6.5 10.5V13.5C6.5 13.7761 6.72386 14 7 14C7.27614 14 7.5 13.7761 7.5 13.5V10.5Z" fill="black"/>
<path d="M18.5 10.5C18.5 10.2239 18.2761 10 18 10C17.7239 10 17.5 10.2239 17.5 10.5V13.5C17.5 13.7761 17.7239 14 18 14C18.2761 14 18.5 13.7761 18.5 13.5V10.5Z" fill="black"/>
<path fill-rule="evenodd" clip-rule="evenodd" d="M12.5 9C10.8431 9 9.5 10.3431 9.5 12C9.5 13.6569 10.8431 15 12.5 15C14.1569 15 15.5 13.6569 15.5 12C15.5 10.3431 14.1569 9 12.5 9ZM10.5 12C10.5 10.8954 11.3954 10 12.5 10C13.6046 10 14.5 10.8954 14.5 12C14.5 13.1046 13.6046 14 12.5 14C11.3954 14 10.5 13.1046 10.5 12Z" fill="black"/>
<path fill-rule="evenodd" clip-rule="evenodd" d="M2.5 7C2.5 6.44772 2.94772 6 3.5 6H21.5C22.0523 6 22.5 6.44771 22.5 7V17C22.5 17.5523 22.0523 18 21.5 18H3.5C2.94772 18 2.5 17.5523 2.5 17V7ZM20.0858 8.41421C20.4609 8.78929 20.9696 9 21.5 9V7H19.5C19.5 7.53043 19.7107 8.03914 20.0858 8.41421ZM5.62132 9.12132C6.18393 8.55871 6.5 7.79565 6.5 7H18.5C18.5 7.79565 18.8161 8.55871 19.3787 9.12132C19.9413 9.68393 20.7044 10 21.5 10V14C20.7044 14 19.9413 14.3161 19.3787 14.8787C18.8161 15.4413 18.5 16.2044 18.5 17H6.5C6.5 16.2044 6.18393 15.4413 5.62132 14.8787C5.05871 14.3161 4.29565 14 3.5 14V10C4.29565 10 5.05871 9.68393 5.62132 9.12132ZM20.0858 15.5858C20.4609 15.2107 20.9696 15 21.5 15V17H19.5C19.5 16.4696 19.7107 15.9609 20.0858 15.5858ZM4.91422 15.5858C5.28929 15.9609 5.5 16.4696 5.5 17H3.5V15C4.03043 15 4.53914 15.2107 4.91422 15.5858ZM4.91422 8.41421C4.53914 8.78929 4.03043 9 3.5 9V7L5.5 7C5.5 7.53043 5.28929 8.03914 4.91422 8.41421Z" fill="black"/>
</svg>
