<svg width="25" height="24" viewBox="0 0 25 24" fill="none" xmlns="http://www.w3.org/2000/svg">
<path fill-rule="evenodd" clip-rule="evenodd" d="M18 1.5C14.6863 1.5 12 4.18629 12 7.5C12 10.8137 14.6863 13.5 18 13.5C21.3137 13.5 24 10.8137 24 7.5C24 4.18629 21.3137 1.5 18 1.5ZM13.94 5.61589C13.6967 5.70437 13.4673 5.80311 13.2573 5.91241C13.754 4.42802 14.928 3.25398 16.4124 2.75731C16.3031 2.96728 16.2044 3.19671 16.1159 3.44004C15.9324 3.94469 15.7843 4.53326 15.6794 5.17938C15.0333 5.28431 14.4447 5.43238 13.94 5.61589ZM15.5529 6.21688C15.0778 6.30701 14.6494 6.42201 14.2818 6.55568C13.816 6.72507 13.4742 6.91496 13.2582 7.10065C13.0406 7.28774 13 7.42441 13 7.5C13 7.57559 13.0406 7.71226 13.2582 7.89935C13.4742 8.08504 13.816 8.27493 14.2818 8.44432C14.6494 8.57799 15.0778 8.69299 15.5529 8.78312C15.5182 8.36906 15.5 7.93952 15.5 7.5C15.5 7.06048 15.5182 6.63094 15.5529 6.21688ZM16.5707 8.92934C16.5248 8.47702 16.5 7.9977 16.5 7.5C16.5 7.0023 16.5248 6.52298 16.5707 6.07066C17.023 6.02483 17.5023 6 18 6C18.4977 6 18.977 6.02483 19.4293 6.07066C19.4752 6.52298 19.5 7.0023 19.5 7.5C19.5 7.9977 19.4752 8.47702 19.4293 8.92934C18.977 8.97517 18.4977 9 18 9C17.5023 9 17.023 8.97517 16.5707 8.92934ZM15.6794 9.82062C15.0333 9.71569 14.4447 9.56762 13.94 9.38411C13.6967 9.29563 13.4673 9.19689 13.2573 9.08759C13.754 10.572 14.928 11.746 16.4124 12.2427C16.3031 12.0327 16.2044 11.8033 16.1159 11.56C15.9324 11.0553 15.7843 10.4667 15.6794 9.82062ZM18 12.5C17.9244 12.5 17.7877 12.4594 17.6007 12.2418C17.415 12.0258 17.2251 11.684 17.0557 11.2182C16.922 10.8506 16.807 10.4222 16.7169 9.9471C17.1309 9.98183 17.5605 10 18 10C18.4395 10 18.8691 9.98183 19.2831 9.9471C19.193 10.4222 19.078 10.8506 18.9443 11.2182C18.7749 11.684 18.585 12.0258 18.3993 12.2418C18.2123 12.4594 18.0756 12.5 18 12.5ZM19.5876 12.2427C19.6969 12.0327 19.7956 11.8033 19.8841 11.56C20.0676 11.0553 20.2157 10.4667 20.3206 9.82062C20.9667 9.71569 21.5553 9.56762 22.06 9.38411C22.3033 9.29563 22.5327 9.19689 22.7427 9.08759C22.246 10.572 21.072 11.746 19.5876 12.2427ZM20.4471 8.78312C20.9222 8.69299 21.3506 8.57799 21.7182 8.44432C22.184 8.27493 22.5258 8.08504 22.7418 7.89935C22.9594 7.71226 23 7.57559 23 7.5C23 7.42441 22.9594 7.28774 22.7418 7.10065C22.5258 6.91496 22.184 6.72507 21.7182 6.55568C21.3506 6.42201 20.9222 6.30701 20.4471 6.21688C20.4818 6.63094 20.5 7.06048 20.5 7.5C20.5 7.93952 20.4818 8.36906 20.4471 8.78312ZM20.3206 5.17938C20.9667 5.28431 21.5553 5.43238 22.06 5.61589C22.3033 5.70437 22.5327 5.80311 22.7427 5.91241C22.246 4.42802 21.072 3.25398 19.5876 2.75731C19.6969 2.96728 19.7956 3.19671 19.8841 3.44004C20.0676 3.94469 20.2157 4.53326 20.3206 5.17938ZM19.2831 5.0529C18.8691 5.01817 18.4395 5 18 5C17.5605 5 17.1309 5.01817 16.7169 5.0529C16.807 4.57777 16.922 4.14938 17.0557 3.78178C17.2251 3.31596 17.415 2.97417 17.6007 2.75818C17.7877 2.54057 17.9244 2.5 18 2.5C18.0756 2.5 18.2123 2.54057 18.3993 2.75818C18.585 2.97417 18.7749 3.31596 18.9443 3.78178C19.078 4.14938 19.193 4.57777 19.2831 5.0529Z" fill="black"/>
<path fill-rule="evenodd" clip-rule="evenodd" d="M3.5 10C2.94771 10 2.5 10.4477 2.5 11V19C2.5 19.5523 2.94772 20 3.5 20H19.5C20.0523 20 20.5 19.5523 20.5 19V15C20.5 14.7239 20.2761 14.5 20 14.5C19.7239 14.5 19.5 14.7239 19.5 15V16.5C18.837 16.5 18.2011 16.7634 17.7322 17.2322C17.2634 17.7011 17 18.337 17 19H6C6 18.337 5.73661 17.7011 5.26777 17.2322C4.79893 16.7634 4.16304 16.5 3.5 16.5V13.5C4.16304 13.5 4.79893 13.2366 5.26777 12.7678C5.73661 12.2989 6 11.663 6 11H11C11.2761 11 11.5 10.7761 11.5 10.5C11.5 10.2239 11.2761 10 11 10H3.5ZM4.56066 12.0607C4.84197 11.7794 5 11.3978 5 11H3.5V12.5C3.89783 12.5 4.27936 12.342 4.56066 12.0607ZM4.56066 17.9393C4.27936 17.658 3.89783 17.5 3.5 17.5V19H5C5 18.6022 4.84197 18.2206 4.56066 17.9393ZM18.4393 17.9393C18.158 18.2206 18 18.6022 18 19H19.5V17.5C19.1022 17.5 18.7206 17.658 18.4393 17.9393Z" fill="black"/>
<path d="M7 14C7 13.7239 6.77614 13.5 6.5 13.5C6.22386 13.5 6 13.7239 6 14V16C6 16.2761 6.22386 16.5 6.5 16.5C6.77614 16.5 7 16.2761 7 16V14Z" fill="black"/>
<path d="M17 15C17 14.7239 16.7761 14.5 16.5 14.5C16.2239 14.5 16 14.7239 16 15V16C16 16.2761 16.2239 16.5 16.5 16.5C16.7761 16.5 17 16.2761 17 16V15Z" fill="black"/>
<path fill-rule="evenodd" clip-rule="evenodd" d="M9 15C9 13.6193 10.1193 12.5 11.5 12.5C12.8807 12.5 14 13.6193 14 15C14 16.3807 12.8807 17.5 11.5 17.5C10.1193 17.5 9 16.3807 9 15ZM11.5 13.5C10.6716 13.5 10 14.1716 10 15C10 15.8284 10.6716 16.5 11.5 16.5C12.3284 16.5 13 15.8284 13 15C13 14.1716 12.3284 13.5 11.5 13.5Z" fill="black"/>
</svg>
