<svg width="25" height="24" viewBox="0 0 25 24" fill="none" xmlns="http://www.w3.org/2000/svg">
<path d="M5.47 17.5C5.47 17.2239 5.69386 17 5.97 17H8.97C9.24614 17 9.47 17.2239 9.47 17.5C9.47 17.7762 9.24614 18 8.97 18H5.97C5.69386 18 5.47 17.7762 5.47 17.5Z" fill="black"/>
<path fill-rule="evenodd" clip-rule="evenodd" d="M10.919 3.38137C11.2382 2.95287 11.6533 2.60449 12.1308 2.36473C12.6085 2.12489 13.1355 2 13.67 2H20.97C21.2461 2 21.47 2.22386 21.47 2.5C21.47 2.77614 21.2461 3 20.97 3L13.67 3C13.2913 3 12.9179 3.08848 12.5796 3.25839C12.2412 3.4283 11.9472 3.67494 11.721 3.97864L7.22526 10L15.4806 10C15.9681 9.96484 16.4506 10.1199 16.8265 10.4332C17.2082 10.7513 17.4493 11.2069 17.4976 11.7014L17.3894 11.8423L17.3868 11.8462L17.378 11.8591L14.508 15.9091C14.4946 15.928 14.4799 15.9459 14.4641 15.9627C14.2948 16.1427 14.1973 16.3784 14.19 16.6252C14.1923 16.8926 14.2985 17.1486 14.4862 17.3392C14.5746 17.4293 14.6809 17.5016 14.7973 17.5505C14.9137 17.5994 15.0387 17.6245 15.165 17.6245C15.2913 17.6245 15.4163 17.5994 15.5327 17.5505C15.6492 17.5016 15.7547 17.43 15.8431 17.3399L15.8468 17.3361L20.6168 12.5761C20.8123 12.3811 21.1289 12.3814 21.3239 12.5769C21.519 12.7723 21.5187 13.0889 21.3232 13.284L17.5 17.0991V20.25C17.5 20.2662 17.4992 20.2825 17.4976 20.2986C17.4493 20.7931 17.2082 21.2487 16.8265 21.5668C16.4506 21.8801 15.9681 22.0352 15.4806 22H4.51939C4.03191 22.0352 3.54939 21.8801 3.17347 21.5668C2.79176 21.2487 2.55066 20.7931 2.50237 20.2986C2.50079 20.2825 2.5 20.2662 2.5 20.25V11.75C2.5 11.7338 2.50079 11.7176 2.50237 11.7014C2.55066 11.2069 2.79176 10.7513 3.17347 10.4332C3.54939 10.1199 4.03191 9.96484 4.5194 10H5.97728L10.919 3.38137ZM16.5 18.0959C16.3307 18.2549 16.1343 18.3825 15.9198 18.4725C15.6808 18.5729 15.4242 18.6245 15.165 18.6245C14.9058 18.6245 14.6492 18.5729 14.4102 18.4725C14.1714 18.3723 13.9549 18.2254 13.7734 18.0406C13.4008 17.662 13.1913 17.1525 13.19 16.6213L13.1901 16.6085C13.2013 16.1251 13.3864 15.6623 13.7107 15.3047L13.9266 15L3.5 15L3.5 20.2229C3.52745 20.4475 3.63946 20.6535 3.81366 20.7986C3.9934 20.9484 4.22491 21.0214 4.45806 21.0018C4.47201 21.0006 4.486 21 4.5 21H15.5C15.514 21 15.528 21.0006 15.5419 21.0018C15.7751 21.0214 16.0066 20.9484 16.1863 20.7986C16.3605 20.6535 16.4725 20.4475 16.5 20.2229V18.0959ZM15.3438 13L16.414 11.4899C16.3595 11.3799 16.2824 11.2814 16.1863 11.2014C16.0066 11.0516 15.7751 10.9786 15.5419 10.9982C15.528 10.9994 15.514 11 15.5 11L4.5 11C4.486 11 4.47201 10.9994 4.45806 10.9982C4.22491 10.9786 3.9934 11.0516 3.81365 11.2014C3.63946 11.3466 3.52745 11.5525 3.5 11.7771V13L15.3438 13Z" fill="black"/>
<path d="M17.5 11.75C17.5 11.7338 17.4992 11.7176 17.4976 11.7014L17.5 11.75Z" fill="black"/>
</svg>
