<svg width="25" height="24" viewBox="0 0 25 24" fill="none" xmlns="http://www.w3.org/2000/svg">
<path fill-rule="evenodd" clip-rule="evenodd" d="M3.5 6.5C3.5 5.94772 3.94772 5.5 4.5 5.5H19.5C20.0523 5.5 20.5 5.94772 20.5 6.5V10C20.5 10.2761 20.2761 10.5 20 10.5C19.7239 10.5 19.5 10.2761 19.5 10V9.5C18.7044 9.5 17.9413 9.18393 17.3787 8.62132C16.8161 8.05871 16.5 7.29565 16.5 6.5H7.5C7.5 7.29565 7.18393 8.05871 6.62132 8.62132C6.05871 9.18393 5.29565 9.5 4.5 9.5V12.5C5.29565 12.5 6.05871 12.8161 6.62132 13.3787C7.18393 13.9413 7.5 14.7044 7.5 15.5H13.5C13.7761 15.5 14 15.7239 14 16C14 16.2761 13.7761 16.5 13.5 16.5H4.5C3.94771 16.5 3.5 16.0523 3.5 15.5V6.5ZM18.0858 7.91421C17.7107 7.53914 17.5 7.03043 17.5 6.5H19.5V8.5C18.9696 8.5 18.4609 8.28929 18.0858 7.91421ZM4.5 6.5L6.5 6.5C6.5 7.03043 6.28929 7.53914 5.91422 7.91421C5.53914 8.28929 5.03043 8.5 4.5 8.5V6.5ZM5.91422 14.0858C6.28929 14.4609 6.5 14.9696 6.5 15.5H4.5V13.5C5.03043 13.5 5.53914 13.7107 5.91422 14.0858Z" fill="black"/>
<path d="M7 9.5C7.27614 9.5 7.5 9.72386 7.5 10V12C7.5 12.2761 7.27614 12.5 7 12.5C6.72386 12.5 6.5 12.2761 6.5 12V10C6.5 9.72386 6.72386 9.5 7 9.5Z" fill="black"/>
<path d="M17 9.5C17.2761 9.5 17.5 9.72386 17.5 10V10.5C17.5 10.7761 17.2761 11 17 11C16.7239 11 16.5 10.7761 16.5 10.5V10C16.5 9.72386 16.7239 9.5 17 9.5Z" fill="black"/>
<path fill-rule="evenodd" clip-rule="evenodd" d="M12 8.5C10.6193 8.5 9.5 9.61929 9.5 11C9.5 12.3807 10.6193 13.5 12 13.5C13.3807 13.5 14.5 12.3807 14.5 11C14.5 9.61929 13.3807 8.5 12 8.5ZM10.5 11C10.5 10.1716 11.1716 9.5 12 9.5C12.8284 9.5 13.5 10.1716 13.5 11C13.5 11.8284 12.8284 12.5 12 12.5C11.1716 12.5 10.5 11.8284 10.5 11Z" fill="black"/>
<path d="M20.8536 14.8536C21.0488 14.6583 21.0488 14.3417 20.8536 14.1464C20.6583 13.9512 20.3417 13.9512 20.1464 14.1464L18.5 15.7929L17.8536 15.1464C17.6583 14.9512 17.3417 14.9512 17.1464 15.1464C16.9512 15.3417 16.9512 15.6583 17.1464 15.8536L18.1464 16.8536C18.3417 17.0488 18.6583 17.0488 18.8536 16.8536L20.8536 14.8536Z" fill="black"/>
<path fill-rule="evenodd" clip-rule="evenodd" d="M14.5 15.5C14.5 13.0147 16.5147 11 19 11C21.4853 11 23.5 13.0147 23.5 15.5C23.5 17.9853 21.4853 20 19 20C16.5147 20 14.5 17.9853 14.5 15.5ZM19 12C17.067 12 15.5 13.567 15.5 15.5C15.5 17.433 17.067 19 19 19C20.933 19 22.5 17.433 22.5 15.5C22.5 13.567 20.933 12 19 12Z" fill="black"/>
</svg>
