<svg width="25" height="24" viewBox="0 0 25 24" fill="none" xmlns="http://www.w3.org/2000/svg">
<path d="M12.5 5C12.6418 5 12.7768 5.06016 12.8717 5.16552L17.3717 10.1655C17.5037 10.3123 17.5371 10.523 17.4568 10.7034C17.3764 10.8838 17.1975 11 17 11H8.00001C7.80255 11 7.62359 10.8838 7.54326 10.7034C7.46293 10.523 7.49627 10.3123 7.62836 10.1655L12.1284 5.16552C12.2232 5.06016 12.3583 5 12.5 5Z" fill="black"/>
<path d="M12.5 13C12.6418 13 12.7768 13.0602 12.8717 13.1655L17.3717 18.1655C17.5037 18.3123 17.5371 18.523 17.4568 18.7034C17.3764 18.8838 17.1975 19 17 19H8.00001C7.80255 19 7.62359 18.8838 7.54326 18.7034C7.46293 18.523 7.49627 18.3123 7.62836 18.1655L12.1284 13.1655C12.2232 13.0602 12.3583 13 12.5 13Z" fill="black"/>
</svg>
