<svg width="25" height="24" viewBox="0 0 25 24" fill="none" xmlns="http://www.w3.org/2000/svg">
<path fill-rule="evenodd" clip-rule="evenodd" d="M5 6C4.17157 6 3.5 6.67157 3.5 7.5V15.5C3.5 16.3284 4.17157 17 5 17H12V18.0764L9.4178 18.5068C9.14542 18.5522 8.96141 18.8098 9.0068 19.0822C9.0522 19.3546 9.30981 19.5386 9.5822 19.4932L12.5 19.0069L15.4178 19.4932C15.6902 19.5386 15.9478 19.3546 15.9932 19.0822C16.0386 18.8098 15.8546 18.5522 15.5822 18.5068L13 18.0764V17H20C20.8284 17 21.5 16.3284 21.5 15.5V7.5C21.5 6.67157 20.8284 6 20 6H5ZM19.5 16V7H5.5V16H19.5Z" fill="black"/>
</svg>
