<svg width="25" height="24" viewBox="0 0 25 24" fill="none" xmlns="http://www.w3.org/2000/svg">
<path fill-rule="evenodd" clip-rule="evenodd" d="M12.5 10.5C10.567 10.5 9 12.067 9 14C9 15.933 10.567 17.5 12.5 17.5C14.433 17.5 16 15.933 16 14C16 12.067 14.433 10.5 12.5 10.5ZM10 14C10 12.6193 11.1193 11.5 12.5 11.5C13.8807 11.5 15 12.6193 15 14C15 15.3807 13.8807 16.5 12.5 16.5C11.1193 16.5 10 15.3807 10 14Z" fill="black"/>
<path fill-rule="evenodd" clip-rule="evenodd" d="M10.1877 5.60957C10.2763 5.53864 10.3865 5.5 10.5 5.5H14.75C14.8725 5.5 14.9907 5.54494 15.0822 5.6263L17.1901 7.5H20C20.8284 7.5 21.5 8.17157 21.5 9V17C21.5 17.8284 20.8284 18.5 20 18.5H16C15.9103 18.5 15.8261 18.4764 15.7534 18.435C14.8423 19.1045 13.7173 19.5 12.5 19.5C11.2827 19.5 10.1577 19.1045 9.24663 18.435C9.17385 18.4764 9.08968 18.5 9 18.5H5C4.17157 18.5 3.5 17.8284 3.5 17V9C3.5 8.17157 4.17157 7.5 5 7.5H7.82461L10.1877 5.60957ZM20.5 17C20.5 17.2761 20.2761 17.5 20 17.5H16.7428C17.5282 16.5491 18 15.3296 18 14C18 10.9624 15.5376 8.5 12.5 8.5C9.46243 8.5 7 10.9624 7 14C7 15.3296 7.47182 16.5491 8.25716 17.5H5C4.72386 17.5 4.5 17.2761 4.5 17V9C4.5 8.72386 4.72386 8.5 5 8.5H8C8.11354 8.5 8.22369 8.46136 8.31235 8.39043L10.6754 6.5H14.5599L16.6678 8.3737C16.7593 8.45506 16.8775 8.5 17 8.5H20C20.2761 8.5 20.5 8.72386 20.5 9V17ZM12.5 9.5C10.0147 9.5 8 11.5147 8 14C8 16.4853 10.0147 18.5 12.5 18.5C14.9853 18.5 17 16.4853 17 14C17 11.5147 14.9853 9.5 12.5 9.5Z" fill="black"/>
</svg>
