<svg width="25" height="24" viewBox="0 0 25 24" fill="none" xmlns="http://www.w3.org/2000/svg">
<path d="M12 3C13.933 3 15.5 4.567 15.5 6.5V6.87868L14.5 7.87868V6.5C14.5 5.11929 13.3807 4 12 4C10.6193 4 9.5 5.11929 9.5 6.5V12.8787L8.51832 13.8604C8.50621 13.7419 8.5 13.6217 8.5 13.5V6.5C8.5 4.567 10.067 3 12 3Z" fill="black"/>
<path d="M7.5 13.5C7.5 13.9204 7.55764 14.3273 7.66544 14.7132L6.87599 15.5027C6.63325 14.8821 6.5 14.2066 6.5 13.5V13C6.5 12.7239 6.72386 12.5 7 12.5C7.27614 12.5 7.5 12.7239 7.5 13V13.5Z" fill="black"/>
<path d="M8.71196 17.9094C9.50374 18.5007 10.4601 18.8839 11.5 18.9776V20H11C10.7239 20 10.5 20.2239 10.5 20.5C10.5 20.7761 10.7239 21 11 21H13C13.2761 21 13.5 20.7761 13.5 20.5C13.5 20.2239 13.2761 20 13 20H12.5V18.9776C15.3032 18.725 17.5 16.369 17.5 13.5V13C17.5 12.7239 17.2761 12.5 17 12.5C16.7239 12.5 16.5 12.7239 16.5 13V13.5C16.5 15.9853 14.4853 18 12 18C11.0437 18 10.1571 17.7017 9.42818 17.1931L8.71196 17.9094Z" fill="black"/>
<path d="M14.5 12.1213L15.5 11.1213V13.5C15.5 15.433 13.933 17 12 17C11.3207 17 10.6866 16.8065 10.1498 16.4715L10.8837 15.7376C11.2197 15.9055 11.5988 16 12 16C13.3807 16 14.5 14.8807 14.5 13.5V12.1213Z" fill="black"/>
<path d="M20.1464 3.64645C20.3417 3.45118 20.6583 3.45118 20.8536 3.64645C21.0488 3.84171 21.0488 4.15829 20.8536 4.35355L4.85355 20.3536C4.65829 20.5488 4.34171 20.5488 4.14645 20.3536C3.95118 20.1583 3.95118 19.8417 4.14645 19.6464L20.1464 3.64645Z" fill="black"/>
</svg>
