<svg width="25" height="24" viewBox="0 0 25 24" fill="none" xmlns="http://www.w3.org/2000/svg">
<path fill-rule="evenodd" clip-rule="evenodd" d="M5 5C3.54425 5 2.5 6.36365 2.5 7.86364V16.1364C2.5 17.6364 3.54425 19 5 19H14C15.4558 19 16.5 17.6364 16.5 16.1364V14.3916L20.7434 16.9291C20.8979 17.0215 21.0901 17.0237 21.2467 16.9349C21.4032 16.8461 21.5 16.68 21.5 16.5V7.5C21.5 7.32 21.4032 7.15388 21.2467 7.06508C21.0901 6.97628 20.8979 6.97849 20.7434 7.07088L16.5 9.60842V7.86364C16.5 6.36365 15.4558 5 14 5H5ZM3.5 7.86364C3.5 6.75283 4.24661 6 5 6H14C14.7534 6 15.5 6.75283 15.5 7.86364V16.1364C15.5 17.2472 14.7534 18 14 18H5C4.24661 18 3.5 17.2472 3.5 16.1364V7.86364ZM20.5 8.38158L16.5 10.7736V13.2264L20.5 15.6184V8.38158Z" fill="black"/>
</svg>
