<svg width="25" height="24" viewBox="0 0 25 24" fill="none" xmlns="http://www.w3.org/2000/svg">
<path fill-rule="evenodd" clip-rule="evenodd" d="M7.31921 5.0003C7.17448 4.99633 7.03138 5.03189 6.90528 5.10319C6.77918 5.17449 6.67482 5.27885 6.60345 5.4051C6.53207 5.53136 6.4964 5.67471 6.50029 5.81977L6.50065 5.83316L6.50047 18.1975L6.50046 18.1991C6.50001 18.3395 6.53657 18.4776 6.60641 18.5993C6.67626 18.721 6.77691 18.8221 6.89819 18.8925C7.01947 18.9628 7.1571 18.9999 7.29722 19C7.43634 19.0001 7.57306 18.9638 7.69382 18.8946L18.0797 12.7044L18.3357 13.1339L18.0916 12.6975C18.2127 12.6298 18.3142 12.5315 18.3858 12.4124C18.4574 12.2933 18.4967 12.1575 18.4998 12.0184C18.5029 11.8794 18.4697 11.742 18.4034 11.6198C18.3378 11.4987 18.242 11.3968 18.1255 11.3238L7.74047 5.13409L7.72691 5.12571C7.60489 5.04761 7.46394 5.00426 7.31921 5.0003ZM18.5863 13.5666L8.19672 19.759C7.92304 19.9171 7.61249 20.0003 7.29642 20C6.98035 19.9997 6.66995 19.9161 6.39653 19.7575C6.1231 19.599 5.89633 19.3711 5.73903 19.0969C5.58187 18.823 5.49961 18.5125 5.50047 18.1967C5.50047 18.1965 5.50047 18.197 5.50047 18.1967V5.83932C5.50052 5.84173 5.50058 5.84414 5.50065 5.84656L6.00047 5.83316H5.50047V5.83932C5.49309 5.51528 5.57337 5.1952 5.73292 4.91298C5.89366 4.62865 6.12879 4.39346 6.41309 4.23271C6.6974 4.07195 7.02013 3.99173 7.3466 4.00067C7.67021 4.00954 7.98533 4.10568 8.25874 4.27885L18.649 10.4717C18.9151 10.6365 19.1334 10.8681 19.2826 11.1433C19.4318 11.4184 19.5065 11.7278 19.4996 12.0407C19.4926 12.3537 19.4041 12.6594 19.2428 12.9277C19.0828 13.1938 18.8566 13.4139 18.5863 13.5666Z" fill="black"/>
</svg>
