<svg width="25" height="24" viewBox="0 0 25 24" fill="none" xmlns="http://www.w3.org/2000/svg">
<path d="M9.5 13C10.0523 13 10.5 12.5523 10.5 12C10.5 11.4477 10.0523 11 9.5 11C8.94772 11 8.5 11.4477 8.5 12C8.5 12.5523 8.94772 13 9.5 13Z" fill="black"/>
<path d="M9.5 16C10.0523 16 10.5 15.5523 10.5 15C10.5 14.4477 10.0523 14 9.5 14C8.94772 14 8.5 14.4477 8.5 15C8.5 15.5523 8.94772 16 9.5 16Z" fill="black"/>
<path d="M10.5 18C10.5 18.5523 10.0523 19 9.5 19C8.94772 19 8.5 18.5523 8.5 18C8.5 17.4477 8.94772 17 9.5 17C10.0523 17 10.5 17.4477 10.5 18Z" fill="black"/>
<path d="M15.5 13C16.0523 13 16.5 12.5523 16.5 12C16.5 11.4477 16.0523 11 15.5 11C14.9477 11 14.5 11.4477 14.5 12C14.5 12.5523 14.9477 13 15.5 13Z" fill="black"/>
<path d="M16.5 15C16.5 15.5523 16.0523 16 15.5 16C14.9477 16 14.5 15.5523 14.5 15C14.5 14.4477 14.9477 14 15.5 14C16.0523 14 16.5 14.4477 16.5 15Z" fill="black"/>
<path d="M15.5 19C16.0523 19 16.5 18.5523 16.5 18C16.5 17.4477 16.0523 17 15.5 17C14.9477 17 14.5 17.4477 14.5 18C14.5 18.5523 14.9477 19 15.5 19Z" fill="black"/>
<path d="M13.5 12C13.5 12.5523 13.0523 13 12.5 13C11.9477 13 11.5 12.5523 11.5 12C11.5 11.4477 11.9477 11 12.5 11C13.0523 11 13.5 11.4477 13.5 12Z" fill="black"/>
<path d="M12.5 16C13.0523 16 13.5 15.5523 13.5 15C13.5 14.4477 13.0523 14 12.5 14C11.9477 14 11.5 14.4477 11.5 15C11.5 15.5523 11.9477 16 12.5 16Z" fill="black"/>
<path d="M13.5 18C13.5 18.5523 13.0523 19 12.5 19C11.9477 19 11.5 18.5523 11.5 18C11.5 17.4477 11.9477 17 12.5 17C13.0523 17 13.5 17.4477 13.5 18Z" fill="black"/>
<path fill-rule="evenodd" clip-rule="evenodd" d="M8.5 5C7.94772 5 7.5 5.44772 7.5 6V8C7.5 8.55229 7.94772 9 8.5 9H16.5C17.0523 9 17.5 8.55228 17.5 8V6C17.5 5.44772 17.0523 5 16.5 5H8.5ZM8.5 6H16.5V8H8.5V6Z" fill="black"/>
<path fill-rule="evenodd" clip-rule="evenodd" d="M5.5 4C5.5 2.89543 6.39543 2 7.5 2H17.5C18.6046 2 19.5 2.89543 19.5 4V19.9115C19.5 21.0101 18.6139 21.903 17.5154 21.9114L7.51538 21.9884C6.40483 21.9969 5.5 21.099 5.5 19.9884V4ZM7.5 3C6.94772 3 6.5 3.44772 6.5 4V19.9884C6.5 20.5437 6.95242 20.9927 7.50769 20.9884L17.5077 20.9115C18.057 20.9072 18.5 20.4608 18.5 19.9115V4C18.5 3.44772 18.0523 3 17.5 3H7.5Z" fill="black"/>
</svg>
