<svg width="25" height="24" viewBox="0 0 25 24" fill="none" xmlns="http://www.w3.org/2000/svg">
<path d="M9.061 8.71018C10.1442 8.23095 11.3156 7.9834 12.5001 7.9834C13.6845 7.9834 14.8559 8.23095 15.9391 8.71018C17.0223 9.18941 17.9934 9.88974 18.79 10.7662L18.7924 10.7689C19.0824 11.0833 19.3469 11.4203 19.5836 11.7766C19.7363 12.0066 20.0467 12.0692 20.2767 11.9164C20.5067 11.7637 20.5693 11.4533 20.4166 11.2233C20.151 10.8234 19.8541 10.4453 19.5288 10.0923C18.6387 9.11329 17.5538 8.33105 16.3437 7.79568C15.1331 7.26008 13.8239 6.9834 12.5001 6.9834C11.1762 6.9834 9.86703 7.26008 8.65641 7.79568C7.44632 8.33105 6.36143 9.11331 5.47125 10.0923C5.14595 10.4453 4.84913 10.8235 4.58356 11.2233C4.43077 11.4533 4.49339 11.7637 4.72342 11.9164C4.95344 12.0692 5.26377 12.0066 5.41655 11.7766C5.6532 11.4203 5.91774 11.0833 6.20767 10.7689L6.21005 10.7662C7.00674 9.88973 7.97781 9.18941 9.061 8.71018Z" fill="black"/>
<path d="M13.5001 16.9999C13.5001 17.5522 13.0523 17.9999 12.5001 17.9999C11.9478 17.9999 11.5001 17.5522 11.5001 16.9999C11.5001 16.4477 11.9478 15.9999 12.5001 15.9999C13.0523 15.9999 13.5001 16.4477 13.5001 16.9999Z" fill="black"/>
<path d="M12.5001 10.999C11.648 10.999 10.8056 11.1801 10.0289 11.5305C9.25218 11.8809 8.55883 12.3924 7.99486 13.0311L7.99154 13.0349C7.78193 13.2675 7.58982 13.5153 7.41684 13.7764C7.26429 14.0066 6.95403 14.0695 6.72385 13.917C6.49366 13.7644 6.43072 13.4541 6.58327 13.224C6.78307 12.9225 7.00489 12.6361 7.24691 12.3673C7.90442 11.6232 8.71253 11.0273 9.61773 10.6189C10.5237 10.2103 11.5062 9.99896 12.5001 9.99896C13.4939 9.99896 14.4764 10.2103 15.3824 10.6189C16.2876 11.0273 17.0957 11.6232 17.7532 12.3674C17.9952 12.6361 18.217 12.9225 18.4168 13.224C18.5694 13.4541 18.5064 13.7644 18.2763 13.917C18.0461 14.0695 17.7358 14.0066 17.5833 13.7764C17.4103 13.5153 17.2182 13.2675 17.0086 13.0349L17.0052 13.0311C16.4413 12.3924 15.7479 11.8809 14.9712 11.5305C14.1945 11.1801 13.3521 10.999 12.5001 10.999Z" fill="black"/>
<path d="M10.9924 14.3568C11.4632 14.1321 11.9783 14.0155 12.5001 14.0155C13.0218 14.0155 13.5369 14.1321 14.0077 14.3568C14.4786 14.5816 14.8932 14.9087 15.2213 15.3144L15.2314 15.3265C15.3581 15.4733 15.4731 15.6297 15.5757 15.7943C15.7216 16.0287 16.03 16.1003 16.2644 15.9543C16.4988 15.8083 16.5705 15.5 16.4245 15.2656C16.2961 15.0595 16.1521 14.8635 15.9938 14.6793C15.5727 14.1606 15.0415 13.7422 14.4385 13.4544C13.8331 13.1654 13.1708 13.0155 12.5001 13.0155C11.8293 13.0155 11.167 13.1654 10.5616 13.4544C9.96053 13.7413 9.43069 14.158 9.01027 14.6745C8.85503 14.8465 8.71256 15.0298 8.58401 15.2226C8.43085 15.4524 8.49296 15.7628 8.72273 15.916C8.95251 16.0691 9.26294 16.007 9.4161 15.7773C9.51972 15.6218 9.63478 15.4743 9.76032 15.3359C9.76669 15.3289 9.77285 15.3217 9.7788 15.3144C10.1069 14.9087 10.5215 14.5816 10.9924 14.3568Z" fill="black"/>
</svg>
