<svg width="25" height="24" viewBox="0 0 25 24" fill="none" xmlns="http://www.w3.org/2000/svg">
<path fill-rule="evenodd" clip-rule="evenodd" d="M8 5C7.8674 5 7.74023 5.05267 7.64646 5.14645C7.55268 5.24023 7.5 5.36741 7.5 5.5V6.5C7.5 6.77614 7.27614 7 7 7C6.72386 7 6.5 6.77614 6.5 6.5V5.5C6.5 5.10216 6.65806 4.72063 6.93935 4.43934C7.22065 4.15804 7.60217 4 8 4H21C21.3978 4 21.7793 4.15804 22.0606 4.43934C22.3419 4.72063 22.5 5.10216 22.5 5.5V14.5C22.5 14.8978 22.3419 15.2794 22.0606 15.5607C21.7793 15.842 21.3978 16 21 16H16.5V17H17.98C18.2561 17 18.48 17.2239 18.48 17.5C18.48 17.7761 18.2561 18 17.98 18H10.98C10.7038 18 10.48 17.7761 10.48 17.5C10.48 17.2239 10.7038 17 10.98 17H12.49V16H11C10.7239 16 10.5 15.7761 10.5 15.5C10.5 15.2239 10.7239 15 11 15H21C21.1326 15 21.2598 14.9473 21.3535 14.8536C21.4473 14.7598 21.5 14.6326 21.5 14.5V5.5C21.5 5.36741 21.4473 5.24023 21.3535 5.14645C21.2598 5.05267 21.1326 5 21 5H8ZM13.49 16H15.5V17H13.49V16Z" fill="black"/>
<path d="M7.5 10.5C7.5 10.7761 7.27614 11 7 11C6.72386 11 6.5 10.7761 6.5 10.5C6.5 10.2239 6.72386 10 7 10C7.27614 10 7.5 10.2239 7.5 10.5Z" fill="black"/>
<path d="M5 12C4.72386 12 4.5 12.2239 4.5 12.5C4.5 12.7761 4.72386 13 5 13H7C7.27614 13 7.5 12.7761 7.5 12.5C7.5 12.2239 7.27614 12 7 12H5Z" fill="black"/>
<path d="M4.5 14.5C4.5 14.2239 4.72386 14 5 14H7C7.27614 14 7.5 14.2239 7.5 14.5C7.5 14.7761 7.27614 15 7 15H5C4.72386 15 4.5 14.7761 4.5 14.5Z" fill="black"/>
<path d="M5 16C4.72386 16 4.5 16.2239 4.5 16.5C4.5 16.7761 4.72386 17 5 17H7C7.27614 17 7.5 16.7761 7.5 16.5C7.5 16.2239 7.27614 16 7 16H5Z" fill="black"/>
<path fill-rule="evenodd" clip-rule="evenodd" d="M2.5 8.5C2.5 8.22386 2.72386 8 3 8H9C9.27614 8 9.5 8.22386 9.5 8.5V18.5C9.5 18.7761 9.27614 19 9 19H3C2.72386 19 2.5 18.7761 2.5 18.5V8.5ZM3.5 9V18H8.5V9H3.5Z" fill="black"/>
</svg>
