<svg width="25" height="24" viewBox="0 0 25 24" fill="none" xmlns="http://www.w3.org/2000/svg">
<path fill-rule="evenodd" clip-rule="evenodd" d="M8 8C7.60215 8 7.22064 8.15807 6.93935 8.43935C6.76334 8.61537 6.63557 8.83063 6.56459 9.06459C6.33063 9.13557 6.11537 9.26334 5.93935 9.43935C5.65807 9.72064 5.5 10.1021 5.5 10.5C5.5 10.8979 5.65807 11.2794 5.93935 11.5606C6.11537 11.7367 6.33063 11.8644 6.56459 11.9354C6.63557 12.1694 6.76334 12.3846 6.93935 12.5606C7.22064 12.8419 7.60215 13 8 13C8.39785 13 8.77936 12.8419 9.06065 12.5606C9.23666 12.3846 9.36443 12.1694 9.43541 11.9354C9.66936 11.8644 9.88463 11.7367 10.0606 11.5606C10.3419 11.2794 10.5 10.8979 10.5 10.5C10.5 10.1021 10.3419 9.72064 10.0606 9.43935C9.88463 9.26334 9.66936 9.13557 9.43541 9.06459C9.36443 8.83063 9.23666 8.61537 9.06065 8.43935C8.77936 8.15807 8.39785 8 8 8ZM7.64646 9.14646C7.74025 9.05267 7.86742 9 8 9C8.13258 9 8.25975 9.05267 8.35354 9.14646C8.44733 9.24025 8.5 9.36742 8.5 9.5C8.5 9.77614 8.72386 10 9 10C9.13258 10 9.25975 10.0527 9.35354 10.1465C9.44733 10.2402 9.5 10.3674 9.5 10.5C9.5 10.6326 9.44733 10.7598 9.35354 10.8535C9.25975 10.9473 9.13258 11 9 11C8.72386 11 8.5 11.2239 8.5 11.5C8.5 11.6326 8.44733 11.7598 8.35354 11.8535C8.25975 11.9473 8.13258 12 8 12C7.86742 12 7.74025 11.9473 7.64646 11.8535C7.55267 11.7598 7.5 11.6326 7.5 11.5C7.5 11.2239 7.27614 11 7 11C6.86742 11 6.74025 10.9473 6.64646 10.8535C6.55267 10.7598 6.5 10.6326 6.5 10.5C6.5 10.3674 6.55267 10.2402 6.64646 10.1465C6.74025 10.0527 6.86742 10 7 10C7.27614 10 7.5 9.77614 7.5 9.5C7.5 9.36742 7.55267 9.24025 7.64646 9.14646Z" fill="black"/>
<path d="M16.5 9C16.5 8.44772 16.9477 8 17.5 8C18.0523 8 18.5 8.44772 18.5 9C18.5 9.55228 18.0523 10 17.5 10C16.9477 10 16.5 9.55228 16.5 9Z" fill="black"/>
<path d="M15.5 10C14.9477 10 14.5 10.4477 14.5 11C14.5 11.5523 14.9477 12 15.5 12C16.0523 12 16.5 11.5523 16.5 11C16.5 10.4477 16.0523 10 15.5 10Z" fill="black"/>
<path d="M18.5 11C18.5 10.4477 18.9477 10 19.5 10C20.0523 10 20.5 10.4477 20.5 11C20.5 11.5523 20.0523 12 19.5 12C18.9477 12 18.5 11.5523 18.5 11Z" fill="black"/>
<path d="M17.5 12C16.9477 12 16.5 12.4477 16.5 13C16.5 13.5523 16.9477 14 17.5 14C18.0523 14 18.5 13.5523 18.5 13C18.5 12.4477 18.0523 12 17.5 12Z" fill="black"/>
<path fill-rule="evenodd" clip-rule="evenodd" d="M8 5C6.91244 5 5.9909 5.27366 5.23432 5.83209C4.48248 6.38702 3.93426 7.19305 3.53576 8.1893C2.7468 10.1617 2.5 12.9979 2.5 16.5C2.5 17.1631 2.76344 17.7989 3.23226 18.2677C3.70108 18.7366 4.33693 19 5 19C6.71984 19 8.0983 17.8588 9.10355 16.8536C9.36029 16.5968 9.59991 16.3412 9.81865 16.1068L9.86385 16.0583C10.0668 15.8409 10.2485 15.6461 10.4161 15.4786C10.5978 15.2968 10.7451 15.1654 10.8649 15.0815C10.9528 15.0199 10.9978 15.0043 11.0082 15.0007L11.0101 15H13.9899L13.9918 15.0007C14.0022 15.0043 14.0472 15.0199 14.1351 15.0815C14.2549 15.1654 14.4022 15.2968 14.5839 15.4786C14.7515 15.6461 14.9331 15.8407 15.1359 16.0581L15.1813 16.1068C15.4001 16.3412 15.6397 16.5968 15.8964 16.8536C16.9017 17.8588 18.2802 19 20 19C20.6631 19 21.2989 18.7366 21.7677 18.2677C22.2366 17.7989 22.5 17.1631 22.5 16.5C22.5 12.9979 22.2532 10.1617 21.4642 8.1893C21.0657 7.19305 20.5175 6.38702 19.7657 5.83209C19.0091 5.27366 18.0876 5 17 5C16.9926 5 16.9852 5.00016 16.9779 5.00049C16.2279 5.0337 15.4921 5.2155 14.8132 5.53522C14.0639 5.78353 13.2871 5.93916 12.5 5.99864C11.7129 5.93916 10.9361 5.78353 10.1868 5.53522C9.50786 5.2155 8.77207 5.0337 8.02212 5.00049C8.01475 5.00016 8.00738 5 8 5ZM3.5 16.5C3.5 13.0021 3.7532 10.3383 4.46424 8.5607C4.81574 7.68195 5.26752 7.05048 5.82818 6.63666C6.38184 6.22801 7.08185 6.00184 7.98889 6.00001C8.61149 6.02906 9.22201 6.18244 9.78446 6.45115C9.8029 6.45997 9.82187 6.46764 9.84126 6.47413C10.6901 6.75832 11.5713 6.93457 12.4642 6.99871C12.488 7.00043 12.512 7.00043 12.5358 6.99871C13.4287 6.93457 14.3099 6.75832 15.1587 6.47413C15.1781 6.46764 15.1971 6.45997 15.2155 6.45115C15.778 6.18244 16.3885 6.02906 17.0111 6.00001C17.9182 6.00184 18.6182 6.22801 19.1718 6.63666C19.7325 7.05048 20.1843 7.68195 20.5358 8.5607C21.2468 10.3383 21.5 13.0021 21.5 16.5C21.5 16.8978 21.342 17.2793 21.0606 17.5606C20.7793 17.842 20.3978 18 20 18C18.7198 18 17.5983 17.1412 16.6036 16.1464C16.3603 15.9032 16.1312 15.6588 15.9124 15.4245L15.8641 15.3727C15.6649 15.1592 15.4715 14.9519 15.2911 14.7714C15.0978 14.5782 14.9013 14.3971 14.7086 14.2623C14.5267 14.1349 14.2812 14 14 14H11C10.7188 14 10.4733 14.1349 10.2914 14.2623C10.0987 14.3971 9.9022 14.5782 9.70895 14.7714C9.5285 14.9519 9.33522 15.1591 9.1361 15.3725L9.0876 15.4245C8.86884 15.6588 8.63971 15.9032 8.39645 16.1464C7.4017 17.1412 6.28016 18 5 18C4.6022 18 4.22069 17.842 3.93937 17.5606C3.65805 17.2793 3.5 16.8978 3.5 16.5Z" fill="black"/>
</svg>
