<svg width="25" height="24" viewBox="0 0 25 24" fill="none" xmlns="http://www.w3.org/2000/svg">
<path fill-rule="evenodd" clip-rule="evenodd" d="M13.7024 7.97045L11.635 10.0379L8.27041 6.6733L7.60657 5.35511C7.57192 5.2863 7.52184 5.22643 7.46024 5.18017L4.69024 3.10017C4.49117 2.9507 4.21248 2.97042 4.03645 3.14645L2.64645 4.53645C2.47043 4.71247 2.4507 4.99117 2.60018 5.19023L4.68018 7.96023C4.72644 8.02184 4.78631 8.07192 4.85511 8.10657L6.1733 8.77041L9.5379 12.135L3.92645 17.7464L3.91513 17.7581C3.54864 18.1493 3.35255 18.67 3.36999 19.2058C3.38743 19.7415 3.61698 20.2484 4.00814 20.6149C4.3993 20.9814 4.92003 21.1775 5.45577 21.16C5.72104 21.1514 5.98202 21.0906 6.22379 20.9811C6.46292 20.8728 6.67864 20.719 6.8589 20.5282L12.395 14.9921L13.7128 16.3099L13.0265 16.9963C12.8312 17.1916 12.8312 17.5082 13.0265 17.7034L17.1821 21.859C17.7289 22.4987 18.504 22.9 19.3426 22.9768C20.1885 23.0543 21.0309 22.7954 21.6874 22.2563C21.7126 22.2356 21.7357 22.2124 21.7564 22.1872C22.2956 21.5308 22.5544 20.6884 22.4769 19.8424C22.4001 19.0038 21.9988 18.2287 21.3592 17.6819L17.2036 13.5263C17.0083 13.3311 16.6917 13.3311 16.4965 13.5263L15.8099 14.2128L14.4921 12.895L16.6226 10.7645C17.064 10.9169 17.528 10.9967 17.9965 11L18 11C19.1935 11 20.3381 10.5259 21.182 9.68198C22.0259 8.83807 22.5 7.69307 22.5 6.4996C22.4995 5.86134 22.3611 5.23073 22.0942 4.65095C22.0258 4.50236 21.8891 4.39662 21.7281 4.36781C21.567 4.33901 21.4021 4.39078 21.2864 4.50645L19.6465 6.14645C19.4517 6.34118 19.29 6.37328 19.1524 6.35456C18.9878 6.33217 18.7702 6.22314 18.5236 5.97645C18.2769 5.72976 18.1678 5.51223 18.1454 5.34762C18.1267 5.21 18.1588 5.04829 18.3536 4.85355L19.9936 3.21355C20.1092 3.09789 20.161 2.93297 20.1322 2.77195C20.1034 2.61094 19.9976 2.47419 19.8491 2.4058C19.2693 2.13894 18.6387 2.00052 18.0004 2C16.8069 2 15.6619 2.47411 14.818 3.31802C13.9763 4.15975 13.5025 5.3006 13.5 6.49072C13.4825 6.99271 13.5512 7.49316 13.7024 7.97045ZM17.9998 3C17.0716 3.00006 16.1815 3.3688 15.5251 4.02513C14.8688 4.6815 14.5 5.57174 14.5 6.5C14.5 6.50618 14.4999 6.51236 14.4997 6.51854C14.482 6.99531 14.5651 7.47045 14.7437 7.91288C14.8187 8.09888 14.7754 8.31173 14.6336 8.45355L12.3421 10.745L13.785 12.1879L16.1464 9.82645C16.2921 9.68078 16.5122 9.63936 16.7009 9.72212C17.1111 9.90209 17.5537 9.99663 18.0017 10C18.9294 9.99954 19.8189 9.63085 20.4749 8.97487C21.1312 8.31859 21.4999 7.42852 21.5 6.5004C21.4998 6.2587 21.4741 6.01842 21.4236 5.78346L20.3536 6.85355C19.9683 7.23882 19.505 7.41172 19.0176 7.34544C18.5572 7.28283 18.1498 7.01686 17.8164 6.68355C17.4831 6.35024 17.2172 5.94277 17.1546 5.48238C17.0883 4.995 17.2612 4.53171 17.6464 4.14645L18.7165 3.07636C18.4816 3.02595 18.2414 3.00021 17.9998 3ZM14.7672 16.6698L14.7736 16.6636L16.1636 15.2736L16.1699 15.2671L16.85 14.587L20.6665 18.4034C20.6765 18.4134 20.6869 18.423 20.6977 18.4322C21.1461 18.8102 21.4276 19.3496 21.4811 19.9337C21.5331 20.5014 21.3657 21.0668 21.0144 21.5142C20.567 21.8656 20.0015 22.033 19.4338 21.981C18.8498 21.9274 18.3103 21.646 17.9323 21.1976C17.9232 21.1868 17.9136 21.1763 17.9036 21.1663L14.0871 17.3499L14.7672 16.6698ZM15.1028 14.9199L7.50645 7.32355C7.46879 7.28589 7.43739 7.24246 7.41344 7.19489L6.76612 5.9095L4.43674 4.16037L3.66037 4.93674L5.4095 7.26611L6.6949 7.91343C6.74246 7.93739 6.7859 7.96879 6.82356 8.00645L14.4199 15.6028L15.1028 14.9199ZM4.63987 18.4472L10.245 12.8421L11.6879 14.285L6.14645 19.8264L6.13513 19.8381C6.04345 19.936 5.93339 20.0148 5.81125 20.0701C5.6891 20.1255 5.55725 20.1562 5.42323 20.1605C5.15257 20.1694 4.88949 20.0703 4.69186 19.8851C4.49424 19.7 4.37827 19.4439 4.36946 19.1732C4.36073 18.905 4.45793 18.6442 4.63987 18.4472Z" fill="black"/>
</svg>
