<svg width="25" height="24" viewBox="0 0 25 24" fill="none" xmlns="http://www.w3.org/2000/svg">
<path fill-rule="evenodd" clip-rule="evenodd" d="M5.51904 6.1076C5.19941 6.46171 4.94301 6.88625 4.76714 7.35793C4.59115 7.82992 4.5 8.33805 4.5 8.85234C4.5 9.36662 4.59114 9.87459 4.76714 10.3466C4.94312 10.8186 5.19974 11.2434 5.51965 11.5976C5.70473 11.8025 5.68863 12.1187 5.48369 12.3038C5.27875 12.4889 4.96257 12.4728 4.7775 12.2678C4.36965 11.8162 4.04848 11.2815 3.83015 10.696C3.61183 10.1104 3.5 9.48403 3.5 8.85234C3.5 8.22067 3.61183 7.5941 3.83015 7.00856C4.04848 6.42302 4.36965 5.88831 4.7775 5.4367L4.77872 5.43534C5.60857 4.52315 6.73772 4 7.92706 4C9.11604 4 10.2449 4.52284 11.0746 5.43453L11.0754 5.43534L12.5 6.98783L13.9247 5.43534L13.9254 5.4345C14.7552 4.52283 15.884 4 17.073 4C18.2624 4 19.3914 4.52316 20.2213 5.43534L20.2225 5.4367C20.6303 5.88831 20.9515 6.42302 21.1698 7.00856C21.3882 7.5941 21.5 8.22067 21.5 8.85234C21.5 9.48403 21.3882 10.1104 21.1698 10.696C20.9515 11.2815 20.6303 11.8162 20.2225 12.2678C20.0374 12.4728 19.7213 12.4889 19.5163 12.3038C19.3114 12.1187 19.2953 11.8025 19.4803 11.5976C19.8003 11.2434 20.0569 10.8186 20.2329 10.3466C20.4089 9.87459 20.5 9.36662 20.5 8.85234C20.5 8.33805 20.4088 7.82992 20.2329 7.35793C20.057 6.88623 19.8006 6.46169 19.4809 6.10757C18.8278 5.38997 17.9618 5 17.073 5C16.1839 5 15.3176 5.39023 14.6644 6.10828L14.6629 6.10987L12.8684 8.06541C12.7737 8.1686 12.6401 8.22735 12.5 8.22735C12.36 8.22735 12.2263 8.1686 12.1316 8.06541L10.3357 6.10828C9.68246 5.39023 8.81617 5 7.92706 5C7.03823 5 6.1722 5.38999 5.51904 6.1076ZM17.6982 14.1419C17.896 14.3347 17.9001 14.6512 17.7073 14.849L12.8342 19.849C12.7398 19.9457 12.6104 20.0002 12.4753 20C12.3402 19.9998 12.2109 19.9449 12.1169 19.8478L7.38733 14.9635C7.19523 14.7651 7.20033 14.4486 7.39871 14.2565C7.59708 14.0644 7.91363 14.0695 8.10572 14.2678L12.4773 18.7824L16.9912 14.151C17.1839 13.9533 17.5005 13.9492 17.6982 14.1419Z" fill="black"/>
<path fill-rule="evenodd" clip-rule="evenodd" d="M15.8047 7.5C15.9932 7.50062 16.1653 7.60721 16.2499 7.7757L18.8721 13H21.2C21.4761 13 21.7 13.2239 21.7 13.5C21.7 13.7761 21.4761 14 21.2 14H18.5636C18.3745 14 18.2016 13.8933 18.1168 13.7243L15.7994 9.10742L13.1878 14.2272C13.115 14.37 12.9781 14.4692 12.8197 14.494C12.6613 14.5188 12.5007 14.4661 12.3877 14.3524L9.16774 11.1106L6.46187 13.8513C6.36792 13.9464 6.23978 14 6.10606 14H4C3.72386 14 3.5 13.7761 3.5 13.5C3.5 13.2239 3.72386 13 4 13H5.89708L8.81086 10.0487C8.90462 9.95375 9.03246 9.9002 9.16591 9.9C9.29937 9.8998 9.42736 9.95296 9.52141 10.0476L12.6107 13.1579L15.3576 7.7728C15.4433 7.60487 15.6161 7.49939 15.8047 7.5Z" fill="black"/>
</svg>
