<svg width="25" height="24" viewBox="0 0 25 24" fill="none" xmlns="http://www.w3.org/2000/svg">
<path fill-rule="evenodd" clip-rule="evenodd" d="M17.5 20C17.5 20.5523 17.0523 21 16.5 21H7.5V4H16.5C17.0523 4 17.5 4.44772 17.5 5V7.5C17.5 7.77614 17.7239 8 18 8C18.2761 8 18.5 7.77614 18.5 7.5V5C18.5 3.89543 17.6046 3 16.5 3H6.5C5.39543 3 4.5 3.89543 4.5 5V20C4.5 21.1046 5.39543 22 6.5 22H16.5C17.6046 22 18.5 21.1046 18.5 20V17.75C18.5 17.4739 18.2761 17.25 18 17.25C17.7239 17.25 17.5 17.4739 17.5 17.75V20ZM5.5 5C5.5 4.44772 5.94772 4 6.5 4V21C5.94772 21 5.5 20.5523 5.5 20V5Z" fill="black"/>
<path fill-rule="evenodd" clip-rule="evenodd" d="M20.49 8.05078C20.2102 8.05078 19.9332 8.10617 19.6749 8.21375C19.4174 8.32097 19.1837 8.47793 18.987 8.67562L10.6488 16.9039C10.5536 16.9978 10.5 17.126 10.5 17.2598V19.6198C10.5 19.8959 10.7239 20.1198 11 20.1198H13.36C13.4926 20.1198 13.6198 20.0671 13.7136 19.9733L21.9932 11.6936C22.1918 11.4958 22.3493 11.2608 22.4568 11.002C22.5644 10.743 22.6198 10.4653 22.6198 10.1848C22.6198 9.90429 22.5644 9.62659 22.4568 9.36759C22.3494 9.10905 22.1921 8.87423 21.9939 8.67654C21.797 8.47842 21.563 8.32114 21.3051 8.21375C21.0468 8.10617 20.7698 8.05078 20.49 8.05078ZM21.2851 9.38194L21.64 9.02977L21.2872 9.38407C21.3926 9.48906 21.4763 9.61384 21.5334 9.75125C21.5905 9.88867 21.6198 10.036 21.6198 10.1848C21.6198 10.3336 21.5905 10.4809 21.5334 10.6183C21.4763 10.7557 21.3926 10.8805 21.2872 10.9855L21.2864 10.9862L20.8053 11.4673L19.2042 9.86625L19.6912 9.38569L19.6949 9.38194C19.799 9.27701 19.9229 9.19372 20.0594 9.13688C20.1958 9.08004 20.3422 9.05078 20.49 9.05078C20.6378 9.05078 20.7842 9.08004 20.9206 9.13688C21.0571 9.19371 21.1809 9.277 21.2851 9.38194ZM18.4924 10.5687L20.0982 12.1745L13.1529 19.1198H13.1179L11.5 17.5019V17.4688L18.4924 10.5687ZM11.7037 19.1198L11.5 18.9161V19.1198H11.7037Z" fill="black"/>
<path fill-rule="evenodd" clip-rule="evenodd" d="M9 6C8.72386 6 8.5 6.22386 8.5 6.5V9.5C8.5 9.77614 8.72386 10 9 10H16C16.2761 10 16.5 9.77614 16.5 9.5V6.5C16.5 6.22386 16.2761 6 16 6H9ZM9.5 9V7H15.5V9H9.5Z" fill="black"/>
</svg>
