<svg width="25" height="24" viewBox="0 0 25 24" fill="none" xmlns="http://www.w3.org/2000/svg">
<path d="M18 13.8787C18.2761 13.8787 18.5 14.1025 18.5 14.3787V16H20.1213C20.3975 16 20.6213 16.2239 20.6213 16.5C20.6213 16.7761 20.3975 17 20.1213 17H18.5V18.6213C18.5 18.8975 18.2761 19.1213 18 19.1213C17.7239 19.1213 17.5 18.8975 17.5 18.6213V17H15.8787C15.6025 17 15.3787 16.7761 15.3787 16.5C15.3787 16.2239 15.6025 16 15.8787 16H17.5V14.3787C17.5 14.1025 17.7239 13.8787 18 13.8787Z" fill="black"/>
<path fill-rule="evenodd" clip-rule="evenodd" d="M20.0189 12.4772L20.2095 12.2817L20.2162 12.2747L20.2225 12.2678C20.6303 11.8162 20.9515 11.2815 21.1698 10.696C21.3882 10.1104 21.5 9.48403 21.5 8.85234C21.5 8.22067 21.3882 7.5941 21.1698 7.00856C20.9515 6.42302 20.6303 5.88831 20.2225 5.4367L20.2213 5.43534C19.3914 4.52316 18.2624 4 17.073 4C15.884 4 14.7552 4.52283 13.9254 5.4345L13.9247 5.43534L12.5 6.98783L11.0754 5.43534L11.0746 5.43452C10.2449 4.52284 9.11604 4 7.92706 4C6.73772 4 5.60857 4.52315 4.77872 5.43534L4.7775 5.4367C4.36965 5.88831 4.04848 6.42302 3.83015 7.00856C3.61183 7.5941 3.5 8.22068 3.5 8.85234C3.5 9.48403 3.61183 10.1104 3.83015 10.696C4.04848 11.2815 4.36965 11.8162 4.7775 12.2678C4.78138 12.2721 4.78534 12.2764 4.78938 12.2805L12.1169 19.8478C12.2109 19.9449 12.3402 19.9998 12.4753 20C12.6104 20.0002 12.7398 19.9457 12.8342 19.849L14.0305 18.6215C14.7886 20.0371 16.2819 21 18 21C20.4853 21 22.5 18.9853 22.5 16.5C22.5 14.7407 21.4904 13.2172 20.0189 12.4772ZM5.51904 6.1076C5.19941 6.46171 4.94301 6.88625 4.76714 7.35793C4.59115 7.82992 4.5 8.33805 4.5 8.85234C4.5 9.36662 4.59114 9.87459 4.76714 10.3466C4.94209 10.8158 5.19673 11.2384 5.51402 11.5913L12.4773 18.7824L13.6342 17.5953C13.5466 17.2447 13.5 16.8778 13.5 16.5C13.5 14.0147 15.5147 12 18 12C18.3376 12 18.6664 12.0372 18.9827 12.1076L19.4865 11.5908C19.8036 11.2379 20.058 10.8155 20.2329 10.3466C20.4089 9.87459 20.5 9.36662 20.5 8.85234C20.5 8.33805 20.4088 7.82992 20.2329 7.35793C20.057 6.88623 19.8006 6.46169 19.4809 6.10757C18.8278 5.38997 17.9618 5 17.073 5C16.1839 5 15.3176 5.39023 14.6644 6.10828L14.6629 6.10987L12.8684 8.06541C12.7737 8.1686 12.6401 8.22735 12.5 8.22735C12.36 8.22735 12.2263 8.1686 12.1316 8.06541L10.3357 6.10828C9.68246 5.39023 8.81617 5 7.92706 5C7.03823 5 6.1722 5.38999 5.51904 6.1076ZM14.5 16.5C14.5 14.567 16.067 13 18 13C19.933 13 21.5 14.567 21.5 16.5C21.5 18.433 19.933 20 18 20C16.067 20 14.5 18.433 14.5 16.5Z" fill="black"/>
</svg>
