<svg width="25" height="24" viewBox="0 0 25 24" fill="none" xmlns="http://www.w3.org/2000/svg">
<path d="M16.7635 3.58839C16.5926 3.47054 16.3667 3.47054 16.1958 3.58839L16.1942 3.58948L16.1912 3.59157L16.181 3.59873L16.1443 3.62479C16.1128 3.6473 16.0677 3.68003 16.0108 3.72238C15.8972 3.80706 15.7364 3.93043 15.5442 4.08782C15.1606 4.40198 14.6479 4.85487 14.1335 5.40916C13.9457 5.61158 13.9575 5.92794 14.1599 6.11578C14.3623 6.30362 14.6787 6.2918 14.8665 6.08939C15.342 5.57705 15.8191 5.1553 16.1778 4.86148C16.2922 4.76782 16.3941 4.68749 16.4797 4.62169C16.5652 4.68749 16.6672 4.76782 16.7815 4.86148C17.1403 5.1553 17.6174 5.57705 18.0928 6.08939C19.0646 7.13652 19.939 8.46566 19.939 9.80248C19.939 10.9444 19.4279 11.9577 18.6351 12.6151C18.4225 12.7914 18.3931 13.1066 18.5694 13.3192C18.7456 13.5317 19.0609 13.5612 19.2734 13.3849C20.291 12.541 20.939 11.2475 20.939 9.80248C20.939 8.0674 19.8338 6.4953 18.8258 5.40916C18.3115 4.85487 17.7987 4.40198 17.4151 4.08782C17.2229 3.93043 17.0622 3.80706 16.9485 3.72238C16.8917 3.68003 16.8465 3.6473 16.8151 3.62479L16.7784 3.59873L16.7681 3.59157L16.7651 3.58948L16.7635 3.58839Z" fill="black"/>
<path d="M7.19273 15.0559C7.10522 14.794 6.82196 14.6526 6.56005 14.7401C6.29814 14.8276 6.15677 15.1109 6.24428 15.3728C6.66643 16.6362 7.60444 17.6568 8.80688 18.1603C9.06159 18.267 9.35454 18.147 9.4612 17.8923C9.56786 17.6376 9.44784 17.3446 9.19313 17.2379C8.26327 16.8486 7.52583 16.0528 7.19273 15.0559Z" fill="black"/>
<path fill-rule="evenodd" clip-rule="evenodd" d="M10.7773 5.08397C10.6094 4.97201 10.3906 4.97201 10.2227 5.08397L10.2207 5.08527L10.2166 5.08803L10.202 5.09791C10.1895 5.10642 10.1714 5.11875 10.1482 5.1348C10.1018 5.1669 10.0347 5.2139 9.94997 5.27494C9.78052 5.39699 9.54003 5.57538 9.25215 5.80329C8.67719 6.25847 7.90913 6.91433 7.13931 7.71623C5.62263 9.2961 4 11.5445 4 14C4 17.5899 6.91015 20.5 10.5 20.5C14.0899 20.5 17 17.5899 17 14C17 11.5445 15.3774 9.2961 13.8607 7.71623C13.0909 6.91433 12.3228 6.25847 11.7479 5.80329C11.46 5.57538 11.2195 5.39699 11.05 5.27494C10.9653 5.2139 10.8982 5.1669 10.8518 5.1348C10.8286 5.11875 10.8105 5.10642 10.798 5.09791L10.7834 5.08803L10.7793 5.08527L10.7773 5.08397ZM9.87285 6.58734C10.1282 6.38518 10.3435 6.22465 10.5 6.11124C10.6565 6.22465 10.8718 6.38518 11.1271 6.58734C11.6772 7.02278 12.4091 7.64817 13.1393 8.40877C14.6226 9.9539 16 11.9555 16 14C16 17.0376 13.5376 19.5 10.5 19.5C7.46243 19.5 5 17.0376 5 14C5 11.9555 6.37737 9.9539 7.86069 8.40877C8.59087 7.64817 9.32281 7.02278 9.87285 6.58734Z" fill="black"/>
</svg>
