<svg width="25" height="24" viewBox="0 0 25 24" fill="none" xmlns="http://www.w3.org/2000/svg">
<path fill-rule="evenodd" clip-rule="evenodd" d="M6 4C5.86739 4 5.74021 4.05268 5.64645 4.14645C5.55268 4.24021 5.5 4.36739 5.5 4.5C5.5 6.48912 6.29018 8.39678 7.6967 9.8033C8.9849 11.0915 10.6935 11.8627 12.5 11.9833V13.5H8C7.45816 13.5 6.97562 13.9475 7.02025 14.5377C7.26987 17.8389 9.81756 20.5 13 20.5C16.1824 20.5 18.7301 17.8389 18.9798 14.5377C19.0244 13.9475 18.5418 13.5 18 13.5H13.5V11.5C13.5872 11.4988 13.683 11.4949 13.7862 11.4881C14.2674 11.4562 14.9208 11.3497 15.5916 11.0459C16.2669 10.74 16.9567 10.2351 17.4976 9.41712C18.0375 8.6008 18.4109 7.5003 18.4991 6.02993C18.5077 5.88719 18.4547 5.74761 18.3536 5.64648C18.2525 5.54536 18.1129 5.49236 17.9702 5.50089C16.4945 5.58908 15.3912 5.96254 14.5738 6.50268C13.7547 7.044 13.2505 7.7344 12.9462 8.41057C12.9269 8.45344 12.9084 8.49624 12.8907 8.53893C12.5185 7.67276 11.9828 6.87624 11.3033 6.1967C9.89678 4.79018 7.98912 4 6 4ZM13 19.5C15.5726 19.5 17.7472 17.3398 17.9796 14.5H8.02037C8.25278 17.3398 10.4274 19.5 13 19.5ZM10.5962 6.90381C11.6918 7.99942 12.3559 9.44588 12.4791 10.9791C10.9459 10.8559 9.49942 10.1918 8.40381 9.09619C7.30819 8.00058 6.64409 6.55412 6.52089 5.02089C8.05412 5.14409 9.50058 5.80819 10.5962 6.90381ZM13.5003 10.4994C13.5673 10.4983 13.6409 10.4955 13.7201 10.4902C14.1195 10.4638 14.6475 10.3757 15.179 10.135C15.7061 9.89622 16.2397 9.50638 16.6635 8.86551C17.0234 8.32133 17.3171 7.57637 17.4471 6.55268C16.4179 6.6826 15.6703 6.97674 15.1251 7.33698C14.4838 7.76082 14.0951 8.29426 13.8581 8.82094C13.6191 9.35217 13.5331 9.88 13.5085 10.2795C13.5036 10.3587 13.5011 10.4324 13.5003 10.4994Z" fill="black"/>
</svg>
