<svg width="25" height="24" viewBox="0 0 25 24" fill="none" xmlns="http://www.w3.org/2000/svg">
<path fill-rule="evenodd" clip-rule="evenodd" d="M16 6C14.6193 6 13.5 7.11929 13.5 8.5C13.5 9.88071 14.6193 11 16 11C17.3807 11 18.5 9.88071 18.5 8.5C18.5 7.11929 17.3807 6 16 6ZM14.5 8.5C14.5 7.67157 15.1716 7 16 7C16.8284 7 17.5 7.67157 17.5 8.5C17.5 9.32843 16.8284 10 16 10C15.1716 10 14.5 9.32843 14.5 8.5Z" fill="black"/>
<path fill-rule="evenodd" clip-rule="evenodd" d="M22.5 18.5C22.5 19.8807 21.3807 21 20 21H5C3.61929 21 2.5 19.8807 2.5 18.5V5.5C2.5 4.11929 3.61929 3 5 3H20C21.3807 3 22.5 4.11929 22.5 5.5V18.5ZM3.5 5.5C3.5 4.67157 4.17157 4 5 4H20C20.8284 4 21.5 4.67157 21.5 5.5V16.2929L18.3536 13.1464C18.1583 12.9512 17.8417 12.9512 17.6464 13.1464L14.7033 16.0896L9.37165 10.1655C9.27542 10.0586 9.13779 9.9983 8.99395 10C8.85011 10.0018 8.71399 10.0654 8.62037 10.1746L3.5 16.1484V5.5ZM15.3732 16.8339L18.2227 20H20C20.8284 20 21.5 19.3284 21.5 18.5V17.7071L18 14.2071L15.3732 16.8339ZM9.00916 11.2576L16.8773 20H5C4.17157 20 3.5 19.3284 3.5 18.5V17.685L9.00916 11.2576Z" fill="black"/>
</svg>
