<svg width="25" height="24" viewBox="0 0 25 24" fill="none" xmlns="http://www.w3.org/2000/svg">
<path d="M20.1213 17C20.3975 17 20.6213 16.7761 20.6213 16.5C20.6213 16.2239 20.3975 16 20.1213 16H15.8787C15.6025 16 15.3787 16.2239 15.3787 16.5C15.3787 16.7761 15.6025 17 15.8787 17H20.1213Z" fill="black"/>
<path fill-rule="evenodd" clip-rule="evenodd" d="M20.2095 12.2817L20.0189 12.4772C21.4904 13.2172 22.5 14.7407 22.5 16.5C22.5 18.9853 20.4853 21 18 21C16.2819 21 14.7886 20.0371 14.0305 18.6215L12.8342 19.849C12.7398 19.9457 12.6104 20.0002 12.4753 20C12.3402 19.9998 12.2109 19.9449 12.1169 19.8478L4.78938 12.2805C4.78534 12.2764 4.78138 12.2721 4.7775 12.2678C4.36965 11.8162 4.04848 11.2815 3.83015 10.696C3.61183 10.1104 3.5 9.48403 3.5 8.85234C3.5 8.22068 3.61183 7.5941 3.83015 7.00856C4.04848 6.42302 4.36965 5.88831 4.7775 5.4367L4.77872 5.43534C5.60857 4.52315 6.73772 4 7.92706 4C9.11604 4 10.2449 4.52284 11.0746 5.43452L11.0754 5.43534L12.5 6.98783L13.9247 5.43534L13.9254 5.4345C14.7552 4.52283 15.884 4 17.073 4C18.2624 4 19.3914 4.52316 20.2213 5.43534L20.2225 5.4367C20.6303 5.88831 20.9515 6.42302 21.1698 7.00856C21.3882 7.5941 21.5 8.22067 21.5 8.85234C21.5 9.48403 21.3882 10.1104 21.1698 10.696C20.9515 11.2815 20.6303 11.8162 20.2225 12.2678L20.2162 12.2747L20.2095 12.2817ZM4.76714 7.35793C4.94301 6.88625 5.19941 6.46171 5.51904 6.1076C6.1722 5.38999 7.03823 5 7.92706 5C8.81617 5 9.68246 5.39023 10.3357 6.10828L12.1316 8.06541C12.2263 8.1686 12.36 8.22735 12.5 8.22735C12.6401 8.22735 12.7737 8.1686 12.8684 8.06541L14.6629 6.10987L14.6644 6.10828C15.3176 5.39023 16.1839 5 17.073 5C17.9618 5 18.8278 5.38997 19.4809 6.10757C19.8006 6.46169 20.057 6.88623 20.2329 7.35793C20.4088 7.82992 20.5 8.33805 20.5 8.85234C20.5 9.36662 20.4089 9.87459 20.2329 10.3466C20.058 10.8155 19.8036 11.2379 19.4865 11.5908L18.9827 12.1076C18.6664 12.0372 18.3376 12 18 12C15.5147 12 13.5 14.0147 13.5 16.5C13.5 16.8778 13.5466 17.2447 13.6342 17.5953L12.4773 18.7824L5.51402 11.5913C5.19673 11.2384 4.94209 10.8158 4.76714 10.3466C4.59114 9.87459 4.5 9.36662 4.5 8.85234C4.5 8.33805 4.59115 7.82992 4.76714 7.35793ZM18 13C16.067 13 14.5 14.567 14.5 16.5C14.5 18.433 16.067 20 18 20C19.933 20 21.5 18.433 21.5 16.5C21.5 14.567 19.933 13 18 13Z" fill="black"/>
</svg>
