<svg width="25" height="24" viewBox="0 0 25 24" fill="none" xmlns="http://www.w3.org/2000/svg">
<path fill-rule="evenodd" clip-rule="evenodd" d="M5 20C4.17157 20 3.5 19.3284 3.5 18.5V7H6.5V7.5C6.5 7.77614 6.72386 8 7 8C7.27614 8 7.5 7.77614 7.5 7.5V7H12.5V7.5C12.5 7.77614 12.7239 8 13 8C13.2761 8 13.5 7.77614 13.5 7.5V7H16.5V11C16.5 11.2761 16.7239 11.5 17 11.5C17.2761 11.5 17.5 11.2761 17.5 11V6.5C17.5 6.22386 17.2761 6 17 6H13.5V4.5C13.5 3.67157 12.8284 3 12 3H8C7.17157 3 6.5 3.67157 6.5 4.5V6H3C2.72386 6 2.5 6.22386 2.5 6.5V18.5C2.5 19.8807 3.61929 21 5 21H13.5C13.7761 21 14 20.7761 14 20.5C14 20.2239 13.7761 20 13.5 20H5ZM7.5 4.5C7.5 4.22386 7.72386 4 8 4H12C12.2761 4 12.5 4.22386 12.5 4.5V6H7.5V4.5Z" fill="black"/>
<path fill-rule="evenodd" clip-rule="evenodd" d="M15.5 13.5C15.5 13.2239 15.7239 13 16 13H22C22.2761 13 22.5 13.2239 22.5 13.5V18.5C22.5 19.8807 21.3807 21 20 21H18C16.9748 21 16.0938 20.383 15.708 19.5H15C14.1716 19.5 13.5 18.8284 13.5 18V16C13.5 15.1716 14.1716 14.5 15 14.5H15.5V13.5ZM14.5 16C14.5 15.7239 14.7239 15.5 15 15.5H15.5V18.5H15C14.7239 18.5 14.5 18.2761 14.5 18V16ZM18 20C17.1716 20 16.5 19.3284 16.5 18.5V14H21.5V18.5C21.5 19.3284 20.8284 20 20 20H18Z" fill="black"/>
<path fill-rule="evenodd" clip-rule="evenodd" d="M8.05418 11.6789C9.34061 11.4404 10.6594 11.4404 11.9458 11.6789C12.1649 11.7195 12.3307 11.9002 12.3523 12.122L12.4812 13.4436C12.5633 14.214 12.3752 14.9895 11.9489 15.6353C11.5222 16.2818 10.8834 16.7578 10.1432 16.9791C10.0498 17.007 9.95022 17.007 9.85679 16.9791C9.1166 16.7578 8.47783 16.2818 8.05107 15.6353C7.62483 14.9895 7.43675 14.214 7.51881 13.4436L7.64771 12.122C7.66933 11.9002 7.8351 11.7195 8.05418 11.6789ZM11.4861 13.543L11.3943 12.601C10.4696 12.4663 9.53044 12.4663 8.60573 12.601L8.51389 13.543L8.51337 13.5478C8.45536 14.0886 8.58735 14.6324 8.88566 15.0844C9.15585 15.4937 9.5467 15.8039 10 15.9729C10.4533 15.8039 10.8442 15.4937 11.1143 15.0844C11.4127 14.6324 11.5446 14.0886 11.4866 13.5478L11.4861 13.543Z" fill="black"/>
</svg>
