<svg width="25" height="24" viewBox="0 0 25 24" fill="none" xmlns="http://www.w3.org/2000/svg">
<path fill-rule="evenodd" clip-rule="evenodd" d="M17.063 5C17.1102 4.8165 17.1829 4.64319 17.2769 4.48404L16.5251 3.73225C16.3298 3.53698 16.3298 3.2204 16.5251 3.02514C16.7204 2.82988 17.037 2.82988 17.2322 3.02514L17.984 3.77692C18.1432 3.68287 18.3165 3.61024 18.5 3.56301V2.5C18.5 2.22386 18.7239 2 19 2C19.2761 2 19.5 2.22386 19.5 2.5V3.56301C19.6835 3.61024 19.8568 3.68287 20.016 3.77692L20.7678 3.02514C20.963 2.82988 21.2796 2.82988 21.4749 3.02514C21.6702 3.2204 21.6702 3.53698 21.4749 3.73225L20.7231 4.48404C20.8171 4.64319 20.8898 4.8165 20.937 5H22C22.2761 5 22.5 5.22386 22.5 5.5C22.5 5.77614 22.2761 6 22 6H20.937C20.8898 6.18352 20.8171 6.35684 20.7231 6.516L21.4749 7.26778C21.6701 7.46304 21.6701 7.77962 21.4749 7.97489C21.2796 8.17015 20.963 8.17015 20.7677 7.97489L20.016 7.2231C19.8568 7.31714 19.6835 7.38976 19.5 7.43699V8.5C19.5 8.77614 19.2761 9 19 9C18.7239 9 18.5 8.77614 18.5 8.5V7.43699C18.3165 7.38976 18.1432 7.31714 17.984 7.2231L17.2323 7.97489C17.037 8.17015 16.7204 8.17015 16.5251 7.97489C16.3299 7.77963 16.3299 7.46304 16.5251 7.26778L17.2769 6.516C17.1829 6.35684 17.1102 6.18352 17.063 6L16 6C15.7239 6 15.5 5.77614 15.5 5.5C15.5 5.22386 15.7239 5 16 5H17.063ZM19 4.5C19.5523 4.5 20 4.94772 20 5.5C20 6.05228 19.5523 6.5 19 6.5C18.4477 6.5 18 6.05228 18 5.5C18 4.94772 18.4477 4.5 19 4.5Z" fill="black"/>
<path fill-rule="evenodd" clip-rule="evenodd" d="M7.94498 5.13735C7.67946 5.21321 7.52572 5.48995 7.60158 5.75547L7.73933 6.23761C4.77505 7.27858 2.93589 10.1003 3.40263 12.9938C3.42509 13.1331 3.50537 13.2564 3.62366 13.3333C3.74195 13.4103 3.88723 13.4336 4.02367 13.3977L9.38163 11.9856L11.2533 18.5365C8.04637 18.7255 5.20713 19.6364 3.33453 21H3C2.72386 21 2.5 21.2239 2.5 21.5C2.5 21.7761 2.72386 22 3 22H22C22.2761 22 22.5 21.7761 22.5 21.5C22.5 21.2239 22.2761 21 22 21H21.6655C19.5535 19.462 16.2119 18.5 12.5 18.5C12.4276 18.5 12.3553 18.5004 12.2832 18.5011L10.3488 11.7307L15.6275 10.3396C15.7639 10.3036 15.8788 10.2117 15.9438 10.0865C16.0088 9.96125 16.0179 9.81438 15.9688 9.68211C14.931 6.88639 11.8528 5.33187 8.70341 5.97183L8.5631 5.48075C8.48724 5.21523 8.2105 5.06149 7.94498 5.13735ZM12.5 19.5C9.68348 19.5 7.15077 20.0791 5.27797 21H19.7221C17.8493 20.0791 15.3166 19.5 12.5 19.5ZM14.8067 9.52176L4.33477 12.2815C4.24521 9.9697 5.90632 7.7308 8.55136 7.03372C11.1964 6.33664 13.7452 7.46606 14.8067 9.52176Z" fill="black"/>
</svg>
