<svg width="25" height="24" viewBox="0 0 25 24" fill="none" xmlns="http://www.w3.org/2000/svg">
<path d="M4.77872 5.43534C5.60857 4.52315 6.73772 4 7.92706 4C9.11604 4 10.2449 4.52284 11.0746 5.43453L11.0754 5.43534L12.5 6.98783L13.9247 5.43534L13.9254 5.43452C14.7552 4.52284 15.884 4 17.073 4C18.2624 4 19.3914 4.52316 20.2213 5.43534L20.2225 5.4367C20.6303 5.88831 20.9515 6.42302 21.1698 7.00856C21.3882 7.5941 21.5 8.22067 21.5 8.85234C21.5 9.48403 21.3882 10.1104 21.1698 10.696C20.9515 11.2815 20.6303 11.8162 20.2225 12.2678C20.2183 12.2725 20.2139 12.2772 20.2095 12.2817L12.8342 19.849C12.7398 19.9457 12.6104 20.0002 12.4753 20C12.3402 19.9998 12.2109 19.9449 12.1169 19.8478L4.78938 12.2805C4.78534 12.2764 4.78138 12.2721 4.7775 12.2678C4.36965 11.8162 4.04848 11.2815 3.83015 10.696C3.61183 10.1104 3.5 9.48403 3.5 8.85234C3.5 8.22068 3.61183 7.5941 3.83015 7.00856C4.04848 6.42302 4.36965 5.88831 4.7775 5.4367L4.77872 5.43534Z" fill="black"/>
</svg>
