<svg width="25" height="24" viewBox="0 0 25 24" fill="none" xmlns="http://www.w3.org/2000/svg">
<path fill-rule="evenodd" clip-rule="evenodd" d="M13 2.5C13 2.22386 12.7761 2 12.5 2C12.2239 2 12 2.22386 12 2.5V3.01215C7.51165 3.23085 3.90659 6.3781 3.50245 10.4506C3.4885 10.5911 3.53462 10.731 3.6294 10.8356C3.72419 10.9403 3.8588 11 4 11H12V19.5866C11.978 19.967 11.8121 20.3249 11.5356 20.5875C11.2564 20.8528 10.8858 21.0005 10.5006 21L10.5 21.5L10.4994 21C10.1142 21.0005 9.74362 20.8528 9.46438 20.5875C9.18794 20.3249 9.02199 19.967 9 19.5866V18.5C9 18.2239 8.77614 18 8.5 18C8.22386 18 8 18.2239 8 18.5V19.6C8 19.6083 8.00021 19.6167 8.00063 19.625C8.03272 20.2661 8.31022 20.8704 8.77563 21.3125C9.24088 21.7545 9.85828 22.0006 10.5 22C11.1417 22.0006 11.7591 21.7545 12.2244 21.3125C12.6898 20.8704 12.9673 20.2661 12.9994 19.625C12.9998 19.6167 13 19.6083 13 19.6V11H21C21.1412 11 21.2758 10.9403 21.3706 10.8356C21.4654 10.731 21.5115 10.5911 21.4976 10.4506C21.0934 6.3781 17.4884 3.23085 13 3.01215V2.5ZM12 19.5866L12.0006 19.575L12.5 19.6H12V19.5866ZM12.5 4C8.43604 4 5.20284 6.62323 4.57569 10H20.4243C19.7972 6.62323 16.564 4 12.5 4Z" fill="black"/>
</svg>
